<?xml version="1.0" encoding="utf-8"?>
<!-- Generator: Adobe Illustrator 24.1.1, SVG Export Plug-In . SVG Version: 6.00 Build 0)  -->
<svg version="1.1" id="Layer_1" xmlns="http://www.w3.org/2000/svg" xmlns:xlink="http://www.w3.org/1999/xlink" x="0px" y="0px"
	 viewBox="0 0 1380 1080" style="enable-background:new 0 0 1380 1080;" xml:space="preserve">
<style type="text/css">
	.st0{clip-path:url(#SVGID_2_);}
	.st1{fill:#22B5AF;}
	.st2{fill:#3FA148;}
	.st3{opacity:0.3;fill:#3FA148;}
	.st4{fill:#D34247;}
	.st5{fill:#D2CED8;}
	.st6{fill:#A9A9AA;}
	.st7{fill:#EBDDFB;}
	.st8{fill:#555259;}
	.st9{fill:#FFFFFF;}
	.st10{fill:#565656;}
	.st11{fill:#934307;}
	.st12{fill:#AF560C;}
	.st13{fill:#CF650E;}
	.st14{fill:#CFFE01;}
	.st15{font-family:'MyriadPro-Regular';}
	.st16{font-size:26.1188px;}
</style>
<g>
	<defs>
		<rect id="SVGID_1_" width="1380" height="1080"/>
	</defs>
	<clipPath id="SVGID_2_">
		<use xlink:href="#SVGID_1_"  style="overflow:visible;"/>
	</clipPath>
	<g class="st0">
		<g>
			<rect x="-224.45" y="-523.58" class="st1" width="1837.28" height="1190.31"/>
			<g>
				<path class="st2" d="M2242.61,345.01c-268.38-14.33-534.46-19.61-803.31-10.53c-225.84,7.65-451.86,13.72-677.99,12.49
					c-226.92-1.36-453.02-15.46-679.99-9.26c-224.25,6.2-447.91,23.28-672.31,26.12c-111.91,1.44-223.84,1.22-335.71-1
					c-50.66-1.05-102.21,0.48-152.83-2.14v573.51h3545.65V357.33C2391.65,353.23,2317.15,348.99,2242.61,345.01z"/>
				<path class="st3" d="M-242.61,926.96c-88.06-6.42-176.95-12.14-263.31-27.43c-46.92-8.21-120.12-16.73-155.2-46.22
					c-77.92-65.56,302.03-134.97,347.37-149.87c28.52-9.3,76.36-38.09,25.58-49.97c-46.97-11.14-97.84-15.02-146.8-17.3
					c-103.3-4.94-207.04-1.14-310.45-1.53c-108.59-0.4-223.84,6.51-334.11-3.93v303.49h926.89
					C-182.61,931.63-212.55,929.19-242.61,926.96z"/>
			</g>
			<path class="st4" d="M186.49,378.31h-1.03c-0.11,0-0.27,0.26-0.11,0.26h1.01C186.5,378.57,186.65,378.31,186.49,378.31z"/>
			<g>
				<g>
					<g>
						<rect x="440.83" y="281.63" class="st5" width="253.42" height="19.85"/>
						<path class="st5" d="M694.86,302.09H440.21v-21.08h254.64V302.09z"/>
					</g>
					<g>
						<rect x="440.83" y="335.22" class="st5" width="253.42" height="19.85"/>
						<path class="st5" d="M694.86,355.69H440.21v-21.08h254.64V355.69z"/>
					</g>
					<g>
						<g>
							<g>
								<polygon class="st6" points="615.62,264.7 618.62,264.7 630.04,277.9 630.04,373.39 615.11,373.39 								"/>
							</g>
							<g>
								<polygon class="st7" points="603.18,278.01 615.59,264.8 626.99,278.01 626.99,373.49 606.78,373.49 								"/>
							</g>
						</g>
					</g>
					<g>
						<g>
							<g>
								<polygon class="st6" points="561.96,264.7 564.96,264.7 576.38,277.9 576.38,373.39 561.45,373.39 								"/>
							</g>
							<g>
								<polygon class="st7" points="549.52,278.01 561.92,264.8 573.33,278.01 573.33,373.49 553.12,373.49 								"/>
							</g>
						</g>
					</g>
					<g>
						<g>
							<g>
								<polygon class="st6" points="513.39,264.7 516.39,264.7 527.81,277.9 527.81,373.39 512.88,373.39 								"/>
							</g>
							<g>
								<polygon class="st7" points="500.95,278.01 513.35,264.8 524.76,278.01 524.76,373.49 504.55,373.49 								"/>
							</g>
						</g>
					</g>
					<g>
						<g>
							<g>
								<polygon class="st6" points="465.79,264.7 468.79,264.7 480.21,277.9 480.21,373.39 465.28,373.39 								"/>
							</g>
							<g>
								<polygon class="st7" points="453.35,278.01 465.76,264.8 477.16,278.01 477.16,373.49 456.96,373.49 								"/>
							</g>
						</g>
					</g>
					<g>
						<g>
							<g>
								<polygon class="st6" points="668.59,264.7 671.59,264.7 683.01,277.9 683.01,373.39 668.08,373.39 								"/>
							</g>
							<g>
								<polygon class="st7" points="656.15,278.01 668.56,264.8 679.96,278.01 679.96,373.49 659.76,373.49 								"/>
							</g>
						</g>
					</g>
				</g>
				<g>
					<g>
						<rect x="192.26" y="281.63" class="st5" width="253.42" height="19.85"/>
						<path class="st5" d="M446.28,302.09H191.64v-21.08h254.64V302.09z"/>
					</g>
					<g>
						<rect x="192.26" y="335.22" class="st5" width="253.42" height="19.85"/>
						<path class="st5" d="M446.28,355.69H191.64v-21.08h254.64V355.69z"/>
					</g>
					<g>
						<g>
							<g>
								<polygon class="st6" points="367.05,264.7 370.05,264.7 381.47,277.9 381.47,373.39 366.53,373.39 								"/>
							</g>
							<g>
								<polygon class="st7" points="354.61,278.01 367.01,264.8 378.42,278.01 378.42,373.49 358.21,373.49 								"/>
							</g>
						</g>
					</g>
					<g>
						<g>
							<g>
								<polygon class="st6" points="313.39,264.7 316.39,264.7 327.8,277.9 327.8,373.39 312.87,373.39 								"/>
							</g>
							<g>
								<polygon class="st7" points="300.95,278.01 313.35,264.8 324.76,278.01 324.76,373.49 304.55,373.49 								"/>
							</g>
						</g>
					</g>
					<g>
						<g>
							<g>
								<polygon class="st6" points="264.82,264.7 267.82,264.7 279.23,277.9 279.23,373.39 264.3,373.39 								"/>
							</g>
							<g>
								<polygon class="st7" points="252.38,278.01 264.78,264.8 276.19,278.01 276.19,373.49 255.98,373.49 								"/>
							</g>
						</g>
					</g>
					<g>
						<g>
							<g>
								<polygon class="st6" points="217.22,264.7 220.22,264.7 231.64,277.9 231.64,373.39 216.71,373.39 								"/>
							</g>
							<g>
								<polygon class="st7" points="204.78,278.01 217.18,264.8 228.59,278.01 228.59,373.49 208.38,373.49 								"/>
							</g>
						</g>
					</g>
					<g>
						<g>
							<g>
								<polygon class="st6" points="420.02,264.7 423.02,264.7 434.44,277.9 434.44,373.39 419.51,373.39 								"/>
							</g>
							<g>
								<polygon class="st7" points="407.58,278.01 419.99,264.8 431.39,278.01 431.39,373.49 411.19,373.49 								"/>
							</g>
						</g>
					</g>
				</g>
				<g>
					<g>
						<rect x="-54.5" y="281.63" class="st5" width="253.42" height="19.85"/>
						<path class="st5" d="M199.53,302.09H-55.12v-21.08h254.64V302.09z"/>
					</g>
					<g>
						<rect x="-54.5" y="335.22" class="st5" width="253.42" height="19.85"/>
						<path class="st5" d="M199.53,355.69H-55.12v-21.08h254.64V355.69z"/>
					</g>
					<g>
						<g>
							<g>
								<polygon class="st6" points="120.29,264.7 123.29,264.7 134.71,277.9 134.71,373.39 119.78,373.39 								"/>
							</g>
							<g>
								<polygon class="st7" points="107.85,278.01 120.25,264.8 131.66,278.01 131.66,373.49 111.45,373.49 								"/>
							</g>
						</g>
					</g>
					<g>
						<g>
							<g>
								<polygon class="st6" points="66.63,264.7 69.63,264.7 81.05,277.9 81.05,373.39 66.11,373.39 								"/>
							</g>
							<g>
								<polygon class="st7" points="54.19,278.01 66.59,264.8 78,278.01 78,373.49 57.79,373.49 								"/>
							</g>
						</g>
					</g>
					<g>
						<g>
							<g>
								<polygon class="st6" points="18.06,264.7 21.06,264.7 32.47,277.9 32.47,373.39 17.54,373.39 								"/>
							</g>
							<g>
								<polygon class="st7" points="5.62,278.01 18.02,264.8 29.43,278.01 29.43,373.49 9.22,373.49 								"/>
							</g>
						</g>
					</g>
					<g>
						<g>
							<g>
								<polygon class="st6" points="-29.54,264.7 -26.54,264.7 -15.12,277.9 -15.12,373.39 -30.05,373.39 								"/>
							</g>
							<g>
								<polygon class="st7" points="-41.98,278.01 -29.58,264.8 -18.17,278.01 -18.17,373.49 -38.38,373.49 								"/>
							</g>
						</g>
					</g>
					<g>
						<g>
							<g>
								<polygon class="st6" points="173.26,264.7 176.26,264.7 187.68,277.9 187.68,373.39 172.75,373.39 								"/>
							</g>
							<g>
								<polygon class="st7" points="160.82,278.01 173.23,264.8 184.63,278.01 184.63,373.49 164.43,373.49 								"/>
							</g>
						</g>
					</g>
				</g>
				<g>
					<g>
						<rect x="1182.01" y="281.63" class="st5" width="253.42" height="19.85"/>
						<path class="st5" d="M1436.04,302.09H1181.4v-21.08h254.64V302.09z"/>
					</g>
					<g>
						<rect x="1182.01" y="335.22" class="st5" width="253.42" height="19.85"/>
						<path class="st5" d="M1436.04,355.69H1181.4v-21.08h254.64V355.69z"/>
					</g>
					<g>
						<g>
							<g>
								<polygon class="st6" points="1356.8,264.7 1359.8,264.7 1371.22,277.9 1371.22,373.39 1356.29,373.39 								"/>
							</g>
							<g>
								<polygon class="st7" points="1344.36,278.01 1356.77,264.8 1368.17,278.01 1368.17,373.49 1347.97,373.49 								"/>
							</g>
						</g>
					</g>
					<g>
						<g>
							<g>
								<polygon class="st6" points="1303.14,264.7 1306.14,264.7 1317.56,277.9 1317.56,373.39 1302.63,373.39 								"/>
							</g>
							<g>
								<polygon class="st7" points="1290.7,278.01 1303.11,264.8 1314.51,278.01 1314.51,373.49 1294.31,373.49 								"/>
							</g>
						</g>
					</g>
					<g>
						<g>
							<g>
								<polygon class="st6" points="1254.57,264.7 1257.57,264.7 1268.99,277.9 1268.99,373.39 1254.06,373.39 								"/>
							</g>
							<g>
								<polygon class="st7" points="1242.13,278.01 1254.54,264.8 1265.94,278.01 1265.94,373.49 1245.74,373.49 								"/>
							</g>
						</g>
					</g>
					<g>
						<g>
							<g>
								<polygon class="st6" points="1206.97,264.7 1209.97,264.7 1221.39,277.9 1221.39,373.39 1206.46,373.39 								"/>
							</g>
							<g>
								<polygon class="st7" points="1194.53,278.01 1206.94,264.8 1218.35,278.01 1218.35,373.49 1198.14,373.49 								"/>
							</g>
						</g>
					</g>
					<g>
						<g>
							<g>
								<polygon class="st6" points="1409.78,264.7 1412.78,264.7 1424.2,277.9 1424.2,373.39 1409.26,373.39 								"/>
							</g>
							<g>
								<polygon class="st7" points="1397.34,278.01 1409.74,264.8 1421.15,278.01 1421.15,373.49 1400.94,373.49 								"/>
							</g>
						</g>
					</g>
				</g>
				<g>
					<g>
						<rect x="933.44" y="281.63" class="st5" width="253.42" height="19.85"/>
						<path class="st5" d="M1187.47,302.09H932.82v-21.08h254.64V302.09z"/>
					</g>
					<g>
						<rect x="933.44" y="335.22" class="st5" width="253.42" height="19.85"/>
						<path class="st5" d="M1187.47,355.69H932.82v-21.08h254.64V355.69z"/>
					</g>
					<g>
						<g>
							<g>
								<polygon class="st6" points="1108.23,264.7 1111.23,264.7 1122.65,277.9 1122.65,373.39 1107.72,373.39 								"/>
							</g>
							<g>
								<polygon class="st7" points="1095.79,278.01 1108.2,264.8 1119.6,278.01 1119.6,373.49 1099.4,373.49 								"/>
							</g>
						</g>
					</g>
					<g>
						<g>
							<g>
								<polygon class="st6" points="1054.57,264.7 1057.57,264.7 1068.99,277.9 1068.99,373.39 1054.06,373.39 								"/>
							</g>
							<g>
								<polygon class="st7" points="1042.13,278.01 1054.54,264.8 1065.94,278.01 1065.94,373.49 1045.73,373.49 								"/>
							</g>
						</g>
					</g>
					<g>
						<g>
							<g>
								<polygon class="st6" points="1006,264.7 1009,264.7 1020.42,277.9 1020.42,373.39 1005.49,373.39 								"/>
							</g>
							<g>
								<polygon class="st7" points="993.56,278.01 1005.97,264.8 1017.37,278.01 1017.37,373.49 997.16,373.49 								"/>
							</g>
						</g>
					</g>
					<g>
						<g>
							<g>
								<polygon class="st6" points="958.4,264.7 961.4,264.7 972.82,277.9 972.82,373.39 957.89,373.39 								"/>
							</g>
							<g>
								<polygon class="st7" points="945.96,278.01 958.37,264.8 969.77,278.01 969.77,373.49 949.57,373.49 								"/>
							</g>
						</g>
					</g>
					<g>
						<g>
							<g>
								<polygon class="st6" points="1161.2,264.7 1164.21,264.7 1175.62,277.9 1175.62,373.39 1160.69,373.39 								"/>
							</g>
							<g>
								<polygon class="st7" points="1148.76,278.01 1161.17,264.8 1172.58,278.01 1172.58,373.49 1152.37,373.49 								"/>
							</g>
						</g>
					</g>
				</g>
				<g>
					<g>
						<rect x="686.68" y="281.63" class="st5" width="253.42" height="19.85"/>
						<path class="st5" d="M940.71,302.09H686.06v-21.08h254.64V302.09z"/>
					</g>
					<g>
						<rect x="686.68" y="335.22" class="st5" width="253.42" height="19.85"/>
						<path class="st5" d="M940.71,355.69H686.06v-21.08h254.64V355.69z"/>
					</g>
					<g>
						<g>
							<g>
								<polygon class="st6" points="861.47,264.7 864.47,264.7 875.89,277.9 875.89,373.39 860.96,373.39 								"/>
							</g>
							<g>
								<polygon class="st7" points="849.03,278.01 861.44,264.8 872.84,278.01 872.84,373.49 852.64,373.49 								"/>
							</g>
						</g>
					</g>
					<g>
						<g>
							<g>
								<polygon class="st6" points="807.81,264.7 810.81,264.7 822.23,277.9 822.23,373.39 807.3,373.39 								"/>
							</g>
							<g>
								<polygon class="st7" points="795.37,278.01 807.78,264.8 819.18,278.01 819.18,373.49 798.98,373.49 								"/>
							</g>
						</g>
					</g>
					<g>
						<g>
							<g>
								<polygon class="st6" points="759.24,264.7 762.24,264.7 773.66,277.9 773.66,373.39 758.73,373.39 								"/>
							</g>
							<g>
								<polygon class="st7" points="746.8,278.01 759.21,264.8 770.61,278.01 770.61,373.49 750.41,373.49 								"/>
							</g>
						</g>
					</g>
					<g>
						<g>
							<g>
								<polygon class="st6" points="711.64,264.7 714.64,264.7 726.06,277.9 726.06,373.39 711.13,373.39 								"/>
							</g>
							<g>
								<polygon class="st7" points="699.2,278.01 711.61,264.8 723.01,278.01 723.01,373.49 702.81,373.49 								"/>
							</g>
						</g>
					</g>
					<g>
						<g>
							<g>
								<polygon class="st6" points="914.44,264.7 917.45,264.7 928.86,277.9 928.86,373.39 913.93,373.39 								"/>
							</g>
							<g>
								<polygon class="st7" points="902,278.01 914.41,264.8 925.82,278.01 925.82,373.49 905.61,373.49 								"/>
							</g>
						</g>
					</g>
				</g>
			</g>
		</g>
	</g>
	<g class="st0">
		<polygon class="st8" points="-246.69,838.53 -248.03,1227.09 1634.19,1227.09 1635.54,838.53 		"/>
	</g>
	<g class="st0">
		<rect x="-248.03" y="822.95" class="st9" width="1882.22" height="17.25"/>
		<g>
			<rect x="1588.28" y="822.95" class="st10" width="38.11" height="17.25"/>
			<rect x="1514.83" y="822.95" class="st10" width="38.11" height="17.25"/>
			<rect x="1441.38" y="822.95" class="st10" width="38.11" height="17.25"/>
			<rect x="1367.92" y="822.95" class="st10" width="38.11" height="17.25"/>
			<rect x="1294.47" y="822.95" class="st10" width="38.11" height="17.25"/>
			<rect x="1221.02" y="822.95" class="st10" width="38.11" height="17.25"/>
			<rect x="1147.56" y="822.95" class="st10" width="38.11" height="17.25"/>
			<rect x="1074.11" y="822.95" class="st10" width="38.11" height="17.25"/>
			<rect x="1000.66" y="822.95" class="st10" width="38.11" height="17.25"/>
			<rect x="927.21" y="822.95" class="st10" width="38.11" height="17.25"/>
			<rect x="853.76" y="822.95" class="st10" width="38.11" height="17.25"/>
			<rect x="780.3" y="822.95" class="st10" width="38.11" height="17.25"/>
			<rect x="706.85" y="822.95" class="st10" width="38.11" height="17.25"/>
			<rect x="633.4" y="822.95" class="st10" width="38.11" height="17.25"/>
			<rect x="559.94" y="822.95" class="st10" width="38.11" height="17.25"/>
			<rect x="486.49" y="822.95" class="st10" width="38.11" height="17.25"/>
			<rect x="413.04" y="822.95" class="st10" width="38.11" height="17.25"/>
			<rect x="339.59" y="822.95" class="st10" width="38.11" height="17.25"/>
			<rect x="266.13" y="822.95" class="st10" width="38.11" height="17.25"/>
			<rect x="192.68" y="822.95" class="st10" width="38.11" height="17.25"/>
			<rect x="119.23" y="822.95" class="st10" width="38.11" height="17.25"/>
			<rect x="45.78" y="822.95" class="st10" width="38.11" height="17.25"/>
			<rect x="-27.67" y="822.95" class="st10" width="38.11" height="17.25"/>
			<rect x="-101.13" y="822.95" class="st10" width="38.11" height="17.25"/>
			<rect x="-174.58" y="822.95" class="st10" width="38.11" height="17.25"/>
			<rect x="-248.03" y="822.95" class="st10" width="38.11" height="17.25"/>
		</g>
	</g>
	<g class="st0">
		<g>
			<g>
				<g>
					<g>
						<g>
							<path class="st11" d="M322.92,380.23v162.81l8.13-12.26l-1.02-157.35C327.72,375.74,325.35,378,322.92,380.23z"/>
							<path class="st12" d="M322.72,380.23c0,1.46,0,2.92,0,4.37c0,3.94,0,7.89,0,11.83c0,5.83,0,11.66,0,17.49
								c0,7.14,0,14.28,0,21.43c0,7.79,0,15.58,0,23.37c0,7.86,0,15.73,0,23.6c0,7.36,0,14.73,0,22.09c0,6.2,0,12.4,0,18.6
								c0,4.47,0,8.95,0,13.43c0,2.1-0.12,4.23,0,6.33c0,0.09,0,0.18,0,0.27c0,0.21,0.26,0.27,0.37,0.1
								c1.65-2.49,3.29-4.97,4.95-7.46c0.91-1.38,1.83-2.76,2.74-4.14c0.18-0.27,0.4-0.52,0.47-0.83c0.11-0.57-0.01-1.27-0.01-1.85
								c-0.01-1.4-0.02-2.81-0.03-4.21c-0.03-4.76-0.06-9.52-0.09-14.27c-0.05-6.73-0.09-13.46-0.13-20.19
								c-0.05-7.93-0.1-15.87-0.15-23.8c-0.06-8.4-0.11-16.8-0.16-25.2c-0.05-8.04-0.1-16.07-0.16-24.11
								c-0.04-6.94-0.09-13.87-0.13-20.81c-0.03-5.08-0.06-10.17-0.1-15.25c-0.02-2.42,0.04-4.85-0.05-7.27c0-0.1,0-0.21,0-0.31
								c0-0.17-0.22-0.27-0.34-0.14c-2.32,2.32-4.69,4.58-7.11,6.8c-0.19,0.18,0.09,0.46,0.28,0.29c2.42-2.22,4.79-4.48,7.11-6.8
								c-0.11-0.05-0.23-0.09-0.34-0.14c0.01,1.67,0.02,3.33,0.03,5c0.03,4.49,0.06,8.98,0.09,13.47
								c0.04,6.52,0.09,13.04,0.13,19.55c0.05,7.84,0.1,15.67,0.15,23.5c0.05,8.36,0.11,16.72,0.16,25.07
								c0.05,8.09,0.1,16.17,0.16,24.26c0.05,7.11,0.09,14.23,0.14,21.34c0.04,5.34,0.07,10.68,0.11,16.03
								c0.01,2.8,0.03,5.6,0.05,8.39c0,0.2,0.04,0.45,0.01,0.65c-0.02,0.1-0.01,0.09,0.03-0.02c-0.1,0.27-0.36,0.55-0.52,0.79
								c-2.03,3.05-4.05,6.11-6.08,9.17c-0.51,0.77-1.02,1.54-1.53,2.3c0.13,0.04,0.25,0.07,0.38,0.1c0-1.46,0-2.91,0-4.37
								c0-3.94,0-7.89,0-11.83c0-5.83,0-11.66,0-17.48c0-7.14,0-14.29,0-21.43c0-7.79,0-15.58,0-23.38c0-7.86,0-15.73,0-23.59
								c0-7.36,0-14.73,0-22.1c0-6.2,0-12.39,0-18.6c0-4.48,0-8.95,0-13.42c0-2.1,0.14-4.24,0-6.33c-0.01-0.09,0-0.18,0-0.27
								C323.12,379.97,322.72,379.97,322.72,380.23z"/>
						</g>
						<g>
							<path class="st13" d="M306.23,394.32v148.72h16.57V380.34C317.52,385.19,311.97,389.84,306.23,394.32z"/>
							<path class="st13" d="M306.03,394.32c0,1.32,0,2.65,0,3.98c0,3.61,0,7.22,0,10.83c0,5.34,0,10.67,0,16.01
								c0,6.51,0,13.03,0,19.54c0,7.1,0,14.2,0,21.3c0,7.2,0,14.4,0,21.6c0,6.71,0,13.43,0,20.15c0,5.68,0,11.35,0,17.03
								c0,4.08,0,8.16,0,12.25c0,1.91-0.14,3.89,0,5.8c0.01,0.08,0,0.17,0,0.25c0,0.11,0.09,0.2,0.2,0.2c5.52,0,11.04,0,16.57,0
								c0.11,0,0.2-0.09,0.2-0.2c0-1.45,0-2.89,0-4.34c0-3.94,0-7.88,0-11.82c0-5.85,0-11.71,0-17.56c0-7.12,0-14.23,0-21.34
								c0-7.79,0-15.58,0-23.38c0-7.86,0-15.73,0-23.6c0-7.33,0-14.67,0-22.01c0-6.23,0-12.45,0-18.68c0-4.46,0-8.91,0-13.37
								c0-2.1,0.11-4.24,0-6.34c0-0.09,0-0.18,0-0.28c0-0.18-0.21-0.26-0.34-0.14c-5.33,4.88-10.88,9.52-16.57,13.97
								c-0.2,0.16,0.08,0.44,0.28,0.28c5.7-4.45,11.24-9.09,16.57-13.97c-0.11-0.05-0.23-0.09-0.34-0.14c0,1.47,0,2.94,0,4.41
								c0,4,0,8,0,12c0,5.91,0,11.82,0,17.72c0,7.2,0,14.4,0,21.59c0,7.87,0,15.74,0,23.61c0,7.92,0,15.84,0,23.76
								c0,7.35,0,14.71,0,22.06c0,6.17,0,12.34,0,18.5c0,4.36,0,8.72,0,13.08c0,1.32,0,2.63,0,3.94c0,0.4-0.21,1.51,0,1.87
								c0.02,0.03-0.01,0.09,0,0.12c-0.06-0.31,0.38-0.12-0.17-0.19c-1.25-0.16-2.62,0-3.87,0c-3.59,0-7.18,0-10.77,0
								c-0.39,0-0.96-0.11-1.34,0c-0.4,0.11,0.08-0.07-0.02,0.18c0.05-0.12,0-0.35,0-0.48c0-0.9,0-1.81,0-2.71
								c0-3.85,0-7.69,0-11.54c0-5.95,0-11.89,0-17.84c0-7.31,0-14.61,0-21.92c0-7.93,0-15.85,0-23.77c0-7.81,0-15.61,0-23.41
								c0-6.94,0-13.89,0-20.83c0-5.34,0-10.69,0-16.03c0-3,0-6,0-9c0-0.39,0-0.78,0-1.17
								C306.43,394.05,306.03,394.05,306.03,394.32z"/>
						</g>
						<g>
							<path class="st11" d="M985.5,378.03l-0.99,152.74l8.13,12.26v-160.4C990.14,381.2,987.68,379.72,985.5,378.03z"/>
							<path class="st11" d="M985.3,378.03c-0.01,1.64-0.02,3.27-0.03,4.9c-0.03,4.4-0.05,8.8-0.09,13.2
								c-0.04,6.38-0.08,12.76-0.12,19.14c-0.05,7.66-0.1,15.32-0.15,22.97c-0.05,8.13-0.1,16.25-0.16,24.37
								c-0.05,7.9-0.1,15.81-0.15,23.71c-0.05,6.87-0.09,13.74-0.13,20.61c-0.03,5.14-0.07,10.27-0.1,15.42
								c-0.02,2.62-0.03,5.24-0.05,7.86c0,0.72,0.23,0.97,0.67,1.62c2,3.02,4,6.04,6,9.05c0.5,0.74,0.99,1.49,1.48,2.24
								c0.11,0.16,0.38,0.1,0.38-0.1c0-1.49,0-2.98,0-4.47c0-4.05,0-8.09,0-12.13c0-5.99,0-11.99,0-17.97c0-7.25,0-14.5,0-21.75
								c0-7.89,0-15.78,0-23.68c0-7.89,0-15.79,0-23.69c0-7.27,0-14.53,0-21.8c0-6,0-11.99,0-17.99c0-4.09,0-8.19,0-12.28
								c0-1.13,0-2.27,0-3.41c0-0.33,0.12-0.92,0-1.24c-0.08-0.2-0.22-0.24-0.43-0.36c-0.75-0.44-1.51-0.88-2.25-1.34
								c-1.57-0.95-3.1-1.96-4.56-3.07c-0.2-0.16-0.41,0.19-0.2,0.35c1.46,1.11,2.99,2.12,4.56,3.07c0.69,0.42,1.67,0.79,2.26,1.33
								c1.45,1.34,0.11-0.15,0.22,0.03c0.05,0.08,0,0.35,0,0.44c0,0.84,0,1.68,0,2.52c0,3.59,0,7.19,0,10.78c0,5.64,0,11.29,0,16.93
								c0,7.02,0,14.03,0,21.05c0,7.78,0,15.56,0,23.34c0,7.91,0,15.83,0,23.74c0,7.42,0,14.84,0,22.26c0,6.32,0,12.64,0,18.96
								c0,4.54,0,9.08,0,13.61c0,1.41,0,2.83,0,4.24c0,0.67-0.15,1.56,0,2.22c0.02,0.09,0,0.19,0,0.28c0.12-0.03,0.25-0.07,0.37-0.1
								c-1.57-2.38-3.15-4.75-4.72-7.13c-0.93-1.4-1.86-2.8-2.79-4.21c-0.18-0.28-0.48-0.59-0.59-0.9
								c-0.03-0.07,0.04,0.16,0.01,0.02c-0.1-0.55,0.01-1.23,0.01-1.78c0.01-1.35,0.02-2.71,0.03-4.07
								c0.03-4.61,0.06-9.23,0.09-13.85c0.04-6.54,0.08-13.07,0.13-19.61c0.05-7.71,0.1-15.41,0.15-23.12
								c0.05-8.13,0.1-16.27,0.15-24.4c0.05-7.81,0.1-15.62,0.15-23.43c0.05-6.74,0.09-13.49,0.13-20.23
								c0.03-4.93,0.06-9.86,0.1-14.79c0.02-2.36,0.11-4.74,0.04-7.1c0-0.1,0-0.21,0-0.31C985.7,377.78,985.3,377.78,985.3,378.03z"
								/>
						</g>
						<g>
							<path class="st13" d="M998.81,386.24c-1.94-1.21-4-2.36-6.05-3.54v160.33h16.57V392.91
								C1005.83,390.67,1002.33,388.45,998.81,386.24z"/>
							<path class="st13" d="M998.91,386.07c-1.98-1.23-4.02-2.38-6.05-3.54c-0.13-0.08-0.3,0.02-0.3,0.17c0,1.43,0,2.86,0,4.3
								c0,3.9,0,7.79,0,11.69c0,5.73,0,11.47,0,17.2c0,7.03,0,14.05,0,21.08c0,7.66,0,15.33,0,22.99c0,7.77,0,15.54,0,23.31
								c0,7.24,0,14.49,0,21.73c0,6.12,0,12.24,0,18.36c0,4.38,0,8.77,0,13.15c0,2.07-0.14,4.2,0,6.26c0.01,0.09,0,0.18,0,0.27
								c0,0.11,0.09,0.2,0.2,0.2c5.52,0,11.05,0,16.57,0c0.11,0,0.2-0.09,0.2-0.2c0-1.42,0-2.84,0-4.27c0-3.86,0-7.72,0-11.58
								c0-5.68,0-11.36,0-17.04c0-6.89,0-13.77,0-20.66c0-7.48,0-14.95,0-22.43c0-7.42,0-14.84,0-22.26c0-6.82,0-13.63,0-20.45
								c0-5.57,0-11.13,0-16.69c0-3.7,0-7.39,0-11.09c0-0.96,0-1.91,0-2.87c0-0.2,0.04-0.46,0-0.66c-0.14-0.64-1.04-0.92-1.57-1.26
								C1004.95,389.87,1001.93,387.97,998.91,386.07c-0.22-0.14-0.42,0.21-0.2,0.35c3.28,2.06,6.5,4.32,9.87,6.25
								c0.69,0.39,0.48,0.06,0.56,0.55c0.12,0.77,0,1.66,0,2.44c0,3.72,0,7.43,0,11.15c0,5.88,0,11.76,0,17.64
								c0,7.3,0,14.61,0,21.91c0,7.97,0,15.95,0,23.93c0,7.94,0,15.87,0,23.81c0,7.09,0,14.17,0,21.25c0,5.52,0,11.04,0,16.55
								c0,3.21,0,6.42,0,9.64c0,0.38-0.15,1.12,0,1.49c-0.1-0.26,0.42-0.12-0.1-0.19c-0.46-0.06-0.98,0-1.44,0
								c-1.75,0-3.49,0-5.24,0c-1.93,0-3.85,0-5.78,0c-0.75,0-1.49,0-2.24,0c-0.39,0-0.96-0.11-1.34,0
								c-0.4,0.11,0.07-0.07-0.02,0.18c0.02-0.05-0.02-0.11,0-0.15c0.07-0.19,0-0.54,0-0.74c0-2.74,0-5.48,0-8.22
								c0-5.04,0-10.09,0-15.13c0-6.73,0-13.46,0-20.19c0-7.7,0-15.4,0-23.1c0-8.04,0-16.08,0-24.13c0-7.76,0-15.52,0-23.28
								c0-6.76,0-13.52,0-20.27c0-5.13,0-10.27,0-15.41c0-2.86,0-5.71,0-8.57c0-0.37,0-0.74,0-1.11c-0.1,0.06-0.2,0.12-0.3,0.17
								c2.03,1.16,4.07,2.3,6.05,3.54C998.93,386.55,999.13,386.2,998.91,386.07z"/>
						</g>
						<g>
							<g>
								<rect x="323.54" y="476.29" class="st13" width="669.66" height="10.75"/>
								<path class="st12" d="M993.2,487.24H323.54c-0.11,0-0.2-0.09-0.2-0.2v-10.75c0-0.11,0.09-0.2,0.2-0.2H993.2
									c0.11,0,0.2,0.09,0.2,0.2v10.75C993.41,487.15,993.32,487.24,993.2,487.24z M323.74,486.84H993v-10.34H323.74V486.84z"/>
							</g>
							<g>
								<polygon class="st13" points="992.57,476.16 322.9,476.16 331.21,466.55 985.32,466.29 								"/>
								<path class="st12" d="M992.57,476.36H322.9c-0.08,0-0.15-0.05-0.18-0.12c-0.03-0.07-0.02-0.16,0.03-0.22l8.31-9.6
									c0.04-0.05,0.09-0.07,0.15-0.07l654.11-0.27c0.07,0,0.13,0.03,0.16,0.09l7.24,9.87c0.04,0.06,0.05,0.14,0.02,0.21
									C992.71,476.32,992.64,476.36,992.57,476.36z M323.34,475.96h668.83l-6.95-9.47l-653.92,0.26L323.34,475.96z"/>
							</g>
						</g>
					</g>
					<g>
						<polygon class="st13" points="993.2,476.29 1009.4,476.22 1076.29,522.68 1058.89,524.34 						"/>
						<path class="st12" d="M1058.89,524.54c-0.04,0-0.09-0.01-0.12-0.04l-65.68-48.05c-0.07-0.05-0.1-0.14-0.07-0.22
							c0.02-0.09,0.1-0.14,0.19-0.14l16.19-0.07l0,0c0.04,0,0.08,0.01,0.11,0.04l66.89,46.47c0.07,0.05,0.1,0.14,0.08,0.22
							c-0.02,0.08-0.09,0.14-0.18,0.15l-17.4,1.66C1058.9,524.54,1058.89,524.54,1058.89,524.54z M993.81,476.49l65.13,47.65
							l16.78-1.6l-66.39-46.12L993.81,476.49z"/>
					</g>
					<g>
						<polygon class="st13" points="994.1,477.4 993.54,487.8 1049.62,533.19 1049.62,517.35 						"/>
						<path class="st12" d="M1049.62,533.39c-0.05,0-0.09-0.01-0.13-0.05l-56.08-45.38c-0.05-0.04-0.08-0.1-0.07-0.17l0.57-10.4
							c0-0.07,0.05-0.14,0.12-0.17c0.06-0.03,0.14-0.02,0.2,0.02l55.52,39.95c0.05,0.04,0.09,0.1,0.09,0.16v15.84
							c0,0.08-0.05,0.15-0.12,0.18C1049.68,533.38,1049.65,533.39,1049.62,533.39z M993.74,487.71l55.67,45.06v-15.31l-55.14-39.68
							L993.74,487.71z"/>
					</g>
					<g>
						<polygon class="st13" points="325.06,476.29 308.87,476.22 244.05,519 259.38,524.34 						"/>
						<path class="st12" d="M259.38,524.54c-0.02,0-0.04,0-0.06-0.01l-15.33-5.34c-0.07-0.02-0.12-0.09-0.13-0.16
							c-0.01-0.08,0.03-0.15,0.09-0.19l64.81-42.79c0.04-0.02,0.07-0.03,0.11-0.03h0l16.19,0.07c0.09,0,0.16,0.06,0.19,0.14
							c0.03,0.08,0,0.17-0.07,0.22l-65.68,48.05C259.46,524.53,259.42,524.54,259.38,524.54z M244.5,518.95l14.84,5.17l65.1-47.63
							l-15.52-0.07L244.5,518.95z"/>
					</g>
					<g>
						<polygon class="st13" points="324.16,477.4 324.73,487.8 268.64,533.19 268.64,517.35 						"/>
						<path class="st12" d="M268.64,533.39c-0.03,0-0.06-0.01-0.09-0.02c-0.07-0.03-0.11-0.1-0.11-0.18v-15.84
							c0-0.07,0.03-0.13,0.08-0.16l55.52-39.95c0.06-0.04,0.13-0.05,0.2-0.02c0.07,0.03,0.11,0.1,0.11,0.17l0.56,10.4
							c0,0.06-0.02,0.13-0.07,0.17l-56.08,45.38C268.74,533.37,268.69,533.39,268.64,533.39z M268.85,517.45v15.31l55.68-45.06
							l-0.54-9.93L268.85,517.45z"/>
					</g>
					<g>
						<g>
							<path class="st11" d="M266.66,422.72c-1.03,0.73-2.06,1.46-3.09,2.19v178.87l9.65-14.57l-1.1-170.34
								C270.3,420.15,268.48,421.43,266.66,422.72z"/>
							<path class="st11" d="M266.56,422.55c-0.82,0.58-1.65,1.16-2.47,1.75c-0.24,0.17-0.62,0.32-0.72,0.61
								c-0.01,0.03,0.01,0.07,0,0.11c-0.05,0.2,0,0.48,0,0.68c0,1.05,0,2.1,0,3.15c0,4.17,0,8.33,0,12.51c0,6.33,0,12.65,0,18.98
								c0,7.81,0,15.62,0,23.44c0,8.65,0,17.3,0,25.95c0,8.77,0,17.54,0,26.31c0,8.17,0,16.35,0,24.52c0,6.95,0,13.9,0,20.84
								c0,4.98,0,9.97,0,14.95c0,2.37-0.08,4.75,0,7.12c0,0.1,0,0.2,0,0.3c0,0.21,0.27,0.26,0.37,0.1c1.73-2.62,3.47-5.24,5.21-7.87
								c1.11-1.66,2.21-3.32,3.31-4.99c0.34-0.52,1.01-1.2,1.16-1.82c0.11-0.48-0.01-1.13-0.01-1.62c-0.01-1.41-0.02-2.82-0.03-4.23
								c-0.03-5.02-0.07-10.04-0.1-15.07c-0.05-7.27-0.09-14.55-0.14-21.82c-0.06-8.61-0.12-17.23-0.17-25.85
								c-0.06-9.13-0.12-18.26-0.18-27.4c-0.06-8.8-0.11-17.59-0.17-26.39c-0.05-7.61-0.1-15.22-0.15-22.83
								c-0.04-5.59-0.07-11.18-0.11-16.76c-0.02-2.67-0.01-5.34-0.05-8.01c0-0.12,0-0.23,0-0.35c0-0.14-0.17-0.26-0.3-0.18
								C270.2,419.98,268.38,421.26,266.56,422.55c-0.21,0.15-0.01,0.5,0.2,0.34c1.81-1.29,3.63-2.57,5.46-3.85
								c-0.1-0.06-0.2-0.11-0.3-0.17c0.01,1.83,0.02,3.67,0.04,5.5c0.03,4.93,0.06,9.87,0.09,14.8c0.05,7.19,0.09,14.37,0.14,21.55
								c0.06,8.55,0.11,17.1,0.17,25.65c0.06,9.13,0.12,18.26,0.18,27.39c0.06,8.8,0.11,17.59,0.17,26.39
								c0.05,7.68,0.1,15.36,0.15,23.04c0.04,5.68,0.07,11.36,0.11,17.04c0.02,2.83,0.04,5.65,0.06,8.48c0,0.15,0.04,0.34,0,0.48
								c0.04-0.2-0.13,0.15-0.2,0.25c-0.33,0.5-0.66,0.99-0.98,1.48c-2.29,3.45-4.58,6.91-6.87,10.37
								c-0.52,0.79-1.05,1.58-1.57,2.37c0.12,0.03,0.25,0.07,0.37,0.1c0-1.62,0-3.24,0-4.86c0-4.4,0-8.8,0-13.21
								c0-6.48,0-12.95,0-19.43c0-7.89,0-15.78,0-23.66c0-8.66,0-17.31,0-25.97c0-8.71,0-17.43,0-26.15c0-8.07,0-16.13,0-24.19
								c0-6.8,0-13.59,0-20.39c0-4.81,0-9.62,0-14.43c0-1.44,0-2.89,0-4.33c0-0.59-0.18-1.53,0-2.09c0.01-0.04-0.02-0.11,0-0.14
								c0,0,0.33-0.15,0.36-0.17c0.92-0.49,1.78-1.26,2.63-1.86C266.98,422.75,266.77,422.4,266.56,422.55z"/>
						</g>
						<g>
							<path class="st13" d="M243.75,438.36v165.42h19.68V425.01C256.97,429.57,250.45,434.07,243.75,438.36z"/>
							<path class="st13" d="M243.55,438.36c0,1.47,0,2.94,0,4.42c0,4.01,0,8.02,0,12.02c0,5.95,0,11.91,0,17.86
								c0,7.21,0,14.41,0,21.62c0,7.96,0,15.92,0,23.88c0,8,0,16,0,24c0,7.46,0,14.92,0,22.38c0,6.3,0,12.61,0,18.91
								c0,4.53,0,9.07,0,13.6c0,2.13-0.14,4.32,0,6.45c0.01,0.09,0,0.18,0,0.28c0,0.11,0.09,0.2,0.2,0.2c5.74,0,11.48,0,17.22,0
								c0.82,0,1.64,0,2.46,0c0.11,0,0.2-0.09,0.2-0.2c0-1.6,0-3.19,0-4.79c0-4.34,0-8.69,0-13.04c0-6.4,0-12.79,0-19.19
								c0-7.83,0-15.67,0-23.5c0-8.58,0-17.17,0-25.75c0-8.63,0-17.26,0-25.89c0-8.05,0-16.09,0-24.14c0-6.83,0-13.66,0-20.49
								c0-4.91,0-9.82,0-14.72c0-2.31,0.08-4.64,0-6.95c-0.01-0.1,0-0.2,0-0.31c0-0.14-0.18-0.26-0.31-0.17
								c-6.47,4.57-13,9.07-19.68,13.35c-0.22,0.14-0.02,0.49,0.2,0.34c6.68-4.27,13.2-8.77,19.68-13.34
								c-0.1-0.06-0.2-0.12-0.3-0.18c0,1.66,0,3.32,0,4.97c0,4.46,0,8.91,0,13.37c0,6.62,0,13.24,0,19.86c0,7.98,0,15.98,0,23.96
								c0,8.78,0,17.55,0,26.33c0,8.76,0,17.53,0,26.3c0,8.09,0,16.18,0,24.27c0,6.72,0,13.43,0,20.15c0,4.64,0,9.29,0,13.93
								c0,1.32,0,2.65,0,3.96c0,0.49-0.12,1.17,0,1.65c-0.05-0.21,0.33-0.05,0.03-0.18c-0.31-0.13-0.96,0-1.29,0
								c-1.77,0-3.54,0-5.32,0c-3.87,0-7.74,0-11.61,0c-0.22,0-0.99-0.13-1.18,0c-0.14,0.09,0.07,0.21,0.09,0.16
								c0.06-0.14,0-0.43,0-0.58c0-1.04,0-2.08,0-3.12c0-4.32,0-8.64,0-12.96c0-6.63,0-13.26,0-19.88c0-8.12,0-16.24,0-24.36
								c0-8.83,0-17.66,0-26.49c0-8.62,0-17.24,0-25.86c0-7.72,0-15.44,0-23.17c0-5.91,0-11.82,0-17.73c0-3.31,0-6.63,0-9.95
								c0-0.43,0-0.86,0-1.29C243.95,438.1,243.55,438.1,243.55,438.36z"/>
						</g>
						<g>
							<path class="st11" d="M1050.42,419.48l-1.1,169.73l9.65,14.57V424.62C1056.07,422.95,1053.23,421.23,1050.42,419.48z"/>
							<path class="st11" d="M1050.22,419.48c-0.01,1.84-0.03,3.68-0.04,5.52c-0.03,4.93-0.06,9.86-0.1,14.79
								c-0.04,7.17-0.09,14.34-0.14,21.51c-0.06,8.59-0.11,17.18-0.17,25.77c-0.06,9.1-0.12,18.2-0.18,27.3
								c-0.06,8.79-0.11,17.58-0.17,26.37c-0.05,7.66-0.1,15.31-0.15,22.96c-0.04,5.61-0.07,11.23-0.11,16.83
								c-0.02,2.75-0.04,5.5-0.05,8.25c-0.01,0.94,0.77,1.65,1.27,2.41c2.29,3.46,4.58,6.91,6.87,10.37
								c0.51,0.77,1.02,1.54,1.53,2.31c0.11,0.16,0.37,0.11,0.37-0.1c0-1.68,0-3.35,0-5.03c0-4.51,0-9.02,0-13.53
								c0-6.69,0-13.38,0-20.08c0-8.07,0-16.13,0-24.2c0-8.85,0-17.69,0-26.54c0-8.82,0-17.65,0-26.47c0-8.11,0-16.23,0-24.35
								c0-6.69,0-13.39,0-20.09c0-4.57,0-9.14,0-13.7c0-1.26,0-2.53,0-3.79c0-0.37,0.13-1.02,0-1.38c-0.1-0.26-0.35-0.32-0.6-0.47
								c-0.89-0.51-1.77-1.03-2.65-1.56c-1.81-1.08-3.61-2.18-5.39-3.29c-0.22-0.14-0.42,0.21-0.2,0.35
								c1.84,1.15,3.69,2.28,5.56,3.39c0.81,0.48,1.96,0.92,2.65,1.56c0.07,0.06,0.2-0.04,0.23,0.04c0.06,0.11,0,0.38,0,0.5
								c0,0.93,0,1.86,0,2.79c0,4.01,0,8.02,0,12.03c0,6.28,0,12.55,0,18.83c0,7.84,0,15.67,0,23.51c0,8.73,0,17.45,0,26.18
								c0,8.85,0,17.69,0,26.54c0,8.29,0,16.59,0,24.88c0,7.04,0,14.07,0,21.11c0,5.08,0,10.15,0,15.23c0,1.58,0,3.17,0,4.75
								c0,0.78-0.15,1.72,0,2.49c0.02,0.09,0,0.21,0,0.31c0.13-0.04,0.25-0.07,0.38-0.1c-1.72-2.6-3.44-5.19-5.16-7.78
								c-1.11-1.67-2.22-3.34-3.32-5.01c-0.32-0.48-0.63-0.97-0.96-1.45c-0.07-0.1-0.23-0.42-0.18-0.23
								c-0.12-0.51,0.01-1.19,0.01-1.7c0.01-1.43,0.02-2.86,0.03-4.29c0.03-5.02,0.07-10.04,0.1-15.07
								c0.05-7.24,0.09-14.48,0.14-21.72c0.06-8.6,0.11-17.19,0.17-25.79c0.06-9.07,0.12-18.14,0.18-27.21
								c0.06-8.8,0.11-17.59,0.17-26.39c0.05-7.55,0.1-15.09,0.15-22.64c0.04-5.54,0.07-11.08,0.11-16.62
								c0.02-2.65,0.09-5.31,0.05-7.96c0-0.11,0-0.23,0-0.34C1050.62,419.22,1050.22,419.22,1050.22,419.48z"/>
						</g>
						<g>
							<path class="st13" d="M1064.4,427.66c-1.78-0.96-3.54-1.95-5.28-2.96v179.07h19.68V434.91
								C1073.92,432.6,1069.11,430.2,1064.4,427.66z"/>
							<path class="st13" d="M1064.5,427.49c-1.77-0.96-3.53-1.95-5.28-2.96c-0.13-0.08-0.3,0.02-0.3,0.17c0,1.59,0,3.19,0,4.79
								c0,4.34,0,8.68,0,13.02c0,6.42,0,12.84,0,19.26c0,7.84,0,15.67,0,23.51c0,8.58,0,17.17,0,25.75c0,8.67,0,17.33,0,25.99
								c0,8.08,0,16.16,0,24.24c0,6.83,0,13.66,0,20.49c0,4.93,0,9.85,0,14.78c0,2.31-0.08,4.64,0,6.95c0,0.1,0,0.2,0,0.3
								c0,0.11,0.09,0.2,0.2,0.2c5.74,0,11.48,0,17.22,0c0.82,0,1.64,0,2.46,0c0.11,0,0.2-0.09,0.2-0.2c0-1.5,0-3.01,0-4.51
								c0-4.09,0-8.18,0-12.27c0-6.08,0-12.15,0-18.23c0-7.39,0-14.77,0-22.16c0-8.09,0-16.17,0-24.26c0-8.16,0-16.33,0-24.49
								c0-7.64,0-15.29,0-22.93c0-6.43,0-12.86,0-19.29c0-4.62,0-9.25,0-13.87c0-2.17,0.13-4.4,0-6.57c-0.01-0.09,0-0.19,0-0.28
								c0-0.07-0.04-0.14-0.1-0.17C1074.04,432.44,1069.23,430.04,1064.5,427.49c-0.23-0.12-0.43,0.22-0.2,0.35
								c3.83,2.06,7.7,4.02,11.62,5.92c0.46,0.22,0.93,0.44,1.39,0.67c0.22,0.11,0.46,0.24,0.69,0.33c-0.29-0.12,0.67,0.28,0.6,0.16
								c0,0.01,0,0.02,0,0.03c0.03,0.05-0.02,0.14,0,0.2c0.21,0.69,0,1.78,0,2.5c0,4.07,0,8.13,0,12.19c0,6.55,0,13.11,0,19.66
								c0,8.2,0,16.39,0,24.59c0,8.99,0,17.98,0,26.97c0,8.91,0,17.81,0,26.72c0,8.04,0,16.08,0,24.12c0,6.3,0,12.59,0,18.89
								c0,3.7,0,7.39,0,11.09c0,0.48-0.19,1.42,0,1.87c0.01,0.01,0.23-0.06,0.07-0.16c-0.21-0.14-1.02,0-1.27,0
								c-1.79,0-3.58,0-5.37,0c-3.94,0-7.88,0-11.82,0c-0.25,0-0.81-0.11-1.05,0c-0.01,0.01,0.09,0.27,0.16,0.14
								c0.07-0.13,0-0.48,0-0.62c0-2.86,0-5.71,0-8.57c0-5.54,0-11.08,0-16.62c0-7.47,0-14.95,0-22.42c0-8.65,0-17.3,0-25.95
								c0-9.04,0-18.08,0-27.12c0-8.75,0-17.5,0-26.25c0-7.67,0-15.33,0-23c0-5.83,0-11.66,0-17.49c0-3.24,0-6.47,0-9.71
								c0-0.42,0-0.84,0-1.27c-0.1,0.06-0.2,0.12-0.3,0.17c1.75,1.01,3.51,2,5.28,2.96C1064.52,427.96,1064.73,427.61,1064.5,427.49
								z"/>
						</g>
						<g>
							<g>
								<rect x="264.31" y="524.5" class="st13" width="795.33" height="12.77"/>
								<path class="st13" d="M1059.64,537.47H264.31c-0.11,0-0.2-0.09-0.2-0.2V524.5c0-0.11,0.09-0.2,0.2-0.2h795.33
									c0.11,0,0.2,0.09,0.2,0.2v12.77C1059.84,537.38,1059.75,537.47,1059.64,537.47z M264.51,537.07h794.93V524.7H264.51V537.07z
									"/>
							</g>
							<g>
								<polygon class="st13" points="1058.89,524.34 263.56,524.34 273.41,516.07 1049.47,516.38 								"/>
								<path class="st12" d="M1058.89,524.54H263.56c-0.08,0-0.16-0.05-0.19-0.13c-0.03-0.08-0.01-0.17,0.06-0.22l9.86-8.28
									c0.04-0.03,0.08-0.05,0.13-0.05l0,0l776.06,0.32c0.05,0,0.09,0.02,0.13,0.05l9.41,7.96c0.07,0.05,0.09,0.14,0.06,0.22
									C1059.05,524.49,1058.97,524.54,1058.89,524.54z M264.11,524.14h794.23l-8.94-7.56l-775.91-0.32L264.11,524.14z"/>
							</g>
						</g>
					</g>
				</g>
				<g>
					<g>
						<g>
							<polygon class="st12" points="208.41,440.12 1104.59,440.12 1075.44,423.66 235.83,423.66 							"/>
						</g>
						<g>
							<polygon class="st13" points="985.84,373.04 320.13,373.04 288.26,392.17 1019.71,392.17 							"/>
							<path class="st13" d="M985.84,372.84c-6.6,0-13.21,0-19.81,0c-17.86,0-35.72,0-53.58,0c-26.19,0-52.38,0-78.57,0
								c-31.71,0-63.42,0-95.13,0c-34.07,0-68.13,0-102.2,0c-33.6,0-67.2,0-100.8,0c-30.2,0-60.41,0-90.61,0
								c-23.88,0-47.75,0-71.63,0c-14.62,0-29.25,0-43.88,0c-2.84,0-5.97-0.37-8.78,0c-0.82,0.11-0.8,0.13-1.67,0.54
								c-6.18,2.93-12.01,7.21-17.86,10.72c-4.38,2.63-8.77,5.27-13.15,7.9c-0.17,0.1-0.1,0.37,0.1,0.37c6.56,0,13.13,0,19.7,0
								c17.71,0,35.42,0,53.13,0c26.25,0,52.51,0,78.76,0c32.03,0,64.06,0,96.1,0c34.96,0,69.92,0,104.88,0
								c35.53,0,71.06,0,106.59,0c32.9,0,65.81,0,98.71,0c27.91,0,55.81,0,83.71,0c20.06,0,40.12,0,60.19,0
								c9.44,0,19.02,0.48,28.44,0c0.41-0.02,0.83,0,1.24,0c0.2,0,0.28-0.28,0.1-0.37c-11.29-6.38-22.58-12.76-33.87-19.13
								c-0.23-0.13-0.43,0.22-0.2,0.34c5.01,2.83,10.02,5.66,15.03,8.49c6.06,3.42,12.04,7.3,18.3,10.33
								c0.67,0.32,0.72,0.07-0.34-0.07c-1.13-0.15-2.38,0-3.52,0c-12.21,0-24.42,0-36.63,0c-22.31,0-44.61,0-66.91,0
								c-29.6,0-59.19,0-88.78,0c-33.98,0-67.96,0-101.95,0c-35.95,0-71.89,0-107.84,0c-34.66,0-69.32,0-103.98,0
								c-31.04,0-62.09,0-93.13,0c-24.25,0-48.49,0-72.73,0c-14.95,0-29.9,0-44.84,0c-2.99,0-6.26-0.37-9.23,0
								c-1.12,0.14-0.98,0.32-0.08-0.07c2.57-1.13,5.02-3.01,7.43-4.46c3.72-2.23,7.44-4.47,11.15-6.7
								c3.13-1.88,6.26-3.76,9.39-5.64c0.82-0.49,2.44-1.7,3.08-1.87c0.52-0.14,1.25,0,1.78,0c3.85,0,7.7,0,11.55,0
								c17.06,0,34.11,0,51.17,0c26.46,0,52.92,0,79.39,0c32.74,0,65.49,0,98.23,0c35.6,0,71.19,0,106.79,0c35.1,0,70.19,0,105.29,0
								c31.24,0,62.49,0,93.73,0c23.97,0,47.94,0,71.92,0c13.55,0,27.09,0,40.64,0c1.74,0,3.47,0,5.21,0
								C986.1,373.24,986.1,372.84,985.84,372.84z"/>
						</g>
						<g>
							<polygon class="st13" points="258.96,409.77 235.83,423.66 1075.44,423.66 1050.86,409.77 							"/>
							<path class="st13" d="M258.86,409.6c-7.71,4.63-15.42,9.26-23.13,13.89c-0.17,0.1-0.1,0.37,0.1,0.37c7.54,0,15.08,0,22.61,0
								c20.33,0,40.65,0,60.98,0c30.14,0,60.27,0,90.41,0c36.77,0,73.54,0,110.31,0c40.13,0,80.26,0,120.39,0
								c40.78,0,81.57,0,122.35,0c37.77,0,75.54,0,113.3,0c32.03,0,64.06,0,96.09,0c23.03,0,46.06,0,69.09,0
								c10.85,0,21.82,0.5,32.66,0c0.48-0.02,0.95,0,1.43,0c0.2,0,0.28-0.28,0.1-0.37c-6.48-3.67-12.97-7.33-19.46-10.99
								c-1.76-1-3.66-2.55-5.66-2.92c-2.75-0.51-6.09,0-8.88,0c-16.17,0-32.33,0-48.5,0c-26.96,0-53.92,0-80.88,0
								c-34.65,0-69.29,0-103.94,0c-38.95,0-77.9,0-116.85,0c-39.82,0-79.63,0-119.45,0c-37.54,0-75.08,0-112.62,0
								c-32.09,0-64.19,0-96.28,0c-23.21,0-46.42,0-69.63,0c-10.96,0-22.06-0.49-33.01,0c-0.48,0.02-0.96,0-1.43,0
								c-0.26,0-0.26,0.4,0,0.4c7.95,0,15.91,0,23.86,0c21.5,0,42.99,0,64.49,0c31.48,0,62.97,0,94.46,0c38.06,0,76.12,0,114.18,0
								c40.82,0,81.63,0,122.45,0c40.14,0,80.28,0,120.41,0c35.91,0,71.82,0,107.74,0c28.13,0,56.26,0,84.39,0
								c16.8,0,33.6,0,50.41,0c2.83,0,6.32-0.56,9.12,0c2.64,0.53,6.1,3.26,8.66,4.71c4.08,2.3,8.15,4.6,12.23,6.91
								c1.13,0.64,3.33,2.24,4.03,1.87c-1.44,0.75-5.3,0-6.86,0c-5.89,0-11.78,0-17.67,0c-21.09,0-42.19,0-63.28,0
								c-30.7,0-61.39,0-92.09,0c-37.19,0-74.38,0-111.57,0c-40.52,0-81.05,0-121.57,0c-40.7,0-81.39,0-122.09,0
								c-37.71,0-75.42,0-113.12,0c-31.56,0-63.11,0-94.67,0c-22.24,0-44.49,0-66.74,0c-9.77,0-19.56,0.2-29.32,0
								c-0.12,0-0.45,0.07-0.55,0c0.68,0.44,3.04-1.41,4.09-2.04c6.37-3.83,12.74-7.65,19.11-11.48
								C259.28,409.81,259.08,409.46,258.86,409.6z"/>
						</g>
						<g>
							<polygon class="st12" points="1019.71,392.17 288.26,392.17 258.96,409.77 1050.86,409.77 							"/>
						</g>
					</g>
					<g>
						<g>
							<polygon class="st11" points="1104.32,456.52 208.41,456.52 208.41,440.05 1104.32,439.59 							"/>
						</g>
					</g>
				</g>
			</g>
		</g>
	</g>
</g>
<path class="st14" d="M462.73-1.34c0,0,10.33,7.62,13.83,18.61c4.07,12.79,7.6,17.38,11.22,17.38
	c79.11,0.07,353.03-0.55,353.03-0.55s4.18,4.1,8.71-17.44c2.45-11.66,14.86-18,14.86-18H462.73z"/>
<text transform="matrix(1 0 0 1 494.1931 24.5315)" class="st15 st16">Activity- Quantity Identification</text>
</svg>
