<?xml version="1.0" encoding="utf-8"?>
<!-- Generator: Adobe Illustrator 24.1.1, SVG Export Plug-In . SVG Version: 6.00 Build 0)  -->
<svg version="1.1" id="Layer_1" xmlns="http://www.w3.org/2000/svg" xmlns:xlink="http://www.w3.org/1999/xlink" x="0px" y="0px"
	 viewBox="0 0 82.39 171.37" style="enable-background:new 0 0 82.39 171.37;" xml:space="preserve">
<style type="text/css">
	.st0{fill:#362A2B;}
	.st1{fill:#28252B;}
	.st2{fill:#FEF0D6;}
	.st3{fill:#3C3C3B;}
	.st4{fill:#47C6BD;}
	.st5{fill:#FFBA00;}
	.st6{fill:#C6C6C6;}
	.st7{fill:#22B5AF;}
	.st8{fill:#14847C;}
	.st9{fill:#9D9D9C;}
	.st10{opacity:0.15;}
	.st11{fill:#1F8923;}
	.st12{fill:#2FAF2F;}
	.st13{fill:#FEE5D8;}
</style>
<g>
	<g>
		<g>
			<g>
				<path class="st0" d="M880.68,1065.82c-0.01,4.5,3.63,8.16,8.13,8.17c4.5,0.01,8.16-3.63,8.17-8.13c0.01-4.5-3.63-8.16-8.13-8.17
					C884.35,1057.68,880.69,1061.32,880.68,1065.82z"/>
				<path class="st1" d="M871.27,1065.81c-0.01,9.7,7.84,17.58,17.54,17.59c9.7,0.02,17.58-7.84,17.59-17.54
					c0.02-9.7-7.84-17.58-17.54-17.59C879.16,1048.26,871.28,1056.11,871.27,1065.81z M878.02,1065.82
					c0.01-5.97,4.86-10.8,10.83-10.8c5.97,0.01,10.81,4.86,10.8,10.83c-0.01,5.97-4.86,10.81-10.83,10.8
					C882.84,1076.65,878.01,1071.8,878.02,1065.82z"/>
				<g>
					<path class="st2" d="M878.05,1065.82c-0.01,5.95,4.81,10.79,10.76,10.8c5.95,0.01,10.79-4.81,10.8-10.76
						c0.01-5.95-4.81-10.79-10.76-10.8C882.9,1055.05,878.06,1059.87,878.05,1065.82z M879.22,1065.82
						c0.01-5.31,4.32-9.61,9.63-9.59c5.31,0.01,9.61,4.32,9.6,9.63c-0.01,5.31-4.32,9.61-9.63,9.6
						C883.51,1075.45,879.21,1071.13,879.22,1065.82z"/>
					<path class="st2" d="M882.23,1065.83c-0.01,3.65,2.95,6.61,6.6,6.62c3.65,0,6.61-2.95,6.62-6.6c0.01-3.65-2.95-6.61-6.59-6.62
						C885.19,1059.23,882.23,1062.18,882.23,1065.83z M884.68,1065.83c0-2.29,1.87-4.15,4.16-4.15c2.29,0,4.15,1.87,4.15,4.16
						c0,2.29-1.87,4.15-4.16,4.15C886.53,1069.99,884.67,1068.13,884.68,1065.83z"/>
					<g>
						<path class="st2" d="M884.68,1065.83c0,2.29,1.85,4.16,4.15,4.16c2.29,0,4.16-1.86,4.16-4.15c0-2.3-1.85-4.16-4.15-4.16
							C886.55,1061.68,884.68,1063.54,884.68,1065.83z M887.24,1064.25c-0.23,0.23-0.61,0.23-0.84,0c-0.23-0.23-0.23-0.61,0-0.84
							c0.23-0.23,0.61-0.23,0.84,0C887.48,1063.64,887.48,1064.02,887.24,1064.25z M889.18,1063.29c0,0.19-0.16,0.35-0.35,0.34
							c-0.19,0-0.35-0.16-0.35-0.35c0-0.19,0.16-0.35,0.35-0.34C889.03,1062.94,889.18,1063.1,889.18,1063.29z M891.26,1064.25
							c-0.23,0.23-0.61,0.23-0.84,0c-0.23-0.23-0.23-0.61,0-0.84c0.23-0.23,0.61-0.23,0.84,0
							C891.5,1063.65,891.5,1064.02,891.26,1064.25z M891.38,1066.19c-0.19,0-0.35-0.16-0.35-0.35c0-0.19,0.16-0.35,0.35-0.34
							c0.19,0,0.34,0.15,0.34,0.35C891.73,1066.04,891.58,1066.19,891.38,1066.19z M890.42,1067.43c0.23-0.23,0.61-0.23,0.84,0
							c0.23,0.23,0.23,0.61,0,0.84c-0.23,0.23-0.61,0.23-0.84,0C890.19,1068.04,890.19,1067.66,890.42,1067.43z M888.48,1068.39
							c0-0.19,0.15-0.34,0.35-0.34c0.19,0,0.35,0.16,0.35,0.35c0,0.19-0.16,0.35-0.35,0.34
							C888.64,1068.74,888.48,1068.59,888.48,1068.39z M887.26,1065.84c0-0.87,0.71-1.58,1.58-1.58c0.87,0,1.58,0.71,1.57,1.58
							c0,0.87-0.71,1.58-1.58,1.58C887.96,1067.42,887.25,1066.71,887.26,1065.84z M886.4,1067.43c0.23-0.23,0.61-0.23,0.84,0
							c0.23,0.23,0.23,0.61,0,0.84c-0.23,0.23-0.61,0.23-0.84,0C886.17,1068.03,886.17,1067.66,886.4,1067.43z M885.93,1065.84
							c0-0.19,0.16-0.35,0.35-0.35c0.19,0,0.35,0.16,0.35,0.35c0,0.19-0.16,0.35-0.35,0.34
							C886.09,1066.18,885.93,1066.03,885.93,1065.84z"/>
					</g>
					<path class="st2" d="M879.22,1065.82c-0.01,5.31,4.29,9.62,9.6,9.63c5.31,0.01,9.62-4.29,9.63-9.6
						c0.01-5.31-4.29-9.62-9.6-9.63C883.54,1056.22,879.23,1060.52,879.22,1065.82z M888.84,1059.23c3.65,0.01,6.6,2.97,6.59,6.62
						c-0.01,3.65-2.97,6.6-6.62,6.6c-3.65-0.01-6.6-2.97-6.6-6.62C882.23,1062.18,885.19,1059.23,888.84,1059.23z"/>
				</g>
			</g>
			<rect x="887.59" y="1052.99" class="st3" width="17.92" height="14.1"/>
			<circle class="st3" cx="888.83" cy="1065.84" r="5.47"/>
			<g>
				<path class="st1" d="M973.21,1065.81c-0.01,9.7,7.84,17.58,17.54,17.59c9.7,0.02,17.58-7.84,17.59-17.54
					c0.02-9.7-7.84-17.58-17.54-17.59C981.1,1048.26,973.23,1056.11,973.21,1065.81z M979.96,1065.82
					c0.01-5.97,4.86-10.8,10.83-10.8c5.97,0.01,10.81,4.86,10.8,10.83c-0.01,5.97-4.86,10.81-10.83,10.8
					C984.79,1076.65,979.95,1071.8,979.96,1065.82z"/>
				<g>
					<path class="st2" d="M980,1065.82c-0.01,5.95,4.81,10.79,10.76,10.8s10.79-4.81,10.8-10.76c0.01-5.95-4.81-10.79-10.76-10.8
						C984.84,1055.05,980.01,1059.87,980,1065.82z M981.16,1065.82c0.01-5.31,4.32-9.61,9.63-9.59c5.31,0.01,9.61,4.32,9.6,9.63
						c-0.01,5.31-4.32,9.61-9.63,9.6C985.45,1075.45,981.15,1071.13,981.16,1065.82z"/>
					<path class="st2" d="M984.17,1065.83c-0.01,3.65,2.95,6.61,6.6,6.62c3.65,0,6.61-2.95,6.62-6.6c0.01-3.65-2.95-6.61-6.59-6.62
						C987.14,1059.23,984.17,1062.18,984.17,1065.83z M986.62,1065.83c0-2.29,1.87-4.15,4.16-4.15c2.29,0,4.15,1.87,4.15,4.16
						c0,2.29-1.87,4.15-4.16,4.15C988.48,1069.99,986.62,1068.13,986.62,1065.83z"/>
					<g>
						<path class="st2" d="M986.62,1065.83c0,2.29,1.85,4.16,4.15,4.16c2.29,0,4.16-1.86,4.16-4.15c0-2.3-1.85-4.16-4.15-4.16
							C988.49,1061.68,986.63,1063.54,986.62,1065.83z M989.19,1064.25c-0.23,0.23-0.61,0.23-0.84,0c-0.23-0.23-0.23-0.61,0-0.84
							c0.23-0.23,0.61-0.23,0.84,0C989.42,1063.64,989.42,1064.02,989.19,1064.25z M991.13,1063.29c0,0.19-0.16,0.35-0.35,0.34
							c-0.19,0-0.35-0.16-0.35-0.35c0-0.19,0.16-0.35,0.35-0.34C990.97,1062.94,991.13,1063.1,991.13,1063.29z M993.21,1064.25
							c-0.23,0.23-0.61,0.23-0.84,0c-0.23-0.23-0.23-0.61,0-0.84c0.23-0.23,0.61-0.23,0.84,0
							C993.44,1063.65,993.44,1064.02,993.21,1064.25z M993.33,1066.19c-0.19,0-0.35-0.16-0.35-0.35c0-0.19,0.16-0.35,0.35-0.34
							c0.19,0,0.34,0.15,0.34,0.35C993.67,1066.04,993.52,1066.19,993.33,1066.19z M992.36,1067.43c0.23-0.23,0.61-0.23,0.84,0
							c0.23,0.23,0.23,0.61,0,0.84c-0.23,0.23-0.61,0.23-0.84,0C992.13,1068.04,992.13,1067.66,992.36,1067.43z M990.43,1068.39
							c0-0.19,0.15-0.34,0.35-0.34c0.19,0,0.35,0.16,0.35,0.35c0,0.19-0.16,0.35-0.35,0.34
							C990.58,1068.74,990.43,1068.59,990.43,1068.39z M989.2,1065.84c0-0.87,0.71-1.58,1.58-1.58c0.87,0,1.58,0.71,1.57,1.58
							c0,0.87-0.71,1.58-1.58,1.58C989.9,1067.42,989.2,1066.71,989.2,1065.84z M988.34,1067.43c0.23-0.23,0.61-0.23,0.84,0
							c0.23,0.23,0.23,0.61,0,0.84c-0.23,0.23-0.61,0.23-0.84,0C988.11,1068.03,988.11,1067.66,988.34,1067.43z M987.88,1065.84
							c0-0.19,0.16-0.35,0.35-0.35c0.19,0,0.35,0.16,0.35,0.35c0,0.19-0.16,0.35-0.35,0.34
							C988.03,1066.18,987.88,1066.03,987.88,1065.84z"/>
					</g>
					<path class="st2" d="M981.16,1065.82c-0.01,5.31,4.29,9.62,9.6,9.63c5.31,0.01,9.62-4.29,9.63-9.6
						c0.01-5.31-4.29-9.62-9.6-9.63C985.48,1056.22,981.17,1060.52,981.16,1065.82z M990.79,1059.23c3.65,0.01,6.6,2.97,6.59,6.62
						c-0.01,3.65-2.97,6.6-6.62,6.6c-3.65-0.01-6.6-2.97-6.6-6.62C984.17,1062.18,987.14,1059.23,990.79,1059.23z"/>
				</g>
			</g>
			<g>
				
					<rect x="983.18" y="1041.17" transform="matrix(0.9089 -0.417 0.417 0.9089 -349.8092 506.9625)" class="st3" width="4.41" height="25.85"/>
			</g>
			<path class="st4" d="M971.99,1062.81c0.73,0.9,2.05,0.96,2.85,0.15c7.49-7.66,17.3-11.68,29.12-12.55
				c1.48-0.11,2.25-1.83,1.3-2.96c-5.46-6.49-13.7-9.78-24.39-10.24L971.99,1062.81z"/>
			<ellipse class="st5" cx="968.39" cy="1000.05" rx="1.96" ry="4.7"/>
			<rect x="878" y="1029.68" class="st4" width="22.91" height="12.12"/>
			<polygon class="st6" points="878,1041.35 875.59,1040.79 875.59,1030.24 878,1029.68 			"/>
			<path class="st7" d="M983.3,1026.06l-18.44-25.43l-6.02,2.64l7.8,22.24c2.63,7.51,2.28,15.74-0.98,22.99l-3.66,8.13
				c-0.71,1.58-2.29,2.6-4.02,2.6h-21.91c-9.09,0.03-9.22-18.22,0-30.18l-43.08-3.46l-14.93,15.35l1.17,16.74l23.35,10.55h54.2h5.09
				c4.07,0,7.87-2.04,10.12-5.42l11.7-17.57C987.57,1039.39,987.42,1031.74,983.3,1026.06z"/>
			<path class="st8" d="M966.01,1058.44l3.66-8.13c3.74-8.32,4.14-17.65,1.12-26.26l-5.25-14.98l-0.68-8.45l-6.02,2.64l7.8,22.24
				c2.63,7.51,2.28,15.74-0.98,22.99l-3.66,8.13c-0.71,1.58-2.29,2.6-4.02,2.6h-21.91c-9.09,0.03-9.22-18.22,0-30.18l-45.01-1.48
				l-2.23,2.29l39.74,3.01c-4.1,8.49-5.07,18.3-1.97,24.59c1.66,3.37,4.43,5.5,7.75,6.03h25.1
				C962.31,1063.01,964.8,1061.14,966.01,1058.44z"/>
			<path class="st4" d="M873.13,1053.88l34.3,7.45c5.58,1.21,10.99-2.63,11.69-8.29l1.07-8.63c0.81-6.53-4.97-11.95-11.43-10.73
				l-29.21,5.51c-5.19,0.98-8.94,5.51-8.94,10.79v0.76C870.61,1052.25,871.66,1053.56,873.13,1053.88z"/>
			<path class="st1" d="M941.4,1019.03h-52.72c-2.21,0-4,1.79-4,4c0,2.02,1.4,3.69,3.32,4.02l11.63,2h41.77V1019.03z"/>
			<path class="st1" d="M956.77,993.78l0.74,5.02c0,1.2,0.28,2.38,0.81,3.45l1.23,3.07h8.71l0.73-1.51l-0.47-8.54l-2.28-0.9
				L956.77,993.78z"/>
			<polygon class="st9" points="969.47,1004.59 968.27,1005.33 966.26,994.39 973.38,995.5 968.99,996.76 			"/>
			<path class="st3" d="M994.34,1065.84c0,1.97-1.6,3.57-3.57,3.57c-1.97,0-3.56-1.6-3.56-3.57c0-1.97,1.6-3.56,3.56-3.56
				C992.74,1062.28,994.34,1063.87,994.34,1065.84z"/>
		</g>
		<path class="st10" d="M1007.58,1084.46c0,2.1-1.71,3.81-3.81,3.81H877.24c-2.11,0-3.81-1.71-3.81-3.81c0-2.11,1.71-3.81,3.81-3.81
			h126.53C1005.88,1080.65,1007.58,1082.36,1007.58,1084.46L1007.58,1084.46z"/>
	</g>
	<path class="st3" d="M958.24,995.95c0.52,1.28-0.11,2.74-1.39,3.25c-1.28,0.51-2.74-0.11-3.25-1.39c-0.51-1.28,0.11-2.74,1.39-3.25
		C956.27,994.05,957.72,994.67,958.24,995.95z"/>
</g>
<g>
	<g>
		<path class="st11" d="M36.98,171.37h4c0.21-2.68,0.41-5.35,0.58-8.03c2.06-30.21,1.47-60.44,0.62-90.72
			c-0.06-1.68-2.64-2.8-2.58-0.7c0.76,30.13-0.36,60.25-2.04,90.31C37.41,165.3,37.19,168.35,36.98,171.37z"/>
		<g>
			<path class="st12" d="M12.9,141.65c0.52,4.13,2.34,7.93,3.76,11.73c1.41,3.79,3.02,7.56,5.36,10.72
				c3.78,5.09,10.2,7.83,16.03,6.74c0.33-0.09,0.7-0.35,0.63-0.82c-0.03-0.49-0.09-0.97-0.14-1.45c0.03-0.03,0.08-0.07,0.11-0.14
				c0.09-0.06,0.14-0.13,0.22-0.21c0.33-0.17,0.05-0.78-0.28-0.64c-0.05,0.02-0.1,0.03-0.14,0.03c-0.03-0.2-0.06-0.4-0.08-0.59
				c0.13-0.38,0.28-0.88,0.17-1.44c-0.4-2.27-1.01-4.41-1.87-6.52c-1-2.4-1.96-4.83-3.11-7.15c-1.11-2.18-2.86-3.69-4.03-5.8
				c-0.21-0.39-0.92-0.71-0.9,0.02c0,0.51,0.08,1,0.14,1.48c-2.64-3.53-7.04-6.47-10.7-6.77c-0.59-0.06-0.73,0.85-0.51,1.32
				c0.11,0.2,0.17,0.39,0.25,0.58c-1.36-0.52-2.64-1.95-4.08-2.17C13.11,140.48,12.81,140.96,12.9,141.65z"/>
			<path class="st11" d="M18.85,146.91c2.67,2.89,5.14,5.93,7.84,8.78c4.35,4.62,8.47,9.35,11.64,15.02
				c-0.08,0.06-0.17,0.09-0.27,0.12c-5.83,1.09-12.25-1.64-16.03-6.74c-2.34-3.16-3.95-6.93-5.36-10.72
				c-1.42-3.8-3.24-7.6-3.76-11.73c-0.03-0.21,0-0.4,0.02-0.55C14.25,143.28,17.8,145.78,18.85,146.91z"/>
		</g>
		<g>
			<path class="st12" d="M71.48,111.2c-1.44-0.21-2.99,0.79-4.43,0.92c0.13-0.15,0.25-0.32,0.38-0.47c0.32-0.4,0.4-1.32-0.22-1.45
				c-3.6-0.74-8.49,0.88-11.81,3.53c0.17-0.47,0.35-0.92,0.46-1.39c0.17-0.71-0.6-0.6-0.87-0.28c-1.6,1.71-3.62,2.67-5.15,4.47
				c-1.63,1.91-3.08,3.99-4.57,6.04c-1.28,1.8-2.36,3.69-3.23,5.79c-0.2,0.51-0.17,1.03-0.14,1.42c-0.06,0.18-0.13,0.38-0.19,0.57
				c-0.03-0.02-0.08-0.05-0.14-0.08c-0.28-0.21-0.68,0.28-0.43,0.55c0.08,0.09,0.13,0.17,0.19,0.25c0,0.09,0.06,0.13,0.08,0.17
				c-0.16,0.45-0.32,0.9-0.46,1.37c-0.14,0.43,0.13,0.78,0.44,0.97c5.41,2.7,12.21,1.88,16.98-1.98c2.96-2.38,5.34-5.59,7.51-8.85
				c2.2-3.29,4.77-6.44,6.18-10.29C72.3,111.82,72.11,111.25,71.48,111.2z"/>
			<path class="st11" d="M65.17,115.85c-3.23,2.06-6.28,4.3-9.52,6.32c-5.19,3.22-10.2,6.65-14.5,11.23
				c0.06,0.08,0.16,0.13,0.24,0.19c5.41,2.7,12.21,1.88,16.98-1.98c2.96-2.38,5.34-5.59,7.51-8.85c2.2-3.29,4.77-6.44,6.18-10.29
				c0.08-0.19,0.09-0.39,0.08-0.55C70.4,113.64,66.42,115.06,65.17,115.85z"/>
		</g>
	</g>
	<g>
		<g>
			<path class="st13" d="M35.81,10.86c0.16,3.97,1.49,7.08,2.64,10.85c0.96,3.11,2.74,7.1,5.49,8.06c0.05,0.23,0.17,0.43,0.4,0.5
				c2.2,0.64,3.94-0.27,6.1-0.94c2.56-0.8,5.34-1.24,7.78-2.51c4.3-2.27,8.76-5.81,10.97-10.73c0.85-1.95,0.85-5.14-1.76-4.9
				c-2.23,0.19-3.23-0.31-5.23,0.71c-0.13-1.91,0.05-4.33-1.31-6.05c-1.79-2.25-4.9-2.06-7.32-3.5c-1.31-0.77-2.7,1.47-4.08,0.94
				c-1.42-0.55-2.83-3.08-4.32-2.88c-1.79,0.28-3.04,1.45-4.98,1.27c-0.71-0.07-3.57-0.03-4.16,0.58C34.42,4,35.73,8.63,35.81,10.86
				z"/>
			<path class="st13" d="M0,22.09c0.03,2.01,1.63,3.37,3.02,4.26c5.69,3.69,12.89,4.41,19.29,5.02c3.94,0.38,15.08,3.26,14.29-5.09
				c-0.33-3.45-1.64-6.5-2.77-9.66c-1.12-3.16-2.12-6.45-3.65-9.42c-1.15-3.19-3.07-7.17-4.59-4.55c-2.15-1.74-5.23-3.76-7.59-1.94
				c-1.49,1.18-2.26,2.81-1.74,4.87c0.1,0.43,1.71,5.11-0.71,3.81c-0.71-0.38-1.31-0.84-2.09-0.98C12.3,8.22,9.93,7.65,9.19,9.24
				C8.87,9.97,8.66,10.65,8.7,11.5c0,0.62,0.32,3.18-0.89,3.05c-0.58-0.09-1.22-0.19-1.83-0.28c-1.27-0.25-3,0.25-2.99,2.06
				c0,1.34,0.84,2.62,1.58,3.76C2.99,20.4-0.05,20.03,0,22.09z"/>
			<path class="st11" d="M26.09,45.3c0.13,0.68,0.36,1.33,0.62,1.91c-0.25-0.11-0.54,0-0.57,0.47c0,0.2,0,0.41-0.02,0.65
				c-0.03,0.09-0.05,0.21-0.05,0.34c0,0.51,0.02,1,0.06,1.47c0.13,3.45,0.74,6.9,1.17,10.24c0.49,3.48,0.79,7.13,2.26,10.23
				c2.06,4.32,5.42,7.77,9.68,7.49c4.14-0.27,10.83-1.41,11.83-8.05c1.04-7,0.28-14.12,1.49-21.08c0.14-0.21,0.25-0.44,0.4-0.67
				c0.13,0.1,0.3,0.1,0.35-0.16c0.09-0.32,0.17-0.62,0.27-0.93c0.14-0.46-0.4-1.21-0.76-0.81c-0.05,0.06-0.09,0.12-0.13,0.16
				c-0.05,0-0.11,0.02-0.14,0.11c-0.03,0.03-0.03,0.11-0.08,0.16c-1.22,1.55-2.31,3.3-3.05,5.28c-0.28-1.49-0.63-2.97-0.98-4.44
				c-0.19-0.74-0.89-1.36-1.39-0.64c-0.84,1.19-1.12,2.92-1.33,4.41c-0.16,1.11,0.13,2.88-0.65,1.61c-0.49-0.82-0.93-1.69-1.36-2.59
				c-1.28-2.76-2.77-5.41-4.92-7.11c-0.46-0.36-0.98,0.08-1,0.71c-0.08,2.13,0.54,4.02,0.93,6.02c0.32,1.6,0.25,3.21,0.27,4.77
				c-1.82-2.46-3.68-5.21-4.95-7.98c-0.44-1-1.71-1.06-1.55,0.38c0.19,1.83,0.66,3.51,1.17,5.2c-2.17-2.55-4.02-5.75-6.31-8.08
				C26.77,43.81,25.9,44.24,26.09,45.3z"/>
			<path class="st5" d="M32.11,38.45c3.19,2.59,6.89,3.53,10.66,3c2.88-0.38,5.93-0.71,8-3.13c0.47-0.27,0.87-0.59,1.06-0.77
				c2.18-2.02,2.25-5.24,0.89-8.06c-0.89-1.79-2.21-3.87-3.64-5.19c-1.8-1.66-3.53-1.79-5.76-1.9c-2.21-0.11-4.16-1.5-6.34-0.46
				c-1.03,0.46-1.99,0.93-3.11,0.93c-0.71,0.02-1.57-0.06-2.21,0.24C25.46,25.97,27.65,34.76,32.11,38.45z"/>
			<path class="st13" d="M49.74,37.68c0.47,4.93,3.07,8.24,6.77,10.58c3.87,2.43,8.66,5.04,13.23,4.66c2.67-0.21,3.32-1.86,2.5-3.98
				c1.41,0.21,2.85,0.39,4.27,0.36c0.98-0.02,2.56,0.1,3.48-0.43c1.76-1.03,1.34-2.91,0.77-4.76c-0.41-1.44-2.4-3.68-0.73-4.92
				c0.73-0.56,1.69-0.85,2.2-1.71c0.76-1.32-1.45-3.42-2.61-4.54c1.3-1.23,1.82-2.92,0.92-4.81c-1.03-2.12-3.91-2.3-5.74-2.22
				c-3.54,0.17-7.05,0.13-10.53,0.88c-1.55,0.34-3.18,0.64-4.71,1.18c-1.47,0.51-2.99,1.25-4.57,1.08c-0.3-0.03-0.21,0.36-0.02,0.54
				C51.83,30.74,49.33,33.19,49.74,37.68z"/>
			<path class="st13" d="M29.98,66.28c1.83,1.69,3.95-1.03,5.53-1.76c2.37-1.11,4.05,2.43,6.1,1.47c0.77-0.35,1.44-0.93,1.88-1.76
				c0.25-0.53,0.49-1.08,0.77-1.59c0.82-1.53,2.25-0.38,2.86,0.73c0.78,1.42,1.83,3.34,3.61,2.61c1.01-0.41,1.71-1.52,2.72-1.9
				c2.1-0.76,3.07,0.62,4.92,0.83c1.25,0.13,2.25-0.17,2.64-1.65c0.92-3.71-3.05-9.58-4.57-12.32c-1.56-2.85-3.35-5.49-5.58-7.67
				c-1.09-1.09-2.18-2.32-3.45-3.19c-3.08-2.72-7.18-4.87-10.44-2.92c-4.52,2.7-7.04,7.84-7.9,13.4
				C28.33,55.32,26.07,62.68,29.98,66.28z"/>
			<path class="st13" d="M2.66,37.36c0.52,1.09,1.2,2.24,1.98,2.93c1.44,1.35,0,2.82-0.57,4.32c-2.23,5.84,2.31,6.74,5.31,6.46
				c0.87-0.08,4.59-0.84,4.35,1.44c-0.13,1.12-0.51,2.7-0.27,3.84c0.46,1.99,1.44,3.1,2.99,2.94c1.04-0.12,1.95-1.12,2.89-1.64
				c1.68-0.89,0.82,1.94,0.81,3.2c-0.02,1.57,0.57,4.13,1.93,4.07c2.18-0.06,3.16-3.83,3.87-6.25c1.22-4.17,2.77-8.21,3.76-12.51
				c0.68-2.94,2.8-6.56,2.34-9.77c-0.33-2.17-2.07-3.19-3.43-3.45c-0.32-0.05-0.63-0.09-0.93-0.16c-1.26-0.56-2.62-0.67-3.94-1
				c-1.96-0.44-3.92-0.73-5.88-1.03c-3.15-0.44-6.31-0.32-9.41-0.97c-1.53-0.32-3.89-0.94-5.15,1.04
				C2.01,32.83,1.53,35.06,2.66,37.36z"/>
		</g>
	</g>
</g>
</svg>
