<?xml version="1.0" encoding="utf-8"?>
<!-- Generator: Adobe Illustrator 24.1.1, SVG Export Plug-In . SVG Version: 6.00 Build 0)  -->
<svg version="1.1" id="Layer_1" xmlns="http://www.w3.org/2000/svg" xmlns:xlink="http://www.w3.org/1999/xlink" x="0px" y="0px"
	 viewBox="0 0 137.74 94.49" style="enable-background:new 0 0 137.74 94.49;" xml:space="preserve">
<style type="text/css">
	.st0{fill:#362A2B;}
	.st1{fill:#28252B;}
	.st2{fill:#FEF0D6;}
	.st3{fill:#3C3C3B;}
	.st4{fill:#47C6BD;}
	.st5{fill:#FFBA00;}
	.st6{fill:#C6C6C6;}
	.st7{fill:#22B5AF;}
	.st8{fill:#14847C;}
	.st9{fill:#9D9D9C;}
	.st10{opacity:0.15;}
</style>
<g>
	<g>
		<g>
			<g>
				<path class="st0" d="M10.08,72.04c-0.01,4.5,3.63,8.16,8.13,8.17c4.5,0.01,8.16-3.63,8.17-8.13c0.01-4.5-3.63-8.16-8.13-8.17
					C13.74,63.89,10.09,67.54,10.08,72.04z"/>
				<path class="st1" d="M0.66,72.03C0.65,81.73,8.5,89.61,18.2,89.62c9.7,0.02,17.58-7.84,17.59-17.54
					c0.02-9.7-7.84-17.58-17.54-17.59C8.55,54.48,0.68,62.33,0.66,72.03z M7.41,72.04c0.01-5.97,4.86-10.8,10.83-10.8
					c5.97,0.01,10.81,4.86,10.8,10.83c-0.01,5.97-4.86,10.81-10.83,10.8C12.24,82.86,7.4,78.01,7.41,72.04z"/>
				<g>
					<path class="st2" d="M7.45,72.04c-0.01,5.95,4.81,10.79,10.76,10.8c5.95,0.01,10.79-4.81,10.8-10.76
						c0.01-5.95-4.81-10.79-10.76-10.8C12.29,61.27,7.46,66.09,7.45,72.04z M8.61,72.04c0.01-5.31,4.32-9.61,9.63-9.59
						c5.31,0.01,9.61,4.32,9.6,9.63c-0.01,5.31-4.32,9.61-9.63,9.6C12.9,81.66,8.6,77.35,8.61,72.04z"/>
					<path class="st2" d="M11.62,72.05c-0.01,3.65,2.95,6.61,6.6,6.62c3.65,0,6.61-2.95,6.62-6.6c0.01-3.65-2.95-6.61-6.59-6.62
						C14.59,65.44,11.62,68.4,11.62,72.05z M14.07,72.05c0-2.29,1.87-4.15,4.16-4.15c2.29,0,4.15,1.87,4.15,4.16
						c0,2.29-1.87,4.15-4.16,4.15C15.92,76.21,14.07,74.34,14.07,72.05z"/>
					<g>
						<path class="st2" d="M14.07,72.05c0,2.29,1.85,4.16,4.15,4.16c2.29,0,4.16-1.86,4.16-4.15c0-2.3-1.85-4.16-4.15-4.16
							C15.94,67.9,14.08,69.76,14.07,72.05z M16.64,70.46c-0.23,0.23-0.61,0.23-0.84,0c-0.23-0.23-0.23-0.61,0-0.84
							c0.23-0.23,0.61-0.23,0.84,0C16.87,69.86,16.87,70.23,16.64,70.46z M18.58,69.5c0,0.19-0.16,0.35-0.35,0.34
							c-0.19,0-0.35-0.16-0.35-0.35c0-0.19,0.16-0.35,0.35-0.34C18.42,69.16,18.58,69.31,18.58,69.5z M20.66,70.47
							c-0.23,0.23-0.61,0.23-0.84,0c-0.23-0.23-0.23-0.61,0-0.84c0.23-0.23,0.61-0.23,0.84,0C20.89,69.86,20.89,70.24,20.66,70.47z
							 M20.78,72.41c-0.19,0-0.35-0.16-0.35-0.35c0-0.19,0.16-0.35,0.35-0.34c0.19,0,0.34,0.15,0.34,0.35
							C21.12,72.25,20.97,72.41,20.78,72.41z M19.81,73.65c0.23-0.23,0.61-0.23,0.84,0c0.23,0.23,0.23,0.61,0,0.84
							c-0.23,0.23-0.61,0.23-0.84,0C19.58,74.26,19.58,73.88,19.81,73.65z M17.88,74.61c0-0.19,0.15-0.34,0.35-0.34
							c0.19,0,0.35,0.16,0.35,0.35c0,0.19-0.16,0.35-0.35,0.34C18.03,74.95,17.88,74.8,17.88,74.61z M16.65,72.05
							c0-0.87,0.71-1.58,1.58-1.58c0.87,0,1.58,0.71,1.57,1.58c0,0.87-0.71,1.58-1.58,1.58C17.35,73.63,16.65,72.93,16.65,72.05z
							 M15.79,73.64c0.23-0.23,0.61-0.23,0.84,0c0.23,0.23,0.23,0.61,0,0.84c-0.23,0.23-0.61,0.23-0.84,0
							C15.56,74.25,15.56,73.87,15.79,73.64z M15.33,72.05c0-0.19,0.16-0.35,0.35-0.35c0.19,0,0.35,0.16,0.35,0.35
							c0,0.19-0.16,0.35-0.35,0.34C15.48,72.4,15.33,72.24,15.33,72.05z"/>
					</g>
					<path class="st2" d="M8.61,72.04c-0.01,5.31,4.29,9.62,9.6,9.63c5.31,0.01,9.62-4.29,9.63-9.6c0.01-5.31-4.29-9.62-9.6-9.63
						C12.93,62.43,8.62,66.73,8.61,72.04z M18.24,65.45c3.65,0.01,6.6,2.97,6.59,6.62c-0.01,3.65-2.97,6.6-6.62,6.6
						c-3.65-0.01-6.6-2.97-6.6-6.62C11.62,68.4,14.59,65.44,18.24,65.45z"/>
				</g>
			</g>
			<rect x="16.99" y="59.2" class="st3" width="17.92" height="14.1"/>
			<circle class="st3" cx="18.22" cy="72.06" r="5.47"/>
			<g>
				<path class="st1" d="M102.6,72.03c-0.01,9.7,7.84,17.58,17.54,17.59c9.7,0.02,17.58-7.84,17.59-17.54
					c0.02-9.7-7.84-17.58-17.54-17.59C110.5,54.48,102.62,62.33,102.6,72.03z M109.36,72.04c0.01-5.97,4.86-10.8,10.83-10.8
					c5.97,0.01,10.81,4.86,10.8,10.83c-0.01,5.97-4.86,10.81-10.83,10.8C114.18,82.86,109.35,78.01,109.36,72.04z"/>
				<g>
					<path class="st2" d="M109.39,72.04c-0.01,5.95,4.81,10.79,10.76,10.8c5.95,0.01,10.79-4.81,10.8-10.76
						c0.01-5.95-4.81-10.79-10.76-10.8C114.23,61.27,109.4,66.09,109.39,72.04z M110.56,72.04c0.01-5.31,4.32-9.61,9.63-9.59
						c5.31,0.01,9.61,4.32,9.6,9.63c-0.01,5.31-4.32,9.61-9.63,9.6C114.85,81.66,110.55,77.35,110.56,72.04z"/>
					<path class="st2" d="M113.56,72.05c-0.01,3.65,2.95,6.61,6.6,6.62c3.65,0,6.61-2.95,6.62-6.6c0.01-3.65-2.95-6.61-6.59-6.62
						C116.53,65.44,113.57,68.4,113.56,72.05z M116.02,72.05c0-2.29,1.87-4.15,4.16-4.15c2.29,0,4.15,1.87,4.15,4.16
						c0,2.29-1.87,4.15-4.16,4.15C117.87,76.21,116.01,74.34,116.02,72.05z"/>
					<g>
						<path class="st2" d="M116.02,72.05c0,2.29,1.85,4.16,4.15,4.16c2.29,0,4.16-1.86,4.16-4.15c0-2.3-1.85-4.16-4.15-4.16
							C117.88,67.9,116.02,69.76,116.02,72.05z M118.58,70.46c-0.23,0.23-0.61,0.23-0.84,0c-0.23-0.23-0.23-0.61,0-0.84
							c0.23-0.23,0.61-0.23,0.84,0C118.82,69.86,118.81,70.23,118.58,70.46z M120.52,69.5c0,0.19-0.16,0.35-0.35,0.34
							c-0.19,0-0.35-0.16-0.35-0.35c0-0.19,0.16-0.35,0.35-0.34C120.37,69.16,120.52,69.31,120.52,69.5z M122.6,70.47
							c-0.23,0.23-0.61,0.23-0.84,0c-0.23-0.23-0.23-0.61,0-0.84c0.23-0.23,0.61-0.23,0.84,0C122.83,69.86,122.83,70.24,122.6,70.47
							z M122.72,72.41c-0.19,0-0.35-0.16-0.35-0.35c0-0.19,0.16-0.35,0.35-0.34c0.19,0,0.34,0.15,0.34,0.35
							C123.07,72.25,122.91,72.41,122.72,72.41z M121.76,73.65c0.23-0.23,0.61-0.23,0.84,0c0.23,0.23,0.23,0.61,0,0.84
							c-0.23,0.23-0.61,0.23-0.84,0C121.52,74.26,121.52,73.88,121.76,73.65z M119.82,74.61c0-0.19,0.15-0.34,0.35-0.34
							c0.19,0,0.35,0.16,0.35,0.35c0,0.19-0.16,0.35-0.35,0.34C119.97,74.95,119.82,74.8,119.82,74.61z M118.59,72.05
							c0-0.87,0.71-1.58,1.58-1.58c0.87,0,1.58,0.71,1.57,1.58c0,0.87-0.71,1.58-1.58,1.58C119.3,73.63,118.59,72.93,118.59,72.05z
							 M117.74,73.64c0.23-0.23,0.61-0.23,0.84,0c0.23,0.23,0.23,0.61,0,0.84c-0.23,0.23-0.61,0.23-0.84,0
							C117.51,74.25,117.51,73.87,117.74,73.64z M117.27,72.05c0-0.19,0.16-0.35,0.35-0.35c0.19,0,0.35,0.16,0.35,0.35
							c0,0.19-0.16,0.35-0.35,0.34C117.43,72.4,117.27,72.24,117.27,72.05z"/>
					</g>
					<path class="st2" d="M110.56,72.04c-0.01,5.31,4.29,9.62,9.6,9.63c5.31,0.01,9.62-4.29,9.63-9.6c0.01-5.31-4.29-9.62-9.6-9.63
						C114.88,62.43,110.57,66.73,110.56,72.04z M120.18,65.45c3.65,0.01,6.6,2.97,6.59,6.62c-0.01,3.65-2.97,6.6-6.62,6.6
						c-3.65-0.01-6.6-2.97-6.6-6.62C113.57,68.4,116.53,65.44,120.18,65.45z"/>
				</g>
			</g>
			<g>
				
					<rect x="112.58" y="47.38" transform="matrix(0.9089 -0.417 0.417 0.9089 -14.6932 53.3603)" class="st3" width="4.41" height="25.85"/>
			</g>
			<path class="st4" d="M101.38,69.03c0.73,0.9,2.05,0.96,2.85,0.15c7.49-7.66,17.3-11.68,29.12-12.55c1.48-0.11,2.25-1.83,1.3-2.96
				c-5.46-6.49-13.7-9.78-24.39-10.24L101.38,69.03z"/>
			<ellipse class="st5" cx="97.78" cy="6.27" rx="1.96" ry="4.7"/>
			<rect x="7.39" y="35.9" class="st4" width="22.91" height="12.12"/>
			<polygon class="st6" points="7.39,47.56 4.98,47.01 4.98,36.45 7.39,35.9 			"/>
			<path class="st7" d="M112.69,32.27L94.25,6.84l-6.02,2.64l7.8,22.24c2.63,7.51,2.28,15.74-0.98,22.99l-3.66,8.13
				c-0.71,1.58-2.29,2.6-4.02,2.6H65.46c-9.09,0.03-9.22-18.22,0-30.18l-43.08-3.46L7.45,47.17L8.61,63.9l23.35,10.55h54.2h5.09
				c4.07,0,7.87-2.04,10.12-5.42l11.7-17.57C116.97,45.61,116.81,37.96,112.69,32.27z"/>
			<path class="st8" d="M95.41,64.66l3.66-8.13c3.74-8.32,4.14-17.65,1.12-26.26l-5.25-14.98l-0.68-8.45l-6.02,2.64l7.8,22.24
				c2.63,7.51,2.28,15.74-0.98,22.99l-3.66,8.13c-0.71,1.58-2.29,2.6-4.02,2.6H65.46c-9.09,0.03-9.22-18.22,0-30.18L20.45,33.8
				l-2.23,2.29l39.74,3.01c-4.1,8.49-5.07,18.3-1.97,24.59c1.66,3.37,4.43,5.5,7.75,6.03h25.1C91.71,69.23,94.19,67.36,95.41,64.66z
				"/>
			<path class="st4" d="M2.53,60.1l34.3,7.45c5.58,1.21,10.99-2.63,11.69-8.29l1.07-8.63c0.81-6.53-4.97-11.95-11.43-10.73
				L8.94,45.41C3.76,46.39,0,50.92,0,56.2v0.76C0,58.47,1.05,59.77,2.53,60.1z"/>
			<path class="st1" d="M70.79,25.25H18.07c-2.21,0-4,1.79-4,4c0,2.02,1.4,3.69,3.32,4.02l11.63,2h41.77V25.25z"/>
			<path class="st1" d="M86.17,0l0.74,5.02c0,1.2,0.28,2.38,0.81,3.45l1.23,3.07h8.71l0.73-1.51L97.93,1.5l-2.28-0.9L86.17,0z"/>
			<polygon class="st9" points="98.86,10.81 97.66,11.54 95.65,0.6 102.77,1.72 98.39,2.98 			"/>
			<path class="st3" d="M123.73,72.06c0,1.97-1.6,3.57-3.57,3.57c-1.97,0-3.56-1.6-3.56-3.57c0-1.97,1.6-3.56,3.56-3.56
				C122.14,68.49,123.73,70.09,123.73,72.06z"/>
		</g>
		<path class="st10" d="M136.98,90.68c0,2.11-1.71,3.81-3.81,3.81H6.64c-2.11,0-3.81-1.71-3.81-3.81c0-2.11,1.71-3.81,3.81-3.81
			h126.53C135.27,86.87,136.98,88.57,136.98,90.68L136.98,90.68z"/>
	</g>
	<path class="st3" d="M87.63,2.17c0.52,1.28-0.11,2.74-1.39,3.25c-1.28,0.51-2.74-0.11-3.25-1.39c-0.51-1.28,0.11-2.74,1.39-3.25
		C85.66,0.27,87.11,0.89,87.63,2.17z"/>
</g>
<g>
	<g>
		<g>
			<g>
				<path class="st0" d="M908.09,1027.65c-0.01,4.5,3.63,8.16,8.13,8.17c4.5,0.01,8.16-3.63,8.17-8.13c0.01-4.5-3.63-8.16-8.13-8.17
					C911.76,1019.51,908.1,1023.15,908.09,1027.65z"/>
				<path class="st1" d="M898.67,1027.64c-0.01,9.7,7.84,17.58,17.54,17.59c9.7,0.02,17.58-7.84,17.59-17.54
					c0.02-9.7-7.84-17.58-17.54-17.59C906.56,1010.09,898.69,1017.94,898.67,1027.64z M905.42,1027.66
					c0.01-5.97,4.86-10.8,10.83-10.8c5.97,0.01,10.81,4.86,10.8,10.83c-0.01,5.97-4.86,10.81-10.83,10.8
					C910.25,1038.48,905.41,1033.63,905.42,1027.66z"/>
				<g>
					<path class="st2" d="M905.46,1027.66c-0.01,5.95,4.81,10.79,10.76,10.8c5.95,0.01,10.79-4.81,10.8-10.76
						c0.01-5.95-4.81-10.79-10.76-10.8C910.3,1016.89,905.47,1021.7,905.46,1027.66z M906.62,1027.66c0.01-5.31,4.32-9.61,9.63-9.59
						c5.31,0.01,9.61,4.32,9.6,9.63c-0.01,5.31-4.32,9.61-9.63,9.6C910.91,1037.28,906.61,1032.97,906.62,1027.66z"/>
					<path class="st2" d="M909.63,1027.66c-0.01,3.65,2.95,6.61,6.6,6.62c3.65,0,6.61-2.95,6.62-6.6c0.01-3.65-2.95-6.61-6.59-6.62
						C912.6,1021.06,909.63,1024.02,909.63,1027.66z M912.08,1027.67c0-2.29,1.87-4.15,4.16-4.15c2.29,0,4.15,1.87,4.15,4.16
						c0,2.29-1.87,4.15-4.16,4.15C913.94,1031.82,912.08,1029.96,912.08,1027.67z"/>
					<g>
						<path class="st2" d="M912.08,1027.67c0,2.29,1.85,4.16,4.15,4.16c2.29,0,4.16-1.86,4.16-4.15c0-2.3-1.85-4.16-4.15-4.16
							C913.95,1023.52,912.09,1025.37,912.08,1027.67z M914.65,1026.08c-0.23,0.23-0.61,0.23-0.84,0c-0.23-0.23-0.23-0.61,0-0.84
							c0.23-0.23,0.61-0.23,0.84,0C914.88,1025.47,914.88,1025.85,914.65,1026.08z M916.59,1025.12c0,0.19-0.16,0.35-0.35,0.34
							c-0.19,0-0.35-0.16-0.35-0.35c0-0.19,0.16-0.35,0.35-0.34C916.43,1024.78,916.59,1024.93,916.59,1025.12z M918.67,1026.09
							c-0.23,0.23-0.61,0.23-0.84,0c-0.23-0.23-0.23-0.61,0-0.84c0.23-0.23,0.61-0.23,0.84,0
							C918.9,1025.48,918.9,1025.85,918.67,1026.09z M918.79,1028.03c-0.19,0-0.35-0.16-0.35-0.35c0-0.19,0.16-0.35,0.35-0.34
							c0.19,0,0.34,0.15,0.34,0.35C919.13,1027.87,918.98,1028.03,918.79,1028.03z M917.82,1029.27c0.23-0.23,0.61-0.23,0.84,0
							c0.23,0.23,0.23,0.61,0,0.84c-0.23,0.23-0.61,0.23-0.84,0C917.59,1029.87,917.59,1029.5,917.82,1029.27z M915.89,1030.22
							c0-0.19,0.15-0.34,0.35-0.34c0.19,0,0.35,0.16,0.35,0.35c0,0.19-0.16,0.35-0.35,0.34
							C916.04,1030.57,915.89,1030.42,915.89,1030.22z M914.66,1027.67c0-0.87,0.71-1.58,1.58-1.58c0.87,0,1.58,0.71,1.57,1.58
							c0,0.87-0.71,1.58-1.58,1.58C915.36,1029.25,914.66,1028.54,914.66,1027.67z M913.8,1029.26c0.23-0.23,0.61-0.23,0.84,0
							c0.23,0.23,0.23,0.61,0,0.84c-0.23,0.23-0.61,0.23-0.84,0C913.57,1029.87,913.57,1029.49,913.8,1029.26z M913.34,1027.67
							c0-0.19,0.16-0.35,0.35-0.35c0.19,0,0.35,0.16,0.35,0.35c0,0.19-0.16,0.35-0.35,0.34
							C913.49,1028.01,913.34,1027.86,913.34,1027.67z"/>
					</g>
					<path class="st2" d="M906.62,1027.66c-0.01,5.31,4.29,9.62,9.6,9.63c5.31,0.01,9.62-4.29,9.63-9.6
						c0.01-5.31-4.29-9.62-9.6-9.63C910.94,1018.05,906.63,1022.35,906.62,1027.66z M916.25,1021.07c3.65,0.01,6.6,2.97,6.59,6.62
						c-0.01,3.65-2.97,6.6-6.62,6.6c-3.65-0.01-6.6-2.97-6.6-6.62C909.63,1024.02,912.6,1021.06,916.25,1021.07z"/>
				</g>
			</g>
			<rect x="915" y="1014.82" class="st3" width="17.92" height="14.1"/>
			<circle class="st3" cx="916.24" cy="1027.67" r="5.47"/>
			<g>
				<path class="st1" d="M1000.61,1027.64c-0.01,9.7,7.84,17.58,17.54,17.59c9.7,0.02,17.58-7.84,17.59-17.54
					c0.02-9.7-7.84-17.58-17.54-17.59C1008.51,1010.09,1000.63,1017.94,1000.61,1027.64z M1007.37,1027.66
					c0.01-5.97,4.86-10.8,10.83-10.8c5.97,0.01,10.81,4.86,10.8,10.83c-0.01,5.97-4.86,10.81-10.83,10.8
					C1012.19,1038.48,1007.36,1033.63,1007.37,1027.66z"/>
				<g>
					<path class="st2" d="M1007.4,1027.66c-0.01,5.95,4.81,10.79,10.76,10.8s10.79-4.81,10.8-10.76c0.01-5.95-4.81-10.79-10.76-10.8
						C1012.24,1016.89,1007.41,1021.7,1007.4,1027.66z M1008.57,1027.66c0.01-5.31,4.32-9.61,9.63-9.59
						c5.31,0.01,9.61,4.32,9.6,9.63c-0.01,5.31-4.32,9.61-9.63,9.6C1012.86,1037.28,1008.56,1032.97,1008.57,1027.66z"/>
					<path class="st2" d="M1011.57,1027.66c-0.01,3.65,2.95,6.61,6.6,6.62c3.65,0,6.61-2.95,6.62-6.6c0.01-3.65-2.95-6.61-6.59-6.62
						C1014.54,1021.06,1011.58,1024.02,1011.57,1027.66z M1014.03,1027.67c0-2.29,1.87-4.15,4.16-4.15c2.29,0,4.15,1.87,4.15,4.16
						c0,2.29-1.87,4.15-4.16,4.15C1015.88,1031.82,1014.02,1029.96,1014.03,1027.67z"/>
					<g>
						<path class="st2" d="M1014.03,1027.67c0,2.29,1.85,4.16,4.15,4.16c2.29,0,4.16-1.86,4.16-4.15c0-2.3-1.85-4.16-4.15-4.16
							C1015.89,1023.52,1014.03,1025.37,1014.03,1027.67z M1016.59,1026.08c-0.23,0.23-0.61,0.23-0.84,0
							c-0.23-0.23-0.23-0.61,0-0.84c0.23-0.23,0.61-0.23,0.84,0C1016.83,1025.47,1016.82,1025.85,1016.59,1026.08z M1018.53,1025.12
							c0,0.19-0.16,0.35-0.35,0.34c-0.19,0-0.35-0.16-0.35-0.35c0-0.19,0.16-0.35,0.35-0.34
							C1018.38,1024.78,1018.53,1024.93,1018.53,1025.12z M1020.61,1026.09c-0.23,0.23-0.61,0.23-0.84,0
							c-0.23-0.23-0.23-0.61,0-0.84c0.23-0.23,0.61-0.23,0.84,0C1020.85,1025.48,1020.84,1025.85,1020.61,1026.09z M1020.73,1028.03
							c-0.19,0-0.35-0.16-0.35-0.35c0-0.19,0.16-0.35,0.35-0.34c0.19,0,0.34,0.15,0.34,0.35
							C1021.08,1027.87,1020.92,1028.03,1020.73,1028.03z M1019.77,1029.27c0.23-0.23,0.61-0.23,0.84,0c0.23,0.23,0.23,0.61,0,0.84
							c-0.23,0.23-0.61,0.23-0.84,0C1019.53,1029.87,1019.54,1029.5,1019.77,1029.27z M1017.83,1030.22c0-0.19,0.15-0.34,0.35-0.34
							c0.19,0,0.35,0.16,0.35,0.35c0,0.19-0.16,0.35-0.35,0.34C1017.98,1030.57,1017.83,1030.42,1017.83,1030.22z M1016.6,1027.67
							c0-0.87,0.71-1.58,1.58-1.58c0.87,0,1.58,0.71,1.57,1.58c0,0.87-0.71,1.58-1.58,1.58
							C1017.31,1029.25,1016.6,1028.54,1016.6,1027.67z M1015.75,1029.26c0.23-0.23,0.61-0.23,0.84,0c0.23,0.23,0.23,0.61,0,0.84
							c-0.23,0.23-0.61,0.23-0.84,0C1015.52,1029.87,1015.52,1029.49,1015.75,1029.26z M1015.28,1027.67c0-0.19,0.16-0.35,0.35-0.35
							c0.19,0,0.35,0.16,0.35,0.35c0,0.19-0.16,0.35-0.35,0.34C1015.44,1028.01,1015.28,1027.86,1015.28,1027.67z"/>
					</g>
					<path class="st2" d="M1008.57,1027.66c-0.01,5.31,4.29,9.62,9.6,9.63c5.31,0.01,9.62-4.29,9.63-9.6
						c0.01-5.31-4.29-9.62-9.6-9.63C1012.89,1018.05,1008.58,1022.35,1008.57,1027.66z M1018.19,1021.07
						c3.65,0.01,6.6,2.97,6.59,6.62c-0.01,3.65-2.97,6.6-6.62,6.6c-3.65-0.01-6.6-2.97-6.6-6.62
						C1011.58,1024.02,1014.54,1021.06,1018.19,1021.07z"/>
				</g>
			</g>
			<g>
				
					<rect x="1010.59" y="1003" transform="matrix(0.9089 -0.417 0.417 0.9089 -331.3959 514.9134)" class="st3" width="4.41" height="25.85"/>
			</g>
			<path class="st4" d="M999.39,1024.65c0.73,0.9,2.05,0.96,2.85,0.15c7.49-7.66,17.3-11.68,29.12-12.55
				c1.48-0.11,2.25-1.83,1.3-2.96c-5.46-6.49-13.7-9.78-24.39-10.24L999.39,1024.65z"/>
			<ellipse class="st5" cx="995.8" cy="961.89" rx="1.96" ry="4.7"/>
			<rect x="905.4" y="991.51" class="st4" width="22.91" height="12.12"/>
			<polygon class="st6" points="905.4,1003.18 902.99,1002.62 902.99,992.07 905.4,991.51 			"/>
			<path class="st7" d="M1010.7,987.89l-18.44-25.43l-6.02,2.64l7.8,22.24c2.63,7.51,2.28,15.74-0.98,22.99l-3.66,8.13
				c-0.71,1.58-2.29,2.6-4.02,2.6h-21.91c-9.09,0.03-9.22-18.22,0-30.18l-43.08-3.46l-14.93,15.35l1.17,16.74l23.35,10.55h54.2h5.09
				c4.07,0,7.87-2.04,10.12-5.42l11.7-17.57C1014.98,1001.23,1014.82,993.58,1010.7,987.89z"/>
			<path class="st8" d="M993.42,1020.27l3.66-8.13c3.74-8.32,4.14-17.65,1.12-26.26l-5.25-14.98l-0.68-8.45l-6.02,2.64l7.8,22.24
				c2.63,7.51,2.28,15.74-0.98,22.99l-3.66,8.13c-0.71,1.58-2.29,2.6-4.02,2.6h-21.91c-9.09,0.03-9.22-18.22,0-30.18l-45.01-1.48
				l-2.23,2.29l39.74,3.01c-4.1,8.49-5.07,18.3-1.97,24.59c1.66,3.37,4.43,5.5,7.75,6.03h25.1
				C989.72,1024.84,992.2,1022.97,993.42,1020.27z"/>
			<path class="st4" d="M900.54,1015.71l34.3,7.45c5.58,1.21,10.99-2.63,11.69-8.29l1.07-8.63c0.81-6.53-4.97-11.95-11.43-10.73
				l-29.21,5.51c-5.19,0.98-8.94,5.51-8.94,10.79v0.76C898.01,1014.09,899.06,1015.39,900.54,1015.71z"/>
			<path class="st1" d="M968.8,980.86h-52.72c-2.21,0-4,1.79-4,4c0,2.02,1.4,3.69,3.32,4.02l11.63,2h41.77V980.86z"/>
			<path class="st1" d="M984.18,955.62l0.74,5.02c0,1.2,0.28,2.38,0.81,3.45l1.23,3.07h8.71l0.73-1.51l-0.47-8.54l-2.28-0.9
				L984.18,955.62z"/>
			<polygon class="st9" points="996.87,966.43 995.67,967.16 993.66,956.22 1000.78,957.34 996.4,958.6 			"/>
			<path class="st3" d="M1021.74,1027.67c0,1.97-1.6,3.57-3.57,3.57c-1.97,0-3.56-1.6-3.56-3.57c0-1.97,1.6-3.56,3.56-3.56
				C1020.15,1024.11,1021.74,1025.7,1021.74,1027.67z"/>
		</g>
		<path class="st10" d="M1034.99,1046.3c0,2.1-1.71,3.81-3.81,3.81H904.65c-2.11,0-3.81-1.71-3.81-3.81c0-2.11,1.71-3.81,3.81-3.81
			h126.53C1033.28,1042.48,1034.99,1044.19,1034.99,1046.3L1034.99,1046.3z"/>
	</g>
	<path class="st3" d="M985.64,957.78c0.52,1.28-0.11,2.74-1.39,3.25c-1.28,0.51-2.74-0.11-3.25-1.39c-0.51-1.28,0.11-2.74,1.39-3.25
		C983.67,955.88,985.12,956.5,985.64,957.78z"/>
</g>
</svg>
