<?xml version="1.0" encoding="utf-8"?>
<!-- Generator: Adobe Illustrator 24.1.1, SVG Export Plug-In . SVG Version: 6.00 Build 0)  -->
<svg version="1.1" id="Layer_1" xmlns="http://www.w3.org/2000/svg" xmlns:xlink="http://www.w3.org/1999/xlink" x="0px" y="0px"
	 viewBox="0 0 227.15 155.83" style="enable-background:new 0 0 227.15 155.83;" xml:space="preserve">
<style type="text/css">
	.st0{fill:#362A2B;}
	.st1{fill:#28252B;}
	.st2{fill:#FEF0D6;}
	.st3{fill:#3C3C3B;}
	.st4{fill:#47C6BD;}
	.st5{fill:#FFBA00;}
	.st6{fill:#C6C6C6;}
	.st7{fill:#22B5AF;}
	.st8{fill:#14847C;}
	.st9{fill:#9D9D9C;}
	.st10{opacity:0.15;}
</style>
<g>
	<g>
		<g>
			<g>
				<path class="st0" d="M16.62,118.8c-0.02,7.43,5.99,13.45,13.41,13.47c7.42,0.02,13.45-5.98,13.47-13.41
					c0.02-7.42-5.98-13.46-13.41-13.48C22.67,105.37,16.63,111.38,16.62,118.8z"/>
				<path class="st1" d="M1.09,118.79c-0.02,16,12.93,28.99,28.92,29.02c16,0.03,28.99-12.92,29.02-28.92
					c0.03-16-12.92-28.99-28.92-29.02C14.1,89.84,1.12,102.79,1.09,118.79z M12.22,118.8c0.02-9.85,8.01-17.82,17.86-17.8
					c9.85,0.02,17.82,8.02,17.81,17.86c-0.02,9.85-8.01,17.82-17.86,17.81C20.18,136.65,12.21,128.66,12.22,118.8z"/>
				<g>
					<path class="st2" d="M12.28,118.8c-0.02,9.82,7.93,17.79,17.75,17.81c9.82,0.01,17.79-7.93,17.81-17.75
						c0.02-9.82-7.93-17.79-17.75-17.8C20.27,101.04,12.3,108.99,12.28,118.8z M14.2,118.81c0.01-8.75,7.12-15.84,15.88-15.82
						c8.76,0.01,15.84,7.12,15.83,15.88c-0.01,8.75-7.12,15.84-15.88,15.83C21.28,134.68,14.19,127.56,14.2,118.81z"/>
					<path class="st2" d="M19.16,118.82c-0.01,6.02,4.86,10.9,10.88,10.91c6.02,0.01,10.9-4.86,10.91-10.88
						c0.01-6.02-4.86-10.9-10.88-10.91C24.06,107.93,19.17,112.8,19.16,118.82z M23.21,118.82c0.01-3.78,3.08-6.84,6.86-6.84
						c3.78,0.01,6.85,3.08,6.84,6.86c-0.01,3.78-3.08,6.85-6.86,6.84C26.26,125.68,23.2,122.61,23.21,118.82z"/>
					<g>
						<path class="st2" d="M23.21,118.82c-0.01,3.78,3.06,6.85,6.84,6.86c3.78,0.01,6.85-3.06,6.86-6.84
							c0.01-3.79-3.06-6.86-6.84-6.86C26.29,111.98,23.21,115.04,23.21,118.82z M27.44,116.21c-0.38,0.38-1,0.38-1.38,0
							c-0.38-0.38-0.38-1,0-1.38c0.38-0.38,1-0.38,1.38,0C27.82,115.21,27.82,115.83,27.44,116.21z M30.64,114.63
							c0,0.31-0.26,0.57-0.57,0.57c-0.31,0-0.57-0.26-0.57-0.57c0-0.31,0.26-0.57,0.57-0.57C30.38,114.06,30.64,114.31,30.64,114.63
							z M34.07,116.22c-0.39,0.38-1,0.38-1.39,0c-0.38-0.38-0.38-1,0-1.38c0.38-0.38,1-0.38,1.39,0
							C34.45,115.22,34.45,115.83,34.07,116.22z M34.27,119.41c-0.32,0-0.57-0.26-0.57-0.57c0-0.31,0.26-0.57,0.57-0.57
							c0.31,0,0.57,0.25,0.57,0.57C34.84,119.16,34.58,119.42,34.27,119.41z M32.67,121.46c0.38-0.38,1-0.38,1.38,0
							c0.38,0.39,0.38,1,0,1.38c-0.38,0.38-1,0.38-1.38,0C32.29,122.46,32.29,121.84,32.67,121.46z M29.48,123.04
							c0-0.31,0.25-0.57,0.57-0.57c0.31,0,0.57,0.26,0.57,0.57c0,0.31-0.26,0.57-0.57,0.57C29.73,123.61,29.48,123.36,29.48,123.04z
							 M27.46,118.83c0-1.44,1.17-2.6,2.6-2.6c1.44,0,2.6,1.17,2.6,2.6c0,1.44-1.17,2.6-2.61,2.6
							C28.62,121.44,27.45,120.27,27.46,118.83z M26.05,121.45c0.38-0.38,1-0.38,1.38,0c0.38,0.39,0.38,1,0,1.38
							c-0.38,0.38-1,0.38-1.39,0C25.66,122.45,25.67,121.83,26.05,121.45z M25.28,118.83c0-0.32,0.26-0.57,0.57-0.57
							c0.32,0,0.57,0.26,0.57,0.57c0,0.31-0.26,0.57-0.57,0.57C25.53,119.4,25.28,119.14,25.28,118.83z"/>
					</g>
					<path class="st2" d="M14.2,118.81c-0.01,8.76,7.07,15.87,15.83,15.88c8.76,0.01,15.86-7.08,15.88-15.83
						c0.01-8.76-7.07-15.87-15.83-15.88C21.33,102.96,14.22,110.05,14.2,118.81z M30.08,107.94c6.02,0.01,10.89,4.9,10.88,10.91
						c-0.01,6.02-4.89,10.89-10.91,10.88c-6.02-0.01-10.89-4.9-10.88-10.91C19.17,112.8,24.06,107.93,30.08,107.94z"/>
				</g>
			</g>
			<rect x="28.02" y="97.64" class="st3" width="29.56" height="23.26"/>
			<circle class="st3" cx="30.06" cy="118.83" r="9.02"/>
			<g>
				<path class="st1" d="M169.21,118.79c-0.02,16,12.93,28.99,28.92,29.02c16,0.03,28.99-12.92,29.02-28.92
					c0.03-16-12.92-28.99-28.92-29.02C182.23,89.84,169.24,102.79,169.21,118.79z M180.35,118.8c0.02-9.85,8.01-17.82,17.86-17.8
					c9.85,0.02,17.82,8.02,17.81,17.86c-0.02,9.85-8.01,17.82-17.86,17.81C188.31,136.65,180.33,128.66,180.35,118.8z"/>
				<g>
					<path class="st2" d="M180.41,118.8c-0.02,9.82,7.93,17.79,17.75,17.81c9.82,0.01,17.79-7.93,17.81-17.75
						c0.02-9.82-7.93-17.79-17.75-17.8C188.39,101.04,180.42,108.99,180.41,118.8z M182.33,118.81c0.01-8.75,7.12-15.84,15.88-15.82
						c8.76,0.01,15.84,7.12,15.83,15.88c-0.01,8.75-7.12,15.84-15.88,15.83C189.4,134.68,182.32,127.56,182.33,118.81z"/>
					<path class="st2" d="M187.29,118.82c-0.01,6.02,4.86,10.9,10.88,10.91c6.02,0.01,10.9-4.86,10.91-10.88
						c0.01-6.02-4.86-10.9-10.88-10.91C192.18,107.93,187.3,112.8,187.29,118.82z M191.33,118.82c0.01-3.78,3.08-6.84,6.86-6.84
						c3.78,0.01,6.85,3.08,6.84,6.86c-0.01,3.78-3.08,6.85-6.86,6.84C194.39,125.68,191.33,122.61,191.33,118.82z"/>
					<g>
						<path class="st2" d="M191.33,118.82c-0.01,3.78,3.06,6.85,6.84,6.86c3.78,0.01,6.85-3.06,6.86-6.84
							c0.01-3.79-3.06-6.86-6.84-6.86C194.41,111.98,191.34,115.04,191.33,118.82z M195.56,116.21c-0.38,0.38-1,0.38-1.38,0
							c-0.38-0.38-0.38-1,0-1.38c0.38-0.38,1-0.38,1.38,0C195.95,115.21,195.95,115.83,195.56,116.21z M198.76,114.63
							c0,0.31-0.26,0.57-0.57,0.57c-0.31,0-0.57-0.26-0.57-0.57c0-0.31,0.26-0.57,0.57-0.57
							C198.51,114.06,198.76,114.31,198.76,114.63z M202.19,116.22c-0.39,0.38-1,0.38-1.39,0c-0.38-0.38-0.38-1,0-1.38
							c0.38-0.38,1-0.38,1.39,0C202.58,115.22,202.58,115.83,202.19,116.22z M202.39,119.41c-0.32,0-0.57-0.26-0.57-0.57
							c0-0.31,0.26-0.57,0.57-0.57c0.31,0,0.57,0.25,0.57,0.57C202.96,119.16,202.71,119.42,202.39,119.41z M200.8,121.46
							c0.38-0.38,1-0.38,1.38,0c0.38,0.39,0.38,1,0,1.38c-0.38,0.38-1,0.38-1.38,0C200.42,122.46,200.42,121.84,200.8,121.46z
							 M197.61,123.04c0-0.31,0.25-0.57,0.57-0.57c0.31,0,0.57,0.26,0.57,0.57c0,0.31-0.26,0.57-0.58,0.57
							C197.86,123.61,197.61,123.36,197.61,123.04z M195.58,118.83c0-1.44,1.17-2.6,2.6-2.6c1.44,0,2.6,1.17,2.6,2.6
							c0,1.44-1.17,2.6-2.61,2.6C196.74,121.44,195.58,120.27,195.58,118.83z M194.17,121.45c0.38-0.38,1-0.38,1.38,0
							c0.38,0.39,0.38,1,0,1.38c-0.38,0.38-1,0.38-1.39,0C193.79,122.45,193.79,121.83,194.17,121.45z M193.4,118.83
							c0-0.32,0.26-0.57,0.57-0.57c0.32,0,0.57,0.26,0.57,0.57c0,0.31-0.26,0.57-0.57,0.57C193.66,119.4,193.4,119.14,193.4,118.83z
							"/>
					</g>
					<path class="st2" d="M182.33,118.81c-0.01,8.76,7.07,15.87,15.83,15.88c8.76,0.01,15.86-7.08,15.88-15.83
						c0.01-8.76-7.07-15.87-15.83-15.88C189.45,102.96,182.34,110.05,182.33,118.81z M198.2,107.94c6.02,0.01,10.89,4.9,10.88,10.91
						c-0.01,6.02-4.89,10.89-10.91,10.88c-6.01-0.01-10.89-4.9-10.88-10.91C187.3,112.8,192.18,107.93,198.2,107.94z"/>
				</g>
			</g>
			<g>
				
					<rect x="185.66" y="78.15" transform="matrix(0.9089 -0.417 0.417 0.9089 -24.232 88.0018)" class="st3" width="7.27" height="42.63"/>
			</g>
			<path class="st4" d="M167.2,113.84c1.2,1.48,3.39,1.59,4.7,0.25c12.36-12.63,28.53-19.26,48.03-20.7
				c2.43-0.18,3.72-3.02,2.15-4.89c-9-10.7-22.59-16.12-40.22-16.89L167.2,113.84z"/>
			<ellipse class="st5" cx="161.27" cy="10.34" rx="3.23" ry="7.76"/>
			<rect x="12.19" y="59.2" class="st4" width="37.78" height="19.98"/>
			<polygon class="st6" points="12.19,78.44 8.22,77.52 8.22,60.12 12.19,59.2 			"/>
			<path class="st7" d="M185.85,53.22l-30.41-41.94l-9.94,4.36l12.86,36.68c4.34,12.38,3.76,25.96-1.62,37.92l-6.03,13.4
				c-1.17,2.61-3.77,4.29-6.63,4.29h-36.13c-14.99,0.05-15.2-30.05,0-49.77l-71.05-5.7L12.28,77.79l1.92,27.6l38.51,17.39h89.39
				h8.39c6.71,0,12.98-3.36,16.69-8.94l19.29-28.98C192.9,75.22,192.65,62.6,185.85,53.22z"/>
			<path class="st8" d="M157.35,106.63l6.03-13.4c6.18-13.73,6.83-29.11,1.85-43.31l-8.66-24.71l-1.12-13.93l-9.94,4.36l12.86,36.68
				c4.34,12.38,3.76,25.96-1.62,37.92l-6.03,13.4c-1.17,2.61-3.77,4.29-6.63,4.29h-36.13c-14.99,0.05-15.2-30.05,0-49.77
				l-74.22-2.43l-3.67,3.78l65.55,4.96c-6.76,14.01-8.36,30.18-3.25,40.56c2.73,5.55,7.3,9.06,12.78,9.95h41.39
				C151.24,114.17,155.34,111.08,157.35,106.63z"/>
			<path class="st4" d="M4.17,99.11l56.57,12.28c9.2,2,18.13-4.34,19.29-13.68l1.76-14.23c1.33-10.76-8.2-19.71-18.86-17.7
				l-48.17,9.09C6.2,76.5,0,83.97,0,92.68v1.26C0,96.43,1.74,98.58,4.17,99.11z"/>
			<path class="st1" d="M116.75,41.63H29.81c-3.65,0-6.6,2.96-6.6,6.6c0,3.34,2.31,6.08,5.48,6.63l19.18,3.3h68.88V41.63z"/>
			<path class="st1" d="M142.11,0l1.22,8.28c0,1.97,0.46,3.92,1.34,5.68l2.03,5.07h14.37l1.21-2.48L161.5,2.47l-3.76-1.48L142.11,0z
				"/>
			<polygon class="st9" points="163.04,17.82 161.06,19.04 157.74,0.99 169.49,2.83 162.26,4.91 			"/>
			<path class="st3" d="M204.06,118.83c0,3.25-2.63,5.88-5.88,5.88c-3.25,0-5.88-2.63-5.88-5.88c0-3.25,2.63-5.88,5.88-5.88
				C201.43,112.96,204.06,115.59,204.06,118.83z"/>
		</g>
		<path class="st10" d="M225.9,149.55c0,3.47-2.81,6.29-6.29,6.29H10.95c-3.47,0-6.29-2.81-6.29-6.29s2.81-6.29,6.29-6.29h208.67
			C223.08,143.26,225.9,146.07,225.9,149.55L225.9,149.55z"/>
	</g>
	<path class="st3" d="M144.52,3.57c0.85,2.11-0.17,4.51-2.28,5.36c-2.11,0.85-4.51-0.17-5.36-2.28c-0.85-2.11,0.17-4.51,2.28-5.36
		C141.27,0.44,143.67,1.46,144.52,3.57z"/>
</g>
</svg>
