<?xml version="1.0" encoding="utf-8"?>
<!-- Generator: Adobe Illustrator 24.1.1, SVG Export Plug-In . SVG Version: 6.00 Build 0)  -->
<svg version="1.1" id="Layer_1" xmlns="http://www.w3.org/2000/svg" xmlns:xlink="http://www.w3.org/1999/xlink" x="0px" y="0px"
	 viewBox="0 0 56.15 116.81" style="enable-background:new 0 0 56.15 116.81;" xml:space="preserve">
<style type="text/css">
	.st0{fill:#362A2B;}
	.st1{fill:#28252B;}
	.st2{fill:#FEF0D6;}
	.st3{fill:#3C3C3B;}
	.st4{fill:#47C6BD;}
	.st5{fill:#FFBA00;}
	.st6{fill:#C6C6C6;}
	.st7{fill:#22B5AF;}
	.st8{fill:#14847C;}
	.st9{fill:#9D9D9C;}
	.st10{opacity:0.15;}
	.st11{fill:#1F8923;}
	.st12{fill:#2FAF2F;}
	.st13{fill:#FEE5D8;}
</style>
<g>
	<g>
		<g>
			<g>
				<path class="st0" d="M784.24,1108.58c-0.01,4.5,3.63,8.16,8.13,8.17c4.5,0.01,8.16-3.63,8.17-8.13c0.01-4.5-3.63-8.16-8.13-8.17
					C787.91,1100.44,784.25,1104.08,784.24,1108.58z"/>
				<path class="st1" d="M774.83,1108.57c-0.01,9.7,7.84,17.58,17.54,17.59c9.7,0.02,17.58-7.84,17.59-17.54
					c0.02-9.7-7.84-17.58-17.54-17.59C782.72,1091.02,774.84,1098.87,774.83,1108.57z M781.58,1108.58
					c0.01-5.97,4.86-10.8,10.83-10.8c5.97,0.01,10.81,4.86,10.8,10.83c-0.01,5.97-4.86,10.81-10.83,10.8
					C786.4,1119.41,781.57,1114.56,781.58,1108.58z"/>
				<g>
					<path class="st2" d="M781.61,1108.59c-0.01,5.95,4.81,10.79,10.76,10.8c5.95,0.01,10.79-4.81,10.8-10.76
						c0.01-5.95-4.81-10.79-10.76-10.8C786.46,1097.82,781.62,1102.63,781.61,1108.59z M782.78,1108.59
						c0.01-5.31,4.32-9.61,9.63-9.59c5.31,0.01,9.61,4.32,9.6,9.63c-0.01,5.31-4.32,9.61-9.63,9.6
						C787.07,1118.21,782.77,1113.9,782.78,1108.59z"/>
					<path class="st2" d="M785.79,1108.59c-0.01,3.65,2.95,6.61,6.6,6.62c3.65,0,6.61-2.95,6.62-6.6c0.01-3.65-2.95-6.61-6.59-6.62
						C788.76,1101.99,785.79,1104.94,785.79,1108.59z M788.24,1108.6c0-2.29,1.87-4.15,4.16-4.15c2.29,0,4.15,1.87,4.15,4.16
						c0,2.29-1.87,4.15-4.16,4.15C790.09,1112.75,788.24,1110.89,788.24,1108.6z"/>
					<g>
						<path class="st2" d="M788.24,1108.6c0,2.29,1.85,4.16,4.15,4.16c2.29,0,4.16-1.85,4.16-4.15c0-2.3-1.85-4.16-4.15-4.16
							C790.11,1104.45,788.24,1106.3,788.24,1108.6z M790.81,1107.01c-0.23,0.23-0.61,0.23-0.84,0c-0.23-0.23-0.23-0.61,0-0.84
							c0.23-0.23,0.61-0.23,0.84,0C791.04,1106.4,791.04,1106.78,790.81,1107.01z M792.74,1106.05c0,0.19-0.16,0.35-0.35,0.34
							c-0.19,0-0.35-0.16-0.35-0.35c0-0.19,0.16-0.35,0.35-0.34C792.59,1105.71,792.74,1105.86,792.74,1106.05z M794.83,1107.02
							c-0.23,0.23-0.61,0.23-0.84,0c-0.23-0.23-0.23-0.61,0-0.84c0.23-0.23,0.61-0.23,0.84,0
							C795.06,1106.41,795.06,1106.78,794.83,1107.02z M794.95,1108.96c-0.19,0-0.35-0.16-0.35-0.35c0-0.19,0.16-0.35,0.35-0.34
							c0.19,0,0.34,0.15,0.34,0.35C795.29,1108.8,795.14,1108.96,794.95,1108.96z M793.98,1110.2c0.23-0.23,0.61-0.23,0.84,0
							c0.23,0.23,0.23,0.61,0,0.84c-0.23,0.23-0.61,0.23-0.84,0C793.75,1110.8,793.75,1110.43,793.98,1110.2z M792.04,1111.15
							c0-0.19,0.15-0.34,0.35-0.34c0.19,0,0.35,0.16,0.35,0.35c0,0.19-0.16,0.35-0.35,0.34
							C792.2,1111.5,792.04,1111.35,792.04,1111.15z M790.82,1108.6c0-0.87,0.71-1.58,1.58-1.58c0.87,0,1.58,0.71,1.57,1.58
							c0,0.87-0.71,1.58-1.58,1.58C791.52,1110.18,790.82,1109.47,790.82,1108.6z M789.96,1110.19c0.23-0.23,0.61-0.23,0.84,0
							c0.23,0.23,0.23,0.61,0,0.84c-0.23,0.23-0.61,0.23-0.84,0C789.73,1110.8,789.73,1110.42,789.96,1110.19z M789.5,1108.6
							c0-0.19,0.16-0.35,0.35-0.35c0.19,0,0.35,0.16,0.35,0.35c0,0.19-0.16,0.35-0.35,0.34
							C789.65,1108.94,789.5,1108.79,789.5,1108.6z"/>
					</g>
					<path class="st2" d="M782.78,1108.59c-0.01,5.31,4.29,9.62,9.6,9.63c5.31,0.01,9.62-4.29,9.63-9.6
						c0.01-5.31-4.29-9.62-9.6-9.63C787.1,1098.98,782.79,1103.28,782.78,1108.59z M792.41,1102c3.65,0.01,6.6,2.97,6.59,6.62
						c-0.01,3.65-2.97,6.6-6.62,6.6c-3.65-0.01-6.6-2.97-6.6-6.62C785.79,1104.94,788.76,1101.99,792.41,1102z"/>
				</g>
			</g>
			<rect x="791.16" y="1095.75" class="st3" width="17.92" height="14.1"/>
			<circle class="st3" cx="792.39" cy="1108.6" r="5.47"/>
			<g>
				<path class="st1" d="M876.77,1108.57c-0.01,9.7,7.84,17.58,17.54,17.59c9.7,0.02,17.58-7.84,17.59-17.54
					c0.02-9.7-7.84-17.58-17.54-17.59C884.66,1091.02,876.79,1098.87,876.77,1108.57z M883.52,1108.58
					c0.01-5.97,4.86-10.8,10.83-10.8c5.97,0.01,10.81,4.86,10.8,10.83c-0.01,5.97-4.86,10.81-10.83,10.8
					C888.35,1119.41,883.51,1114.56,883.52,1108.58z"/>
				<g>
					<path class="st2" d="M883.56,1108.59c-0.01,5.95,4.81,10.79,10.76,10.8s10.79-4.81,10.8-10.76c0.01-5.95-4.81-10.79-10.76-10.8
						C888.4,1097.82,883.57,1102.63,883.56,1108.59z M884.72,1108.59c0.01-5.31,4.32-9.61,9.63-9.59c5.31,0.01,9.61,4.32,9.6,9.63
						c-0.01,5.31-4.32,9.61-9.63,9.6C889.01,1118.21,884.72,1113.9,884.72,1108.59z"/>
					<path class="st2" d="M887.73,1108.59c-0.01,3.65,2.95,6.61,6.6,6.62c3.65,0,6.61-2.95,6.62-6.6c0.01-3.65-2.95-6.61-6.59-6.62
						C890.7,1101.99,887.74,1104.94,887.73,1108.59z M890.18,1108.6c0-2.29,1.87-4.15,4.16-4.15c2.29,0,4.15,1.87,4.15,4.16
						c0,2.29-1.87,4.15-4.16,4.15C892.04,1112.75,890.18,1110.89,890.18,1108.6z"/>
					<g>
						<path class="st2" d="M890.18,1108.6c0,2.29,1.85,4.16,4.15,4.16c2.29,0,4.16-1.85,4.16-4.15c0-2.3-1.85-4.16-4.15-4.16
							C892.05,1104.45,890.19,1106.3,890.18,1108.6z M892.75,1107.01c-0.23,0.23-0.61,0.23-0.84,0c-0.23-0.23-0.23-0.61,0-0.84
							c0.23-0.23,0.61-0.23,0.84,0C892.98,1106.4,892.98,1106.78,892.75,1107.01z M894.69,1106.05c0,0.19-0.16,0.35-0.35,0.34
							c-0.19,0-0.35-0.16-0.35-0.35c0-0.19,0.16-0.35,0.35-0.34C894.53,1105.71,894.69,1105.86,894.69,1106.05z M896.77,1107.02
							c-0.23,0.23-0.61,0.23-0.84,0c-0.23-0.23-0.23-0.61,0-0.84c0.23-0.23,0.61-0.23,0.84,0
							C897,1106.41,897,1106.78,896.77,1107.02z M896.89,1108.96c-0.19,0-0.35-0.16-0.35-0.35c0-0.19,0.16-0.35,0.35-0.34
							c0.19,0,0.34,0.15,0.34,0.35C897.24,1108.8,897.08,1108.96,896.89,1108.96z M895.92,1110.2c0.23-0.23,0.61-0.23,0.84,0
							c0.23,0.23,0.23,0.61,0,0.84c-0.23,0.23-0.61,0.23-0.84,0C895.69,1110.8,895.69,1110.43,895.92,1110.2z M893.99,1111.15
							c0-0.19,0.15-0.34,0.35-0.34c0.19,0,0.35,0.16,0.35,0.35c0,0.19-0.16,0.35-0.35,0.34
							C894.14,1111.5,893.99,1111.35,893.99,1111.15z M892.76,1108.6c0-0.87,0.71-1.58,1.58-1.58c0.87,0,1.58,0.71,1.57,1.58
							c0,0.87-0.71,1.58-1.58,1.58C893.46,1110.18,892.76,1109.47,892.76,1108.6z M891.91,1110.19c0.23-0.23,0.61-0.23,0.84,0
							c0.23,0.23,0.23,0.61,0,0.84c-0.23,0.23-0.61,0.23-0.84,0C891.67,1110.8,891.67,1110.42,891.91,1110.19z M891.44,1108.6
							c0-0.19,0.16-0.35,0.35-0.35c0.19,0,0.35,0.16,0.35,0.35c0,0.19-0.16,0.35-0.35,0.34
							C891.59,1108.94,891.44,1108.79,891.44,1108.6z"/>
					</g>
					<path class="st2" d="M884.72,1108.59c-0.01,5.31,4.29,9.62,9.6,9.63c5.31,0.01,9.62-4.29,9.63-9.6
						c0.01-5.31-4.29-9.62-9.6-9.63C889.04,1098.98,884.73,1103.28,884.72,1108.59z M894.35,1102c3.65,0.01,6.6,2.97,6.59,6.62
						c-0.01,3.65-2.97,6.6-6.62,6.6c-3.65-0.01-6.6-2.97-6.6-6.62C887.74,1104.94,890.7,1101.99,894.35,1102z"/>
				</g>
			</g>
			<g>
				
					<rect x="886.74" y="1083.93" transform="matrix(0.9089 -0.417 0.417 0.9089 -376.4281 470.6412)" class="st3" width="4.41" height="25.85"/>
			</g>
			<path class="st4" d="M875.55,1105.58c0.73,0.9,2.05,0.96,2.85,0.15c7.49-7.66,17.3-11.68,29.12-12.55
				c1.48-0.11,2.25-1.83,1.3-2.96c-5.46-6.49-13.7-9.78-24.39-10.24L875.55,1105.58z"/>
			<ellipse class="st5" cx="871.95" cy="1042.82" rx="1.96" ry="4.7"/>
			<rect x="781.56" y="1072.44" class="st4" width="22.91" height="12.12"/>
			<polygon class="st6" points="781.56,1084.11 779.15,1083.55 779.15,1073 781.56,1072.44 			"/>
			<path class="st7" d="M886.86,1068.82l-18.44-25.43l-6.02,2.64l7.8,22.24c2.63,7.51,2.28,15.74-0.98,22.99l-3.66,8.13
				c-0.71,1.58-2.29,2.6-4.02,2.6h-21.91c-9.09,0.03-9.22-18.22,0-30.18l-43.08-3.46l-14.93,15.35l1.17,16.74l23.35,10.55h54.2h5.09
				c4.07,0,7.87-2.04,10.12-5.42l11.7-17.57C891.14,1082.16,890.98,1074.51,886.86,1068.82z"/>
			<path class="st8" d="M869.58,1101.2l3.66-8.13c3.74-8.32,4.14-17.65,1.12-26.26l-5.25-14.98l-0.68-8.45l-6.02,2.64l7.8,22.24
				c2.63,7.51,2.28,15.74-0.98,22.99l-3.66,8.13c-0.71,1.58-2.29,2.6-4.02,2.6h-21.91c-9.09,0.03-9.22-18.22,0-30.18l-45.01-1.48
				l-2.23,2.29l39.74,3.01c-4.1,8.49-5.07,18.3-1.97,24.59c1.66,3.37,4.43,5.5,7.75,6.03h25.1
				C865.88,1105.77,868.36,1103.9,869.58,1101.2z"/>
			<path class="st4" d="M776.7,1096.64l34.3,7.45c5.58,1.21,10.99-2.63,11.69-8.29l1.07-8.63c0.81-6.53-4.97-11.95-11.43-10.73
				l-29.21,5.51c-5.19,0.98-8.94,5.51-8.94,10.79v0.76C774.17,1095.02,775.22,1096.32,776.7,1096.64z"/>
			<path class="st1" d="M844.96,1061.79h-52.72c-2.21,0-4,1.79-4,4c0,2.02,1.4,3.69,3.32,4.02l11.63,2h41.77V1061.79z"/>
			<path class="st1" d="M860.34,1036.55l0.74,5.02c0,1.2,0.28,2.38,0.81,3.45l1.23,3.07h8.71l0.73-1.51l-0.47-8.54l-2.28-0.9
				L860.34,1036.55z"/>
			<polygon class="st9" points="873.03,1047.36 871.83,1048.09 869.82,1037.15 876.94,1038.27 872.56,1039.53 			"/>
			<path class="st3" d="M897.9,1108.6c0,1.97-1.6,3.57-3.57,3.57c-1.97,0-3.56-1.6-3.56-3.57c0-1.97,1.6-3.56,3.56-3.56
				C896.31,1105.04,897.9,1106.63,897.9,1108.6z"/>
		</g>
		<path class="st10" d="M911.14,1127.22c0,2.1-1.71,3.81-3.81,3.81H780.81c-2.11,0-3.81-1.71-3.81-3.81s1.71-3.81,3.81-3.81h126.53
			C909.44,1123.41,911.14,1125.12,911.14,1127.22L911.14,1127.22z"/>
	</g>
	<path class="st3" d="M861.8,1038.71c0.52,1.28-0.11,2.74-1.39,3.25c-1.28,0.51-2.74-0.11-3.25-1.39c-0.51-1.28,0.11-2.74,1.39-3.25
		C859.83,1036.81,861.28,1037.43,861.8,1038.71z"/>
</g>
<g>
	<g>
		<path class="st11" d="M25.21,116.81h2.73c0.14-1.83,0.28-3.65,0.4-5.47c1.4-20.59,1-41.2,0.42-61.84
			c-0.04-1.14-1.8-1.91-1.76-0.47c0.52,20.53-0.25,41.06-1.39,61.56C25.5,112.67,25.35,114.75,25.21,116.81z"/>
		<g>
			<path class="st12" d="M8.79,96.55c0.36,2.82,1.6,5.4,2.57,8c0.96,2.58,2.06,5.15,3.65,7.31c2.58,3.47,6.95,5.33,10.93,4.59
				c0.23-0.06,0.47-0.24,0.43-0.56c-0.02-0.33-0.06-0.66-0.1-0.99c0.02-0.02,0.05-0.05,0.08-0.1c0.06-0.04,0.1-0.09,0.15-0.14
				c0.23-0.12,0.03-0.53-0.19-0.44c-0.03,0.02-0.07,0.02-0.1,0.02c-0.02-0.13-0.04-0.27-0.05-0.4c0.09-0.26,0.19-0.6,0.12-0.98
				c-0.27-1.55-0.69-3.01-1.27-4.45c-0.68-1.63-1.34-3.29-2.12-4.87c-0.75-1.49-1.95-2.52-2.75-3.96c-0.14-0.26-0.63-0.48-0.61,0.02
				c0,0.35,0.05,0.68,0.1,1.01c-1.8-2.4-4.8-4.41-7.3-4.61c-0.4-0.04-0.5,0.58-0.34,0.9c0.08,0.13,0.12,0.26,0.17,0.39
				c-0.93-0.36-1.8-1.33-2.78-1.48C8.93,95.75,8.73,96.08,8.79,96.55z"/>
			<path class="st11" d="M12.85,100.14c1.82,1.97,3.5,4.04,5.35,5.99c2.96,3.15,5.78,6.37,7.93,10.24
				c-0.05,0.04-0.12,0.06-0.18,0.08c-3.98,0.74-8.35-1.12-10.93-4.59c-1.6-2.16-2.69-4.73-3.65-7.31c-0.97-2.59-2.21-5.18-2.57-8
				c-0.02-0.14,0-0.27,0.01-0.38C9.71,97.66,12.13,99.37,12.85,100.14z"/>
		</g>
		<g>
			<path class="st12" d="M48.72,75.79c-0.98-0.14-2.04,0.54-3.02,0.63c0.09-0.1,0.17-0.22,0.26-0.32c0.22-0.27,0.27-0.9-0.15-0.99
				c-2.46-0.5-5.79,0.6-8.05,2.41c0.12-0.32,0.24-0.63,0.31-0.95c0.12-0.48-0.41-0.41-0.59-0.19c-1.09,1.16-2.47,1.82-3.51,3.05
				c-1.11,1.3-2.1,2.72-3.11,4.12c-0.87,1.23-1.61,2.52-2.2,3.94c-0.14,0.34-0.12,0.7-0.1,0.97c-0.04,0.12-0.09,0.26-0.13,0.39
				c-0.02-0.01-0.05-0.03-0.1-0.05c-0.19-0.15-0.46,0.19-0.29,0.38c0.05,0.06,0.09,0.11,0.13,0.17c0,0.06,0.04,0.09,0.05,0.12
				c-0.11,0.31-0.22,0.61-0.31,0.93c-0.1,0.3,0.09,0.53,0.3,0.66c3.69,1.84,8.32,1.28,11.57-1.35c2.02-1.62,3.64-3.81,5.12-6.04
				c1.5-2.24,3.25-4.39,4.21-7.02C49.28,76.21,49.15,75.83,48.72,75.79z"/>
			<path class="st11" d="M44.42,78.96c-2.2,1.41-4.28,2.93-6.49,4.31c-3.53,2.19-6.95,4.53-9.88,7.66c0.04,0.05,0.11,0.09,0.16,0.13
				c3.69,1.84,8.32,1.28,11.57-1.35c2.02-1.62,3.64-3.81,5.12-6.04c1.5-2.24,3.25-4.39,4.21-7.02c0.05-0.13,0.06-0.26,0.05-0.38
				C47.99,77.46,45.27,78.42,44.42,78.96z"/>
		</g>
	</g>
	<g>
		<g>
			<path class="st13" d="M24.41,7.4c0.11,2.7,1.01,4.83,1.8,7.4c0.66,2.12,1.86,4.84,3.74,5.5c0.03,0.16,0.12,0.3,0.27,0.34
				c1.5,0.44,2.68-0.18,4.16-0.64c1.75-0.54,3.64-0.85,5.3-1.71c2.93-1.55,5.97-3.96,7.48-7.31c0.58-1.33,0.58-3.5-1.2-3.34
				c-1.52,0.13-2.2-0.21-3.57,0.48c-0.09-1.3,0.03-2.95-0.89-4.12c-1.22-1.54-3.34-1.41-4.99-2.39c-0.89-0.53-1.84,1-2.78,0.64
				c-0.97-0.37-1.93-2.1-2.94-1.96c-1.22,0.19-2.07,0.99-3.39,0.86c-0.48-0.05-2.44-0.02-2.83,0.4C23.46,2.73,24.36,5.88,24.41,7.4z
				"/>
			<path class="st13" d="M0,15.06c0.02,1.37,1.11,2.3,2.06,2.9c3.88,2.52,8.78,3.01,13.15,3.42c2.68,0.26,10.28,2.22,9.74-3.47
				c-0.23-2.35-1.12-4.43-1.89-6.58c-0.77-2.16-1.44-4.4-2.49-6.42c-0.79-2.17-2.09-4.89-3.13-3.1c-1.47-1.19-3.57-2.56-5.17-1.33
				c-1.01,0.8-1.54,1.92-1.19,3.32c0.07,0.29,1.16,3.48-0.48,2.6c-0.48-0.26-0.89-0.57-1.42-0.67C8.38,5.61,6.77,5.21,6.26,6.3
				C6.05,6.8,5.91,7.26,5.93,7.84c0,0.43,0.22,2.17-0.6,2.08c-0.4-0.06-0.83-0.13-1.25-0.19c-0.86-0.17-2.05,0.17-2.04,1.4
				c0,0.91,0.57,1.79,1.08,2.56C2.04,13.9-0.03,13.66,0,15.06z"/>
			<path class="st11" d="M17.78,30.88c0.09,0.46,0.25,0.9,0.42,1.3c-0.17-0.08-0.37,0-0.39,0.32c0,0.13,0,0.28-0.01,0.44
				c-0.02,0.06-0.03,0.14-0.03,0.23c0,0.35,0.01,0.68,0.04,1c0.09,2.35,0.51,4.7,0.8,6.98c0.33,2.37,0.54,4.86,1.54,6.97
				c1.4,2.95,3.7,5.3,6.6,5.11c2.82-0.18,7.38-0.96,8.06-5.49c0.71-4.77,0.19-9.62,1.01-14.37c0.1-0.15,0.17-0.3,0.27-0.46
				c0.09,0.07,0.2,0.07,0.24-0.11c0.06-0.22,0.12-0.42,0.18-0.64c0.1-0.31-0.27-0.82-0.52-0.55c-0.03,0.04-0.06,0.08-0.09,0.11
				c-0.03,0-0.08,0.01-0.1,0.08c-0.02,0.02-0.02,0.08-0.05,0.11c-0.83,1.06-1.57,2.25-2.08,3.6c-0.19-1.02-0.43-2.03-0.67-3.02
				c-0.13-0.51-0.6-0.93-0.95-0.44c-0.57,0.81-0.76,1.99-0.9,3.01c-0.11,0.75,0.09,1.96-0.44,1.1c-0.33-0.56-0.64-1.15-0.93-1.77
				c-0.87-1.88-1.89-3.69-3.35-4.85c-0.31-0.25-0.67,0.05-0.68,0.48c-0.05,1.45,0.37,2.74,0.64,4.1c0.22,1.09,0.17,2.19,0.18,3.25
				c-1.24-1.68-2.51-3.55-3.37-5.44c-0.3-0.68-1.16-0.72-1.06,0.26c0.13,1.24,0.45,2.39,0.8,3.55c-1.48-1.74-2.74-3.92-4.3-5.51
				C18.24,29.86,17.65,30.15,17.78,30.88z"/>
			<path class="st5" d="M21.89,26.21c2.18,1.77,4.7,2.4,7.26,2.05c1.96-0.26,4.04-0.48,5.45-2.13c0.32-0.18,0.59-0.4,0.72-0.52
				c1.49-1.37,1.53-3.57,0.6-5.49c-0.6-1.22-1.51-2.64-2.48-3.53c-1.23-1.13-2.4-1.22-3.92-1.29c-1.51-0.08-2.83-1.02-4.32-0.31
				c-0.7,0.31-1.36,0.64-2.12,0.64c-0.48,0.02-1.07-0.04-1.51,0.16C17.35,17.7,18.85,23.69,21.89,26.21z"/>
			<path class="st13" d="M33.9,25.68c0.32,3.36,2.09,5.61,4.61,7.21c2.64,1.66,5.91,3.44,9.02,3.18c1.82-0.14,2.26-1.27,1.7-2.72
				c0.96,0.14,1.94,0.26,2.91,0.24c0.67-0.02,1.75,0.07,2.37-0.3c1.2-0.7,0.92-1.98,0.53-3.24c-0.28-0.98-1.64-2.51-0.5-3.35
				c0.5-0.38,1.15-0.58,1.5-1.16c0.52-0.9-0.99-2.33-1.78-3.09c0.88-0.84,1.24-1.99,0.63-3.28c-0.7-1.44-2.66-1.57-3.91-1.51
				c-2.41,0.11-4.81,0.09-7.18,0.6c-1.06,0.23-2.17,0.44-3.21,0.8c-1,0.34-2.04,0.85-3.11,0.73c-0.21-0.02-0.14,0.25-0.01,0.37
				C35.33,20.95,33.62,22.62,33.9,25.68z"/>
			<path class="st13" d="M20.43,45.18c1.25,1.15,2.69-0.7,3.77-1.2c1.62-0.75,2.76,1.66,4.16,1c0.53-0.24,0.98-0.64,1.28-1.2
				c0.17-0.36,0.33-0.74,0.53-1.08c0.56-1.05,1.53-0.26,1.95,0.5c0.53,0.96,1.25,2.27,2.46,1.78c0.69-0.28,1.16-1.03,1.85-1.29
				c1.43-0.52,2.09,0.43,3.35,0.57c0.85,0.09,1.53-0.12,1.8-1.13c0.63-2.53-2.08-6.53-3.11-8.4c-1.07-1.94-2.28-3.74-3.8-5.23
				c-0.74-0.74-1.49-1.58-2.35-2.17c-2.1-1.85-4.89-3.32-7.11-1.99c-3.08,1.84-4.8,5.35-5.39,9.13
				C19.31,37.71,17.77,42.72,20.43,45.18z"/>
			<path class="st13" d="M1.81,25.47c0.36,0.74,0.82,1.53,1.35,2c0.98,0.92,0,1.92-0.39,2.94c-1.52,3.98,1.57,4.6,3.62,4.4
				c0.59-0.05,3.13-0.57,2.96,0.98c-0.09,0.77-0.34,1.84-0.18,2.62c0.31,1.36,0.98,2.11,2.04,2c0.71-0.08,1.33-0.77,1.97-1.12
				c1.14-0.6,0.56,1.33,0.55,2.18c-0.01,1.07,0.39,2.82,1.31,2.77c1.49-0.04,2.16-2.61,2.64-4.26c0.83-2.84,1.89-5.59,2.56-8.52
				c0.46-2,1.91-4.47,1.6-6.66c-0.23-1.48-1.41-2.17-2.34-2.35c-0.22-0.03-0.43-0.06-0.64-0.11c-0.86-0.38-1.79-0.46-2.68-0.68
				c-1.34-0.3-2.67-0.5-4.01-0.7c-2.14-0.3-4.3-0.22-6.41-0.66c-1.05-0.22-2.65-0.64-3.51,0.71C1.37,22.37,1.05,23.9,1.81,25.47z"/>
		</g>
	</g>
</g>
</svg>
