<?xml version="1.0" encoding="utf-8"?>
<!-- Generator: Adobe Illustrator 24.1.1, SVG Export Plug-In . SVG Version: 6.00 Build 0)  -->
<svg version="1.1" id="Layer_1" xmlns="http://www.w3.org/2000/svg" xmlns:xlink="http://www.w3.org/1999/xlink" x="0px" y="0px"
	 viewBox="0 0 117.97 109.75" style="enable-background:new 0 0 117.97 109.75;" xml:space="preserve">
<style type="text/css">
	.st0{fill:#362A2B;}
	.st1{fill:#28252B;}
	.st2{fill:#FEF0D6;}
	.st3{fill:#3C3C3B;}
	.st4{fill:#47C6BD;}
	.st5{fill:#FFBA00;}
	.st6{fill:#C6C6C6;}
	.st7{fill:#22B5AF;}
	.st8{fill:#14847C;}
	.st9{fill:#9D9D9C;}
	.st10{opacity:0.15;}
	.st11{fill:#FFDCAD;}
	.st12{fill:#D79054;}
	.st13{fill:#FCCA92;}
	.st14{fill:#FFF9DF;}
</style>
<g>
	<g>
		<g>
			<g>
				<path class="st0" d="M814.76,1106.19c-0.01,4.5,3.63,8.16,8.13,8.17c4.5,0.01,8.16-3.63,8.17-8.13c0.01-4.5-3.63-8.16-8.13-8.17
					C818.42,1098.04,814.77,1101.68,814.76,1106.19z"/>
				<path class="st1" d="M805.34,1106.18c-0.01,9.7,7.84,17.58,17.54,17.59c9.7,0.02,17.58-7.84,17.59-17.54
					c0.02-9.7-7.84-17.58-17.54-17.59C813.23,1088.63,805.36,1096.48,805.34,1106.18z M812.09,1106.19
					c0.01-5.97,4.86-10.8,10.83-10.8c5.97,0.01,10.81,4.86,10.8,10.83c-0.01,5.97-4.86,10.81-10.83,10.8
					C816.92,1117.01,812.08,1112.16,812.09,1106.19z"/>
				<g>
					<path class="st2" d="M812.13,1106.19c-0.01,5.95,4.81,10.79,10.76,10.8c5.95,0.01,10.79-4.81,10.8-10.76
						c0.01-5.95-4.81-10.79-10.76-10.8C816.97,1095.42,812.14,1100.23,812.13,1106.19z M813.29,1106.19
						c0.01-5.31,4.32-9.61,9.63-9.59c5.31,0.01,9.61,4.32,9.6,9.63c-0.01,5.31-4.32,9.61-9.63,9.6
						C817.58,1115.81,813.28,1111.5,813.29,1106.19z"/>
					<path class="st2" d="M816.3,1106.2c-0.01,3.65,2.95,6.61,6.6,6.62c3.65,0,6.61-2.95,6.62-6.6c0.01-3.65-2.95-6.61-6.59-6.62
						C819.27,1099.59,816.3,1102.55,816.3,1106.2z M818.75,1106.2c0-2.29,1.87-4.15,4.16-4.15c2.29,0,4.15,1.87,4.15,4.16
						c0,2.29-1.87,4.15-4.16,4.15C820.6,1110.35,818.75,1108.49,818.75,1106.2z"/>
					<g>
						<path class="st2" d="M818.75,1106.2c0,2.29,1.85,4.16,4.15,4.16c2.29,0,4.16-1.86,4.16-4.15c0-2.3-1.85-4.16-4.15-4.16
							C820.62,1102.05,818.76,1103.91,818.75,1106.2z M821.32,1104.61c-0.23,0.23-0.61,0.23-0.84,0c-0.23-0.23-0.23-0.61,0-0.84
							c0.23-0.23,0.61-0.23,0.84,0C821.55,1104.01,821.55,1104.38,821.32,1104.61z M823.26,1103.65c0,0.19-0.16,0.35-0.35,0.34
							c-0.19,0-0.35-0.16-0.35-0.35c0-0.19,0.16-0.35,0.35-0.34C823.1,1103.31,823.26,1103.46,823.26,1103.65z M825.34,1104.62
							c-0.23,0.23-0.61,0.23-0.84,0c-0.23-0.23-0.23-0.61,0-0.84c0.23-0.23,0.61-0.23,0.84,0
							C825.57,1104.01,825.57,1104.39,825.34,1104.62z M825.46,1106.56c-0.19,0-0.35-0.16-0.35-0.35c0-0.19,0.16-0.35,0.35-0.34
							c0.19,0,0.34,0.15,0.34,0.35C825.8,1106.4,825.65,1106.56,825.46,1106.56z M824.49,1107.8c0.23-0.23,0.61-0.23,0.84,0
							c0.23,0.23,0.23,0.61,0,0.84c-0.23,0.23-0.61,0.23-0.84,0C824.26,1108.41,824.26,1108.03,824.49,1107.8z M822.56,1108.76
							c0-0.19,0.15-0.34,0.35-0.34c0.19,0,0.35,0.16,0.35,0.35c0,0.19-0.16,0.35-0.35,0.34
							C822.71,1109.1,822.56,1108.95,822.56,1108.76z M821.33,1106.2c0-0.87,0.71-1.58,1.58-1.58c0.87,0,1.58,0.71,1.57,1.58
							c0,0.87-0.71,1.58-1.58,1.58C822.03,1107.78,821.33,1107.07,821.33,1106.2z M820.47,1107.79c0.23-0.23,0.61-0.23,0.84,0
							c0.23,0.23,0.23,0.61,0,0.84c-0.23,0.23-0.61,0.23-0.84,0C820.24,1108.4,820.24,1108.02,820.47,1107.79z M820.01,1106.2
							c0-0.19,0.16-0.35,0.35-0.35c0.19,0,0.35,0.16,0.35,0.35c0,0.19-0.16,0.35-0.35,0.34
							C820.16,1106.55,820.01,1106.39,820.01,1106.2z"/>
					</g>
					<path class="st2" d="M813.29,1106.19c-0.01,5.31,4.29,9.62,9.6,9.63c5.31,0.01,9.62-4.29,9.63-9.6
						c0.01-5.31-4.29-9.62-9.6-9.63C817.61,1096.58,813.3,1100.88,813.29,1106.19z M822.92,1099.6c3.65,0.01,6.6,2.97,6.59,6.62
						c-0.01,3.65-2.97,6.6-6.62,6.6c-3.65-0.01-6.6-2.97-6.6-6.62C816.3,1102.55,819.27,1099.59,822.92,1099.6z"/>
				</g>
			</g>
			<rect x="821.67" y="1093.35" class="st3" width="17.92" height="14.1"/>
			<circle class="st3" cx="822.91" cy="1106.21" r="5.47"/>
			<g>
				<path class="st1" d="M907.28,1106.18c-0.01,9.7,7.84,17.58,17.54,17.59c9.7,0.02,17.58-7.84,17.59-17.54
					c0.02-9.7-7.84-17.58-17.54-17.59C915.18,1088.63,907.3,1096.48,907.28,1106.18z M914.04,1106.19
					c0.01-5.97,4.86-10.8,10.83-10.8c5.97,0.01,10.81,4.86,10.8,10.83c-0.01,5.97-4.86,10.81-10.83,10.8
					C918.86,1117.01,914.03,1112.16,914.04,1106.19z"/>
				<g>
					<path class="st2" d="M914.07,1106.19c-0.01,5.95,4.81,10.79,10.76,10.8c5.95,0.01,10.79-4.81,10.8-10.76
						c0.01-5.95-4.81-10.79-10.76-10.8C918.91,1095.42,914.08,1100.23,914.07,1106.19z M915.24,1106.19
						c0.01-5.31,4.32-9.61,9.63-9.59c5.31,0.01,9.61,4.32,9.6,9.63c-0.01,5.31-4.32,9.61-9.63,9.6
						C919.53,1115.81,915.23,1111.5,915.24,1106.19z"/>
					<path class="st2" d="M918.24,1106.2c-0.01,3.65,2.95,6.61,6.6,6.62c3.65,0,6.61-2.95,6.62-6.6c0.01-3.65-2.95-6.61-6.59-6.62
						C921.21,1099.59,918.25,1102.55,918.24,1106.2z M920.7,1106.2c0-2.29,1.87-4.15,4.16-4.15c2.29,0,4.15,1.87,4.15,4.16
						c0,2.29-1.87,4.15-4.16,4.15C922.55,1110.35,920.69,1108.49,920.7,1106.2z"/>
					<g>
						<path class="st2" d="M920.7,1106.2c0,2.29,1.85,4.16,4.15,4.16c2.29,0,4.16-1.86,4.16-4.15c0-2.3-1.85-4.16-4.15-4.16
							C922.56,1102.05,920.7,1103.91,920.7,1106.2z M923.26,1104.61c-0.23,0.23-0.61,0.23-0.84,0c-0.23-0.23-0.23-0.61,0-0.84
							c0.23-0.23,0.61-0.23,0.84,0C923.5,1104.01,923.49,1104.38,923.26,1104.61z M925.2,1103.65c0,0.19-0.16,0.35-0.35,0.34
							c-0.19,0-0.35-0.16-0.35-0.35c0-0.19,0.16-0.35,0.35-0.34C925.05,1103.31,925.2,1103.46,925.2,1103.65z M927.28,1104.62
							c-0.23,0.23-0.61,0.23-0.84,0c-0.23-0.23-0.23-0.61,0-0.84c0.23-0.23,0.61-0.23,0.84,0
							C927.51,1104.01,927.51,1104.39,927.28,1104.62z M927.4,1106.56c-0.19,0-0.35-0.16-0.35-0.35c0-0.19,0.16-0.35,0.35-0.34
							c0.19,0,0.34,0.15,0.34,0.35C927.75,1106.4,927.59,1106.56,927.4,1106.56z M926.44,1107.8c0.23-0.23,0.61-0.23,0.84,0
							c0.23,0.23,0.23,0.61,0,0.84c-0.23,0.23-0.61,0.23-0.84,0C926.2,1108.41,926.21,1108.03,926.44,1107.8z M924.5,1108.76
							c0-0.19,0.15-0.34,0.35-0.34c0.19,0,0.35,0.16,0.35,0.35c0,0.19-0.16,0.35-0.35,0.34
							C924.65,1109.1,924.5,1108.95,924.5,1108.76z M923.27,1106.2c0-0.87,0.71-1.58,1.58-1.58c0.87,0,1.58,0.71,1.57,1.58
							c0,0.87-0.71,1.58-1.58,1.58C923.98,1107.78,923.27,1107.07,923.27,1106.2z M922.42,1107.79c0.23-0.23,0.61-0.23,0.84,0
							c0.23,0.23,0.23,0.61,0,0.84c-0.23,0.23-0.61,0.23-0.84,0C922.19,1108.4,922.19,1108.02,922.42,1107.79z M921.95,1106.2
							c0-0.19,0.16-0.35,0.35-0.35c0.19,0,0.35,0.16,0.35,0.35c0,0.19-0.16,0.35-0.35,0.34
							C922.11,1106.55,921.95,1106.39,921.95,1106.2z"/>
					</g>
					<path class="st2" d="M915.24,1106.19c-0.01,5.31,4.29,9.62,9.6,9.63c5.31,0.01,9.62-4.29,9.63-9.6
						c0.01-5.31-4.29-9.62-9.6-9.63C919.56,1096.58,915.25,1100.88,915.24,1106.19z M924.86,1099.6c3.65,0.01,6.6,2.97,6.59,6.62
						c-0.01,3.65-2.97,6.6-6.62,6.6c-3.65-0.01-6.6-2.97-6.6-6.62C918.25,1102.55,921.21,1099.59,924.86,1099.6z"/>
				</g>
			</g>
			<g>
				
					<rect x="917.26" y="1081.53" transform="matrix(0.9089 -0.417 0.417 0.9089 -372.6485 483.147)" class="st3" width="4.41" height="25.85"/>
			</g>
			<path class="st4" d="M906.06,1103.18c0.73,0.9,2.05,0.96,2.85,0.15c7.49-7.66,17.3-11.68,29.12-12.55
				c1.48-0.11,2.25-1.83,1.3-2.96c-5.46-6.49-13.7-9.78-24.39-10.24L906.06,1103.18z"/>
			<ellipse class="st5" cx="902.46" cy="1040.42" rx="1.96" ry="4.7"/>
			<rect x="812.07" y="1070.05" class="st4" width="22.91" height="12.12"/>
			<polygon class="st6" points="812.07,1081.71 809.66,1081.16 809.66,1070.6 812.07,1070.05 			"/>
			<path class="st7" d="M917.37,1066.42l-18.44-25.43l-6.02,2.64l7.8,22.24c2.63,7.51,2.28,15.74-0.98,22.99l-3.66,8.13
				c-0.71,1.58-2.29,2.6-4.02,2.6h-21.91c-9.09,0.03-9.22-18.22,0-30.18l-43.08-3.46l-14.93,15.35l1.17,16.74l23.35,10.55h54.2h5.09
				c4.07,0,7.87-2.04,10.12-5.42l11.7-17.57C921.65,1079.76,921.49,1072.11,917.37,1066.42z"/>
			<path class="st8" d="M900.09,1098.81l3.66-8.13c3.74-8.32,4.14-17.65,1.12-26.26l-5.25-14.98l-0.68-8.45l-6.02,2.64l7.8,22.24
				c2.63,7.51,2.28,15.74-0.98,22.99l-3.66,8.13c-0.71,1.58-2.29,2.6-4.02,2.6h-21.91c-9.09,0.03-9.22-18.22,0-30.18l-45.01-1.48
				l-2.23,2.29l39.74,3.01c-4.1,8.49-5.07,18.3-1.97,24.59c1.66,3.37,4.43,5.5,7.75,6.03h25.1
				C896.39,1103.38,898.87,1101.51,900.09,1098.81z"/>
			<path class="st4" d="M807.21,1094.24l34.3,7.45c5.58,1.21,10.99-2.63,11.69-8.29l1.07-8.63c0.81-6.53-4.97-11.95-11.43-10.73
				l-29.21,5.51c-5.19,0.98-8.94,5.51-8.94,10.79v0.76C804.68,1092.62,805.73,1093.92,807.21,1094.24z"/>
			<path class="st1" d="M875.47,1059.4h-52.72c-2.21,0-4,1.79-4,4c0,2.02,1.4,3.69,3.32,4.02l11.63,2h41.77V1059.4z"/>
			<path class="st1" d="M890.85,1034.15l0.74,5.02c0,1.2,0.28,2.38,0.81,3.45l1.23,3.07h8.71l0.73-1.51l-0.47-8.54l-2.28-0.9
				L890.85,1034.15z"/>
			<polygon class="st9" points="903.54,1044.96 902.34,1045.69 900.33,1034.75 907.45,1035.87 903.07,1037.13 			"/>
			<path class="st3" d="M928.41,1106.21c0,1.97-1.6,3.57-3.57,3.57c-1.97,0-3.56-1.6-3.56-3.57c0-1.97,1.6-3.56,3.56-3.56
				C926.82,1102.64,928.41,1104.24,928.41,1106.21z"/>
		</g>
		<path class="st10" d="M941.66,1124.83c0,2.11-1.71,3.81-3.81,3.81H811.32c-2.11,0-3.81-1.71-3.81-3.81c0-2.1,1.71-3.81,3.81-3.81
			h126.53C939.95,1121.02,941.66,1122.72,941.66,1124.83L941.66,1124.83z"/>
	</g>
	<path class="st3" d="M892.31,1036.32c0.52,1.28-0.11,2.74-1.39,3.25c-1.28,0.51-2.74-0.11-3.25-1.39
		c-0.51-1.28,0.11-2.74,1.39-3.25C890.34,1034.42,891.79,1035.04,892.31,1036.32z"/>
</g>
<g>
	<path class="st11" d="M116.53,65.51c-0.96-12.77-22.64-50.99-27.39-53.15c-4.05-1.84-6.47-1.9-8.92-0.22
		c-0.41,0.28-0.82,0.61-1.25,1.01c-2.85,2.6-3.02,4.4-3.02,4.42c-0.02,0.29-0.22,0.54-0.49,0.62c-0.27,0.09-0.57,0.01-0.76-0.21
		c-0.02-0.02-1.95-2.28-4.61-2.4c-2.51-0.12-6.58,0.49-9.13,2.62c-1.76,1.47-0.97,5.16-0.52,6.46c0.1,0.29,0,0.61-0.24,0.8
		c-0.25,0.2-0.58,0.19-0.83,0.02c-0.02-0.01-2.08-1.43-5.07-1.94c-2.18-0.38-6.47,0.55-9.6,2.7c-0.94,0.64-1.7,1.35-2.26,2.1
		c-2.06,2.74,0.82,9.32,2.11,11.63c0.19,0.33,0.06,0.74-0.25,0.95c-0.33,0.2-0.75,0.1-0.96-0.22c-0.2-0.3-19.66-29.76-27.06-36.63
		C13.23,1.24,9.5,0.62,6.77,2.5C4.32,4.19,2.43,8.38,5.19,14.61c5.03,11.33,38.91,56.9,39.25,57.36c0.12,0.16,0.17,0.37,0.12,0.57
		c-0.04,0.2-0.17,0.37-0.35,0.47c-0.42,0.23-10.33,5.49-23.41,1.83c-7.71-2.16-13.15,0.78-15.13,2.15
		c-3.52,2.42-5.14,5.86-3.77,7.99c2.29,3.57,14.38,6.81,33.16,8.89c4.85,0.54,9.16,3.5,13.71,6.64c7.49,5.16,15.23,10.49,26.74,6.37
		c6.17-2.21,12.2-5.33,17.93-9.27C107.71,87.78,117.2,74.58,116.53,65.51z"/>
	<path class="st12" d="M79.42,10.99c-0.46,0.32-0.92,0.69-1.4,1.13c-1.86,1.7-2.73,3.12-3.13,4.08c-0.96-0.82-2.64-1.93-4.74-2.03
		c-2.54-0.12-6.53,0.45-9.4,2.42c-0.24,0.17-0.48,0.34-0.7,0.53c-1.9,1.59-1.73,4.5-1.38,6.35c-0.99-0.48-2.42-1.04-4.14-1.33
		c-2.51-0.43-7.18,0.55-10.64,2.93c-1.06,0.73-1.93,1.54-2.59,2.41c-1.32,1.75-1.15,4.39-0.53,6.86
		C34.71,25.35,22.83,8.21,17.25,3.03c-3.56-3.3-7.98-3.97-11.28-1.7c-2.9,2-5.19,6.83-2.07,13.85c4.81,10.84,34.45,50.95,38.9,56.94
		c-2.5,1.12-11.06,4.31-21.61,1.36c-5.83-1.63-11.78-0.78-16.31,2.35c-4.23,2.91-5.98,7.08-4.16,9.92
		c3.28,5.11,20.41,8.01,34.19,9.53c4.5,0.5,8.66,3.36,13.07,6.4c7.42,5.11,15.83,10.9,28.02,6.53c6.28-2.25,12.43-5.43,18.25-9.44
		c14.9-10.26,24.42-23.67,23.69-33.36c-0.99-13.27-22.96-51.94-28.21-54.33C85.2,9.03,82.31,9,79.42,10.99z M75.51,106.88
		c-11.51,4.12-19.25-1.21-26.74-6.37c-4.56-3.14-8.86-6.1-13.71-6.64C16.28,91.79,4.2,88.55,1.9,84.98
		c-1.37-2.13,0.25-5.57,3.77-7.99c1.98-1.36,7.42-4.3,15.13-2.15c13.07,3.66,22.99-1.61,23.41-1.83c0.18-0.1,0.31-0.27,0.35-0.47
		c0.04-0.2,0-0.41-0.12-0.57C44.1,71.5,10.22,25.94,5.19,14.61C2.43,8.38,4.32,4.19,6.77,2.5c2.73-1.88,6.46-1.26,9.51,1.57
		c7.4,6.87,26.86,36.33,27.06,36.63c0.21,0.32,0.63,0.41,0.96,0.22c0.31-0.21,0.44-0.62,0.25-0.95c-1.28-2.31-4.17-8.9-2.11-11.63
		c0.56-0.75,1.33-1.46,2.26-2.1c3.12-2.15,7.41-3.08,9.6-2.7c2.99,0.51,5.05,1.93,5.07,1.94c0.25,0.18,0.58,0.18,0.83-0.02
		c0.24-0.18,0.34-0.51,0.24-0.8c-0.45-1.3-1.24-4.99,0.52-6.46c2.55-2.13,6.61-2.74,9.13-2.62c2.66,0.12,4.6,2.38,4.61,2.4
		c0.18,0.22,0.48,0.3,0.76,0.21c0.27-0.09,0.47-0.34,0.49-0.62c0-0.02,0.18-1.82,3.02-4.42c0.43-0.39,0.84-0.72,1.25-1.01
		c2.45-1.68,4.86-1.63,8.92,0.22c4.75,2.16,26.43,40.37,27.39,53.15c0.68,9.07-8.81,22.26-23.09,32.09
		C87.72,101.55,81.68,104.67,75.51,106.88z"/>
	<path class="st13" d="M27.05,36.12C19.11,25.67,10.3,15.4,6.34,2.89c0-0.02-0.01-0.03-0.01-0.05C4.1,4.71,2.59,8.76,5.19,14.61
		c4.79,10.78,35.7,52.57,38.97,56.98c0.36-0.65,0.61-1.39,0.74-2.12c0.91-5.28-1.99-10.39-4.9-14.89
		C35.91,48.27,31.59,42.11,27.05,36.12z"/>
	<path class="st13" d="M87.5,101.33c-1.05,0.31-2.12,0.56-3.21,0.7c-2.15,0.28-4.33,0.12-6.51,0.08
		c-6.01-0.12-12.37,0.53-17.73-2.19c-2.7-1.37-4.92-3.5-7.38-5.26c-7.2-5.19-16.21-7.17-25.03-8.09c-4.63-0.49-9.34-0.72-13.78-2.13
		c-3.7-1.18-7.26-3.31-9.48-6.44c-2.61,2.3-3.67,5.13-2.49,6.99c2.29,3.57,14.38,6.81,33.16,8.89c4.85,0.54,9.16,3.5,13.71,6.64
		c7.49,5.16,15.23,10.49,26.74,6.37C79.59,105.42,83.59,103.56,87.5,101.33z"/>
	<path class="st13" d="M47.6,24.69c-1.01,0.41-2,0.93-2.9,1.54c-0.94,0.64-1.7,1.35-2.26,2.1c-2.06,2.74,0.82,9.32,2.11,11.63
		c0.19,0.33,0.06,0.74-0.25,0.95C44.18,40.98,44.06,41,43.93,41c0.91,1.14,1.96,2.16,3.13,3.03c1.31-0.64,1.9-2.25,1.81-3.7
		c-0.08-1.46-0.69-2.82-1.19-4.19c-0.8-2.2-1.33-4.52-1.24-6.85C46.51,27.7,46.89,26.1,47.6,24.69z"/>
	<path class="st13" d="M63.35,24.14C62.85,22.48,62.6,20.69,63,19c0.22-0.95,0.68-1.86,1.32-2.59c-1.22,0.41-2.39,1-3.35,1.8
		c-1.76,1.47-0.97,5.16-0.52,6.46c0.09,0.25,0.02,0.52-0.16,0.71c0.79,1.27,1.8,2.41,2.98,3.33C64.42,27.58,63.82,25.68,63.35,24.14
		z"/>
	<path class="st13" d="M80.22,12.15c-0.41,0.28-0.82,0.61-1.25,1.01c-2.85,2.6-3.02,4.4-3.02,4.42c-0.02,0.25-0.17,0.46-0.39,0.57
		c0.67,1.41,1.75,2.63,3.11,3.4c0.28,0.16,0.61,0.3,0.93,0.23c0.54-0.13,0.74-0.79,0.79-1.35c0.2-2.18-0.29-4.38-0.06-6.55
		c0.08-0.72,0.27-1.46,0.57-2.13C80.67,11.86,80.45,12,80.22,12.15z"/>
	<path class="st13" d="M54.71,38.64c-0.43,0.02-0.79,0.23-1.01,0.7c-0.26,0.54-0.13,1.18,0.03,1.76c0.61,2.26,1.66,5.84,3.92,6.98
		c2.09,1.05,3.87-0.08,3.47-2.48c-0.13-0.8-0.27-1.61-0.58-2.37C60.12,42.19,56.63,38.55,54.71,38.64z"/>
	<path class="st13" d="M72.24,28.89c-0.33-0.03-0.61,0.09-0.82,0.42c-0.25,0.38-0.22,0.87-0.16,1.31c0.22,1.74,0.63,4.52,2.2,5.61
		c1.45,1,2.89,0.34,2.84-1.49c-0.02-0.61-0.04-1.23-0.19-1.82C75.9,32.09,73.68,29.03,72.24,28.89z"/>
	<path class="st13" d="M88.58,19.98c-0.27-0.03-0.52,0.08-0.7,0.35c-0.21,0.32-0.18,0.73-0.14,1.11c0.18,1.47,0.53,3.82,1.86,4.73
		c1.22,0.84,2.44,0.29,2.4-1.26c-0.01-0.52-0.03-1.04-0.16-1.54C91.67,22.68,89.8,20.09,88.58,19.98z"/>
	<path class="st14" d="M9.58,3.11c-0.37,0-0.38,0.57-0.03,0.63c3.13,0.62,5.65,2,7.5,4.64c0.86,1.23,1.77,2.82,3.46,2.57
		c0.25-0.04,0.36-0.33,0.16-0.51C17.17,7.28,14.91,3.15,9.58,3.11z"/>
	<path class="st14" d="M22.62,13.79c-0.37-0.41-0.7-0.86-1.01-1.31c-0.29-0.43-0.93,0.02-0.66,0.45c0.54,0.85,1.22,2.08,2.25,2.36
		c0.17,0.05,0.31-0.15,0.26-0.3C23.3,14.47,22.98,14.18,22.62,13.79z"/>
	<path class="st14" d="M15.92,76.31c-1.09-0.62-2.71-0.2-3.86,0.1c-1.33,0.35-2.7,1.04-3.59,2.11c-0.12,0.14,0.03,0.36,0.21,0.3
		c1.11-0.42,2.15-0.97,3.29-1.3c1.26-0.36,2.75-0.13,3.92-0.62C16.16,76.79,16.17,76.45,15.92,76.31z"/>
	<path class="st14" d="M96.1,26.42c-0.26-0.3-0.72,0-0.51,0.35c2.84,4.72,5.09,10.13,8.37,14.53c0.26,0.35,0.73,0.06,0.64-0.33
		C103.48,35.62,99.61,30.47,96.1,26.42z"/>
	<path class="st14" d="M106.97,45.27c-0.36-0.48-1.09,0.02-0.76,0.53c0.87,1.36,1.56,3.31,3.08,4.05c0.18,0.09,0.4-0.06,0.38-0.26
		C109.5,47.91,107.93,46.56,106.97,45.27z"/>
	<path class="st13" d="M92.48,96.22c-2.08-0.24-3.9,0.81-5.82,1.47c-2.99,1.03-5.93,1.88-9.09,1.2c-0.41-0.09-0.5,0.51-0.12,0.63
		c2.65,0.79,5.31,1.01,8.05,0.58c2.45-0.38,5.66-1.12,7.24-3.17C92.93,96.69,92.82,96.26,92.48,96.22z"/>
	<path class="st13" d="M92.13,92.07c-0.92,0.25-1.71,0.87-2.53,1.35c-1.1,0.65-2.37,1.18-3.61,1.5c-0.38,0.1-0.24,0.7,0.14,0.67
		c2.21-0.2,5.38-0.75,6.56-2.89C92.9,92.32,92.48,91.98,92.13,92.07z"/>
	<path class="st13" d="M45.93,56.69c-0.46-0.57-1.39,0.05-0.95,0.65c1.14,1.55,2.03,3.18,2.74,4.97c0.64,1.62,0.81,3.42,1.65,4.94
		c0.17,0.3,0.59,0.14,0.66-0.14C50.85,63.6,48.03,59.28,45.93,56.69z"/>
	<path class="st13" d="M51.85,64.16c0.04,1.44,0.04,3.22,0.63,4.56c0.1,0.23,0.49,0.26,0.53-0.04c0.19-1.47-0.31-3.19-0.69-4.62
		C52.25,63.79,51.85,63.9,51.85,64.16z"/>
	<path class="st13" d="M62.29,43.31c0.31,1.49,0.38,3.38,1.25,4.66c0.13,0.19,0.44,0.13,0.48-0.1c0.25-1.56-0.51-3.34-0.88-4.85
		C63.01,42.44,62.17,42.76,62.29,43.31z"/>
	<path class="st13" d="M63.73,40.45c0.03,0.79,0.18,1.81,0.87,2.31c0.17,0.12,0.44,0.02,0.42-0.21c-0.07-0.74-0.43-1.4-0.47-2.16
		C64.52,39.86,63.71,39.93,63.73,40.45z"/>
	<path class="st13" d="M78.19,33.96c0.09,0.67,0.2,1.33,0.26,2c0.06,0.65-0.03,1.44,0.22,2.05c0.08,0.19,0.25,0.38,0.47,0.4
		c0.05,0,0.09,0.01,0.14,0.01c0.34,0.03,0.66-0.2,0.64-0.57c-0.01-0.1-0.03-0.17-0.07-0.24c-0.52-1.16-0.72-2.57-0.99-3.8
		C78.77,33.44,78.14,33.58,78.19,33.96z"/>
	<path class="st13" d="M79,30.11c-0.21,1.02-0.19,2.16,0.74,2.83c0.23,0.17,0.58,0.02,0.56-0.29c-0.06-0.85-0.44-1.65-0.49-2.49
		C79.78,29.68,79.09,29.66,79,30.11z"/>
	<path class="st13" d="M89.13,28.14c-0.48-0.58-0.93-1.26-1.52-1.73c-0.33-0.26-0.79,0.06-0.67,0.46c0.23,0.72,0.71,1.38,1.07,2.04
		c0.33,0.59,0.62,1.19,1.36,1.2c0.15,0,0.33-0.12,0.39-0.27C90.02,29.15,89.56,28.66,89.13,28.14z"/>
</g>
</svg>
