<?xml version="1.0" encoding="utf-8"?>
<!-- Generator: Adobe Illustrator 24.1.1, SVG Export Plug-In . SVG Version: 6.00 Build 0)  -->
<svg version="1.1" id="Layer_1" xmlns="http://www.w3.org/2000/svg" xmlns:xlink="http://www.w3.org/1999/xlink" x="0px" y="0px"
	 viewBox="0 0 87.24 88.55" style="enable-background:new 0 0 87.24 88.55;" xml:space="preserve">
<style type="text/css">
	.st0{fill:#362A2B;}
	.st1{fill:#28252B;}
	.st2{fill:#FEF0D6;}
	.st3{fill:#3C3C3B;}
	.st4{fill:#47C6BD;}
	.st5{fill:#FFBA00;}
	.st6{fill:#C6C6C6;}
	.st7{fill:#22B5AF;}
	.st8{fill:#14847C;}
	.st9{fill:#9D9D9C;}
	.st10{opacity:0.15;}
	.st11{fill:#FBD13B;}
</style>
<g>
	<g>
		<g>
			<g>
				<path class="st0" d="M801.28,1094.65c-0.01,4.5,3.63,8.16,8.13,8.17c4.5,0.01,8.16-3.63,8.17-8.13c0.01-4.5-3.63-8.16-8.13-8.17
					C804.95,1086.51,801.29,1090.15,801.28,1094.65z"/>
				<path class="st1" d="M791.86,1094.64c-0.01,9.7,7.84,17.58,17.54,17.59c9.7,0.02,17.58-7.84,17.59-17.54
					c0.02-9.7-7.84-17.58-17.54-17.59C799.76,1077.09,791.88,1084.94,791.86,1094.64z M798.62,1094.65
					c0.01-5.97,4.86-10.8,10.83-10.8c5.97,0.01,10.81,4.86,10.8,10.83c-0.01,5.97-4.86,10.81-10.83,10.8
					C803.44,1105.47,798.61,1100.62,798.62,1094.65z"/>
				<g>
					<path class="st2" d="M798.65,1094.65c-0.01,5.95,4.81,10.79,10.76,10.8c5.95,0.01,10.79-4.81,10.8-10.76
						c0.01-5.95-4.81-10.79-10.76-10.8C803.49,1083.88,798.66,1088.7,798.65,1094.65z M799.82,1094.65
						c0.01-5.31,4.32-9.61,9.63-9.59c5.31,0.01,9.61,4.32,9.6,9.63c-0.01,5.31-4.32,9.61-9.63,9.6
						C804.1,1104.27,799.81,1099.96,799.82,1094.65z"/>
					<path class="st2" d="M802.82,1094.66c-0.01,3.65,2.95,6.61,6.6,6.62c3.65,0,6.61-2.95,6.62-6.6c0.01-3.65-2.95-6.61-6.59-6.62
						C805.79,1088.06,802.83,1091.01,802.82,1094.66z M805.28,1094.66c0-2.29,1.87-4.15,4.16-4.15c2.29,0,4.15,1.87,4.15,4.16
						c0,2.29-1.87,4.15-4.16,4.15C807.13,1098.82,805.27,1096.96,805.28,1094.66z"/>
					<g>
						<path class="st2" d="M805.28,1094.66c0,2.29,1.85,4.16,4.15,4.16c2.29,0,4.16-1.86,4.16-4.15c0-2.3-1.85-4.16-4.15-4.16
							C807.14,1090.51,805.28,1092.37,805.28,1094.66z M807.84,1093.08c-0.23,0.23-0.61,0.23-0.84,0c-0.23-0.23-0.23-0.61,0-0.84
							c0.23-0.23,0.61-0.23,0.84,0C808.08,1092.47,808.07,1092.84,807.84,1093.08z M809.78,1092.12c0,0.19-0.16,0.35-0.35,0.34
							c-0.19,0-0.35-0.16-0.35-0.35c0-0.19,0.16-0.35,0.35-0.34C809.63,1091.77,809.78,1091.93,809.78,1092.12z M811.86,1093.08
							c-0.23,0.23-0.61,0.23-0.84,0c-0.23-0.23-0.23-0.61,0-0.84c0.23-0.23,0.61-0.23,0.84,0
							C812.09,1092.47,812.09,1092.85,811.86,1093.08z M811.98,1095.02c-0.19,0-0.35-0.16-0.35-0.35c0-0.19,0.16-0.35,0.35-0.34
							c0.19,0,0.34,0.15,0.34,0.35C812.33,1094.86,812.17,1095.02,811.98,1095.02z M811.02,1096.26c0.23-0.23,0.61-0.23,0.84,0
							c0.23,0.23,0.23,0.61,0,0.84c-0.23,0.23-0.61,0.23-0.84,0C810.78,1096.87,810.78,1096.49,811.02,1096.26z M809.08,1097.22
							c0-0.19,0.15-0.34,0.35-0.34c0.19,0,0.35,0.16,0.35,0.35c0,0.19-0.16,0.35-0.35,0.34
							C809.23,1097.57,809.08,1097.41,809.08,1097.22z M807.85,1094.67c0-0.87,0.71-1.58,1.58-1.58c0.87,0,1.58,0.71,1.57,1.58
							c0,0.87-0.71,1.58-1.58,1.58C808.56,1096.24,807.85,1095.54,807.85,1094.67z M807,1096.25c0.23-0.23,0.61-0.23,0.84,0
							c0.23,0.23,0.23,0.61,0,0.84c-0.23,0.23-0.61,0.23-0.84,0C806.77,1096.86,806.77,1096.48,807,1096.25z M806.53,1094.66
							c0-0.19,0.16-0.35,0.35-0.35c0.19,0,0.35,0.16,0.35,0.35c0,0.19-0.16,0.35-0.35,0.34
							C806.69,1095.01,806.53,1094.86,806.53,1094.66z"/>
					</g>
					<path class="st2" d="M799.82,1094.65c-0.01,5.31,4.29,9.62,9.6,9.63c5.31,0.01,9.62-4.29,9.63-9.6
						c0.01-5.31-4.29-9.62-9.6-9.63C804.14,1085.05,799.83,1089.34,799.82,1094.65z M809.44,1088.06c3.65,0.01,6.6,2.97,6.59,6.62
						c-0.01,3.65-2.97,6.6-6.62,6.6c-3.65-0.01-6.6-2.97-6.6-6.62C802.83,1091.01,805.79,1088.06,809.44,1088.06z"/>
				</g>
			</g>
			<rect x="808.19" y="1081.82" class="st3" width="17.92" height="14.1"/>
			<circle class="st3" cx="809.43" cy="1094.67" r="5.47"/>
			<g>
				<path class="st1" d="M893.81,1094.64c-0.01,9.7,7.84,17.58,17.54,17.59c9.7,0.02,17.58-7.84,17.59-17.54
					c0.02-9.7-7.84-17.58-17.54-17.59C901.7,1077.09,893.82,1084.94,893.81,1094.64z M900.56,1094.65
					c0.01-5.97,4.86-10.8,10.83-10.8c5.97,0.01,10.81,4.86,10.8,10.83c-0.01,5.97-4.86,10.81-10.83,10.8
					C905.38,1105.47,900.55,1100.62,900.56,1094.65z"/>
				<g>
					<path class="st2" d="M900.59,1094.65c-0.01,5.95,4.81,10.79,10.76,10.8s10.79-4.81,10.8-10.76c0.01-5.95-4.81-10.79-10.76-10.8
						C905.44,1083.88,900.6,1088.7,900.59,1094.65z M901.76,1094.65c0.01-5.31,4.32-9.61,9.63-9.59c5.31,0.01,9.61,4.32,9.6,9.63
						c-0.01,5.31-4.32,9.61-9.63,9.6C906.05,1104.27,901.75,1099.96,901.76,1094.65z"/>
					<path class="st2" d="M904.77,1094.66c-0.01,3.65,2.95,6.61,6.6,6.62c3.65,0,6.61-2.95,6.62-6.6c0.01-3.65-2.95-6.61-6.59-6.62
						C907.74,1088.06,904.77,1091.01,904.77,1094.66z M907.22,1094.66c0-2.29,1.87-4.15,4.16-4.15c2.29,0,4.15,1.87,4.15,4.16
						c0,2.29-1.87,4.15-4.16,4.15C909.07,1098.82,907.22,1096.96,907.22,1094.66z"/>
					<g>
						<path class="st2" d="M907.22,1094.66c0,2.29,1.85,4.16,4.15,4.16c2.29,0,4.16-1.86,4.16-4.15c0-2.3-1.85-4.16-4.15-4.16
							C909.09,1090.51,907.22,1092.37,907.22,1094.66z M909.79,1093.08c-0.23,0.23-0.61,0.23-0.84,0c-0.23-0.23-0.23-0.61,0-0.84
							c0.23-0.23,0.61-0.23,0.84,0C910.02,1092.47,910.02,1092.84,909.79,1093.08z M911.72,1092.12c0,0.19-0.16,0.35-0.35,0.34
							c-0.19,0-0.35-0.16-0.35-0.35c0-0.19,0.16-0.35,0.35-0.34C911.57,1091.77,911.73,1091.93,911.72,1092.12z M913.81,1093.08
							c-0.23,0.23-0.61,0.23-0.84,0c-0.23-0.23-0.23-0.61,0-0.84c0.23-0.23,0.61-0.23,0.84,0
							C914.04,1092.47,914.04,1092.85,913.81,1093.08z M913.93,1095.02c-0.19,0-0.35-0.16-0.35-0.35c0-0.19,0.16-0.35,0.35-0.34
							c0.19,0,0.34,0.15,0.34,0.35C914.27,1094.86,914.12,1095.02,913.93,1095.02z M912.96,1096.26c0.23-0.23,0.61-0.23,0.84,0
							c0.23,0.23,0.23,0.61,0,0.84c-0.23,0.23-0.61,0.23-0.84,0C912.73,1096.87,912.73,1096.49,912.96,1096.26z M911.02,1097.22
							c0-0.19,0.15-0.34,0.35-0.34c0.19,0,0.35,0.16,0.35,0.35c0,0.19-0.16,0.35-0.35,0.34
							C911.18,1097.57,911.02,1097.41,911.02,1097.22z M909.8,1094.67c0-0.87,0.71-1.58,1.58-1.58c0.87,0,1.58,0.71,1.57,1.58
							c0,0.87-0.71,1.58-1.58,1.58C910.5,1096.24,909.8,1095.54,909.8,1094.67z M908.94,1096.25c0.23-0.23,0.61-0.23,0.84,0
							c0.23,0.23,0.23,0.61,0,0.84c-0.23,0.23-0.61,0.23-0.84,0C908.71,1096.86,908.71,1096.48,908.94,1096.25z M908.48,1094.66
							c0-0.19,0.16-0.35,0.35-0.35c0.19,0,0.35,0.16,0.35,0.35c0,0.19-0.16,0.35-0.35,0.34
							C908.63,1095.01,908.48,1094.86,908.48,1094.66z"/>
					</g>
					<path class="st2" d="M901.76,1094.65c-0.01,5.31,4.29,9.62,9.6,9.63c5.31,0.01,9.62-4.29,9.63-9.6
						c0.01-5.31-4.29-9.62-9.6-9.63C906.08,1085.05,901.77,1089.34,901.76,1094.65z M911.39,1088.06c3.65,0.01,6.6,2.97,6.59,6.62
						c-0.01,3.65-2.97,6.6-6.62,6.6c-3.65-0.01-6.6-2.97-6.6-6.62C904.77,1091.01,907.74,1088.06,911.39,1088.06z"/>
				</g>
			</g>
			<g>
				
					<rect x="903.78" y="1070" transform="matrix(0.9089 -0.417 0.417 0.9089 -369.0646 476.476)" class="st3" width="4.41" height="25.85"/>
			</g>
			<path class="st4" d="M892.58,1091.64c0.73,0.9,2.05,0.96,2.85,0.15c7.49-7.66,17.3-11.68,29.12-12.55
				c1.48-0.11,2.25-1.83,1.3-2.96c-5.46-6.49-13.7-9.78-24.39-10.24L892.58,1091.64z"/>
			<ellipse class="st5" cx="888.99" cy="1028.88" rx="1.96" ry="4.7"/>
			<rect x="798.6" y="1058.51" class="st4" width="22.91" height="12.12"/>
			<polygon class="st6" points="798.6,1070.18 796.19,1069.62 796.19,1059.07 798.6,1058.51 			"/>
			<path class="st7" d="M903.89,1054.88l-18.44-25.43l-6.02,2.64l7.8,22.24c2.63,7.51,2.28,15.74-0.98,22.99l-3.66,8.13
				c-0.71,1.58-2.29,2.6-4.02,2.6h-21.91c-9.09,0.03-9.22-18.22,0-30.18l-43.08-3.46l-14.93,15.35l1.17,16.74l23.35,10.55h54.2h5.09
				c4.07,0,7.87-2.04,10.12-5.42l11.7-17.57C908.17,1068.22,908.02,1060.57,903.89,1054.88z"/>
			<path class="st8" d="M886.61,1087.27l3.66-8.13c3.74-8.32,4.14-17.65,1.12-26.26l-5.25-14.98l-0.68-8.45l-6.02,2.64l7.8,22.24
				c2.63,7.51,2.28,15.74-0.98,22.99l-3.66,8.13c-0.71,1.58-2.29,2.6-4.02,2.6h-21.91c-9.09,0.03-9.22-18.22,0-30.18l-45.01-1.48
				l-2.23,2.29l39.74,3.01c-4.1,8.49-5.07,18.3-1.97,24.59c1.66,3.37,4.43,5.5,7.75,6.03h25.1
				C882.91,1091.84,885.4,1089.97,886.61,1087.27z"/>
			<path class="st4" d="M793.73,1082.71l34.3,7.45c5.58,1.21,10.99-2.63,11.69-8.29l1.07-8.63c0.81-6.53-4.97-11.95-11.43-10.73
				l-29.21,5.51c-5.19,0.98-8.94,5.51-8.94,10.79v0.76C791.2,1081.08,792.26,1082.39,793.73,1082.71z"/>
			<path class="st1" d="M862,1047.86h-52.72c-2.21,0-4,1.79-4,4c0,2.02,1.4,3.69,3.32,4.02l11.63,2H862V1047.86z"/>
			<path class="st1" d="M877.37,1022.61l0.74,5.02c0,1.2,0.28,2.38,0.81,3.45l1.23,3.07h8.71l0.73-1.51l-0.47-8.54l-2.28-0.9
				L877.37,1022.61z"/>
			<polygon class="st9" points="890.07,1033.42 888.87,1034.15 886.85,1023.21 893.98,1024.33 889.59,1025.59 			"/>
			<path class="st3" d="M914.94,1094.67c0,1.97-1.6,3.57-3.57,3.57c-1.97,0-3.56-1.6-3.56-3.57c0-1.97,1.6-3.56,3.56-3.56
				C913.34,1091.1,914.94,1092.7,914.94,1094.67z"/>
		</g>
		<path class="st10" d="M928.18,1113.29c0,2.1-1.71,3.81-3.81,3.81H797.84c-2.11,0-3.81-1.71-3.81-3.81c0-2.11,1.71-3.81,3.81-3.81
			h126.53C926.47,1109.48,928.18,1111.18,928.18,1113.29L928.18,1113.29z"/>
	</g>
	<path class="st3" d="M878.83,1024.78c0.52,1.28-0.11,2.74-1.39,3.25c-1.28,0.52-2.74-0.1-3.25-1.39c-0.51-1.28,0.11-2.74,1.39-3.25
		C876.86,1022.88,878.32,1023.5,878.83,1024.78z"/>
</g>
<g>
	<g>
		<path class="st11" d="M68.37,21.4c-3.84-6.62-10.98-11.08-19.18-11.08c-8.2,0-15.35,4.46-19.18,11.08c0,0,4.12,1.87,18.27,1.87
			S68.37,21.4,68.37,21.4z"/>
		<path class="st2" d="M68.59,86.46c-0.29,0.7-9.56,2.08-18.97,2.09c-9.11,0.01-18.36-1.31-18.82-2.09
			c-0.94-1.59,1.37-1.51,1.44-4.11c0.07-2.6,34.19-2.74,34.11,0C66.29,85.09,69.17,85.09,68.59,86.46z"/>
		<path class="st2" d="M80.67,46.69c-2.08,0.8-2.17,3.68,0.09,4.77c-0.49,0.55-1.45,0.91-2.53,0.13c-2.24-1.63-1.07-4.49,3.03-8.5
			c10.36-10.13,6.33-23.77-5.06-22.79c-4.3,0.37-7.9,3.52-8.25,4.06c0.22-1.04,0.41-1.77,0.47-2.01c0-0.01,0-0.01,0-0.02
			c0.01-0.03,0.01-0.05,0.02-0.06c0,0,0-0.01,0-0.01s-5.09,2.37-17.89,2.37c-12.8,0-20.19-2.37-20.19-2.37s2.38,11.5,0,17.72
			c-0.33,0.87-0.77,1.75-1.26,2.63c-7.33,2.73-8.11-1.55-10.57-6.15c-2.49-4.65-12.98-7.46-15.36-7.79
			c-4.2,0.51-3.03,5.41-3.03,5.41s7.46,0.32,9.95,4.87c2.49,4.54-1.19,8.55,2.16,15.25c2.26,4.52,6.53,6.11,8.44,6.61
			c0,0.03,0,0.07,0,0.1c0,9.23,4.58,17.4,11.64,22.5c0,0,2.19,2.97,17.5,2.97s16.62-2.97,16.62-2.97
			c7.06-5.1,11.64-13.28,11.64-22.5c0-0.28-0.01-0.55-0.02-0.82c0-0.08-0.01-0.17-0.02-0.25c-0.01-0.19-0.03-0.37-0.04-0.56
			c-0.01-0.09-0.02-0.18-0.03-0.28c-0.02-0.18-0.04-0.35-0.07-0.53c-0.01-0.09-0.03-0.18-0.04-0.27c-0.03-0.18-0.06-0.35-0.09-0.53
			c-0.02-0.08-0.04-0.17-0.05-0.25c-0.04-0.18-0.08-0.36-0.12-0.55c-0.02-0.07-0.04-0.15-0.06-0.22c-0.05-0.19-0.1-0.39-0.16-0.58
			c-0.02-0.06-0.03-0.12-0.05-0.17c-0.06-0.22-0.13-0.43-0.2-0.64c-0.01-0.03-0.02-0.07-0.03-0.1c-0.08-0.25-0.17-0.49-0.27-0.74
			c2.34,1.39,4.87,0.66,6.25-0.87c0.01-0.01,0.01-0.02,0.02-0.02C85.34,51.2,84.73,45.13,80.67,46.69z M67.71,38.16
			c-0.68-5.84,1.01-8.41,3.68-10.69c3.95-3.37,8-2.68,9.27-0.83c2.13,3.1,1.74,7.01-1.18,11.97c-0.64,1.09-1.41,2.18-2.15,3.24
			c-1.45,2.07-3.09,4.41-3.5,6.71c0,0,0,0,0,0C72.13,48.28,68.44,44.45,67.71,38.16z"/>
		<path class="st11" d="M78.07,59.85c-0.01-0.19-0.03-0.37-0.04-0.56c-0.01-0.09-0.02-0.18-0.03-0.28
			c-0.02-0.18-0.04-0.35-0.07-0.53c-0.01-0.09-0.03-0.18-0.04-0.27c-0.03-0.18-0.06-0.35-0.09-0.53c-0.02-0.08-0.04-0.17-0.05-0.25
			c-0.04-0.18-0.08-0.36-0.12-0.55c-0.02-0.07-0.04-0.15-0.06-0.22c-0.05-0.19-0.1-0.39-0.16-0.58c-0.02-0.06-0.03-0.12-0.05-0.17
			c0-0.02-0.01-0.03-0.02-0.05c-0.3,0.24,0.75,20.69-23.35,24.7c-14.22,2.37-20.89-1.21-25.23-5.15c-5.7-5.19-6.58-10.97-8.04-13.55
			c0.3,8.84,4.81,16.63,11.63,21.55c0,0,5.4,3.07,18.45,2.96c13.05-0.11,15.67-2.96,15.67-2.96c7.06-5.1,11.64-13.28,11.64-22.5
			c0-0.28-0.01-0.55-0.02-0.82C78.09,60.02,78.08,59.94,78.07,59.85z"/>
		<path class="st11" d="M68.87,21.74c0,0.43-0.35,0.78-0.78,0.78c0,0-5.97,2.11-18.89,2.11c-12.92,0-18.79-2.11-18.79-2.11
			c-0.43,0-0.78-0.35-0.78-0.78l0,0c0-0.43,0.35-0.78,0.78-0.78c0,0,9.89,1.84,18.84,1.84s18.84-1.84,18.84-1.84
			C68.52,20.95,68.87,21.3,68.87,21.74L68.87,21.74z"/>
		<path class="st11" d="M2.86,29.4c0,0-1.48,0.49-1.94,1.7c-0.46,1.22,0,2.24,0,2.24S2,32.97,2.58,31.8
			C3.28,30.4,2.86,29.4,2.86,29.4z"/>
		<path class="st11" d="M51.4,11.67c1.14-0.15,2.11-0.93,2.11-0.93s-1.5-0.52-1.8-2.93c-0.01-0.11-0.03-0.22-0.05-0.32
			c1.17-0.71,1.95-1.99,1.95-3.45c0-2.23-1.81-4.04-4.04-4.04c-2.23,0-4.04,1.81-4.04,4.04c0,1.34,0.66,2.52,1.66,3.26
			c0,0.05,0,0.1,0,0.16c0.09,2.49-1.77,3.28-1.77,3.28s0.64,0.85,1.2,0.93"/>
	</g>
</g>
</svg>
