<?xml version="1.0" encoding="utf-8"?>
<!-- Generator: Adobe Illustrator 24.1.1, SVG Export Plug-In . SVG Version: 6.00 Build 0)  -->
<svg version="1.1" id="Layer_1" xmlns="http://www.w3.org/2000/svg" xmlns:xlink="http://www.w3.org/1999/xlink" x="0px" y="0px"
	 viewBox="0 0 120.76 122.57" style="enable-background:new 0 0 120.76 122.57;" xml:space="preserve">
<style type="text/css">
	.st0{fill:#362A2B;}
	.st1{fill:#28252B;}
	.st2{fill:#FEF0D6;}
	.st3{fill:#3C3C3B;}
	.st4{fill:#47C6BD;}
	.st5{fill:#FFBA00;}
	.st6{fill:#C6C6C6;}
	.st7{fill:#22B5AF;}
	.st8{fill:#14847C;}
	.st9{fill:#9D9D9C;}
	.st10{opacity:0.15;}
	.st11{fill:#FBD13B;}
</style>
<g>
	<g>
		<g>
			<g>
				<path class="st0" d="M818.69,1111.66c-0.01,4.5,3.63,8.16,8.13,8.17c4.5,0.01,8.16-3.63,8.17-8.13c0.01-4.5-3.63-8.16-8.13-8.17
					C822.36,1103.52,818.7,1107.16,818.69,1111.66z"/>
				<path class="st1" d="M809.27,1111.65c-0.01,9.7,7.84,17.58,17.54,17.59c9.7,0.02,17.58-7.84,17.59-17.54
					c0.02-9.7-7.84-17.58-17.54-17.59C817.16,1094.1,809.29,1101.95,809.27,1111.65z M816.02,1111.66
					c0.01-5.97,4.86-10.8,10.83-10.8c5.97,0.01,10.81,4.86,10.8,10.83c-0.01,5.97-4.86,10.81-10.83,10.8
					C820.85,1122.49,816.01,1117.64,816.02,1111.66z"/>
				<g>
					<path class="st2" d="M816.06,1111.66c-0.01,5.95,4.81,10.79,10.76,10.8c5.95,0.01,10.79-4.81,10.8-10.76
						c0.01-5.95-4.81-10.79-10.76-10.8C820.9,1100.89,816.07,1105.71,816.06,1111.66z M817.22,1111.66
						c0.01-5.31,4.32-9.61,9.63-9.59c5.31,0.01,9.61,4.32,9.6,9.63c-0.01,5.31-4.32,9.61-9.63,9.6
						C821.51,1121.29,817.21,1116.97,817.22,1111.66z"/>
					<path class="st2" d="M820.23,1111.67c-0.01,3.65,2.95,6.61,6.6,6.62c3.65,0,6.61-2.95,6.62-6.6c0.01-3.65-2.95-6.61-6.59-6.62
						C823.2,1105.07,820.23,1108.02,820.23,1111.67z M822.68,1111.68c0-2.29,1.87-4.15,4.16-4.15c2.29,0,4.15,1.87,4.15,4.16
						c0,2.29-1.87,4.15-4.16,4.15C824.54,1115.83,822.68,1113.97,822.68,1111.68z"/>
					<g>
						<path class="st2" d="M822.68,1111.68c0,2.29,1.85,4.16,4.15,4.16c2.29,0,4.16-1.86,4.16-4.15c0-2.3-1.85-4.16-4.15-4.16
							C824.55,1107.53,822.69,1109.38,822.68,1111.68z M825.25,1110.09c-0.23,0.23-0.61,0.23-0.84,0c-0.23-0.23-0.23-0.61,0-0.84
							c0.23-0.23,0.61-0.23,0.84,0C825.48,1109.48,825.48,1109.86,825.25,1110.09z M827.19,1109.13c0,0.19-0.16,0.35-0.35,0.34
							c-0.19,0-0.35-0.16-0.35-0.35c0-0.19,0.16-0.35,0.35-0.34C827.03,1108.78,827.19,1108.94,827.19,1109.13z M829.27,1110.1
							c-0.23,0.23-0.61,0.23-0.84,0c-0.23-0.23-0.23-0.61,0-0.84c0.23-0.23,0.61-0.23,0.84,0
							C829.5,1109.49,829.5,1109.86,829.27,1110.1z M829.39,1112.03c-0.19,0-0.35-0.16-0.35-0.35c0-0.19,0.16-0.35,0.35-0.34
							c0.19,0,0.34,0.15,0.34,0.35C829.73,1111.88,829.58,1112.03,829.39,1112.03z M828.42,1113.28c0.23-0.23,0.61-0.23,0.84,0
							c0.23,0.23,0.23,0.61,0,0.84c-0.23,0.23-0.61,0.23-0.84,0C828.19,1113.88,828.19,1113.51,828.42,1113.28z M826.49,1114.23
							c0-0.19,0.15-0.34,0.35-0.34c0.19,0,0.35,0.16,0.35,0.35c0,0.19-0.16,0.35-0.35,0.34
							C826.64,1114.58,826.49,1114.43,826.49,1114.23z M825.26,1111.68c0-0.87,0.71-1.58,1.58-1.58c0.87,0,1.58,0.71,1.57,1.58
							c0,0.87-0.71,1.58-1.58,1.58C825.96,1113.26,825.26,1112.55,825.26,1111.68z M824.4,1113.27c0.23-0.23,0.61-0.23,0.84,0
							c0.23,0.23,0.23,0.61,0,0.84c-0.23,0.23-0.61,0.23-0.84,0C824.17,1113.88,824.17,1113.5,824.4,1113.27z M823.94,1111.68
							c0-0.19,0.16-0.35,0.35-0.35c0.19,0,0.35,0.16,0.35,0.35c0,0.19-0.16,0.35-0.35,0.34
							C824.09,1112.02,823.94,1111.87,823.94,1111.68z"/>
					</g>
					<path class="st2" d="M817.22,1111.66c-0.01,5.31,4.29,9.62,9.6,9.63c5.31,0.01,9.62-4.29,9.63-9.6
						c0.01-5.31-4.29-9.62-9.6-9.63C821.54,1102.06,817.23,1106.36,817.22,1111.66z M826.85,1105.07c3.65,0.01,6.6,2.97,6.59,6.62
						c-0.01,3.65-2.97,6.6-6.62,6.6c-3.65-0.01-6.6-2.97-6.6-6.62C820.23,1108.02,823.2,1105.07,826.85,1105.07z"/>
				</g>
			</g>
			<rect x="825.6" y="1098.83" class="st3" width="17.92" height="14.1"/>
			<circle class="st3" cx="826.84" cy="1111.68" r="5.47"/>
			<g>
				<path class="st1" d="M911.21,1111.65c-0.01,9.7,7.84,17.58,17.54,17.59c9.7,0.02,17.58-7.84,17.59-17.54
					c0.02-9.7-7.84-17.58-17.54-17.59C919.11,1094.1,911.23,1101.95,911.21,1111.65z M917.97,1111.66
					c0.01-5.97,4.86-10.8,10.83-10.8c5.97,0.01,10.81,4.86,10.8,10.83c-0.01,5.97-4.86,10.81-10.83,10.8
					C922.79,1122.49,917.96,1117.64,917.97,1111.66z"/>
				<g>
					<path class="st2" d="M918,1111.66c-0.01,5.95,4.81,10.79,10.76,10.8c5.95,0.01,10.79-4.81,10.8-10.76
						c0.01-5.95-4.81-10.79-10.76-10.8C922.84,1100.89,918.01,1105.71,918,1111.66z M919.17,1111.66c0.01-5.31,4.32-9.61,9.63-9.59
						c5.31,0.01,9.61,4.32,9.6,9.63c-0.01,5.31-4.32,9.61-9.63,9.6C923.46,1121.29,919.16,1116.97,919.17,1111.66z"/>
					<path class="st2" d="M922.17,1111.67c-0.01,3.65,2.95,6.61,6.6,6.62c3.65,0,6.61-2.95,6.62-6.6c0.01-3.65-2.95-6.61-6.59-6.62
						C925.14,1105.07,922.18,1108.02,922.17,1111.67z M924.63,1111.68c0-2.29,1.87-4.15,4.16-4.15c2.29,0,4.15,1.87,4.15,4.16
						c0,2.29-1.87,4.15-4.16,4.15C926.48,1115.83,924.62,1113.97,924.63,1111.68z"/>
					<g>
						<path class="st2" d="M924.63,1111.68c0,2.29,1.85,4.16,4.15,4.16c2.29,0,4.16-1.86,4.16-4.15c0-2.3-1.85-4.16-4.15-4.16
							C926.49,1107.53,924.63,1109.38,924.63,1111.68z M927.19,1110.09c-0.23,0.23-0.61,0.23-0.84,0c-0.23-0.23-0.23-0.61,0-0.84
							c0.23-0.23,0.61-0.23,0.84,0C927.43,1109.48,927.43,1109.86,927.19,1110.09z M929.13,1109.13c0,0.19-0.16,0.35-0.35,0.34
							c-0.19,0-0.35-0.16-0.35-0.35c0-0.19,0.16-0.35,0.35-0.34C928.98,1108.78,929.13,1108.94,929.13,1109.13z M931.21,1110.1
							c-0.23,0.23-0.61,0.23-0.84,0c-0.23-0.23-0.23-0.61,0-0.84c0.23-0.23,0.61-0.23,0.84,0
							C931.45,1109.49,931.44,1109.86,931.21,1110.1z M931.33,1112.03c-0.19,0-0.35-0.16-0.35-0.35c0-0.19,0.16-0.35,0.35-0.34
							c0.19,0,0.34,0.15,0.34,0.35C931.68,1111.88,931.52,1112.03,931.33,1112.03z M930.37,1113.28c0.23-0.23,0.61-0.23,0.84,0
							c0.23,0.23,0.23,0.61,0,0.84c-0.23,0.23-0.61,0.23-0.84,0C930.14,1113.88,930.14,1113.51,930.37,1113.28z M928.43,1114.23
							c0-0.19,0.15-0.34,0.35-0.34c0.19,0,0.35,0.16,0.35,0.35c0,0.19-0.16,0.35-0.35,0.34
							C928.58,1114.58,928.43,1114.43,928.43,1114.23z M927.2,1111.68c0-0.87,0.71-1.58,1.58-1.58c0.87,0,1.58,0.71,1.57,1.58
							c0,0.87-0.71,1.58-1.58,1.58C927.91,1113.26,927.2,1112.55,927.2,1111.68z M926.35,1113.27c0.23-0.23,0.61-0.23,0.84,0
							c0.23,0.23,0.23,0.61,0,0.84c-0.23,0.23-0.61,0.23-0.84,0C926.12,1113.88,926.12,1113.5,926.35,1113.27z M925.88,1111.68
							c0-0.19,0.16-0.35,0.35-0.35c0.19,0,0.35,0.16,0.35,0.35c0,0.19-0.16,0.35-0.35,0.34
							C926.04,1112.02,925.88,1111.87,925.88,1111.68z"/>
					</g>
					<path class="st2" d="M919.17,1111.66c-0.01,5.31,4.29,9.62,9.6,9.63c5.31,0.01,9.62-4.29,9.63-9.6
						c0.01-5.31-4.29-9.62-9.6-9.63C923.49,1102.06,919.18,1106.36,919.17,1111.66z M928.79,1105.07c3.65,0.01,6.6,2.97,6.59,6.62
						c-0.01,3.65-2.97,6.6-6.62,6.6c-3.65-0.01-6.6-2.97-6.6-6.62C922.18,1108.02,925.14,1105.07,928.79,1105.07z"/>
				</g>
			</g>
			<g>
				
					<rect x="921.19" y="1087.01" transform="matrix(0.9089 -0.417 0.417 0.9089 -374.5742 485.2852)" class="st3" width="4.41" height="25.85"/>
			</g>
			<path class="st4" d="M909.99,1108.66c0.73,0.9,2.05,0.96,2.85,0.15c7.49-7.66,17.3-11.68,29.12-12.55
				c1.48-0.11,2.25-1.83,1.3-2.96c-5.46-6.49-13.7-9.78-24.39-10.24L909.99,1108.66z"/>
			<ellipse class="st5" cx="906.4" cy="1045.89" rx="1.96" ry="4.7"/>
			<rect x="816.01" y="1075.52" class="st4" width="22.91" height="12.12"/>
			<polygon class="st6" points="816.01,1087.19 813.59,1086.63 813.59,1076.08 816.01,1075.52 			"/>
			<path class="st7" d="M921.3,1071.9l-18.44-25.43l-6.02,2.64l7.8,22.24c2.63,7.51,2.28,15.74-0.98,22.99l-3.66,8.13
				c-0.71,1.58-2.29,2.6-4.02,2.6h-21.91c-9.09,0.03-9.22-18.22,0-30.18l-43.08-3.46l-14.93,15.35l1.17,16.74l23.35,10.55h54.2h5.09
				c4.07,0,7.87-2.04,10.12-5.42l11.7-17.57C925.58,1085.24,925.42,1077.58,921.3,1071.9z"/>
			<path class="st8" d="M904.02,1104.28l3.66-8.13c3.74-8.32,4.14-17.65,1.12-26.26l-5.25-14.98l-0.68-8.45l-6.02,2.64l7.8,22.24
				c2.63,7.51,2.28,15.74-0.98,22.99l-3.66,8.13c-0.71,1.58-2.29,2.6-4.02,2.6h-21.91c-9.09,0.03-9.22-18.22,0-30.18l-45.01-1.48
				l-2.23,2.29l39.74,3.01c-4.1,8.49-5.07,18.3-1.97,24.59c1.66,3.37,4.43,5.5,7.75,6.03h25.1
				C900.32,1108.85,902.8,1106.98,904.02,1104.28z"/>
			<path class="st4" d="M811.14,1099.72l34.3,7.45c5.58,1.21,10.99-2.63,11.69-8.29l1.07-8.63c0.81-6.53-4.97-11.95-11.43-10.73
				l-29.21,5.51c-5.19,0.98-8.94,5.51-8.94,10.79v0.76C808.61,1098.1,809.66,1099.4,811.14,1099.72z"/>
			<path class="st1" d="M879.4,1064.87h-52.72c-2.21,0-4,1.79-4,4c0,2.02,1.4,3.69,3.32,4.02l11.63,2h41.77V1064.87z"/>
			<path class="st1" d="M894.78,1039.63l0.74,5.02c0,1.2,0.28,2.38,0.81,3.45l1.23,3.07h8.71l0.73-1.51l-0.47-8.54l-2.28-0.9
				L894.78,1039.63z"/>
			<polygon class="st9" points="907.47,1050.43 906.27,1051.17 904.26,1040.23 911.38,1041.34 907,1042.6 			"/>
			<path class="st3" d="M932.35,1111.68c0,1.97-1.6,3.57-3.57,3.57c-1.97,0-3.56-1.6-3.56-3.57c0-1.97,1.6-3.56,3.56-3.56
				C930.75,1108.12,932.35,1109.71,932.35,1111.68z"/>
		</g>
		<path class="st10" d="M945.59,1130.3c0,2.1-1.71,3.81-3.81,3.81H815.25c-2.11,0-3.81-1.71-3.81-3.81s1.71-3.81,3.81-3.81h126.53
			C943.88,1126.49,945.59,1128.2,945.59,1130.3L945.59,1130.3z"/>
	</g>
	<path class="st3" d="M896.24,1041.79c0.52,1.28-0.11,2.74-1.39,3.25c-1.28,0.51-2.74-0.11-3.25-1.39
		c-0.51-1.28,0.11-2.74,1.39-3.25C894.27,1039.89,895.72,1040.51,896.24,1041.79z"/>
</g>
<g>
	<g>
		<path class="st11" d="M94.65,29.62c-5.31-9.16-15.2-15.34-26.55-15.34c-11.35,0-21.24,6.18-26.55,15.34c0,0,5.7,2.59,25.29,2.59
			S94.65,29.62,94.65,29.62z"/>
		<path class="st2" d="M94.95,119.67c-0.41,0.97-13.23,2.88-26.26,2.9c-12.6,0.02-25.42-1.82-26.05-2.9c-1.3-2.2,1.9-2.1,2-5.69
			c0.1-3.6,47.32-3.79,47.22,0C91.75,117.78,95.75,117.78,94.95,119.67z"/>
		<path class="st2" d="M111.67,64.63c-2.88,1.11-3,5.09,0.12,6.6c-0.68,0.76-2.01,1.26-3.5,0.17c-3.1-2.25-1.49-6.21,4.19-11.76
			c14.35-14.02,8.77-32.91-7-31.55c-5.96,0.51-10.94,4.87-11.42,5.62c0.3-1.44,0.56-2.45,0.65-2.78c0-0.01,0-0.02,0.01-0.02
			c0.01-0.04,0.02-0.06,0.02-0.08c0,0,0.01-0.02,0.01-0.02s-7.05,3.29-24.77,3.29c-17.72,0-27.95-3.29-27.95-3.29
			s3.29,15.92,0,24.53c-0.46,1.21-1.06,2.42-1.75,3.65c-10.15,3.77-11.22-2.15-14.63-8.51C22.22,44.05,7.69,40.16,4.4,39.71
			c-5.81,0.7-4.19,7.49-4.19,7.49s10.33,0.45,13.78,6.74c3.45,6.29-1.65,11.83,2.99,21.12c3.13,6.25,9.04,8.45,11.69,9.14
			c0,0.05,0,0.09,0,0.14c0,12.77,6.34,24.09,16.12,31.15c0,0,3.03,4.11,24.23,4.11s23.01-4.11,23.01-4.11
			c9.78-7.06,16.12-18.38,16.12-31.15c0-0.38-0.01-0.76-0.03-1.13c0-0.12-0.02-0.23-0.02-0.35c-0.02-0.26-0.04-0.52-0.06-0.78
			c-0.01-0.13-0.03-0.26-0.05-0.38c-0.03-0.24-0.06-0.49-0.09-0.73c-0.02-0.13-0.04-0.25-0.06-0.38c-0.04-0.24-0.08-0.49-0.13-0.73
			c-0.02-0.12-0.05-0.23-0.07-0.35c-0.05-0.25-0.11-0.5-0.17-0.76c-0.03-0.1-0.05-0.2-0.08-0.3c-0.07-0.27-0.14-0.54-0.22-0.81
			c-0.02-0.08-0.05-0.16-0.07-0.24c-0.09-0.3-0.18-0.59-0.28-0.89c-0.02-0.05-0.03-0.1-0.05-0.14c-0.12-0.34-0.24-0.68-0.37-1.02
			c3.23,1.92,6.73,0.92,8.65-1.2c0.01-0.01,0.02-0.02,0.03-0.03C118.12,70.87,117.29,62.48,111.67,64.63z M93.73,52.82
			c-0.94-8.09,1.4-11.64,5.1-14.8c5.47-4.67,11.08-3.7,12.84-1.14c2.95,4.29,2.41,9.71-1.63,16.57c-0.89,1.51-1.95,3.02-2.98,4.48
			c-2.01,2.86-4.28,6.11-4.84,9.29c0,0,0,0,0,0C99.85,66.82,94.74,61.53,93.73,52.82z"/>
		<path class="st11" d="M108.07,82.85c-0.02-0.26-0.04-0.52-0.06-0.78c-0.01-0.13-0.03-0.26-0.05-0.38
			c-0.03-0.24-0.06-0.49-0.09-0.73c-0.02-0.13-0.04-0.25-0.06-0.38c-0.04-0.24-0.08-0.49-0.13-0.73c-0.02-0.12-0.05-0.23-0.07-0.35
			c-0.05-0.25-0.11-0.5-0.17-0.76c-0.03-0.1-0.05-0.2-0.08-0.3c-0.07-0.27-0.14-0.54-0.22-0.81c-0.02-0.08-0.05-0.16-0.07-0.24
			c-0.01-0.02-0.01-0.05-0.02-0.07c-0.42,0.33,1.04,28.64-32.33,34.2c-19.68,3.27-28.91-1.67-34.92-7.13
			c-7.89-7.18-9.11-15.18-11.12-18.75c0.42,12.23,6.65,23.02,16.09,29.84c0,0,7.48,4.25,25.54,4.1c18.07-0.15,21.69-4.1,21.69-4.1
			c9.78-7.06,16.12-18.38,16.12-31.15c0-0.38-0.01-0.76-0.03-1.13C108.09,83.08,108.08,82.97,108.07,82.85z"/>
		<path class="st11" d="M95.33,30.09c0,0.6-0.49,1.08-1.08,1.08c0,0-8.26,2.92-26.15,2.92c-17.89,0-26.01-2.92-26.01-2.92
			c-0.6,0-1.08-0.48-1.08-1.08l0,0c0-0.6,0.48-1.08,1.08-1.08c0,0,13.7,2.54,26.08,2.54S94.24,29,94.24,29
			C94.84,29,95.33,29.49,95.33,30.09L95.33,30.09z"/>
		<path class="st11" d="M3.97,40.69c0,0-2.04,0.67-2.68,2.36c-0.64,1.69,0,3.09,0,3.09s1.48-0.51,2.29-2.12
			C4.55,42.08,3.97,40.69,3.97,40.69z"/>
		<path class="st11" d="M71.16,16.16c1.58-0.21,2.92-1.29,2.92-1.29s-2.07-0.72-2.49-4.05c-0.02-0.16-0.04-0.3-0.07-0.44
			c1.62-0.98,2.71-2.75,2.71-4.78c0-3.09-2.5-5.59-5.59-5.59c-3.09,0-5.59,2.5-5.59,5.59c0,1.85,0.91,3.49,2.3,4.51
			c0,0.07,0,0.14,0.01,0.22c0.13,3.45-2.45,4.54-2.45,4.54s0.88,1.17,1.66,1.29"/>
	</g>
</g>
</svg>
