<svg xmlns="http://www.w3.org/2000/svg" width="51.148" height="61.034">
    <path data-name="Path 21265" d="M34.131 31.01c-.385 1.349-.385 5.01 1.349 1.734a23.468 23.468 0 0 1 4.82-5.973.409.409 0 0 1 .578.578 18.744 18.744 0 0 0-4.24 5.4c-1.542 2.313.193 1.734 1.349.771 5.781-4.818 7.13-6.745 15.8-6.359 4.818.385 14.646 6.552 17.922 14.068 2.12 4.625 1.542 11.948-4.625 12.333-2.7.385-5.589.578-8.865.771-1.349 0-1.927.193-1.542 1.734.578 2.505 3.083 5.2 8.287 4.432l3.661-.385v2.12c.193 2.891 1.542 5.589 4.047 6.745.964.578 1.349.578 1.734-.385a35.128 35.128 0 0 0 2.505-9.828c.578-6.745 5.4-10.792 7.13-16.188 1.927-5.974 1.734-12.912-5.781-23.125-1.349-2.12 1.349-3.854 4.432-5.4 2.12-.964 2.12-2.7-1.927-3.854-4.818-1.156-7.708-.578-12.333.578-6.552 1.156-10.214-4.047-21.2-1.927-5.781 1.156-11.755 8.287-8.479 15.031a19.654 19.654 0 0 0-4.622 7.129zm10.214-14.067A1.243 1.243 0 0 1 45.5 18.1a1.079 1.079 0 0 1-1.156.964.91.91 0 0 1-.964-.964 1.079 1.079 0 0 1 .965-1.157z" transform="translate(-33.924 -8.335)" style="fill:#1531e6;fill-rule:evenodd"/>
</svg>
