<svg xmlns="http://www.w3.org/2000/svg" width="57.922" height="40.94">
    <path data-name="Path 21258" d="m9.39 27.044.428-.183.3-.243.123-.244v-.184l-.062-.122-.061-.06-.242-.123H9.45l-.487.182-.363.123-.3.246-.123.245v.06l-.061.12.061.062.123.121.243.123h.427l.427-.123M53.9 53.708l-.06-.915-.122-.489-.367-1.4-.365-1.829-.305-1.954-.123-1.829-.058-1.957v-1.829l.365-3.783.427-1.893.061-.426.3-1.77.062-1.768.122-.916.3 2.5.367 2.562v.244l.184 1.526.3 1.465.427 1.463.426 1.16.244.244.243.121h.3l.367-.121.426-.183.367-.367.123-.183v-.244l-.06-.243-.488-1.16-.062-.3-.488-1.708-.3-1.709-.183-1.768-.182-1.709v-2.749l-.122-1.281-.306-1.281-.3-1.219-.367-.733-.488-1.343-.609-1.281-.793-1.219-.671-.915-.792-1.039-.793-.915-.975-.732L48.9 17.1l-1.035-.548-1.1-.488-1.037-.364-.975-.244-1.036-.062h-.426l-1.829-.06-1.767.06-1.709.062-.975.122h-.183L35 15.757l-1.83.123h-1.891l-.488-.062-1.1-.121-1.1-.306-.612-.243-1.158-.3-1.159-.123-1.158-.06-1.158.123-1.159.244-.915.244-3.9 1.1-.612.243-1.524.426-1.463.244-1.525.244h-1.274l-.61.184-.671.243-.488.428-.426.488-.122.123-.915 1.281-.791 1.4-.732 1.4-.61 1.465-.487 1.526-.3 1.16-.306 1.71-.3 1.768-.123 1.77v1.771l.123 1.829.121 1.77.366 1.768.367 1.709.426 1.65.365 1.219v.061l.306.49.181.609v.55l-.121.61-.059.182-.375.303-.305.243-.488.181-.425-.062-.428-.121-.365-.305-.121-.121-.61-.671-.184-.306-.305-.244-.3-.181-.365-.062h-.312l-.3.062-.184.12-.547.429-.426.426-.123.3v.426l.062.368.061.061.365.854.061.061V48.4l.487.855.305.3.61.55.67.367.671.244.732.181h.488l.975-.061.848-.236.915-.305.794-.55.426-.244.488-.426.487-.61.367-.673.18-.671.123-.242-.06-1.283-.182-1.341-.244-1.219-.184-.61-.244-1.283-.059-1.282.059-1.279v-.183l.184-.799.244-.731.426-.732.488-.61.671-.549.732-.366.61-.244.244-.062.547-.059L13.9 34l.489-.367.3-.3.854-.671.608-.428.306-.123h.3l.305.062.246.182.12.306.06.12.184 1.709.184 1.77v1.771l-.115 1.769-.244 1.77-.3 1.77-.061.183L15 52.122l-.122.243-.123.123-.182.121h-.063l-.3.123-.3.183-.246.243-.12.365v1.526l.12.242.184.184.306.122h4.022l.306-.062.244-.121.184-.243.059-.183 1.769-5.613 1.34-3.784 1.1-2.378.487-1.1.367-1.22.242-1.22v-.062l.305-2.2v-.061l1.1 5.86.732 2.867.367 1.586 1.022 4.459v.243l-.063.183-.121.184-.061.06-.244.243-.244.306-.061.305v1.219l.182.306.244.243.244.121.3.062h3.781l.3-.062.244-.121.182-.243.063-.244v-.244l-.367-3.233-.183-2.2v-2.132l.123-2.134.121-2.2.183-1.221.183-.732.061-.793-.121-.732-.182-.732-.184-.427 1.463.55 1.525.55 1.525.363 1.585.306 1.4.122-.429 2.44-.242 2.5-.368 4.882v1.889l-.06.308-.122.364-.242.244-.247.122-.182.243-.242.306-.062.305v.974l.062.244.12.306.244.243.244.121.3.062h3.657l.305-.062.183-.121.184-.243.12-.244.67-3.966.489-2.439.55-2.441.671-2.44.365-1.405.487 1.892.487 1.954.673 1.768.733 1.831.851 1.77.183.367.061.244v.364l-.061.306-.183.3-.18.244-.123.306v1.279l.183.306.182.243.3.121.3.062H53.1l.243-.062.244-.121.244-.488.06-.183v-1.025zM17.317 28.022l-.244-.062h-.246l-.121.062-.182.184-.122.059-.063.244v.184l.244.364.122.062 1.463.671.612.305.487.123h.549l.489-.123.487-.184.367-.364.364-.428.123-.489.122-.548-.061-.3-.185-1.282-.422-1.285-.488-1.283-.547-1.158-.733-1.16-.732-1.037-.854-.61-.547-.184-.547-.06-.551.06-.243.123-.975.366-.487.489v.426l.059.122.123.184.182.059.244.062.244-.062.121-.059.794-.428h.121l.3-.06h.365l.367.121.242.184.061.062.792 1.035.67 1.161.551 1.158.427 1.22.3 1.281.182.732-.06.3-.244.489-.237.189-.244.06h-.364l-.184-.06-1.341-.612z" transform="translate(0 -14.66)" style="fill:#1531e6;fill-rule:evenodd"/>
</svg>
