<svg xmlns="http://www.w3.org/2000/svg" width="61.184" height="49.458">
    <path data-name="Path 21263" d="m31.462 48.247-2.611-19.2c-.734-5.337 9.055-13.359 12.033-13.359a.727.727 0 0 1 .809.524l-3.086 24.9c-.68 5-4.317 8.348-6.118 8.348-.612-.002-1.027-.383-1.027-1.213zM12.78 44.665l-2.72-1.095c1.55-.8 7.431-4.045 18.016-12.55l.952 6.98c-2.8 2.026-5.6 3.923-8.634 5.915a8.246 8.246 0 0 1-7.614.748zM1.237 39.954a1.986 1.986 0 0 1-.877-2.978L3.222 32.9A2.718 2.718 0 0 1 5.4 31.735l6.391-.1A146.942 146.942 0 0 1 33.774 4.283 12.917 12.917 0 0 1 43.121.2a14.533 14.533 0 0 1 6.846 1.761A8.083 8.083 0 0 1 54.848 0a5.9 5.9 0 0 1 3.991 1.624c-5.983 6-11.388 11.15-16.242 15.575l.109-.863a1.125 1.125 0 0 0 0-.395 1.727 1.727 0 0 0-1.788-1.271c-2.414.007-6.846 3.372-9.566 6.492-1.808 2.074-3.875 5.146-3.481 8.022l.054.625C15.337 39.974 9.313 42.775 9.218 42.816a.515.515 0 0 0-.259.278zM35.949 6.465a.489.489 0 0 0-.156.36.51.51 0 0 0 .149.36l4.412 4.415a.51.51 0 0 0 .721 0l6.078-6.08a.51.51 0 0 0-.191-.843 12.749 12.749 0 0 0-4.133-.718 10.277 10.277 0 0 0-6.88 2.506zM42.4 18.756c5.092-4.623 10.81-10.041 17.165-16.4 3.834 4.324-.346 8.879-.346 8.879-7.281 7.288-12.992 12.685-18 17.036zm-34.862.415c-3.284-.048.448-6.227 7.138-7.138L26.4 10.578q-4.5 5.006-8.3 10.028zm29.519-12.3A10.014 10.014 0 0 1 45.834 5.4l-5.119 5.119z" transform="translate(-.001)" style="fill:#1531e6"/>
</svg>
