<svg id="Layer_2" data-name="Layer 2" xmlns="http://www.w3.org/2000/svg" width="52.179" height="38.935">
    <defs>
        <style>
            .cls-1{fill:#f65518}
        </style>
    </defs>
    <g id="Layer_1" data-name="Layer 1">
        <path id="Path_21259" data-name="Path 21259" class="cls-1" d="M49.567 16.454a.6.6 0 0 0-.09-.12 13.051 13.051 0 0 0-9.887-5.1v-.378A10.876 10.876 0 0 0 28.72 0h-5.261a10.876 10.876 0 0 0-10.876 10.858v.377A13.081 13.081 0 0 0 0 24.3v3.529a3.092 3.092 0 0 0 3.086 3.092h1.8a8.521 8.521 0 0 0 17.006 0H29.6a8.515 8.515 0 0 0 17 0h2.493a3.092 3.092 0 0 0 3.086-3.092V24.3a13.021 13.021 0 0 0-2.613-7.85zM13.416 37.7a7.334 7.334 0 0 1-7.328-7.32 7.22 7.22 0 0 1 .5-2.678 7.37 7.37 0 0 1 5.794-4.572 7.233 7.233 0 0 1 1.025-.072 7.34 7.34 0 0 1 7.328 7.274.27.27 0 0 1 0 .066 7.334 7.334 0 0 1-7.322 7.3zM25.5 11.217H13.782v-.36A9.683 9.683 0 0 1 23.459 1.2H25.5zm1.2 0V1.2h2.037a9.683 9.683 0 0 1 9.659 9.659v.36zM38.08 37.7a7.328 7.328 0 0 1-7.3-7.143.6.6 0 0 0 .054-.252A7.3 7.3 0 1 1 38.1 37.7zm9.62-16.728a1.264 1.264 0 0 1-1.133-.713l-.533-1.138a1.2 1.2 0 0 1 .078-1.2 1.24 1.24 0 0 1 1.049-.6h1.579a11.984 11.984 0 0 1 1.8 3.6z"/>
        <path id="Path_21260" data-name="Path 21260" class="cls-1" d="M23.829 47.894A4.194 4.194 0 1 1 19.6 43.7a4.194 4.194 0 0 1 4.224 4.194z" transform="translate(-6.188 -17.515)"/>
        <path id="Path_21261" data-name="Path 21261" class="cls-1" d="M65.029 47.894A4.194 4.194 0 1 1 60.8 43.7a4.194 4.194 0 0 1 4.23 4.194z" transform="translate(-22.701 -17.515)"/>
    </g>
</svg>
