<svg xmlns="http://www.w3.org/2000/svg" width="56.118" height="38.935">
    <path data-name="Path 21262" d="M-11821.518-2663.493a6.431 6.431 0 0 1 6.425-6.435 6.437 6.437 0 0 1 6.438 6.431 6.433 6.433 0 0 1-6.429 6.433 6.433 6.433 0 0 1-6.434-6.429zm3.037 0a3.387 3.387 0 0 0 3.388 3.387 3.386 3.386 0 0 0 3.387-3.387 3.387 3.387 0 0 0-3.387-3.387 3.388 3.388 0 0 0-3.387 3.38zm-34.12 0a6.432 6.432 0 0 1 6.432-6.431 6.437 6.437 0 0 1 6.432 6.431 6.431 6.431 0 0 1-6.432 6.433 6.432 6.432 0 0 1-6.431-6.44zm3.038 0a3.387 3.387 0 0 0 3.394 3.384 3.392 3.392 0 0 0 3.381-3.387 3.388 3.388 0 0 0-3.389-3.387 3.389 3.389 0 0 0-3.385 3.39zm32.047 0a2.429 2.429 0 0 1 2.429-2.428 2.429 2.429 0 0 1 2.43 2.428 2.43 2.43 0 0 1-2.43 2.43 2.43 2.43 0 0 1-2.429-2.437zm-31.084 0a2.431 2.431 0 0 1 2.431-2.428 2.429 2.429 0 0 1 2.43 2.428 2.429 2.429 0 0 1-2.43 2.43 2.431 2.431 0 0 1-2.431-2.437zm40.529 2.22a7.391 7.391 0 0 0-2.7-8.238 7.392 7.392 0 0 0-8.671 0 7.391 7.391 0 0 0-2.7 8.238h-16.98a7.332 7.332 0 0 0-.825-6.178h14.159a.484.484 0 0 0 .477-.476v-20.933l9.965-.032 9.514 12.687a4.837 4.837 0 0 1 .957 2.88v9.947a2.1 2.1 0 0 1-2.1 2.105zm-14.405-24.5v8.748a.481.481 0 0 0 .475.476h10.479a.464.464 0 0 0 .419-.261.477.477 0 0 0 0-.489l-6.071-8.741a.463.463 0 0 0-.387-.21h-4.44a.481.481 0 0 0-.475.476zm-34.953 24.5v-6.178l5.02-.006a7.361 7.361 0 0 0-.82 6.184zm16.753-7.13a7.371 7.371 0 0 0-5.493-2.473 7.369 7.369 0 0 0-5.5 2.473h-6.038l-2.965-2.962 34.4-17.183v20.145zm-20.324-9.934 35.319-17.658h13.681v6.235h-14l-35 17.494zm39.476.839v-7.8h3.691l5.4 7.8z" transform="translate(11861 2695.999)" style="fill:#f65518"/>
</svg>
