<svg xmlns="http://www.w3.org/2000/svg" width="48.054" height="42.778">
    <g data-name="Group 6455">
        <path data-name="Path 21264" d="M49.346 29.118C49.346 24.4 52 13.944 52 13.772A.875.875 0 0 0 50.46 13L40.344 25.689a35.184 35.184 0 0 0-6.258-6c-3.343-4.372-3.943-11.745-3.943-11.83a1.058 1.058 0 0 0-.343-.686A1.274 1.274 0 0 0 29.028 7c-4.458 1.286-8.744 7.373-9.6 8.658C12.4 17.2 6.739 23.374 4.167 26.632a.924.924 0 0 0 .433 1.457A17.478 17.478 0 0 1 9.825 30.4l-4.886.429s-1.2.343-.257 1.372c2.143 2.486 5.744 6.344 10.2 8.658A15.715 15.715 0 0 0 25.6 49.778h.257a1.058 1.058 0 0 0 .686-.343.9.9 0 0 0 0-1.029 16.786 16.786 0 0 1-2.4-5.572 16.732 16.732 0 0 0 4.629-1.2 38.742 38.742 0 0 1 6 4.8 1.058 1.058 0 0 0 .686.343.642.642 0 0 0 .429-.086.938.938 0 0 0 .343-1.114c0-.086-1.543-4.372 5.915-10.63l8.23 10.287a.931.931 0 0 0 1.114.257.829.829 0 0 0 .429-1.029c0-.17-2.572-10.629-2.572-15.344zm-38.235-2.744a1.445 1.445 0 0 1-1.457-1.457c0-.171 0-.257.086-.343a.851.851 0 0 0 .686.514.768.768 0 0 0 .772-.772.652.652 0 0 0-.514-.686c.086 0 .257-.086.343-.086A1.445 1.445 0 0 1 12.483 25a1.41 1.41 0 0 1-1.372 1.374zm6.344 15.6a18.292 18.292 0 0 0 4.886.943 13.319 13.319 0 0 0 1.543 4.372 13.457 13.457 0 0 1-6.429-5.312zm16.974 1.715c-1.286-1.029-2.829-2.143-3.772-2.915a33.994 33.994 0 0 0 9.773-8.23l.772.943c-5.23 4.375-6.602 7.976-6.773 10.204z" transform="translate(-3.971 -7)" style="fill:#f65518"/>
    </g>
</svg>
