<svg xmlns="http://www.w3.org/2000/svg" width="26.132" height="50.961">
    <path data-name="Path 21271" d="M25.6 50.165a3.213 3.213 0 0 0 3.213 3.213H48.52a3.214 3.214 0 0 0 3.213-3.213V9.96H25.6zm13.066-3.322a2.3 2.3 0 1 1-2.3 2.3 2.3 2.3 0 0 1 2.301-2.299zm9.853-44.426H28.814A3.213 3.213 0 0 0 25.6 5.63v3.256h26.133V5.63a3.214 3.214 0 0 0-3.214-3.213zM33.035 6.409a.73.73 0 1 1 .729-.73.73.73 0 0 1-.729.73zm8.878-.194H35.42a.536.536 0 0 1 0-1.071h6.493a.536.536 0 0 1 0 1.071z" transform="translate(-25.601 -2.417)" style="fill:#f65518"/>
</svg>
