<?xml version="1.0" encoding="utf-8"?>
<!-- Generator: Adobe Illustrator 24.1.1, SVG Export Plug-In . SVG Version: 6.00 Build 0)  -->
<svg version="1.1" id="Layer_1" xmlns="http://www.w3.org/2000/svg" xmlns:xlink="http://www.w3.org/1999/xlink" x="0px" y="0px"
	 viewBox="0 0 173.32 174.24" style="enable-background:new 0 0 173.32 174.24;" xml:space="preserve">
<style type="text/css">
	.st0{fill:url(#SVGID_1_);}
	.st1{fill:url(#SVGID_2_);}
	.st2{fill:url(#SVGID_3_);}
	.st3{fill:url(#SVGID_4_);}
	.st4{fill:#D5E2FF;}
	.st5{opacity:0.5;fill:#D84F95;}
	.st6{fill:url(#SVGID_5_);}
	.st7{opacity:0.5;fill:url(#SVGID_6_);}
	.st8{fill:url(#SVGID_7_);}
	.st9{fill:url(#SVGID_8_);}
</style>
<g>
	
		<linearGradient id="SVGID_1_" gradientUnits="userSpaceOnUse" x1="324.0986" y1="435.9059" x2="324.0986" y2="263.2972" gradientTransform="matrix(0.796 0.6053 -0.6053 0.796 40.6203 -388.1481)">
		<stop  offset="5.586590e-03" style="stop-color:#FF208B"/>
		<stop  offset="1" style="stop-color:#FF5689"/>
	</linearGradient>
	<circle class="st0" cx="87.01" cy="86.31" r="86.3"/>
	
		<linearGradient id="SVGID_2_" gradientUnits="userSpaceOnUse" x1="367.2338" y1="435.0113" x2="367.2338" y2="274.0117" gradientTransform="matrix(0.796 0.6053 -0.6053 0.796 40.6203 -388.1481)">
		<stop  offset="0" style="stop-color:#FFAE00"/>
		<stop  offset="0.299" style="stop-color:#FFB400"/>
		<stop  offset="0.9665" style="stop-color:#FFBD00"/>
	</linearGradient>
	<path class="st1" d="M136.06,28.76c0,0-5.73,95.57-94.66,130.16c0,0,39.12,30.68,82.19,5.18
		C175.08,133.61,175.94,55.53,136.06,28.76z"/>
	
		<linearGradient id="SVGID_3_" gradientUnits="userSpaceOnUse" x1="-206.8637" y1="435.9066" x2="-206.8637" y2="274.907" gradientTransform="matrix(-0.796 -0.6053 -0.6053 0.796 101.689 -341.7132)">
		<stop  offset="0" style="stop-color:#975CFF"/>
		<stop  offset="0.3631" style="stop-color:#955DFF"/>
		<stop  offset="0.5716" style="stop-color:#8C61FF"/>
		<stop  offset="0.741" style="stop-color:#7E67FF"/>
		<stop  offset="0.8885" style="stop-color:#6B70FF"/>
		<stop  offset="1" style="stop-color:#567AFF"/>
	</linearGradient>
	<path class="st2" d="M130.89,25.96c0,0-90.56,31.07-100.12,126.01c0,0-40.02-29.49-26.96-77.82
		C19.42,16.38,94.44-5.32,130.89,25.96z"/>
	
		<linearGradient id="SVGID_4_" gradientUnits="userSpaceOnUse" x1="319.9962" y1="270.5346" x2="319.9962" y2="262.7585" gradientTransform="matrix(0.796 0.6053 -0.6053 0.796 40.6203 -388.1481)">
		<stop  offset="0" style="stop-color:#79DA00"/>
		<stop  offset="0.9944" style="stop-color:#AED300"/>
	</linearGradient>
	<path class="st3" d="M119.32,6.26l6.19,9.99l18.23,13.37l6.33-2.25C150.07,27.37,141.3,14.46,119.32,6.26z"/>
	<path class="st4" d="M112.41,11.91c0,0,26.87,4.05,39.9,30.34C152.31,42.25,130.46,43.02,112.41,11.91z"/>
	<path class="st5" d="M112.41,11.91l0.36,2.97c0,0-42.94-13.3-78.25,14.94c0,0,39.65-24.12,81.29-12.47l6.78,10.63
		c0,0-39.03,13.46-71.54,63.25c0,0,21.72-40.58,73.27-60.16c0,0,7.34,2.83,8.3,8.46c0.95,5.63-2.48,44.84-44.09,89.67
		c0,0,42.28-38.12,46.3-90.74c0,0,12.76,2.74,17.69,9.74c4.92,7,16.6,35.2,7.82,67.88c0,0,13.6-39.77-8.03-73.83
		C152.31,42.25,128.57,36.51,112.41,11.91z"/>
	
		<radialGradient id="SVGID_5_" cx="-566.4974" cy="49.9276" r="4.4128" gradientTransform="matrix(2.5948 0.2601 -0.5275 5.2674 1657.7203 -39.8408)" gradientUnits="userSpaceOnUse">
		<stop  offset="5.586590e-03" style="stop-color:#6A6FFF"/>
		<stop  offset="0.3706" style="stop-color:#696EFD"/>
		<stop  offset="0.5021" style="stop-color:#666BF6"/>
		<stop  offset="0.5958" style="stop-color:#6166EB"/>
		<stop  offset="0.6717" style="stop-color:#5A5FDA"/>
		<stop  offset="0.7366" style="stop-color:#5155C4"/>
		<stop  offset="0.7941" style="stop-color:#4649A8"/>
		<stop  offset="0.8461" style="stop-color:#393B88"/>
		<stop  offset="0.8939" style="stop-color:#292B62"/>
		<stop  offset="0.9384" style="stop-color:#171837"/>
		<stop  offset="0.9779" style="stop-color:#040409"/>
		<stop  offset="0.9851" style="stop-color:#000000"/>
	</radialGradient>
	<path class="st6" d="M172.91,76.96c-1.29,12.84-7.46,22.73-13.78,22.09c-6.32-0.63-10.41-11.55-9.12-24.39
		c1.29-12.84,7.46-22.73,13.78-22.09C170.11,53.2,174.2,64.12,172.91,76.96z"/>
	
		<radialGradient id="SVGID_6_" cx="-607.5737" cy="42.7112" r="4.4128" gradientTransform="matrix(2.5402 0.5897 -1.3855 5.9704 1615.3214 178.1139)" gradientUnits="userSpaceOnUse">
		<stop  offset="5.586590e-03" style="stop-color:#6A6FFF"/>
		<stop  offset="0.3706" style="stop-color:#696EFD"/>
		<stop  offset="0.5021" style="stop-color:#666BF6"/>
		<stop  offset="0.5958" style="stop-color:#6166EB"/>
		<stop  offset="0.6717" style="stop-color:#5A5FDA"/>
		<stop  offset="0.7366" style="stop-color:#5155C4"/>
		<stop  offset="0.7941" style="stop-color:#4649A8"/>
		<stop  offset="0.8461" style="stop-color:#393B88"/>
		<stop  offset="0.8939" style="stop-color:#292B62"/>
		<stop  offset="0.9384" style="stop-color:#171837"/>
		<stop  offset="0.9779" style="stop-color:#040409"/>
		<stop  offset="0.9851" style="stop-color:#000000"/>
	</radialGradient>
	<path class="st7" d="M23.98,77.43c-3.38,14.55-11.13,25.18-17.33,23.74c-6.19-1.44-8.47-14.4-5.1-28.95
		C4.94,57.68,12.7,47.05,18.89,48.48C25.08,49.92,27.36,62.88,23.98,77.43z"/>
	
		<radialGradient id="SVGID_7_" cx="-595.1793" cy="-152.5039" r="1.3826" gradientTransform="matrix(-2.2623 -1.297 2.6324 -4.5928 -786.1748 -1345.861)" gradientUnits="userSpaceOnUse">
		<stop  offset="5.586590e-03" style="stop-color:#5EFFF1"/>
		<stop  offset="0.3706" style="stop-color:#5DFDEF"/>
		<stop  offset="0.5021" style="stop-color:#5BF6E9"/>
		<stop  offset="0.5958" style="stop-color:#56EBDE"/>
		<stop  offset="0.6717" style="stop-color:#50DACE"/>
		<stop  offset="0.7366" style="stop-color:#48C4B9"/>
		<stop  offset="0.7941" style="stop-color:#3EA89F"/>
		<stop  offset="0.8461" style="stop-color:#328880"/>
		<stop  offset="0.8939" style="stop-color:#24625D"/>
		<stop  offset="0.9384" style="stop-color:#143734"/>
		<stop  offset="0.9779" style="stop-color:#030909"/>
		<stop  offset="0.9851" style="stop-color:#000000"/>
	</radialGradient>
	<path class="st8" d="M155.74,124.71c2.01-3.51,5.04-5.55,6.77-4.56c1.73,0.99,1.5,4.64-0.51,8.14c-2.01,3.51-5.04,5.55-6.77,4.56
		C153.5,131.86,153.73,128.21,155.74,124.71z"/>
	
		<radialGradient id="SVGID_8_" cx="-584.4207" cy="-97.2471" r="1.3826" gradientTransform="matrix(-0.5513 -2.5489 5.174 -1.1196 250.5315 -1592.5782)" gradientUnits="userSpaceOnUse">
		<stop  offset="5.586590e-03" style="stop-color:#5EFFF1"/>
		<stop  offset="0.3706" style="stop-color:#5DFDEF"/>
		<stop  offset="0.5021" style="stop-color:#5BF6E9"/>
		<stop  offset="0.5958" style="stop-color:#56EBDE"/>
		<stop  offset="0.6717" style="stop-color:#50DACE"/>
		<stop  offset="0.7366" style="stop-color:#48C4B9"/>
		<stop  offset="0.7941" style="stop-color:#3EA89F"/>
		<stop  offset="0.8461" style="stop-color:#328880"/>
		<stop  offset="0.8939" style="stop-color:#24625D"/>
		<stop  offset="0.9384" style="stop-color:#143734"/>
		<stop  offset="0.9779" style="stop-color:#030909"/>
		<stop  offset="0.9851" style="stop-color:#000000"/>
	</radialGradient>
	<path class="st9" d="M68.79,2.41c3.95-0.85,7.49,0.03,7.92,1.98c0.42,1.95-2.44,4.22-6.39,5.07c-3.95,0.85-7.49-0.03-7.92-1.98
		C61.98,5.53,64.84,3.26,68.79,2.41z"/>
</g>
</svg>
