<?xml version="1.0" encoding="utf-8"?>
<!-- Generator: Adobe Illustrator 24.1.1, SVG Export Plug-In . SVG Version: 6.00 Build 0)  -->
<svg version="1.1" id="Layer_1" xmlns="http://www.w3.org/2000/svg" xmlns:xlink="http://www.w3.org/1999/xlink" x="0px" y="0px"
	 viewBox="0 0 507.97 131.8" style="enable-background:new 0 0 507.97 131.8;" xml:space="preserve">
<style type="text/css">
	.st0{fill:#B86313;}
	.st1{fill:#CC7917;}
	.st2{fill:#9E4727;}
	.st3{opacity:0.5;fill:#CC7917;}
	.st4{opacity:0.5;}
	.st5{fill:#FFFFFF;}
	.st6{opacity:0.3;}
	.st7{opacity:0.1;fill:#FFFFFF;}
</style>
<g>
	<g>
		<path class="st0" d="M15.13,22.25c6.94,17.06,24.79,59.83,35.55,75.98c13.57,20.37,7.24,29.3,52.02,32.09
			c38.52,2.4,117.84,1.29,151.36,0.76c33.52,0.54,112.84,1.65,151.36-0.76c44.78-2.79,38.45-11.72,52.02-32.09
			c10.76-16.15,30.02-65.55,36.97-82.61L15.13,22.25z"/>
	</g>
	<g>
		<g>
			<path class="st1" d="M507.48,7.26c-3.61-8.1-24.12-6.33-33.98-6.03c-3.36,0.1-6.75,0.08-10.11,0.12
				c-16.84,0.19-33.67,0.3-50.51,0.44c-19.02,0.16-245.41,2.99-264.22,3.4c-18.66,0.4-37.33,0.82-56,1.2
				c-16.52,0.34-33.03,0.7-49.55,0.99c-3.3,0.06-6.62,0.18-9.92,0.17C23.5,7.54,3.27,6.39,0.33,14.42
				c-1.55,4.24,2.57,9.22,9.87,9.99c6.32,0.67,13.13-0.11,19.48-0.36c18.88-0.73,37.8-0.93,56.71-1.23
				c19.08-0.29,38.15-0.59,57.23-0.85c19.39-0.26,38.77-0.53,58.16-0.79c7.1-0.09,43.43-0.26,52.37-0.4
				c16.28-0.24,32.55-0.48,48.83-0.74c19.75-0.31,39.5-0.6,59.26-0.9c19.44-0.29,38.88-0.55,58.31-0.81
				c19.26-0.26,38.54-0.61,57.81-0.42c6.48,0.06,13.47,0.66,19.85-0.2C505.58,16.72,509.39,11.53,507.48,7.26z"/>
			<g>
				<path class="st2" d="M41.08,23.5c-4.8-0.46-6.02-4.81-6.43-7.21c-0.46-2.62,1.01-5.29,2.63-7.67c0.1-0.14-0.22-0.25-0.37-0.13
					c-3.5,2.74-4.18,6.28-3.09,9.64c0.21,0.64,0.54,1.44,1.02,2.24c-3.95-3.48-4.92-7.8-0.03-11.61c0.26-0.21-0.23-0.42-0.52-0.24
					c-6.02,3.86-4.59,11.79,3.01,14.7c0.12,0.05,0.22,0.04,0.33,0.04c0.95,0.56,2.08,0.91,3.44,0.88
					C41.68,24.13,41.64,23.56,41.08,23.5z"/>
				<path class="st2" d="M41.82,22.87c-5.15-4.47-5.63-9.8-0.54-14.37c0.25-0.22-0.26-0.46-0.54-0.26c-2.74,2-4.76,4.67-4.56,7.35
					c0.18,2.38,1.5,6.31,5.06,7.64C41.63,23.38,42.11,23.12,41.82,22.87z"/>
				<path class="st2" d="M98.95,22.98c-5.97-5.08-7.53-10.91-4.61-16.92c0.13-0.27-0.47-0.44-0.68-0.17
					c-3.96,5.2-4.2,14.05,4.44,17.62C98.67,23.74,99.36,23.33,98.95,22.98z"/>
				<path class="st2" d="M103.68,22.96c-5.97-4.3-6.93-11.35-4.43-16.58c0.08-0.18-0.3-0.29-0.44-0.11
					c-2.21,2.88-3.08,5.48-2.25,8.66c0.14,0.54,0.32,1.14,0.54,1.76c-0.44-0.55-0.86-1.1-1.25-1.67c-1.8-2.64-0.75-6.14,0.65-8.74
					c0.14-0.27-0.46-0.43-0.66-0.17c-3.64,4.89-3.68,12.04,4.02,15.63c0.09,0.04,0.19,0.05,0.29,0.06c0.72,0.7,1.57,1.31,2.59,1.75
					C103.35,23.8,104.2,23.33,103.68,22.96z"/>
				<path class="st2" d="M174.98,21.25c-2.33-2.67-4.7-5.06-5.36-8.13c-0.52-2.42-0.02-4.61,1.2-6.92c0.25-0.46,1.15-1.24,0.95-1.82
					c-0.04-0.11-0.2-0.21-0.4-0.19c-2.96,0.33-4.07,5.87-4.04,7.3c0.07,3.55,1.78,8.11,7.04,10.06
					C174.67,21.65,175.19,21.49,174.98,21.25z"/>
				<path class="st2" d="M181,21.12c-4.92-4.73-9.08-10.73-5.53-16.36c0.16-0.25-0.41-0.38-0.61-0.16
					c-4.19,4.62-2.75,14.32,5.47,17.07C180.88,21.86,181.27,21.39,181,21.12z"/>
				<path class="st2" d="M259.36,10.17c-0.56-2.29,0.19-4.43,0.05-6.69c-0.02-0.3-0.67-0.29-0.85-0.07
					c-3.22,3.83-1.12,10.82,3.17,14.05c0.29,0.22,0.84,0.01,0.69-0.25C261.09,14.9,259.96,12.6,259.36,10.17z"/>
				<path class="st2" d="M259.13,20.42c-3.76-4.94-6.21-11.3-4.96-16.75c0.08-0.34-0.7-0.38-0.83-0.07
					c-1.27,3.06-0.84,6.16,0.04,9.24c0.74,2.62,1.77,5.95,4.59,8C258.45,21.19,259.47,20.86,259.13,20.42z"/>
				<path class="st2" d="M256.64,21.08c-2.1-2.72-3.69-5.11-4.66-8.11c-0.96-2.96-0.25-6.02-0.12-9.01
					c0.02-0.34-0.76-0.42-0.86-0.07c-1.7,5.36-3.03,13.69,4.42,17.78C256.02,22,256.98,21.51,256.64,21.08z"/>
				<path class="st2" d="M308.48,7.24c-0.16-1.21,0.4-4.1-0.95-5.04c-0.16-0.11-0.48-0.07-0.51,0.09
					c-0.81,4.04-0.65,9.39,2.46,13.04c0.19,0.23,0.77,0.15,0.72-0.12C309.67,12.55,308.83,9.92,308.48,7.24z"/>
				<path class="st2" d="M314.24,10.6c-0.26-2.76,0.28-5.53-0.14-8.27c-0.05-0.33-0.86-0.32-0.93,0
					c-1.35,5.46-1.71,12.07,1.86,17.24c0.14,0.21,0.62,0.11,0.6-0.1C315.32,16.5,314.51,13.56,314.24,10.6z"/>
				<path class="st2" d="M310.82,9.89c-0.36-2.32,0.26-4.67,0.17-6.99c-0.01-0.31-0.76-0.28-0.85,0
					c-1.42,4.49-1.52,10.73,2.51,14.75c0.16,0.16,0.62,0.04,0.55-0.14C312.1,14.99,311.22,12.5,310.82,9.89z"/>
				<path class="st2" d="M359.46,10.39c-0.38-2.76,0.98-5.7-0.07-8.41c-0.12-0.32-0.93-0.37-0.99,0c-0.76,5.37-2.9,13.21,3.22,17.77
					c0.51,0.38,1.41,0.02,1.16-0.42C361.12,16.32,359.9,13.57,359.46,10.39z"/>
				<path class="st2" d="M363.88,11.19c-0.4-2.96,0.51-5.86,0.45-8.81c-0.01-0.37-0.87-0.31-0.99,0
					c-1.87,4.88-4.16,13.48,2.48,17.46c0.43,0.26,1.3-0.05,1.14-0.41C365.78,16.64,364.27,14.13,363.88,11.19z"/>
				<path class="st2" d="M433.4,11.28c-0.09-3.11-1.24-8.54-5.75-10.46c-0.28-0.12-0.68,0.05-0.53,0.25
					c2.12,2.91,2.94,6.18,3.55,9.33c0.51,2.63-1.56,5.41-0.95,7.88c0.06,0.26,0.56,0.48,0.98,0.34
					C434.17,17.47,433.47,13.29,433.4,11.28z"/>
				<path class="st2" d="M433.69,1.1c-0.44-0.34-1.29-0.02-1.05,0.38c3.19,5.21,4.77,10.5,2.17,15.97c-0.12,0.24,0.4,0.48,0.66,0.24
					C440.76,12.85,439.45,5.56,433.69,1.1z"/>
				<path class="st2" d="M493.03,7.17c-0.33-2.33-1.13-5.59-4.43-7.09c-0.55-0.25-1.16,0.17-0.81,0.5c4.97,4.69,3.5,11.43,2.38,16.6
					c-0.13,0.6,1.36,0.88,1.69,0.29C493.67,14.08,493.53,10.66,493.03,7.17z"/>
				<path class="st2" d="M486.61,0.16c-0.38-0.3-1.07-0.01-0.89,0.33c0.84,1.6,2.05,2.99,2.65,4.67c0.62,1.73,0.44,3.52,0.7,5.27
					c0.09,0.6,1.6,0.6,1.72,0C491.47,6.74,490.41,3.12,486.61,0.16z"/>
			</g>
			<g>
				<path class="st3" d="M507.48,7.26c-0.74-1.65-2.2-2.87-4.11-3.8c-1.61,1.92-4.37,3.44-8.01,3.93
					c-6.29,0.84-13.19,0.26-19.58,0.2C456.76,7.4,437.75,7.74,418.74,8c-19.18,0.26-38.36,0.51-57.53,0.8
					c-19.49,0.3-38.98,0.58-58.46,0.88c-16.06,0.25-32.12,0.49-48.18,0.73c-8.82,0.13-44.66,0.3-51.67,0.39
					c-19.13,0.25-38.25,0.52-57.38,0.77c-18.82,0.26-37.64,0.55-56.46,0.83c-18.66,0.28-37.33,0.48-55.95,1.2
					c-6.26,0.24-12.98,1.01-19.22,0.35c-3.85-0.4-6.8-1.99-8.48-4.01c-2.49,1.02-4.33,2.46-5.07,4.49
					c-1.55,4.24,2.57,9.22,9.87,9.99c6.32,0.67,13.13-0.11,19.48-0.36c18.88-0.73,37.8-0.93,56.71-1.23
					c19.08-0.29,38.15-0.59,57.23-0.85c19.39-0.26,38.77-0.53,58.16-0.79c7.1-0.09,43.43-0.26,52.37-0.4
					c16.28-0.24,32.55-0.48,48.83-0.74c19.75-0.31,39.5-0.6,59.26-0.9c19.44-0.29,38.88-0.55,58.31-0.81
					c19.26-0.26,38.54-0.61,57.81-0.42c6.48,0.06,13.47,0.66,19.85-0.2C505.58,16.72,509.39,11.53,507.48,7.26z"/>
			</g>
			<g>
				<path class="st3" d="M432.9,14.98c-20.88,0.29-41.76,0.56-62.64,0.88c-21.22,0.33-42.44,0.64-63.65,0.97
					c-17.49,0.28-34.97,0.54-52.46,0.8c-9.6,0.14-48.62,0.32-56.25,0.43c-20.83,0.27-41.65,0.57-62.48,0.85
					c-20.49,0.28-40.98,0.6-61.47,0.91c-20.31,0.31-40.64,0.53-60.92,1.31c-3.27,0.13-6.66,0.38-10.06,0.54
					c1.75,1.4,4.21,2.43,7.21,2.75c6.32,0.67,13.13-0.11,19.48-0.36c18.88-0.73,37.8-0.93,56.71-1.23
					c19.08-0.29,38.15-0.59,57.23-0.85c19.39-0.26,38.77-0.53,58.16-0.79c7.1-0.09,43.43-0.26,52.37-0.4
					c16.28-0.24,32.55-0.48,48.83-0.74c19.75-0.31,39.5-0.6,59.26-0.9c19.44-0.29,38.88-0.55,58.31-0.81
					c19.26-0.26,38.54-0.61,57.81-0.42c6.48,0.06,13.47,0.66,19.85-0.2c2.98-0.4,5.36-1.49,7.03-2.93
					c-3.45-0.06-6.91-0.22-10.25-0.25C474.29,14.33,453.59,14.7,432.9,14.98z"/>
			</g>
		</g>
		<g class="st4">
			<path class="st5" d="M16.24,9.17c-2.56-0.28-4.87,0.15-7.33,0.51c-0.96,0.14-1.1,1.04,0,1.12c0.97,0.07,1.91-0.06,2.88-0.08
				c1.44-0.03,3.03-0.17,4.45-0.32C17.35,10.27,17.37,9.29,16.24,9.17z"/>
			<path class="st5" d="M23.92,8.55c-1.01-0.23-2.05-0.1-3.1-0.02c-1.03,0.08-1.03,1.05,0,1.12c1.05,0.08,2.09,0.21,3.1-0.02
				C24.68,9.45,24.67,8.73,23.92,8.55z"/>
			<path class="st5" d="M89.22,7.8c-7.66-0.59-15.69-0.1-23.38,0.08c-7.03,0.17-14.38-0.22-21.27,0.73c-0.36,0.05-0.39,0.37,0,0.41
				C51,9.67,58.06,9.35,64.56,9.26c8.11-0.11,16.62,0.25,24.66-0.46C90.12,8.72,90.14,7.88,89.22,7.8z"/>
			<path class="st5" d="M158.99,7.11c-7.59-0.92-16.48,0.14-24.24,0.19c-9.72,0.07-19.34-0.01-29.02,0.52
				c-0.43,0.02-0.44,0.46,0,0.47c9,0.31,18.1,0.6,27.11,0.67c8.42,0.06,17.91,0.47,26.15-0.64C160.08,8.17,160.12,7.25,158.99,7.11z
				"/>
			<path class="st5" d="M247,5.15c-10.3-0.88-21.42,0.09-31.8,0.2c-10.21,0.11-21.11-0.1-31.16,1.05c-0.47,0.05-0.53,0.53,0,0.54
				c9.9,0.18,19.6,0.36,29.53,0.17c11.02-0.21,22.52,0.32,33.43-0.75C248.1,6.26,248.13,5.25,247,5.15z"/>
			<path class="st5" d="M298.2,4.9c-4.92-0.35-9.97-0.13-14.92-0.11c-5.12,0.02-10.43,0.57-15.5,0.49c-0.52-0.01-0.63,0.44-0.11,0.5
				c4.3,0.56,9.14,0.19,13.51,0.25c5.61,0.07,11.43,0.29,17.01-0.1C299.14,5.86,299.14,4.97,298.2,4.9z"/>
			<path class="st5" d="M353.87,4.64c-10.68-1.23-21.61,0.19-32.28,0.02c-0.38-0.01-0.46,0.31-0.08,0.36
				c5.2,0.67,10.88,0.48,16.18,0.5c5.4,0.02,10.81,0.59,16.17-0.03C354.65,5.41,354.65,4.73,353.87,4.64z"/>
			<path class="st5" d="M415.5,4.05c-15.78-1.07-31.64,0.05-47.46-0.29c-1.04-0.02-1.29,0.93-0.22,1
				c6.96,0.48,14.68,0.72,21.69,0.46c8.66-0.33,17.35,0.05,25.99-0.51C416.1,4.67,416.1,4.09,415.5,4.05z"/>
			<path class="st5" d="M426.93,3.85c-2.01-0.72-4.35-0.74-6.59-0.47c-0.93,0.11-1.05,1.05,0,1.08c2.06,0.07,4.12,0.54,6.19,0.32
				C427.17,4.71,427.61,4.09,426.93,3.85z"/>
			<path class="st5" d="M478.46,2.29c-11.88-0.64-24.07-0.31-35.88,0.56c-0.28,0.02-0.29,0.29,0,0.31
				c11.59,0.8,24.26,0.49,35.87-0.13C479.13,2.99,479.13,2.32,478.46,2.29z"/>
			<path class="st5" d="M500.2,2.79c-1.64-0.65-3.43-0.76-5.34-0.67c-0.78,0.04-0.77,0.79,0,0.84c1.65,0.12,3.19,0.5,4.85,0.57
				C500.31,3.55,500.82,3.03,500.2,2.79z"/>
		</g>
	</g>
	<g>
		<g>
			<path class="st2" d="M46.02,57.5c-1.75-3.65-3.87-7.19-4.77-10.98c-0.84-3.53-0.41-7.1-0.5-10.65c-0.01-0.41-0.96-0.34-1.09,0
				c-2.82,7.21-0.12,15.44,4.62,22.09C44.79,58.66,46.36,58.21,46.02,57.5z"/>
			<path class="st2" d="M60.4,60.16c-2.92-3.49-5.5-6.81-6.77-10.7c-1.19-3.64-0.65-7.45-1.02-11.14c-0.06-0.58-1.57-0.58-1.64,0
				c-1,7.85-1.04,16.12,7.77,22.45C59.43,61.26,60.93,60.79,60.4,60.16z"/>
			<path class="st2" d="M72.38,56.56c-1.81-3.09-3.79-5.99-4.86-9.23c-1.17-3.54-0.73-7.13-0.87-10.72c-0.02-0.57-1.54-0.56-1.63,0
				c-1.08,6.98-0.91,14.52,5.81,20.51C71.45,57.66,72.72,57.13,72.38,56.56z"/>
			<path class="st2" d="M73.41,109.48c-4.48-5.84-5.51-11.45-7.26-17.69c-0.1-0.35-0.92-0.28-0.88,0.07
				c0.63,6.37,1.57,12.39,6.99,18.03C72.65,110.3,73.73,109.9,73.41,109.48z"/>
			<path class="st2" d="M86.08,107.82c-2.28-3.66-4.74-7.16-5.91-11.04c-0.8-2.65-0.7-5.88-2.68-8.33
				c-0.31-0.39-1.37-0.25-1.24,0.21c0.91,3.11,1.23,6.3,2.1,9.42c0.99,3.57,3.42,6.96,6.12,10.15
				C84.99,108.85,86.49,108.48,86.08,107.82z"/>
			<path class="st2" d="M99.88,109.72c-4.59-6.14-6.19-12.9-7.38-19.57c-0.11-0.62-1.76-0.64-1.8,0
				c-0.43,6.54,1.83,14.39,7.15,20.11C98.54,110.99,100.49,110.54,99.88,109.72z"/>
			<path class="st2" d="M108.49,85.05c-3-3.38-5.33-6.45-6.64-10.25c-1.39-4.04-1.83-8.12-2.55-12.21c-0.08-0.43-1.19-0.44-1.25,0
				c-1.07,7.72,1.51,16.65,8.82,23.05C107.49,86.17,109.01,85.63,108.49,85.05z"/>
			<path class="st2" d="M118.9,86.26c-2.15-3.88-4.5-7.66-5.78-11.69c-1.17-3.7-1.52-7.47-2.57-11.17
				c-0.15-0.55-1.49-0.44-1.38,0.11c1.51,8.14,2.15,15.65,8.41,23.1C118.01,87.11,119.2,86.8,118.9,86.26z"/>
			<path class="st2" d="M131.51,82.08c-2.21-4.79-4.88-9.59-5.95-14.55c-0.09-0.42-1.2-0.44-1.23,0c-0.38,4.92,2.22,10.53,5.6,14.97
				C130.41,83.13,131.8,82.72,131.51,82.08z"/>
			<path class="st2" d="M132.48,63.61c-1.28-3.03-3.09-5.93-3.81-9.05c-0.86-3.71-1.48-7.45-2.24-11.17
				c-0.12-0.6-1.56-0.47-1.49,0.12c0.83,7.01,0.86,13.93,5.93,20.37C131.27,64.37,132.73,64.2,132.48,63.61z"/>
			<path class="st2" d="M147.66,63.78c-2.58-3.58-4.85-7.02-6.21-10.88c-1.07-3.03-1.22-6.19-2.96-9.12
				c-0.21-0.36-1.17-0.2-1.05,0.18c2.15,6.99,1.74,14.32,8.51,20.44C146.59,64.99,148.12,64.41,147.66,63.78z"/>
			<path class="st2" d="M154.2,43.69c-0.13-0.28-0.9-0.15-0.8,0.13c2.11,6.09,2.79,12.37,6.04,18.31c0.28,0.51,1.62,0.27,1.47-0.25
				C159.09,55.81,156.97,49.64,154.2,43.69z"/>
			<path class="st2" d="M213.97,77.17c0.07-0.45-0.96-0.53-1.11-0.09c-1.99,5.93-1.48,12.39,1.15,18.21
				c0.29,0.65,2.1,0.34,1.87-0.32C213.83,89.11,213.02,83.14,213.97,77.17z"/>
			<path class="st2" d="M224.05,77.96c0-0.67-1.85-0.67-1.9,0c-0.57,6.85-0.12,14.09,3.48,20.63c0.33,0.6,1.84,0.32,1.7-0.29
				C225.82,91.48,224.06,84.88,224.05,77.96z"/>
			<path class="st2" d="M247.09,95.96c-3.94-6.6-5.62-13.19-6.63-20.17c-0.09-0.64-1.58-0.48-1.56,0.13
				c0.24,6.92,1.04,14.28,6.41,20.51C245.88,97.1,247.53,96.69,247.09,95.96z"/>
			<path class="st2" d="M255.06,54.9c-0.01-0.34-0.95-0.34-0.97,0c-0.38,7.89-0.75,15.42,1.93,23.2c0.21,0.61,1.7,0.51,1.58-0.13
				C256.12,70.21,255.31,62.72,255.06,54.9z"/>
			<path class="st2" d="M269.4,52.93c0.16-0.54-1.11-0.61-1.33-0.11c-3.11,7.14-3.08,15.33-0.48,22.53
				c0.22,0.61,1.57,0.49,1.54-0.13C268.77,67.72,267.17,60.41,269.4,52.93z"/>
			<path class="st2" d="M283.15,63.22c-0.46-4.1-0.05-8.25-0.1-12.36c-0.01-0.52-1.32-0.48-1.44,0c-1.99,8.61-1.74,17.7,3.83,25.78
				c0.38,0.55,1.82,0.32,1.65-0.28C285.81,71.92,283.66,67.76,283.15,63.22z"/>
			<path class="st2" d="M346.41,79.88c0.59-4.19,2.29-8.32,3.25-12.48c0.12-0.52-1.11-0.61-1.3-0.11c-3.31,8.68-6.83,17.12-3.26,26
				c0.34,0.85,2.42,0.72,2.24-0.18C346.4,88.64,345.78,84.39,346.41,79.88z"/>
			<path class="st2" d="M360.23,71.33c0.11-0.64-1.41-0.76-1.59-0.14c-2.24,7.81-4.04,15.7-1.56,23.58
				c0.21,0.69,1.79,0.55,1.73-0.14C358.19,86.72,358.87,79.18,360.23,71.33z"/>
			<path class="st2" d="M377.3,78.77c0.2-3.66,1.27-7.35,0.8-11c-0.06-0.49-1.2-0.37-1.2,0.1c0.07,3.98-1.66,8.03-2.08,12.02
				c-0.42,3.96-0.34,8,0.85,11.91c0.22,0.72,1.84,0.56,1.8-0.15C377.24,87.34,377.05,83.07,377.3,78.77z"/>
			<path class="st2" d="M434.77,68.84c-4.25,7.39-6.01,15.69-5.07,23.51c0.06,0.48,1.32,0.48,1.38,0c0.48-3.92,0.39-7.84,1.21-11.74
				c0.81-3.85,3.12-7.73,3.44-11.6C435.77,68.67,434.98,68.49,434.77,68.84z"/>
			<path class="st2" d="M447.16,70.05c-2.15,8.44-5.75,16.68-4.24,25.32c0.13,0.74,2.12,0.77,2.15,0c0.14-4.48,0.34-8.92,1.16-13.37
				c0.72-3.94,2.27-7.85,2.42-11.82C448.67,69.59,447.32,69.44,447.16,70.05z"/>
			<path class="st2" d="M383.63,106.64c0.21-2.78,0.91-5.56,1.02-8.34c0.01-0.31-0.62-0.43-0.85-0.14
				c-1.96,2.42-1.69,5.69-1.98,8.33c-0.36,3.36,0.21,6.47,1.38,9.77c0.23,0.63,1.8,0.53,1.65-0.14
				C384.08,112.93,383.38,109.89,383.63,106.64z"/>
			<path class="st2" d="M397.05,99c0.14-0.4-0.82-0.52-1.07-0.18c-3.86,5.23-2.93,12.67-0.4,18.02c0.25,0.53,1.69,0.28,1.52-0.25
				C395.32,110.91,395.02,104.69,397.05,99z"/>
			<path class="st2" d="M411.47,99.25c-0.09-0.43-1.24-0.45-1.26,0c-0.27,5.61-1.7,11.15,0.57,16.68c0.31,0.75,2.13,0.64,1.97-0.16
				C411.72,110.27,412.63,104.69,411.47,99.25z"/>
			<path class="st2" d="M393.72,52.52c0.39-3.46,1.77-6.77,2.67-10.18c0.1-0.36-0.77-0.42-0.9-0.08
				c-2.82,7.43-5.64,14.49-1.64,22.03c0.23,0.43,1.35,0.23,1.24-0.21C394.06,60.23,393.28,56.43,393.72,52.52z"/>
			<path class="st2" d="M410.31,52.66c0.2-3.13,1.02-6.25,1.01-9.38c0-0.47-1.28-0.46-1.33,0c-0.86,7.53-3.84,14.76-0.22,22.24
				c0.32,0.65,1.97,0.34,1.84-0.31C410.7,60.99,410.04,56.93,410.31,52.66z"/>
			<path class="st2" d="M428.19,43.63c0.02-0.61-1.49-0.76-1.54-0.13c-0.62,7.4-4.36,14.73-2.11,22.2c0.2,0.66,1.74,0.53,1.66-0.14
				C425.35,58.1,427.9,51.01,428.19,43.63z"/>
		</g>
		<path class="st2" d="M149.57,25.63c-10.22,1.38-20.33,2.04-30.81,1.65c-0.52-0.02-0.62,0.43-0.11,0.49
			c10.05,1.22,21.82,1.47,31.43-1C151.05,26.51,150.65,25.48,149.57,25.63z"/>
		<path class="st2" d="M154.16,32.2c-11.02,1.36-23.96,3.62-35.23,1.82c-0.45-0.07-0.58,0.35-0.21,0.46
			c4.58,1.35,10.37,1.19,15.35,1.17c6.89-0.02,14.19-0.76,20.54-2.42C155.51,33,155.15,32.08,154.16,32.2z"/>
		<path class="st2" d="M117.17,42.8c-9.92,1.18-19,1.44-29.06,0.35c-0.43-0.05-0.63,0.38-0.21,0.46c9.34,1.81,20.57,3.01,29.76,0.32
			C118.62,43.65,118.28,42.66,117.17,42.8z"/>
		<path class="st2" d="M119.09,51.72c-9.58,0.77-19.75,1.18-29.38,0.51c-0.5-0.04-0.74,0.44-0.24,0.54
			c8.79,1.76,21.3,1.86,30.2,0.27C120.91,52.81,120.3,51.62,119.09,51.72z"/>
		<path class="st2" d="M118.07,59.61c-9.44,0.32-18.08,0.8-27.48-0.43c-0.52-0.07-0.72,0.43-0.24,0.55
			c8.36,2.04,19.58,2.8,28.15,0.86C119.43,60.38,118.96,59.58,118.07,59.61z"/>
		<path class="st2" d="M168.93,65.66c-11.84,1.7-23.09,2.82-35.31,2.59c-1.16-0.02-1.44,1.06-0.25,1.12
			c12.05,0.58,24.75,0.35,36.11-2.46C170.57,66.64,170.11,65.49,168.93,65.66z"/>
		<path class="st2" d="M165.76,75.84c-10.43,0.8-21.11,1.98-31.62,0.85c-0.87-0.09-1.27,0.76-0.41,0.93
			c9.67,1.88,23.12,1.62,32.62-0.47C167.54,76.89,166.97,75.75,165.76,75.84z"/>
		<path class="st2" d="M164.68,85.43c-8.61,1.12-19.19,3.41-28.1,2.43c-0.72-0.08-1.03,0.61-0.34,0.76
			c8.51,1.85,20.88-0.06,29.09-1.72C166.67,86.63,166.05,85.25,164.68,85.43z"/>
		<path class="st2" d="M135.03,91.91c-10.85-0.07-21.68,1.22-32.49-0.28c-0.4-0.06-0.56,0.34-0.19,0.42
			c9.83,2.32,22.5,2.71,32.67,1.04C135.98,92.93,136.23,91.91,135.03,91.91z"/>
		<path class="st2" d="M137.92,97.86c-10.27,0.77-20.44,1.53-30.76,0.7c-0.75-0.06-0.86,0.6-0.16,0.71
			c10.47,1.56,20.67,1.26,31.23,0.05C139.73,99.14,139.44,97.74,137.92,97.86z"/>
		<path class="st2" d="M137.61,104.26c-10.33,1.06-20.43,2.69-30.98,1.59c-0.62-0.06-0.91,0.55-0.29,0.66
			c9.94,1.78,22.13,1,31.72-1.25C138.94,105.05,138.55,104.16,137.61,104.26z"/>
		<path class="st2" d="M82.31,65.37c-11.62,0.13-22.99,1.69-34.69,0.81c-0.74-0.06-0.83,0.57-0.15,0.68
			c10.58,1.71,24.79,1.28,35.27-0.53C83.71,66.17,83.16,65.36,82.31,65.37z"/>
		<path class="st2" d="M80.96,75.24c-8.94-0.74-17.86-0.64-26.81-1.13c-0.73-0.04-0.88,0.62-0.15,0.69
			c8.65,0.88,17.97,1.39,26.73,1.48C81.79,76.3,82.08,75.33,80.96,75.24z"/>
		<path class="st2" d="M83.03,83.68c-9.09,0.43-17.59,0.97-26.75,0.43c-0.95-0.06-1.14,0.81-0.2,0.91
			c8.89,0.96,18.71,1.56,27.34-0.47C84.23,84.36,83.84,83.64,83.03,83.68z"/>
		<path class="st2" d="M240.65,59.43c-12.42,0.26-24.56,0.54-37,0.16c-0.6-0.02-0.74,0.51-0.13,0.58
			c11.98,1.29,25.35,1.76,37.32,0.16C241.78,60.2,241.59,59.41,240.65,59.43z"/>
		<path class="st2" d="M247.9,67.21c-7.98,0.13-15.92,0.66-23.9,0.83c-7.37,0.16-14.94-0.36-22.29-0.71
			c-0.65-0.03-0.78,0.54-0.14,0.62c14.91,1.91,31.59,1.9,46.56,0.29C249.22,68.12,248.97,67.19,247.9,67.21z"/>
		<path class="st2" d="M243.32,74c-13.91,0.68-28.7,1.49-42.6,0.5c-0.63-0.04-0.72,0.5-0.13,0.59c6.04,0.88,12.45,0.78,18.62,0.72
			c8.01-0.07,16.4-0.15,24.27-1.09C244.23,74.63,244.09,73.96,243.32,74z"/>
		<path class="st2" d="M282.21,34.27c-5.47-0.04-10.91,0.35-16.4,0.28c-5.11-0.07-10.44-0.55-15.52-0.9
			c-0.43-0.03-0.5,0.35-0.09,0.41c10.4,1.46,21.41,2.66,32.01,1.27C283.1,35.21,283.25,34.28,282.21,34.27z"/>
		<path class="st2" d="M281.45,39.99c-10.87,0.13-21.68,0.87-32.4-0.73c-0.51-0.08-0.71,0.43-0.24,0.54
			c10.1,2.38,22.3,2.19,32.81,1.01C282.5,40.72,282.3,39.98,281.45,39.99z"/>
		<path class="st2" d="M284.22,45.22c-14.5,1.95-28.18,2.35-42.86,0.9c-0.48-0.05-0.54,0.37-0.1,0.45
			c14.17,2.37,29.28,2.15,43.41-0.34C285.59,46.07,285.16,45.1,284.22,45.22z"/>
		<path class="st2" d="M385.45,46.07c-7.69,0.48-15.13,0.9-22.88,0.55c-6.83-0.31-13.42-1.22-20.09-2.11
			c-0.63-0.08-0.89,0.53-0.3,0.67c13.64,3.07,29.26,4.37,43.51,2.02C386.81,47.02,386.67,46,385.45,46.07z"/>
		<path class="st2" d="M380.9,54.36c-11.76,0.69-23.23,0.53-34.85-0.92c-0.59-0.07-0.85,0.52-0.28,0.63
			c10.99,2.2,24.09,3.33,35.39,1.48C382.35,55.36,382.19,54.28,380.9,54.36z"/>
		<path class="st2" d="M387.11,61.69c-14.34,2.83-29.4,3.02-44.18,1.26c-1.03-0.12-1.18,0.81-0.22,0.97
			c14.16,2.31,31.6,2.74,45.17-1.11C389.05,62.47,388.31,61.45,387.11,61.69z"/>
		<path class="st2" d="M469.7,42.98c-10.04-0.11-20.36,0.21-30.31-0.74c-0.72-0.07-0.82,0.57-0.15,0.67
			c9.72,1.46,20.48,1.58,30.45,1.29C470.81,44.16,470.82,42.99,469.7,42.98z"/>
		<path class="st2" d="M462.98,50.4c-7.54,0.5-15.2,1.04-22.75,0.26c-0.84-0.09-0.97,0.67-0.17,0.79
			c7.46,1.11,15.67,0.94,23.17,0.09C464.4,51.4,464.17,50.32,462.98,50.4z"/>
		<path class="st2" d="M460.23,60.16c-8.67,1.05-16.63,2.33-25.51,1.14c-0.64-0.08-0.91,0.55-0.3,0.68
			c8.62,1.89,17.9,1.42,26.29-0.74C461.65,61,461.26,60.03,460.23,60.16z"/>
		<path class="st2" d="M421.04,68.9c-9.7,0.27-20.29,1.12-29.9,0.06c-0.59-0.06-0.86,0.52-0.28,0.63c4.56,0.82,9.42,0.9,14.15,0.94
			c5.45,0.04,10.9,0.22,16.3-0.34C422.66,70.04,422.37,68.86,421.04,68.9z"/>
		<path class="st2" d="M418.29,79.94c-10.8-0.24-21.45-0.34-32.07-1.79c-0.84-0.11-1.22,0.75-0.4,0.9
			c10.66,1.96,21.39,2.44,32.46,2.15C419.44,81.17,419.45,79.96,418.29,79.94z"/>
		<path class="st2" d="M417.46,90.96c-10.66,0.48-20.96,0.24-31.38-1.34c-0.81-0.12-1.17,0.71-0.38,0.87
			c10.11,2.06,21.54,2.89,32.04,1.74C419.06,92.08,418.8,90.9,417.46,90.96z"/>
	</g>
	<g class="st6">
		<path class="st0" d="M280.58,35.88c1.44,0.1,2.88,1.32,1.37,2.04c-3.36,1.63-8.23,1.68-12.37,1.75
			c-5.5,0.08-11.17-0.45-16.33-1.61c-0.37-0.08-0.63-0.22-0.84-0.37c-1.92-0.45-0.9-2.45,1.4-2.22c5.34,0.53,10.69,0.8,16.1,0.76
			C273.44,36.19,277.08,35.63,280.58,35.88z"/>
		<path class="st0" d="M265.7,76.61c0.25,0.55-0.15,1-0.76,1.26c-0.5,0.86-2.48,1.18-3.45,0.24c-4.19-4.04-4.75-10.1-4.6-14.75
			c0.08-2.45-0.16-7.74,4.41-8.84c0.66-0.16,1.4,0.05,1.89,0.31c2.18,1.17,1.48,3.92,1.16,5.46
			C263.09,66.13,263.15,70.86,265.7,76.61z"/>
		<path class="st0" d="M254.5,45.79c-3.06-0.15-8.21-1.22-9.11-3.31c-1.2-0.83,0.56-2.38,2.55-1.79c9.27,2.78,20.95,2.04,30.87,1.5
			c2.23-0.12,2.58,2,0.52,2.35C271.43,45.89,262.64,46.18,254.5,45.79z"/>
		<path class="st0" d="M275.12,53.26c1.12-0.61,2.77-0.36,3.24,0.53c1.23,2.27,0.01,4.4-1.03,6.6c-0.72,3.16-1.03,6.4,0.06,9.54
			c0.79,2.28,2.35,4.33,3.24,6.57c0.43,1.09-1.33,1.77-2.85,1.35c-6.12-1.7-7.92-7.43-8.04-11.11
			C269.59,62.72,269.8,56.14,275.12,53.26z"/>
		<path class="st0" d="M152.3,50.26c0.35,2.5,0.77,4.96,1.4,7.43c0.31,1.21,0.41,2.4-0.33,3.54c-0.44,0.68-1.71,1.18-2.85,0.72
			c-5.62-2.27-6.4-8.34-6.6-12.39c-0.75-3.74-0.18-7.06,3.9-6.69C152.15,43.26,152.03,48.37,152.3,50.26z"/>
		<path class="st0" d="M159.64,74.75c-7.69,1.04-15.5,0.43-23.13-0.61c-0.46-0.06-0.79-0.19-1.01-0.35
			c-0.3-0.13-0.57-0.28-0.79-0.49c-0.71-0.66-0.1-1.43,0.67-1.94c0.08-0.05,0.18-0.08,0.27-0.13c0.26-0.35,0.81-0.6,1.66-0.56
			c5.64,0.26,10.89-0.15,16.48-0.52c4.79-0.32,9.07-1.33,13.73-1.77c1.33-0.12,2.32,0.32,2.46,1.16
			C170.52,72.87,163.84,74.18,159.64,74.75z"/>
		<path class="st0" d="M167.21,80.15c-4.11,6.98-23.31,6.04-30.72,2.04c-0.94-0.51-0.63-1.4,0.25-1.82
			c0.17-0.64,1.03-1.21,2.33-0.96c5.33,1.01,10.78,0.93,16.25,0.48c2.57-0.21,8.52-2.1,11-1.09
			C167.01,79.08,167.52,79.63,167.21,80.15z"/>
		<path class="st0" d="M129.8,51.67c-0.17-2.34-1.17-5.77,1.89-7.55c0.6-0.35,1.62-0.49,2.35-0.19c3.28,1.37,2.31,5.23,2.67,7.31
			c0.57,3.25,3.69,6.82,2.79,10.05c-0.15,0.53-0.86,0.8-1.63,0.84c-0.65,0.24-1.46,0.23-2.08-0.26
			C132.08,58.94,130.08,55.4,129.8,51.67z"/>
		<path class="st0" d="M120.92,28.78c5.24,1.02,10.99,0.78,16.44,0.78c3.52,0,7.09-0.82,10.55-0.42c1.45,0.17,1.86,1.41,0.86,2
			c-4.37,2.57-12.92,2.83-18.57,2.54c-3.17-0.16-9.04-0.87-11.11-2.64c-0.21-0.18-0.3-0.36-0.33-0.54
			C118.08,29.68,119.1,28.43,120.92,28.78z"/>
		<path class="st0" d="M124.18,84.33c-8.88,1.51-10.23-15.68-9.71-18.18c0.14-0.69,1.03-1.05,1.92-1.11
			c0.63-0.58,1.88-0.76,2.92-0.21c1.6,0.85,1.98,1.97,2.25,3.23c0.6,2.85,1.18,6.04,2.63,8.77
			C124.99,78.35,128.8,83.55,124.18,84.33z"/>
		<path class="st0" d="M119.7,56.35c-1.32,1.42-3.54,2.16-5.99,2.49c-7.42,1.97-18.52,0.55-23.74-2.51
			c-1.26-0.74-0.39-1.72,0.92-1.95c0.42-0.22,0.97-0.34,1.67-0.22c8.5,1.43,16.84,1.05,25.47,0.39
			C119.55,54.43,120.36,55.64,119.7,56.35z"/>
		<path class="st0" d="M116.63,48.68c-6.41,3.04-18.97,3.9-26.28,1.62c-1.68-0.53-4.43-2.11-1.76-3.13c0.01,0,0.03-0.01,0.04-0.01
			c0.09-0.67,1-1.35,2.39-1.18c8.13,0.98,16.41,0.29,24.63,0.47C117.73,46.49,118.11,47.98,116.63,48.68z"/>
		<path class="st0" d="M83.1,68.34c1.12,0,1.86,0.55,1.94,1.2c0.59,4.6-12.47,4.19-16.94,4.02c-3.43-0.13-14.44-0.04-16.31-2.7
			c-1.56-0.64-0.53-2.45,1.65-2.13C63.31,70.18,73.16,68.33,83.1,68.34z"/>
		<path class="st0" d="M54.84,40.19c0.08-0.14,0.22-0.24,0.38-0.32c0.23-0.36,0.5-0.69,0.84-0.99c0.61-0.52,1.44-0.96,2.47-1.08
			c0.77-0.29,1.62-0.3,2.28,0.39c1.08,1.14,0.59,3.05,0.81,4.29c0.44,2.48,1.05,4.95,2,7.38c0.5,1.29,2.87,4.93,0.7,6.06
			c-1.92,1-3.58,0.44-5.1-0.64C53.65,51.36,52.18,44.93,54.84,40.19z"/>
		<path class="st0" d="M45.88,55.28c-2.08-1.23-2.42-4.18-2.86-5.84c-0.81-3.04-1.01-6.01-0.1-9.05c0.03-0.09,0.08-0.15,0.14-0.21
			c0.3-1.06,0.98-2.03,2.54-2.52c4.2-1.35,4.06,10.22,4.12,11.07C49.77,49.59,51.04,58.33,45.88,55.28z"/>
		<path class="st0" d="M80.16,108.38c-0.14,1-2.05,1.64-3.31,0.85c-5.3-3.32-6.43-8.66-7.5-13.28c-0.21-0.63-0.37-1.27-0.46-1.89
			c-0.03-0.1-0.05-0.2-0.08-0.29c-0.02-0.08,0.01-0.15,0.01-0.22c-0.13-1.79,0.56-3.25,3.26-3.25c4.26,0,4.01,4.44,4.4,6.02
			C77.43,100.19,80.69,104.46,80.16,108.38z"/>
		<path class="st0" d="M80.4,81.55c-7.16,2.79-28.7,2.49-32.27-3.34c-0.31-0.5,0.13-1.01,0.8-1.29c-0.18-0.8,0.75-1.68,2.29-1.3
			c8.96,2.18,18.21,0.96,27.43,1.76C82.52,77.71,84.26,80.05,80.4,81.55z"/>
		<path class="st0" d="M88.67,107.62c-5.05-3.61-7.08-9.94-6.89-14.83c-0.04-1.11,0.11-2.19,0.58-3.19
			c0.65-1.37,2.64-3.16,5.36-2.17c2.88,1.04,1.72,3.75,1.74,5.38c0.02,3.02-0.28,6.38,1.06,9.32c0.71,1.56,1.35,3.03,1.46,4.64
			C92.05,107.77,89.77,108.41,88.67,107.62z"/>
		<path class="st0" d="M102.95,65.83c0.19-0.8,1.3-0.99,2.27-0.78c0.61-0.11,1.27-0.05,1.73,0.32c1.79,1.42,1.57,3.49,1.77,5.21
			c0.4,3.52,2.25,6.97,2.96,10.48c0.24,1.21-2.74,1.59-3.61,0.6C103.75,76.79,101.62,71.37,102.95,65.83z"/>
		<path class="st0" d="M106.92,93.45c7.08,2.18,15.57,0.55,23.05,1.09c1.31,0.09,2.62,0.98,1.68,1.8c-2.85,2.5-8.31,1.93-12.67,1.93
			c-4.72,0-11.26-0.05-14.29-2.71c-0.1-0.09-0.14-0.18-0.19-0.27C103.12,94.47,104.89,92.83,106.92,93.45z"/>
		<path class="st0" d="M104.35,101.65c-0.53-0.85,1.06-1.74,2.39-1.47c0.39,0.08,0.75,0.18,1.14,0.27c0.36-0.1,0.76-0.16,1.24-0.1
			c7.21,0.95,14.58,0.97,21.9,1.08c1.68,0.02,2.59,1.29,1.37,2.04c-3.99,2.47-11.95,1.91-16.99,1.71
			C110.96,105.01,106.15,104.54,104.35,101.65z"/>
		<path class="st0" d="M371.06,90.61c0.17,1.21,0.37,3.23-2.51,3.23c-2.83,0-4.9-2.81-5.92-4.05c-2.76-3.31-2.35-7.67-1.7-11.23
			c0.38-2.09,1.29-4.28,2.5-6.24c0.99-1.6,2.92-4.85,6.55-4.6c1.12,0.08,1.8,0.6,2.19,1.21c0.55,0.87,1,2.33,0.74,3.25
			c-0.18,0.64-0.34,1.28-0.5,1.93c-0.47,1.93-0.86,3.89-1.23,5.81c-0.42,2.25-0.56,4.51-0.47,6.77
			C370.75,87.99,370.88,89.3,371.06,90.61z"/>
		<path class="st0" d="M363.97,62.94c-6.2,0-20.11-0.07-21.28-5.27c-0.12-0.53,0.18-0.95,0.71-1.22c0.12-0.67,0.99-1.28,2.33-1
			c6.83,1.42,13.78,2.44,21.07,2.29c4.21-0.08,8.64-1.05,12.74-0.63c0.8,0.08,1.48,0.67,1.43,1.15
			C380.39,63.09,369.47,62.93,363.97,62.94z"/>
		<path class="st0" d="M354.34,89.13c0.12,1.17,0.26,2.33,0.37,3.5c0.09,0.98-2.26,1.67-3.31,0.85c-4.57-3.59-4.54-8.52-3.36-12.84
			c0.84-3.06,0.9-8.88,5.11-11.05c1.34-0.69,3.16-0.23,3.31,0.85c0.31,2.23-1.39,4.33-1.63,6.54c-0.04,0.35-0.08,0.7-0.13,1.06
			c-0.23,1.66-0.54,3.32-0.63,4.98C353.95,85.05,354.13,87.1,354.34,89.13z"/>
		<path class="st0" d="M365.23,53.73c-6.53-0.2-14.82-0.52-19.34-3.91c-0.21-0.16-0.34-0.33-0.4-0.5c-1.04-0.82-0.05-2.32,1.92-1.9
			c6.13,1.31,12.91,2.16,19.42,2.16c5.29,0,10.16-0.81,15.36-1.17c1.56-0.11,2.29,1.08,1.67,1.8
			C380.53,54.13,371.31,53.91,365.23,53.73z"/>
		<path class="st0" d="M390.21,117.33c-5.19-2.44-6.24-7.42-5.69-11.19c0.4-2.74,0.6-7.67,5-9.24c0.98-0.35,2.67-0.07,2.85,0.72
			c0.15,0.68,0.14,1.41,0.04,2.15c0.37,0.26,0.59,0.6,0.45,1.03c-0.95,3-2.08,6.31-1.06,9.37c0.69,2.06,1.49,4.02,1.34,6.13
			C393.07,117.1,391.46,117.91,390.21,117.33z"/>
		<path class="st0" d="M407.47,111.23c0.04,1.22,0.8,3.05,0.27,4.24c-0.49,1.1-1.9,2.38-4.05,1.7c-6.11-1.93-7.08-10.18-6.48-13.59
			c0.5-2.83,1.46-5.86,5.06-7.83c1.27-0.7,3.8-0.73,4.6,0.38c1.14,1.58,1.43,3.3,1.32,5.09c0.15,0.21,0.24,0.43,0.17,0.7
			C407.54,105.01,407.36,108.1,407.47,111.23z"/>
		<path class="st0" d="M410.3,88.8c-5.1,0.69-12.91-0.17-19.07-1.66c-5.99-0.96-10.3-2.57-6.8-5.09c0.43-0.31,1.27-0.42,1.89-0.31
			c0.84,0.16,1.66,0.36,2.48,0.56c5.02,0.77,10.06,0.79,15.27,0.82c4.91,0.03,10.54-0.72,15.29-0.17c0.61,0.07,1.24,0.46,1.36,0.84
			C421.69,86.82,413.97,88.3,410.3,88.8z"/>
		<path class="st0" d="M410.51,78.29c-8.06-0.17-16.4-0.98-22.93-4.12c-0.56-0.27-0.67-0.68-0.51-1.07
			c-0.64-0.82,0.38-2.05,2.19-1.7c6.04,1.18,12.77,0.75,19.04,0.96c4.92,0.16,10.2-0.36,15,0.06c0.84,0.07,1.43,0.67,1.43,1.15
			C424.67,77.24,414.98,78.38,410.51,78.29z"/>
		<path class="st0" d="M406.32,59.62c0.51,1.49,0.71,4.01-2.33,4.53c-7.12,1.21-8.54-9.68-8.55-11.81c0-1.86,1.84-13.52,9.27-10.84
			c1.45,0.52,1.99,1.3,2.06,2.18c0.67,0.24,1.1,0.68,0.79,1.28C404.99,49.89,404.62,54.57,406.32,59.62z"/>
		<path class="st0" d="M421.16,60.23c0.18,1.35,0.91,2.82-0.64,3.92c-0.59,0.42-1.61,0.42-2.35,0.19c-4.47-1.42-5.26-5.58-5.45-8.32
			c-0.27-4.04-0.76-9.38,2.57-13.04c0.8-0.89,2.08-1.15,3.22-0.97c0.62-0.28,1.34-0.35,2.17-0.14c3.62,0.91,2.32,5.44,1.08,8.71
			C421.07,53.8,420.71,56.88,421.16,60.23z"/>
		<path class="st0" d="M443.13,70.4c-2.27,5.56-1.15,11.36-1.79,17.01c-0.21,1.89,0.06,5.72-3.69,6.37
			c-0.61,0.1-1.47,0.01-1.89-0.31c-3.41-2.64-3.14-7.6-2.75-10.77c0.55-4.38,2.82-8.25,5.07-12.38c0.27-0.49,0.87-0.73,1.52-0.79
			C440.64,68.4,443.71,68.99,443.13,70.4z"/>
		<path class="st0" d="M470.93,53.65c-5.39,6.65-30.6,8.81-36.65,1.45c-0.12-0.12-0.25-0.24-0.33-0.37
			c-0.02-0.04-0.07-0.06-0.09-0.1c-0.08-0.11-0.08-0.23-0.08-0.34c-0.01-0.03-0.04-0.06-0.04-0.09c-0.12-1.14,1.1-1.77,2.52-1.95
			c0.16-0.03,0.34-0.04,0.52-0.04c0.78-0.03,1.58,0.07,2.24,0.3c9.67,1.63,20.29,1.29,29.72-0.61
			C470.47,51.54,471.64,52.77,470.93,53.65z"/>
		<path class="st0" d="M437.86,45.25c0.13-0.65,1.03-1.29,2.38-1.11c9.44,1.21,18.8,1.18,28.35,0.82c1.67-0.06,2.6,1.36,1.37,2.04
			c-7.52,4.2-24.55,3.95-32.08-0.12C437.04,46.42,437.21,45.7,437.86,45.25z"/>
		<path class="st0" d="M241.49,96.53c0.7,1.43-0.94,3.5-3.79,3.02c-10.64-1.79-12.71-12-11.87-17.51c0.32-2.09,0.95-4.96,4.59-5.87
			c2.47-0.62,5.76-0.6,6.63,1.34c0.86,1.9,0.26,3.79-0.26,5.69C236.12,88.1,239.24,91.95,241.49,96.53z"/>
		<path class="st0" d="M217.54,73.53c-4.94-0.16-11.62-0.2-15.5-2.41c-0.53-0.3-0.65-0.65-0.55-0.98c-0.51-0.84,0.48-1.98,2.21-1.59
			c12.83,2.87,25.4,1.03,38.57,1.1c2.23,0.01,2.59,1.95,0.52,2.35C234.83,73.54,225.83,73.8,217.54,73.53z"/>
		<path class="st0" d="M220.82,81.94c-1.04,5.09,0.8,9.34,1.94,14.32c0.24,1.02-1.87,2.23-3.24,1.17c-3.32-2.57-4.32-6.17-4.63-9.4
			c-0.25-2.56-1.25-6.73,0.72-9.23c1.17-1.49,3.71-1.51,5-0.09c0.72,0.79,0.42,1.98,0.17,2.86
			C220.81,81.69,220.85,81.8,220.82,81.94z"/>
		<path class="st0" d="M203.87,62.03c0.08,0,0.15,0.01,0.24,0.02c0.28-0.1,0.61-0.18,1.03-0.16c12.02,0.49,23.97,0.89,35.97,0
			c1.05-0.08,1.95,0.6,1.94,1.2c-0.04,3.89-10.38,3.54-14.6,3.64c-9,0.22-18.58,1.36-25.95-2.65
			C201.27,63.41,202.21,61.95,203.87,62.03z"/>
	</g>
	<g class="st6">
		<path class="st0" d="M15.69,22.25c6.94,17.06,24.79,59.83,35.55,75.98c13.57,20.37,7.24,29.3,52.02,32.09
			c38.52,2.4,117.84,1.29,151.36,0.76c33.52,0.54,112.84,1.65,151.36-0.76c44.78-2.79,38.45-11.72,52.02-32.09
			c10.76-16.15,30.02-65.55,36.97-82.61L15.69,22.25z M442.73,97.1c-2.32,1.7-4.99,3.26-8.06,4.67
			c-15.73,7.21-36.98,9.4-56.51,10.35c-11.16,0.54-22.36,0.61-33.55,0.69c-39.34,0.3-78.56,2.33-117.91,2.7
			c-18.53,0.17-37.07,0.14-55.59-0.08c-28.99-0.35-60.64,1.51-87.42-6.25c-16.89-4.89-27.94-14.25-35.05-24.09
			C38.16,70.6,16.69,33.78,65.66,35.43c13.79,0.47,27.41,0.58,41.23,0.64c42.6,0.21,85.19,0.92,127.79,0.41
			c12.33-0.15,24.66-0.39,36.98-0.78c43.54-1.38,106.77-3.86,150.39-4.59c13.02-0.22,29.39-1.75,41.59,1.44
			C488.71,39.11,451.9,90.42,442.73,97.1z"/>
	</g>
	<path class="st7" d="M174.78,41.73c-18.82,0.09-37.64,0.12-56.46,0.03c-13.74-0.07-31.53-1.71-44.54,1.12
		c-16.69,3.63-6.72,15.99-1.99,21.84c4.61,5.7,12.66,10.39,22.76,13.95c26.71,9.43,62.72,11.86,94.89,12.76
		c26.42,0.74,52.9,0.4,79.33-0.4c34.96-1.05,71.11-0.71,105.26-5.12c33.49-4.33,61.6-17.8,74.75-33.3c3.4-4,11.36-11.9,0.96-14.87
		c-11.31-3.23-140.57,3.07-190.41,3.43C231.14,41.38,202.96,41.6,174.78,41.73z"/>
	<g class="st4">
		<path class="st0" d="M445.39,111.73c-30.34,13.65-132.28,11.15-150.32,11.41c-36.24,0.51-72.5,0.6-108.74,0.52
			c-18.22-0.04-86.32-2.38-101.72-4.3c-9.97-1.24-19.15-3.6-26.31-7.78c6.01,11.14,10.94,16.66,44.39,18.74
			c38.52,2.4,117.84,1.29,151.36,0.76c33.52,0.54,112.84,1.65,151.36-0.76c36.48-2.28,39.04-8.62,46.07-21.91
			C449.58,109.6,447.59,110.74,445.39,111.73z"/>
		<path class="st0" d="M54.62,25.26c25.33-1.41,51.05-0.41,76.45-0.47c36.54-0.09,73.05-1.03,109.59-1.13
			c36.71-0.1,73.45,0.37,110.15-0.13c36-0.49,72.45-2.62,108.44-1.46c7.45,0.24,22.08-0.13,26.96,4.47
			c1.35,1.27,1.94,2.72,2.08,4.24c2.48-6.15,4.6-11.44,6.12-15.17L15.13,22.25c1.03,2.52,2.29,5.61,3.73,9.08
			c2.43-1.09,5.33-1.91,8.47-2.53C35.58,26.12,48.86,25.58,54.62,25.26z"/>
	</g>
</g>
</svg>
