<?xml version="1.0" encoding="utf-8"?>
<!-- Generator: Adobe Illustrator 24.1.1, SVG Export Plug-In . SVG Version: 6.00 Build 0)  -->
<svg version="1.1" id="Layer_1" xmlns="http://www.w3.org/2000/svg" xmlns:xlink="http://www.w3.org/1999/xlink" x="0px" y="0px"
	 viewBox="0 0 1380 1080" style="enable-background:new 0 0 1380 1080;" xml:space="preserve">
<style type="text/css">
	.st0{fill-rule:evenodd;clip-rule:evenodd;fill:url(#SVGID_1_);}
	.st1{fill-rule:evenodd;clip-rule:evenodd;fill:url(#SVGID_2_);}
	.st2{opacity:0.2;}
	.st3{fill-rule:evenodd;clip-rule:evenodd;fill:#D84F95;}
	.st4{opacity:0.61;fill:#AC3895;}
	.st5{fill:#FF003D;}
	.st6{fill:#FFB300;}
	.st7{fill:#8DFF00;}
	.st8{fill:#63B3FF;}
	.st9{fill-rule:evenodd;clip-rule:evenodd;fill:url(#SVGID_3_);}
	.st10{fill-rule:evenodd;clip-rule:evenodd;fill:url(#SVGID_4_);}
</style>
<linearGradient id="SVGID_1_" gradientUnits="userSpaceOnUse" x1="690.0411" y1="1088.5367" x2="690.0411" y2="-8.5916">
	<stop  offset="0" style="stop-color:#C9392E"/>
	<stop  offset="0.2524" style="stop-color:#C1302D"/>
	<stop  offset="0.6558" style="stop-color:#AC192C"/>
	<stop  offset="1" style="stop-color:#95002A"/>
</linearGradient>
<rect x="-187.66" y="-8.59" class="st0" width="1755.41" height="1097.13"/>
<g>
	<g>
		<linearGradient id="SVGID_2_" gradientUnits="userSpaceOnUse" x1="673.1302" y1="647.3475" x2="673.1302" y2="561.5541">
			<stop  offset="0" style="stop-color:#EA602E"/>
			<stop  offset="0.3756" style="stop-color:#EB692D"/>
			<stop  offset="0.9762" style="stop-color:#EF802A"/>
			<stop  offset="1" style="stop-color:#EF812A"/>
		</linearGradient>
		<path class="st1" d="M1384.22,561.55v83.52c0,0-49.95-0.25-132.81-0.57c-3.27,0-6.61-0.02-10.01-0.04c-4.75,0-9.6-0.02-14.54-0.05
			c-8.11-0.02-16.48-0.05-25.1-0.07c-7.18-0.02-14.54-0.05-22.08-0.07c-18.63-0.05-38.27-0.12-58.81-0.18
			c-34.68-0.09-71.93-0.18-111.16-0.27c-12.96-0.02-26.11-0.05-39.5-0.07h-0.02c-7.2-0.02-14.47-0.02-21.8-0.04h-0.02
			c-27.32-0.05-55.38-0.09-84.05-0.12c-7.66,0-15.36,0-23.11-0.02c-17.65-0.02-35.52-0.04-53.56-0.04
			c-54.43-0.04-110.42-0.04-166.98,0.04c0,0,0,0-0.02,0c-17.87,0-35.79,0.04-53.74,0.05c-4.18,0-8.34,0.02-12.52,0.02
			c-33.19,0.05-66.45,0.12-99.55,0.21c-46.35,0.12-92.39,0.28-137.63,0.48c-16.91,0.07-33.71,0.16-50.36,0.25
			c-9.17,0.05-18.29,0.11-27.36,0.16c-59.86,0.36-117.6,0.78-171.91,1.33c-10.42,0.11-20.69,0.21-30.84,0.32
			c-5.48,0.07-10.9,0.12-16.28,0.2c-5.39,0.05-10.72,0.12-16.02,0.18c-14.47,0.18-28.6,0.37-42.4,0.57v-78.84
			c0,0,34.26,2.06,95.96,4.71h0.02c9.24,0.39,19.11,0.8,29.56,1.21c5.35,0.21,10.86,0.43,16.52,0.64
			c33.9,1.32,73.3,2.67,117.51,3.91c17.6,0.5,35.96,1,55.06,1.46c15.4,0.37,31.25,0.73,47.57,1.07c8.16,0.18,16.44,0.34,24.85,0.48
			c6.15,0.12,12.37,0.25,18.65,0.36c27.84,0.5,56.83,0.91,86.88,1.26c1.74,0.02,3.48,0.04,5.24,0.05
			c7.41,0.07,14.88,0.16,22.42,0.23c0,0,0,0,0.02,0c24.8,0.23,50.24,0.39,76.3,0.5c0,0,0,0,0.02,0
			c55.54,0.21,113.83,0.12,174.45-0.41c36.6-0.32,74.04-0.8,112.23-1.46c9.08-0.14,18.22-0.32,27.39-0.5
			c31.47-0.59,63.39-1.32,95.75-2.19c0.02,0.02,0.04,0,0.05,0c13.67-0.36,27.43-0.75,41.24-1.16c65.12-1.94,131.78-4.44,199.59-7.59
			h0.02c16.76-0.78,33.58-1.6,50.49-2.47c4.11-0.21,8.23-0.43,12.36-0.64c17.74-0.92,35.54-1.88,53.4-2.92h0.02
			c8.16-0.46,16.34-0.94,24.53-1.42C1361.47,562.96,1372.83,562.27,1384.22,561.55z"/>
		<g class="st2">
			<path class="st3" d="M349.08,581.98c6.15,0.12,12.37,0.25,18.65,0.36c-2.24,0.46-4.44,0.92-6.6,1.94
				c-7.18,3.41-14.49,6.44-21.55,10.13c-3.32,1.74-6.56,3.91-9.65,6.06c-4.59,3.18-9.19,6.44-13.74,9.69
				c-16.27,11.63-34.45,19.22-53.42,25.35c-5.99,1.94-11.64,4.68-17.49,6.99c-1.94,0.76-3.88,1.51-5.8,2.26
				c-59.86,0.36-117.6,0.78-171.91,1.33c14.83-6.76,31.41-10.1,47.55-11.47c9.46-0.8,18.92-1.39,28.35-2.2
				c8.76-0.75,17.46-2.13,26.26-2.47c7.04-0.27,13.8-1.83,20.8-2.52c5.03-0.5,9.71-1.07,14.68-1.97c5.99-1.07,12-2.03,17.97-3.2
				c5.01-0.98,10.1-1.17,15.11-2.15c8.09-1.58,15.82-4.32,23.8-6.13c5.8-1.32,11.66-2.36,17.3-4.25c6.24-2.06,12.53-3.86,18.56-6.47
				c10.67-4.64,21.39-9.19,32.11-13.78c5.99-2.56,12.18-4.66,18.2-7.15C348.55,582.21,348.82,582.1,349.08,581.98z"/>
			<path class="st3" d="M459.86,583.65c-0.04,0.11-0.04,0.21-0.05,0.32c-1.85,0.46-3.48,0.05-5.19-0.37
				C456.35,583.62,458.1,583.63,459.86,583.65z"/>
			<path class="st3" d="M555.34,640.7c-0.34,1.3-0.46,2.13-0.94,2.95c-33.19,0.05-66.45,0.12-99.55,0.21
				c1.35-0.96,3.04-1.81,3.68-2.22c2.68-1.81,5.53-4.34,8.68-5.3c3.47-1.05,6.01-2.7,9.12-4.43c3.32-1.85,6.54-3.54,10.51-3.86
				c5.58-0.44,10.74,2.56,16.28,2.81c3,0.12,5.92,0.64,6.95-2.76c0.87-2.9-0.43-5.37-2.15-7.63c-7.79-10.12-21.37-13.96-33.14-17
				c-5.78-1.49-11.52-1.9-17.39-2.84c-4.89-0.78-9.65-2.35-14.45-3.54c-7.31-1.83-14.83-2.83-22.1-4.92
				c-6.03-1.76-12.32-1.49-18.54-1.74c-3.57-0.14-7.02-0.98-10.63-0.98c-3.84,0-7.63,0.44-11.43,1.12
				c-8.3,1.46-15.09,4.6-20.91,10.77c-7.34,7.82-14.49,15.77-22.13,23.31c-6.58,6.51-12.94,13.56-19.98,19.68
				c-16.91,0.07-33.71,0.16-50.36,0.25c12.48-5.76,24.87-11.68,36.64-18.76c6.26-3.79,12.07-7.63,17.9-12.09
				c5.39-4.11,10.79-8.07,16.66-11.48c4.5-2.63,9.37-4.53,13.88-7.15c4.71-2.74,9.17-5,14.22-6.86c3.41-1.26,7.38-2.29,10.95-3.04
				c1.69-0.36,3.45-0.78,5.16-1.03c1.9-0.27,3.82,0.18,5.71-0.14c4.16-0.71,7.36-0.84,11.59-0.12c2.19,0.36,4.32-0.02,6.49,0.27
				c2.38,0.32,4.82,0.84,7.18,1.28c7.86,1.53,15.68,2.12,23.39,4.59c14.63,4.68,30.47,4.3,44.91,9.64
				c7.98,2.95,15.79,6.29,23.84,9.14c10.88,3.84,21.97,6.81,31.95,12.8c5.74,3.43,10.83,7.57,15.57,12.3c1,1.01,1.88,1.9,2.52,3.18
				C556.3,638.89,555.78,638.94,555.34,640.7z"/>
			<path class="st3" d="M845.14,589.41c-1.01,6.6-5.46,13.92-9.4,19.16c-4.66,6.24-10.65,11.06-17.26,15.08
				c-21.9,13.28-48.8,15.7-73.85,16.91c-30.1,1.46-60.14-1.83-89.7-7.27c-22.47-4.12-44.19-10.03-65.44-18.42
				c-22.08-8.69-43.96-17.83-67.2-22.91c-3.88-0.84-7.66-1.81-11.5-2.74c-4.62-1.12-9.26-1.46-13.9-2.4c-4.91-1-9.78-1.74-14.6-2.93
				c24.8,0.23,50.24,0.39,76.3,0.5c0,0,0,0,0.02,0c2.45,1.05,4.89,2.12,7.29,3.29c11.25,5.44,22.43,11.02,34.08,15.52
				c20.98,8.11,42.22,15.04,64.39,19.08c6.22,1.14,12.21,3.22,18.52,3.91c3.88,0.43,7.73,0.48,11.59,1.03
				c6.67,0.92,13.16,2.15,19.91,2.51c3.11,0.18,6.24,0.21,9.37,0.43c19.27,1.37,38.58,0.71,57.79-1.3
				c12.28-1.28,26.26-4.02,35.07-13.3c2.51-2.65,3.77-6.9,2.47-10.6c-1.14-3.29-5.01-5.44-8.04-6.49
				c-14.2-4.89-29.78-6.06-44.67-6.97c-8.18-0.48-16.78-0.62-24.75-2.77c-2.2-0.6-6.52-2.35-8.59-4.75
				c36.6-0.32,74.04-0.8,112.23-1.46C845.55,584.84,845.5,587.19,845.14,589.41z"/>
			<path class="st3" d="M620.65,643.58c-17.87,0-35.79,0.04-53.74,0.05c-0.59-2.51-1.17-5.03-2.29-7.34
				c-1.21-2.49-2.61-5.16-3.61-7.72c-0.76-1.99-0.64-1.99,1.21-2.26c4.18-0.6,8.92,0.39,12.91,1.32
				c11.54,2.68,22.88,5.42,33.76,10.33C612.81,639.72,616.76,641.66,620.65,643.58z"/>
			<path class="st3" d="M968.43,579.83c-0.8,0.11-1.6,0.2-2.42,0.28c-4.68,0.48-9.33,0.2-14.01,0.6
				c-5.96,0.52-11.79,0.75-17.78,0.68c-16.89-0.16-36.07,2.83-48.34,15.43c-5.17,5.32-8.66,12.78-12.07,19.22
				c-4.21,7.91-10.74,14.47-17.74,19.77c-4.52,3.41-9.58,5.87-14.86,7.77c-17.65-0.02-35.52-0.04-53.56-0.04
				c11.91-3.56,23.23-8.55,34.81-13.72c10.24-4.59,18.84-11.27,26.29-19.66c3.36-3.79,6.08-8.18,9.14-12.21
				c3.82-5.05,8.05-9.56,12.62-13.92c0.71-0.68,1.44-1.35,2.17-2.01C904.15,581.43,936.07,580.7,968.43,579.83z"/>
			<path class="st3" d="M324.23,581.5c-3.02,1.67-6.04,3.38-9.12,4.94c-7.38,3.79-15.29,6.49-23.18,8.98
				c-9.26,2.95-18.52,4.71-28.02,6.54c-7.06,1.37-14.29,2.42-21.21,4.37c-7.04,1.99-14.42,4.55-21.74,5.32
				c-7.15,0.75-14.35,1.28-21.51,1.96c-9,0.84-17.9,1.17-26.77,3c-8.16,1.67-16.37,3.09-24.57,4.73
				c-8.41,1.65-16.85,3.15-25.28,4.71c-8.6,1.6-17.17,3.59-25.81,4.91c-7.45,1.14-14.95,1.69-22.36,2.99
				c-7.91,1.37-15.4,3.73-23.04,6.1c-5.17,1.62-10.08,3.88-14.88,6.36c-5.48,0.07-10.9,0.12-16.28,0.2c0.43-0.2,0.85-0.39,1.28-0.57
				c10.17-4.3,20.82-7.68,31.45-10.54c8.14-2.2,16.32-4.23,24.46-6.44c4.28-1.17,8.5-2.26,12.89-3.06
				c7.82-1.42,15.68-3.22,23.57-4.21c3.63-0.46,7.29-0.75,10.92-1.26c10.03-1.4,19.8-3.47,29.92-4.25
				c15.66-1.23,31.2-2.86,46.72-5.21c8.3-1.24,16.04-3.72,24.11-5.94c4.5-1.23,9.08-1.96,13.49-3.52c3.2-1.12,6.47-1.58,9.69-2.65
				c3.61-1.21,7.43-2.54,11.16-3.25c3.93-0.75,6.99-2.15,10.13-4.68c2.17-1.74,4.37-4.25,5.39-6.88c0.52-1.33,0.87-2.52,1.03-3.72
				C292.06,580.81,307.91,581.16,324.23,581.5z"/>
			<path class="st3" d="M221.6,578.98c-5.35,4.34-13.24,6.61-19.15,8.2c-14.93,4.04-30.38,5.88-45.47,9.21
				c-9.4,2.08-18.92,3.86-28.3,6.04c-8.94,2.06-17.8,4.84-26.58,7.43c-9.17,2.68-18.17,5.92-27.34,8.64
				c-6.36,1.87-12.62,3.84-18.83,6.19c-7.73,2.92-15.41,5.71-22.88,9.28c-6.72,3.22-13.72,5.62-20.48,8.75
				c-2.74,1.26-5.46,2.65-8.14,4.07c-14.47,0.18-28.6,0.37-42.4,0.57v-4c0.78-0.85,1.62-1.67,2.47-2.45
				c11.24-10.33,26.08-17.26,39.82-23.43c18.84-8.48,37.88-16.84,57.21-24.09c8.43-3.15,16.48-7.08,24.73-10.63
				c5.94-2.56,12.02-4.84,17.83-7.68C138,576.38,177.39,577.73,221.6,578.98z"/>
			<path class="st3" d="M87.58,574.42c-7.63,5.08-15.98,9.39-24.25,13.24c-9.1,4.28-18.56,7.11-27.93,10.68
				c-10.24,3.91-20.14,8.94-30.01,13.67c-9.33,4.48-19.04,8.09-28.34,12.66c-5.21,2.58-10.13,5.46-15.02,8.44v-15.56
				c2.44-1.58,5-2.99,7.59-4.23c8.92-4.25,18.42-7.86,28.02-10.26c9.07-2.28,17.72-4.82,26.19-8.84
				c6.79-3.22,13.12-6.97,19.16-11.47c4.91-3.66,9.72-6.88,15-9.56h0.02C67.26,573.61,77.13,574.02,87.58,574.42z"/>
			<path class="st3" d="M1209.31,571.08c-0.32,0.5-0.69,0.98-0.89,1.32c-1.16,1.92-2.68,3.57-4.05,5.37
				c-3.93,5.16-7.8,10.76-12.36,15.38c-5.9,5.99-13.64,4.23-21.31,3.02c-14.81-2.35-29.62-4.85-44.59-6.19
				c-22.56-1.99-45.1,1.19-67.5,3.56c-12.04,1.26-23.54,3.41-35.41,5.64c-9.1,1.71-17.99,3.75-26.68,7.09
				c-7.41,2.84-14.17,7.09-20.89,11.29c-6.92,4.34-11.34,9.74-17.1,15.43c-3.59,3.56-6.83,7.24-10.13,10.74h-0.02
				c-27.32-0.05-55.38-0.09-84.05-0.12c0.32-0.44,0.64-0.89,0.96-1.33c3.06-4.25,5.4-8.98,8.66-13.08
				c13.26-16.71,35.13-26.67,55.54-31.04c16.85-3.61,33.56-7.38,50.33-11.34c10.08-2.38,20-5.23,29.92-8.12
				C1074.84,576.74,1141.51,574.23,1209.31,571.08z"/>
			<path class="st3" d="M1179.68,644.27c-18.63-0.05-38.27-0.12-58.81-0.18c-1.78-1.19-3.52-2.42-5.4-3.41
				c-3.31-1.76-6.76-3.29-10.15-4.92c-8.32-4.02-17.33-6.74-26.47-8.18c-21.32-3.36-43.87,1.76-62.7,12.12
				c-2.26,1.24-4.39,2.65-6.44,4.12c-12.96-0.02-26.11-0.05-39.5-0.07c3.06-2.1,6.29-4.02,9.24-6.2
				c11.84-8.75,24.76-16.14,38.61-21.21c16.25-5.97,32.94-10.13,50.35-9.92c15.89,0.2,32.46,1.37,48.14,4.05
				c14.24,2.45,29.53,5.78,41.99,13.32c7.59,4.6,17.76,10.86,20.87,19.66C1179.5,643.72,1179.59,644.01,1179.68,644.27z"/>
			<path class="st3" d="M1259.82,568.61c4.11-0.21,8.23-0.43,12.36-0.64c-3.52,2.04-6.88,4.62-10.04,7.04
				c-5.08,3.86-10.26,7.61-15.34,11.43c-5.87,4.39-11.08,9.85-16.16,15.08c-6.06,6.2-13.74,11.82-17.56,19.84
				c-3.77,7.88,2.54,12.66,8.11,17.49c1.96,1.71,3.93,3.56,5.69,5.56c-8.11-0.02-16.48-0.05-25.1-0.07
				c-1.81-3.45-2.92-7.34-2.49-11.25c0.73-6.68,5.62-11.29,9.8-15.95c6.13-6.84,12.25-13.33,17.53-20.91
				C1234.77,584.54,1248.16,576.45,1259.82,568.61z"/>
			<path class="st3" d="M1350.13,563.63c-3.24,0.87-6.74,1.16-9.26,1.44c-3.79,0.39-7.63,0.16-11.41,0.21
				c-1.32,0.02-2.6-0.07-3.86-0.23C1333.75,564.59,1341.93,564.11,1350.13,563.63z"/>
			<path class="st3" d="M1391.41,624.52c-2.33,0.39-4.75,0.23-7.18-0.28c-5.81-1.19-11.73-4.23-16.89-5.76
				c-9.83-2.97-19.08-7.16-28.57-11.06c-6.01-2.45-11.7-4.73-18.31-4.53c-6.72,0.21-11.54,2.56-16.14,7.24
				c-8.64,8.75-18.08,17.71-31.31,16.02c-4.46-0.55-9.12-2.56-13.69-1.58c-3.06,0.66-5.9,6.31-6.97,9.12
				c-1.35,3.59-1.3,7.2-0.94,10.83c-3.27,0-6.61-0.02-10.01-0.04c-1.72-5.64-4.46-12.32-3.48-18.1c1.24-7.43,5.72-13.12,11.63-17.58
				c7.86-5.92,15.36-11.66,24.87-14.72c6.15-1.99,12.53-3.8,18.76-5.51c6.35-1.74,12.82-2.47,19.25-3.77
				c13.05-2.61,26.04-5.42,39.09-8.12c7.91-1.64,18.2-4.34,26.22-1.62c2.56,0.87,4.68,2.15,6.49,3.75c2.68,2.33,4.69,5.39,6.49,8.84
				c3.88,7.47,6.03,14.9,6.12,23.4C1396.88,615.97,1397.57,623.45,1391.41,624.52z"/>
		</g>
		<g class="st2">
			<path class="st3" d="M864.36,641.37c2.24-1.16,4.1-1.99,5.51-3.99c1.12-1.59,2.61-2.98,3.91-4.43
				c3.86-4.31,9.13-7.49,13.99-10.62c2.5-1.61,5.19-2.5,7.73-3.99c3.07-1.81,6.1-3.49,9.28-5.09c7.02-3.52,14.08-7.2,21.3-10.3
				c6.14-2.64,12.78-4.49,19.1-6.7c5.67-1.99,11.44-4.68,17.27-6.07c4.81-1.15,9.6-2.21,14.44-3.19c1.5-0.31,3.3-0.38,4.73-0.82
				c0.92-0.28,1.28-0.86,2.43-0.71c-0.85-0.15-2.64,0.83-3.54,1.02c-2.04,0.45-4.18,0.55-6.2,0.99c-4.35,0.95-8.5,2.79-12.95,3.56
				c-3.52,0.6-7.29,1.44-10.67,2.54c-2.85,0.92-5.9,0.92-8.86,1.67c-6.2,1.57-12.35,2.98-18.68,3.86
				c-3.31,0.46-7.03,1.34-10.16,2.51c-3.13,1.17-5.81,2.71-9.09,3.55c-2.79,0.72-5.77,2.8-8.25,4.25c-2.33,1.36-4.14,2.3-6.19,4.19
				c-4.05,3.74-8.28,7.09-11.67,11.5c-1.25,1.63-3.04,2.81-4.04,4.65c-0.62,1.14-0.87,2.23-1.62,3.29
				C871.29,634.23,870.47,635.38,864.36,641.37z"/>
			<path class="st3" d="M974.84,642.05c5.81-4.33,11.78-8.23,18.04-11.96c6.62-3.94,12.54-8.88,19.82-11.62
				c4.25-1.6,8.37-3.6,12.67-5.08c2.23-0.77,4.53-0.92,6.77-1.62c1.78-0.55,3.4-1.47,5.22-1.92c5.83-1.47,11.66-2.15,17.65-2.16
				c3.11,0,6.57,0.41,9.63-0.15c2.46-0.45,4.7-0.53,7.21-0.52c2.32,0,4.34-0.53,6.61-0.71c2.13-0.17,4.37,0.03,6.51,0.03
				c2.21,0,4.73-0.31,6.93-0.03c2.09,0.26,4.14,0.83,6.21,1.22c2.21,0.41,3.99,0.92,6.12,1.7c1.26,0.46,3.02,0.77,4.11,1.53
				c-2.72-1.71-5.66-0.67-8.71-1.01c-2.23-0.25-4.04-0.72-6.33-0.71c-2.92,0.02-5.85,0-8.77,0c-6.79,0-13.63,0.09-20.33,1.35
				c-5.69,1.07-11.39,1.51-17.01,2.96c-5.56,1.44-10.84,1.74-15.78,4.96c-4.89,3.19-9.93,6.93-15.45,8.96
				c-6.61,2.44-13.49,4.16-20.07,6.7c-2.64,1.02-5.31,1.96-7.93,3.03C985.38,638.05,982.88,638.8,974.84,642.05z"/>
			<path class="st3" d="M1198.5,632.62c0.76-1.59,1.75-3.89,2.49-5.49c0.62-1.33,1.62-2.3,2.26-3.58c0.55-1.09,0.62-2.14,1.24-3.18
				c1.08-1.8,2.57-3.58,3.98-5.14c4.35-4.82,8.95-9.14,13.97-13.34c2.54-2.13,4.66-4.58,7.22-6.63c2.46-1.98,4.48-4.4,6.7-6.59
				c2.38-2.35,4.71-4.86,7.26-7.05c1.58-1.36,3.87-3.79,5.98-4.13c-0.02,1.11-2.62,3.31-3.42,3.94c-2.49,1.97-4.2,4.3-6.44,6.57
				c-2.23,2.27-4.35,4.61-6.72,6.77c-2.77,2.53-5.69,4.81-8.44,7.37c-2.54,2.37-5.6,4.18-7.9,6.72c-1.95,2.15-4.04,3.94-5.75,6.27
				c-1.59,2.17-3.15,4.31-4.66,6.54c-0.99,1.46-2.21,2.67-3.06,4.22C1202.49,627.21,1200.79,628.43,1198.5,632.62z"/>
			<path class="st3" d="M1238.92,629.92c-0.21-1.45-0.99-4.46-0.53-6.14c0.18-0.66,0.5-1.36,0.69-2.07c0.6-2.31,1.81-3.89,3.22-5.76
				c3.49-4.61,8.54-8.08,13.51-10.98c4.82-2.82,9.67-5.51,14.64-8.08c5.38-2.78,11.91-4.29,17.82-5.52
				c3.66-0.77,7.26-1.73,10.96-2.36c3.74-0.63,7.36-1.8,11.09-2.37c4.01-0.62,8.02-1.19,11.99-2c1.84-0.38,3.67-0.71,5.53-1
				c3-0.47,5.82-1.5,8.79-2.05c7.18-1.34,14.44-2.51,21.38-4.86c4.72-1.6,10.09-3.39,15.02-4.08c5.33-0.75,10.33,3.27,11.45,8.08
				c0.26,1.12,0.35,7.41-0.7,7.53c-0.54,0.06-0.88-0.71-1.29-0.93c-0.9-0.47-1.94-0.7-2.86-1.14c-1.53-0.73-3.12-1.32-4.64-2.07
				c-2-0.98-4.01-1.24-6.07-2.02c-2.12-0.79-4.93-1.14-7.21-1.37c-2.35-0.24-4.61,0.13-6.88,0.54c-4.88,0.9-9.43,1.88-14.17,3.38
				c-5.59,1.77-11.13,3.72-16.83,5.02c-3.66,0.84-7.23,1.86-10.97,2.39c-3.54,0.51-7.11,0.64-10.6,1.35
				c-3.31,0.67-6.81,0.46-10.13,1.31c-3.58,0.92-7.27,1.3-10.91,2.03c-3.92,0.79-7.73,2.25-11.33,3.89
				c-2.71,1.23-4.92,2.9-7.48,4.38c-3.75,2.16-8.17,3.9-12.17,5.54c-3.08,1.26-6.75,2.95-9.3,5.17c-1.68,1.47-2.58,4.93-3.18,6.97
				C1237.12,624.78,1236.89,626.42,1238.92,629.92z"/>
			<path class="st3" d="M802.38,640.03c4.19-2.39,8.9-4.09,13.49-5.56c4.26-1.36,8.33-4,12.17-6.23c3.61-2.09,6.76-3.87,9.77-6.81
				c1.4-1.37,2.99-2.35,4.3-3.78c1.4-1.53,2.7-3.04,4.06-4.6c2.19-2.51,4.41-4.98,6.59-7.51c1.47-1.71,2.27-3.86,3.77-5.61
				c1.25-1.47,2.62-2.83,3.8-4.35c2.16-2.78,4.32-5.55,6.41-8.37c0.75-1.01,1.27-2.24,2.31-2.95c0.84-0.57,1.77-0.7,2.44-1.55
				c-0.92,0.81-1.38,1.74-2.06,2.75c-1.07,1.59-2.6,2.69-3.74,4.2c-2.14,2.82-3.3,6.37-3.87,9.8c-0.31,1.86-0.46,3.7-0.77,5.56
				c-0.27,1.66,0.26,2.99-0.68,4.54c-1.79,2.95-6.47,5.71-9.55,6.89c-1.79,0.68-3.63,1.53-5.33,2.42c-0.83,0.43-1.38,1.19-2.17,1.66
				c-0.88,0.53-1.72,0.67-2.54,1.28c-1.17,0.87-2.33,2.24-3.39,3.25c-0.95,0.9-1.9,1.37-2.94,2.15c-1.03,0.78-1.85,1.85-3.05,2.55
				c-1.35,0.78-2.85,1.37-4.21,2.17c-2.12,1.25-4.26,1.84-6.59,2.7C816.52,636.11,812.83,637.77,802.38,640.03z"/>
			<path class="st3" d="M749.83,630.6c5.17,0,10.92,0.66,16.03,0.03c3.56-0.44,7.1-1.12,10.6-1.72c2.6-0.45,5.12-1.31,7.72-1.68
				c1.61-0.23,3.05-0.7,4.73-0.67c0.53,0.01,1.53,0.16,2.04,0.03c0.61-0.15,0.67-0.61,1.28-0.75c1.31-0.3,2.76-0.29,4.08-0.62
				c1.69-0.41,3.32-0.94,5.07-1.28c2.11-0.42,3.72-1.4,5.72-1.97c1.13-0.32,1.7-0.29,2.68-0.79c0.84-0.42,1.68-0.93,2.55-1.36
				c1.76-0.87,2.63-1.78,3.68-3.37c0.42-0.63,1.03-1.21,1.38-1.87c0.33-0.62,0.19-0.88,0.45-1.52c0.38-0.92,0.97-1.92,1.22-2.83
				c0.31-1.16-0.29-2.81,0.67-3.69c0.76,2.03,0.13,5.34,0.15,7.54c0.03,2.49-0.85,4.6-2.68,6.42c-5.08,5.07-12.99,5.22-19.16,8.48
				c-3.34,1.76-6.46,2.96-10.16,3.97c-2.29,0.62-4.7,1.57-7.09,1.73c-2.32,0.16-4.66-0.83-6.91-1.24
				C765.89,631.96,755.35,636.33,749.83,630.6z"/>
			<path class="st3" d="M507.99,609.71c4.89,1.88,9.44,4.56,14.15,6.9c4.64,2.31,9.19,4.55,13.62,7.24c3.41,2.07,6.64,4.2,9.96,6.41
				c1.49,0.99,2.93,1.92,4.36,2.95c1.01,0.73,2.74,1.11,3.45,2.18c-0.96-1.28-2.07-2.19-3.06-3.43c-1.37-1.72-3.42-2.37-4.79-4.08
				c-2.27-2.85-5.4-4.52-8.57-6.21c-3.45-1.85-6.56-4.39-10.25-5.73c-1.98-0.72-3.85-1.71-5.88-2.19
				C518.2,613.1,515.45,613.21,507.99,609.71z"/>
			<path class="st3" d="M560.53,584.11c3.05,2.29,5.84,4.53,8.78,6.94c2.05,1.68,4.32,2.85,6.58,4.22
				c4.03,2.43,8.49,3.61,12.76,5.52c2.02,0.9,4.12,1.29,6.08,2.17c1.48,0.66,2.86,1.58,4.36,2.22c2.15,0.92,4.36,1.6,6.53,2.47
				c2.36,0.95,4.66,2.43,7.11,3.09c3.26,0.87,6.48,1.19,9.77,2c3.05,0.75,6.04,1.69,9.11,2.36c1.47,0.32,2.94,0.72,4.38,1.18
				c1.48,0.47,2.94,0.55,4.39,0.91c1.01,0.25,2.28,0.96,3.16,1.13c1.05,0.2,2.26-0.16,2.98,0.86c-1.37,0.15-3.13-0.57-4.46-0.86
				c-1.81-0.39-3.71-0.93-5.55-1.35c-4.69-1.05-9.32-2.31-14-3.37c-10.72-2.42-21.31-4.92-31.6-8.87
				c-5.11-1.96-10.51-3.31-15.55-5.47c-2.93-1.25-5.87-1.98-8.63-3.7c-2.16-1.34-4.45-2.28-6.54-3.71c-1.65-1.13-3.4-2.08-5.04-3.2
				c-0.82-0.56-2.57-1.56-3.06-2.51C550.3,582.71,559.41,584.72,560.53,584.11z"/>
			<path class="st3" d="M275.57,640.03c2.12-1.02,4.92-2.57,7.4-2.71c1.73-0.1,3.2-0.21,4.9-0.51c1.25-0.22,2.24-0.05,3.49-0.1
				c1.79-0.07,3.39-0.85,5.12-1.23c2.72-0.61,5.36-1.4,8.1-2c2.85-0.63,5.24-2.29,7.91-3.4c2-0.83,3.21-1.69,4.7-3.33
				c1.3-1.43,2.53-3.22,3.52-4.88c0.83-1.39,1.4-3.11,2.42-4.39c1.13-1.42,2.27-2.85,3.63-4.04c1.41-1.23,2.87-3.05,4.44-4
				c0.86-0.52,1.92-0.51,2.81-1.01c1.31-0.74,2.55-1.63,3.88-2.37c2.16-1.2,4.2-3.13,6.06-4.75c1.54-1.34,3.26-2.46,4.89-3.7
				c1.69-1.29,3.32-1.97,5.17-2.96c1.16-0.62,2.59-1.11,3.62-1.93c0.49-0.38,2.02-1.42,2.11-1.7c-1.22-0.64-3.53,0.71-4.63,1.33
				c-3.21,1.79-6.85,2.96-9.85,5.11c-3.08,2.21-6.53,3.89-9.56,6.21c-3.11,2.38-6.27,4.58-9.58,6.67
				c-3.92,2.47-7.79,5.07-11.79,7.48c-4.59,2.76-8.64,6.28-13.28,8.92c-4.16,2.37-8.27,4.65-12.65,6.57
				c-2.32,1.02-4.51,2.09-6.77,3.23C280.3,637.18,277.93,637.52,275.57,640.03z"/>
			<path class="st3" d="M190.02,627.23c2.82-0.46,5.4-0.76,8.22-0.69c1.6,0.04,2.98,0.63,4.56,0.72c1.34,0.08,2.75-0.04,4.09-0.03
				c7.35,0,14.53-1.34,21.91-1.35c1.93,0,3.89-0.11,5.81-0.03c1.87,0.07,3.66,0.64,5.54,0.74c5.57,0.3,11.75-0.56,17.15-2.02
				c2.93-0.79,5.2-2.84,7.51-4.75c2.26-1.87,4.77-2.94,7.41-4.21c2.53-1.22,5.19-2.36,7.57-3.88c2.8-1.78,5.92-2.66,9.13-3.55
				c2.63-0.73,5.58-1.26,8.03-2.48c1.21-0.6,2.35-1.33,3.59-1.91c1.36-0.63,2.25-1.45,3.5-2.21c1.92-1.16,3.97-2.13,5.89-3.33
				c1.58-0.99,3.03-2.03,4.72-2.86c0.74-0.36,1.44-0.85,2.17-1.2c0.95-0.45,2.01-0.5,2.91-0.97c0.62-0.33,1.03-0.75,1.63-1.05
				c0.7-0.34,1.25,0.2,1.79-0.71c-0.65-0.07-0.78,0.42-1.22,0.56c-0.88,0.28-1.82,0.39-2.71,0.64c-2.65,0.75-5.39,1.82-7.93,2.88
				c-3.12,1.3-6.44,1.92-9.5,3.39c-2.37,1.14-4.55,2.58-6.92,3.7c-3.95,1.86-7.85,4.23-12.02,5.58c-1.93,0.62-4.09,0.77-6.05,1.31
				c-3.11,0.86-6.29,1.44-9.46,2.04c-3.6,0.69-7.22,1.28-10.81,2.02c-2.87,0.59-5.69,0.69-8.55,1.17
				c-7.32,1.24-14.49,2.34-21.65,4.42c-3.32,0.96-6.69,2.03-10.05,2.86c-2.88,0.71-5.88,0.76-8.78,1.31
				c-2.59,0.5-5.24,0.85-7.86,1.2C197.32,624.86,194.09,624.52,190.02,627.23z"/>
			<path class="st3" d="M216.29,609.04c5.48-1.76,11.12-2.8,16.59-4.61c3.94-1.3,7.75-3.15,11.69-4.4c1.51-0.48,3.08-0.55,4.59-1.06
				c1.31-0.44,2.51-1.18,3.79-1.67c6.6-2.54,14.44-3.65,19.79-8.47c2.39-2.16,2.52-8.76,6.89-8.1c1.03,0.15,1.65,0.51,2.66,0.7
				c1.34,0.26,3.03-0.02,4.39-0.02c1.12,0,6.76-0.58,7.02,0.53c-2.31,0.65-4.84,1.29-7.19,2.3c-3.19,1.38-5.82,3.63-9.01,4.98
				c-1.78,0.75-3.33,1.76-5.14,2.47c-1.68,0.65-3.3,1.44-4.97,2.11c-4.11,1.66-8.4,3.23-12.71,4.29c-3.09,0.76-6.22,1.34-9.27,2.19
				c-2.69,0.76-5.05,1.74-7.56,2.88C231.56,606.03,225.54,609.2,216.29,609.04z"/>
			<path class="st3" d="M-27.35,636.21c2.36-2.21,4.44-3.7,7.22-5.35c1.97-1.16,3.91-2.42,5.89-3.56c2.75-1.57,5.93-2.39,8.81-3.68
				c7.76-3.48,16.3-4.3,24.66-5.48c4.75-0.67,9.45-1.65,14.1-2.79c3.33-0.82,6.48-1.61,9.46-3.38c1.78-1.05,3.69-2.32,5.29-3.66
				c1.57-1.31,2.72-2.9,4.13-4.33c1.57-1.6,3.67-2.61,5.12-4.38c0.88-1.07,0.82-2.41,1.98-3.27c2.09-1.57,5.18-1.52,7.56-2.45
				c5.81-2.27,11.59-4.61,17.18-7.42c2.89-1.45,5.71-2.89,8.67-4.15c1.53-0.66,3.08-1.62,4.36-2.69c0.99-0.83,2.23-1.38,3.03-2.37
				c0.4-0.49,1.26-1.42,0.92-2.06c-0.85,0.22-1.5,1.23-2.23,1.74c-2.04,1.43-4.49,2.52-6.68,3.7c-1.29,0.7-2.42,1.59-3.78,2.15
				c-1.51,0.62-3,1.28-4.51,1.9c-2.58,1.05-5.2,2.15-7.65,3.48c-2.48,1.36-5.05,1.88-7.63,2.95c-2.61,1.08-5.26,2.06-7.84,3.22
				c-5.75,2.59-11.82,4.29-17.63,6.75c-1.5,0.63-3.11,0.93-4.65,1.44c-1.33,0.44-2.51,1.12-3.77,1.71
				c-2.42,1.12-4.97,1.98-7.42,3.07c-2.5,1.12-5.04,2.02-7.5,3.19c-2.99,1.42-6.02,3.07-9.08,4.29c-6.48,2.58-12.65,5.69-18.92,8.76
				C-13.91,626.29-18.34,630.84-27.35,636.21z"/>
			<path class="st3" d="M-37.23,616.45c8.24-2.56,15.64-7.32,24.26-8.65c7.15-1.11,14.98-1.58,21.59-4.83
				c1.52-0.75,2.99-1.27,4.42-2.13c2.55-1.53,5.44-2.6,8.06-4.06c1.66-0.93,3.17-1.65,4.65-2.8c1.04-0.81,2.48-1.21,3.31-2.28
				c-0.31,0.48-0.67,0.36-1.12,0.57c-1.44,0.68-2.84,1.48-4.29,2.17c-1.68,0.8-3.45,1.29-5.15,2.02c-1.5,0.64-2.98,1.45-4.54,1.93
				c-2.68,0.82-5.46,1.2-8.13,2.06c-2.48,0.8-5.08,1.53-7.59,2.19c-5.91,1.56-11.59,3.26-17.29,5.49c-3.07,1.2-6.06,2.53-9.09,3.83
				c-1.46,0.62-2.94,1.04-4.36,1.75C-34.46,614.69-36.97,615.41-37.23,616.45z"/>
			<path class="st3" d="M29.05,645.3c1.12,0.02,2.31,0.16,3.29-0.24c0.57-0.24,1.19-0.62,1.81-0.85c2.33-0.86,4.63-1.96,6.88-3.02
				c2.89-1.36,5.54-3.18,8.51-4.38c2.9-1.17,5.85-2.32,8.82-3.31c10.04-3.34,20.51-3.72,30.88-5.36c2.43-0.38,4.8-1.1,7.18-1.71
				c2.59-0.66,5.14-0.95,7.78-1.32c2.93-0.42,5.91-0.83,8.83-1.34c3.24-0.56,6.33-1.5,9.62-1.82c4.89-0.48,9.74-1.58,14.62-2.19
				c1.22-0.15,2.37-0.4,3.59-0.49c1.03-0.07,1.99-0.6,3.02-0.46c-0.69-0.12-1,0.17-1.6,0.34c-1.05,0.3-2.23,0.3-3.31,0.55
				c-2.85,0.66-5.67,1.36-8.54,1.92c-2.4,0.47-4.74,1.36-7.16,1.68c-2.13,0.29-4.3,0.73-6.39,1.22c-5.3,1.25-10.5,2.5-15.88,3.37
				c-2.82,0.45-5.61,1.26-8.41,1.81c-3.09,0.61-6.28,1.24-9.31,2.13c-1.26,0.37-2.56,0.62-3.86,0.81c-1.53,0.23-3.07-0.09-4.6,0.19
				c-1.11,0.21-2.09,0.37-3.22,0.35c-1.57-0.03-2.96,0.39-4.5,0.47c-6.08,0.34-12.05,1.16-17.85,3.12
				c-2.68,0.91-5.36,1.62-7.77,3.15c-1.33,0.85-2.6,1.75-3.93,2.58c-0.94,0.59-1.87,1.16-2.82,1.71
				C33.62,644.87,32.2,646.06,29.05,645.3z"/>
		</g>
	</g>
	<g>
		<polygon class="st4" points="507.86,598.63 521.75,608.18 538.26,611.61 533.47,627.78 535.31,644.54 518.45,644.98 503.08,651.9 
			497.45,636.01 486.11,623.53 499.49,613.27 		"/>
		<polygon class="st5" points="507.58,597.41 521.48,606.96 537.98,610.39 533.19,626.56 535.03,643.32 518.17,643.76 502.8,650.69 
			497.17,634.79 485.84,622.31 499.21,612.05 		"/>
	</g>
	<g>
		<polygon class="st4" points="343.2,610.24 348.99,626.08 360.46,638.44 347.19,648.84 338.97,663.56 324.98,654.15 308.44,650.89 
			313.06,634.68 311.05,617.94 327.9,617.32 		"/>
		<polygon class="st6" points="343.68,609.08 349.47,624.92 360.94,637.28 347.67,647.68 339.45,662.41 325.46,653 308.92,649.74 
			313.54,633.52 311.53,616.78 328.38,616.17 		"/>
	</g>
	<g>
		<polygon class="st4" points="642.13,590.36 647.92,606.2 659.39,618.56 646.12,628.96 637.9,643.69 623.91,634.28 607.37,631.02 
			611.99,614.8 609.98,598.06 626.83,597.45 		"/>
		<polygon class="st7" points="642.61,589.21 648.4,605.05 659.87,617.41 646.59,627.81 638.38,642.53 624.39,633.12 607.84,629.86 
			612.47,613.65 610.46,596.91 627.31,596.29 		"/>
	</g>
	<g>
		<polygon class="st4" points="20.43,585.4 31.82,597.84 47.13,604.91 38.81,619.58 36.82,636.32 20.3,632.95 3.76,636.23 
			1.86,619.48 -6.37,604.76 8.98,597.78 		"/>
		<polygon class="st8" points="20.44,584.15 31.82,596.59 47.13,603.66 38.82,618.33 36.82,635.07 20.3,631.7 3.76,634.98 
			1.87,618.23 -6.36,603.51 8.99,596.53 		"/>
	</g>
	<g>
		<polygon class="st4" points="1282.09,583.16 1290.52,597.76 1303.95,607.96 1292.67,620.5 1287.12,636.42 1271.72,629.57 
			1254.86,629.21 1256.62,612.44 1251.75,596.3 1268.24,592.78 		"/>
		<polygon class="st8" points="1282.36,581.94 1290.8,596.54 1304.22,606.74 1292.95,619.28 1287.4,635.2 1271.99,628.35 
			1255.13,627.99 1256.89,611.22 1252.02,595.08 1268.51,591.56 		"/>
	</g>
</g>
<g>
	<g>
		<linearGradient id="SVGID_3_" gradientUnits="userSpaceOnUse" x1="675.1302" y1="1011.4046" x2="675.1302" y2="925.6111">
			<stop  offset="0" style="stop-color:#EA602E"/>
			<stop  offset="0.3756" style="stop-color:#EB692D"/>
			<stop  offset="0.9762" style="stop-color:#EF802A"/>
			<stop  offset="1" style="stop-color:#EF812A"/>
		</linearGradient>
		<path class="st9" d="M1386.22,925.61v83.52c0,0-49.95-0.25-132.81-0.57c-3.27,0-6.61-0.02-10.01-0.04c-4.75,0-9.6-0.02-14.54-0.05
			c-8.11-0.02-16.48-0.05-25.1-0.07c-7.18-0.02-14.54-0.05-22.08-0.07c-18.63-0.05-38.27-0.12-58.81-0.18
			c-34.68-0.09-71.93-0.18-111.16-0.27c-12.96-0.02-26.11-0.05-39.5-0.07h-0.02c-7.2-0.02-14.47-0.02-21.8-0.04h-0.02
			c-27.32-0.05-55.38-0.09-84.05-0.12c-7.66,0-15.36,0-23.11-0.02c-17.65-0.02-35.52-0.04-53.56-0.04
			c-54.43-0.04-110.42-0.04-166.98,0.04c0,0,0,0-0.02,0c-17.87,0-35.79,0.04-53.74,0.05c-4.18,0-8.34,0.02-12.52,0.02
			c-33.19,0.05-66.45,0.12-99.55,0.21c-46.35,0.12-92.39,0.28-137.63,0.48c-16.91,0.07-33.71,0.16-50.36,0.25
			c-9.17,0.05-18.29,0.11-27.36,0.16c-59.86,0.36-117.6,0.78-171.91,1.33c-10.42,0.11-20.69,0.21-30.84,0.32
			c-5.48,0.07-10.9,0.12-16.28,0.2c-5.39,0.05-10.72,0.12-16.02,0.18c-14.47,0.18-28.6,0.37-42.4,0.57v-78.84
			c0,0,34.26,2.06,95.96,4.71h0.02c9.24,0.39,19.11,0.8,29.56,1.21c5.35,0.21,10.86,0.43,16.52,0.64
			c33.9,1.32,73.3,2.67,117.51,3.91c17.6,0.5,35.96,1,55.06,1.46c15.4,0.37,31.25,0.73,47.57,1.07c8.16,0.18,16.44,0.34,24.85,0.48
			c6.15,0.12,12.37,0.25,18.65,0.36c27.84,0.5,56.83,0.91,86.88,1.26c1.74,0.02,3.48,0.04,5.24,0.05
			c7.41,0.07,14.88,0.16,22.42,0.23c0,0,0,0,0.02,0c24.8,0.23,50.24,0.39,76.3,0.5c0,0,0,0,0.02,0
			c55.54,0.21,113.83,0.12,174.45-0.41c36.6-0.32,74.04-0.8,112.23-1.46c9.08-0.14,18.22-0.32,27.39-0.5
			c31.47-0.59,63.39-1.32,95.75-2.19c0.02,0.02,0.04,0,0.05,0c13.67-0.36,27.43-0.75,41.24-1.16c65.12-1.94,131.78-4.44,199.59-7.59
			h0.02c16.76-0.78,33.58-1.6,50.49-2.47c4.11-0.21,8.23-0.43,12.36-0.64c17.74-0.92,35.54-1.88,53.4-2.92h0.02
			c8.16-0.46,16.34-0.94,24.53-1.42C1363.47,927.02,1374.83,926.32,1386.22,925.61z"/>
		<g class="st2">
			<path class="st3" d="M351.08,946.04c6.15,0.12,12.37,0.25,18.65,0.36c-2.24,0.46-4.44,0.92-6.6,1.94
				c-7.18,3.41-14.49,6.44-21.55,10.13c-3.32,1.74-6.56,3.91-9.65,6.06c-4.59,3.18-9.19,6.44-13.74,9.69
				c-16.27,11.63-34.45,19.22-53.42,25.35c-5.99,1.94-11.64,4.68-17.49,6.99c-1.94,0.76-3.88,1.51-5.8,2.26
				c-59.86,0.36-117.6,0.78-171.91,1.33c14.83-6.76,31.41-10.1,47.55-11.47c9.46-0.8,18.92-1.39,28.35-2.2
				c8.76-0.75,17.46-2.13,26.26-2.47c7.04-0.27,13.8-1.83,20.8-2.52c5.03-0.5,9.71-1.07,14.68-1.97c5.99-1.07,12-2.03,17.97-3.2
				c5.01-0.98,10.1-1.17,15.11-2.15c8.09-1.58,15.82-4.32,23.8-6.13c5.8-1.32,11.66-2.36,17.3-4.25c6.24-2.06,12.53-3.86,18.56-6.47
				c10.67-4.64,21.39-9.19,32.11-13.78c5.99-2.56,12.18-4.66,18.2-7.15C350.55,946.27,350.82,946.16,351.08,946.04z"/>
			<path class="st3" d="M461.86,947.71c-0.04,0.11-0.04,0.21-0.05,0.32c-1.85,0.46-3.48,0.05-5.19-0.37
				C458.35,947.67,460.1,947.69,461.86,947.71z"/>
			<path class="st3" d="M557.34,1004.76c-0.34,1.3-0.46,2.13-0.94,2.95c-33.19,0.05-66.45,0.12-99.55,0.21
				c1.35-0.96,3.04-1.81,3.68-2.22c2.68-1.81,5.53-4.34,8.68-5.3c3.47-1.05,6.01-2.7,9.12-4.43c3.32-1.85,6.54-3.54,10.51-3.86
				c5.58-0.44,10.74,2.56,16.28,2.81c3,0.12,5.92,0.64,6.95-2.76c0.87-2.9-0.43-5.37-2.15-7.63c-7.79-10.12-21.37-13.96-33.14-17
				c-5.78-1.49-11.52-1.9-17.39-2.84c-4.89-0.78-9.65-2.35-14.45-3.54c-7.31-1.83-14.83-2.83-22.1-4.92
				c-6.03-1.76-12.32-1.49-18.54-1.74c-3.57-0.14-7.02-0.98-10.63-0.98c-3.84,0-7.63,0.44-11.43,1.12
				c-8.3,1.46-15.09,4.6-20.91,10.77c-7.34,7.82-14.49,15.77-22.13,23.31c-6.58,6.51-12.94,13.56-19.98,19.68
				c-16.91,0.07-33.71,0.16-50.36,0.25c12.48-5.76,24.87-11.68,36.64-18.76c6.26-3.79,12.07-7.63,17.9-12.09
				c5.39-4.11,10.79-8.07,16.66-11.48c4.5-2.63,9.37-4.53,13.88-7.15c4.71-2.74,9.17-5,14.22-6.86c3.41-1.26,7.38-2.29,10.95-3.04
				c1.69-0.36,3.45-0.78,5.16-1.03c1.9-0.27,3.82,0.18,5.71-0.14c4.16-0.71,7.36-0.84,11.59-0.12c2.19,0.36,4.32-0.02,6.49,0.27
				c2.38,0.32,4.82,0.84,7.18,1.28c7.86,1.53,15.68,2.12,23.39,4.59c14.63,4.68,30.47,4.3,44.91,9.64
				c7.98,2.95,15.79,6.29,23.84,9.14c10.88,3.84,21.97,6.81,31.95,12.8c5.74,3.43,10.83,7.57,15.57,12.3c1,1.01,1.88,1.9,2.52,3.18
				C558.3,1002.94,557.78,1003,557.34,1004.76z"/>
			<path class="st3" d="M847.14,953.47c-1.01,6.6-5.46,13.92-9.4,19.16c-4.66,6.24-10.65,11.06-17.26,15.08
				c-21.9,13.28-48.8,15.7-73.85,16.91c-30.1,1.46-60.14-1.83-89.7-7.27c-22.47-4.12-44.19-10.03-65.44-18.42
				c-22.08-8.69-43.96-17.83-67.2-22.91c-3.88-0.84-7.66-1.81-11.5-2.74c-4.62-1.12-9.26-1.46-13.9-2.4c-4.91-1-9.78-1.74-14.6-2.93
				c24.8,0.23,50.24,0.39,76.3,0.5c0,0,0,0,0.02,0c2.45,1.05,4.89,2.12,7.29,3.29c11.25,5.44,22.43,11.02,34.08,15.52
				c20.98,8.11,42.22,15.04,64.39,19.08c6.22,1.14,12.21,3.22,18.52,3.91c3.88,0.43,7.73,0.48,11.59,1.03
				c6.67,0.92,13.16,2.15,19.91,2.51c3.11,0.18,6.24,0.21,9.37,0.43c19.27,1.37,38.58,0.71,57.79-1.3
				c12.28-1.28,26.26-4.02,35.07-13.3c2.51-2.65,3.77-6.9,2.47-10.6c-1.14-3.29-5.01-5.44-8.04-6.49
				c-14.2-4.89-29.78-6.06-44.67-6.97c-8.18-0.48-16.78-0.62-24.75-2.77c-2.2-0.6-6.52-2.35-8.59-4.75
				c36.6-0.32,74.04-0.8,112.23-1.46C847.55,948.9,847.5,951.25,847.14,953.47z"/>
			<path class="st3" d="M622.65,1007.64c-17.87,0-35.79,0.04-53.74,0.05c-0.59-2.51-1.17-5.03-2.29-7.34
				c-1.21-2.49-2.61-5.16-3.61-7.72c-0.76-1.99-0.64-1.99,1.21-2.26c4.18-0.6,8.92,0.39,12.91,1.32
				c11.54,2.68,22.88,5.42,33.76,10.33C614.81,1003.78,618.76,1005.72,622.65,1007.64z"/>
			<path class="st3" d="M970.43,943.89c-0.8,0.11-1.6,0.2-2.42,0.28c-4.68,0.48-9.33,0.2-14.01,0.6
				c-5.96,0.52-11.79,0.75-17.78,0.68c-16.89-0.16-36.07,2.83-48.34,15.43c-5.17,5.32-8.66,12.78-12.07,19.22
				c-4.21,7.91-10.74,14.47-17.74,19.77c-4.52,3.41-9.58,5.87-14.86,7.77c-17.65-0.02-35.52-0.04-53.56-0.04
				c11.91-3.56,23.23-8.55,34.81-13.72c10.24-4.59,18.84-11.27,26.29-19.66c3.36-3.79,6.08-8.18,9.14-12.21
				c3.82-5.05,8.05-9.56,12.62-13.92c0.71-0.68,1.44-1.35,2.17-2.01C906.15,945.49,938.07,944.76,970.43,943.89z"/>
			<path class="st3" d="M326.23,945.56c-3.02,1.67-6.04,3.38-9.12,4.94c-7.38,3.79-15.29,6.49-23.18,8.98
				c-9.26,2.95-18.52,4.71-28.02,6.54c-7.06,1.37-14.29,2.42-21.21,4.37c-7.04,1.99-14.42,4.55-21.74,5.32
				c-7.15,0.75-14.35,1.28-21.51,1.96c-9,0.84-17.9,1.17-26.77,3c-8.16,1.67-16.37,3.09-24.57,4.73
				c-8.41,1.65-16.85,3.15-25.28,4.71c-8.6,1.6-17.17,3.59-25.81,4.91c-7.45,1.14-14.95,1.69-22.36,2.99
				c-7.91,1.37-15.4,3.73-23.04,6.1c-5.17,1.62-10.08,3.88-14.88,6.36c-5.48,0.07-10.9,0.12-16.28,0.2c0.43-0.2,0.85-0.39,1.28-0.57
				c10.17-4.3,20.82-7.68,31.45-10.54c8.14-2.2,16.32-4.23,24.46-6.44c4.28-1.17,8.5-2.26,12.89-3.06
				c7.82-1.42,15.68-3.22,23.57-4.21c3.63-0.46,7.29-0.75,10.92-1.26c10.03-1.4,19.8-3.47,29.92-4.25
				c15.66-1.23,31.2-2.86,46.72-5.21c8.3-1.24,16.04-3.72,24.11-5.94c4.5-1.23,9.08-1.96,13.49-3.52c3.2-1.12,6.47-1.58,9.69-2.65
				c3.61-1.21,7.43-2.54,11.16-3.25c3.93-0.75,6.99-2.15,10.13-4.68c2.17-1.74,4.37-4.25,5.39-6.88c0.52-1.33,0.87-2.52,1.03-3.72
				C294.06,944.86,309.91,945.22,326.23,945.56z"/>
			<path class="st3" d="M223.6,943.03c-5.35,4.34-13.24,6.61-19.15,8.2c-14.93,4.04-30.38,5.88-45.47,9.21
				c-9.4,2.08-18.92,3.86-28.3,6.04c-8.94,2.06-17.8,4.84-26.58,7.43c-9.17,2.68-18.17,5.92-27.34,8.64
				c-6.36,1.87-12.62,3.84-18.83,6.19c-7.73,2.92-15.41,5.71-22.88,9.28c-6.72,3.22-13.72,5.62-20.48,8.75
				c-2.74,1.26-5.46,2.65-8.14,4.07c-14.47,0.18-28.6,0.37-42.4,0.57v-4c0.78-0.85,1.62-1.67,2.47-2.45
				c11.24-10.33,26.08-17.26,39.82-23.43c18.84-8.48,37.88-16.84,57.21-24.09c8.43-3.15,16.48-7.08,24.73-10.63
				c5.94-2.56,12.02-4.84,17.83-7.68C140,940.44,179.39,941.79,223.6,943.03z"/>
			<path class="st3" d="M89.58,938.48c-7.63,5.08-15.98,9.39-24.25,13.24c-9.1,4.28-18.56,7.11-27.93,10.68
				c-10.24,3.91-20.14,8.94-30.01,13.67c-9.33,4.48-19.04,8.09-28.34,12.66c-5.21,2.58-10.13,5.46-15.02,8.44v-15.56
				c2.44-1.58,5-2.99,7.59-4.23c8.92-4.25,18.42-7.86,28.02-10.26c9.07-2.28,17.72-4.82,26.19-8.84
				c6.79-3.22,13.12-6.97,19.16-11.47c4.91-3.66,9.72-6.88,15-9.56h0.02C69.26,937.66,79.13,938.07,89.58,938.48z"/>
			<path class="st3" d="M1211.31,935.14c-0.32,0.5-0.69,0.98-0.89,1.32c-1.16,1.92-2.68,3.57-4.05,5.37
				c-3.93,5.16-7.8,10.76-12.36,15.38c-5.9,5.99-13.64,4.23-21.31,3.02c-14.81-2.35-29.62-4.85-44.59-6.19
				c-22.56-1.99-45.1,1.19-67.5,3.56c-12.04,1.26-23.54,3.41-35.41,5.64c-9.1,1.71-17.99,3.75-26.68,7.09
				c-7.41,2.84-14.17,7.09-20.89,11.29c-6.92,4.34-11.34,9.74-17.1,15.43c-3.59,3.56-6.83,7.24-10.13,10.74h-0.02
				c-27.32-0.05-55.38-0.09-84.05-0.12c0.32-0.44,0.64-0.89,0.96-1.33c3.06-4.25,5.4-8.98,8.66-13.08
				c13.26-16.71,35.13-26.67,55.54-31.04c16.85-3.61,33.56-7.38,50.33-11.34c10.08-2.38,20-5.23,29.92-8.12
				C1076.84,940.79,1143.51,938.29,1211.31,935.14z"/>
			<path class="st3" d="M1181.68,1008.33c-18.63-0.05-38.27-0.12-58.81-0.18c-1.78-1.19-3.52-2.42-5.4-3.41
				c-3.31-1.76-6.76-3.29-10.15-4.92c-8.32-4.02-17.33-6.74-26.47-8.18c-21.32-3.36-43.87,1.76-62.7,12.12
				c-2.26,1.24-4.39,2.65-6.44,4.12c-12.96-0.02-26.11-0.05-39.5-0.07c3.06-2.1,6.29-4.02,9.24-6.2
				c11.84-8.75,24.76-16.14,38.61-21.21c16.25-5.97,32.94-10.13,50.35-9.92c15.89,0.2,32.46,1.37,48.14,4.05
				c14.24,2.45,29.53,5.78,41.99,13.32c7.59,4.6,17.76,10.86,20.87,19.66C1181.5,1007.78,1181.59,1008.06,1181.68,1008.33z"/>
			<path class="st3" d="M1261.82,932.67c4.11-0.21,8.23-0.43,12.36-0.64c-3.52,2.04-6.88,4.62-10.04,7.04
				c-5.08,3.86-10.26,7.61-15.34,11.43c-5.87,4.39-11.08,9.85-16.16,15.08c-6.06,6.2-13.74,11.82-17.56,19.84
				c-3.77,7.88,2.54,12.66,8.11,17.49c1.96,1.71,3.93,3.56,5.69,5.56c-8.11-0.02-16.48-0.05-25.1-0.07
				c-1.81-3.45-2.92-7.34-2.49-11.25c0.73-6.68,5.62-11.29,9.8-15.95c6.13-6.84,12.25-13.33,17.53-20.91
				C1236.77,948.6,1250.16,940.51,1261.82,932.67z"/>
			<path class="st3" d="M1352.13,927.69c-3.24,0.87-6.74,1.16-9.26,1.44c-3.79,0.39-7.63,0.16-11.41,0.21
				c-1.32,0.02-2.6-0.07-3.86-0.23C1335.75,928.65,1343.93,928.17,1352.13,927.69z"/>
			<path class="st3" d="M1393.41,988.58c-2.33,0.39-4.75,0.23-7.18-0.28c-5.81-1.19-11.73-4.23-16.89-5.76
				c-9.83-2.97-19.08-7.16-28.57-11.06c-6.01-2.45-11.7-4.73-18.31-4.53c-6.72,0.21-11.54,2.56-16.14,7.24
				c-8.64,8.75-18.08,17.71-31.31,16.02c-4.46-0.55-9.12-2.56-13.69-1.58c-3.06,0.66-5.9,6.31-6.97,9.12
				c-1.35,3.59-1.3,7.2-0.94,10.83c-3.27,0-6.61-0.02-10.01-0.04c-1.72-5.64-4.46-12.32-3.48-18.1c1.24-7.43,5.72-13.12,11.63-17.58
				c7.86-5.92,15.36-11.66,24.87-14.72c6.15-1.99,12.53-3.8,18.76-5.51c6.35-1.74,12.82-2.47,19.25-3.77
				c13.05-2.61,26.04-5.42,39.09-8.12c7.91-1.64,18.2-4.34,26.22-1.62c2.56,0.87,4.68,2.15,6.49,3.75c2.68,2.33,4.69,5.39,6.49,8.84
				c3.88,7.47,6.03,14.9,6.12,23.39C1398.88,980.03,1399.57,987.51,1393.41,988.58z"/>
		</g>
		<g class="st2">
			<path class="st3" d="M866.36,1005.43c2.24-1.16,4.1-1.99,5.51-3.99c1.12-1.59,2.61-2.98,3.91-4.43
				c3.86-4.31,9.13-7.49,13.99-10.62c2.5-1.61,5.19-2.5,7.73-3.99c3.07-1.81,6.1-3.49,9.28-5.09c7.02-3.52,14.08-7.2,21.3-10.3
				c6.14-2.64,12.78-4.49,19.1-6.7c5.67-1.99,11.44-4.68,17.27-6.07c4.81-1.15,9.6-2.21,14.44-3.19c1.5-0.31,3.3-0.38,4.73-0.82
				c0.92-0.28,1.28-0.86,2.43-0.71c-0.85-0.15-2.64,0.83-3.54,1.02c-2.04,0.45-4.18,0.55-6.2,0.99c-4.35,0.95-8.5,2.79-12.95,3.56
				c-3.52,0.6-7.29,1.44-10.67,2.54c-2.85,0.92-5.9,0.92-8.86,1.67c-6.2,1.57-12.35,2.98-18.68,3.86
				c-3.31,0.46-7.03,1.34-10.16,2.51c-3.13,1.17-5.81,2.71-9.09,3.55c-2.79,0.72-5.77,2.8-8.25,4.25c-2.33,1.36-4.14,2.3-6.19,4.19
				c-4.05,3.74-8.28,7.09-11.67,11.5c-1.25,1.63-3.04,2.81-4.04,4.65c-0.62,1.14-0.87,2.23-1.62,3.29
				C873.29,998.28,872.47,999.43,866.36,1005.43z"/>
			<path class="st3" d="M976.84,1006.1c5.81-4.33,11.78-8.23,18.04-11.96c6.62-3.94,12.54-8.88,19.82-11.62
				c4.25-1.6,8.37-3.6,12.67-5.08c2.23-0.77,4.53-0.92,6.77-1.62c1.78-0.55,3.4-1.47,5.22-1.92c5.83-1.47,11.66-2.15,17.65-2.16
				c3.11,0,6.57,0.41,9.63-0.15c2.46-0.45,4.7-0.53,7.21-0.52c2.32,0,4.34-0.53,6.61-0.71c2.13-0.17,4.37,0.03,6.51,0.03
				c2.21,0,4.73-0.31,6.93-0.03c2.09,0.26,4.14,0.83,6.21,1.22c2.21,0.41,3.99,0.91,6.12,1.7c1.26,0.46,3.02,0.77,4.11,1.53
				c-2.72-1.71-5.66-0.67-8.71-1.01c-2.23-0.25-4.04-0.72-6.33-0.71c-2.92,0.02-5.85,0-8.77,0c-6.79,0-13.63,0.09-20.33,1.35
				c-5.69,1.07-11.39,1.51-17.01,2.96c-5.56,1.44-10.84,1.74-15.78,4.96c-4.89,3.19-9.93,6.93-15.45,8.96
				c-6.61,2.44-13.49,4.16-20.07,6.7c-2.64,1.02-5.31,1.96-7.93,3.03C987.38,1002.1,984.88,1002.86,976.84,1006.1z"/>
			<path class="st3" d="M1200.5,996.67c0.76-1.59,1.75-3.89,2.49-5.49c0.62-1.33,1.62-2.3,2.26-3.58c0.55-1.09,0.62-2.14,1.24-3.18
				c1.08-1.8,2.57-3.58,3.98-5.14c4.35-4.82,8.95-9.14,13.97-13.34c2.54-2.13,4.66-4.58,7.22-6.63c2.46-1.98,4.48-4.4,6.7-6.59
				c2.38-2.35,4.71-4.86,7.26-7.05c1.58-1.36,3.87-3.79,5.98-4.13c-0.02,1.11-2.62,3.31-3.42,3.94c-2.49,1.97-4.2,4.3-6.44,6.57
				c-2.23,2.27-4.35,4.61-6.72,6.77c-2.77,2.53-5.69,4.81-8.44,7.37c-2.54,2.37-5.6,4.18-7.9,6.72c-1.95,2.15-4.04,3.94-5.75,6.27
				c-1.59,2.17-3.15,4.31-4.66,6.54c-0.99,1.46-2.21,2.67-3.06,4.22C1204.49,991.27,1202.79,992.49,1200.5,996.67z"/>
			<path class="st3" d="M1240.92,993.98c-0.21-1.45-0.99-4.46-0.53-6.14c0.18-0.66,0.5-1.36,0.69-2.07c0.6-2.31,1.81-3.89,3.22-5.76
				c3.49-4.61,8.54-8.08,13.51-10.98c4.82-2.82,9.67-5.51,14.64-8.08c5.38-2.78,11.91-4.29,17.82-5.52
				c3.66-0.77,7.26-1.73,10.96-2.36c3.74-0.63,7.36-1.8,11.09-2.37c4.01-0.62,8.02-1.19,11.99-2c1.84-0.38,3.67-0.71,5.53-1
				c3-0.47,5.82-1.5,8.79-2.05c7.18-1.34,14.44-2.51,21.38-4.86c4.72-1.6,10.09-3.39,15.02-4.08c5.33-0.75,10.33,3.27,11.45,8.08
				c0.26,1.12,0.35,7.41-0.7,7.53c-0.54,0.06-0.88-0.71-1.29-0.93c-0.9-0.47-1.94-0.7-2.86-1.14c-1.53-0.73-3.12-1.32-4.64-2.07
				c-2-0.98-4.01-1.24-6.07-2.02c-2.12-0.79-4.93-1.14-7.21-1.37c-2.35-0.24-4.61,0.13-6.88,0.54c-4.88,0.9-9.43,1.88-14.17,3.38
				c-5.59,1.77-11.13,3.72-16.83,5.02c-3.66,0.84-7.23,1.86-10.97,2.39c-3.54,0.51-7.11,0.64-10.6,1.35
				c-3.31,0.67-6.81,0.46-10.13,1.31c-3.58,0.92-7.27,1.3-10.91,2.03c-3.92,0.79-7.73,2.25-11.33,3.89
				c-2.71,1.23-4.92,2.9-7.48,4.38c-3.75,2.16-8.17,3.9-12.17,5.54c-3.08,1.26-6.75,2.95-9.3,5.17c-1.68,1.47-2.58,4.93-3.18,6.97
				C1239.12,988.83,1238.89,990.48,1240.92,993.98z"/>
			<path class="st3" d="M804.38,1004.08c4.19-2.39,8.9-4.09,13.49-5.56c4.26-1.36,8.33-4,12.17-6.23c3.61-2.09,6.76-3.87,9.77-6.81
				c1.4-1.37,2.99-2.35,4.3-3.78c1.4-1.53,2.7-3.04,4.06-4.6c2.19-2.51,4.41-4.98,6.59-7.51c1.47-1.71,2.27-3.86,3.77-5.61
				c1.25-1.47,2.62-2.83,3.8-4.35c2.16-2.78,4.32-5.55,6.41-8.37c0.75-1.01,1.27-2.24,2.31-2.95c0.84-0.57,1.77-0.7,2.44-1.55
				c-0.92,0.81-1.38,1.74-2.06,2.75c-1.07,1.59-2.6,2.69-3.74,4.2c-2.14,2.82-3.3,6.37-3.87,9.8c-0.31,1.86-0.46,3.7-0.77,5.56
				c-0.27,1.66,0.26,2.99-0.68,4.54c-1.79,2.95-6.47,5.71-9.55,6.89c-1.79,0.68-3.63,1.53-5.33,2.42c-0.83,0.43-1.38,1.19-2.17,1.66
				c-0.88,0.53-1.72,0.67-2.54,1.28c-1.17,0.87-2.33,2.24-3.39,3.25c-0.95,0.9-1.9,1.37-2.94,2.15c-1.03,0.78-1.85,1.85-3.05,2.55
				c-1.35,0.78-2.85,1.37-4.21,2.17c-2.12,1.25-4.26,1.84-6.59,2.7C818.52,1000.17,814.83,1001.83,804.38,1004.08z"/>
			<path class="st3" d="M751.83,994.65c5.17,0,10.92,0.66,16.03,0.03c3.56-0.44,7.1-1.12,10.6-1.72c2.6-0.45,5.12-1.31,7.72-1.68
				c1.61-0.23,3.05-0.7,4.73-0.67c0.53,0.01,1.53,0.16,2.04,0.03c0.61-0.15,0.67-0.61,1.28-0.75c1.31-0.3,2.76-0.29,4.08-0.62
				c1.69-0.41,3.32-0.94,5.07-1.28c2.11-0.42,3.72-1.4,5.72-1.97c1.13-0.32,1.7-0.29,2.68-0.79c0.84-0.42,1.68-0.93,2.55-1.36
				c1.76-0.87,2.63-1.78,3.68-3.37c0.42-0.63,1.03-1.21,1.38-1.87c0.33-0.62,0.19-0.88,0.45-1.52c0.38-0.92,0.97-1.92,1.22-2.83
				c0.31-1.16-0.29-2.81,0.67-3.69c0.76,2.03,0.13,5.34,0.15,7.54c0.03,2.49-0.85,4.6-2.68,6.42c-5.08,5.07-12.99,5.22-19.16,8.48
				c-3.34,1.76-6.46,2.96-10.16,3.97c-2.29,0.62-4.7,1.57-7.09,1.73c-2.32,0.16-4.66-0.83-6.91-1.24
				C767.89,996.01,757.35,1000.39,751.83,994.65z"/>
			<path class="st3" d="M509.99,973.77c4.89,1.88,9.44,4.56,14.15,6.9c4.64,2.31,9.19,4.55,13.62,7.24c3.41,2.07,6.64,4.2,9.96,6.41
				c1.49,0.99,2.93,1.92,4.36,2.95c1.01,0.73,2.74,1.11,3.45,2.18c-0.96-1.28-2.07-2.19-3.06-3.43c-1.37-1.72-3.42-2.37-4.79-4.08
				c-2.27-2.85-5.4-4.52-8.57-6.21c-3.45-1.85-6.56-4.39-10.25-5.73c-1.98-0.72-3.85-1.71-5.88-2.19
				C520.2,977.16,517.45,977.26,509.99,973.77z"/>
			<path class="st3" d="M562.53,948.17c3.05,2.29,5.84,4.53,8.78,6.94c2.05,1.68,4.32,2.85,6.58,4.22
				c4.03,2.43,8.49,3.61,12.76,5.52c2.02,0.9,4.12,1.29,6.08,2.17c1.48,0.66,2.86,1.58,4.36,2.22c2.15,0.92,4.36,1.6,6.53,2.47
				c2.36,0.95,4.66,2.43,7.11,3.09c3.26,0.87,6.48,1.19,9.77,2c3.05,0.75,6.04,1.69,9.11,2.36c1.47,0.32,2.94,0.72,4.38,1.18
				c1.48,0.47,2.94,0.55,4.39,0.91c1.01,0.25,2.28,0.96,3.16,1.13c1.05,0.2,2.26-0.16,2.98,0.86c-1.37,0.15-3.13-0.57-4.46-0.86
				c-1.81-0.39-3.71-0.93-5.55-1.35c-4.69-1.05-9.32-2.31-14-3.37c-10.72-2.42-21.31-4.92-31.6-8.87
				c-5.11-1.96-10.51-3.31-15.55-5.47c-2.93-1.25-5.87-1.98-8.63-3.7c-2.16-1.34-4.45-2.28-6.54-3.71c-1.65-1.13-3.4-2.08-5.04-3.2
				c-0.82-0.56-2.57-1.56-3.06-2.51C552.3,946.77,561.41,948.78,562.53,948.17z"/>
			<path class="st3" d="M277.57,1004.08c2.12-1.02,4.92-2.57,7.4-2.71c1.73-0.1,3.2-0.21,4.9-0.51c1.25-0.22,2.24-0.05,3.49-0.1
				c1.79-0.07,3.39-0.85,5.12-1.23c2.72-0.61,5.36-1.4,8.1-2c2.85-0.63,5.24-2.29,7.91-3.4c2-0.83,3.21-1.69,4.7-3.33
				c1.3-1.43,2.53-3.22,3.52-4.88c0.83-1.39,1.4-3.11,2.42-4.39c1.13-1.42,2.27-2.85,3.63-4.04c1.41-1.23,2.87-3.05,4.44-4
				c0.86-0.52,1.92-0.51,2.81-1.01c1.31-0.74,2.55-1.63,3.88-2.37c2.16-1.2,4.2-3.13,6.06-4.75c1.54-1.34,3.26-2.46,4.89-3.7
				c1.69-1.29,3.32-1.97,5.17-2.96c1.16-0.62,2.59-1.11,3.62-1.93c0.49-0.38,2.02-1.42,2.11-1.7c-1.22-0.64-3.53,0.71-4.63,1.33
				c-3.21,1.79-6.85,2.96-9.85,5.11c-3.08,2.21-6.53,3.89-9.56,6.21c-3.11,2.38-6.27,4.58-9.58,6.67
				c-3.92,2.47-7.79,5.07-11.79,7.48c-4.59,2.76-8.64,6.28-13.28,8.92c-4.16,2.37-8.27,4.65-12.65,6.57
				c-2.32,1.02-4.51,2.09-6.77,3.23C282.3,1001.24,279.93,1001.58,277.57,1004.08z"/>
			<path class="st3" d="M192.02,991.28c2.82-0.46,5.4-0.76,8.22-0.69c1.6,0.04,2.98,0.63,4.56,0.72c1.34,0.08,2.75-0.04,4.09-0.03
				c7.35,0.01,14.53-1.34,21.91-1.35c1.93,0,3.89-0.11,5.81-0.03c1.87,0.07,3.66,0.64,5.54,0.74c5.57,0.3,11.75-0.56,17.15-2.02
				c2.93-0.79,5.2-2.84,7.51-4.75c2.26-1.87,4.77-2.94,7.41-4.21c2.53-1.22,5.19-2.36,7.57-3.88c2.8-1.78,5.92-2.66,9.13-3.55
				c2.63-0.73,5.58-1.26,8.03-2.48c1.21-0.6,2.35-1.33,3.59-1.91c1.36-0.63,2.25-1.45,3.5-2.21c1.92-1.16,3.97-2.13,5.89-3.33
				c1.58-0.99,3.03-2.03,4.72-2.86c0.74-0.36,1.44-0.85,2.17-1.2c0.95-0.45,2.01-0.5,2.91-0.97c0.62-0.33,1.03-0.75,1.63-1.05
				c0.7-0.34,1.25,0.2,1.79-0.71c-0.65-0.07-0.78,0.42-1.22,0.56c-0.88,0.28-1.82,0.39-2.71,0.64c-2.65,0.75-5.39,1.82-7.93,2.88
				c-3.12,1.3-6.44,1.92-9.5,3.39c-2.37,1.14-4.55,2.58-6.92,3.7c-3.95,1.86-7.85,4.23-12.02,5.58c-1.93,0.62-4.09,0.77-6.05,1.31
				c-3.11,0.86-6.29,1.44-9.46,2.04c-3.6,0.69-7.22,1.28-10.81,2.02c-2.87,0.59-5.69,0.69-8.55,1.17
				c-7.32,1.24-14.49,2.34-21.65,4.42c-3.32,0.96-6.69,2.03-10.05,2.86c-2.88,0.71-5.88,0.76-8.78,1.31
				c-2.59,0.5-5.24,0.85-7.86,1.2C199.32,988.92,196.09,988.58,192.02,991.28z"/>
			<path class="st3" d="M218.29,973.1c5.48-1.76,11.12-2.8,16.59-4.61c3.94-1.3,7.75-3.15,11.69-4.4c1.51-0.48,3.08-0.55,4.59-1.06
				c1.31-0.44,2.51-1.18,3.79-1.67c6.6-2.54,14.44-3.65,19.79-8.47c2.39-2.16,2.52-8.76,6.89-8.1c1.03,0.15,1.65,0.51,2.66,0.7
				c1.34,0.26,3.03-0.02,4.39-0.02c1.12,0,6.76-0.58,7.02,0.53c-2.31,0.65-4.84,1.29-7.19,2.3c-3.19,1.38-5.82,3.63-9.01,4.98
				c-1.78,0.75-3.33,1.76-5.14,2.47c-1.68,0.65-3.3,1.44-4.97,2.11c-4.11,1.66-8.4,3.23-12.71,4.29c-3.09,0.76-6.22,1.34-9.27,2.19
				c-2.69,0.76-5.05,1.74-7.56,2.88C233.56,970.09,227.54,973.25,218.29,973.1z"/>
			<path class="st3" d="M-25.35,1000.27c2.36-2.21,4.44-3.7,7.22-5.35c1.97-1.16,3.91-2.42,5.89-3.56c2.75-1.57,5.93-2.39,8.81-3.68
				c7.76-3.48,16.3-4.3,24.66-5.48c4.75-0.67,9.45-1.65,14.1-2.79c3.33-0.82,6.48-1.61,9.46-3.38c1.78-1.05,3.69-2.32,5.29-3.66
				c1.57-1.31,2.72-2.9,4.13-4.33c1.57-1.6,3.67-2.61,5.12-4.38c0.88-1.07,0.82-2.41,1.98-3.27c2.09-1.57,5.18-1.52,7.56-2.45
				c5.81-2.27,11.59-4.61,17.18-7.42c2.89-1.45,5.71-2.89,8.67-4.15c1.53-0.66,3.08-1.62,4.36-2.69c0.99-0.83,2.23-1.38,3.03-2.37
				c0.4-0.49,1.26-1.42,0.92-2.06c-0.85,0.22-1.5,1.23-2.23,1.74c-2.04,1.43-4.49,2.52-6.68,3.7c-1.29,0.7-2.42,1.59-3.78,2.15
				c-1.51,0.62-3,1.28-4.51,1.9c-2.58,1.05-5.2,2.15-7.65,3.48c-2.48,1.36-5.05,1.88-7.63,2.95c-2.61,1.08-5.26,2.06-7.84,3.22
				c-5.75,2.59-11.82,4.29-17.63,6.75c-1.5,0.63-3.11,0.93-4.65,1.44c-1.33,0.44-2.51,1.12-3.77,1.71
				c-2.42,1.12-4.97,1.98-7.42,3.07c-2.5,1.12-5.04,2.02-7.5,3.19c-2.99,1.42-6.02,3.07-9.08,4.29c-6.48,2.58-12.65,5.69-18.92,8.76
				C-11.91,990.35-16.34,994.9-25.35,1000.27z"/>
			<path class="st3" d="M-35.23,980.51c8.24-2.56,15.64-7.32,24.26-8.65c7.15-1.11,14.98-1.58,21.59-4.83
				c1.52-0.75,2.99-1.27,4.42-2.13c2.55-1.53,5.44-2.6,8.06-4.06c1.66-0.93,3.17-1.65,4.65-2.8c1.04-0.81,2.48-1.21,3.31-2.28
				c-0.31,0.48-0.67,0.36-1.12,0.57c-1.44,0.68-2.84,1.48-4.29,2.17c-1.68,0.8-3.45,1.29-5.15,2.02c-1.5,0.64-2.98,1.45-4.54,1.93
				c-2.68,0.82-5.46,1.2-8.13,2.06c-2.48,0.8-5.08,1.53-7.59,2.19c-5.91,1.56-11.59,3.26-17.29,5.49c-3.07,1.2-6.06,2.53-9.09,3.83
				c-1.46,0.62-2.94,1.04-4.36,1.75C-32.46,978.74-34.97,979.46-35.23,980.51z"/>
			<path class="st3" d="M31.05,1009.36c1.12,0.02,2.31,0.16,3.29-0.24c0.57-0.24,1.19-0.62,1.81-0.85c2.33-0.86,4.63-1.96,6.88-3.02
				c2.89-1.36,5.54-3.18,8.51-4.38c2.9-1.17,5.85-2.32,8.82-3.31c10.04-3.34,20.51-3.72,30.88-5.36c2.43-0.38,4.8-1.1,7.18-1.71
				c2.59-0.66,5.14-0.95,7.78-1.32c2.93-0.42,5.91-0.83,8.83-1.34c3.24-0.56,6.33-1.5,9.62-1.82c4.89-0.48,9.74-1.58,14.62-2.19
				c1.22-0.15,2.37-0.4,3.59-0.49c1.03-0.07,1.99-0.6,3.02-0.46c-0.69-0.12-1,0.17-1.6,0.34c-1.05,0.3-2.23,0.3-3.31,0.55
				c-2.85,0.66-5.67,1.36-8.54,1.92c-2.4,0.47-4.74,1.36-7.16,1.68c-2.13,0.29-4.3,0.73-6.39,1.22c-5.3,1.25-10.5,2.5-15.88,3.37
				c-2.82,0.45-5.61,1.26-8.41,1.81c-3.09,0.61-6.28,1.24-9.31,2.13c-1.26,0.37-2.56,0.62-3.86,0.81c-1.53,0.23-3.07-0.09-4.6,0.19
				c-1.11,0.21-2.09,0.37-3.22,0.35c-1.57-0.03-2.96,0.39-4.5,0.47c-6.08,0.34-12.05,1.16-17.85,3.12
				c-2.68,0.91-5.36,1.62-7.77,3.15c-1.33,0.85-2.6,1.75-3.93,2.58c-0.94,0.59-1.87,1.16-2.82,1.71
				C35.62,1008.93,34.2,1010.12,31.05,1009.36z"/>
		</g>
	</g>
	<g>
		<polygon class="st4" points="509.86,962.68 523.75,972.24 540.26,975.67 535.47,991.84 537.31,1008.6 520.45,1009.04 
			505.08,1015.96 499.45,1000.07 488.11,987.58 501.49,977.32 		"/>
		<polygon class="st5" points="509.58,961.46 523.48,971.02 539.98,974.45 535.19,990.62 537.03,1007.38 520.17,1007.82 
			504.8,1014.74 499.17,998.85 487.84,986.37 501.21,976.1 		"/>
	</g>
	<g>
		<polygon class="st4" points="345.2,974.3 350.99,990.13 362.46,1002.5 349.19,1012.9 340.97,1027.62 326.98,1018.21 
			310.44,1014.95 315.06,998.73 313.05,981.99 329.9,981.38 		"/>
		<polygon class="st6" points="345.68,973.14 351.47,988.98 362.94,1001.34 349.67,1011.74 341.45,1026.47 327.46,1017.06 
			310.92,1013.79 315.54,997.58 313.53,980.84 330.38,980.23 		"/>
	</g>
	<g>
		<polygon class="st4" points="644.13,954.42 649.92,970.26 661.39,982.62 648.12,993.02 639.9,1007.75 625.91,998.34 
			609.37,995.07 613.99,978.86 611.98,962.12 628.83,961.5 		"/>
		<polygon class="st7" points="644.61,953.27 650.4,969.1 661.87,981.47 648.59,991.87 640.38,1006.59 626.39,997.18 609.84,993.92 
			614.47,977.7 612.46,960.96 629.31,960.35 		"/>
	</g>
	<g>
		<polygon class="st4" points="22.43,949.46 33.82,961.9 49.13,968.97 40.81,983.64 38.82,1000.38 22.3,997.01 5.76,1000.29 
			3.86,983.53 -4.37,968.82 10.98,961.84 		"/>
		<polygon class="st8" points="22.44,948.21 33.82,960.65 49.13,967.72 40.82,982.39 38.82,999.13 22.3,995.76 5.76,999.04 
			3.87,982.28 -4.36,967.57 10.99,960.59 		"/>
	</g>
	<g>
		<polygon class="st4" points="1284.09,947.22 1292.52,961.82 1305.95,972.02 1294.67,984.55 1289.12,1000.48 1273.72,993.62 
			1256.86,993.27 1258.62,976.5 1253.75,960.35 1270.24,956.84 		"/>
		<polygon class="st8" points="1284.36,946 1292.8,960.6 1306.22,970.8 1294.95,983.33 1289.4,999.26 1273.99,992.4 1257.13,992.05 
			1258.89,975.28 1254.02,959.13 1270.51,955.62 		"/>
	</g>
</g>
<g>
	<g>
		<linearGradient id="SVGID_4_" gradientUnits="userSpaceOnUse" x1="670.1302" y1="336.2682" x2="670.1302" y2="258.3501">
			<stop  offset="0" style="stop-color:#EA602E"/>
			<stop  offset="0.3756" style="stop-color:#EB692D"/>
			<stop  offset="0.9762" style="stop-color:#EF802A"/>
			<stop  offset="1" style="stop-color:#EF812A"/>
		</linearGradient>
		<path class="st10" d="M1381.22,271.35v64.92H-40.96v-77.92c0,0,38.22,2.76,108.51,6.36c11.77,0.62,24.43,1.24,37.95,1.88
			c21.97,1.07,46.26,2.15,72.71,3.25c22.68,0.94,47,1.88,72.83,2.81c42.84,1.53,89.86,3.02,140.73,4.34h0.21
			c33.69,0.85,69.03,1.65,105.97,2.35h0.02c92.87,1.74,195.73,2.83,306.89,2.74h0.05c13.81,0,27.75-0.02,41.81-0.07h0.07
			c42.42-0.14,85.95-0.44,130.57-0.96c12.14-0.12,24.35-0.28,36.66-0.46c8.3-0.11,16.66-0.23,25.03-0.36c0,0,0,0,0.02,0
			c23.02-0.36,46.27-0.75,69.79-1.23c0.02,0,0.04,0.02,0.05,0c21.65-0.41,43.52-0.89,65.58-1.4h0.02
			c7.38-0.18,14.79-0.36,22.22-0.55c0.02,0,0.02,0,0.04,0c7.52-0.18,15.08-0.37,22.65-0.57h0.02c18.19-0.5,36.48-1.01,54.91-1.56
			C1309.55,273.87,1345.17,272.68,1381.22,271.35z"/>
		<g class="st2">
			<path class="st3" d="M569.76,310.83c-4.85,5.19-14.04,6.56-20.27,9.33c-7.47,3.31-14.79,5.67-22.86,7.15
				c-14.33,2.6-30.38,3.47-44.89,2.08c-8.48-0.8-17.08-2.79-25.6-3.82c-4.87-0.59-10.36-0.8-15.15-1.96
				c-3.5-0.85-5.16-1.81-6.45-5.03c-1.49-3.7-0.34-5.16,0.27-8.66c0.8-4.6-1.3-10.04,1.21-14.2c6.49-10.81,24.87-9.21,35.59-9.19
				c10.63,0,22.51-0.21,32.48,4.34c2.67,1.21,4.84,2.92,5.74,5.87c0.94,3.11-0.8,4.78-2.49,7.25c-1.64,2.42-2.4,5.39-4.28,7.52
				c-2.19,2.47-5.05,3.32-8.16,4.04c-9.44,2.13-15.47-1.9-21.48-8.87c-3.79-4.39-6.49-9-12.92-9.48c-5.03-0.37-9.33,3.41-12.43,6.76
				c-1.69,1.83-2.26,3.09-2.38,5.46c-0.12,1.92,0.71,2.95,1.07,4.34c0.43,1.65,0.27,2.74,1.24,4.12c1.26,1.8,4.14,3.22,6.06,4.04
				c6.6,2.86,16.11,4.36,23.13,3.57c4.68-0.52,8.82-1.3,13.56-1.26c4.68,0.04,9.67,0.53,14.28-0.09c6.7-0.91,13.94-1.07,20.5-2.84
				c2.83-0.78,5.51-2.49,8.11-3.79c3.5-1.74,4.59-2.45,5.1-6.77c1.33-11.5-13.78-19.7-22.67-23.23c-6.88-2.74-13.19-2.38-20.55-2.33
				c-3.68,0.04-6.49-0.66-10.06-1.23c-3.82-0.6-7.47,0.07-11.29-0.78c-3.72-0.84-7.13-0.64-10.93-0.66c-6.2,0-12.2-1.42-18.45-1.4
				c-18.24,0.09-37.03,1.32-55.04,4.37c-18.52,3.15-36.75,7.47-55.2,11.13c-9.97,1.97-19.68,5-29.71,6.77
				c-10.84,1.92-21.16,4.96-31.54,8.69c-18.29,6.58-35.39,15.02-52.27,24.21h-58.79c0.87-0.18,1.72-0.37,2.6-0.62
				c14.99-4.25,28.02-11.16,41.07-19.5c12.85-8.2,24.51-17.17,38.95-22.54c7.52-2.81,14.54-5.32,22.56-6.13
				c8.75-0.91,17.49-1.85,26.26-2.65c25.4-2.31,50.75-4.71,76.19-6.76c7.27-0.59,14.58-0.91,21.9-1.07h0.21
				c33.69,0.85,69.03,1.65,105.97,2.35h0.02c1.71,0.36,3.4,0.71,5.05,1.1c14.84,3.43,30.04,5.16,44.91,8.43
				c8.05,1.78,15.29,4.3,20.44,10.81C570.7,302.63,572.92,307.45,569.76,310.83z"/>
			<path class="st3" d="M251.05,272.66c-8.09,2.44-16.12,5-23.64,9.03c-13.6,7.29-27.34,15.29-40.5,23.38
				c-10.76,6.61-21.67,11.88-33.49,16.48c-9.48,3.7-18.1,8.28-28.05,10.84c-7.18,1.83-14.52,2.86-21.87,3.88H1.45
				c5.94-2.15,12.11-3.86,18.54-5.37c14.88-3.45,29.76-7.02,44.71-10.08c13.46-2.76,27.07-4.91,39.93-9.96
				c8.52-3.34,16.34-8.2,24.5-12.25c7.09-3.52,14.17-7.06,20.73-11.48c4.68-3.15,9.67-5.37,14.24-8.69
				c4.48-3.25,9.4-5.71,14.12-8.59C200.9,270.79,225.22,271.74,251.05,272.66z"/>
			<path class="st3" d="M98.2,283.81c-10.92,8.76-25.3,15.8-37.85,21.49c-17.17,7.79-35.31,14.49-53.31,20.09
				c-12.73,3.95-25.71,7.98-38.81,10.88h-9.19v-11.48c5.12-2.4,9.88-4.32,14.99-6.01c13.92-4.66,26.84-9.1,39.84-15.98
				c9.87-5.21,19.75-9.48,28.8-16.05c5.3-3.84,11.27-6.72,16.27-10.95c3.56-3,6.97-6.65,8.62-11.08
				c11.77,0.62,24.43,1.24,37.95,1.88c0.05,0.27,0.09,0.53,0.12,0.8C106.61,274.19,103.71,279.36,98.2,283.81z"/>
			<path class="st3" d="M846.73,282.01c-13.69,1.67-27.48,3.4-40.85,6.72c-7.18,1.8-14.15,3.82-21.46,5.19
				c-23.23,4.36-47.38,3.43-70.97,3.38c-7.91-0.02-15.77-0.48-23.57,1.21c-6.6,1.42-12.87,3.68-19.16,6.12
				c-11.24,4.34-15.79,16.14-25.69,22.36c-6.49,4.09-15.11,7.52-22.68,9.28h-36.3c8.57-2.86,16.98-6.36,25.42-9.48
				c18.72-6.9,34.68-17.19,51.32-27.98c6.72-4.36,14.03-8.09,21.51-10.97c9.37-3.61,18.92-2.68,28.83-2.7
				c20.66-0.02,41.05,1.96,61.71,0.41c10.1-0.76,20.07-2.01,30.03-3.47h0.05C818.73,282.08,832.67,282.07,846.73,282.01z"/>
			<path class="st3" d="M1015.15,334.06c-1.88,1.81-5.28,0.76-7.72,1.24c-2.76,0.55-5.51,0.82-8.28,0.96h-48.12
				c-0.91-0.39-1.8-0.84-2.7-1.35c-5.32-3.02-10.67-6.58-16.57-8.36c-5.19-1.56-10.44-3.54-15.57-5.35
				c-5.33-1.88-11.06-3.79-16.71-3.7c-4.85,0.05-9.72,0-14.58-0.02c-9.39-0.05-18.51,1.48-27.89,1.39
				c-11.2-0.11-22.11,0.92-33.28,1.48c-12.82,0.64-25.72,1.05-38.49,2.24c-13.35,1.23-26.88-0.85-40.21,0.59
				c-8.28,0.91-17.35,0.07-25.4,2.2c-8.91,2.36-17.39,6.92-25.88,10.88H656.1c5.46-4.89,10.72-10.1,16.89-13.96
				c9.44-5.88,22.03-8.36,32.87-9.55c17.1-1.87,33.83-2.04,51.06-2.01c21.03,0.05,42.42-0.68,63.36-2.68
				c9.6-0.91,19.2-1.69,28.8-2.65c9.42-0.94,18.6-3.31,28.03-4.11c10.76-0.91,21.26-3.2,32.11-2.65
				c12.28,0.64,24.62,1.88,36.75,3.95c17.33,2.95,35.71,6.7,50.84,16.16c4.84,3.02,8.98,6.84,13.51,10.24
				C1012.38,330.54,1013.86,331.82,1015.15,334.06z"/>
			<path class="st3" d="M1131.63,336.27h-24.51c-0.16-0.21-0.36-0.43-0.53-0.62c-2.74-2.99-6.24-5.23-9.69-7.34
				c-18.74-11.52-40.09-18.68-60.34-26.97c-18.58-7.61-38.26-12.75-57.31-18.86c-0.46-0.32-1.12-0.8-1.87-1.42
				c12.14-0.12,24.35-0.28,36.66-0.46l-1.76,3.59c1.56,0.44,3.15,0.87,4.73,1.28c7.56,1.99,14.01,6.67,21.37,9.14
				c11,3.68,23.86,4.76,34.24,9.97c6.42,3.22,11.77,8.09,18.17,11.31c4.3,2.17,8.3,4.3,12.48,6.7c8.68,4.96,17.72,9.35,26.97,13.16
				C1130.63,335.89,1131.11,336.07,1131.63,336.27z"/>
			<path class="st3" d="M1232.89,336.27h-64.48c-2.01-2.86-3.86-5.94-6.24-8.39c-5.33-5.48-13.26-7.57-20.14-10.65
				c-12.64-5.65-25.15-11.48-38.06-16.57c-7.02-2.77-14.13-5.37-21.3-7.79c-10.26-3.45-20.62-6.49-31.06-9.3
				c-4.12-1.12-8.3-2.35-12.53-3.34c23.02-0.36,46.27-0.75,69.79-1.23c0.02,0,0.04,0.02,0.05,0c12.12,2.15,24.64,2.52,36.83,4.12
				c10.93,1.44,21.53,4.44,31.16,9.97c6.45,3.7,14.1,8.04,19.71,12.91c3.95,3.4,7.25,7.24,11.61,10.17
				c4.92,3.32,9.03,6.92,13.58,10.67c3.77,3.13,7.61,5.51,10.86,9.21C1232.77,336.13,1232.82,336.2,1232.89,336.27z"/>
			<path class="st3" d="M1290.1,336.27h-25.83c-1.28-1.87-2.33-4.89-3.09-6.35c-1.99-3.8-4.55-6.88-7.95-9.67
				c-6.38-5.24-11.59-11.59-18.17-16.57c-10.38-7.84-20.78-12.89-32.98-17.35c-5.58-2.03-10.97-4.57-16.62-6.36
				c-3.54-1.12-7.24-1.76-10.93-2.36c7.38-0.18,14.79-0.36,22.22-0.55c0.02,0,0.02,0,0.04,0c4.59,1.39,9.14,2.95,13.67,4.75
				c17.74,7,36.21,15.32,51.8,26.42c9.64,6.86,20.11,15.52,26.97,25.21C1290.08,334.63,1290.56,335.33,1290.1,336.27z"/>
			<path class="st3" d="M1333.58,336.27h-27.16c-3.5-6.31-9-11.82-13.4-17.37c-4.62-5.78-11.75-10.29-17.32-15.16
				c-6.99-6.13-13.05-11.34-21.23-15.93c-8.07-4.55-16.69-7.4-25.71-9.44c-2.88-0.66-6.36-1-9.32-1.88
				c18.19-0.5,36.48-1.01,54.91-1.56c5.74,2.84,11.15,6.4,16.46,10.12c10.4,7.27,20.62,16.66,28.14,26.81
				c5.69,7.72,10.36,15.24,14.38,23.93C1333.42,335.93,1333.51,336.09,1333.58,336.27z"/>
			<path class="st3" d="M432.13,336.27H283.92c8.11-4.14,16.6-7.29,25.17-10.45c16.3-6.01,33.71-6.61,50.79-8.69
				c7.36-0.89,14.74-1.12,22.06-2.31c5.6-0.91,10.88-1.87,16.57-1.07c9.32,1.28,16.36,5.12,22.93,11.54
				C424.54,328.3,430.78,331.93,432.13,336.27z"/>
		</g>
		<g class="st2">
			<path class="st3" d="M176.24,333.67c2.93-0.92,5.35-1.58,8.07-2.97c3.19-1.62,6.2-3.54,9.42-5.12c3.68-1.8,7.21-3.92,10.95-5.57
				c3.28-1.45,6.67-2.62,9.97-4.01c5.85-2.46,11.71-5.32,17.16-8.58c2.51-1.5,4.67-3.48,7.21-4.94c2.82-1.62,5.98-2.59,8.98-3.82
				c7.79-3.18,15.91-5.11,23.76-7.99c3.11-1.14,6.68-1.38,9.91-2.15c3.88-0.93,7.88-0.96,11.78-1.72c3.5-0.68,6.99-1.37,10.5-2.05
				c2.75-0.53,5.57-1.52,8.39-1.62c1.68-0.06,3.1-0.5,4.74-0.69c0.85-0.1,2.36,0.51,2.59-0.49c-1.6-0.61-2.73,0.23-4.19,0.69
				c-3.62,1.15-7.63,1.13-11.33,2.03c-2.28,0.56-4.22,0.33-6.54,0.44c-4.23,0.2-8.71,1.47-12.92,2.08c-5.67,0.82-11.29,0.67-17,0.67
				c-2.6,0-5.35-0.29-7.91,0.14c-3.19,0.54-6.28,1.61-9.43,2.37c-5.99,1.45-11.85,3.85-17.19,6.92c-5.56,3.2-11.03,6.68-15.98,10.76
				c-3.08,2.54-6.55,4.63-9.93,6.75c-3.19,2.01-6.38,4.04-9.65,5.91c-2.98,1.7-5.93,3.53-8.59,5.72
				C187.17,327.96,184.44,329.15,176.24,333.67z"/>
			<path class="st3" d="M32.07,328.28c2.96-0.44,5.32-1.1,8.05-2.02c2.4-0.81,4.88-0.71,7.35-1.2c2.03-0.4,4.13-0.02,6.19-0.29
				c2.51-0.34,4.89-0.44,7.42-0.59c3.05-0.18,5.98-0.76,9.06-0.66c2.57,0.09,5.07,0.53,7.61,0.89c2.54,0.36,4.83,0.68,7.24,1.52
				c2.09,0.73,3.71,1.14,5.96,1.07c5.82-0.2,10.74-3.02,15.9-5.39c3.39-1.56,6.37-2.96,7.6-6.62c1-2.98,2.63-4.91,5.33-6.74
				c1.71-1.16,3.49-2.34,5.28-3.38c2.06-1.2,3.88-2.68,5.91-3.91c0.97-0.59,1.94-0.9,2.85-1.61c0.92-0.72,1.56-1.48,2.63-2.04
				c6.04-3.17,12.28-5.87,18.11-9.43c2.09-1.28,4.27-2.67,6.2-4.19c1.54-1.22,2.96-2.64,4.56-3.77c1.02-0.72,1.94-0.85,3.03-1.43
				c1.16-0.62,1.9-1.57,2.86-2.42c0.74-0.65,1.69-0.96,2.39-1.64c1.07-1.04,2.15-2.27,3.06-3.47c-0.52,0.87-2.32,1.29-3.18,1.73
				c-3.19,1.63-6.38,3.13-9.5,4.91c-5.58,3.18-10.44,7.12-16.29,9.75c-8.97,4.04-17.25,9.43-26.18,13.48
				c-3.69,1.68-7.16,3.95-10.79,5.78c-3.05,1.53-6.4,2.57-9.57,3.84c-10.79,4.33-22.37,6.05-33.74,8.08
				c-5.12,0.92-10.12,2.61-15.09,4.2c-2.65,0.85-5.21,1.46-7.92,2.17c-2.1,0.55-4.06,1.42-6.12,2.09
				C36.89,327.41,35.3,327.44,32.07,328.28z"/>
			<path class="st3" d="M-40.68,325.58c2.58-0.8,4.92-1.78,7.42-2.71c1.77-0.66,3.58-0.84,5.42-1.3c3.1-0.76,6.12-1.87,9.2-2.73
				c4.6-1.27,9.15-2.31,13.65-3.91c4.42-1.57,9.14-1.43,13.67-2.47c4.84-1.11,9.3-2.3,13.96-4.01c3.66-1.34,6.88-3.63,10.06-5.85
				c1.9-1.33,3.31-3.26,5.25-4.52c4.72-3.07,10.17-4.76,14.92-7.73c2.06-1.28,4.68-2.45,6.2-4.33c1.37-1.7,2.56-3.66,3.7-5.53
				c1.89-3.1,3.42-5.98,4.2-9.52c0.55-2.49-1.17-3.75-1.34-5.94c-1.76,0.24-3.27,4.08-4.13,5.24c-3.35,4.49-8.39,8.22-12.84,11.55
				c-4.74,3.54-9.84,6.75-15.23,9.25c-4.11,1.91-7.97,4.16-12.14,5.91c-5.46,2.29-10.38,6.13-15.73,8.73
				c-5.29,2.57-10.52,4.98-16.04,7.07c-5.42,2.05-11.12,3.93-16.2,6.72C-32.82,322.86-40.01,325.63-40.68,325.58z"/>
			<path class="st3" d="M283.35,337.04c11.65-1.76,21.6-8.35,32.36-12.85c5.91-2.47,12.8-3.61,19.18-3.99
				c6.7-0.4,13.24-1.21,19.96-1.32c5.79-0.1,11.62-0.94,17.41-1.29c6.09-0.36,12.17-1.14,18.21-1.95c4.02-0.54,8.27-0.14,12.33-0.15
				c2.06-0.01,3.3,0.17,4.96,1.23c-2.16-2.27-7.49-1.31-10.17-0.92c-4.65,0.69-9.29,1.4-13.85,2.55
				c-5.58,1.41-11.21,2.44-16.92,3.21c-6.28,0.84-12.53,0.67-18.85,0.67c-2.76,0-6.99-0.86-9.39,0.81
				c-2.19,1.52-2.26,4.23-4.76,5.59c-2.73,1.48-5.64,1.97-8.64,2.51c-3.7,0.67-7.25,1.9-11,2.39
				C305.56,334.65,296.99,335.53,283.35,337.04z"/>
			<path class="st3" d="M434.93,312.78c0.32-2.6,0.49-5.25,1.01-7.75c0.42-2.01,0.25-4.06,0.83-6.08c0.79-2.75,0.89-6.13,2.83-8.42
				c2.75-3.25,9.95-2.69,13.66-2.68c6.3,0.02,12.61,0,18.91,0c3.97,0,7.95,0.03,11.93-0.01c2.15-0.02,3.97,0.58,6.06,0.72
				c2.02,0.13,4.08-0.25,6.09,0.02c2.09,0.28,5.45,0.76,7.07,1.96c0.73,0.54,2.88,2.45,2.94,3.26c-0.74,0.39-3.12-0.75-4.08-1.05
				c-3.41-1.06-7.09-2.11-10.68-2.24c-8.16-0.28-16.19,0.7-24.32,0.71c-2.29,0-4.59,0-6.88-0.02c-2.87-0.02-5.56,0.64-8.41,0.72
				c-2.92,0.09-6.38-0.65-8.91,1.28c-2.2,1.68-3.12,3.65-3.97,6.2C437.78,303.05,435.91,306.02,434.93,312.78z"/>
			<path class="st3" d="M543.39,288.53c2.77,0.88,5.05,1.38,7.54,2.66c2.14,1.1,3.89,2.63,5.78,4.07c1.82,1.39,2.44,2.84,3.52,4.75
				c0.38,0.67,1,1.27,1.36,1.95c0.57,1.05,0.5,1.65,0.82,2.77c0.81,2.8,0.87,6.46-1.48,8.76c-1.08,1.06-2.56,1.98-3.74,3.02
				c-1.04,0.93-2.57,1.28-3.43,2.4c1.09-1.39,2.94-1.45,4.41-2.24c2.14-1.15,4.37-1.82,6.62-2.71c2.79-1.11,5.63-3.5,6.16-6.35
				c0.67-3.6-1.29-8.56-4.46-10.6c-2-1.29-4.64-2.43-6.88-3.24c-2.28-0.83-4.48-1.78-6.8-2.54
				C550.92,290.61,548.76,289.37,543.39,288.53z"/>
			<path class="st3" d="M597.28,333.67c2.66-1.01,4.82-2.46,7.49-3.33c2.48-0.81,4.67-2.04,7.04-3.09
				c3.64-1.62,7.25-3.34,10.92-4.88c6.43-2.69,13.08-4.85,19.15-8.37c3.74-2.17,7.9-3.9,11.35-6.45c2.79-2.07,5.47-4.23,7.9-6.73
				c1.98-2.04,4.53-4.03,7.05-5.39c0.71-0.11,1.35-0.38,1.93-0.8c0.27-0.39,0.51-0.79,0.71-1.22c0.67-0.65,2.14-1.06,3-1.49
				c1.19-0.59,2.31-1.47,3.56-1.9c2.1-0.71,4.57-0.92,6.76-1.31c5.74-1.04,11.8-1.6,17.63-1.52c2.44,0.03,4.4-0.22,6.8-0.52
				c3.28-0.42,6.68-0.15,9.99-0.15c4.83,0,9.66,0,14.49,0c13.06,0,26.13-0.06,39.19,0c-0.96-0.2-1.26,0.36-1.87,0.51
				c-1.48,0.35-3.1,0.49-4.6,0.67c-5.33,0.64-10.76,1.13-16.11,1.52c-4.1,0.29-8.08,0.67-12.2,0.67c-5.58,0-11.15,0-16.73,0
				c-4.98,0-9.99,0.13-14.97,0.03c-4.12-0.09-8.16-1.19-12.3-0.56c-3.87,0.58-7.8,1.93-11.46,3.23c-2.27,0.8-4.61,1.25-6.89,2.02
				c-2.59,0.87-5.38,1.8-7.65,3.38c-2.06,1.43-2.6,3.01-3.57,5.15c-2.87,6.35-8.46,11.06-14.22,14.57
				c-7.94,4.83-17.32,7.25-26.28,9.39c-4.47,1.07-8.51,2.75-13.14,3.41c-2.04,0.29-4.1,0.58-6.12,0.98
				C602.7,331.74,601.31,332.9,597.28,333.67z"/>
			<path class="st3" d="M654.99,335.91c1.18-1.11,2.48-2.07,3.57-3.22c0.91-0.96,1.69-2.1,2.7-2.96c1.21-1.03,2.16-2.03,3.25-3.17
				c0.82-0.85,1.93-1.29,2.86-2.01c2.38-1.85,5.08-2.86,7.9-3.92c1.93-0.73,3.86-1.1,5.88-1.45c1.54-0.27,2.96-0.88,4.49-1.15
				c4.71-0.84,9.44-1.76,14.13-2.78c4.77-1.04,9.39-2.58,14.17-3.62c2.59-0.56,5.3-0.74,7.94-0.88c3.02-0.15,5.98-0.48,9.02-0.46
				c3.02,0.02,6.06-0.08,9.08-0.01c2.67,0.06,5.3,0.5,7.97,0.49c5.45-0.03,10.84,0.44,16.28,0.43c2.56-0.01,5.11-0.01,7.67,0.01
				c1.93,0.02,3.76-0.3,5.68-0.42c3.47-0.21,6.96-0.85,10.44-0.95c2.37-0.07,4.72-0.4,7.09-0.46c2.33-0.06,4.6,0.07,6.93-0.2
				c2.3-0.27,4.6-0.11,6.9-0.31c2.42-0.21,4.79-0.64,7.22-0.81c1.7-0.12,3.33-0.49,5.04-0.46c1.09,0.02,2.04-0.02,3.11-0.21
				c2.24-0.41,4.48-0.07,6.75-0.2c1.06-0.06,1.98-0.46,3.04-0.48c0.58-0.01,1.17,0.01,1.75,0.01c-1.02,0-1.57,0.33-2.51,0.46
				c-2.53,0.37-5.11,0.74-7.67,1.11c-6.94,1.01-13.77,2.7-20.71,3.6c-7.36,0.96-14.64,1.61-22.06,1.56
				c-3.43-0.03-6.79,0.48-10.23,0.46c-3.55-0.02-7.05,0.23-10.58,0.68c-3.38,0.43-6.59,0.03-9.96-0.17
				c-4.08-0.25-8.17-0.45-12.23-0.85c-4.96-0.5-9.54,0.56-14.37,1.49c-4.59,0.89-9.32,1.62-13.99,1.55
				c-3.74-0.05-7.43,0.47-11.18,0.44c-3.35-0.03-6.75,0.38-10.06,0.91c-2.59,0.41-5.22,0.66-7.4,2.25c-1.54,1.12-2.88,2.2-4.55,3.12
				c-1.2,0.66-2.11,1.55-3.4,2.06c-1.69,0.66-3.46,1.13-5.16,1.76c-2.49,0.92-4.68,2.93-6.07,5.16c-0.61,0.98-1.23,2.31-2.2,2.78
				C659.61,335.99,657.07,335.92,654.99,335.91z"/>
			<path class="st3" d="M842.27,306.72c1.53-0.29,2.99-0.74,4.51-1.02c1.89-0.34,3.83-0.39,5.72-0.76c1.86-0.37,3.57-0.91,5.48-0.93
				c2.35-0.03,4.63-0.26,6.97-0.39c2.11-0.12,4.21,0.06,6.31-0.08c1.88-0.12,3.75-0.36,5.64-0.46c3.79-0.2,7.44-1.1,11.2-1.54
				c3.42-0.4,6.87-0.67,10.32-0.66c3.43,0.01,6.91,0.17,10.34,0.02c3.36-0.15,6.61-0.76,9.98-0.38c3.59,0.4,7.16,0.97,10.75,1.38
				c6.64,0.77,13.42,0.37,19.91,2.12c2.59,0.7,5.2,1.4,7.84,1.91c2.62,0.5,4.99,1.4,7.53,2.05c2.01,0.51,4.15,0.69,6.2,0.99
				c1.73,0.25,3.45,0.81,5.15,1.23c2.62,0.65,5.07,1.64,7.48,2.84c-0.49,0.07-0.61-0.3-0.98-0.42c-1.1-0.37-2.33-0.61-3.45-0.96
				c-1.47-0.45-2.93-0.7-4.43-1.01c-1.26-0.26-2.39-0.77-3.69-0.82c-2.68-0.1-5.45-0.06-8.06,0.58c-2.74,0.67-5.24,1.26-8.08,1.27
				c-3.57,0.01-6.8-0.65-10.04-2.25c-2.75-1.36-5.3-3.09-8.06-4.42c-4.91-2.36-9.76-2.33-15.06-2.34c-7.17,0-14.25-1.33-21.44-1.36
				c-3.5-0.01-7.17,0.18-10.5,1.36c-2.04,0.72-4.16,1.44-6.28,1.91c-6.14,1.34-12.51,2.18-18.78,2.12
				c-1.98-0.02-3.88,0.17-5.84,0.36c-2.22,0.22-4.42,0.03-6.64,0.08c-2.29,0.04-4.55,0.42-6.83,0.5
				C844.04,307.69,842.17,307.18,842.27,306.72z"/>
			<path class="st3" d="M1135.54,282.02c3.56,0.64,6.96,1.58,10.55,1.8c3.9,0.24,8.04,0.77,11.86,1.78
				c2.11,0.56,4.09,1.65,6.21,2.17c2.19,0.54,4.36,0.96,6.54,1.56c1.48,0.41,3.05,0.84,4.37,1.65c1.13,0.69,2.22,1.84,3.24,2.7
				c1.52,1.28,2.99,2.52,4.59,3.7c2,1.49,4.14,2.77,6.1,4.29c2,1.55,4.24,2.24,6.36,3.57c2.4,1.51,4.79,2.93,7.13,4.54
				c1.63,1.12,3.08,2.37,4.58,3.68c1.29,1.12,2.28,2.53,3.57,3.6c0.77,0.64,1.33,0.95,1.93,1.78c0.42,0.58,0.89,1.04,1.36,1.57
				c0.73,0.83,0.97,1.77,1.85,2.51c-1.9-0.83-3.76-2.12-5.23-3.54c-1.24-1.2-2.62-2.19-3.83-3.46c-1.45-1.54-2.57-3.29-4.26-4.62
				c-2.97-2.34-5.99-4.76-9.45-6.36c-3.59-1.66-7.67-1.99-11.48-3c-2.12-0.56-4.31-1.14-6.35-1.97c-1.67-0.68-3.31-1.51-5.06-1.93
				c-2.01-0.48-4.04-1.02-6.06-1.41c-2.34-0.45-4.54-0.35-6.66-1.68c-1.54-0.96-2.73-2.78-4-4.08c-1.8-1.83-3.88-2.71-6.16-3.83
				c-2.16-1.06-4.58-1.42-6.76-2.45C1138.11,283.5,1135.7,282.96,1135.54,282.02z"/>
			<path class="st3" d="M1021.02,286.51c4.61,2.1,9.38,3.68,13.95,5.86c1.55,0.74,3.01,1.32,4.48,2.24c1.45,0.9,2.81,1.72,4.45,2.23
				c4.51,1.41,8.78,1.9,13.48,2.35c2.71,0.26,5.53,0.66,8.12,1.47c2,0.63,3.96,0.95,5.81,2c1.33,0.75,2.62,1.74,3.69,2.81
				c1.2,1.19,2.59,1.98,3.89,3.05c2.87,2.35,6.12,3.94,9.35,5.73c2.12,1.17,4.35,2.18,6.61,3.03c2.02,0.76,3.77,1.89,5.66,2.92
				c1.63,0.89,2.74,2.03,4.16,3.16c0.72,0.58,1.23,1.26,1.93,1.82c-0.3-0.41-0.92-0.67-1.34-0.91c-1.48-0.86-2.94-1.76-4.42-2.63
				c-1.57-0.92-3.28-1.49-4.8-2.55c-1.75-1.22-3.25-2.81-4.98-4.08c-2.65-1.95-5.82-2.69-8.61-4.34c-3.79-2.23-7.73-4.49-12.05-5.4
				c-1.94-0.41-3.67-1.35-5.63-1.71c-1.95-0.36-3.83-0.73-5.8-0.93c-4.48-0.46-8.57-1.76-12.83-3.08c-2.2-0.68-4.18-1.8-6.28-2.72
				c-1.82-0.79-3.24-1.76-4.94-2.71C1031.87,292.42,1028.59,291.14,1021.02,286.51z"/>
			<path class="st3" d="M1214.58,283.37c0.84,0.64,1.76,1.64,2.82,1.92c0.35,0.09,0.81-0.05,1.27,0.1c1.57,0.51,2.9,1.62,4.43,2.26
				c1.9,0.8,3.92,1.26,5.85,1.98c2.05,0.77,4.12,1.75,6.08,2.71c3.59,1.75,7.09,3.84,10.54,5.85c2.02,1.18,4.04,2.38,6.07,3.55
				c1.93,1.11,3.7,2.44,5.62,3.54c3.16,1.8,5.47,4.74,8.06,7.28c2.65,2.6,5.85,4.61,8.87,6.75c1.46,1.03,3.09,1.61,4.38,2.87
				c0.9,0.88,1.54,1.95,2.38,2.87c1.29,1.42,2.19,3.29,3.51,4.63c-1.27-1.29-2.85-2.18-4.29-3.3c-3.39-2.63-7.11-4.79-10.44-7.51
				c-1.77-1.45-3.48-2.94-5.51-4.04c-1.63-0.89-3.44-1.51-5.19-2.16c-2.65-0.99-5.06-2.4-7.29-4.13c-2.72-2.11-5.11-4.79-7.54-7.22
				c-2.48-2.49-5.22-4.58-8.32-6.28c-3.39-1.86-7.1-3.25-10.32-5.42c-1.49-1.01-2.83-1.94-4.45-2.75
				C1219.39,286,1217.72,285.39,1214.58,283.37z"/>
			<path class="st3" d="M1278.81,276.63c3.65,2.02,6.62,4.61,9.97,7.05c3.69,2.69,6.73,6.09,10.13,9.12
				c1.37,1.22,2.84,2.32,4.18,3.57c1.33,1.24,2.32,2.76,3.57,4.07c1.96,2.07,4.04,3.95,5.74,6.25c1.5,2.04,2.84,4.17,4.69,5.95
				c1.24,1.19,1.98,2.5,3.03,3.84c0.92,1.18,2.02,2.26,3.04,3.35c2.65,2.8,5.09,6.49,6.2,10.2c-0.31-0.81-1.14-1.54-1.58-2.42
				c-0.98-1.92-2.44-3.71-4.02-5.2c-2.16-2.04-4.87-3.26-7.22-5.02c-2.44-1.83-4.68-3.67-7.41-5.1c-1.24-0.65-2.58-1.12-3.81-1.78
				c-0.91-0.48-1.47-1.11-2.25-1.76c-1.22-1.02-2.24-1.6-3.16-2.98c-1.54-2.3-1.76-5.38-1.76-8.08c0-1.33-0.48-2.34-0.91-3.56
				c-0.31-0.88-0.38-1.78-0.88-2.53c-1.36-2.04-4.36-2.48-6.54-3.2c-3.8-1.26-6.9-4.02-10-6.41c-0.98-0.75-1.98-1.74-2.8-2.67
				c-0.42-0.49-2.35-2.57-2.18-3.13C1275.13,276.14,1275.25,276.28,1278.81,276.63z"/>
		</g>
	</g>
	<g>
		<g>
			<polygon class="st4" points="228.01,275.86 241.9,285.41 258.41,288.85 253.62,305.01 255.46,321.77 238.6,322.21 223.23,329.14 
				217.6,313.24 206.26,300.76 219.64,290.5 			"/>
			<polygon class="st5" points="227.73,274.64 241.62,284.19 258.13,287.63 253.34,303.79 255.18,320.56 238.32,320.99 
				222.95,327.92 217.32,312.02 205.98,299.54 219.36,289.28 			"/>
		</g>
		<g>
			<polygon class="st4" points="422.14,265.92 427.93,281.75 439.4,294.12 426.13,304.52 417.91,319.24 403.92,309.83 
				387.38,306.57 392,290.36 389.99,273.61 406.84,273 			"/>
			<polygon class="st6" points="422.62,264.76 428.41,280.6 439.88,292.96 426.61,303.36 418.39,318.09 404.4,308.68 387.86,305.42 
				392.48,289.2 390.47,272.46 407.32,271.85 			"/>
		</g>
		<g>
			<polygon class="st4" points="1002.97,286.97 1008.76,302.8 1020.23,315.17 1006.95,325.56 998.74,340.29 984.75,330.88 
				968.2,327.62 972.83,311.4 970.82,294.66 987.67,294.05 			"/>
			<polygon class="st7" points="1003.45,285.81 1009.24,301.65 1020.71,314.01 1007.43,324.41 999.22,339.14 985.23,329.73 
				968.68,326.46 973.31,310.25 971.3,293.51 988.15,292.89 			"/>
		</g>
		<g>
			<polygon class="st4" points="488.3,293.46 499.69,305.9 514.99,312.96 506.68,327.63 504.69,344.38 488.17,341 471.63,344.28 
				469.73,327.53 461.5,312.81 476.85,305.83 			"/>
			<polygon class="st8" points="488.31,292.21 499.69,304.65 515,311.71 506.68,326.38 504.69,343.13 488.17,339.75 471.63,343.03 
				469.74,326.28 461.51,311.56 476.85,304.58 			"/>
		</g>
		<g>
			<polygon class="st4" points="1237.78,287.49 1252.48,295.74 1269.23,297.66 1265.93,314.19 1269.29,330.72 1252.54,332.69 
				1237.86,340.98 1230.81,325.67 1218.38,314.27 1230.77,302.83 			"/>
			<polygon class="st8" points="1237.39,286.3 1252.09,294.55 1268.85,296.47 1265.54,313.01 1268.9,329.53 1252.15,331.5 
				1237.47,339.8 1230.42,324.48 1218,313.08 1230.39,301.64 			"/>
		</g>
	</g>
</g>
</svg>
