<?xml version="1.0" encoding="utf-8"?>
<!-- Generator: Adobe Illustrator 24.1.1, SVG Export Plug-In . SVG Version: 6.00 Build 0)  -->
<svg version="1.1" id="Layer_1" xmlns="http://www.w3.org/2000/svg" xmlns:xlink="http://www.w3.org/1999/xlink" x="0px" y="0px"
	 viewBox="0 0 244.86 255.58" style="enable-background:new 0 0 244.86 255.58;" xml:space="preserve">
<style type="text/css">
	.st0{fill:#CAE1E5;}
	.st1{fill:url(#SVGID_1_);}
	.st2{fill:url(#SVGID_2_);}
	.st3{fill:url(#SVGID_3_);}
	.st4{fill:#DB9556;}
	.st5{fill:url(#SVGID_4_);}
	.st6{fill:url(#SVGID_5_);}
	.st7{fill:url(#SVGID_6_);}
	.st8{fill:url(#SVGID_7_);}
	.st9{fill:url(#SVGID_8_);}
	.st10{fill:url(#SVGID_9_);}
	.st11{fill:#AAE8F9;}
	.st12{fill:url(#SVGID_10_);}
	.st13{fill:#CFF6FF;}
	.st14{fill:url(#SVGID_11_);}
	.st15{fill:url(#SVGID_12_);}
	.st16{fill:url(#SVGID_13_);}
	.st17{fill:url(#SVGID_14_);}
	.st18{fill:#41C3D8;}
	.st19{fill:url(#SVGID_15_);}
	.st20{opacity:0.35;fill:#FFFFFF;}
</style>
<g>
	<g>
		<path class="st0" d="M140.98,11.31c-0.03,0.82-0.69,1.47-1.51,1.44c-0.8-0.03-1.42-0.73-1.39-1.56c0.26-6.69-3.69-7.92-8.1-8.16
			c-0.1-0.01-0.2-0.01-0.31-0.02c-4.94-0.21-8.38,0.63-10.22,2.51c-0.25,0.25-0.47,0.53-0.67,0.82c-1.58,2.35-1.49,5.78-1.4,9.11
			l0.02,0.44c0.07,2.8,2.16,4.93,3.9,6.23c0.17,0.13,0.34,0.27,0.51,0.41c1.68,1.49,2.67,3.66,2.67,5.92V39.3
			c0,0.82-0.64,1.5-1.45,1.5c-0.8,0-1.45-0.67-1.45-1.5V28.45c0-1.53-0.73-2.99-1.97-3.91c-0.16-0.11-0.31-0.24-0.47-0.35
			c-2.15-1.72-4.53-4.46-4.63-8.22l-0.01-0.44c-0.11-4.05-0.24-8.63,2.65-11.84c0.09-0.1,0.18-0.2,0.28-0.29
			c2.45-2.51,6.47-3.61,12.26-3.36h0.12C137.51,0.36,141.28,4.16,140.98,11.31z"/>
	</g>
	<linearGradient id="SVGID_1_" gradientUnits="userSpaceOnUse" x1="119.1333" y1="31.6619" x2="124.4758" y2="31.6619">
		<stop  offset="5.405410e-03" style="stop-color:#AAE8F9"/>
		<stop  offset="0.3542" style="stop-color:#ADE9FA"/>
		<stop  offset="0.6529" style="stop-color:#B8EDFB"/>
		<stop  offset="0.9322" style="stop-color:#C9F4FE"/>
		<stop  offset="1" style="stop-color:#CFF6FF"/>
	</linearGradient>
	<path class="st1" d="M124.48,28.45V39.3c0,0.82-0.64,1.5-1.45,1.5c-0.8,0-1.45-0.67-1.45-1.5V28.45c0-1.53-0.73-2.99-1.97-3.91
		c-0.16-0.11-0.31-0.24-0.47-0.35c0.96-0.51,1.85-1.08,2.68-1.66C123.49,24.01,124.48,26.18,124.48,28.45z"/>
	<linearGradient id="SVGID_2_" gradientUnits="userSpaceOnUse" x1="122.3429" y1="105.1319" x2="122.3429" y2="40.0355">
		<stop  offset="0" style="stop-color:#0B90AF"/>
		<stop  offset="1" style="stop-color:#3DC2D8"/>
	</linearGradient>
	<polygon class="st2" points="96.82,40.04 147.86,40.04 140.39,95.67 116.53,105.13 	"/>
	<linearGradient id="SVGID_3_" gradientUnits="userSpaceOnUse" x1="122.3429" y1="63.8598" x2="122.3429" y2="32.6906">
		<stop  offset="0" style="stop-color:#EFB378"/>
		<stop  offset="0.0201" style="stop-color:#F0B376"/>
		<stop  offset="0.314" style="stop-color:#F8B565"/>
		<stop  offset="0.6279" style="stop-color:#FDB75A"/>
		<stop  offset="0.9946" style="stop-color:#FFB757"/>
	</linearGradient>
	<path class="st3" d="M131.12,32.75c-3.16-0.17-6.71,0.07-9.04,0.29c-2.29-0.22-5.77-0.46-8.87-0.29
		c-5.13,0.28-18.81,14.01-18.81,14.01l9.4,17.1c0,0,5.78-7.64,18.03-6.49v0.19c0.01,0,0.01-0.15,0.01-0.15
		c0.08-0.01,0.16-0.01,0.24-0.02c0.08,0.01,0.16,0.01,0.24,0.02v0.15c0.01,0,0.01-0.19,0.01-0.19c12.49-1.15,18.38,6.49,18.38,6.49
		l9.58-17.1C150.29,46.76,136.35,33.03,131.12,32.75z"/>
	<path class="st4" d="M140.7,61.97c0,0-5.89-7.64-18.38-6.49v0.19c-0.01,0-0.01-0.15-0.01-0.15c-0.08-0.01-0.16-0.01-0.24-0.02
		c-0.08,0.01-0.16,0.01-0.24,0.02v0.15c-0.01,0-0.01-0.19-0.01-0.19c-12.25-1.14-18.03,6.49-18.03,6.49L95.08,46.1
		c-0.43,0.42-0.67,0.67-0.67,0.67l9.4,17.1c0,0,5.78-7.64,18.03-6.49v0.19c0.01,0,0.01-0.15,0.01-0.15
		c0.08-0.01,0.16-0.01,0.24-0.02c0.08,0.01,0.16,0.01,0.24,0.02v0.15c0.01,0,0.01-0.19,0.01-0.19c12.49-1.15,18.38,6.49,18.38,6.49
		l9.58-17.1c0,0-0.25-0.25-0.69-0.67L140.7,61.97z"/>
	<linearGradient id="SVGID_4_" gradientUnits="userSpaceOnUse" x1="61.8102" y1="255.5782" x2="61.8102" y2="40.0326">
		<stop  offset="0" style="stop-color:#41C3D8"/>
		<stop  offset="0.0569" style="stop-color:#45C5DB"/>
		<stop  offset="0.3412" style="stop-color:#57CEE6"/>
		<stop  offset="0.6451" style="stop-color:#62D3ED"/>
		<stop  offset="1" style="stop-color:#65D5EF"/>
	</linearGradient>
	<path class="st5" d="M123.46,90.83v164.75c0,0-0.39,0-1.11-0.02h-0.21c-0.27,0-0.58,0-0.92-0.01c-0.91-0.01-2.05-0.02-3.38-0.03
		c-9.25-0.12-27.4-0.4-34.75-0.92c-5.33-0.38-21.21-2.52-21.21-2.52l-0.54-111.5c0-1.49-1.98-2.03-2.77-0.77l-8.82,10.32
		L39.4,162.24c0,0-32.48-23.12-39.06-26.74c-0.07-0.03-0.13-0.07-0.19-0.1c0.02-0.03,0.05-0.05,0.07-0.08
		c0.28-0.31,0.72-0.82,1.29-1.51c2.12-2.53,6.13-7.43,11.06-13.39c13.44-16.21,33.75-40.18,41.5-45.07
		c15.65-9.87,26.79-17.89,28.08-18.83c0.08-0.06,0.13-0.09,0.13-0.09l-0.86-6.73l15.38-9.67c0.19,0.55,3.47,8.85,7.9,18.65
		c4.29,9.51,9.66,20.43,14.33,27.08c0.7,1,1.39,1.9,2.05,2.69c0.3,0.35,0.6,0.69,0.89,0.99c0.14,0.15,0.25,0.27,0.37,0.38
		C122.73,90.22,123.11,90.54,123.46,90.83z"/>
	<linearGradient id="SVGID_5_" gradientUnits="userSpaceOnUse" x1="9.094947e-13" y1="142.9649" x2="50.8092" y2="142.9649">
		<stop  offset="0" style="stop-color:#CFF6FF"/>
		<stop  offset="0.0678" style="stop-color:#C9F4FE"/>
		<stop  offset="0.3471" style="stop-color:#B8EDFB"/>
		<stop  offset="0.6458" style="stop-color:#ADE9FA"/>
		<stop  offset="0.9946" style="stop-color:#AAE8F9"/>
	</linearGradient>
	<path class="st6" d="M50.3,153.15l-11.45,12c-0.64,0.67-1.66,0.73-2.37,0.15L0.67,135.86c-0.12-0.11-0.24-0.23-0.33-0.35
		c-0.04-0.06-0.08-0.12-0.11-0.19c-0.3-0.55-0.31-1.24,0-1.8c0.05-0.1,0.11-0.19,0.18-0.28l10.02-12.35
		c0.54-0.66,1.43-0.84,2.15-0.47c0.11,0.05,0.21,0.12,0.31,0.19l20.81,16.66l16.06,12.86l0.37,0.29
		C50.96,151.09,51.04,152.37,50.3,153.15z"/>
	<linearGradient id="SVGID_6_" gradientUnits="userSpaceOnUse" x1="182.8756" y1="255.5782" x2="182.8756" y2="40.0326">
		<stop  offset="0" style="stop-color:#41C3D8"/>
		<stop  offset="0.0569" style="stop-color:#45C5DB"/>
		<stop  offset="0.3412" style="stop-color:#57CEE6"/>
		<stop  offset="0.6451" style="stop-color:#62D3ED"/>
		<stop  offset="1" style="stop-color:#65D5EF"/>
	</linearGradient>
	<path class="st7" d="M244.53,135.4c-1.45,0.77-4.44,2.7-8.14,5.18c-11.87,7.96-31.11,21.66-31.11,21.66l-10.68-12.5l-8.48-9.93
		c-0.79-1.27-2.77-0.72-2.77,0.77l0.05,68.93l0.02,30.95l0.01,11.2c0,0-20.55,2.46-27.32,2.94c-6.1,0.44-20.5,0.74-28.76,0.88
		c-1.53,0.03-2.85,0.05-3.87,0.07c-0.42,0.01-0.79,0.01-1.11,0.02h-0.21c-0.6,0.01-0.92,0.02-0.92,0.02V90.83
		c0.34-0.27,0.7-0.59,1.07-0.95c0.02-0.02,0.04-0.03,0.06-0.05c0.41-0.41,0.82-0.87,1.25-1.37c9.65-11.43,23.87-47.27,24.27-48.43
		l15.38,9.67l-0.86,6.73c0,0,0.05,0.03,0.13,0.09c1.3,0.94,12.43,8.96,28.08,18.83c7.81,4.92,28.37,29.23,41.81,45.44
		C238.67,128.34,243.37,134.13,244.53,135.4z"/>
	<linearGradient id="SVGID_7_" gradientUnits="userSpaceOnUse" x1="141.6356" y1="99.7364" x2="141.6356" y2="50.266">
		<stop  offset="0" style="stop-color:#CFF6FF"/>
		<stop  offset="0.0769" style="stop-color:#BDF0FC"/>
		<stop  offset="0.2401" style="stop-color:#9DE7F8"/>
		<stop  offset="0.4098" style="stop-color:#85DFF4"/>
		<stop  offset="0.5865" style="stop-color:#73D9F1"/>
		<stop  offset="0.7748" style="stop-color:#68D6F0"/>
		<stop  offset="0.9946" style="stop-color:#65D5EF"/>
	</linearGradient>
	<path class="st8" d="M125.1,99.74c0,0,14.27-18.22,19.71-14.57c5.44,3.64,16.99,11.21,16.99,11.21l0.73-39.85l-16.63-6.26
		l-15.9,29.85l-9.24,11.63L125.1,99.74z"/>
	<linearGradient id="SVGID_8_" gradientUnits="userSpaceOnUse" x1="143.4231" y1="88.525" x2="143.4231" y2="40.0579">
		<stop  offset="5.405410e-03" style="stop-color:#AAE8F9"/>
		<stop  offset="0.3542" style="stop-color:#ADE9FA"/>
		<stop  offset="0.6529" style="stop-color:#B8EDFB"/>
		<stop  offset="0.9322" style="stop-color:#C9F4FE"/>
		<stop  offset="1" style="stop-color:#CFF6FF"/>
	</linearGradient>
	<path class="st9" d="M163.25,49.7l-0.11,0.98l-0.62,5.84l-3.4,32L140.5,73.54l-0.19-0.15l-16.72,15.07
		c9.58-11.36,23.7-46.84,24.26-48.4C147.86,40.03,163.25,49.7,163.25,49.7z"/>
	<linearGradient id="SVGID_9_" gradientUnits="userSpaceOnUse" x1="193.6983" y1="142.9815" x2="244.8603" y2="142.9815">
		<stop  offset="5.405410e-03" style="stop-color:#AAE8F9"/>
		<stop  offset="0.3542" style="stop-color:#ADE9FA"/>
		<stop  offset="0.6529" style="stop-color:#B8EDFB"/>
		<stop  offset="0.9322" style="stop-color:#C9F4FE"/>
		<stop  offset="1" style="stop-color:#CFF6FF"/>
	</linearGradient>
	<path class="st10" d="M244.16,136.4l-5.99,4.71l-30.42,23.95c-0.73,0.57-1.75,0.49-2.37-0.19l-11.2-12.25
		c-0.73-0.8-0.62-2.08,0.24-2.73l0.18-0.13l20.93-16.03l16.74-12.82c0.05-0.04,0.11-0.08,0.15-0.1c0.75-0.46,1.74-0.29,2.29,0.43
		l9.76,12.58C245.09,134.6,244.95,135.77,244.16,136.4z"/>
	<path class="st11" d="M127.33,255.48c-1.53,0.03-2.85,0.05-3.87,0.07c0,0.03-0.39,0.03-1.11,0.02h-0.21
		c-0.6,0.01-0.92,0.02-0.92,0.02c-0.91-0.03-2.05-0.04-3.38-0.06c0.48-21.39,2.58-123.16,0.08-159.38c-0.48-7-1.13-11.54-2.01-12.6
		l2.59,1.55l0.54,0.67l2.94,3.68c0.02,0.03,0.26,0.34,0.26,0.34c0.02,0.03,0.03,0.06,0.05,0.09c0.41,0.7,0.8,1.4,1.17,2.12
		c1.89,3.6,3.4,7.47,3.63,11.5c0.02,0.33,0.04,0.66,0.04,1L127.33,255.48z"/>
	<linearGradient id="SVGID_10_" gradientUnits="userSpaceOnUse" x1="104.6271" y1="103.5007" x2="104.6271" y2="56.522">
		<stop  offset="5.405410e-03" style="stop-color:#AAE8F9"/>
		<stop  offset="0.3542" style="stop-color:#ADE9FA"/>
		<stop  offset="0.6529" style="stop-color:#B8EDFB"/>
		<stop  offset="0.9322" style="stop-color:#C9F4FE"/>
		<stop  offset="1" style="stop-color:#CFF6FF"/>
	</linearGradient>
	<path class="st12" d="M127.09,103.5c-1.14-0.92-2.37-1.9-3.63-2.92c-1.79-1.44-3.67-2.94-5.54-4.44c-5.5-4.4-10.87-8.68-13.49-10.7
		c-6.53-5.05-20.39,15.98-20.39,15.98s-1.91-44.28-1.88-44.89l22.55,2.16c4.29,9.51,9.66,20.43,14.33,27.08l2.94,3.68
		c0.02,0.03,0.26,0.34,0.26,0.34c0.02,0.03,0.03,0.06,0.05,0.09c0.41,0.7,0.8,1.4,1.17,2.12C125.36,95.6,126.87,99.46,127.09,103.5z
		"/>
	<polygon class="st13" points="123.87,88 140.32,73.39 159.12,88.53 140.39,71.71 	"/>
	<linearGradient id="SVGID_11_" gradientUnits="userSpaceOnUse" x1="123.5949" y1="64.2578" x2="147.852" y2="64.2578">
		<stop  offset="5.405410e-03" style="stop-color:#AAE8F9"/>
		<stop  offset="0.3542" style="stop-color:#ADE9FA"/>
		<stop  offset="0.6529" style="stop-color:#B8EDFB"/>
		<stop  offset="0.9322" style="stop-color:#C9F4FE"/>
		<stop  offset="1" style="stop-color:#CFF6FF"/>
	</linearGradient>
	<path class="st14" d="M147.85,40.06c-0.2,0.91-5.28,24.57-7.35,33.48l-0.19-0.15l-16.72,15.07
		C133.18,77.1,147.3,41.62,147.85,40.06z"/>
	<linearGradient id="SVGID_12_" gradientUnits="userSpaceOnUse" x1="203.1084" y1="209.4992" x2="203.1084" y2="104.3651">
		<stop  offset="5.405410e-03" style="stop-color:#AAE8F9"/>
		<stop  offset="0.3542" style="stop-color:#ADE9FA"/>
		<stop  offset="0.6529" style="stop-color:#B8EDFB"/>
		<stop  offset="0.9322" style="stop-color:#C9F4FE"/>
		<stop  offset="1" style="stop-color:#CFF6FF"/>
	</linearGradient>
	<path class="st15" d="M238.18,141.1l-30.42,23.95c-0.73,0.57-1.75,0.49-2.37-0.19l-11.2-12.25c-0.73-0.8-0.62-2.08,0.24-2.73
		l0.18-0.13l-8.48-9.93c-0.79-1.27-2.77-0.72-2.77,0.77l0.05,68.93c-3.01-24.99-7.98-65.23-10.17-77.67
		c-3.26-18.5-10.6-37.84,1.63-21.02c6.42,8.82,24.72,17.06,40.68,22.9c8.23,3.01,15.83,5.38,20.86,6.87
		C237.03,140.78,237.62,140.95,238.18,141.1z"/>
	<linearGradient id="SVGID_13_" gradientUnits="userSpaceOnUse" x1="101.2627" y1="88.525" x2="101.2627" y2="40.0326">
		<stop  offset="5.405410e-03" style="stop-color:#AAE8F9"/>
		<stop  offset="0.3542" style="stop-color:#ADE9FA"/>
		<stop  offset="0.6529" style="stop-color:#B8EDFB"/>
		<stop  offset="0.9322" style="stop-color:#C9F4FE"/>
		<stop  offset="1" style="stop-color:#CFF6FF"/>
	</linearGradient>
	<path class="st16" d="M121.09,88.46l-1.99-1.79l-13.97-12.59l-0.76-0.69L85.56,88.53l-3.4-32l-0.62-5.84l-0.11-0.98l15.39-9.67
		c0.38,1.11,13.6,34.43,23.2,47.08C120.38,87.59,120.74,88.04,121.09,88.46z"/>
	<path class="st13" d="M85.56,88.53l18.81-15.14l16.72,15.07L104.3,71.6C104.3,71.6,88.99,84.1,85.56,88.53z"/>
	<linearGradient id="SVGID_14_" gradientUnits="userSpaceOnUse" x1="108.424" y1="87.1124" x2="108.424" y2="40.0326">
		<stop  offset="5.405410e-03" style="stop-color:#AAE8F9"/>
		<stop  offset="0.3542" style="stop-color:#ADE9FA"/>
		<stop  offset="0.6529" style="stop-color:#B8EDFB"/>
		<stop  offset="0.9322" style="stop-color:#C9F4FE"/>
		<stop  offset="1" style="stop-color:#CFF6FF"/>
	</linearGradient>
	<path class="st17" d="M120.02,87.11l-0.92-0.45l-13.97-12.59l-8.3-34.05C97.2,41.14,110.43,74.47,120.02,87.11z"/>
	<ellipse class="st18" cx="123.19" cy="112.35" rx="2.72" ry="2.8"/>
	<ellipse class="st18" cx="123.19" cy="236.1" rx="2.72" ry="2.8"/>
	<ellipse class="st18" cx="123.06" cy="204.98" rx="2.72" ry="2.8"/>
	<ellipse class="st18" cx="123.06" cy="173.87" rx="2.72" ry="2.8"/>
	<ellipse class="st18" cx="123.06" cy="141.92" rx="2.72" ry="2.8"/>
	<path class="st18" d="M13.62,130.57c0,1.55-1.22,2.8-2.72,2.8c-1.5,0-2.72-1.25-2.72-2.8c0-1.55,1.22-2.8,2.72-2.8
		C12.41,127.77,13.62,129.02,13.62,130.57z"/>
	<ellipse class="st18" cx="233.98" cy="130.15" rx="2.72" ry="2.8"/>
	<linearGradient id="SVGID_15_" gradientUnits="userSpaceOnUse" x1="91.707" y1="255.5782" x2="91.707" y2="74.5047">
		<stop  offset="5.405410e-03" style="stop-color:#AAE8F9"/>
		<stop  offset="0.3542" style="stop-color:#ADE9FA"/>
		<stop  offset="0.6529" style="stop-color:#B8EDFB"/>
		<stop  offset="0.9322" style="stop-color:#C9F4FE"/>
		<stop  offset="1" style="stop-color:#CFF6FF"/>
	</linearGradient>
	<path class="st19" d="M183.41,251.65c0,0-20.55,2.46-27.32,2.94c-6.1,0.44-20.5,0.74-28.76,0.88c-1.53,0.03-2.85,0.05-3.87,0.07
		c0,0.03-0.39,0.03-1.11,0.02h-0.21c-0.6,0.01-0.92,0.02-0.92,0.02c-0.91-0.03-2.05-0.04-3.38-0.06c-9.25-0.12-27.4-0.4-34.75-0.92
		c-5.33-0.38-21.21-2.52-21.21-2.52l-0.54-111.5c0-1.49-1.98-2.03-2.77-0.77l-8.82,10.32l0.37,0.29c0.84,0.67,0.92,1.95,0.18,2.73
		l-11.45,12c-0.64,0.67-1.66,0.73-2.37,0.15L0.67,135.86c-0.12-0.11-0.24-0.23-0.33-0.35c-0.07-0.03-0.13-0.07-0.19-0.1
		c0.02-0.03,0.05-0.05,0.07-0.08c-0.3-0.55-0.31-1.24,0-1.8c0.42,0.09,0.85,0.19,1.29,0.29c9.03,2.09,21.58,4.26,32.18,3.46
		c9.74-0.74,17.82-4,20.03-12.17c6.53-24.11,0.14-42.88,1.63-50.45c0.87-4.41,17.48,92.33,65.86,140.05
		c0.74,0.73,1.48,1.45,2.24,2.15c16.3,15.26,36.08,24.92,59.94,23.59L183.41,251.65z"/>
	<path class="st20" d="M129.99,3.03l-11.2,3.3l-1.65-2.65c0.09-0.1,0.18-0.2,0.28-0.29c2.45-2.51,6.47-3.61,12.26-3.36L129.99,3.03z
		"/>
</g>
</svg>
