<?xml version="1.0" encoding="utf-8"?>
<!-- Generator: Adobe Illustrator 24.1.1, SVG Export Plug-In . SVG Version: 6.00 Build 0)  -->
<svg version="1.1" id="Layer_1" xmlns="http://www.w3.org/2000/svg" xmlns:xlink="http://www.w3.org/1999/xlink" x="0px" y="0px"
	 viewBox="0 0 174.18 153.17" style="enable-background:new 0 0 174.18 153.17;" xml:space="preserve">
<style type="text/css">
	.st0{fill:#FFDCAD;}
	.st1{fill:#D79054;}
	.st2{fill:#FCCA92;}
	.st3{fill:#FFF9DF;}
</style>
<g>
	<path class="st0" d="M171.91,83.51c-2.79-18.44-38.44-71.54-45.57-74.15c-6.09-2.23-9.6-2.05-12.97,0.66
		c-0.56,0.45-1.12,0.98-1.71,1.6c-3.85,4.08-3.9,6.72-3.9,6.74c0,0.42-0.26,0.8-0.64,0.96c-0.39,0.16-0.83,0.07-1.12-0.23
		c-0.03-0.03-3.08-3.1-6.96-2.98c-3.66,0.11-9.49,1.44-12.96,4.81c-2.39,2.32-0.85,7.59-0.05,9.43c0.18,0.41,0.07,0.89-0.26,1.18
		c-0.35,0.31-0.82,0.34-1.21,0.11c-0.03-0.02-3.17-1.85-7.57-2.27c-3.21-0.31-9.34,1.51-13.63,4.97c-1.29,1.04-2.31,2.15-3.05,3.3
		c-2.69,4.2,2.21,13.45,4.33,16.66c0.31,0.46,0.17,1.07-0.26,1.4c-0.45,0.32-1.07,0.23-1.41-0.21
		c-0.32-0.41-31.79-41.05-43.28-50.21C14.94,1.5,9.45,1.02,5.7,4.04c-3.38,2.73-5.67,9.01-0.97,17.75
		c8.54,15.9,62.7,78.34,63.25,78.97c0.2,0.23,0.28,0.52,0.24,0.82c-0.04,0.29-0.21,0.56-0.46,0.72c-0.58,0.37-14.4,9.1-33.78,5.22
		c-11.43-2.29-19,2.58-21.72,4.77c-4.84,3.9-6.82,9.07-4.6,12.01c3.72,4.93,21.62,8.32,49.11,9.28c7.1,0.25,13.67,4.08,20.63,8.13
		c11.44,6.67,23.26,13.56,39.51,6.32c8.71-3.88,17.13-9.07,25.01-15.42C161.55,116.79,173.89,96.6,171.91,83.51z"/>
	<path class="st1" d="M112.08,8.42c-0.64,0.51-1.26,1.1-1.91,1.79c-2.51,2.66-3.61,4.83-4.1,6.27c-1.49-1.09-4.04-2.52-7.1-2.43
		c-3.71,0.11-9.43,1.36-13.38,4.54c-0.33,0.27-0.65,0.55-0.96,0.84c-2.59,2.51-2.02,6.73-1.3,9.36c-1.49-0.59-3.62-1.24-6.15-1.48
		c-3.69-0.35-10.36,1.58-15.12,5.42c-1.46,1.18-2.64,2.45-3.49,3.79c-1.72,2.68-1.19,6.51-0.01,10.01
		c-9.81-12.39-28.92-35.96-37.6-42.87C15.44-0.73,8.94-1.21,4.41,2.44c-4,3.22-6.79,10.48-1.5,20.33
		c8.17,15.21,55.58,70.19,62.69,78.4c-3.51,1.89-15.59,7.47-31.22,4.34c-8.65-1.73-17.18,0.16-23.42,5.19
		c-5.82,4.69-7.9,10.94-4.95,14.86c5.32,7.06,30.5,9.39,50.68,10.1c6.59,0.23,12.94,3.94,19.67,7.86
		c11.33,6.6,24.17,14.09,41.39,6.42c8.88-3.95,17.44-9.24,25.46-15.7c20.5-16.53,32.86-37.03,30.74-51.02
		c-2.89-19.16-39.02-72.89-46.9-75.78C120.25,4.94,116.06,5.22,112.08,8.42z M116.9,148.04c-16.25,7.24-28.07,0.35-39.51-6.32
		c-6.96-4.06-13.53-7.89-20.63-8.13c-27.49-0.96-45.39-4.35-49.11-9.28c-2.22-2.95-0.24-8.11,4.6-12.01
		c2.73-2.2,10.3-7.06,21.72-4.77c19.38,3.88,33.2-4.85,33.78-5.22c0.25-0.16,0.42-0.43,0.46-0.72c0.04-0.3-0.05-0.59-0.24-0.82
		c-0.55-0.63-54.71-63.07-63.25-78.97C0.03,13.05,2.32,6.77,5.7,4.04c3.75-3.02,9.24-2.54,13.98,1.24
		c11.49,9.16,42.97,49.8,43.28,50.21c0.34,0.44,0.96,0.53,1.41,0.21c0.43-0.34,0.57-0.94,0.26-1.4c-2.12-3.21-7.02-12.46-4.33-16.66
		c0.74-1.15,1.76-2.26,3.05-3.3c4.3-3.46,10.42-5.28,13.63-4.97c4.4,0.42,7.54,2.25,7.57,2.27c0.38,0.23,0.86,0.2,1.21-0.11
		c0.33-0.3,0.44-0.77,0.26-1.18c-0.8-1.83-2.34-7.1,0.05-9.43c3.47-3.37,9.3-4.7,12.96-4.81c3.88-0.11,6.93,2.95,6.96,2.98
		c0.29,0.3,0.74,0.38,1.12,0.23c0.38-0.16,0.64-0.54,0.64-0.96c0-0.03,0.06-2.66,3.9-6.74c0.59-0.62,1.14-1.14,1.71-1.6
		c3.37-2.71,6.88-2.89,12.97-0.66c7.13,2.61,42.78,55.71,45.57,74.15c1.98,13.08-10.36,33.28-30,49.11
		C134.03,138.97,125.62,144.16,116.9,148.04z"/>
	<path class="st2" d="M38.8,50.63C26.14,36.32,12.24,22.38,5.12,4.65C5.11,4.63,5.1,4.61,5.09,4.58c-3.03,2.97-4.77,9.01-0.37,17.21
		c8.13,15.13,57.57,72.41,62.8,78.45c0.46-0.98,0.74-2.09,0.84-3.15c0.75-7.76-4.03-14.87-8.74-21.08
		C53,67.29,46.06,58.82,38.8,50.63z"/>
	<path class="st2" d="M133.69,138.68c-1.49,0.57-3.01,1.05-4.58,1.37c-3.1,0.64-6.28,0.65-9.43,0.82
		c-8.74,0.48-17.89,2.12-25.98-1.24c-4.07-1.69-7.53-4.54-11.28-6.83c-11.01-6.74-24.31-8.63-37.22-9.01
		c-6.78-0.2-13.64-0.03-20.24-1.59c-5.5-1.3-10.9-4.01-14.46-8.31c-3.53,3.63-4.77,7.86-2.84,10.41c3.72,4.93,21.62,8.32,49.11,9.28
		c7.1,0.25,13.67,4.08,20.63,8.13c11.44,6.67,23.26,13.56,39.51,6.32C122.65,145.48,128.27,142.34,133.69,138.68z"/>
	<path class="st2" d="M67.4,31.78c-1.42,0.71-2.81,1.56-4.04,2.56c-1.29,1.04-2.31,2.15-3.05,3.3c-2.69,4.2,2.21,13.45,4.33,16.66
		c0.31,0.46,0.17,1.07-0.26,1.4c-0.16,0.11-0.34,0.16-0.53,0.17c1.45,1.55,3.09,2.92,4.88,4.06c1.83-1.07,2.5-3.47,2.23-5.58
		c-0.28-2.1-1.31-4.02-2.18-5.95c-1.4-3.1-2.42-6.42-2.54-9.81C66.14,36.27,66.52,33.92,67.4,31.78z"/>
	<path class="st2" d="M90.2,29.27c-0.92-2.36-1.47-4.93-1.08-7.43c0.22-1.4,0.78-2.77,1.63-3.9c-1.73,0.73-3.36,1.71-4.67,2.98
		c-2.39,2.32-0.85,7.59-0.05,9.43c0.15,0.35,0.08,0.75-0.15,1.04c1.29,1.76,2.87,3.3,4.69,4.5C92.13,34.14,91.04,31.45,90.2,29.27z"
		/>
	<path class="st2" d="M113.37,10.02c-0.56,0.45-1.12,0.98-1.71,1.6c-3.85,4.08-3.9,6.72-3.9,6.74c0,0.36-0.2,0.68-0.5,0.87
		c1.13,1.98,2.82,3.63,4.89,4.59c0.43,0.2,0.92,0.37,1.37,0.23c0.78-0.25,0.99-1.23,1-2.05c0.06-3.18-0.9-6.33-0.81-9.51
		c0.03-1.05,0.23-2.14,0.6-3.16C114,9.55,113.68,9.77,113.37,10.02z"/>
	<path class="st2" d="M79.24,51.27c-0.63,0.08-1.12,0.42-1.39,1.13c-0.31,0.81-0.06,1.73,0.23,2.55c1.13,3.21,3.05,8.3,6.46,9.7
		c3.15,1.3,5.61-0.55,4.77-3.98c-0.28-1.15-0.57-2.31-1.1-3.38C87.48,55.82,82.02,50.93,79.24,51.27z"/>
	<path class="st2" d="M103.62,35.2c-0.48-0.01-0.88,0.2-1.15,0.7c-0.32,0.57-0.22,1.28-0.09,1.92c0.51,2.51,1.41,6.5,3.81,7.9
		c2.21,1.29,4.24,0.17,3.96-2.47c-0.09-0.89-0.19-1.78-0.47-2.63C109.28,39.44,105.72,35.23,103.62,35.2z"/>
	<path class="st2" d="M126.36,20.47c-0.4-0.01-0.74,0.17-0.97,0.59c-0.27,0.48-0.19,1.08-0.08,1.62c0.43,2.12,1.19,5.48,3.22,6.67
		c1.87,1.09,3.58,0.15,3.35-2.09c-0.08-0.75-0.16-1.51-0.4-2.22C131.14,24.05,128.14,20.5,126.36,20.47z"/>
	<path class="st3" d="M9.85,4.63C9.3,4.66,9.36,5.49,9.87,5.55c4.61,0.56,8.42,2.29,11.4,5.92c1.39,1.69,2.88,3.9,5.3,3.36
		c0.36-0.08,0.48-0.52,0.18-0.75C21.31,9.84,17.58,4.1,9.85,4.63z"/>
	<path class="st3" d="M29.94,18.7c-0.58-0.56-1.11-1.17-1.61-1.8c-0.47-0.59-1.34,0.13-0.9,0.73c0.87,1.18,2,2.88,3.53,3.17
		c0.26,0.05,0.44-0.25,0.35-0.47C31,19.61,30.5,19.23,29.94,18.7z"/>
	<path class="st3" d="M27.06,110.19c-1.65-0.77-3.95,0-5.6,0.57c-1.9,0.66-3.8,1.81-4.98,3.45c-0.16,0.22,0.08,0.53,0.33,0.41
		c1.57-0.73,3.01-1.64,4.64-2.24c1.79-0.66,3.98-0.5,5.63-1.33C27.46,110.86,27.43,110.36,27.06,110.19z"/>
	<path class="st3" d="M137.98,29c-0.41-0.4-1.04,0.08-0.7,0.57c4.65,6.54,8.49,14.15,13.74,20.18c0.42,0.48,1.06,0.01,0.9-0.54
		C149.7,41.54,143.52,34.5,137.98,29z"/>
	<path class="st3" d="M155.82,55.17c-0.57-0.66-1.57,0.15-1.05,0.85c1.41,1.88,2.63,4.63,4.91,5.55c0.27,0.11,0.57-0.14,0.52-0.42
		C159.78,58.72,157.36,56.94,155.82,55.17z"/>
	<path class="st2" d="M140.36,130.71c-3.05-0.13-5.58,1.6-8.29,2.77c-4.22,1.82-8.41,3.38-13.07,2.74c-0.61-0.08-0.67,0.8-0.1,0.93
		c3.93,0.86,7.82,0.89,11.75-0.03c3.51-0.82,8.1-2.25,10.17-5.39C141.06,131.35,140.87,130.73,140.36,130.71z"/>
	<path class="st2" d="M139.41,124.73c-1.31,0.46-2.39,1.45-3.52,2.24c-1.53,1.07-3.31,1.97-5.08,2.57
		c-0.54,0.18-0.27,1.04,0.27,0.95c3.19-0.54,7.72-1.67,9.21-4.92C140.54,125.01,139.9,124.56,139.41,124.73z"/>
	<path class="st2" d="M68.47,78.42c-0.73-0.77-2.01,0.22-1.3,1.05c1.82,2.13,3.3,4.39,4.52,6.92c1.1,2.28,1.54,4.87,2.93,6.99
		c0.27,0.41,0.88,0.14,0.94-0.28C76.37,87.92,71.8,81.95,68.47,78.42z"/>
	<path class="st2" d="M77.88,88.62c0.21,2.08,0.41,4.68,1.41,6.55c0.18,0.33,0.74,0.32,0.77-0.12c0.12-2.16-0.8-4.6-1.51-6.62
		C78.42,88.04,77.84,88.24,77.88,88.62z"/>
	<path class="st2" d="M90.75,57.22c0.61,2.13,0.93,4.87,2.33,6.62c0.21,0.26,0.66,0.14,0.68-0.2c0.19-2.29-1.11-4.79-1.8-6.95
		C91.7,55.87,90.52,56.42,90.75,57.22z"/>
	<path class="st2" d="M92.54,52.9c0.13,1.15,0.46,2.61,1.52,3.26c0.26,0.16,0.64-0.02,0.58-0.36c-0.19-1.07-0.78-1.98-0.92-3.08
		C93.61,51.96,92.45,52.14,92.54,52.9z"/>
	<path class="st2" d="M112.81,41.9c0.2,0.96,0.43,1.91,0.59,2.88c0.16,0.94,0.11,2.09,0.54,2.95c0.14,0.27,0.4,0.53,0.73,0.54
		c0.07,0,0.14,0,0.21,0c0.5,0.01,0.94-0.36,0.86-0.9c-0.02-0.14-0.07-0.25-0.13-0.34c-0.88-1.62-1.32-3.65-1.85-5.4
		C113.59,41.09,112.69,41.36,112.81,41.9z"/>
	<path class="st2" d="M113.56,36.22c-0.19,1.5-0.04,3.16,1.38,4.02c0.36,0.22,0.85-0.03,0.78-0.48c-0.18-1.23-0.82-2.34-0.98-3.57
		C114.65,35.52,113.65,35.56,113.56,36.22z"/>
	<path class="st2" d="M128.05,32.26c-0.76-0.78-1.49-1.73-2.4-2.34c-0.5-0.34-1.15,0.18-0.92,0.74c0.41,1.02,1.18,1.93,1.78,2.84
		c0.54,0.82,1.03,1.66,2.11,1.59c0.22-0.01,0.47-0.21,0.53-0.43C129.46,33.62,128.74,32.96,128.05,32.26z"/>
</g>
</svg>
