<?xml version="1.0" encoding="utf-8"?>
<!-- Generator: Adobe Illustrator 24.1.1, SVG Export Plug-In . SVG Version: 6.00 Build 0)  -->
<svg version="1.1" id="Layer_1" xmlns="http://www.w3.org/2000/svg" xmlns:xlink="http://www.w3.org/1999/xlink" x="0px" y="0px"
	 viewBox="0 0 138.18 256.69" style="enable-background:new 0 0 138.18 256.69;" xml:space="preserve">
<style type="text/css">
	.st0{fill:#DB1264;}
	.st1{fill:#FF4D91;}
	.st2{fill:#998D10;}
	.st3{opacity:0.5;fill:url(#SVGID_1_);}
	.st4{opacity:0.5;fill:url(#SVGID_2_);}
	.st5{fill:#CAE1E5;}
	.st6{fill:url(#SVGID_3_);}
	.st7{fill:url(#SVGID_4_);}
	.st8{opacity:0.35;fill:#FFFFFF;}
	.st9{fill:#DB9556;}
	.st10{fill:#F7AAF3;}
	.st11{fill:url(#SVGID_5_);}
	.st12{fill:#FC95BD;}
	.st13{fill:url(#SVGID_6_);}
	.st14{fill:#FFBBFC;}
	.st15{fill:url(#SVGID_7_);}
	.st16{fill:url(#SVGID_8_);}
	.st17{fill:#060707;}
</style>
<g>
	<g>
		<path class="st0" d="M94.88,41.36c-19.63,6.84-27.68,12.7-52.6-0.03l-3.4,47.4l28.33,14.15l32.41-18.15L94.88,41.36z"/>
		<path class="st1" d="M138.16,119.21c-0.17,1.64-0.46,4.01-0.87,6.9c-1.12,8.08-3.01,20.26-4.69,31.89
			c-1.83,12.72-3.41,24.81-3.47,30.24c-0.17,15.06,3.2,34.68,5.53,47.28c0.14,0.75,0.19,1.51,0.17,2.25
			c-0.03,0.92-0.18,1.84-0.44,2.72c-0.82,2.73-2.74,5.1-5.42,6.43c-9.12,4.57-25.06,9.01-56.49,9.52c-32,1.23-46.75-2.33-56.13-6.37
			c-4.41-1.9-7-6.46-6.4-11.23c1.61-12.73-0.09-36.2-1.08-51.18c-0.38-5.73-1.98-17.95-3.75-30.44
			c-1.98-13.99-4.17-28.31-5.08-34.21c-0.24-1.55,0.56-3.04,1.96-3.76c1.13-0.57,2.14-1.29,3.05-2.13c1.74-1.58,3.11-3.61,4.14-5.94
			c7.9-17.6-2.12-52.89-2.12-52.89c10.09-5.22,22.32-6.8,22.32-6.8c3.3,13.71,7.71,25.58,13.48,32.23
			c13.41,15.44,37.82,14.76,50.36-1.39c5.39-6.95,10.21-16.77,12.75-30.65c0,0,11.24-1.37,21.6,3.29c0,0-10.09,44.69,4.65,58.11
			c1.11,1.02,2.37,1.85,3.77,2.48C137.44,116.2,138.32,117.65,138.16,119.21z"/>
		<g>
			<g>
				<path class="st2" d="M69.03,250.98c-0.15,0-0.27-0.11-0.27-0.26c0-0.15,0.11-0.27,0.25-0.27l1.06-0.03
					c0.15,0,0.27,0.11,0.27,0.26c0,0.15-0.11,0.27-0.26,0.27L69.03,250.98z M67.97,251.01l-1.06,0.02c-0.15,0-0.27-0.11-0.27-0.26
					c0-0.14,0.11-0.27,0.26-0.27c0,0,1.06-0.02,1.06-0.02c0.15,0,0.27,0.11,0.27,0.26C68.23,250.89,68.11,251.01,67.97,251.01z
					 M71.14,250.92c-0.15,0-0.27-0.11-0.27-0.26c-0.01-0.15,0.11-0.27,0.26-0.27l1.06-0.04c0.15,0,0.27,0.11,0.27,0.25
					c0.01,0.15-0.11,0.27-0.26,0.27L71.14,250.92C71.14,250.92,71.14,250.92,71.14,250.92z M65.85,251.06c0,0-1.06,0.02-1.06,0.02
					c-0.15,0-0.27-0.11-0.27-0.26c0-0.14,0.11-0.26,0.26-0.27c0,0,1.06-0.02,1.06-0.02c0.15,0,0.27,0.11,0.27,0.26
					C66.11,250.93,66,251.05,65.85,251.06z M73.25,250.85c-0.14,0-0.27-0.11-0.27-0.25c-0.01-0.15,0.11-0.27,0.25-0.27l1.06-0.04
					c0.12-0.03,0.27,0.11,0.27,0.25c0.01,0.15-0.11,0.27-0.25,0.27L73.25,250.85L73.25,250.85z M63.74,251.09
					c-0.01,0-1.06,0.01-1.06,0.01c-0.15,0-0.27-0.12-0.27-0.26c0-0.15,0.12-0.28,0.26-0.27l1.06-0.01c0.15,0,0.27,0.12,0.27,0.26
					C63.99,250.96,63.88,251.08,63.74,251.09z M75.36,250.76c-0.14,0-0.27-0.11-0.27-0.25c-0.01-0.15,0.11-0.27,0.25-0.28l1.06-0.05
					c0.15,0,0.27,0.11,0.28,0.25c0.01,0.15-0.11,0.27-0.25,0.28L75.36,250.76C75.37,250.76,75.36,250.76,75.36,250.76z
					 M77.48,250.67c-0.14,0-0.26-0.11-0.27-0.25c-0.01-0.15,0.11-0.27,0.25-0.28l1.06-0.05c0.16,0.02,0.27,0.11,0.28,0.25
					c0.01,0.15-0.1,0.27-0.25,0.28L77.48,250.67C77.48,250.67,77.48,250.67,77.48,250.67z M61.62,251.09c-0.01,0-1.07,0-1.07,0
					c-0.15,0-0.26-0.12-0.26-0.27c0-0.14,0.12-0.26,0.26-0.26c0.01,0,1.07,0,1.07,0c0.15,0,0.26,0.12,0.26,0.26
					C61.88,250.97,61.76,251.09,61.62,251.09z M79.59,250.56c-0.14,0-0.26-0.11-0.27-0.25c-0.01-0.15,0.1-0.27,0.25-0.28l1.05-0.06
					c0.14,0,0.27,0.1,0.28,0.25c0.01,0.15-0.1,0.27-0.25,0.28L79.59,250.56C79.59,250.56,79.59,250.56,79.59,250.56z M59.51,251.08
					c-0.37,0-0.72-0.01-1.07-0.01c-0.15,0-0.26-0.12-0.26-0.27c0-0.15,0.1-0.27,0.27-0.26c0.35,0.01,0.7,0.01,1.06,0.01
					c0.15,0,0.26,0.12,0.26,0.27C59.76,250.96,59.65,251.08,59.51,251.08z M81.7,250.44c-0.14,0-0.26-0.11-0.27-0.25
					c-0.01-0.15,0.1-0.27,0.25-0.28l1.05-0.07c0.13-0.02,0.27,0.1,0.28,0.25c0.01,0.15-0.1,0.27-0.25,0.28L81.7,250.44
					C81.7,250.44,81.7,250.44,81.7,250.44z M57.39,251.05c-0.01,0-1.07-0.03-1.07-0.03c-0.15,0-0.26-0.13-0.26-0.27
					c0-0.15,0.13-0.25,0.27-0.26l1.06,0.03c0.15,0,0.26,0.12,0.26,0.27C57.65,250.93,57.53,251.04,57.39,251.05z M83.81,250.31
					c-0.14,0-0.26-0.1-0.27-0.25c-0.01-0.15,0.1-0.27,0.25-0.28l1.05-0.07c0.13-0.02,0.27,0.1,0.28,0.25
					c0.01,0.15-0.1,0.27-0.25,0.28L83.81,250.31C83.82,250.31,83.81,250.31,83.81,250.31z M85.92,250.16c-0.14,0-0.26-0.1-0.27-0.24
					c-0.01-0.15,0.1-0.27,0.24-0.28c0.35-0.03,0.7-0.05,1.05-0.08c0.15,0,0.27,0.1,0.28,0.24c0.01,0.15-0.1,0.27-0.24,0.29
					c-0.35,0.03-0.7,0.05-1.06,0.08C85.93,250.16,85.92,250.16,85.92,250.16z M55.28,250.99c-0.02,0-1.07-0.04-1.07-0.04
					c-0.15-0.01-0.26-0.13-0.25-0.27c0.01-0.15,0.14-0.27,0.27-0.25l1.06,0.04c0.15,0.01,0.26,0.13,0.25,0.27
					C55.53,250.88,55.42,250.99,55.28,250.99z M88.03,249.99c-0.14,0-0.26-0.1-0.27-0.24c-0.01-0.15,0.1-0.27,0.24-0.28
					c0.35-0.03,0.7-0.06,1.05-0.09c0.15-0.01,0.27,0.1,0.29,0.24c0.01,0.15-0.1,0.27-0.24,0.29c-0.35,0.03-0.7,0.06-1.06,0.09
					C88.04,249.99,88.03,249.99,88.03,249.99z M53.17,250.91c-0.02,0-1.08-0.05-1.08-0.05c-0.15-0.01-0.26-0.13-0.25-0.28
					c0.01-0.15,0.15-0.27,0.28-0.25l1.06,0.05c0.15,0.01,0.26,0.13,0.25,0.28C53.42,250.8,53.3,250.91,53.17,250.91z M90.13,249.82
					c-0.14,0-0.26-0.1-0.27-0.24c-0.01-0.15,0.09-0.27,0.24-0.29c0.35-0.03,0.7-0.06,1.05-0.1c0.13-0.03,0.27,0.09,0.29,0.24
					c0.01,0.15-0.09,0.27-0.24,0.29c-0.35,0.03-0.7,0.07-1.05,0.1C90.14,249.81,90.14,249.82,90.13,249.82z M51.05,250.8
					c-0.38-0.02-0.73-0.04-1.08-0.06c-0.15-0.01-0.26-0.14-0.25-0.28c0.01-0.15,0.14-0.26,0.28-0.25c0.35,0.02,0.7,0.04,1.05,0.06
					c0.15,0.01,0.26,0.13,0.25,0.28C51.3,250.69,51.19,250.8,51.05,250.8z M92.24,249.62c-0.14,0-0.26-0.1-0.27-0.24
					c-0.01-0.15,0.09-0.27,0.24-0.29l1.05-0.11c0.16-0.03,0.27,0.09,0.29,0.24c0.02,0.15-0.09,0.28-0.24,0.29l-1.05,0.11
					C92.25,249.62,92.24,249.62,92.24,249.62z M48.94,250.67c-0.38-0.02-0.73-0.05-1.08-0.08c-0.15-0.01-0.25-0.14-0.24-0.28
					c0.01-0.15,0.14-0.26,0.28-0.24c0.35,0.03,0.7,0.05,1.05,0.08c0.15,0.01,0.26,0.14,0.25,0.28
					C49.19,250.56,49.08,250.67,48.94,250.67z M94.34,249.4c-0.14,0-0.26-0.1-0.27-0.24c-0.02-0.15,0.09-0.28,0.23-0.29
					c0.35-0.04,0.7-0.08,1.05-0.12c0.16-0.02,0.28,0.09,0.29,0.23c0.02,0.15-0.09,0.28-0.23,0.29c-0.35,0.04-0.7,0.08-1.05,0.12
					C94.35,249.4,94.35,249.4,94.34,249.4z M96.44,249.16c-0.14,0-0.25-0.1-0.27-0.23c-0.02-0.15,0.09-0.28,0.23-0.29l1.05-0.13
					c0.14-0.02,0.28,0.09,0.29,0.23c0.02,0.14-0.09,0.28-0.23,0.29l-1.05,0.13C96.46,249.16,96.45,249.16,96.44,249.16z
					 M46.84,250.51c-0.38-0.03-0.74-0.06-1.08-0.09c-0.14-0.01-0.25-0.14-0.24-0.29c0.01-0.15,0.15-0.25,0.29-0.24
					c0.35,0.03,0.7,0.06,1.05,0.09c0.15,0.01,0.25,0.14,0.24,0.28C47.08,250.4,46.97,250.5,46.84,250.51z M98.54,248.91
					c-0.13,0-0.25-0.09-0.27-0.23c-0.02-0.15,0.08-0.28,0.23-0.3l1.05-0.14c0.14-0.03,0.28,0.08,0.3,0.23
					c0.02,0.14-0.08,0.28-0.23,0.3l-1.05,0.14C98.56,248.91,98.55,248.91,98.54,248.91z M44.73,250.32
					c-0.39-0.04-0.74-0.07-1.09-0.11c-0.15-0.02-0.25-0.15-0.23-0.29c0.02-0.15,0.15-0.24,0.29-0.24c0.35,0.04,0.7,0.07,1.05,0.11
					c0.15,0.01,0.25,0.14,0.24,0.29C44.97,250.21,44.86,250.31,44.73,250.32z M100.64,248.62c-0.13,0-0.25-0.09-0.27-0.23
					c-0.02-0.15,0.08-0.28,0.22-0.3l1.05-0.15c0.14-0.02,0.28,0.08,0.3,0.22c0.02,0.14-0.08,0.28-0.22,0.3l-1.05,0.15
					C100.66,248.62,100.65,248.62,100.64,248.62z M42.63,250.09c-0.39-0.04-0.74-0.08-1.09-0.13c-0.14-0.02-0.25-0.15-0.23-0.29
					c0.02-0.15,0.15-0.25,0.29-0.23c0.35,0.04,0.69,0.08,1.05,0.12c0.15,0.02,0.25,0.15,0.23,0.29
					C42.87,249.99,42.76,250.09,42.63,250.09z M102.73,248.32c-0.13,0-0.25-0.09-0.27-0.22c-0.02-0.14,0.08-0.28,0.22-0.3
					c0.35-0.05,0.7-0.11,1.04-0.16c0.14-0.02,0.28,0.07,0.3,0.22c0.02,0.14-0.07,0.28-0.22,0.3c-0.34,0.05-0.69,0.11-1.05,0.16
					C102.75,248.32,102.74,248.32,102.73,248.32z M40.53,249.83c-0.4-0.05-0.75-0.1-1.09-0.15c-0.14-0.02-0.25-0.15-0.23-0.3
					c0.02-0.15,0.16-0.25,0.3-0.23c0.34,0.05,0.69,0.09,1.05,0.14c0.14,0.02,0.25,0.15,0.23,0.3
					C40.77,249.73,40.66,249.83,40.53,249.83z M104.81,247.98c-0.13,0-0.25-0.09-0.27-0.22c-0.02-0.14,0.07-0.28,0.22-0.31
					c0.35-0.06,0.7-0.12,1.04-0.18c0.14-0.03,0.28,0.07,0.31,0.21c0.03,0.14-0.07,0.28-0.21,0.31c-0.34,0.06-0.69,0.12-1.04,0.18
					C104.84,247.98,104.83,247.98,104.81,247.98z M38.44,249.54c-0.4-0.06-0.75-0.11-1.09-0.17c-0.14-0.02-0.24-0.16-0.22-0.3
					c0.02-0.14,0.16-0.24,0.3-0.22c0.34,0.06,0.69,0.11,1.04,0.16c0.14,0.02,0.24,0.16,0.22,0.3
					C38.67,249.44,38.56,249.54,38.44,249.54z M106.9,247.61c-0.13,0-0.24-0.09-0.27-0.22c-0.03-0.14,0.07-0.28,0.21-0.31
					c0.35-0.06,0.7-0.13,1.04-0.2c0.14-0.02,0.28,0.07,0.31,0.21c0.03,0.14-0.07,0.28-0.21,0.31c-0.34,0.07-0.69,0.13-1.04,0.2
					C106.92,247.61,106.91,247.61,106.9,247.61z M108.97,247.21c-0.13,0-0.24-0.08-0.27-0.21c-0.03-0.14,0.06-0.28,0.21-0.31
					c0.35-0.07,0.69-0.14,1.03-0.21c0.15-0.04,0.28,0.06,0.31,0.2c0.03,0.14-0.06,0.28-0.2,0.31c-0.34,0.07-0.69,0.14-1.04,0.21
					C109,247.21,108.99,247.21,108.97,247.21z M36.35,249.2c-0.41-0.06-0.75-0.12-1.1-0.19c-0.14-0.03-0.24-0.16-0.21-0.31
					c0.03-0.14,0.16-0.23,0.31-0.21c0.34,0.06,0.69,0.12,1.04,0.18c0.14,0.02,0.24,0.16,0.22,0.31
					C36.58,249.11,36.47,249.2,36.35,249.2z M111.04,246.77c-0.12,0-0.24-0.08-0.27-0.21c-0.03-0.14,0.06-0.28,0.2-0.32
					c0.35-0.08,0.69-0.16,1.03-0.23c0.14-0.03,0.28,0.06,0.32,0.2c0.03,0.14-0.06,0.28-0.2,0.32c-0.34,0.08-0.68,0.16-1.03,0.24
					C111.07,246.77,111.06,246.77,111.04,246.77z M34.27,248.83c-0.41-0.07-0.76-0.14-1.1-0.21c-0.14-0.03-0.24-0.17-0.21-0.31
					c0.03-0.14,0.17-0.24,0.31-0.2c0.34,0.07,0.68,0.14,1.03,0.2c0.14,0.03,0.24,0.17,0.21,0.31
					C34.5,248.73,34.39,248.82,34.27,248.83z M113.1,246.29c-0.12,0-0.23-0.08-0.26-0.2c-0.03-0.14,0.05-0.29,0.19-0.32
					c0.35-0.08,0.69-0.17,1.02-0.26c0.14-0.03,0.29,0.05,0.32,0.19c0.04,0.14-0.05,0.29-0.19,0.32c-0.34,0.09-0.68,0.17-1.03,0.26
					C113.13,246.29,113.12,246.29,113.1,246.29z M32.2,248.4c-0.41-0.08-0.76-0.16-1.1-0.24c-0.14-0.03-0.23-0.17-0.2-0.32
					c0.03-0.14,0.17-0.23,0.32-0.2c0.34,0.08,0.68,0.15,1.03,0.23c0.14,0.03,0.23,0.17,0.2,0.31
					C32.42,248.31,32.32,248.4,32.2,248.4z M115.14,245.76c-0.12,0-0.23-0.07-0.26-0.19c-0.04-0.14,0.04-0.29,0.19-0.33
					c0.34-0.09,0.68-0.19,1.01-0.28c0.15-0.04,0.29,0.04,0.33,0.18c0.04,0.14-0.04,0.29-0.18,0.33c-0.33,0.09-0.67,0.19-1.02,0.29
					C115.18,245.76,115.16,245.76,115.14,245.76z M30.14,247.93c-0.42-0.09-0.76-0.18-1.1-0.27c-0.14-0.04-0.23-0.18-0.19-0.32
					c0.04-0.14,0.18-0.23,0.32-0.19c0.33,0.09,0.68,0.17,1.02,0.26c0.14,0.04,0.23,0.18,0.19,0.32
					C30.36,247.84,30.25,247.92,30.14,247.93z M117.17,245.18c-0.12,0-0.23-0.07-0.26-0.19c-0.04-0.14,0.04-0.29,0.18-0.33
					c0.34-0.1,0.68-0.21,1-0.31c0.14-0.05,0.29,0.03,0.33,0.17c0.04,0.14-0.03,0.29-0.17,0.33c-0.33,0.11-0.67,0.21-1.01,0.31
					C117.22,245.18,117.2,245.18,117.17,245.18z M28.09,247.4c-0.03,0-0.05,0-0.08-0.01c-0.35-0.09-0.69-0.19-1.02-0.29
					c-0.14-0.04-0.22-0.19-0.18-0.33c0.04-0.14,0.18-0.22,0.33-0.18c0.33,0.1,0.67,0.19,1.01,0.29c0.14,0.04,0.22,0.18,0.19,0.33
					C28.31,247.32,28.21,247.39,28.09,247.4z M119.19,244.54c-0.11,0-0.22-0.07-0.26-0.18c-0.05-0.14,0.03-0.29,0.17-0.34
					c0.34-0.11,0.67-0.23,0.99-0.34c0.14-0.05,0.29,0.02,0.34,0.16c0.05,0.14-0.02,0.29-0.16,0.34c-0.33,0.12-0.66,0.23-1,0.35
					C119.24,244.53,119.21,244.54,119.19,244.54z M26.06,246.81c-0.03,0-0.06,0-0.08-0.01c-0.35-0.11-0.68-0.21-1.01-0.32
					c-0.14-0.05-0.21-0.19-0.17-0.33c0.05-0.14,0.2-0.21,0.33-0.17c0.33,0.11,0.66,0.21,1,0.32c0.14,0.04,0.22,0.19,0.18,0.33
					C26.27,246.73,26.17,246.8,26.06,246.81z M121.18,243.83c-0.11,0-0.21-0.06-0.25-0.17c-0.05-0.14,0.02-0.29,0.15-0.34
					c0.34-0.13,0.66-0.25,0.98-0.38c0.13-0.06,0.29,0.01,0.34,0.15c0.05,0.13-0.01,0.29-0.15,0.34c-0.32,0.13-0.65,0.26-0.99,0.39
					C121.23,243.82,121.21,243.83,121.18,243.83z M24.05,246.15c-0.03,0-0.06,0-0.09-0.02c-0.34-0.12-0.67-0.24-1-0.36
					c-0.14-0.05-0.21-0.2-0.16-0.34c0.05-0.14,0.2-0.21,0.34-0.16c0.32,0.12,0.65,0.24,0.99,0.36c0.14,0.05,0.21,0.2,0.16,0.34
					C24.26,246.08,24.16,246.15,24.05,246.15z M123.14,243.04c-0.11,0-0.21-0.06-0.25-0.16c-0.06-0.13,0-0.29,0.14-0.35
					c0.33-0.14,0.65-0.28,0.96-0.42c0.13-0.06,0.29,0,0.35,0.13c0.06,0.13,0,0.29-0.13,0.35c-0.31,0.14-0.64,0.29-0.97,0.43
					C123.2,243.03,123.17,243.04,123.14,243.04z M22.07,245.42c-0.03,0-0.07-0.01-0.1-0.02c-0.34-0.13-0.67-0.27-0.98-0.4
					c-0.13-0.06-0.2-0.21-0.14-0.35c0.06-0.14,0.21-0.2,0.35-0.14c0.32,0.13,0.64,0.26,0.97,0.4c0.14,0.05,0.2,0.21,0.15,0.34
					C22.27,245.35,22.17,245.42,22.07,245.42z M125.06,242.16c-0.1,0-0.2-0.05-0.24-0.15c-0.06-0.13-0.01-0.29,0.12-0.35
					c0.32-0.16,0.63-0.31,0.94-0.47c0.13-0.07,0.29-0.02,0.36,0.11c0.07,0.13,0.02,0.29-0.11,0.36c-0.31,0.16-0.62,0.32-0.95,0.48
					C125.13,242.15,125.09,242.16,125.06,242.16z M20.12,244.6c-0.04,0-0.08-0.01-0.11-0.02c-0.33-0.15-0.65-0.3-0.97-0.45
					c-0.13-0.06-0.19-0.22-0.12-0.35c0.06-0.13,0.22-0.19,0.35-0.12c0.31,0.15,0.62,0.29,0.95,0.44c0.13,0.06,0.19,0.22,0.13,0.35
					C20.31,244.54,20.22,244.6,20.12,244.6z M126.93,241.19c-0.1,0-0.19-0.05-0.24-0.14c-0.07-0.13-0.02-0.29,0.1-0.36
					c0.31-0.17,0.62-0.35,0.91-0.52c0.13-0.08,0.29-0.03,0.36,0.09c0.07,0.13,0.03,0.29-0.09,0.36c-0.3,0.18-0.6,0.35-0.92,0.53
					C127.01,241.18,126.97,241.19,126.93,241.19z M18.22,243.69c-0.04,0-0.09-0.01-0.13-0.03c-0.33-0.17-0.64-0.33-0.94-0.5
					c-0.13-0.07-0.17-0.23-0.1-0.36c0.07-0.13,0.23-0.17,0.36-0.1c0.3,0.16,0.6,0.33,0.93,0.49c0.13,0.07,0.18,0.23,0.11,0.36
					C18.4,243.63,18.31,243.69,18.22,243.69z M128.75,240.12c-0.09,0-0.18-0.04-0.23-0.12c-0.08-0.12-0.04-0.29,0.08-0.36
					c0.3-0.19,0.6-0.38,0.88-0.57c0.12-0.08,0.29-0.05,0.37,0.07c0.08,0.12,0.05,0.28-0.07,0.37c-0.29,0.19-0.58,0.38-0.89,0.58
					C128.84,240.1,128.8,240.12,128.75,240.12z M16.37,242.67c-0.05,0-0.1-0.01-0.14-0.04c-0.32-0.19-0.62-0.38-0.9-0.56
					c-0.12-0.08-0.16-0.24-0.08-0.37c0.08-0.12,0.24-0.16,0.37-0.08c0.28,0.18,0.58,0.37,0.89,0.55c0.12,0.08,0.17,0.24,0.09,0.36
					C16.54,242.62,16.45,242.66,16.37,242.67z M130.51,238.95c-0.09,0-0.17-0.04-0.22-0.11c-0.08-0.12-0.06-0.28,0.06-0.37
					c0.3-0.21,0.58-0.41,0.85-0.61c0.12-0.09,0.28-0.06,0.37,0.06c0.09,0.12,0.06,0.28-0.06,0.37c-0.28,0.2-0.56,0.41-0.86,0.62
					C130.61,238.93,130.56,238.94,130.51,238.95z M14.6,241.51c-0.06,0-0.11-0.01-0.16-0.05c-0.31-0.22-0.59-0.43-0.86-0.64
					c-0.11-0.09-0.13-0.26-0.04-0.37c0.09-0.12,0.26-0.13,0.37-0.04c0.26,0.2,0.53,0.41,0.83,0.63c0.12,0.08,0.15,0.25,0.06,0.37
					C14.76,241.47,14.68,241.51,14.6,241.51z M132.21,237.7c-0.08,0-0.16-0.03-0.22-0.1c-0.09-0.12-0.07-0.28,0.05-0.37l0.84-0.64
					c0.12-0.09,0.28-0.06,0.37,0.05c0.09,0.12,0.06,0.28-0.05,0.37l-0.84,0.64C132.31,237.68,132.26,237.69,132.21,237.7z
					 M12.94,240.2c-0.07,0-0.13-0.02-0.18-0.07c-0.3-0.26-0.55-0.51-0.78-0.75c-0.1-0.1-0.1-0.27,0.01-0.37
					c0.11-0.1,0.27-0.1,0.37,0.01c0.21,0.22,0.46,0.46,0.75,0.72c0.11,0.1,0.12,0.26,0.02,0.37
					C13.08,240.17,13.01,240.2,12.94,240.2z M11.49,238.68c-0.08,0-0.16-0.03-0.22-0.1c-0.17-0.22-0.57-0.77-0.58-1.06
					c0-0.15,0.11-0.27,0.26-0.27c0.14,0,0.26,0.11,0.27,0.25c0.01,0.06,0.13,0.31,0.47,0.76c0.09,0.12,0.07,0.28-0.05,0.37
					C11.6,238.66,11.54,238.67,11.49,238.68z"/>
			</g>
		</g>
		
			<linearGradient id="SVGID_1_" gradientUnits="userSpaceOnUse" x1="-2.2145" y1="180.9365" x2="128.8782" y2="180.9365" gradientTransform="matrix(0.9996 -0.0276 0.0276 0.9996 -0.9771 6.8918)">
			<stop  offset="0" style="stop-color:#DDCB2C"/>
			<stop  offset="0.2954" style="stop-color:#E7DA68"/>
			<stop  offset="0.9746" style="stop-color:#FEFEFC"/>
			<stop  offset="0.9892" style="stop-color:#FFFFFF"/>
		</linearGradient>
		<path class="st3" d="M134.4,240.48c-0.82,2.73-2.74,5.1-5.42,6.43c-9.12,4.57-25.06,9.01-56.49,9.52
			c-32,1.23-46.75-2.33-56.13-6.37c-4.41-1.9-7-6.46-6.4-11.23c1.61-12.73-0.09-36.2-1.08-51.18c-0.8-12.13-7.1-53.48-8.83-64.65
			c-0.24-1.55,0.56-3.04,1.96-3.76c1.13-0.57,2.14-1.29,3.05-2.13C22.38,210.74,55.02,247.52,134.4,240.48z"/>
		
			<linearGradient id="SVGID_2_" gradientUnits="userSpaceOnUse" x1="118.8705" y1="178.7623" x2="134.9323" y2="178.7623" gradientTransform="matrix(0.9996 -0.0276 0.0276 0.9996 -0.9771 6.8918)">
			<stop  offset="0" style="stop-color:#DDCB2C"/>
			<stop  offset="0.2954" style="stop-color:#E7DA68"/>
			<stop  offset="0.9746" style="stop-color:#FEFEFC"/>
			<stop  offset="0.9892" style="stop-color:#FFFFFF"/>
		</linearGradient>
		<path class="st4" d="M134.67,235.51c0.14,0.75,0.19,1.51,0.17,2.25c-3.13-10.41-9.39-32.02-11.59-45.49
			c-2.24-13.81,8.62-49.57,14.04-66.17c-2.35,16.94-8.04,51.73-8.16,62.12C128.97,203.29,132.34,222.91,134.67,235.51z"/>
		<g>
			<g>
				<path class="st5" d="M88.08,11.95c-0.03,0.87-0.72,1.56-1.59,1.52c-0.84-0.04-1.5-0.77-1.47-1.64c0.28-7.07-3.9-8.37-8.56-8.62
					c-0.1-0.01-0.22-0.01-0.33-0.02c-5.22-0.22-8.85,0.67-10.8,2.65c-0.27,0.27-0.5,0.56-0.71,0.86c-1.67,2.48-1.58,6.1-1.48,9.62
					l0.02,0.46c0.08,2.96,2.28,5.21,4.12,6.58c0.18,0.13,0.36,0.28,0.53,0.44c1.78,1.57,2.82,3.87,2.82,6.26v11.47
					c0,0.87-0.68,1.58-1.53,1.58c-0.84,0-1.53-0.71-1.53-1.58V30.06c0-1.62-0.78-3.15-2.09-4.13c-0.16-0.12-0.33-0.25-0.49-0.37
					c-2.28-1.82-4.79-4.72-4.9-8.68l-0.01-0.46c-0.12-4.28-0.25-9.12,2.8-12.51c0.09-0.11,0.19-0.21,0.29-0.31
					c2.59-2.65,6.84-3.81,12.96-3.55h0.13C84.41,0.38,88.39,4.4,88.08,11.95z"/>
			</g>
			<linearGradient id="SVGID_3_" gradientUnits="userSpaceOnUse" x1="64.9859" y1="33.4608" x2="70.6319" y2="33.4608">
				<stop  offset="5.405410e-03" style="stop-color:#AAE8F9"/>
				<stop  offset="0.3542" style="stop-color:#ADE9FA"/>
				<stop  offset="0.6529" style="stop-color:#B8EDFB"/>
				<stop  offset="0.9322" style="stop-color:#C9F4FE"/>
				<stop  offset="1" style="stop-color:#CFF6FF"/>
			</linearGradient>
			<path class="st6" d="M70.63,30.06v11.47c0,0.87-0.68,1.58-1.53,1.58c-0.84,0-1.53-0.71-1.53-1.58V30.06
				c0-1.62-0.78-3.15-2.09-4.13c-0.16-0.12-0.33-0.25-0.49-0.37c1.02-0.54,1.96-1.15,2.83-1.75C69.59,25.38,70.63,27.67,70.63,30.06
				z"/>
			<linearGradient id="SVGID_4_" gradientUnits="userSpaceOnUse" x1="68.3778" y1="67.4879" x2="68.3778" y2="34.5479">
				<stop  offset="0" style="stop-color:#EFB378"/>
				<stop  offset="0.0201" style="stop-color:#F0B376"/>
				<stop  offset="0.314" style="stop-color:#F8B565"/>
				<stop  offset="0.6279" style="stop-color:#FDB75A"/>
				<stop  offset="0.9946" style="stop-color:#FFB757"/>
			</linearGradient>
			<path class="st7" d="M77.66,34.61c-3.34-0.18-7.09,0.07-9.56,0.3c-2.42-0.23-6.1-0.48-9.38-0.3
				c-5.42,0.3-19.87,14.81-19.87,14.81l9.94,18.07c0,0,6.11-8.07,19.05-6.86v0.2c0.01,0,0.01-0.16,0.01-0.16
				c0.09-0.01,0.17-0.01,0.25-0.02c0.08,0.01,0.16,0.01,0.25,0.02v0.16c0.01,0,0.01-0.2,0.01-0.2c13.2-1.21,19.42,6.86,19.42,6.86
				l10.13-18.07C97.91,49.42,83.18,34.9,77.66,34.61z"/>
			<path class="st8" d="M76.46,3.21L64.62,6.7l-1.74-2.8c0.09-0.11,0.19-0.21,0.29-0.31c2.59-2.65,6.84-3.81,12.96-3.55L76.46,3.21z
				"/>
			<path class="st9" d="M88.36,66.18c0,0-6.46-8.37-20.14-7.12v0.21c-0.01,0-0.01-0.16-0.01-0.16c-0.09-0.01-0.17-0.01-0.26-0.02
				c-0.09,0.01-0.17,0.01-0.26,0.02v0.16c-0.01,0-0.01-0.21-0.01-0.21c-13.42-1.25-19.76,7.12-19.76,7.12l-9.57-17.39
				c-0.47,0.46-0.74,0.73-0.74,0.73l10.3,18.74c0,0,6.34-8.37,19.76-7.12v0.21c0.01,0,0.01-0.16,0.01-0.16
				c0.09-0.01,0.17-0.01,0.26-0.02c0.09,0.01,0.17,0.01,0.26,0.02v0.16c0.01,0,0.01-0.21,0.01-0.21
				c13.68-1.26,20.14,7.12,20.14,7.12l10.5-18.74c0,0-0.27-0.27-0.75-0.73L88.36,66.18z"/>
		</g>
	</g>
	<path class="st10" d="M72.84,252.8c-1.45,0.02-2.7,0.05-3.66,0.06c0,0.03-0.37,0.03-1.05,0.02h-0.2c-0.56,0.01-0.87,0.02-0.87,0.02
		c-0.86-0.03-1.94-0.04-3.2-0.06c0.46-20.28,2.44-116.75,0.08-151.08c-0.46-6.63-1.07-10.94-1.9-11.94l2.45,1.47l0.51,0.64
		l2.78,3.49c0.02,0.03,0.25,0.32,0.25,0.32c0.02,0.03,0.03,0.06,0.05,0.09c0.39,0.66,0.76,1.33,1.11,2.01
		c1.79,3.41,3.22,7.08,3.44,10.9c0.02,0.31,0.04,0.63,0.04,0.95L72.84,252.8z"/>
	<g>
		<linearGradient id="SVGID_5_" gradientUnits="userSpaceOnUse" x1="88.4668" y1="102.8855" x2="88.4668" y2="51.8862">
			<stop  offset="0" style="stop-color:#CFF6FF"/>
			<stop  offset="0.0769" style="stop-color:#BDF0FC"/>
			<stop  offset="0.2401" style="stop-color:#9DE7F8"/>
			<stop  offset="0.4098" style="stop-color:#85DFF4"/>
			<stop  offset="0.5865" style="stop-color:#73D9F1"/>
			<stop  offset="0.7748" style="stop-color:#68D6F0"/>
			<stop  offset="0.9946" style="stop-color:#65D5EF"/>
		</linearGradient>
		<path class="st11" d="M71.42,102.89c0,0,14.71-18.78,20.32-15.03c5.61,3.76,17.52,11.56,17.52,11.56L110,58.34l-17.14-6.45
			l-16.4,30.77l-9.53,11.99L71.42,102.89z"/>
		<path class="st12" d="M110.75,51.31l-0.11,1.01L110,58.34l-3.51,32.99L87.3,75.88l-0.19-0.16L69.87,91.26
			c9.88-11.71,24.44-48.28,25.01-49.9C94.88,41.34,110.75,51.31,110.75,51.31z"/>
		<linearGradient id="SVGID_6_" gradientUnits="userSpaceOnUse" x1="50.3146" y1="106.7661" x2="50.3146" y2="58.3355">
			<stop  offset="5.405410e-03" style="stop-color:#AAE8F9"/>
			<stop  offset="0.3542" style="stop-color:#ADE9FA"/>
			<stop  offset="0.6529" style="stop-color:#B8EDFB"/>
			<stop  offset="0.9322" style="stop-color:#C9F4FE"/>
			<stop  offset="1" style="stop-color:#CFF6FF"/>
		</linearGradient>
		<path class="st13" d="M73.48,106.77c-1.18-0.94-2.44-1.96-3.74-3.01c-1.85-1.48-3.78-3.03-5.71-4.58
			c-5.67-4.53-11.21-8.95-13.91-11.03c-6.73-5.2-21.02,16.47-21.02,16.47s-1.97-45.65-1.94-46.28l23.25,2.23
			c4.42,9.8,9.96,21.06,14.77,27.92l3.03,3.8c0.03,0.03,0.27,0.35,0.27,0.35c0.02,0.03,0.03,0.06,0.05,0.1
			c0.42,0.72,0.82,1.45,1.21,2.18C71.68,98.62,73.24,102.61,73.48,106.77z"/>
		<polygon class="st14" points="70.15,90.79 87.11,75.73 106.49,91.33 87.18,73.99 		"/>
		<linearGradient id="SVGID_7_" gradientUnits="userSpaceOnUse" x1="69.8686" y1="66.3104" x2="94.8753" y2="66.3104">
			<stop  offset="5.405410e-03" style="stop-color:#AAE8F9"/>
			<stop  offset="0.3542" style="stop-color:#ADE9FA"/>
			<stop  offset="0.6529" style="stop-color:#B8EDFB"/>
			<stop  offset="0.9322" style="stop-color:#C9F4FE"/>
			<stop  offset="1" style="stop-color:#CFF6FF"/>
		</linearGradient>
		<path class="st15" d="M94.88,41.36c-0.2,0.94-5.44,25.33-7.58,34.52l-0.19-0.16L69.87,91.26C79.75,79.55,94.3,42.98,94.88,41.36z"
			/>
		<path class="st12" d="M67.29,91.26l-2.05-1.85l-14.4-12.98l-0.78-0.71l-19.39,15.6l-3.51-32.99l-0.64-6.02l-0.11-1.01l15.87-9.97
			c0.39,1.14,14.03,35.5,23.91,48.53C66.56,90.37,66.93,90.82,67.29,91.26z"/>
		<path class="st14" d="M30.66,91.33l19.39-15.6l17.24,15.53L49.97,73.88C49.97,73.88,34.19,86.76,30.66,91.33z"/>
		<linearGradient id="SVGID_8_" gradientUnits="userSpaceOnUse" x1="54.2289" y1="89.8713" x2="54.2289" y2="41.3366">
			<stop  offset="5.405410e-03" style="stop-color:#AAE8F9"/>
			<stop  offset="0.3542" style="stop-color:#ADE9FA"/>
			<stop  offset="0.6529" style="stop-color:#B8EDFB"/>
			<stop  offset="0.9322" style="stop-color:#C9F4FE"/>
			<stop  offset="1" style="stop-color:#CFF6FF"/>
		</linearGradient>
		<path class="st16" d="M66.19,89.87l-0.95-0.46l-14.4-12.98l-8.56-35.1C42.66,42.48,56.3,76.83,66.19,89.87z"/>
	</g>
	<ellipse class="st17" cx="68.92" cy="117.12" rx="2.58" ry="2.66"/>
	<ellipse class="st17" cx="68.79" cy="204.94" rx="2.58" ry="2.66"/>
	
		<ellipse transform="matrix(0.7071 -0.7071 0.7071 0.7071 -143.9315 116.6032)" class="st17" cx="68.79" cy="232.04" rx="2.66" ry="2.58"/>
	<ellipse class="st17" cx="68.79" cy="175.44" rx="2.58" ry="2.66"/>
	<ellipse class="st17" cx="68.79" cy="145.15" rx="2.58" ry="2.66"/>
</g>
</svg>
