<?xml version="1.0" encoding="utf-8"?>
<!-- Generator: Adobe Illustrator 24.1.1, SVG Export Plug-In . SVG Version: 6.00 Build 0)  -->
<svg version="1.1" id="Layer_1" xmlns="http://www.w3.org/2000/svg" xmlns:xlink="http://www.w3.org/1999/xlink" x="0px" y="0px"
	 viewBox="0 0 156.98 232.92" style="enable-background:new 0 0 156.98 232.92;" xml:space="preserve">
<style type="text/css">
	.st0{fill:#CCCCCC;}
	.st1{fill:#C23413;}
	.st2{opacity:0.26;fill:#FFFFFF;}
	.st3{opacity:0.26;}
	.st4{fill:#FFFFFF;}
	.st5{fill:#A82000;}
	.st6{fill:#542D18;}
	.st7{fill:#85401D;}
	.st8{fill:#B8653A;}
	.st9{opacity:0.32;fill:#542D18;}
	.st10{opacity:0.18;}
</style>
<g>
	<path class="st0" d="M120.77,51.3c-0.25-0.54-0.51-1.08-0.77-1.62l-3.28,1.73l-3.07-5.82l3.22-1.7c-0.3-0.52-0.61-1.03-0.93-1.54
		L112.81,44l-3.07-5.82l2.48-1.31c-0.36-0.49-0.73-0.97-1.1-1.45l-2.22,1.17l-3.07-5.82l0.94-0.5c-0.42-0.46-0.85-0.91-1.28-1.35
		l-0.5,0.27l-0.88-1.67c-1.19-1.18-2.41-2.3-3.66-3.38c-0.09-0.08-0.18-0.15-0.27-0.23c-0.4-0.35-0.8-0.68-1.21-1.02l-5.08,2.68
		l-3.07-5.82l2.28-1.2c-0.57-0.38-1.15-0.75-1.73-1.12l-1.39,0.74l-1.2-2.28c-0.94-0.53-1.88-1.04-2.83-1.52l2.45,4.64l-5.61,2.96
		l-3.07-5.83l4.75-2.5c-0.68-0.33-1.37-0.64-2.06-0.94l-3.52,1.86l-2.11-4.01c-0.8-0.26-1.61-0.51-2.42-0.74l2.94,5.58l-5.61,2.96
		l-3.07-5.82l5.36-2.82c-0.87-0.24-1.73-0.46-2.6-0.66l-3.59,1.89l-1.49-2.83c-0.72-0.1-1.44-0.18-2.16-0.25l2.07,3.92l-5.61,2.96
		l-3.07-5.82l2.46-1.3c-1.05-0.02-2.09-0.02-3.13,0.03c-0.28,0.01-0.56,0.02-0.83,0.04c-0.38,0.02-0.76,0.04-1.13,0.08l0.22,0.41
		l-5.61,2.96l-1.27-2.41C47.6,8.82,47,8.96,46.4,9.11l1.49,2.82l-5.61,2.96l-2-3.79c-0.56,0.22-1.11,0.46-1.66,0.7l2.07,3.93
		l-5.61,2.96l-2.08-3.94l0,0c-0.51,0.31-1.02,0.63-1.52,0.97l2.01,3.81l-5.61,2.96l-1.51-2.87c-0.47,0.41-0.92,0.82-1.37,1.25
		l1.3,2.46l-5.61,2.96l-0.26-0.48c-0.29,0.35-0.57,0.7-0.84,1.06c-0.13,0.16-0.25,0.33-0.37,0.49c-0.67,0.89-1.31,1.81-1.92,2.75
		l2.64-1.39l3.07,5.82l-5.61,2.96l-2.13-4.03c-0.35,0.63-0.69,1.27-1.02,1.92l1.56,2.95l-3.77,1.99c-0.33,0.83-0.64,1.67-0.92,2.51
		l5.53-2.92l3.07,5.82l-5.61,2.96l-3.03-5.75c-0.27,0.79-0.53,1.59-0.76,2.4l2.21,4.19l-3.7,1.95c-0.14,0.74-0.27,1.48-0.39,2.23
		l4.92-2.6l3.07,5.83l-5.61,2.96l-2.58-4.89c-0.14,1.05-0.26,2.1-0.36,3.17l1.35,2.56l-1.57,0.83c-0.03,0.68-0.05,1.37-0.05,2.06
		l2.46-1.3l3.07,5.82l-5.26,2.77c0.03,0.34,0.06,0.69,0.1,1.04c0.03,0.3,0.06,0.59,0.09,0.89c0.16,1.43,0.36,2.86,0.61,4.29
		l1.17,2.22l-0.68,0.36c0.12,0.61,0.26,1.21,0.4,1.82l1.12-0.59l3.07,5.82l-2.4,1.26c0.18,0.57,0.37,1.15,0.58,1.72l2.66-1.4
		l3.07,5.82l-3.31,1.74c0.24,0.55,0.49,1.09,0.74,1.64l3.4-1.79l3.07,5.82l-3.45,1.82c0.29,0.52,0.59,1.04,0.9,1.55l3.39-1.79
		l3.07,5.82l-2.87,1.51c0.35,0.49,0.7,0.98,1.05,1.47l2.65-1.4l3.07,5.82l-1.58,0.83c0.4,0.47,0.8,0.93,1.21,1.39l1.2-0.63
		l2.31,4.37c0.4,0.41,0.81,0.81,1.22,1.21c0.45,0.44,0.91,0.88,1.37,1.3c0.48,0.45,0.97,0.89,1.46,1.33l-0.86-1.64l5.61-2.96
		l3.07,5.82l-3.91,2.06c0.52,0.41,1.03,0.81,1.56,1.21l3.19-1.68l3.07,5.83l-0.16,0.08c0.1,0.06,0.2,0.12,0.3,0.19
		c0.49,0.31,0.98,0.61,1.48,0.9c0.49,0.29,0.98,0.58,1.47,0.86l-0.67-1.28l5.61-2.96l3.07,5.82l-2.44,1.29
		c0.69,0.33,1.38,0.64,2.07,0.93l1.21-0.64l0.77,1.46c0.85,0.34,1.69,0.66,2.53,0.96l-1.71-3.25l5.61-2.96l3.07,5.82l-3.09,1.63
		c0.85,0.25,1.71,0.47,2.56,0.68l1.37-0.72l0.62,1.17c0.75,0.16,1.5,0.3,2.25,0.42l-1.28-2.43l5.61-2.96l3.07,5.82l-0.53,0.28
		c0.23,0.01,0.46,0.02,0.69,0.02c0.68,0.02,1.36,0.02,2.03,0.01c0.38,0,0.76-0.02,1.14-0.03l4.71-2.48l1,1.89
		c0.62-0.11,1.23-0.22,1.84-0.35l-1.25-2.38l5.61-2.96l1.85,3.5c0.56-0.21,1.12-0.44,1.67-0.68l0,0l-1.93-3.66l5.61-2.96l1.92,3.65
		c0.51-0.32,1.01-0.66,1.5-1l-1.84-3.48l5.61-2.96l1.23,2.32c0.45-0.43,0.89-0.87,1.33-1.33l-0.97-1.83l4.53-2.39
		c0.27-0.36,0.54-0.73,0.8-1.1c0.39-0.55,0.77-1.11,1.14-1.69c0.08-0.13,0.17-0.26,0.25-0.39l-0.35,0.19l-3.07-5.82l5.61-2.96
		l1.21,2.3c0.32-0.69,0.62-1.39,0.92-2.11l-0.54-1.03l1.2-0.63c0.31-0.82,0.6-1.65,0.88-2.49l-2.92,1.54l-3.07-5.82l5.61-2.96
		l1.61,3.05c0.23-0.87,0.44-1.75,0.63-2.64l-0.66-1.25l1.03-0.54c0.14-0.74,0.28-1.48,0.4-2.24l-2.27,1.2l-3.07-5.82l5.61-2.96
		l0.53,1c0.04-0.44,0.07-0.89,0.1-1.33c0.04-0.69,0.08-1.39,0.11-2.08c0-0.01,0-0.03,0-0.05l-3.05-5.79l3.01-1.59
		c-0.03-0.66-0.07-1.31-0.11-1.97l-3.73,1.97l-3.07-5.82l5.61-2.96l0.61,1.16c-0.06-0.46-0.13-0.92-0.2-1.38
		c-0.09-0.62-0.19-1.25-0.3-1.87c-0.13-0.79-0.28-1.58-0.44-2.37l-2-3.79l1.03-0.54c-0.15-0.6-0.3-1.19-0.46-1.78l-1.4,0.74
		l-3.07-5.82l2.48-1.31c-0.2-0.57-0.41-1.14-0.62-1.7l-2.7,1.42L117.56,53L120.77,51.3z M40.49,120.01l-5.61,2.96l-3.07-5.82
		l5.61-2.96L40.49,120.01z M36.58,112.6l-5.61,2.96l-3.07-5.82l5.61-2.96L36.58,112.6z M32.68,105.19l-5.61,2.96l-3.07-5.82
		l5.61-2.96L32.68,105.19z M28.77,97.78l-5.61,2.96l-3.07-5.82l5.61-2.96L28.77,97.78z M24.86,90.37l-5.61,2.96l-3.07-5.82
		l5.61-2.96L24.86,90.37z M20.95,82.96l-5.61,2.96l-3.07-5.82l5.61-2.96L20.95,82.96z M17.05,75.55l-5.61,2.96l-3.07-5.82l5.61-2.96
		L17.05,75.55z M55.5,131.04L49.89,134l-3.07-5.83l5.61-2.96L55.5,131.04z M51.59,123.63l-5.61,2.96l-3.07-5.82l5.61-2.96
		L51.59,123.63z M47.69,116.22l-5.61,2.96l-3.07-5.82l5.61-2.96L47.69,116.22z M43.78,108.81l-5.61,2.96l-3.07-5.82l5.61-2.96
		L43.78,108.81z M39.87,101.4l-5.61,2.96l-3.07-5.82l5.61-2.96L39.87,101.4z M35.97,93.99l-5.61,2.96l-3.07-5.82l5.61-2.96
		L35.97,93.99z M32.06,86.58l-5.61,2.96l-3.07-5.82l5.61-2.96L32.06,86.58z M28.15,79.17l-5.61,2.96l-3.07-5.82l5.61-2.96
		L28.15,79.17z M24.24,71.76l-5.61,2.96l-3.07-5.82l5.61-2.96L24.24,71.76z M20.34,64.35l-5.61,2.96l-3.07-5.82l5.61-2.96
		L20.34,64.35z M66.61,134.66L61,137.62l-3.07-5.82l5.61-2.96L66.61,134.66z M62.7,127.25l-5.61,2.96l-3.07-5.83l5.61-2.96
		L62.7,127.25z M58.79,119.84l-5.61,2.96l-3.07-5.82l5.61-2.96L58.79,119.84z M54.88,112.43l-5.61,2.96l-3.07-5.82l5.61-2.96
		L54.88,112.43z M50.98,105.02l-5.61,2.96l-3.07-5.82l5.61-2.96L50.98,105.02z M47.07,97.61l-5.61,2.96l-3.07-5.82L44,91.78
		L47.07,97.61z M43.16,90.19l-5.61,2.96l-3.07-5.82l5.61-2.96L43.16,90.19z M39.26,82.78l-5.61,2.96l-3.07-5.82l5.61-2.96
		L39.26,82.78z M35.35,75.37l-5.61,2.96l-3.07-5.82l5.61-2.96L35.35,75.37z M31.44,67.96l-5.61,2.96l-3.07-5.82l5.61-2.96
		L31.44,67.96z M27.53,60.55l-5.61,2.96l-3.07-5.82l5.61-2.96L27.53,60.55z M23.63,53.14l-5.61,2.96l-3.07-5.83l5.61-2.96
		L23.63,53.14z M77.71,138.27l-5.61,2.96l-3.07-5.82l5.61-2.96L77.71,138.27z M73.8,130.86l-5.61,2.96L65.12,128l5.61-2.96
		L73.8,130.86z M69.9,123.45l-5.61,2.96l-3.07-5.83l5.61-2.96L69.9,123.45z M65.99,116.04L60.38,119l-3.07-5.82l5.61-2.96
		L65.99,116.04z M62.08,108.63l-5.61,2.96l-3.07-5.82l5.61-2.96L62.08,108.63z M58.17,101.22l-5.61,2.96l-3.07-5.82l5.61-2.96
		L58.17,101.22z M54.27,93.81l-5.61,2.96l-3.07-5.82l5.61-2.96L54.27,93.81z M50.36,86.4l-5.61,2.96l-3.07-5.82l5.61-2.96
		L50.36,86.4z M46.45,78.99l-5.61,2.96l-3.07-5.82l5.61-2.96L46.45,78.99z M42.55,71.58l-5.61,2.96l-3.07-5.82l5.61-2.96
		L42.55,71.58z M38.64,64.17l-5.61,2.96l-3.07-5.82l5.61-2.96L38.64,64.17z M34.73,56.76l-5.61,2.96l-3.07-5.82l5.61-2.96
		L34.73,56.76z M30.82,49.35l-5.61,2.96l-3.07-5.83l5.61-2.96L30.82,49.35z M26.92,41.94l-5.61,2.96l-3.07-5.82l5.61-2.96
		L26.92,41.94z M88.81,141.89l-5.61,2.96l-3.07-5.82l5.61-2.96L88.81,141.89z M84.91,134.48l-5.61,2.96l-3.07-5.82l5.61-2.96
		L84.91,134.48z M81,127.07l-5.61,2.96l-3.07-5.82l5.61-2.96L81,127.07z M77.09,119.66l-5.61,2.96l-3.07-5.83l5.61-2.96
		L77.09,119.66z M73.19,112.25l-5.61,2.96l-3.07-5.82l5.61-2.96L73.19,112.25z M69.28,104.84l-5.61,2.96l-3.07-5.82l5.61-2.96
		L69.28,104.84z M65.37,97.43l-5.61,2.96l-3.07-5.82l5.61-2.96L65.37,97.43z M61.46,90.02l-5.61,2.96l-3.07-5.82l5.61-2.96
		L61.46,90.02z M57.56,82.61l-5.61,2.96l-3.07-5.82l5.61-2.96L57.56,82.61z M53.65,75.2l-5.61,2.96l-3.07-5.82l5.61-2.96L53.65,75.2
		z M49.74,67.79l-5.61,2.96l-3.07-5.82l5.61-2.96L49.74,67.79z M45.84,60.37l-5.61,2.96l-3.07-5.82l5.61-2.96L45.84,60.37z
		 M41.93,52.96l-5.61,2.96l-3.07-5.82l5.61-2.96L41.93,52.96z M38.02,45.55l-5.61,2.96l-3.07-5.83l5.61-2.96L38.02,45.55z
		 M34.11,38.14L28.5,41.1l-3.07-5.82l5.61-2.96L34.11,38.14z M30.21,30.73l-5.61,2.96l-3.07-5.82l5.61-2.96L30.21,30.73z
		 M96.01,138.09l-5.61,2.96l-3.07-5.82l5.61-2.96L96.01,138.09z M92.11,130.68l-5.61,2.96l-3.07-5.82l5.61-2.96L92.11,130.68z
		 M88.2,123.27l-5.61,2.96l-3.07-5.82l5.61-2.96L88.2,123.27z M84.29,115.86l-5.61,2.96L75.61,113l5.61-2.96L84.29,115.86z
		 M80.38,108.45l-5.61,2.96l-3.07-5.82l5.61-2.96L80.38,108.45z M76.48,101.04L70.86,104l-3.07-5.82l5.61-2.96L76.48,101.04z
		 M72.57,93.63l-5.61,2.96l-3.07-5.82l5.61-2.96L72.57,93.63z M68.66,86.22l-5.61,2.96l-3.07-5.82l5.61-2.96L68.66,86.22z
		 M64.76,78.81l-5.61,2.96l-3.07-5.82l5.61-2.96L64.76,78.81z M60.85,71.4l-5.61,2.96l-3.07-5.82l5.61-2.96L60.85,71.4z
		 M56.94,63.99l-5.61,2.96l-3.07-5.82l5.61-2.96L56.94,63.99z M53.03,56.58l-5.61,2.96l-3.07-5.82l5.61-2.96L53.03,56.58z
		 M49.13,49.17l-5.61,2.96l-3.07-5.82l5.61-2.96L49.13,49.17z M45.22,41.76l-5.61,2.96l-3.07-5.83l5.61-2.96L45.22,41.76z
		 M41.31,34.35l-5.61,2.96l-3.07-5.82l5.61-2.96L41.31,34.35z M37.41,26.94l-5.61,2.96l-3.07-5.82l5.61-2.96L37.41,26.94z
		 M103.21,134.3l-5.61,2.96l-3.07-5.82l5.61-2.96L103.21,134.3z M99.3,126.89l-5.61,2.96l-3.07-5.82l5.61-2.96L99.3,126.89z
		 M95.4,119.48l-5.61,2.96l-3.07-5.82l5.61-2.96L95.4,119.48z M91.49,112.07l-5.61,2.96l-3.07-5.83l5.61-2.96L91.49,112.07z
		 M87.58,104.66l-5.61,2.96l-3.07-5.82l5.61-2.96L87.58,104.66z M83.67,97.25l-5.61,2.96l-3.07-5.82l5.61-2.96L83.67,97.25z
		 M79.77,89.84l-5.61,2.96l-3.07-5.82l5.61-2.96L79.77,89.84z M75.86,82.43l-5.61,2.96l-3.07-5.82l5.61-2.96L75.86,82.43z
		 M71.95,75.02l-5.61,2.96l-3.07-5.82l5.61-2.96L71.95,75.02z M68.05,67.61l-5.61,2.96l-3.07-5.82l5.61-2.96L68.05,67.61z
		 M64.14,60.19l-5.61,2.96l-3.07-5.82l5.61-2.96L64.14,60.19z M60.23,52.78l-5.61,2.96l-3.07-5.82l5.61-2.96L60.23,52.78z
		 M56.32,45.37l-5.61,2.96l-3.07-5.82l5.61-2.96L56.32,45.37z M52.42,37.96l-5.61,2.96l-3.07-5.83l5.61-2.96L52.42,37.96z
		 M48.51,30.55l-5.61,2.96l-3.07-5.82l5.61-2.96L48.51,30.55z M44.6,23.14l-5.61,2.96l-3.07-5.82l5.61-2.96L44.6,23.14z
		 M110.41,130.5l-5.61,2.96l-3.07-5.82l5.61-2.96L110.41,130.5z M106.5,123.09l-5.61,2.96l-3.07-5.82l5.61-2.96L106.5,123.09z
		 M102.59,115.68l-5.61,2.96l-3.07-5.82l5.61-2.96L102.59,115.68z M98.69,108.27l-5.61,2.96L90,105.41l5.61-2.96L98.69,108.27z
		 M94.78,100.86l-5.61,2.96L86.1,98l5.61-2.96L94.78,100.86z M90.87,93.45l-5.61,2.96l-3.07-5.82l5.61-2.96L90.87,93.45z
		 M86.96,86.04L81.35,89l-3.07-5.82l5.61-2.96L86.96,86.04z M83.06,78.63l-5.61,2.96l-3.07-5.82l5.61-2.96L83.06,78.63z
		 M79.15,71.22l-5.61,2.96l-3.07-5.82l5.61-2.96L79.15,71.22z M75.24,63.81l-5.61,2.96l-3.07-5.82l5.61-2.96L75.24,63.81z
		 M71.34,56.4l-5.61,2.96l-3.07-5.82l5.61-2.96L71.34,56.4z M67.43,48.99l-5.61,2.96l-3.07-5.82l5.61-2.96L67.43,48.99z
		 M63.52,41.58l-5.61,2.96l-3.07-5.82l5.61-2.96L63.52,41.58z M59.61,34.17L54,37.13l-3.07-5.83l5.61-2.96L59.61,34.17z
		 M55.71,26.76l-5.61,2.96l-3.07-5.82l5.61-2.96L55.71,26.76z M51.8,19.35l-5.61,2.96l-3.07-5.82l5.61-2.96L51.8,19.35z
		 M117.6,126.71l-5.61,2.96l-3.07-5.82l5.61-2.96L117.6,126.71z M113.7,119.3l-5.61,2.96l-3.07-5.82l5.61-2.96L113.7,119.3z
		 M109.79,111.89l-5.61,2.96l-3.07-5.82l5.61-2.96L109.79,111.89z M105.88,104.48l-5.61,2.96l-3.07-5.83l5.61-2.96L105.88,104.48z
		 M101.97,97.07l-5.61,2.96l-3.07-5.82l5.61-2.96L101.97,97.07z M98.07,89.66l-5.61,2.96l-3.07-5.82L95,83.83L98.07,89.66z
		 M94.16,82.25l-5.61,2.96l-3.07-5.82l5.61-2.96L94.16,82.25z M90.25,74.84l-5.61,2.96l-3.07-5.82l5.61-2.96L90.25,74.84z
		 M86.35,67.43l-5.61,2.96l-3.07-5.82l5.61-2.96L86.35,67.43z M82.44,60.02l-5.61,2.96l-3.07-5.82l5.61-2.96L82.44,60.02z
		 M78.53,52.61l-5.61,2.96l-3.07-5.82l5.61-2.96L78.53,52.61z M74.63,45.2l-5.61,2.96l-3.07-5.82l5.61-2.96L74.63,45.2z
		 M70.72,37.79l-5.61,2.96l-3.07-5.82l5.61-2.96L70.72,37.79z M66.81,30.38l-5.61,2.96l-3.07-5.83l5.61-2.96L66.81,30.38z
		 M62.9,22.96l-5.61,2.96l-3.07-5.82l5.61-2.96L62.9,22.96z M59,15.55l-5.61,2.96l-3.07-5.82l5.61-2.96L59,15.55z M120.89,115.5
		l-5.61,2.96l-3.07-5.82l5.61-2.96L120.89,115.5z M116.99,108.09l-5.61,2.96l-3.07-5.82l5.61-2.96L116.99,108.09z M113.08,100.68
		l-5.61,2.96l-3.07-5.83l5.61-2.96L113.08,100.68z M109.17,93.27l-5.61,2.96l-3.07-5.82l5.61-2.96L109.17,93.27z M105.26,85.86
		l-5.61,2.96L96.58,83l5.61-2.96L105.26,85.86z M101.36,78.45l-5.61,2.96l-3.07-5.82l5.61-2.96L101.36,78.45z M97.45,71.04L91.84,74
		l-3.07-5.82l5.61-2.96L97.45,71.04z M93.54,63.63l-5.61,2.96l-3.07-5.82l5.61-2.96L93.54,63.63z M89.64,56.22l-5.61,2.96
		l-3.07-5.82l5.61-2.96L89.64,56.22z M85.73,48.81l-5.61,2.96l-3.07-5.82l5.61-2.96L85.73,48.81z M81.82,41.4l-5.61,2.96l-3.07-5.82
		l5.61-2.96L81.82,41.4z M77.92,33.99l-5.61,2.96l-3.07-5.82l5.61-2.96L77.92,33.99z M74.01,26.58l-5.61,2.96l-3.07-5.83l5.61-2.96
		L74.01,26.58z M70.1,19.17l-5.61,2.96l-3.07-5.82l5.61-2.96L70.1,19.17z M124.18,104.3l-5.61,2.96l-3.07-5.82l5.61-2.96
		L124.18,104.3z M120.28,96.89l-5.61,2.96l-3.07-5.83l5.61-2.96L120.28,96.89z M116.37,89.48l-5.61,2.96l-3.07-5.82l5.61-2.96
		L116.37,89.48z M112.46,82.07l-5.61,2.96l-3.07-5.82l5.61-2.96L112.46,82.07z M108.55,74.66l-5.61,2.96l-3.07-5.82l5.61-2.96
		L108.55,74.66z M104.65,67.25l-5.61,2.96l-3.07-5.82l5.61-2.96L104.65,67.25z M100.74,59.84l-5.61,2.96l-3.07-5.82l5.61-2.96
		L100.74,59.84z M96.83,52.43l-5.61,2.96l-3.07-5.82l5.61-2.96L96.83,52.43z M92.93,45.02l-5.61,2.96l-3.07-5.82l5.61-2.96
		L92.93,45.02z M89.02,37.61l-5.61,2.96l-3.07-5.82l5.61-2.96L89.02,37.61z M85.11,30.2l-5.61,2.96l-3.07-5.82l5.61-2.96L85.11,30.2
		z M81.2,22.79l-5.61,2.96l-3.07-5.83l5.61-2.96L81.2,22.79z M127.47,93.1l-5.61,2.96l-3.07-5.83l5.61-2.96L127.47,93.1z
		 M123.57,85.68l-5.61,2.96l-3.07-5.82l5.61-2.96L123.57,85.68z M119.66,78.27l-5.61,2.96l-3.07-5.82l5.61-2.96L119.66,78.27z
		 M115.75,70.86l-5.61,2.96L107.07,68l5.61-2.96L115.75,70.86z M111.84,63.45l-5.61,2.96l-3.07-5.82l5.61-2.96L111.84,63.45z
		 M107.94,56.04L102.33,59l-3.07-5.82l5.61-2.96L107.94,56.04z M104.03,48.63l-5.61,2.96l-3.07-5.82l5.61-2.96L104.03,48.63z
		 M100.12,41.22l-5.61,2.96l-3.07-5.82l5.61-2.96L100.12,41.22z M96.22,33.81l-5.61,2.96l-3.07-5.82l5.61-2.96L96.22,33.81z
		 M92.31,26.4l-5.61,2.96l-3.07-5.82l5.61-2.96L92.31,26.4z M126.86,74.48l-5.61,2.96l-3.07-5.82l5.61-2.96L126.86,74.48z
		 M122.95,67.07l-5.61,2.96l-3.07-5.82l5.61-2.96L122.95,67.07z M119.04,59.66l-5.61,2.96l-3.07-5.82l5.61-2.96L119.04,59.66z
		 M115.13,52.25l-5.61,2.96l-3.07-5.82l5.61-2.96L115.13,52.25z M111.23,44.84l-5.61,2.96l-3.07-5.82l5.61-2.96L111.23,44.84z
		 M107.32,37.43l-5.61,2.96l-3.07-5.82l5.61-2.96L107.32,37.43z M103.41,30.02l-5.61,2.96l-3.07-5.82l5.61-2.96L103.41,30.02z"/>
	<path class="st1" d="M84.47,13.62c0.5,0.24,0.99,0.48,1.49,0.73l-0.62-1.18L84.47,13.62z M73.97,9.68
		c0.13,0.03,0.25,0.07,0.38,0.11l-0.13-0.24L73.97,9.68z M11.04,42.87l0.04,0.07c0.01-0.04,0.02-0.08,0.04-0.11L11.04,42.87z"/>
	<g>
		<g>
			<path class="st1" d="M130.85,120.12l-0.07,0.19c-3.32,8.49-5.94,15.19-6.96,24.11c-1.02,8.9,0.2,15.78,4.34,24.55l-3.1,1.47
				l-3.75,1.77c-4.74-10.04-6.19-18.33-5.01-28.64c0.11-0.92,0.23-1.81,0.36-2.69c1.32-8.6,4.01-15.48,7.08-23.32l0.08-0.19
				l3.43,1.34L130.85,120.12L130.85,120.12z"/>
		</g>
	</g>
	<g>
		<path class="st1" d="M112.97,177.71c-4.43-7.58-9.12-13.43-17.62-17.36c-5.84-2.7-11.96-4.46-19.7-6.7
			c-1.52-0.44-3.09-0.89-4.73-1.37l2.13-7.27c1.62,0.48,3.19,0.93,4.69,1.36c7.73,2.23,14.41,4.16,20.77,7.1
			c10.9,5.03,16.53,12.78,20.98,20.41L112.97,177.71z"/>
	</g>
	<path class="st1" d="M120.77,51.3c15.1,31.23,11.66,84.34-28.28,93.71c-32.65,6.15-65.56-20.44-78.13-49.1
		c-8.41-18.96-9.55-41.78-0.1-60.55C23.23,16.8,43.61,5.46,64.13,7.84C89.21,10.37,110.48,28.86,120.77,51.3z M123.58,40.35
		C110.96,18.46,87.82,1.49,62.26,0.09c-1.53-0.08-3.06-0.11-4.61-0.08c-33.01,0.26-56.72,29-57.56,60.82
		c-0.91,18.85,5.09,37.74,15.77,53.22c22.94,34.36,71.71,53.76,100.79,26.81c2.13-1.98,4.16-4.2,6.06-6.69
		c3.06-4,5.79-8.67,8.14-14.06c0.07-0.17,0.15-0.34,0.22-0.51C141.09,93.99,137.21,63.94,123.58,40.35z"/>
	<path class="st2" d="M64.93,148.89c-14.1-2.97-26.28-11.63-36.37-21.62C14.19,113.23,3.71,90.92,2.13,70.7
		C-0.29,46.28,8.9,18.76,37.96,5.32c1.39-0.64,1.73,1.38,0.24,1.84c-3.43,1.1-10.26,5.95-13.1,8.16
		c-5.74,4.44-11.32,11.91-14.6,18.36C0.62,53.3,3.44,76.99,11.41,97.46c8.72,21.06,25.36,37.31,46.06,47.1
		c2.5,1.1,5.19,2.05,7.82,2.78C66.28,147.54,65.94,149.17,64.93,148.89z"/>
	<g class="st3">
		<path class="st4" d="M111.7,169.94c-0.35,0.18-0.79,0.12-1.07-0.18c-9.69-10.32-23.33-16.91-37.44-18.08
			c-0.49-0.04-0.86-0.47-0.82-0.97c0.04-0.49,0.47-0.86,0.97-0.82c14.54,1.21,28.61,8,38.6,18.64c0.34,0.36,0.32,0.93-0.04,1.27
			C111.84,169.86,111.77,169.91,111.7,169.94z"/>
	</g>
	<g>
		<path class="st5" d="M130.13,176.2c0.01-0.22,0.02-0.44,0.03-0.66C130.19,175.77,130.18,175.99,130.13,176.2z"/>
		<path class="st5" d="M131.07,119.61c-0.07,0.17-0.15,0.34-0.22,0.51l0,0l-0.07,0.19c-3.32,8.49-5.94,15.19-6.96,24.11
			c-1.02,8.9,0.2,15.78,4.34,24.55l-3.1,1.47c-5.45-9.31-5.52-21.03-3.37-31.68c0.31-1.53,0.66-3.05,1.04-4.57
			c1.3-5.21,2.96-10.33,4.51-15.48c1.29-4.28,2.52-8.58,3.41-12.96c3.63-17.75,1.63-36.61-5.65-53.21
			c-7.28-16.6-19.79-30.84-35.31-40.2C81.31,7.3,71.27,3.89,62.26,0.09c25.57,1.39,48.71,18.37,61.32,40.26
			C137.21,63.94,141.09,93.99,131.07,119.61z"/>
	</g>
	
		<ellipse transform="matrix(0.8846 -0.4664 0.4664 0.8846 -89.2028 95.009)" class="st6" cx="147.35" cy="227.73" rx="10.86" ry="1.28"/>
	<polygon class="st7" points="156.96,222.66 137.74,232.79 134.42,221.64 134.17,221.15 133.15,219.09 132.06,216.89 131.08,214.93 
		125.66,204.03 124.57,201.84 122.49,197.65 121.52,195.69 116.55,185.69 115.53,183.65 110.92,174.38 126.83,165.99 132.54,177.37 
		133.53,179.33 136.41,185.06 137.44,187.1 142.76,197.69 143.74,199.65 145.31,202.78 146.39,204.92 150.3,212.71 150.52,213.15 
		151.48,214.56 	"/>
	<g>
		<path class="st8" d="M150.52,213.15l0.96,1.41c-1.05,0.67-2.13,1.29-3.24,1.88c-1.37,0.72-2.77,1.37-4.2,1.95
			c-3.17,1.28-6.49,2.2-9.87,2.76l-1.02-2.06c3.45-0.51,6.85-1.43,10.07-2.73c2.46-1,4.83-2.22,7.08-3.65L150.52,213.15z"/>
		<path class="st8" d="M140.54,211.02c-2.69,2.38-5.54,4.34-8.48,5.87l-0.98-1.96c2.77-1.44,5.47-3.3,8.01-5.55
			c2.28-2.02,4.35-4.27,6.23-6.61l1.08,2.14C144.61,207.07,142.67,209.14,140.54,211.02z"/>
		<path class="st8" d="M132.59,201.14c3.53-0.68,6.96-1.85,10.17-3.45l0.98,1.96c-3.39,1.69-7.01,2.93-10.74,3.64
			c-2.42,0.46-4.88,0.71-7.34,0.74l-1.09-2.19C127.26,201.88,129.95,201.65,132.59,201.14z"/>
		<path class="st8" d="M136.41,185.06l1.03,2.04c-1.08,0.98-2.17,1.91-3.26,2.8c-3.25,2.67-7.17,5.66-11.68,7.75l-0.97-1.96
			c4.32-1.99,8.11-4.89,11.27-7.48C134,187.22,135.22,186.18,136.41,185.06z"/>
		<path class="st8" d="M132.54,177.37l0.98,1.96c-1.44,0.81-2.86,1.55-4.29,2.22c-4.28,2.01-8.52,3.4-12.69,4.15l-1.02-2.05
			c4.18-0.69,8.46-2.05,12.78-4.08C129.71,178.9,131.12,178.18,132.54,177.37z"/>
	</g>
	<path class="st9" d="M156.96,222.66l-5.94,3.13c-0.56-0.44-1.07-0.99-1.51-1.53c-3.37-4.18-5.44-9.22-7.64-14.11
		c-1.84-4.1-3.8-8.15-5.85-12.15c-3.7-7.25-7.68-14.36-11.73-21.43c-1.01-1.77-2.03-3.53-3.05-5.29c-0.32-0.55-0.73-1.16-1.04-1.79
		l6.63-3.5l5.72,11.38l0.98,1.96l2.88,5.73l1.03,2.04l5.32,10.59l0.98,1.96l1.57,3.13l1.08,2.14l3.91,7.79l0.22,0.44l0.96,1.41
		L156.96,222.66z"/>
	<g class="st10">
		<path class="st4" d="M139.9,220.2c-1.38,0.69-2.98,0.28-3.59-0.93l-21.43-42.76c-0.6-1.2,0.03-2.74,1.4-3.43
			c1.38-0.69,2.98-0.28,3.59,0.93l21.43,42.76C141.9,217.98,141.28,219.51,139.9,220.2z"/>
	</g>
</g>
</svg>
