<?xml version="1.0" encoding="utf-8"?>
<!-- Generator: Adobe Illustrator 24.1.1, SVG Export Plug-In . SVG Version: 6.00 Build 0)  -->
<svg version="1.1" id="Layer_1" xmlns="http://www.w3.org/2000/svg" xmlns:xlink="http://www.w3.org/1999/xlink" x="0px" y="0px"
	 viewBox="0 0 224.52 226.12" style="enable-background:new 0 0 224.52 226.12;" xml:space="preserve">
<style type="text/css">
	.st0{fill:url(#SVGID_1_);}
	.st1{fill:#151616;}
	.st2{fill:#8C8C8C;}
	.st3{fill:url(#SVGID_2_);}
	.st4{opacity:0.3;fill:#8C8C8C;}
	.st5{fill:#FFFFFF;}
	.st6{fill:#8CD366;}
	.st7{fill:url(#SVGID_3_);}
	.st8{fill:#396A1F;}
	.st9{fill:url(#SVGID_4_);}
	.st10{fill:url(#SVGID_5_);}
	.st11{fill:url(#SVGID_6_);}
	.st12{fill:url(#SVGID_7_);}
	.st13{fill:#DEF2D3;}
	.st14{opacity:0.2;fill:#7BCC50;}
</style>
<g>
	<g>
		
			<linearGradient id="SVGID_1_" gradientUnits="userSpaceOnUse" x1="96.9556" y1="85.5611" x2="91.5391" y2="85.5611" gradientTransform="matrix(0.9999 -0.0131 0.0131 0.9999 16.6582 15.9081)">
			<stop  offset="0" style="stop-color:#000000"/>
			<stop  offset="0.0844" style="stop-color:#1C1D1E"/>
			<stop  offset="0.176" style="stop-color:#333536"/>
			<stop  offset="0.2725" style="stop-color:#444647"/>
			<stop  offset="0.3764" style="stop-color:#4E5052"/>
			<stop  offset="0.5004" style="stop-color:#515355"/>
			<stop  offset="0.6025" style="stop-color:#4C4E50"/>
			<stop  offset="0.7276" style="stop-color:#3D3F41"/>
			<stop  offset="0.8642" style="stop-color:#252728"/>
			<stop  offset="1" style="stop-color:#050708"/>
		</linearGradient>
		<path class="st0" d="M113.73,200.17c-1.14,0.01-2.07-0.9-2.09-2.03c-1.02-64.23-1.91-131.93-2.57-195.78
			c-0.01-1.14,0.9-2.07,2.04-2.08l0.01,0c1.14-0.01,2.07,0.9,2.09,2.04c0.66,63.85,1.55,131.54,2.57,195.76
			C115.79,199.21,114.88,200.15,113.73,200.17L113.73,200.17z"/>
		<path class="st1" d="M113.74,200.44L113.74,200.44L113.74,200.44c-1.29,0.02-2.35-1.01-2.37-2.3
			c-1.02-64.23-1.91-131.93-2.57-195.78c-0.01-1.28,1.02-2.34,2.3-2.36c0.63-0.01,1.22,0.23,1.66,0.67c0.45,0.44,0.69,1.02,0.7,1.64
			c0.66,63.85,1.55,131.54,2.57,195.76C116.06,199.35,115.03,200.42,113.74,200.44z M111.12,0.54c-0.99,0.01-1.79,0.83-1.78,1.81
			c0.66,63.85,1.55,131.55,2.57,195.78c0.02,0.99,0.83,1.78,1.82,1.77l0.01,0.27l0-0.27c0.99-0.02,1.78-0.83,1.77-1.82
			c-1.02-64.22-1.91-131.91-2.57-195.76c-0.01-0.48-0.2-0.93-0.54-1.26C112.05,0.72,111.6,0.54,111.12,0.54z"/>
	</g>
	<path class="st2" d="M112.87,98.06c0.56,0.06,1.04,0.27,1.46,0.55c-0.41-30.97-0.77-61.88-1.09-91.98
		c-0.34,0.66-0.82,1.2-1.53,1.45c-1.16,0.42-2.02-0.01-2.59-0.79c0.32,29.89,0.68,60.57,1.08,91.31
		C111.01,98.15,111.99,97.96,112.87,98.06z"/>
	<g>
		<path class="st2" d="M113.2,2.31c-0.01-1.14-0.95-2.05-2.09-2.04l-0.01,0c-0.39,0.01-0.75,0.13-1.06,0.32
			c0.6,0.35,1.01,1,1.02,1.75c0.66,63.85,1.55,131.54,2.57,195.76c0.01,0.75-0.38,1.41-0.98,1.78c0.31,0.19,0.68,0.3,1.07,0.29
			l0.01,0c1.14-0.02,2.05-0.96,2.03-2.1C114.75,133.85,113.87,66.16,113.2,2.31z"/>
	</g>
	<g>
		
			<linearGradient id="SVGID_2_" gradientUnits="userSpaceOnUse" x1="78.7905" y1="167.8456" x2="78.7905" y2="221.5964" gradientTransform="matrix(0.9999 -0.0131 0.0131 0.9999 16.6582 15.9081)">
			<stop  offset="0" style="stop-color:#000000"/>
			<stop  offset="0.0844" style="stop-color:#1C1D1E"/>
			<stop  offset="0.176" style="stop-color:#333536"/>
			<stop  offset="0.2725" style="stop-color:#444647"/>
			<stop  offset="0.3764" style="stop-color:#4E5052"/>
			<stop  offset="0.5004" style="stop-color:#515355"/>
			<stop  offset="0.6025" style="stop-color:#4C4E50"/>
			<stop  offset="0.7276" style="stop-color:#3D3F41"/>
			<stop  offset="0.8642" style="stop-color:#252728"/>
			<stop  offset="1" style="stop-color:#050708"/>
		</linearGradient>
		<path class="st3" d="M97.57,225.84c-2.43,0.03-4.88-0.41-7.18-1.37c-6.74-2.84-11.72-10.09-11.83-17.25
			c-0.03-1.95,1.53-3.56,3.48-3.59c0,0,0.01,0,0.01,0c1.95-0.03,3.55,1.53,3.58,3.48c0.07,4.33,3.36,9.09,7.5,10.83
			c4.94,2.08,11.26,0.08,14.09-4.45c3.11-4.99,3.02-10.98,2.92-17.33l-0.02-1.33c-0.03-1.95,1.54-3.56,3.49-3.58
			c1.95-0.03,3.56,1.54,3.58,3.49l0.02,1.31c0.11,6.76,0.23,14.43-3.99,21.19C109.88,222.61,103.77,225.76,97.57,225.84z"/>
		<path class="st1" d="M97.58,226.11c-2.55,0.03-5-0.44-7.28-1.4c-6.84-2.88-11.88-10.23-12-17.49c-0.02-1.02,0.37-1.98,1.07-2.71
			c0.71-0.73,1.66-1.14,2.68-1.16c2.11-0.03,3.84,1.65,3.87,3.75c0.07,4.23,3.29,8.89,7.34,10.59c1.31,0.55,2.74,0.82,4.24,0.8
			c3.86-0.05,7.6-2.07,9.52-5.14c3.07-4.92,2.98-10.87,2.88-17.18l-0.02-1.34c-0.03-2.1,1.66-3.83,3.76-3.86
			c2.1-0.03,3.83,1.66,3.86,3.76l0.02,1.31c0.11,6.8,0.23,14.51-4.03,21.34C110.16,222.69,104.07,226.03,97.58,226.11z M82.06,203.9
			c-0.88,0.01-1.7,0.37-2.3,0.99c-0.61,0.63-0.93,1.45-0.92,2.33c0.11,7.05,5.02,14.2,11.67,17c2.21,0.93,4.59,1.39,7.07,1.35
			c6.31-0.08,12.23-3.33,15.43-8.47c4.17-6.69,4.05-14.31,3.95-21.04l-0.02-1.31c-0.02-1.8-1.51-3.25-3.31-3.22
			s-3.25,1.51-3.22,3.31l0.02,1.33c0.1,6.39,0.19,12.43-2.96,17.48c-2.01,3.22-5.92,5.34-9.97,5.4c-1.57,0.02-3.07-0.26-4.45-0.84
			c-4.23-1.78-7.6-6.65-7.67-11.08C85.34,205.32,83.86,203.88,82.06,203.9z"/>
	</g>
	<g>
		<path class="st4" d="M117.22,196.06l-0.02-1.31c-0.03-1.95-1.63-3.52-3.58-3.49c-1.61,0.02-2.95,1.12-3.36,2.59
			c0.73,0.53,1.22,1.37,1.23,2.34l0.02,1.09c0.09,5.62,0.19,12-3.32,17.62c-2.78,4.46-7.87,7.08-13.02,7.15
			c-2.02,0.03-4.06-0.34-5.97-1.14c-5.61-2.36-9.74-8.39-9.84-14.34c-0.02-1.39,0.93-2.56,2.21-2.89c-1.73,0.26-3.04,1.76-3.01,3.55
			c0.11,7.16,5.09,14.41,11.83,17.25c2.3,0.97,4.74,1.41,7.18,1.37c6.2-0.08,12.31-3.23,15.66-8.6
			C117.45,210.49,117.33,202.82,117.22,196.06z"/>
		<path class="st4" d="M117.22,196.06l-0.02-1.31c-0.03-1.95-1.63-3.52-3.58-3.49c-0.74,0.01-1.42,0.26-1.99,0.66
			c1.88-0.22,2.81,1.85,2.99,3.49c0.33,3.04-0.02,6.31-0.29,9.35c-0.27,3.05-0.72,6.15-1.91,8.99c-2.91,6.94-9.77,11.42-16.97,12.01
			c0.71,0.07,1.41,0.11,2.12,0.1c6.2-0.08,12.31-3.23,15.66-8.6C117.45,210.49,117.33,202.82,117.22,196.06z"/>
	</g>
	<g>
		<g>
			<path class="st5" d="M134.85,98.32l0.01-0.08l0,0c0,0-0.01,0-0.01,0C134.85,98.24,134.85,98.27,134.85,98.32z"/>
			<path class="st6" d="M134.85,98.59c0,0-0.01,0-0.01,0c-0.14-0.01-0.26-0.12-0.26-0.27l0-0.08c0-0.23,0.32-0.35,0.47-0.19
				c0.05,0.06,0.08,0.13,0.08,0.21l-0.01,0.08C135.1,98.49,134.99,98.59,134.85,98.59z"/>
		</g>
		<g>
			<path class="st5" d="M179.73,97.4c0.01,0,0.01,0,0.01,0C179.73,97.4,179.73,97.4,179.73,97.4L179.73,97.4z"/>
			<path class="st6" d="M179.73,97.67c-0.04,0-0.08-0.01-0.12-0.03c-0.09-0.04-0.16-0.13-0.16-0.24c0-0.15,0.12-0.27,0.27-0.27l0,0
				c0.01,0,0.01,0,0.02,0c0.15,0,0.27,0.12,0.27,0.27c0,0.13-0.09,0.24-0.2,0.27C179.78,97.67,179.76,97.67,179.73,97.67z"/>
		</g>
		<g>
			
				<linearGradient id="SVGID_3_" gradientUnits="userSpaceOnUse" x1="150.5855" y1="97.6558" x2="150.5855" y2="-12.842" gradientTransform="matrix(0.9999 -0.0131 0.0131 0.9999 16.6582 15.9081)">
				<stop  offset="0" style="stop-color:#2B4F17"/>
				<stop  offset="0.0356" style="stop-color:#345F1C"/>
				<stop  offset="0.1168" style="stop-color:#447E25"/>
				<stop  offset="0.2017" style="stop-color:#51972C"/>
				<stop  offset="0.2906" style="stop-color:#5BA831"/>
				<stop  offset="0.3862" style="stop-color:#60B334"/>
				<stop  offset="0.5004" style="stop-color:#62B635"/>
				<stop  offset="0.5906" style="stop-color:#5FB133"/>
				<stop  offset="0.7012" style="stop-color:#57A22F"/>
				<stop  offset="0.8224" style="stop-color:#4A8928"/>
				<stop  offset="0.9504" style="stop-color:#37661E"/>
				<stop  offset="1" style="stop-color:#2F5719"/>
			</linearGradient>
			<path class="st7" d="M220.25,79.59c-8.86-24.29-34.62-63.21-108.99-68.61l0,0c58.93,7.65,67.36,73.2,68.47,86.42c0,0,0,0,0,0
				c0.01,0,0.01,0,0.02,0c29.77-10.45,44.26-1.48,44.5-1.33c0,0,0.01,0,0.01,0C223.29,90.17,221.93,84.69,220.25,79.59z"/>
			<path class="st8" d="M179.74,97.67l-0.02,0c-0.04,0-0.09-0.01-0.12-0.03c-0.09-0.04-0.14-0.13-0.15-0.22
				c-1.09-13.05-9.5-78.56-68.23-86.18c-0.15-0.02-0.25-0.15-0.23-0.3c0.01-0.15,0.14-0.25,0.29-0.24
				c32.87,2.39,59.52,11.57,79.21,27.28c17.34,13.84,25.89,30.21,30.01,41.51c1.74,5.29,3.09,10.85,4.02,16.53
				c0.01,0.08-0.01,0.16-0.06,0.22c-0.05,0.06-0.11,0.09-0.18,0.1c-0.07,0.01-0.13,0-0.18-0.04c-0.25-0.16-6.24-3.84-18.47-3.68
				c-7.9,0.1-16.58,1.8-25.8,5.04C179.8,97.66,179.77,97.67,179.74,97.67z M117.77,11.82c52.83,11.36,61.03,71.86,62.19,85.22
				c9.16-3.19,17.79-4.85,25.66-4.96c10.57-0.14,16.58,2.58,18.27,3.49c-0.92-5.47-2.23-10.81-3.9-15.89
				c-4.1-11.23-12.6-27.5-29.84-41.26C171.86,23.82,147.54,14.88,117.77,11.82z"/>
		</g>
		<g>
			<polygon class="st5" points="179.72,97.4 179.72,97.4 179.72,97.4 			"/>
			<path class="st6" d="M179.73,97.67L179.73,97.67c-0.15,0-0.28-0.12-0.28-0.27c0-0.19,0.21-0.33,0.38-0.25
				c0.09,0.04,0.16,0.13,0.16,0.24C179.99,97.54,179.88,97.67,179.73,97.67L179.73,97.67z"/>
		</g>
		<g>
			
				<linearGradient id="SVGID_4_" gradientUnits="userSpaceOnUse" x1="128.313" y1="97.6558" x2="128.313" y2="-12.8418" gradientTransform="matrix(0.9999 -0.0131 0.0131 0.9999 16.6582 15.9081)">
				<stop  offset="0" style="stop-color:#2B4F17"/>
				<stop  offset="0.0356" style="stop-color:#345F1C"/>
				<stop  offset="0.1168" style="stop-color:#447E25"/>
				<stop  offset="0.2017" style="stop-color:#51972C"/>
				<stop  offset="0.2906" style="stop-color:#5BA831"/>
				<stop  offset="0.3862" style="stop-color:#60B334"/>
				<stop  offset="0.5004" style="stop-color:#62B635"/>
				<stop  offset="0.5906" style="stop-color:#5FB133"/>
				<stop  offset="0.7012" style="stop-color:#57A22F"/>
				<stop  offset="0.8224" style="stop-color:#4A8928"/>
				<stop  offset="0.9504" style="stop-color:#37661E"/>
				<stop  offset="1" style="stop-color:#2F5719"/>
			</linearGradient>
			<path class="st9" d="M179.72,97.4c-1.1-13.22-9.53-78.78-68.47-86.42l0,0l0,0c19.85,8.21,23.15,74.63,23.6,87.27
				c0,0,0.01,0,0.01,0C162.98,90.2,179.36,97.24,179.72,97.4z"/>
			<path class="st8" d="M134.86,98.51L134.86,98.51c-0.16,0-0.28-0.11-0.28-0.26c-0.2-5.72-1.13-25.89-4.52-45.26
				c-4.25-24.28-10.61-38.34-18.91-41.77c-0.13-0.05-0.19-0.19-0.16-0.32c0.03-0.13,0.16-0.21,0.3-0.2
				c59.03,7.66,67.58,73.29,68.7,86.59c0.01,0.03,0.02,0.06,0.02,0.09c0,0.15-0.12,0.27-0.27,0.27c0,0-0.01,0-0.01,0
				c-0.04,0-0.08-0.01-0.11-0.02c-0.29-0.13-7.31-3.14-20.04-2.97c-7.83,0.1-16.12,1.39-24.64,3.83
				C134.91,98.51,134.88,98.51,134.86,98.51z M112.86,11.47c18.45,10.77,21.74,72.85,22.25,86.42c8.46-2.39,16.69-3.65,24.46-3.75
				c11.27-0.15,18.13,2.18,19.85,2.85C178.18,83.1,169.48,19.99,112.86,11.47z"/>
		</g>
		<g>
			
				<linearGradient id="SVGID_5_" gradientUnits="userSpaceOnUse" x1="94.6482" y1="97.6558" x2="94.6482" y2="-12.8418" gradientTransform="matrix(0.9999 -0.0131 0.0131 0.9999 16.6582 15.9081)">
				<stop  offset="0" style="stop-color:#2B4F17"/>
				<stop  offset="0.0356" style="stop-color:#345F1C"/>
				<stop  offset="0.1168" style="stop-color:#447E25"/>
				<stop  offset="0.2017" style="stop-color:#51972C"/>
				<stop  offset="0.2906" style="stop-color:#5BA831"/>
				<stop  offset="0.3862" style="stop-color:#60B334"/>
				<stop  offset="0.5004" style="stop-color:#62B635"/>
				<stop  offset="0.5906" style="stop-color:#5FB133"/>
				<stop  offset="0.7012" style="stop-color:#57A22F"/>
				<stop  offset="0.8224" style="stop-color:#4A8928"/>
				<stop  offset="0.9504" style="stop-color:#37661E"/>
				<stop  offset="1" style="stop-color:#2F5719"/>
			</linearGradient>
			<path class="st10" d="M111.25,10.97c-19.62,8.73-21.18,75.21-21.3,87.86c0,0,22.35-7.8,44.89-0.59
				C134.4,85.6,131.1,19.18,111.25,10.97z"/>
			<path class="st8" d="M134.85,98.51c-0.03,0-0.06,0-0.09-0.01c-6.62-2.12-13.88-3.14-21.57-3.04
				c-13.11,0.17-23.05,3.59-23.15,3.63c-0.08,0.03-0.18,0.01-0.25-0.04c-0.07-0.05-0.11-0.13-0.11-0.22
				c0.12-13.17,1.74-79.33,21.46-88.1c0.07-0.03,0.14-0.03,0.21,0c19.94,8.25,23.29,74.34,23.76,87.51c0,0.09-0.04,0.17-0.11,0.23
				C134.96,98.49,134.91,98.51,134.85,98.51z M111.25,11.27c-8.15,3.72-14.1,17.92-17.7,42.2c-2.82,19.03-3.26,38.79-3.33,44.98
				c1.91-0.61,11.17-3.38,22.96-3.54c7.61-0.1,14.8,0.89,21.38,2.95c-0.23-6.19-1.19-25.92-4.51-44.87
				C125.82,28.82,119.5,14.78,111.25,11.27z"/>
		</g>
		<g>
			
				<linearGradient id="SVGID_6_" gradientUnits="userSpaceOnUse" x1="38.5861" y1="97.6563" x2="38.5861" y2="-12.8424" gradientTransform="matrix(0.9999 -0.0131 0.0131 0.9999 16.6582 15.9081)">
				<stop  offset="0" style="stop-color:#2B4F17"/>
				<stop  offset="0.0356" style="stop-color:#345F1C"/>
				<stop  offset="0.1168" style="stop-color:#447E25"/>
				<stop  offset="0.2017" style="stop-color:#51972C"/>
				<stop  offset="0.2906" style="stop-color:#5BA831"/>
				<stop  offset="0.3862" style="stop-color:#60B334"/>
				<stop  offset="0.5004" style="stop-color:#62B635"/>
				<stop  offset="0.5906" style="stop-color:#5FB133"/>
				<stop  offset="0.7012" style="stop-color:#57A22F"/>
				<stop  offset="0.8224" style="stop-color:#4A8928"/>
				<stop  offset="0.9504" style="stop-color:#37661E"/>
				<stop  offset="1" style="stop-color:#2F5719"/>
			</linearGradient>
			<path class="st11" d="M111.25,10.97C15.04,20.51,2.01,84.21,0.27,99.02c0,0,14.33-9.6,44.8,0.16
				C45.83,85.94,52.53,20.16,111.25,10.97z"/>
			<path class="st8" d="M45.08,99.44c-0.03,0-0.06,0-0.09-0.01c-9.36-3-18.13-4.46-26.08-4.36C6.56,95.23,0.48,99.2,0.42,99.24
				c-0.09,0.06-0.2,0.06-0.29,0.01C0.04,99.19-0.01,99.09,0,98.98c0.89-7.55,4.62-27.17,20.12-46.14
				c19.54-23.91,50.19-38.09,91.1-42.14c0.14-0.01,0.28,0.09,0.3,0.24c0.02,0.15-0.08,0.28-0.23,0.3
				c-58.52,9.16-65.2,74.87-65.95,87.95c0,0.08-0.05,0.16-0.12,0.21C45.18,99.42,45.13,99.44,45.08,99.44z M18.9,94.53
				c7.91-0.1,16.63,1.34,25.92,4.28c0.82-13.4,7.42-74.09,59.94-86.82c-37.51,4.85-65.83,18.69-84.22,41.2
				C5.49,71.61,1.6,90.63,0.61,98.5C2.29,97.57,8.35,94.67,18.9,94.53z"/>
		</g>
		<g>
			
				<linearGradient id="SVGID_7_" gradientUnits="userSpaceOnUse" x1="60.9838" y1="97.6558" x2="60.9838" y2="-12.8418" gradientTransform="matrix(0.9999 -0.0131 0.0131 0.9999 16.6582 15.9081)">
				<stop  offset="0" style="stop-color:#2B4F17"/>
				<stop  offset="0.0356" style="stop-color:#345F1C"/>
				<stop  offset="0.1168" style="stop-color:#447E25"/>
				<stop  offset="0.2017" style="stop-color:#51972C"/>
				<stop  offset="0.2906" style="stop-color:#5BA831"/>
				<stop  offset="0.3862" style="stop-color:#60B334"/>
				<stop  offset="0.5004" style="stop-color:#62B635"/>
				<stop  offset="0.5906" style="stop-color:#5FB133"/>
				<stop  offset="0.7012" style="stop-color:#57A22F"/>
				<stop  offset="0.8224" style="stop-color:#4A8928"/>
				<stop  offset="0.9504" style="stop-color:#37661E"/>
				<stop  offset="1" style="stop-color:#2F5719"/>
			</linearGradient>
			<path class="st12" d="M111.25,10.97L111.25,10.97c-58.72,9.19-65.42,74.96-66.18,88.2c0,0,16.24-7.72,44.88-0.34
				C90.07,86.19,91.63,19.7,111.25,10.97z"/>
			<path class="st8" d="M89.96,99.1c-0.02,0-0.05,0-0.07-0.01c-8.58-2.21-16.9-3.28-24.72-3.18c-12.8,0.17-19.9,3.47-19.97,3.5
				c-0.09,0.04-0.19,0.03-0.27-0.02c-0.08-0.05-0.12-0.14-0.12-0.24c0.75-13.15,7.48-79.23,66.41-88.45
				c0.14-0.02,0.26,0.06,0.3,0.19c0.04,0.13-0.03,0.27-0.15,0.32c-8.2,3.65-14.19,17.86-17.81,42.25
				c-2.88,19.44-3.28,39.63-3.33,45.36c0,0.08-0.04,0.16-0.11,0.21C90.07,99.08,90.01,99.1,89.96,99.1z M65.15,95.37
				c7.77-0.1,16.02,0.94,24.53,3.11c0.15-13.58,1.82-75.72,19.97-86.97C53.26,21.52,46.23,84.84,45.37,98.75
				C47.07,98.05,53.96,95.52,65.15,95.37z"/>
		</g>
	</g>
	<g>
		<path class="st13" d="M220.25,79.59c-8.86-24.29-34.62-63.21-108.99-68.61l0,0l0,0C15.04,20.51,2.01,84.21,0.27,99.02
			c0,0,14.33-9.6,44.8,0.16c0,0,16.24-7.72,44.88-0.34c0,0,22.35-7.8,44.89-0.59c0,0,0.01,0,0.01,0c28.13-8.04,44.51-1,44.86-0.84
			c0,0,0,0,0,0c0.01,0,0.01,0,0.02,0c29.77-10.45,44.26-1.48,44.5-1.33c0,0,0.01,0,0.01,0C223.29,90.17,221.93,84.69,220.25,79.59z
			 M128.8,90.07c0,0-7.08,0.16-16.01,0.25c-8.93,0.15-16.01,0.17-16.01,0.17C42.53,91.61,19,74.79,30.94,53.62
			s51.89-36.79,51.89-36.79s26.17-8.26,57.97-0.76c0,0,40.34,14.57,52.84,35.41C206.14,72.33,183.07,89.77,128.8,90.07z"/>
		<g>
			<path class="st13" d="M220.25,79.59c-3.89-10.67-11.05-24.17-24.16-36.4c6.91,6.91,15.18,20.85,19.03,30.88
				c4.27,11.14-1.82,11.22-1.82,11.22c-19.28-1.91-34.11,6.15-34.11,6.15c-20.6-5.13-44.46,3.33-44.46,3.33
				c-22-7.08-44.7-0.1-44.7-0.1c-26.92-7.41-44.7,0.59-44.7,0.59C33.59,84.9,7.05,91.14,7.05,91.14c0-14.88,13.14-37.73,13.58-38.48
				C4.88,71.74,1.14,91.56,0.27,99.02c0,0,14.33-9.6,44.8,0.16c0,0,16.24-7.72,44.88-0.34c0,0,22.35-7.8,44.89-0.59
				c0,0,0.01,0,0.01,0c28.13-8.04,44.51-1,44.86-0.84c0,0,0,0,0,0c0.01,0,0.01,0,0.02,0c29.77-10.45,44.26-1.48,44.5-1.33
				c0,0,0.01,0,0.01,0C223.29,90.17,221.93,84.69,220.25,79.59z"/>
			<path class="st14" d="M193.71,41.04c-0.17-0.15-0.33-0.29-0.5-0.44C193.36,40.75,193.54,40.89,193.71,41.04z"/>
		</g>
	</g>
</g>
</svg>
