<?xml version="1.0" encoding="utf-8"?>
<!-- Generator: Adobe Illustrator 24.1.1, SVG Export Plug-In . SVG Version: 6.00 Build 0)  -->
<svg version="1.1" id="Layer_1" xmlns="http://www.w3.org/2000/svg" xmlns:xlink="http://www.w3.org/1999/xlink" x="0px" y="0px"
	 viewBox="0 0 31.56 31.09" style="enable-background:new 0 0 31.56 31.09;" xml:space="preserve">
<style type="text/css">
	.st0{fill:#FF0000;stroke:#000000;stroke-width:0.25;stroke-miterlimit:10;}
	.st1{fill:url(#SVGID_1_);stroke:#000000;stroke-width:0.25;stroke-miterlimit:10;}
	.st2{fill:#FFFFFF;stroke:#000000;stroke-width:0.25;stroke-miterlimit:10;}
	.st3{stroke:#000000;stroke-width:0.25;stroke-miterlimit:10;}
	.st4{fill:none;stroke:#000000;stroke-width:0.25;stroke-miterlimit:10;}
</style>
<g>
	<g>
		<path class="st0" d="M31.16,16.23c0.1,0.15,0.1,0.53,0.07,0.85c-0.03,0.29-0.28,0.51-0.58,0.48c0,0-1.56-0.51-3.61-0.64
			c-3.43-0.23-3.79,0-3.79,0l-1.09-1.86C22.16,15.05,29.11,13.25,31.16,16.23z"/>
		<path class="st0" d="M30.94,17.83c0.13,0.13,0.46,0.91,0.23,1.6c-0.22,0.65-0.86,1-1.14,0.91c0,0-0.46,0-2.5-0.67
			c-3.27-1.08-3.72-0.75-3.72-0.75l-0.42-2.01C23.39,16.91,29.34,16.23,30.94,17.83z"/>
		<path class="st0" d="M30.25,20.57c0.23,0.46,0.32,1.64,0,2.29c-0.23,0.46-0.44,0.66-0.9,0.68c-0.28,0.01-0.54-0.08-0.75-0.26
			c-0.27-0.24-0.76-0.62-1.54-1.1c-1.98-1.23-2.89-1.41-3.27-1.41c-0.12,0-0.22-0.1-0.21-0.23l0.19-1.55
			c0.01-0.12,0.12-0.2,0.23-0.18C25.03,18.98,29.8,19.67,30.25,20.57z"/>
		<path class="st0" d="M29.64,24.06c0.1,0.5-0.11,1.67-0.59,2.21c-0.34,0.38-1.02,0.84-1.31,0.48c-0.91-1.14-0.69-1.14-1.83-2.29
			c-1.65-1.65-2.2-1.8-2.56-1.9c-0.12-0.03-0.19-0.16-0.14-0.27l0.58-1.45c0.04-0.11,0.17-0.16,0.27-0.11
			C25.02,21.16,29.44,23.07,29.64,24.06z"/>
	</g>
	<g>
		<path class="st0" d="M0.97,16.86c-0.1,0.15-0.1,0.53-0.07,0.85c0.03,0.29,0.28,0.51,0.58,0.48c0,0,1.56-0.51,3.61-0.64
			c3.43-0.23,3.79,0,3.79,0l1.09-1.86C9.97,15.68,3.03,13.89,0.97,16.86z"/>
		<path class="st0" d="M1.2,18.46c-0.13,0.13-0.46,0.91-0.23,1.6c0.22,0.65,0.86,1,1.14,0.91c0,0,0.46,0,2.5-0.67
			c3.27-1.08,3.72-0.75,3.72-0.75l0.42-2.01C8.75,17.54,2.8,16.86,1.2,18.46z"/>
		<path class="st0" d="M1.88,21.2c-0.23,0.46-0.32,1.64,0,2.29c0.23,0.46,0.44,0.66,0.9,0.68c0.28,0.01,0.54-0.08,0.75-0.26
			c0.27-0.24,0.76-0.62,1.54-1.1c1.98-1.23,2.89-1.41,3.27-1.41c0.12,0,0.22-0.1,0.21-0.23l-0.19-1.55
			c-0.01-0.12-0.12-0.2-0.23-0.18C7.1,19.61,2.34,20.3,1.88,21.2z"/>
		<path class="st0" d="M2.72,24.46c-0.1,0.5,0.11,1.67,0.59,2.21c0.34,0.38,1.02,0.84,1.31,0.48c0.91-1.14,0.69-1.14,1.83-2.29
			c1.65-1.65,2.2-1.8,2.56-1.9c0.12-0.03,0.19-0.16,0.14-0.27l-0.58-1.45c-0.04-0.11-0.17-0.16-0.27-0.11
			C7.35,21.56,2.92,23.47,2.72,24.46z"/>
	</g>
	<g>
		<g>
			<path class="st0" d="M19.83,13.19l2.15-3.28C22,9.94,22.02,9.97,22.05,10c0.29,0.34,0.61,0.62,0.97,0.84l-2.03,3.1L19.83,13.19z"
				/>
			<path class="st0" d="M22.05,10C22.02,9.97,22,9.94,21.98,9.91c-1.48-1.83-1.24-4.51,0.56-6.04c0.18-0.15,0.36-0.28,0.56-0.4
				l2.48,3.44l2.83-2.73l0.08-0.01c0.06,0.06,0.12,0.13,0.18,0.2c1.56,1.83,1.34,4.57-0.49,6.12c-1.49,1.27-3.59,1.36-5.16,0.35
				C22.66,10.61,22.33,10.33,22.05,10z"/>
		</g>
		<g>
			<g>
				<radialGradient id="SVGID_1_" cx="16.3054" cy="20.0327" r="7.7752" fx="10.0255" fy="15.4482" gradientUnits="userSpaceOnUse">
					<stop  offset="0.0493" style="stop-color:#FFFFFF"/>
					<stop  offset="0.0688" style="stop-color:#FFF4F4"/>
					<stop  offset="0.178" style="stop-color:#FFBCBC"/>
					<stop  offset="0.2904" style="stop-color:#FF8A8A"/>
					<stop  offset="0.4037" style="stop-color:#FF5F5F"/>
					<stop  offset="0.518" style="stop-color:#FF3D3D"/>
					<stop  offset="0.6337" style="stop-color:#FF2222"/>
					<stop  offset="0.7512" style="stop-color:#FF0F0F"/>
					<stop  offset="0.8717" style="stop-color:#FF0404"/>
					<stop  offset="1" style="stop-color:#FF0000"/>
				</radialGradient>
				<path class="st1" d="M23.85,19.89c0,4.29-3.48,7.78-7.78,7.78S8.3,24.18,8.3,19.89s3.48-7.78,7.78-7.78c2.3,0,4.36,1,5.79,2.58
					C23.09,16.07,23.85,17.89,23.85,19.89z"/>
				<g>
					<circle class="st2" cx="18.93" cy="7.88" r="2.63"/>
					<circle class="st3" cx="18.24" cy="7.65" r="1.72"/>
					<line class="st4" x1="18.19" y1="10.45" x2="17.73" y2="12.28"/>
				</g>
			</g>
			<g>
				<circle class="st2" cx="12.53" cy="8.11" r="2.63"/>
				<circle class="st3" cx="13.21" cy="7.88" r="1.72"/>
				<line class="st4" x1="13.27" y1="10.68" x2="13.73" y2="12.51"/>
			</g>
		</g>
		<g>
			<path class="st0" d="M11.47,13.59l-2.61-2.93c-0.02,0.03-0.03,0.06-0.05,0.09c-0.23,0.37-0.52,0.7-0.83,0.98l2.47,2.77
				L11.47,13.59z"/>
			<path class="st0" d="M8.81,10.76c0.02-0.03,0.03-0.06,0.05-0.09c1.19-2.02,0.56-4.64-1.44-5.89c-0.2-0.12-0.4-0.22-0.61-0.31
				L4.87,8.22l-3.2-2.29l-0.08,0c-0.05,0.07-0.1,0.15-0.15,0.22c-1.27,2.04-0.65,4.72,1.39,5.99c1.66,1.04,3.75,0.81,5.15-0.41
				C8.3,11.46,8.58,11.13,8.81,10.76z"/>
		</g>
	</g>
</g>
</svg>
