<?xml version="1.0" encoding="utf-8"?>
<!-- Generator: Adobe Illustrator 24.1.1, SVG Export Plug-In . SVG Version: 6.00 Build 0)  -->
<svg version="1.1" id="Layer_1" xmlns="http://www.w3.org/2000/svg" xmlns:xlink="http://www.w3.org/1999/xlink" x="0px" y="0px"
	 viewBox="0 0 31.56 31.09" style="enable-background:new 0 0 31.56 31.09;" xml:space="preserve">
<style type="text/css">
	.st0{opacity:0.5;}
	.st1{fill:#FF0000;stroke:#000000;stroke-width:0.25;stroke-miterlimit:10;}
	.st2{fill:url(#SVGID_1_);stroke:#000000;stroke-width:0.25;stroke-miterlimit:10;}
	.st3{fill:#FFFFFF;stroke:#000000;stroke-width:0.25;stroke-miterlimit:10;}
	.st4{stroke:#000000;stroke-width:0.25;stroke-miterlimit:10;}
	.st5{fill:none;stroke:#000000;stroke-width:0.25;stroke-miterlimit:10;}
</style>
<g class="st0">
	<g>
		<path class="st1" d="M30.93,15.21c0.1,0.15,0.1,0.53,0.07,0.85c-0.03,0.29-0.28,0.51-0.58,0.48c0,0-1.56-0.51-3.61-0.64
			c-3.43-0.23-3.79,0-3.79,0l-1.09-1.86C21.93,14.04,28.87,12.24,30.93,15.21z"/>
		<path class="st1" d="M30.7,16.81c0.13,0.13,0.46,0.91,0.23,1.6c-0.22,0.65-0.86,1-1.14,0.91c0,0-0.46,0-2.5-0.67
			c-3.27-1.08-3.72-0.75-3.72-0.75l-0.42-2.01C23.16,15.9,29.1,15.21,30.7,16.81z"/>
		<path class="st1" d="M30.02,19.55c0.23,0.46,0.32,1.64,0,2.29c-0.23,0.46-0.44,0.66-0.9,0.68c-0.28,0.01-0.54-0.08-0.75-0.26
			c-0.27-0.24-0.76-0.62-1.54-1.1c-1.98-1.23-2.89-1.41-3.27-1.41c-0.12,0-0.22-0.1-0.21-0.23l0.19-1.55
			c0.01-0.12,0.12-0.2,0.23-0.18C24.8,17.96,29.56,18.65,30.02,19.55z"/>
		<path class="st1" d="M29.41,23.04c0.1,0.5-0.11,1.67-0.59,2.21c-0.34,0.38-1.02,0.84-1.31,0.48c-0.91-1.14-0.69-1.14-1.83-2.29
			c-1.65-1.65-2.2-1.8-2.56-1.9c-0.12-0.03-0.19-0.16-0.14-0.27l0.58-1.45c0.04-0.11,0.17-0.16,0.27-0.11
			C24.78,20.14,29.2,22.05,29.41,23.04z"/>
	</g>
	<g>
		<path class="st1" d="M0.74,15.84c-0.1,0.15-0.1,0.53-0.07,0.85c0.03,0.29,0.28,0.51,0.58,0.48c0,0,1.56-0.51,3.61-0.64
			c3.43-0.23,3.79,0,3.79,0l1.09-1.86C9.74,14.67,2.79,12.87,0.74,15.84z"/>
		<path class="st1" d="M0.96,17.44c-0.13,0.13-0.46,0.91-0.23,1.6c0.22,0.65,0.86,1,1.14,0.91c0,0,0.46,0,2.5-0.67
			c3.27-1.08,3.72-0.75,3.72-0.75l0.42-2.01C8.51,16.53,2.56,15.84,0.96,17.44z"/>
		<path class="st1" d="M1.65,20.18c-0.23,0.46-0.32,1.64,0,2.29c0.23,0.46,0.44,0.66,0.9,0.68c0.28,0.01,0.54-0.08,0.75-0.26
			c0.27-0.24,0.76-0.62,1.54-1.1c1.98-1.23,2.89-1.41,3.27-1.41c0.12,0,0.22-0.1,0.21-0.23L8.14,18.6c-0.01-0.12-0.12-0.2-0.23-0.18
			C6.87,18.59,2.1,19.28,1.65,20.18z"/>
		<path class="st1" d="M2.49,23.44c-0.1,0.5,0.11,1.67,0.59,2.21c0.34,0.38,1.02,0.84,1.31,0.48c0.91-1.14,0.69-1.14,1.83-2.29
			c1.65-1.65,2.2-1.8,2.56-1.9c0.12-0.03,0.19-0.16,0.14-0.27l-0.58-1.45c-0.04-0.11-0.17-0.16-0.27-0.11
			C7.11,20.55,2.69,22.45,2.49,23.44z"/>
	</g>
	<g>
		<g>
			<path class="st1" d="M19.6,12.17l2.15-3.28c0.02,0.03,0.04,0.06,0.07,0.08c0.29,0.34,0.61,0.62,0.97,0.84l-2.03,3.1L19.6,12.17z"
				/>
			<path class="st1" d="M21.81,8.98c-0.02-0.03-0.04-0.06-0.07-0.08c-1.48-1.83-1.24-4.51,0.56-6.04c0.18-0.15,0.36-0.28,0.56-0.4
				l2.48,3.44l2.83-2.73l0.08-0.01c0.06,0.06,0.12,0.13,0.18,0.2c1.56,1.83,1.34,4.57-0.49,6.12c-1.49,1.27-3.59,1.36-5.16,0.35
				C22.42,9.6,22.1,9.31,21.81,8.98z"/>
		</g>
		<g>
			<g>
				<radialGradient id="SVGID_1_" cx="16.0708" cy="19.0146" r="7.7752" fx="9.7909" fy="14.4302" gradientUnits="userSpaceOnUse">
					<stop  offset="0.0493" style="stop-color:#FFFFFF"/>
					<stop  offset="0.0688" style="stop-color:#FFF4F4"/>
					<stop  offset="0.178" style="stop-color:#FFBCBC"/>
					<stop  offset="0.2904" style="stop-color:#FF8A8A"/>
					<stop  offset="0.4037" style="stop-color:#FF5F5F"/>
					<stop  offset="0.518" style="stop-color:#FF3D3D"/>
					<stop  offset="0.6337" style="stop-color:#FF2222"/>
					<stop  offset="0.7512" style="stop-color:#FF0F0F"/>
					<stop  offset="0.8717" style="stop-color:#FF0404"/>
					<stop  offset="1" style="stop-color:#FF0000"/>
				</radialGradient>
				<path class="st2" d="M23.61,18.87c0,4.29-3.48,7.78-7.78,7.78s-7.78-3.48-7.78-7.78s3.48-7.78,7.78-7.78c2.3,0,4.36,1,5.79,2.58
					C22.86,15.05,23.61,16.87,23.61,18.87z"/>
				<g>
					<circle class="st3" cx="18.7" cy="6.86" r="2.63"/>
					<circle class="st4" cx="18.01" cy="6.63" r="1.72"/>
					<line class="st5" x1="17.95" y1="9.43" x2="17.5" y2="11.26"/>
				</g>
			</g>
			<g>
				<circle class="st3" cx="12.29" cy="7.09" r="2.63"/>
				<circle class="st4" cx="12.98" cy="6.86" r="1.72"/>
				<line class="st5" x1="13.03" y1="9.66" x2="13.49" y2="11.49"/>
			</g>
		</g>
		<g>
			<path class="st1" d="M11.24,12.57L8.63,9.65C8.61,9.68,8.6,9.71,8.58,9.74c-0.23,0.37-0.52,0.7-0.83,0.98l2.47,2.77L11.24,12.57z
				"/>
			<path class="st1" d="M8.58,9.74C8.6,9.71,8.61,9.68,8.63,9.65C9.82,7.62,9.19,5,7.19,3.75c-0.2-0.12-0.4-0.22-0.61-0.31
				L4.63,7.21l-3.2-2.29l-0.08,0C1.3,4.99,1.25,5.07,1.2,5.14c-1.27,2.04-0.65,4.72,1.39,5.99c1.66,1.04,3.75,0.81,5.15-0.41
				C8.06,10.44,8.34,10.11,8.58,9.74z"/>
		</g>
	</g>
</g>
</svg>
