<?xml version="1.0" encoding="utf-8"?>
<!-- Generator: Adobe Illustrator 24.1.1, SVG Export Plug-In . SVG Version: 6.00 Build 0)  -->
<svg version="1.1" id="Layer_1" xmlns="http://www.w3.org/2000/svg" xmlns:xlink="http://www.w3.org/1999/xlink" x="0px" y="0px"
	 viewBox="0 0 31.56 31.09" style="enable-background:new 0 0 31.56 31.09;" xml:space="preserve">
<style type="text/css">
	.st0{opacity:0.5;}
	.st1{fill:url(#SVGID_1_);stroke:#000000;stroke-width:0.25;stroke-miterlimit:10;}
	.st2{fill:#FF0016;stroke:#000000;stroke-width:0.25;stroke-miterlimit:10;}
	.st3{fill:none;stroke:#000000;stroke-width:0.25;stroke-miterlimit:10;}
	.st4{fill:url(#SVGID_2_);stroke:#000000;stroke-width:0.25;stroke-miterlimit:10;}
	.st5{stroke:#000000;stroke-width:0.25;stroke-miterlimit:10;}
	.st6{fill:#EAD50F;stroke:#000000;stroke-width:0.25;stroke-miterlimit:10;}
	.st7{fill:#F7E714;stroke:#000000;stroke-width:0.25;stroke-miterlimit:10;}
	.st8{fill:#0C0B0B;}
	.st9{fill:#1FAA00;stroke:#000000;stroke-width:0.25;stroke-miterlimit:10;}
	.st10{fill:#EBFF15;stroke:#000000;stroke-width:0.25;stroke-miterlimit:10;}
	.st11{fill:#6AE2FF;stroke:#000000;stroke-width:0.25;stroke-miterlimit:10;}
	.st12{fill:#FFFFFF;stroke:#000000;stroke-width:0.25;stroke-miterlimit:10;}
	.st13{fill:url(#SVGID_3_);stroke:#000000;stroke-width:0.25;stroke-miterlimit:10;}
</style>
<g class="st0">
	<linearGradient id="SVGID_1_" gradientUnits="userSpaceOnUse" x1="7.2236" y1="24.5134" x2="20.8536" y2="24.5134">
		<stop  offset="0.3417" style="stop-color:#91C6E5"/>
		<stop  offset="1" style="stop-color:#FFFFFF"/>
	</linearGradient>
	<path class="st1" d="M20.85,24.51c-3.44,3.39-7.46,5.99-12.19,6.44v-0.12c6.21-6.1-5.29-9.78,0-12.77
		C12.57,26.12,20.85,24.51,20.85,24.51z"/>
	<g>
		<g>
			<path class="st2" d="M30.75,16l0.69,0.46v0.69l-0.13,0.01l-0.2,0.9l0.1,0.01h-0.92h-0.12c-4.23,5.71-9.41,7.06-13.65,6.19
				c-3.95-0.81-7.09-3.53-7.87-6.42h0.12H6.7h0.12c-1.61,0.69-2.76,2.53-6.21,2.07c2.93-2.66,2-1.77,2.45-2.56
				c0.5-0.87,0.69-1.68,0.65-2.44c-0.03-0.58-0.18-1.12-0.4-1.62c-0.89-1.99-2.94-3.27-2.94-3.27c4.6-0.46,3.68,1.84,6.21,2.3h2.07
				c1.01-0.62,2.55-2.19,4.56-3.43C17.06,6.52,22.77,5.58,30.75,16z"/>
		</g>
		<line class="st3" x1="31.55" y1="17.15" x2="30.63" y2="17.15"/>
		<path class="st3" d="M31.55,17.15"/>
	</g>
	<line class="st3" x1="5.44" y1="1.51" x2="5.44" y2="1.51"/>
	<linearGradient id="SVGID_2_" gradientUnits="userSpaceOnUse" x1="4.9782" y1="6.2221" x2="25.2251" y2="6.2221">
		<stop  offset="0.3417" style="stop-color:#91C6E5"/>
		<stop  offset="1" style="stop-color:#FFFFFF"/>
	</linearGradient>
	<path class="st4" d="M25.23,10.02l-2.99-4.83V5.3v1.96L19.7,3.58L20,5.63l-0.07,0.02l-3.22-3.68l0.46,2.07
		c0,0-3.91-3.91-12.19-3.91l0.46,0.23c1.7,0.74,0.46,0.92,0,1.15l0,0C10.5,5.42,7.28,9.1,7.28,9.1s1.61,1.38,1.38,3.22
		C10.73,11.17,16.48,3.12,25.23,10.02z"/>
	<path class="st3" d="M30.63,17.15"/>
	<path class="st5" d="M26.61,11.4c0,0,0.92,4.14,0.45,4.75c-1.83,2.38,0.46,4.86,0.46,4.86s-2.76,2.22-3.44,1.89
		c-3.08-1.46-0.46-13.8-0.46-13.8L26.61,11.4z"/>
	<path class="st6" d="M24.12,9.28c0,0,1.49,4.49,0.87,6.49c-0.92,2.99,0.7,6.64,0.7,6.64l-3,1.46c0,0-5.7-13.89-2.3-16.16
		C21.08,7.26,24.12,9.28,24.12,9.28z"/>
	<path class="st5" d="M20.6,7.59c0,0,1.4,4.04,1.01,6.88c-0.32,2.33,1.37,9.3,1.37,9.3l-1.62,0.47L17.17,7.49L20.6,7.59z"/>
	<path class="st7" d="M17.4,7.49c1.54,1.32,1.84,3.91,1.84,6.67c0,2.58,2.12,10.08,2.12,10.08l-1.89,0.27L15.33,7.95
		C15.33,7.95,16.99,7.14,17.4,7.49z"/>
	<g>
		<path class="st8" d="M16.84,24.18l-2.52-15.7l1.83-0.73c0.27,0.72,1.68,4.66,1.48,8.36c-0.11,1.99,1.83,7.21,2.23,8.27
			L16.84,24.18z"/>
		<path d="M16.07,7.92c0.35,0.96,1.62,4.68,1.42,8.19c-0.11,1.92,1.65,6.76,2.17,8.14l-2.72-0.17l-2.49-15.5L16.07,7.92 M16.22,7.59
			l-2.04,0.82l2.55,15.89l3.3,0.21c0,0-2.41-6.23-2.29-8.4C17.98,11.97,16.22,7.59,16.22,7.59L16.22,7.59z"/>
	</g>
	<path class="st2" d="M14.64,8.18c0.21,0.29,0.21,1.37,0.69,3.68c0.43,2.06,0.69,4.37,1.84,8.28c0.52,1.77,1.84,4.12,1.61,4.37
		c0,0-3.18-0.12-3.91-0.69c-2.91-2.27-4.09-10.92-2.53-14.26C12.59,9.02,14.64,8.18,14.64,8.18z"/>
	<path class="st5" d="M13.26,8.87c0,0-0.46,5.98,1.15,8.05c2.55,3.28,2.57,7.84,2.07,7.36l-2.99-1.15L10.23,11.1L13.26,8.87z"/>
	<path class="st9" d="M10.53,10.85c0,0,0.89,1.46,1.15,3.68c0.15,1.26,0.04,3.1,1.52,4.86c1.21,1.43,1.34,4.28,1.34,4.28
		s-4.27-1.46-5.88-5.6c-0.37-0.96,0-5.52,0-5.52L10.53,10.85z"/>
	<rect x="6.59" y="12.32" class="st5" width="2.07" height="5.52"/>
	<path class="st9" d="M3.71,14.9c0.8-0.05,2.88,0.18,2.88,0.18V13.7l-3.42-0.71c0,0,0.36,0.86,0.42,1.17
		C3.68,14.59,3.73,14.99,3.71,14.9z"/>
	<path class="st10" d="M6.59,16.23c0,0-2.76,0.69-3.51,1.1c0,0,0.44-1.02,0.52-1.33c0.08-0.28,0.12-1.03,0.12-1.03l2.87,0.11V16.23z
		"/>
	<path class="st2" d="M2.91,12.55c0.6,1.2,3.68,1.15,3.68,1.15v-1.38c0,0-0.46,0-1.15-0.46c-0.67-0.44-1.22-1.24-2.07-1.61
		C2.49,9.87,1.41,9.8,0.38,10.02C0.38,10.02,2.45,11.63,2.91,12.55z"/>
	<path class="st3" d="M3.14,12.09"/>
	<path class="st11" d="M3.14,17.38c0,0-1.96,1.96-2.88,2.65c-0.23,0.18,2.3,0.01,2.99-0.23c0.19-0.07,1.01-0.39,1.15-0.46
		c0.46-0.23,2.3-1.5,2.3-1.5l-0.12-1.69L3.14,17.38z"/>
	<circle class="st12" cx="26.26" cy="15.43" r="2.88"/>
	<circle class="st5" cx="26.49" cy="15.43" r="1.27"/>
	<g>
		<linearGradient id="SVGID_3_" gradientUnits="userSpaceOnUse" x1="17.6941" y1="16.3456" x2="22.6943" y2="16.3456">
			<stop  offset="0.3417" style="stop-color:#91C6E5"/>
			<stop  offset="1" style="stop-color:#FFFFFF"/>
		</linearGradient>
		<path class="st13" d="M22.69,18.76v-2.07l-4.6-2.76C16.02,18.07,22.69,18.76,22.69,18.76z"/>
		<line class="st3" x1="22.69" y1="17.38" x2="19.7" y2="15.77"/>
		<line class="st3" x1="22.69" y1="18.07" x2="19.47" y2="16.69"/>
	</g>
</g>
</svg>
