<?xml version="1.0" encoding="utf-8"?>
<!-- Generator: Adobe Illustrator 24.1.1, SVG Export Plug-In . SVG Version: 6.00 Build 0)  -->
<svg version="1.1" id="Layer_1" xmlns="http://www.w3.org/2000/svg" xmlns:xlink="http://www.w3.org/1999/xlink" x="0px" y="0px"
	 viewBox="0 0 40.09 38.17" style="enable-background:new 0 0 40.09 38.17;" xml:space="preserve">
<style type="text/css">
	.st0{fill:#FDDAAB;}
	.st1{fill:#D58E54;}
	.st2{fill:#FAC88F;}
</style>
<g>
	<path class="st0" d="M39.61,24.29c-0.05-4.32-6.55-17.64-8.11-18.47c-1.33-0.71-2.14-0.78-3-0.26c-0.14,0.09-0.29,0.19-0.44,0.31
		c-1.01,0.81-1.11,1.42-1.11,1.42c-0.01,0.1-0.08,0.18-0.18,0.2c-0.09,0.02-0.19-0.01-0.25-0.09c-0.01-0.01-0.61-0.81-1.5-0.91
		c-0.84-0.09-2.22,0.03-3.13,0.69c-0.62,0.46-0.44,1.72-0.31,2.16c0.03,0.1-0.01,0.21-0.1,0.26c-0.09,0.06-0.2,0.05-0.28-0.01
		c-0.01-0.01-0.67-0.52-1.67-0.76c-0.73-0.17-2.19,0.05-3.29,0.71c-0.33,0.2-0.6,0.42-0.81,0.66c-0.75,0.88,0.08,3.16,0.47,3.96
		c0.06,0.12,0,0.25-0.1,0.31c-0.11,0.06-0.25,0.02-0.32-0.09C15.43,14.3,9.49,3.97,7.15,1.5C6.18,0.48,4.94,0.2,3.98,0.77
		C3.11,1.29,2.39,2.66,3.19,4.82C4.65,8.74,15.1,24.79,15.2,24.95c0.04,0.06,0.05,0.13,0.03,0.2c-0.02,0.07-0.07,0.12-0.13,0.15
		c-0.14,0.07-3.59,1.63-7.92,0.13c-2.55-0.89-4.44-0.01-5.14,0.41c-1.24,0.74-1.85,1.86-1.44,2.61c0.7,1.25,4.7,2.6,10.98,3.69
		c1.62,0.28,3.01,1.37,4.48,2.52c2.41,1.89,4.91,3.85,8.87,2.7c2.12-0.61,4.22-1.54,6.23-2.75C36.17,31.6,39.65,27.36,39.61,24.29z"
		/>
	<path class="st1" d="M28.26,5.16c-0.16,0.1-0.32,0.21-0.5,0.35c-0.66,0.53-0.98,0.99-1.14,1.31c-0.31-0.3-0.85-0.71-1.55-0.78
		c-0.85-0.09-2.21,0.01-3.22,0.62c-0.09,0.05-0.17,0.11-0.25,0.16c-0.67,0.5-0.68,1.48-0.6,2.11c-0.32-0.18-0.79-0.4-1.37-0.54
		c-0.84-0.2-2.43,0.03-3.64,0.76c-0.37,0.22-0.68,0.48-0.92,0.76c-0.48,0.56-0.48,1.46-0.32,2.3C12.9,9.05,9.26,3.03,7.49,1.17
		c-1.13-1.19-2.6-1.5-3.76-0.81C2.71,0.98,1.84,2.55,2.74,4.98c1.39,3.75,10.53,17.88,11.9,19.99c-0.87,0.32-3.82,1.22-7.3,0
		c-1.93-0.67-3.95-0.51-5.54,0.45c-1.48,0.89-2.16,2.26-1.61,3.25c1,1.79,6.7,3.12,11.31,3.93c1.5,0.26,2.85,1.31,4.27,2.43
		c2.39,1.88,5.1,4,9.3,2.79c2.16-0.63,4.3-1.57,6.34-2.8c5.23-3.14,8.72-7.46,8.68-10.74C40.03,19.8,33.44,6.32,31.73,5.4
		C30.25,4.62,29.27,4.55,28.26,5.16z M24.93,37.36c-3.96,1.15-6.46-0.81-8.87-2.7c-1.47-1.15-2.86-2.24-4.48-2.52
		c-6.28-1.09-10.28-2.44-10.98-3.69c-0.42-0.75,0.2-1.87,1.44-2.61c0.7-0.42,2.59-1.29,5.14-0.41c4.33,1.51,7.78-0.06,7.92-0.13
		c0.06-0.03,0.11-0.08,0.13-0.15c0.02-0.07,0.01-0.14-0.03-0.2C15.1,24.79,4.65,8.74,3.19,4.82c-0.8-2.15-0.08-3.52,0.79-4.04
		C4.94,0.2,6.18,0.48,7.15,1.5c2.35,2.47,8.28,12.8,8.34,12.9c0.06,0.11,0.2,0.15,0.32,0.09c0.11-0.06,0.16-0.2,0.1-0.31
		c-0.38-0.8-1.22-3.08-0.47-3.96c0.21-0.24,0.48-0.46,0.81-0.66c1.1-0.66,2.56-0.88,3.29-0.71c1,0.24,1.66,0.76,1.67,0.76
		c0.08,0.06,0.19,0.07,0.28,0.01c0.09-0.06,0.13-0.16,0.1-0.26c-0.12-0.45-0.31-1.7,0.31-2.16c0.9-0.66,2.28-0.78,3.13-0.69
		c0.89,0.1,1.5,0.9,1.5,0.91c0.06,0.08,0.16,0.11,0.25,0.09c0.09-0.02,0.16-0.1,0.18-0.2c0-0.01,0.1-0.61,1.11-1.42
		c0.15-0.12,0.3-0.23,0.44-0.31c0.86-0.52,1.67-0.45,3,0.26c1.55,0.83,8.05,14.15,8.11,18.47c0.04,3.07-3.43,7.31-8.45,10.32
		C29.15,35.82,27.06,36.74,24.93,37.36z"/>
	<path class="st2" d="M10.1,12.52C7.65,8.83,4.9,5.19,3.82,0.89c0-0.01,0-0.01,0-0.02C3.03,1.46,2.44,2.79,3.19,4.82
		c1.39,3.73,10.92,18.45,11.93,20c0.14-0.21,0.23-0.46,0.29-0.7c0.42-1.76-0.45-3.54-1.34-5.12C12.83,16.79,11.5,14.63,10.1,12.52z"
		/>
	<path class="st2" d="M29.08,35.74c-0.36,0.08-0.73,0.15-1.09,0.17c-0.73,0.05-1.46-0.05-2.19-0.11c-2.02-0.17-4.18-0.08-5.92-1.11
		c-0.88-0.52-1.58-1.28-2.37-1.93c-2.31-1.9-5.31-2.75-8.26-3.25c-1.55-0.26-3.13-0.44-4.6-1.01c-1.22-0.47-2.38-1.27-3.06-2.37
		c-0.93,0.72-1.34,1.65-0.98,2.3c0.7,1.25,4.7,2.6,10.98,3.69c1.62,0.28,3.01,1.37,4.48,2.52c2.41,1.89,4.91,3.85,8.87,2.7
		C26.33,36.95,27.72,36.41,29.08,35.74z"/>
	<path class="st2" d="M17.26,9.1c-0.35,0.12-0.69,0.27-1.01,0.46c-0.33,0.2-0.6,0.42-0.81,0.66c-0.75,0.88,0.08,3.16,0.47,3.96
		c0.06,0.12,0,0.25-0.1,0.31c-0.04,0.02-0.08,0.03-0.13,0.02c0.28,0.4,0.62,0.77,0.99,1.09c0.45-0.19,0.69-0.72,0.69-1.21
		c0-0.49-0.17-0.96-0.31-1.44c-0.22-0.76-0.35-1.55-0.27-2.33C16.83,10.09,16.99,9.56,17.26,9.1z"/>
	<path class="st2" d="M22.57,9.25c-0.14-0.57-0.18-1.18-0.01-1.74c0.09-0.31,0.27-0.61,0.5-0.84c-0.42,0.11-0.83,0.29-1.17,0.54
		c-0.62,0.46-0.44,1.72-0.31,2.16c0.02,0.09,0,0.17-0.07,0.23c0.24,0.44,0.55,0.85,0.93,1.18C22.86,10.43,22.7,9.77,22.57,9.25z"/>
	<path class="st2" d="M28.5,5.56c-0.14,0.09-0.29,0.19-0.44,0.31c-1.01,0.81-1.11,1.42-1.11,1.42c-0.01,0.08-0.07,0.15-0.14,0.18
		c0.2,0.49,0.53,0.92,0.98,1.21c0.09,0.06,0.2,0.12,0.31,0.1c0.19-0.03,0.27-0.25,0.3-0.44c0.11-0.73-0.01-1.48,0.12-2.21
		c0.04-0.24,0.12-0.48,0.24-0.71C28.66,5.48,28.58,5.52,28.5,5.56z"/>
</g>
</svg>
