<?xml version="1.0" encoding="utf-8"?>
<!-- Generator: Adobe Illustrator 24.1.1, SVG Export Plug-In . SVG Version: 6.00 Build 0)  -->
<svg version="1.1" id="Layer_1" xmlns="http://www.w3.org/2000/svg" xmlns:xlink="http://www.w3.org/1999/xlink" x="0px" y="0px"
	 viewBox="0 0 31.56 31.09" style="enable-background:new 0 0 31.56 31.09;" xml:space="preserve">
<style type="text/css">
	.st0{fill:none;stroke:#000000;stroke-width:0.25;stroke-miterlimit:10;}
	.st1{fill:#EF1414;stroke:#000000;stroke-width:0.25;stroke-miterlimit:10;}
	.st2{fill:#FFFDFD;stroke:#000000;stroke-width:0.25;stroke-miterlimit:10;}
	.st3{stroke:#000000;stroke-width:0.25;stroke-miterlimit:10;}
</style>
<g>
	<g>
		<polyline class="st0" points="25.99,18.35 24.68,16.38 24.64,16.3 21.9,16.3 21.79,16.3 19.39,17.83 		"/>
		<polyline class="st0" points="25.47,21.67 24.93,19.37 24.92,19.28 22.36,18.32 22.26,18.29 19.47,18.88 		"/>
		<polyline class="st0" points="23.54,24.97 23.78,22.62 23.8,22.53 21.69,20.8 21.6,20.73 18.77,20.38 		"/>
		<polyline class="st0" points="22.23,26.94 22.47,24.59 22.49,24.5 20.38,22.76 20.29,22.69 17.46,22.35 		"/>
	</g>
	<g>
		<polyline class="st0" points="5.22,18.35 6.53,16.38 6.57,16.3 9.3,16.3 9.41,16.3 11.82,17.83 		"/>
		<polyline class="st0" points="5.74,21.67 6.28,19.37 6.29,19.28 8.85,18.32 8.95,18.29 11.74,18.88 		"/>
		<polyline class="st0" points="7.67,24.97 7.43,22.62 7.41,22.53 9.52,20.8 9.6,20.73 12.43,20.38 		"/>
		<polyline class="st0" points="8.98,26.94 8.74,24.59 8.72,24.5 10.83,22.76 10.91,22.69 13.74,22.35 		"/>
	</g>
	<g>
		<path class="st1" d="M19.16,17.27l-0.86-1.85c0,0,2.41-1.31,2.84-3.06c0.15-0.6,2.41-0.66,2.41-0.66s-0.22,1.97-1.09,3.06
			C21.8,15.58,19.16,17.27,19.16,17.27z"/>
		<g>
			<path class="st1" d="M21.47,1c-0.33,0-0.98,0.22-0.98,0.22l0.87,6.34l-4.11-1.62c-0.02,0.24-0.04,0.49-0.04,0.74
				c0,3.14,1.91,5.68,4.26,5.68s4.26-2.55,4.26-5.68C25.73,3.54,23.82,1,21.47,1z"/>
			<path class="st1" d="M17.24,5.94L17.24,5.94c0.01-0.02,0.01-0.03,0.01-0.05C17.24,5.92,17.24,5.94,17.24,5.94z"/>
			<path class="st1" d="M17.59,4.32"/>
		</g>
	</g>
	<g>
		<path class="st1" d="M11.7,17.2l0.86-1.85c0,0-2.41-1.31-2.84-3.06c-0.15-0.6-2.41-0.66-2.41-0.66s0.22,1.97,1.09,3.06
			C9.06,15.51,11.7,17.2,11.7,17.2z"/>
		<g>
			<path class="st1" d="M9.39,0.92c0.33,0,0.98,0.22,0.98,0.22L9.5,7.48l4.11-1.62c0.02,0.24,0.04,0.49,0.04,0.74
				c0,3.14-1.91,5.68-4.26,5.68S5.13,9.75,5.13,6.61C5.13,3.47,7.04,0.92,9.39,0.92z"/>
			<path class="st1" d="M13.62,5.87L13.62,5.87c-0.01-0.02-0.01-0.03-0.01-0.05C13.62,5.85,13.62,5.87,13.62,5.87z"/>
			<path class="st1" d="M13.27,4.25"/>
		</g>
	</g>
	<path class="st1" d="M13.92,14.11c0.13-0.27,0.02-1.16,0-1.3c0-0.01,0-0.02-0.01-0.03l-0.22-1.73c-0.07-0.33-0.22-1.53,0.66-0.66
		c0,0,0.21,0.01,0.39,0.02c0.16,0,0.31-0.06,0.42-0.17l0.5-0.5c0.21-0.1,0.46,0.66,1.09,0.66c0.22,0,0.58-0.32,0.66-0.44
		c0.3-0.45,0.4,0.2,0.43,0.6c0.01,0.12-0.01,0.32-0.04,0.44l-0.16,0.65c-0.01,0.04-0.02,0.09-0.02,0.13v1.19
		c0,0.04,0,0.08,0.01,0.11c0.06,0.26,0.29,1.32,0.43,1.69c0.17,0.46,0.7,1.29,0.87,1.75c0.66,1.75,0.66,2.62,0,3.94
		c-0.11,0.22-0.37,0.85-0.53,1.23c-0.09,0.22-0.16,0.45-0.21,0.69c-0.12,0.61-0.28,1.77,0.08,2.02c3.5,2.41,1.88,3.91,1.31,4.15
		c-0.72,0.31-1.4,0.13-1.91-0.14c-0.36-0.19-0.79,0.07-0.8,0.48c0,0.24-0.04,0.45-0.14,0.54c-0.46,0.46-2.19,0.87-2.62,0
		c-0.11-0.22-0.15-0.46-0.16-0.7c-0.01-0.38-0.4-0.63-0.75-0.48c-0.68,0.29-1.58,0.37-2.16-0.78c-0.44-0.88,0.59-1.75,1.32-2.24
		c0.4-0.27,0.65-0.72,0.65-1.2v0c0-0.76-0.18-1.5-0.51-2.18l-0.53-1.06c-0.05-0.32-0.71-2.29-0.24-3.94
		c0.27-0.96,0.73-1.45,0.73-1.45c0.2-0.24,0.44-0.46,0.7-0.64C13.48,14.56,13.83,14.3,13.92,14.11z"/>
	<g>
		<circle class="st2" cx="13.05" cy="13.24" r="1.97"/>
		<circle class="st3" cx="13.49" cy="12.8" r="1.09"/>
	</g>
	<g>
		<circle class="st2" cx="17.2" cy="13.24" r="1.97"/>
		<circle class="st3" cx="17.64" cy="12.8" r="1.09"/>
	</g>
	<polygon class="st1" points="12.83,22.66 18.2,22.49 18.14,24.17 13.05,24.17 	"/>
	<path class="st0" d="M17.2,10.18c9.84-8.31,11.59,1.75,8.31,4.37"/>
	<path class="st0" d="M14.36,10.4C4.08,1.43,2.77,10.18,4.08,12.36"/>
</g>
</svg>
