<?xml version="1.0" encoding="utf-8"?>
<!-- Generator: Adobe Illustrator 24.1.1, SVG Export Plug-In . SVG Version: 6.00 Build 0)  -->
<svg version="1.1" id="Layer_1" xmlns="http://www.w3.org/2000/svg" xmlns:xlink="http://www.w3.org/1999/xlink" x="0px" y="0px"
	 viewBox="0 0 31.56 31.09" style="enable-background:new 0 0 31.56 31.09;" xml:space="preserve">
<style type="text/css">
	.st0{opacity:0.5;}
	.st1{fill:none;stroke:#000000;stroke-width:0.25;stroke-miterlimit:10;}
	.st2{fill:#EF1414;stroke:#000000;stroke-width:0.25;stroke-miterlimit:10;}
	.st3{fill:#FFFDFD;stroke:#000000;stroke-width:0.25;stroke-miterlimit:10;}
	.st4{stroke:#000000;stroke-width:0.25;stroke-miterlimit:10;}
</style>
<g class="st0">
	<g>
		<polyline class="st1" points="26.12,18.16 24.81,16.19 24.77,16.11 22.04,16.11 21.93,16.11 19.52,17.64 		"/>
		<polyline class="st1" points="25.6,21.48 25.06,19.18 25.05,19.09 22.49,18.13 22.39,18.09 19.6,18.69 		"/>
		<polyline class="st1" points="23.67,24.78 23.91,22.43 23.93,22.34 21.82,20.61 21.74,20.54 18.91,20.19 		"/>
		<polyline class="st1" points="22.36,26.75 22.6,24.4 22.62,24.31 20.51,22.57 20.43,22.5 17.6,22.16 		"/>
	</g>
	<g>
		<polyline class="st1" points="5.35,18.16 6.66,16.19 6.7,16.11 9.44,16.11 9.55,16.11 11.95,17.64 		"/>
		<polyline class="st1" points="5.87,21.48 6.41,19.18 6.42,19.09 8.98,18.13 9.08,18.09 11.87,18.69 		"/>
		<polyline class="st1" points="7.8,24.78 7.56,22.43 7.54,22.34 9.65,20.61 9.74,20.54 12.57,20.19 		"/>
		<polyline class="st1" points="9.11,26.75 8.87,24.4 8.85,24.31 10.96,22.57 11.05,22.5 13.88,22.16 		"/>
	</g>
	<g>
		<path class="st2" d="M19.29,17.08l-0.86-1.85c0,0,2.41-1.31,2.84-3.06c0.15-0.6,2.41-0.66,2.41-0.66s-0.22,1.97-1.09,3.06
			C21.94,15.39,19.29,17.08,19.29,17.08z"/>
		<g>
			<path class="st2" d="M21.6,0.81c-0.33,0-0.98,0.22-0.98,0.22l0.87,6.34l-4.11-1.62c-0.02,0.24-0.04,0.49-0.04,0.74
				c0,3.14,1.91,5.68,4.26,5.68s4.26-2.55,4.26-5.68C25.86,3.35,23.95,0.81,21.6,0.81z"/>
			<path class="st2" d="M17.37,5.75L17.37,5.75c0.01-0.02,0.01-0.03,0.01-0.05C17.38,5.73,17.37,5.75,17.37,5.75z"/>
			<path class="st2" d="M17.72,4.13"/>
		</g>
	</g>
	<g>
		<path class="st2" d="M11.84,17.01l0.86-1.85c0,0-2.41-1.31-2.84-3.06c-0.15-0.6-2.41-0.66-2.41-0.66s0.22,1.97,1.09,3.06
			C9.19,15.32,11.84,17.01,11.84,17.01z"/>
		<g>
			<path class="st2" d="M9.53,0.73c0.33,0,0.98,0.22,0.98,0.22L9.64,7.29l4.11-1.62c0.02,0.24,0.04,0.49,0.04,0.74
				c0,3.14-1.91,5.68-4.26,5.68S5.26,9.56,5.26,6.42C5.26,3.28,7.17,0.73,9.53,0.73z"/>
			<path class="st2" d="M13.75,5.68L13.75,5.68c-0.01-0.02-0.01-0.03-0.01-0.05C13.75,5.66,13.75,5.68,13.75,5.68z"/>
			<path class="st2" d="M13.41,4.06"/>
		</g>
	</g>
	<path class="st2" d="M14.06,13.92c0.13-0.27,0.02-1.16,0-1.3c0-0.01,0-0.02-0.01-0.03l-0.22-1.73c-0.07-0.33-0.22-1.53,0.66-0.66
		c0,0,0.21,0.01,0.39,0.02c0.16,0,0.31-0.06,0.42-0.17l0.5-0.5c0.21-0.1,0.46,0.66,1.09,0.66c0.22,0,0.58-0.32,0.66-0.44
		c0.3-0.45,0.4,0.2,0.43,0.6c0.01,0.12-0.01,0.32-0.04,0.44l-0.16,0.65c-0.01,0.04-0.02,0.09-0.02,0.13v1.19
		c0,0.04,0,0.08,0.01,0.11c0.06,0.26,0.29,1.32,0.43,1.69c0.17,0.46,0.7,1.29,0.87,1.75c0.66,1.75,0.66,2.62,0,3.94
		c-0.11,0.22-0.37,0.85-0.53,1.23c-0.09,0.22-0.16,0.45-0.21,0.69c-0.12,0.61-0.28,1.77,0.08,2.02c3.5,2.41,1.88,3.91,1.31,4.15
		c-0.72,0.31-1.4,0.13-1.91-0.14c-0.36-0.19-0.79,0.07-0.8,0.48c0,0.24-0.04,0.45-0.14,0.54c-0.46,0.46-2.19,0.87-2.62,0
		c-0.11-0.22-0.15-0.46-0.16-0.7c-0.01-0.38-0.4-0.63-0.75-0.48c-0.68,0.29-1.58,0.37-2.16-0.78c-0.44-0.88,0.59-1.75,1.32-2.24
		c0.4-0.27,0.65-0.72,0.65-1.2v0c0-0.76-0.18-1.5-0.51-2.18l-0.53-1.06c-0.05-0.32-0.71-2.29-0.24-3.94
		c0.27-0.96,0.73-1.45,0.73-1.45c0.2-0.24,0.44-0.46,0.7-0.64C13.61,14.37,13.97,14.11,14.06,13.92z"/>
	<g>
		<circle class="st3" cx="13.18" cy="13.05" r="1.97"/>
		<circle class="st4" cx="13.62" cy="12.61" r="1.09"/>
	</g>
	<g>
		<circle class="st3" cx="17.34" cy="13.05" r="1.97"/>
		<circle class="st4" cx="17.77" cy="12.61" r="1.09"/>
	</g>
	<polygon class="st2" points="12.96,22.47 18.33,22.3 18.28,23.98 13.18,23.98 	"/>
	<path class="st1" d="M17.34,9.99c9.84-8.31,11.59,1.75,8.31,4.37"/>
	<path class="st1" d="M14.49,10.21C4.22,1.24,2.91,9.99,4.22,12.17"/>
</g>
</svg>
