<?xml version="1.0" encoding="utf-8"?>
<!-- Generator: Adobe Illustrator 24.1.1, SVG Export Plug-In . SVG Version: 6.00 Build 0)  -->
<svg version="1.1" id="Layer_1" xmlns="http://www.w3.org/2000/svg" xmlns:xlink="http://www.w3.org/1999/xlink" x="0px" y="0px"
	 viewBox="0 0 402.86 402.86" style="enable-background:new 0 0 402.86 402.86;" xml:space="preserve">
<style type="text/css">
	.st0{fill:#BA656D;}
	.st1{fill:#FFFFFF;}
	.st2{opacity:0.18;}
	.st3{opacity:0.05;}
</style>
<g>
	<g>
		<path class="st0" d="M87.69,237.74l-82.75,8.23c16.96,75.15,75.92,134.38,150.92,151.72l9.37-82.48
			C128.47,303.52,99.42,274.5,87.69,237.74z"/>
		<path class="st0" d="M314.95,164.45l82.59-9.19C380.16,81.17,321.89,22.84,247.83,5.38l-6.57,83.5
			C276.09,101.2,303.48,129.23,314.95,164.45z"/>
		<path class="st0" d="M161.51,88.91l-6.51-83.53C81.27,22.78,23.2,80.69,5.55,154.33l82.91,8.48
			C100.22,128.38,127.28,101.06,161.51,88.91z"/>
		<path class="st0" d="M237.4,315.28l9.53,82.43c74.96-17.31,133.9-76.46,150.93-151.52l-82.37-9.47
			C303.97,274.03,274.63,303.53,237.4,315.28z"/>
		<path class="st1" d="M201.43,320.8c-12.62,0-24.77-1.96-36.18-5.59l-9.37,82.48c14.64,3.38,29.89,5.17,45.56,5.17
			c15.65,0,30.88-1.78,45.5-5.16l-9.53-82.43C226.05,318.86,213.97,320.8,201.43,320.8z"/>
		<path class="st1" d="M201.43,82.06c13.97,0,27.37,2.41,39.83,6.81l6.57-83.5C232.93,1.87,217.4,0,201.43,0
			c-15.98,0-31.52,1.87-46.42,5.39l6.51,83.53C174,84.48,187.43,82.06,201.43,82.06z"/>
		<path class="st1" d="M397.54,155.26l-82.59,9.19c3.79,11.64,5.85,24.07,5.85,36.98c0,12.28-1.86,24.13-5.3,35.28l82.37,9.47
			c3.26-14.39,5-29.37,5-44.75C402.86,185.54,401.02,170.09,397.54,155.26z"/>
		<path class="st1" d="M82.06,201.43c0-13.52,2.25-26.51,6.39-38.63l-82.91-8.48C1.93,169.44,0,185.21,0,201.43
			c0,15.3,1.72,30.21,4.95,44.53l82.75-8.23C84.04,226.29,82.06,214.09,82.06,201.43z"/>
	</g>
	<path class="st2" d="M315.5,236.71l82.37,9.47c0,0-0.46,2.69-1.22,5.3l-81.7-13.05L315.5,236.71z"/>
	<path class="st2" d="M165.16,315.03l-9.41,82.38c0,0-2.69-0.46-5.3-1.21l12.99-81.71L165.16,315.03z"/>
	<path class="st2" d="M88.53,162.88l-82.95-8.28c0,0,0.42-2.77,1.13-5.46l82.34,11.96L88.53,162.88z"/>
	<path class="st2" d="M241.26,88.88l6.7-83.52c0,0,2.73,0.76,5.44,1.42l-10.46,82.71L241.26,88.88z"/>
	<g class="st3">
		<path d="M201.4,40.81c-87.88,0-159.11,71.24-159.11,159.11c0,87.88,71.24,159.11,159.11,159.11s159.11-71.24,159.11-159.11
			C360.52,112.05,289.28,40.81,201.4,40.81z M320.77,199.92c0,12.28-1.86,24.13-5.3,35.28c-11.53,37.32-40.87,66.82-78.09,78.57
			c-11.35,3.58-23.44,5.52-35.97,5.52c-12.62,0-24.77-1.96-36.18-5.59c-0.04-0.01-0.07-0.02-0.11-0.04l0.02-0.14l-1.72-0.55
			l-0.02,0.11c-35.91-12.06-64.19-40.71-75.72-76.86c-3.65-11.45-5.63-23.65-5.63-36.31c0-13.49,2.24-26.46,6.37-38.56l0.1,0.01
			l0.45-1.54c12.03-33.73,38.78-60.46,72.53-72.43c12.48-4.43,25.92-6.85,39.92-6.85c13.97,0,27.37,2.41,39.83,6.81
			c34.83,12.32,62.23,40.35,73.69,75.57C318.71,174.59,320.77,187.01,320.77,199.92z"/>
	</g>
</g>
</svg>
