<?xml version="1.0" encoding="utf-8"?>
<!-- Generator: Adobe Illustrator 24.1.1, SVG Export Plug-In . SVG Version: 6.00 Build 0)  -->
<svg version="1.1" id="Layer_1" xmlns="http://www.w3.org/2000/svg" xmlns:xlink="http://www.w3.org/1999/xlink" x="0px" y="0px"
	 viewBox="0 0 194.38 163.92" style="enable-background:new 0 0 194.38 163.92;" xml:space="preserve">
<style type="text/css">
	.st0{fill:#362A2B;}
	.st1{fill:#1D1715;}
	.st2{fill:#DADADA;}
	.st3{fill:#EDEDED;}
	.st4{fill:#C6C6C6;}
	.st5{fill:#3C3C3B;}
	.st6{fill:#1D1D1B;}
	.st7{fill:#575756;}
	.st8{fill:#6AD3D3;}
	.st9{opacity:0.75;fill:#FFFFFF;}
	.st10{fill:#706F6F;}
	.st11{fill:#9D9D9C;}
	.st12{fill:#F9B233;}
	.st13{fill:#0CAABA;}
	.st14{fill:#0A776C;}
	.st15{fill:#16191E;}
	.st16{opacity:0.15;}
</style>
<g>
	<g>
		<g>
			<g>
				<path class="st0" d="M14.22,132.23c-0.02,6.35,5.12,11.51,11.48,11.53c6.35,0.02,11.51-5.12,11.53-11.47
					c0.02-6.35-5.12-11.52-11.47-11.53C19.4,120.74,14.23,125.88,14.22,132.23z"/>
				<path class="st1" d="M0.93,132.22c-0.02,13.69,11.06,24.81,24.75,24.83c13.69,0.02,24.81-11.06,24.83-24.75
					c0.02-13.69-11.06-24.81-24.75-24.83C12.07,107.45,0.95,118.53,0.93,132.22z M10.46,132.23c0.02-8.43,6.86-15.25,15.29-15.24
					c8.43,0.01,15.25,6.86,15.24,15.28c-0.01,8.43-6.86,15.25-15.28,15.24C17.27,147.51,10.45,140.66,10.46,132.23z"/>
				<g>
					<path class="st2" d="M10.51,132.23c-0.01,8.4,6.79,15.23,15.19,15.24c8.4,0.01,15.22-6.79,15.24-15.19
						c0.01-8.4-6.79-15.22-15.19-15.24C17.34,117.03,10.52,123.83,10.51,132.23z M12.15,132.23c0.01-7.49,6.1-13.56,13.59-13.54
						c7.49,0.01,13.56,6.09,13.55,13.59c-0.01,7.49-6.09,13.56-13.59,13.55C18.21,145.81,12.14,139.73,12.15,132.23z"/>
					<path class="st3" d="M16.4,132.24c-0.01,5.15,4.16,9.33,9.31,9.34c5.15,0.01,9.33-4.16,9.34-9.31
						c0.01-5.15-4.16-9.33-9.31-9.34C20.59,122.92,16.4,127.09,16.4,132.24z M19.86,132.25c0.01-3.24,2.64-5.86,5.87-5.85
						c3.24,0.01,5.86,2.63,5.85,5.87c-0.01,3.23-2.63,5.86-5.87,5.85C22.47,138.11,19.85,135.49,19.86,132.25z"/>
					<g>
						<path class="st4" d="M19.86,132.25c-0.01,3.24,2.62,5.86,5.85,5.87c3.24,0.01,5.86-2.62,5.87-5.85
							c0.01-3.24-2.62-5.87-5.85-5.87C22.5,126.39,19.87,129.01,19.86,132.25z M23.48,130.01c-0.33,0.33-0.85,0.32-1.18,0
							c-0.33-0.33-0.33-0.86,0-1.18c0.33-0.33,0.86-0.32,1.18,0C23.81,129.15,23.81,129.68,23.48,130.01z M26.22,128.66
							c0,0.27-0.22,0.49-0.49,0.49c-0.27,0-0.49-0.22-0.49-0.49c0-0.27,0.22-0.49,0.49-0.49C26,128.17,26.22,128.39,26.22,128.66z
							 M29.15,130.02c-0.33,0.33-0.86,0.32-1.19,0c-0.33-0.33-0.33-0.86,0-1.18c0.33-0.33,0.86-0.32,1.19,0
							C29.48,129.16,29.48,129.69,29.15,130.02z M29.32,132.75c-0.27,0-0.49-0.22-0.49-0.49c0-0.27,0.22-0.49,0.49-0.49
							c0.27,0,0.49,0.22,0.48,0.49C29.81,132.53,29.59,132.75,29.32,132.75z M27.96,134.51c0.33-0.33,0.86-0.33,1.18,0
							c0.33,0.33,0.33,0.86,0,1.18c-0.33,0.33-0.86,0.33-1.18,0C27.63,135.36,27.63,134.83,27.96,134.51z M25.23,135.86
							c0-0.27,0.22-0.49,0.49-0.49c0.27,0,0.49,0.22,0.49,0.49c0,0.27-0.22,0.49-0.49,0.49C25.44,136.35,25.23,136.13,25.23,135.86z
							 M23.5,132.25c0-1.23,1-2.22,2.23-2.22c1.23,0,2.22,1,2.22,2.23c0,1.23-1,2.23-2.23,2.23
							C24.49,134.48,23.49,133.48,23.5,132.25z M22.29,134.49c0.33-0.33,0.86-0.33,1.19,0c0.33,0.33,0.33,0.86,0,1.18
							c-0.33,0.33-0.86,0.33-1.19,0C21.96,135.35,21.96,134.82,22.29,134.49z M21.63,132.25c0-0.27,0.22-0.49,0.49-0.49
							c0.27,0,0.49,0.22,0.49,0.49c0,0.27-0.22,0.49-0.49,0.49C21.85,132.74,21.63,132.52,21.63,132.25z"/>
					</g>
					<path class="st4" d="M12.15,132.23c-0.01,7.49,6.05,13.58,13.55,13.59c7.49,0.01,13.57-6.05,13.59-13.55
						c0.01-7.49-6.05-13.58-13.55-13.59C18.25,118.68,12.17,124.74,12.15,132.23z M17.1,127.26c-0.35,0.62-1.22,0.77-1.94,0.36
						c-0.71-0.42-1.01-1.25-0.65-1.86c0.36-0.61,1.22-0.77,1.94-0.36C17.17,125.82,17.46,126.65,17.1,127.26z M25.74,122.93
						c5.15,0.01,9.32,4.19,9.31,9.34c-0.01,5.15-4.19,9.32-9.34,9.31c-5.15-0.01-9.32-4.19-9.31-9.34
						C16.4,127.09,20.59,122.92,25.74,122.93z M20.75,123.62c-0.61,0.35-1.44,0.06-1.86-0.66c-0.41-0.72-0.25-1.59,0.37-1.94
						c0.61-0.35,1.45-0.06,1.86,0.66C21.53,122.41,21.37,123.27,20.75,123.62z M27.02,120.8c0,0.83-0.58,1.5-1.29,1.5
						c-0.71,0-1.28-0.67-1.28-1.5c0-0.83,0.58-1.5,1.28-1.5C26.45,119.3,27.02,119.97,27.02,120.8z M32.58,122.99
						c-0.42,0.72-1.25,1.01-1.86,0.65c-0.61-0.36-0.77-1.23-0.36-1.94c0.41-0.72,1.25-1.01,1.86-0.65
						C32.83,121.4,32.99,122.27,32.58,122.99z M36.29,127.66c-0.72,0.41-1.59,0.25-1.94-0.36c-0.35-0.61-0.06-1.45,0.66-1.86
						c0.72-0.41,1.58-0.25,1.94,0.37C37.3,126.41,37.01,127.24,36.29,127.66z M37.18,133.56c-0.83,0-1.5-0.57-1.5-1.28
						c0-0.71,0.67-1.28,1.5-1.28c0.83,0,1.5,0.58,1.5,1.28C38.68,132.99,38.01,133.56,37.18,133.56z M34.34,137.25
						c0.35-0.61,1.22-0.77,1.94-0.35c0.72,0.41,1.01,1.25,0.66,1.86c-0.36,0.61-1.23,0.77-1.94,0.36
						C34.27,138.69,33.98,137.86,34.34,137.25z M30.69,140.89c0.61-0.35,1.45-0.06,1.86,0.66c0.41,0.72,0.25,1.59-0.36,1.94
						c-0.62,0.35-1.45,0.06-1.86-0.66C29.91,142.11,30.07,141.24,30.69,140.89z M24.42,143.71c0-0.83,0.58-1.5,1.29-1.5
						c0.71,0,1.28,0.67,1.28,1.5c0,0.83-0.58,1.5-1.29,1.5C24.99,145.21,24.42,144.54,24.42,143.71z M18.87,141.53
						c0.41-0.71,1.25-1.01,1.86-0.65c0.61,0.35,0.77,1.22,0.36,1.94c-0.41,0.72-1.25,1.01-1.86,0.65
						C18.61,143.11,18.45,142.24,18.87,141.53z M15.15,136.86c0.72-0.41,1.59-0.25,1.94,0.36c0.35,0.61,0.06,1.45-0.66,1.86
						c-0.72,0.41-1.58,0.25-1.94-0.36C14.14,138.1,14.43,137.27,15.15,136.86z M12.77,132.23c0-0.71,0.67-1.28,1.5-1.28
						c0.83,0,1.5,0.58,1.5,1.28c0,0.71-0.67,1.28-1.5,1.28C13.43,133.52,12.76,132.94,12.77,132.23z"/>
				</g>
			</g>
			<rect x="23.97" y="114.12" class="st5" width="25.29" height="19.9"/>
			<circle class="st5" cx="25.72" cy="132.26" r="7.72"/>
			<path class="st6" d="M30.85,132.26c0,2.83-2.3,5.13-5.13,5.13s-5.13-2.3-5.13-5.13s2.3-5.13,5.13-5.13S30.85,129.42,30.85,132.26
				z"/>
			<path class="st7" d="M27.63,132.26c0,1.05-0.85,1.91-1.91,1.91s-1.91-0.85-1.91-1.91c0-1.05,0.85-1.91,1.91-1.91
				S27.63,131.2,27.63,132.26z"/>
			<g>
				<path class="st0" d="M158.09,132.23c-0.02,6.35,5.12,11.51,11.48,11.53c6.35,0.02,11.51-5.12,11.53-11.47
					c0.02-6.35-5.12-11.52-11.47-11.53C163.27,120.74,158.11,125.88,158.09,132.23z"/>
				<path class="st1" d="M144.8,132.22c-0.02,13.69,11.06,24.81,24.75,24.83c13.69,0.02,24.81-11.06,24.83-24.75
					c0.02-13.69-11.06-24.81-24.75-24.83C155.94,107.45,144.83,118.53,144.8,132.22z M154.33,132.23
					c0.02-8.43,6.86-15.25,15.29-15.24c8.43,0.01,15.25,6.86,15.24,15.28c-0.01,8.43-6.86,15.25-15.29,15.24
					C161.14,147.51,154.32,140.66,154.33,132.23z"/>
				<g>
					<path class="st2" d="M154.38,132.23c-0.01,8.4,6.79,15.23,15.19,15.24c8.4,0.01,15.22-6.79,15.24-15.19
						c0.01-8.4-6.79-15.22-15.19-15.24C161.22,117.03,154.39,123.83,154.38,132.23z M156.03,132.23c0.01-7.49,6.1-13.56,13.59-13.54
						c7.49,0.01,13.56,6.09,13.55,13.59c-0.01,7.49-6.09,13.56-13.59,13.55C162.08,145.81,156.01,139.73,156.03,132.23z"/>
					<path class="st3" d="M160.27,132.24c-0.01,5.15,4.16,9.33,9.31,9.34c5.15,0.01,9.33-4.16,9.34-9.31
						c0.01-5.15-4.16-9.33-9.31-9.34C164.46,122.92,160.27,127.09,160.27,132.24z M163.73,132.25c0.01-3.24,2.64-5.86,5.87-5.85
						c3.24,0.01,5.86,2.63,5.85,5.87c-0.01,3.23-2.63,5.86-5.87,5.85C166.35,138.11,163.72,135.49,163.73,132.25z"/>
					<g>
						<path class="st4" d="M163.73,132.25c-0.01,3.24,2.62,5.86,5.85,5.87c3.24,0.01,5.86-2.62,5.87-5.85
							c0.01-3.24-2.62-5.87-5.85-5.87C166.37,126.39,163.74,129.01,163.73,132.25z M167.35,130.01c-0.33,0.33-0.85,0.32-1.18,0
							c-0.33-0.33-0.33-0.86,0-1.18c0.33-0.33,0.86-0.32,1.18,0C167.68,129.15,167.68,129.68,167.35,130.01z M170.09,128.66
							c0,0.27-0.22,0.49-0.49,0.49c-0.27,0-0.49-0.22-0.49-0.49c0-0.27,0.22-0.49,0.49-0.49
							C169.87,128.17,170.09,128.39,170.09,128.66z M173.02,130.02c-0.33,0.33-0.86,0.32-1.19,0c-0.33-0.33-0.33-0.86,0-1.18
							c0.33-0.33,0.86-0.32,1.19,0C173.35,129.16,173.35,129.69,173.02,130.02z M173.19,132.75c-0.27,0-0.49-0.22-0.49-0.49
							c0-0.27,0.22-0.49,0.49-0.49c0.27,0,0.49,0.22,0.48,0.49C173.68,132.53,173.46,132.75,173.19,132.75z M171.83,134.51
							c0.33-0.33,0.86-0.33,1.18,0c0.33,0.33,0.33,0.86,0,1.18c-0.33,0.33-0.86,0.33-1.18,0
							C171.5,135.36,171.51,134.83,171.83,134.51z M169.1,135.86c0-0.27,0.22-0.49,0.49-0.49c0.27,0,0.49,0.22,0.49,0.49
							c0,0.27-0.22,0.49-0.49,0.49C169.32,136.35,169.1,136.13,169.1,135.86z M167.37,132.25c0-1.23,1-2.22,2.23-2.22
							c1.23,0,2.22,1,2.22,2.23c0,1.23-1,2.23-2.23,2.23C168.36,134.48,167.36,133.48,167.37,132.25z M166.16,134.49
							c0.33-0.33,0.86-0.33,1.18,0c0.33,0.33,0.33,0.86,0,1.18c-0.33,0.33-0.86,0.33-1.19,0
							C165.83,135.35,165.83,134.82,166.16,134.49z M165.5,132.25c0-0.27,0.22-0.49,0.49-0.49c0.27,0,0.49,0.22,0.49,0.49
							c0,0.27-0.22,0.49-0.49,0.49C165.72,132.74,165.5,132.52,165.5,132.25z"/>
					</g>
					<path class="st4" d="M156.03,132.23c-0.01,7.49,6.05,13.58,13.55,13.59c7.49,0.01,13.58-6.05,13.59-13.55
						c0.01-7.49-6.05-13.58-13.55-13.59C162.12,118.68,156.04,124.74,156.03,132.23z M160.98,127.26c-0.35,0.62-1.22,0.77-1.94,0.36
						c-0.71-0.42-1.01-1.25-0.65-1.86c0.36-0.61,1.22-0.77,1.94-0.36C161.04,125.82,161.33,126.65,160.98,127.26z M169.61,122.93
						c5.15,0.01,9.32,4.19,9.31,9.34c-0.01,5.15-4.19,9.32-9.34,9.31c-5.15-0.01-9.32-4.19-9.31-9.34
						C160.27,127.09,164.46,122.92,169.61,122.93z M164.63,123.62c-0.61,0.35-1.44,0.06-1.86-0.66c-0.41-0.72-0.25-1.59,0.37-1.94
						c0.61-0.35,1.45-0.06,1.86,0.66C165.41,122.41,165.24,123.27,164.63,123.62z M170.89,120.8c0,0.83-0.58,1.5-1.29,1.5
						c-0.71,0-1.28-0.67-1.28-1.5c0-0.83,0.57-1.5,1.28-1.5C170.32,119.3,170.89,119.97,170.89,120.8z M176.45,122.99
						c-0.42,0.72-1.25,1.01-1.86,0.65c-0.61-0.36-0.77-1.23-0.36-1.94c0.41-0.72,1.25-1.01,1.86-0.65
						C176.7,121.4,176.86,122.27,176.45,122.99z M180.16,127.66c-0.72,0.41-1.59,0.25-1.94-0.36c-0.35-0.61-0.05-1.45,0.66-1.86
						c0.72-0.41,1.58-0.25,1.94,0.37C181.18,126.41,180.88,127.24,180.16,127.66z M181.05,133.56c-0.83,0-1.5-0.57-1.5-1.28
						c0-0.71,0.67-1.28,1.5-1.28c0.83,0,1.5,0.58,1.5,1.28C182.55,132.99,181.88,133.56,181.05,133.56z M178.21,137.25
						c0.35-0.61,1.22-0.77,1.94-0.35c0.72,0.41,1.01,1.25,0.66,1.86c-0.36,0.61-1.23,0.77-1.94,0.36
						C178.15,138.69,177.85,137.86,178.21,137.25z M174.56,140.89c0.61-0.35,1.45-0.06,1.86,0.66c0.41,0.72,0.25,1.59-0.36,1.94
						c-0.62,0.35-1.45,0.06-1.86-0.66C173.78,142.11,173.94,141.24,174.56,140.89z M168.29,143.71c0-0.83,0.58-1.5,1.29-1.5
						s1.28,0.67,1.28,1.5c0,0.83-0.58,1.5-1.29,1.5C168.86,145.21,168.29,144.54,168.29,143.71z M162.74,141.53
						c0.41-0.71,1.25-1.01,1.86-0.65c0.61,0.35,0.77,1.22,0.36,1.94c-0.41,0.72-1.25,1.01-1.86,0.65
						C162.48,143.11,162.32,142.24,162.74,141.53z M159.02,136.86c0.72-0.41,1.58-0.25,1.94,0.36c0.35,0.61,0.06,1.45-0.66,1.86
						c-0.72,0.41-1.58,0.25-1.94-0.36C158.01,138.1,158.31,137.27,159.02,136.86z M156.64,132.23c0-0.71,0.67-1.28,1.5-1.28
						c0.83,0,1.5,0.58,1.5,1.28c0,0.71-0.68,1.28-1.5,1.28C157.3,133.52,156.64,132.94,156.64,132.23z"/>
				</g>
			</g>
			<g>
				
					<rect x="158.88" y="97.44" transform="matrix(0.9089 -0.417 0.417 0.9089 -33.4827 78.0907)" class="st1" width="6.22" height="36.48"/>
			</g>
			<path class="st8" d="M143.08,127.98c1.03,1.27,2.9,1.36,4.02,0.21c10.57-10.81,24.42-16.48,41.1-17.71
				c2.08-0.15,3.18-2.59,1.84-4.18c-7.7-9.16-19.33-13.8-34.42-14.46L143.08,127.98z"/>
			<path class="st9" d="M182.36,107.36c1.32-0.18,1.83-1.8,0.83-2.63c-6.18-5.18-14.42-8.14-24.98-8.98l-0.93,2.67
				c9.99,0.71,17.88,3.55,23.91,8.61C181.52,107.29,181.94,107.41,182.36,107.36z"/>
			<g>
				<path class="st10" d="M126.54,33.07c-0.28,0-0.53-0.19-0.6-0.47l-6.51-25.09c-0.08-0.33,0.11-0.67,0.45-0.76
					c0.33-0.09,0.67,0.11,0.76,0.45l6.51,25.09c0.08,0.33-0.11,0.67-0.45,0.76C126.64,33.07,126.59,33.07,126.54,33.07z"/>
			</g>
			<g>
				<path class="st10" d="M115.59,7.98c-0.02,4.41,1.59,7.98,3.59,7.98s3.64-3.57,3.66-7.98c0.02-4.41-1.59-7.98-3.59-7.98
					C117.25,0,115.61,3.57,115.59,7.98z"/>
				<path class="st11" d="M114.95,7.98c-0.02,4.41,1.59,7.98,3.59,7.98c2,0,3.64-3.57,3.66-7.98c0.02-4.41-1.59-7.98-3.59-7.98
					C116.61,0,114.97,3.57,114.95,7.98z"/>
				<path class="st2" d="M118.54,15.34c-0.35,0-0.71-0.18-1.06-0.53c-1.18-1.18-1.93-3.86-1.92-6.83c0.02-4.34,1.62-7.36,3.04-7.36
					c0.35,0,0.71,0.18,1.06,0.53c1.18,1.18,1.93,3.86,1.92,6.83C121.57,12.32,119.97,15.34,118.54,15.34z"/>
			</g>
			<ellipse class="st12" cx="138" cy="39.41" rx="2.76" ry="6.64"/>
			<rect x="10.44" y="81.22" class="st8" width="32.33" height="17.1"/>
			<polygon class="st4" points="10.44,97.69 7.03,96.91 7.03,82.01 10.44,81.22 			"/>
			<path class="st13" d="M159.04,76.11l-26.02-35.89l-8.5,3.73l11.01,31.39c3.72,10.59,3.22,22.21-1.39,32.45l-5.16,11.47
				c-1,2.23-3.23,3.67-5.68,3.67H92.38c-12.83,0.05-13.01-25.72,0-42.59l-60.8-4.88L10.51,97.13l1.65,23.62l32.96,14.88h76.49h7.18
				c5.74,0,11.1-2.87,14.29-7.65l16.5-24.8C165.07,94.93,164.86,84.13,159.04,76.11z"/>
			<path class="st14" d="M134.65,121.81l5.16-11.47c5.28-11.75,5.85-24.91,1.58-37.06l-7.41-21.14l-0.96-11.92l-8.5,3.73
				l11.01,31.39c3.72,10.59,3.22,22.21-1.39,32.45l-5.16,11.47c-1,2.23-3.23,3.67-5.68,3.67H92.38c-12.83,0.05-13.01-25.72,0-42.59
				l-63.52-2.08l-3.14,3.23l56.09,4.24c-5.79,11.99-7.15,25.82-2.78,34.71c2.34,4.75,6.25,7.76,10.94,8.51h35.42
				C129.42,128.26,132.93,125.62,134.65,121.81z"/>
			<path class="st8" d="M3.57,115.38l48.41,10.51c7.87,1.71,15.51-3.71,16.5-11.7l1.51-12.17c1.14-9.21-7.02-16.87-16.14-15.14
				l-41.22,7.78C5.3,96.03,0,102.42,0,109.88v1.08C0,113.08,1.48,114.92,3.57,115.38z"/>
			<path class="st9" d="M11.06,101.11l45.5-7.78c0.69-0.12,1.4-0.18,2.09-0.18c2.17,0,4.27,0.61,6.06,1.69
				c-0.25-0.38-0.53-0.75-0.84-1.11c-1.9-2.15-4.61-3.38-7.44-3.38c-0.63,0-1.26,0.06-1.89,0.18l-41.22,7.78
				c-3.12,0.59-5.75,2.38-7.47,4.83C7.36,102.15,9.13,101.44,11.06,101.11z"/>
			<path class="st15" d="M99.91,66.19h-74.4c-3.12,0-5.65,2.53-5.65,5.65c0,2.86,1.98,5.21,4.69,5.67l16.41,2.83h58.94V66.19z"/>
			<path class="st15" d="M121.61,30.57l1.04,7.09c0,1.69,0.39,3.35,1.15,4.86l1.73,4.34h12.29l1.03-2.12l-0.66-12.05l-3.21-1.27
				L121.61,30.57z"/>
			<polygon class="st11" points="139.52,45.82 137.83,46.85 134.99,31.41 145.04,32.99 138.85,34.77 			"/>
			<ellipse class="st10" cx="113.11" cy="7.98" rx="3.63" ry="7.98"/>
			<ellipse class="st11" cx="113.75" cy="7.98" rx="3.63" ry="7.98"/>
			<g>
				<path class="st10" d="M126.16,33.07c-0.23,0-0.46-0.13-0.57-0.36L114.06,7.62c-0.14-0.31,0-0.68,0.31-0.82
					c0.31-0.14,0.68-0.01,0.82,0.31l11.53,25.09c0.14,0.31,0,0.68-0.31,0.82C126.34,33.05,126.25,33.07,126.16,33.07z"/>
			</g>
			<path class="st1" d="M174.62,132.26c0,2.78-2.25,5.03-5.03,5.03c-2.78,0-5.03-2.25-5.03-5.03c0-2.78,2.25-5.03,5.03-5.03
				C172.37,127.23,174.62,129.48,174.62,132.26z"/>
			<path class="st5" d="M171.77,132.26c0,1.2-0.98,2.18-2.18,2.18c-1.2,0-2.18-0.98-2.18-2.18c0-1.2,0.98-2.18,2.18-2.18
				C170.8,130.08,171.77,131.05,171.77,132.26z"/>
		</g>
		<path class="st16" d="M193.31,158.54c0,2.97-2.41,5.38-5.38,5.38H9.37c-2.97,0-5.38-2.41-5.38-5.38s2.41-5.38,5.38-5.38h178.56
			C190.9,153.16,193.31,155.57,193.31,158.54L193.31,158.54z"/>
	</g>
	<path class="st5" d="M123.63,34.51c0.73,1.81-0.15,3.86-1.96,4.59c-1.81,0.73-3.86-0.15-4.59-1.95c-0.73-1.81,0.15-3.86,1.95-4.59
		C120.85,31.83,122.9,32.71,123.63,34.51z"/>
</g>
</svg>
