<?xml version="1.0" encoding="utf-8"?>
<!-- Generator: Adobe Illustrator 24.1.1, SVG Export Plug-In . SVG Version: 6.00 Build 0)  -->
<svg version="1.1" id="Layer_1" xmlns="http://www.w3.org/2000/svg" xmlns:xlink="http://www.w3.org/1999/xlink" x="0px" y="0px"
	 viewBox="0 0 108.52 75.46" style="enable-background:new 0 0 108.52 75.46;" xml:space="preserve">
<style type="text/css">
	.st0{fill:#231F20;}
	.st1{fill:url(#SVGID_1_);}
	.st2{fill:url(#SVGID_2_);}
	.st3{fill:url(#SVGID_3_);}
	.st4{fill:url(#SVGID_4_);}
	.st5{fill:url(#SVGID_5_);}
	.st6{fill:url(#SVGID_6_);}
	.st7{fill:url(#SVGID_7_);}
	.st8{fill:url(#SVGID_8_);}
	.st9{fill:url(#SVGID_9_);}
	.st10{fill:url(#SVGID_10_);}
	.st11{fill:url(#SVGID_11_);}
	.st12{fill:url(#SVGID_12_);}
	.st13{fill:url(#SVGID_13_);}
	.st14{fill:url(#SVGID_14_);}
	.st15{fill:url(#SVGID_15_);}
	.st16{fill:url(#SVGID_16_);}
	.st17{fill:url(#SVGID_17_);}
	.st18{fill:url(#SVGID_18_);}
	.st19{fill:url(#SVGID_19_);}
	.st20{fill:url(#SVGID_20_);}
	.st21{fill:url(#SVGID_21_);}
	.st22{fill:url(#SVGID_22_);}
	.st23{fill:url(#SVGID_23_);}
	.st24{fill:url(#SVGID_24_);}
	.st25{fill:url(#SVGID_25_);}
	.st26{fill:url(#SVGID_26_);}
	.st27{fill:url(#SVGID_27_);}
	.st28{fill:url(#SVGID_28_);}
	.st29{fill:url(#SVGID_29_);}
	.st30{fill:url(#SVGID_30_);}
	.st31{fill:url(#SVGID_31_);}
	.st32{fill:url(#SVGID_32_);}
	.st33{fill:url(#SVGID_33_);}
	.st34{fill:url(#SVGID_34_);}
	.st35{fill:url(#SVGID_35_);}
	.st36{fill:url(#SVGID_36_);}
	.st37{fill:url(#SVGID_37_);}
	.st38{fill:url(#SVGID_38_);}
	.st39{fill:url(#SVGID_39_);}
	.st40{fill:url(#SVGID_40_);}
	.st41{fill:url(#SVGID_41_);}
	.st42{fill:url(#SVGID_42_);}
	.st43{fill:url(#SVGID_43_);}
	.st44{fill:url(#SVGID_44_);}
	.st45{fill:url(#SVGID_45_);}
	.st46{fill:url(#SVGID_46_);}
	.st47{fill:#512400;}
	.st48{fill:#515254;}
	.st49{opacity:0.4;fill:#515254;}
	.st50{opacity:0.2;fill:#FFFFFF;}
	.st51{fill:url(#SVGID_47_);}
	.st52{fill:url(#SVGID_48_);}
	.st53{fill:url(#SVGID_49_);}
	.st54{fill:url(#SVGID_50_);}
	.st55{fill:url(#SVGID_51_);}
	.st56{fill:url(#SVGID_52_);}
	.st57{fill:url(#SVGID_53_);}
	.st58{fill:url(#SVGID_54_);}
	.st59{fill:url(#SVGID_55_);}
	.st60{fill:url(#SVGID_56_);}
	.st61{fill:url(#SVGID_57_);}
	.st62{fill:url(#SVGID_58_);}
	.st63{fill:url(#SVGID_59_);}
	.st64{fill:url(#SVGID_60_);}
	.st65{fill:url(#SVGID_61_);}
	.st66{fill:url(#SVGID_62_);}
	.st67{fill:url(#SVGID_63_);}
	.st68{fill:url(#SVGID_64_);}
	.st69{fill:url(#SVGID_65_);}
	.st70{fill:url(#SVGID_66_);}
	.st71{fill:url(#SVGID_67_);}
	.st72{fill:url(#SVGID_68_);}
	.st73{fill:url(#SVGID_69_);}
	.st74{fill:url(#SVGID_70_);}
	.st75{fill:url(#SVGID_71_);}
	.st76{fill:url(#SVGID_72_);}
	.st77{fill:url(#SVGID_73_);}
	.st78{fill:url(#SVGID_74_);}
	.st79{fill:url(#SVGID_75_);}
	.st80{fill:url(#SVGID_76_);}
	.st81{fill:url(#SVGID_77_);}
	.st82{fill:url(#SVGID_78_);}
	.st83{fill:url(#SVGID_79_);}
	.st84{fill:url(#SVGID_80_);}
	.st85{fill:url(#SVGID_81_);}
	.st86{fill:url(#SVGID_82_);}
	.st87{fill:url(#SVGID_83_);}
	.st88{fill:url(#SVGID_84_);}
	.st89{fill:url(#SVGID_85_);}
	.st90{fill:url(#SVGID_86_);}
	.st91{fill:url(#SVGID_87_);}
	.st92{fill:url(#SVGID_88_);}
	.st93{fill:url(#SVGID_89_);}
	.st94{fill:url(#SVGID_90_);}
	.st95{fill:url(#SVGID_91_);}
	.st96{fill:url(#SVGID_92_);}
	.st97{fill:#FFFFFF;}
</style>
<g>
	<path class="st0" d="M4.63,47.43c0.77-2.6,4.12-2.66,6.3-2.38c3.34,0.45,6.57,2.01,9.5,3.57c3.41,1.81,6.62,4,9.8,6.16
		c1.39,0.95,2.8,1.87,4.17,2.82c0.1,0.08-0.03,0.18-0.12,0.12c-3.3-1.84-6.34-4.1-9.54-6.12c-3.31-2.12-6.74-4.04-10.46-5.34
		c-1.38-0.49-2.79-0.85-4.25-0.95c-1.43-0.11-3.09-0.02-4.21,1c-1.09,1-0.98,2.68-0.54,3.98c0.44,1.28,1.33,2.48,2.56,3.13
		c0.29,0.16-0.09,0.44-0.31,0.32C5.41,52.68,3.95,49.74,4.63,47.43z"/>
	<g>
		<g>
			<path class="st0" d="M39.2,59.58c2.58,0,4.31-3.55,5.57-5.33c2.18-3.1,4.69-5.93,7.11-8.85c2.44-2.92,4.72-5.97,7.1-8.92
				c2.08-2.62,4.57-5.48,5.65-8.68c1.99-5.87-2.06-10.8-6.11-14.61c-2.5-2.38-5.24-4.5-7.96-6.63c-2.47-1.93-5.02-4.08-7.89-5.4
				c-2.2-1.01-4.84-1.65-7.19-0.67c-1.92,0.79-3.35,2.39-4.34,4.17c-2.65,4.81-3.2,10.59-3.26,15.97c-0.09,7.09,1.06,14.15,2.8,21
				c0.69,2.76,1.49,5.51,2.35,8.24c0.66,2.04,1.84,6.97,4.16,8.92C37.78,59.27,38.44,59.58,39.2,59.58z"/>
			
				<linearGradient id="SVGID_1_" gradientUnits="userSpaceOnUse" x1="-6423.5601" y1="3384.7507" x2="-6489.4307" y2="3388.3701" gradientTransform="matrix(-0.3085 0.9512 0.9512 0.3085 -5168.0791 5119.4546)">
				<stop  offset="5.385320e-03" style="stop-color:#1C0000"/>
				<stop  offset="0.9977" style="stop-color:#565759"/>
			</linearGradient>
			<path class="st1" d="M34.53,52.58c-1.09-2.82-1.89-5.72-2.67-8.64c-1.49-5.68-2.69-11.5-3.14-17.39c-0.42-5.47-0.4-11.2,1-16.55
				c0.93-3.57,2.8-8.54,6.98-9.28c3.5-0.61,6.88,1.52,9.6,3.49c2.7,1.95,5.38,3.98,7.97,6.09c2.75,2.25,5.51,4.64,7.63,7.55
				c1.76,2.44,2.95,5.23,2.23,8.27c-0.86,3.49-3.4,6.39-5.54,9.18c-2.34,2.98-4.5,6.07-6.86,9.04c-2.38,2.96-4.95,5.74-7.14,8.82
				c-1.08,1.52-2.07,3.23-3.35,4.58c-1.32,1.4-2.42,1.46-3.36,0.83C36.26,57.49,35.19,54.24,34.53,52.58z"/>
			<path class="st0" d="M43.07,61.83c3.09,0.65,6.31,0.61,9.43,0.26c6.63-0.67,13.18-2.03,19.52-4.11
				c6.21-2.03,12.26-4.69,17.71-8.35c2.4-1.6,4.87-3.28,6.79-5.46c1.63-1.8,3.2-4.16,2.95-6.72c-0.52-5.23-6.77-7.56-11.11-8.74
				c-3.13-0.83-6.38-1.5-9.6-1.79c-3.18-0.26-6.68-0.35-9.73,0.79c-6.2,2.34-10.43,7.99-14.44,12.99
				c-4.3,5.33-8.56,10.69-12.72,16.15c-0.1,0.04-0.17,0.1-0.23,0.21c-0.11,0.18-0.26,0.38-0.39,0.61c-0.27,0.34-0.54,0.71-0.81,1.07
				c-0.12,0.14,0.07,0.25,0.2,0.16c-0.12,0.43-0.15,0.85,0.02,1.26C41.06,61.17,42.07,61.61,43.07,61.83z"/>
			
				<linearGradient id="SVGID_2_" gradientUnits="userSpaceOnUse" x1="-6463.3862" y1="3418.2144" x2="-6419.8467" y2="3418.2144" gradientTransform="matrix(-0.3085 0.9512 0.9512 0.3085 -5168.0791 5119.4546)">
				<stop  offset="5.385320e-03" style="stop-color:#E78724"/>
				<stop  offset="0.9966" style="stop-color:#FAA847"/>
			</linearGradient>
			<path class="st2" d="M41.88,57.75c0.4-1.11,1.36-1.97,2.09-2.86c0.88-1.08,1.73-2.19,2.6-3.31c1.7-2.15,3.4-4.3,5.1-6.43
				c3.48-4.36,6.96-8.97,11.22-12.6c1.88-1.61,3.93-3.02,6.3-3.79c2.41-0.81,5-0.97,7.54-0.9c4.74,0.15,9.71,0.91,14.16,2.58
				c2.49,0.94,5.28,2.3,6.61,4.73c1.64,2.92,0.32,5.93-1.77,8.24c-2.09,2.29-4.72,4.16-7.31,5.84c-2.86,1.84-5.86,3.49-8.99,4.89
				c-6.29,2.8-13.15,5.03-19.98,6.07c-3.53,0.53-7.09,1.14-10.68,1.15c-1.73-0.02-3.56-0.1-5.23-0.54
				C42.07,60.41,41.37,59.13,41.88,57.75z"/>
			
				<linearGradient id="SVGID_3_" gradientUnits="userSpaceOnUse" x1="-6428.5283" y1="3391.405" x2="-6460.8384" y2="3380.9163" gradientTransform="matrix(-0.3085 0.9512 0.9512 0.3085 -5168.0791 5119.4546)">
				<stop  offset="5.385320e-03" style="stop-color:#E78724"/>
				<stop  offset="0.9966" style="stop-color:#FAA847"/>
			</linearGradient>
			<path class="st3" d="M42.76,42.74c-0.16,1.46-0.66,2.86-1.14,4.22c-0.68,1.99-1.42,3.98-1.74,6.05c-0.03,0.1-0.03,0.2-0.05,0.28
				c-0.15-1.3-0.29-2.62-0.35-3.93c-0.1-1.95-0.21-3.89-0.2-5.86c0.03-1.08,0.08-2.17,0.12-3.27
				C41.19,38.72,42.97,40.67,42.76,42.74z"/>
			
				<linearGradient id="SVGID_4_" gradientUnits="userSpaceOnUse" x1="-6427.3101" y1="3387.9292" x2="-6459.8027" y2="3377.3813" gradientTransform="matrix(-0.3085 0.9512 0.9512 0.3085 -5168.0791 5119.4546)">
				<stop  offset="5.385320e-03" style="stop-color:#E78724"/>
				<stop  offset="0.9966" style="stop-color:#FAA847"/>
			</linearGradient>
			<path class="st4" d="M36.95,12.59c0.39-0.89,1.98-3.42,3.29-2.27c1.09,0.95,0,3.7-0.35,4.75c-0.63,1.84-1.52,3.59-2.11,5.41
				c-1.43,4.49-2.44,9.23-2.07,13.96c-0.24,0.18-0.45,0.4-0.61,0.61c-0.52,0.65-0.77,1.32-0.93,2.03c0.16-0.68-0.12-1.73-0.15-2.42
				c-0.04-0.83-0.07-1.64-0.07-2.48c-0.02-1.7,0.03-3.41,0.16-5.09c0.26-3.35,0.8-6.67,1.61-9.92c0.39-1.52,0.61-3.1,1.23-4.56
				C36.95,12.62,36.95,12.62,36.95,12.59z"/>
			
				<linearGradient id="SVGID_5_" gradientUnits="userSpaceOnUse" x1="-6428.8638" y1="3392.4875" x2="-6461.2109" y2="3381.9868" gradientTransform="matrix(-0.3085 0.9512 0.9512 0.3085 -5168.0791 5119.4546)">
				<stop  offset="5.385320e-03" style="stop-color:#E78724"/>
				<stop  offset="0.9966" style="stop-color:#FAA847"/>
			</linearGradient>
			<path class="st5" d="M41.01,13.61c1.33-1.51,3.73-2.21,5.51-0.99c2.72,1.86,0.9,5.13-0.39,7.28c-1.94,3.28-3.84,6.37-4.98,10.04
				c-0.76,2.45-1.45,5.03-1.85,7.6c-0.19-1.44-0.69-3.16-2.09-3.51c-0.26-0.08-0.53-0.07-0.77,0.02
				c-0.47-6.63,1.93-12.96,4.14-19.19C40.67,14.56,40.85,14.12,41.01,13.61z"/>
			
				<linearGradient id="SVGID_6_" gradientUnits="userSpaceOnUse" x1="-6430.0278" y1="3396.0813" x2="-6462.3711" y2="3385.5818" gradientTransform="matrix(-0.3085 0.9512 0.9512 0.3085 -5168.0791 5119.4546)">
				<stop  offset="5.385320e-03" style="stop-color:#E78724"/>
				<stop  offset="0.9966" style="stop-color:#FAA847"/>
			</linearGradient>
			<path class="st6" d="M51.54,21.65c-0.02,0.02-0.05,0.04-0.07,0.08c-0.07,0.07-0.08,0.16-0.06,0.24c-0.47,1.22-1.12,2.4-1.77,3.51
				c-2.84,4.9-5.28,9.92-6.46,15.41c-0.17-0.44-0.42-0.87-0.81-1.19c-0.89-0.73-1.81-0.9-2.67-0.54c0.2-1.86,0.62-3.71,1.06-5.51
				c0.55-2.35,1.22-4.75,2.21-6.96c0.89-2.01,2.1-3.83,3.23-5.72c0.81-1.33,1.84-2.84,2.21-4.42l0,0c1.04-0.06,2.64-0.12,3.32,0.83
				c0.52,0.73,0.5,1.66,0.34,2.49C51.93,20.47,51.75,21.05,51.54,21.65z"/>
			
				<linearGradient id="SVGID_7_" gradientUnits="userSpaceOnUse" x1="-6431.6597" y1="3401.0713" x2="-6463.9971" y2="3390.5737" gradientTransform="matrix(-0.3085 0.9512 0.9512 0.3085 -5168.0791 5119.4546)">
				<stop  offset="5.385320e-03" style="stop-color:#E78724"/>
				<stop  offset="0.9966" style="stop-color:#FAA847"/>
			</linearGradient>
			<path class="st7" d="M58.59,23.67c0.39,2.25-0.72,4.39-1.86,6.25c-1.62,2.66-3.53,5.14-5.25,7.71c-0.81,1.22-1.6,2.45-2.27,3.75
				c-0.28,0.53-0.51,1.05-0.74,1.61c-0.12-0.12-0.26-0.25-0.43-0.35c-1.23-0.81-2.92-1.04-4.35-0.59c0.7-3.89,2.03-7.66,3.79-11.19
				c1.23-2.45,2.79-4.73,3.99-7.2c0.23-0.51,0.52-1.08,0.75-1.69C54.2,19.94,58.08,20.65,58.59,23.67z"/>
			
				<linearGradient id="SVGID_8_" gradientUnits="userSpaceOnUse" x1="-6429.4844" y1="3394.3718" x2="-6461.8096" y2="3383.8782" gradientTransform="matrix(-0.3085 0.9512 0.9512 0.3085 -5168.0791 5119.4546)">
				<stop  offset="5.385320e-03" style="stop-color:#E78724"/>
				<stop  offset="0.9966" style="stop-color:#FAA847"/>
			</linearGradient>
			<path class="st8" d="M40.11,56.8c0.26-2.2,0.46-4.36,1.14-6.52c0.65-2.07,1.56-4.12,1.99-6.26c0.08-0.37,0.14-0.76,0.17-1.16
				c1.48-0.57,4.01-0.16,4.77,1.01c-1.46,1.97-2.87,3.98-4.12,6.09c-0.83,1.4-1.65,2.81-2.3,4.32c-0.39,0.83-0.77,1.66-1.23,2.45
				c-0.12,0.18-0.26,0.4-0.4,0.61C40.14,57.17,40.13,56.99,40.11,56.8z"/>
			
				<linearGradient id="SVGID_9_" gradientUnits="userSpaceOnUse" x1="-6427.2778" y1="3387.5693" x2="-6459.5991" y2="3377.0771" gradientTransform="matrix(-0.3085 0.9512 0.9512 0.3085 -5168.0791 5119.4546)">
				<stop  offset="5.385320e-03" style="stop-color:#E78724"/>
				<stop  offset="0.9966" style="stop-color:#FAA847"/>
			</linearGradient>
			<path class="st9" d="M38.71,39.94c-0.02,1.05-0.1,2.09-0.12,3.14c-0.07,2.62,0.04,5.26,0.3,7.85c0.21,1.95,0.49,3.89,0.55,5.87
				c-0.04,0.38-0.08,0.77-0.14,1.15c0.07-0.57-0.69-1.83-0.91-2.41c-0.3-0.81-0.6-1.65-0.87-2.46c-0.56-1.68-1.09-3.38-1.53-5.09
				c-0.58-2.21-1.18-4.44-1.38-6.74c-0.15-1.84-0.17-4.62,1.32-5.98c0.99-0.91,1.83-0.58,2.26,0.61
				C38.66,37.2,38.75,38.56,38.71,39.94z"/>
			
				<linearGradient id="SVGID_10_" gradientUnits="userSpaceOnUse" x1="-6463.3862" y1="3418.2144" x2="-6419.8467" y2="3418.2144" gradientTransform="matrix(-0.3085 0.9512 0.9512 0.3085 -5168.0791 5119.4546)">
				<stop  offset="5.385320e-03" style="stop-color:#1C0000"/>
				<stop  offset="0.9977" style="stop-color:#565759"/>
			</linearGradient>
			<path class="st10" d="M41.88,57.75c0.4-1.11,1.36-1.97,2.09-2.86c0.88-1.08,1.73-2.19,2.6-3.31c1.7-2.15,3.4-4.3,5.1-6.43
				c3.48-4.36,6.96-8.97,11.22-12.6c1.88-1.61,3.93-3.02,6.3-3.79c2.41-0.81,5-0.97,7.54-0.9c4.74,0.15,9.71,0.91,14.16,2.58
				c2.49,0.94,5.28,2.3,6.61,4.73c1.64,2.92,0.32,5.93-1.77,8.24c-2.09,2.29-4.72,4.16-7.31,5.84c-2.86,1.84-5.86,3.49-8.99,4.89
				c-6.29,2.8-13.15,5.03-19.98,6.07c-3.53,0.53-7.09,1.14-10.68,1.15c-1.73-0.02-3.56-0.1-5.23-0.54
				C42.07,60.41,41.37,59.13,41.88,57.75z"/>
			
				<linearGradient id="SVGID_11_" gradientUnits="userSpaceOnUse" x1="-6430.6606" y1="3395.5869" x2="-6456.5972" y2="3422.2471" gradientTransform="matrix(-0.3085 0.9512 0.9512 0.3085 -5168.0791 5119.4546)">
				<stop  offset="5.385320e-03" style="stop-color:#E36726"/>
				<stop  offset="0.9966" style="stop-color:#FAA847"/>
			</linearGradient>
			<path class="st11" d="M72.95,35.15c-0.06,0.07-0.12,0.11-0.17,0.16l-0.02,0.02c-0.95,0.85-2.07,1.58-2.57,1.9
				c-2.47,1.62-5.08,3.03-7.55,4.62c-4.02,2.58-7.89,5.38-11.56,8.44c-1.79,1.48-3.61,2.98-5.23,4.67
				c-1.38,1.44-2.67,2.96-3.98,4.46c-0.21-0.51-0.23-1.08,0-1.69c0.4-1.11,1.36-1.97,2.09-2.86c0.88-1.08,1.73-2.19,2.6-3.31
				c1.7-2.15,3.4-4.3,5.1-6.43c0.53-0.68,1.07-1.34,1.6-2.01c1.23-1.18,2.19-2.68,3.43-3.84c1.91-1.77,4.02-3.21,6.14-4.69
				c1.72-1.19,3.55-2.29,5.56-2.92c1.61-0.49,3.98-0.87,5.37,0.43C74.7,33,74.01,34.14,72.95,35.15z"/>
			
				<linearGradient id="SVGID_12_" gradientUnits="userSpaceOnUse" x1="-6428.5508" y1="3397.6328" x2="-6454.4912" y2="3424.2971" gradientTransform="matrix(-0.3085 0.9512 0.9512 0.3085 -5168.0791 5119.4546)">
				<stop  offset="5.385320e-03" style="stop-color:#E78724"/>
				<stop  offset="0.9966" style="stop-color:#FAA847"/>
			</linearGradient>
			<path class="st12" d="M42.02,59.73c1.91-2.17,3.77-4.36,5.93-6.31c2.28-2.05,4.63-4,7.08-5.87c4.15-3.14,8.51-6,13.02-8.62
				c1.68-0.97,3.56-2.05,4.99-3.47l0,0c1.61-1.46,3.69-2.53,5.71-3.28c1.98-0.75,4.73-1.61,6.78-0.61c0.77,0.36,1.63,1.08,1.73,1.99
				c0.09,0.79-0.35,1.5-0.87,2.05c-1.05,1.11-2.4,1.94-3.79,2.63c-0.1,0.02-0.21,0.04-0.3,0.06c-0.09,0.02-0.14,0.11-0.13,0.16
				c-0.22,0.1-0.44,0.22-0.64,0.31c-2.83,1.34-5.79,2.38-8.67,3.56c-3.29,1.32-6.55,2.72-9.75,4.25c-0.45,0.18-0.9,0.37-1.35,0.57
				c-0.07,0.04-0.1,0.11-0.07,0.14c-0.65,0.33-1.28,0.65-1.91,0.98c-3.23,1.7-6.36,3.59-9.38,5.62c-0.18,0.07-0.35,0.18-0.53,0.28
				c-0.03,0.03-0.07,0.07-0.07,0.1c-1.01,0.69-2,1.38-2.98,2.12c-1.19,0.87-2.25,1.83-3.35,2.81c-0.38,0.33-0.73,0.63-1.12,0.95
				C42.22,60.01,42.11,59.87,42.02,59.73z"/>
			
				<linearGradient id="SVGID_13_" gradientUnits="userSpaceOnUse" x1="-6423.3872" y1="3402.6548" x2="-6449.3315" y2="3429.3232" gradientTransform="matrix(-0.3085 0.9512 0.9512 0.3085 -5168.0791 5119.4546)">
				<stop  offset="5.385320e-03" style="stop-color:#E36726"/>
				<stop  offset="0.9966" style="stop-color:#FAA847"/>
			</linearGradient>
			<path class="st13" d="M58.33,50.33c2.45-0.97,5.42-2.11,8.09-1.68c1.08,0.18,2.22,0.72,2.62,1.82c0.57,1.63-0.71,3.18-1.83,4.22
				c-2.63,2.48-6.04,4.36-9.34,5.74c-0.02,0-0.05,0.02-0.07,0.02c-3,0.47-6.01,0.9-9.04,0.91c-1.73-0.02-3.56-0.1-5.23-0.54
				c-0.38-0.12-0.71-0.29-0.97-0.49c0.9-0.75,1.75-1.54,2.63-2.33c1.34-1.19,2.86-2.19,4.34-3.21c0.33-0.22,0.66-0.44,0.98-0.67
				C53.03,52.71,55.63,51.38,58.33,50.33z"/>
			
				<linearGradient id="SVGID_14_" gradientUnits="userSpaceOnUse" x1="-6423.1118" y1="3402.9248" x2="-6449.0547" y2="3429.5918" gradientTransform="matrix(-0.3085 0.9512 0.9512 0.3085 -5168.0791 5119.4546)">
				<stop  offset="5.385320e-03" style="stop-color:#E36726"/>
				<stop  offset="0.9966" style="stop-color:#FAA847"/>
			</linearGradient>
			<path class="st14" d="M64.06,46.48c2.76-1.01,5.7-1.93,8.66-2.11c2.38-0.15,5.86,0.36,5.98,3.42c0.08,1.99-1.49,3.67-2.91,4.87
				c-1.46,1.25-3.07,2.27-4.8,3.14c-3.02,1.54-6.16,2.8-9.32,4.02c-0.74,0.14-1.48,0.26-2.24,0.39c-0.18,0.02-0.36,0.06-0.56,0.08
				c2.15-0.95,4.21-2.12,6.16-3.49c1.74-1.24,5.21-3.74,4.29-6.34c-0.75-2.15-3.19-2.35-5.14-2.12c-2.81,0.35-5.56,1.46-8.11,2.62
				c-0.91,0.42-1.8,0.85-2.7,1.29c0.52-0.32,1.06-0.64,1.6-0.97c2.67-1.62,5.45-3.1,8.28-4.48C63.53,46.7,63.8,46.57,64.06,46.48z"
				/>
			
				<linearGradient id="SVGID_15_" gradientUnits="userSpaceOnUse" x1="-6424.5088" y1="3401.5664" x2="-6450.4497" y2="3428.2314" gradientTransform="matrix(-0.3085 0.9512 0.9512 0.3085 -5168.0791 5119.4546)">
				<stop  offset="5.385320e-03" style="stop-color:#E36726"/>
				<stop  offset="0.9966" style="stop-color:#FAA847"/>
			</linearGradient>
			<path class="st15" d="M90.83,41.16c-0.11-0.02-0.18,0.08-0.18,0.16c-0.21,0.16-0.41,0.32-0.61,0.46
				c-1.22,0.86-2.54,1.55-3.91,2.12c-2.36,1.03-4.88,1.93-7.41,2.37c-0.06,0-0.09,0.02-0.11,0.07c-0.46-0.87-1.2-1.46-2.12-1.83
				c-2.42-0.94-5.42-0.33-7.84,0.28c-0.94,0.22-1.88,0.49-2.81,0.79c0.31-0.14,0.63-0.28,0.95-0.42c3.79-1.69,7.64-3.14,11.46-4.69
				c1.51-0.61,3.01-1.23,4.45-1.98c2.35-0.51,10.4-3.31,9.52,0.57C92.01,39.9,91.48,40.58,90.83,41.16
				C90.84,41.14,90.83,41.14,90.83,41.16z"/>
			
				<linearGradient id="SVGID_16_" gradientUnits="userSpaceOnUse" x1="-6420.7847" y1="3405.22" x2="-6446.7109" y2="3431.8699" gradientTransform="matrix(-0.3085 0.9512 0.9512 0.3085 -5168.0791 5119.4546)">
				<stop  offset="5.385320e-03" style="stop-color:#E36726"/>
				<stop  offset="0.9966" style="stop-color:#FAA847"/>
			</linearGradient>
			<path class="st16" d="M90.92,41.51c1.42,0.39,0.45,1.83-0.21,2.62c-0.93,1.11-2.01,2.11-3.14,3.02c-1.48,1.2-3.2,2.03-4.91,2.82
				c-2.37,1.11-4.79,2.13-7.11,3.35c1.06-0.86,1.99-1.81,2.69-2.95c0.72-1.19,1.06-2.53,0.47-3.83c0.01,0,0.01,0,0.02,0
				c2.81-0.5,5.65-1.5,8.25-2.72C88.19,43.23,89.75,42.52,90.92,41.51z"/>
			
				<linearGradient id="SVGID_17_" gradientUnits="userSpaceOnUse" x1="-6463.3701" y1="3398.637" x2="-6419.8584" y2="3398.637" gradientTransform="matrix(-0.3085 0.9512 0.9512 0.3085 -5168.0791 5119.4546)">
				<stop  offset="5.385320e-03" style="stop-color:#E78724"/>
				<stop  offset="0.9966" style="stop-color:#FAA847"/>
			</linearGradient>
			<path class="st17" d="M52.06,44.67c0.08-0.1,0.18-0.18,0.27-0.28c0.45-0.44,0.92-0.89,1.47-1.22c0.12-0.08,1.69-0.83,1.75-0.51
				c0.18,1.02-0.44,2.05-1.02,2.85c-0.72,1.01-1.57,1.9-2.46,2.76c-1.73,1.66-3.58,3.16-5.17,4.97c-1.74,1.98-3.34,4.1-5.06,6.11
				c-0.16-0.49-0.16-1.02,0.04-1.59c0.4-1.11,1.36-1.97,2.09-2.86c0.88-1.08,1.73-2.19,2.6-3.31c1.7-2.15,3.4-4.3,5.1-6.43
				C51.8,44.99,51.93,44.83,52.06,44.67z"/>
			
				<linearGradient id="SVGID_18_" gradientUnits="userSpaceOnUse" x1="-6463.3755" y1="3417.4456" x2="-6419.855" y2="3417.4456" gradientTransform="matrix(-0.3085 0.9512 0.9512 0.3085 -5168.0791 5119.4546)">
				<stop  offset="5.385320e-03" style="stop-color:#E78724"/>
				<stop  offset="0.9966" style="stop-color:#FAA847"/>
			</linearGradient>
			<path class="st18" d="M63.17,46.53c0.67-0.49,1.32-1.03,1.97-1.56c0.79-0.63,1.62-1.29,2.22-2.12c0.32-0.47,0.76-1.28,0.14-1.73
				c-0.8-0.57-1.89-0.4-2.79-0.12c-0.09,0.03-0.17,0.07-0.26,0.08c1.18-0.73,2.38-1.44,3.6-2.15c0.06-0.04,0.11-0.08,0.18-0.1
				c-0.03,0.1,0.05,0.22,0.18,0.14c2.49-1.62,5.19-3.6,8.18-4.14c1.33-0.25,3.56,0,3.44,1.88c-0.1,1.56-1.44,2.96-2.75,3.86
				c-1.47,0.58-2.95,1.14-4.43,1.75c-3.29,1.32-6.55,2.72-9.74,4.25C63.13,46.56,63.15,46.53,63.17,46.53z"/>
			
				<linearGradient id="SVGID_19_" gradientUnits="userSpaceOnUse" x1="-6463.4058" y1="3402.542" x2="-6419.8491" y2="3402.542" gradientTransform="matrix(-0.3085 0.9512 0.9512 0.3085 -5168.0791 5119.4546)">
				<stop  offset="5.385320e-03" style="stop-color:#E78724"/>
				<stop  offset="0.9966" style="stop-color:#FAA847"/>
			</linearGradient>
			<path class="st19" d="M43.63,59.58c3.25-1.37,5.94-4.03,9.37-5.05c1.22-0.38,6.07-1.25,5.18,1.51c-0.63,1.97-2.49,3.61-3.99,4.95
				l0,0c-1.8,0.22-3.62,0.37-5.44,0.39c-1.73-0.02-3.56-0.1-5.23-0.54c-0.38-0.12-0.71-0.29-0.97-0.49c0.3-0.26,0.6-0.5,0.9-0.77
				C43.5,59.6,43.56,59.6,43.63,59.58z"/>
			
				<linearGradient id="SVGID_20_" gradientUnits="userSpaceOnUse" x1="-6463.3711" y1="3415.0193" x2="-6419.8555" y2="3415.0193" gradientTransform="matrix(-0.3085 0.9512 0.9512 0.3085 -5168.0791 5119.4546)">
				<stop  offset="5.385320e-03" style="stop-color:#E78724"/>
				<stop  offset="0.9966" style="stop-color:#FAA847"/>
			</linearGradient>
			<path class="st20" d="M65.04,56.8c1.74-1.24,5.21-3.74,4.29-6.34c-0.75-2.15-3.19-2.35-5.14-2.12c-1.6,0.2-3.18,0.65-4.72,1.19
				c2.73-1.95,6.67-3.71,10.03-2.94c1.17,0.24,2.63,0.87,3.14,2.07c0.4,0.9,0.2,1.88-0.21,2.76c-1.01,2.12-2.86,3.84-4.64,5.32
				c-0.52,0.43-1.05,0.87-1.61,1.28c-1.49,0.63-3,1.22-4.51,1.81c-0.74,0.14-1.48,0.26-2.24,0.39c-0.18,0.02-0.36,0.06-0.56,0.08
				C61.03,59.34,63.09,58.18,65.04,56.8z"/>
			
				<linearGradient id="SVGID_21_" gradientUnits="userSpaceOnUse" x1="-6463.4043" y1="3422.8799" x2="-6419.8032" y2="3422.8799" gradientTransform="matrix(-0.3085 0.9512 0.9512 0.3085 -5168.0791 5119.4546)">
				<stop  offset="5.385320e-03" style="stop-color:#E78724"/>
				<stop  offset="0.9966" style="stop-color:#FAA847"/>
			</linearGradient>
			<path class="st21" d="M78.61,46.34c-0.46-0.87-1.2-1.46-2.12-1.83c-2.35-0.9-5.23-0.37-7.6,0.22c1.7-0.77,3.44-1.46,5.23-1.93
				c1.66-0.45,3.55-0.87,5.28-0.73c1.01,0.08,2.07,0.28,3,0.69c0.4,0.18,1.06,0.46,1.16,0.93c0.14,0.59-0.54,1.04-0.95,1.32
				c-0.07,0.07-0.07,0.19,0,0.25c-1.28,0.43-2.59,0.77-3.88,1.01C78.66,46.27,78.63,46.29,78.61,46.34z"/>
			
				<linearGradient id="SVGID_22_" gradientUnits="userSpaceOnUse" x1="-6463.3813" y1="3429.0166" x2="-6419.8677" y2="3429.0166" gradientTransform="matrix(-0.3085 0.9512 0.9512 0.3085 -5168.0791 5119.4546)">
				<stop  offset="5.385320e-03" style="stop-color:#E78724"/>
				<stop  offset="0.9966" style="stop-color:#FAA847"/>
			</linearGradient>
			<path class="st22" d="M78.74,46.53c1.6-0.28,3.23-0.75,4.81-1.32c1.37,0.04,2.7,0.87,2.26,2.53c-0.08,0.29-0.2,0.55-0.33,0.79
				c-0.91,0.53-1.87,0.98-2.81,1.42c-2.37,1.11-4.79,2.13-7.11,3.35c1.06-0.86,1.99-1.81,2.69-2.95c0.72-1.19,1.06-2.53,0.47-3.83
				C78.72,46.53,78.72,46.53,78.74,46.53z"/>
			
				<linearGradient id="SVGID_23_" gradientUnits="userSpaceOnUse" x1="-6469.7202" y1="3372.4001" x2="-6472.4253" y2="3371.522" gradientTransform="matrix(-0.3085 0.9512 0.9512 0.3085 -5168.0791 5119.4546)">
				<stop  offset="5.385320e-03" style="stop-color:#E78724"/>
				<stop  offset="0.9966" style="stop-color:#FAA847"/>
			</linearGradient>
			<path class="st23" d="M35.21,5.82c-0.68-0.08-1.28-0.51-1.14-1.28c0.11-0.57,0.58-1.06,1.14-1.36C35.52,3.06,35.87,3,36.19,3
				c1,0.07,1.33,1.02,0.87,1.85C36.72,5.52,35.96,5.94,35.21,5.82z"/>
			
				<linearGradient id="SVGID_24_" gradientUnits="userSpaceOnUse" x1="-6470.5664" y1="3379.4963" x2="-6473.0708" y2="3378.6833" gradientTransform="matrix(-0.3085 0.9512 0.9512 0.3085 -5168.0791 5119.4546)">
				<stop  offset="5.385320e-03" style="stop-color:#E78724"/>
				<stop  offset="0.9966" style="stop-color:#FAA847"/>
			</linearGradient>
			<path class="st24" d="M43.46,7.01c0.77-0.44,0.8-1.64,0.08-2.12c-0.09-0.07-0.17-0.11-0.26-0.15c0.03-0.06,0.01-0.1-0.09-0.12
				c-1-0.18-2.26,0.61-1.83,1.75C41.68,7.22,42.72,7.44,43.46,7.01z"/>
			
				<linearGradient id="SVGID_25_" gradientUnits="userSpaceOnUse" x1="-6469.6792" y1="3385.8386" x2="-6471.2354" y2="3385.3335" gradientTransform="matrix(-0.3085 0.9512 0.9512 0.3085 -5168.0791 5119.4546)">
				<stop  offset="5.385320e-03" style="stop-color:#E78724"/>
				<stop  offset="0.9966" style="stop-color:#FAA847"/>
			</linearGradient>
			<path class="st25" d="M48.67,9.96c0.47-0.22,0.76-0.98,0.32-1.38c-0.29-0.26-0.63-0.22-0.91-0.04c-0.28,0.08-0.47,0.44-0.41,0.75
				C47.74,9.75,48.19,10.2,48.67,9.96z"/>
			
				<linearGradient id="SVGID_26_" gradientUnits="userSpaceOnUse" x1="-6464.458" y1="3395.2678" x2="-6468.5376" y2="3393.9436" gradientTransform="matrix(-0.3085 0.9512 0.9512 0.3085 -5168.0791 5119.4546)">
				<stop  offset="5.385320e-03" style="stop-color:#E78724"/>
				<stop  offset="0.9966" style="stop-color:#FAA847"/>
			</linearGradient>
			<path class="st26" d="M55.55,17.89c1.34,0.12,2.56-1,2.44-2.35c-0.12-1.46-1.46-2.27-2.82-1.79c-0.67,0.24-1.37,0.87-1.49,1.56
				C53.24,16.45,54.2,17.77,55.55,17.89z"/>
			
				<linearGradient id="SVGID_27_" gradientUnits="userSpaceOnUse" x1="-6460.3799" y1="3402.7712" x2="-6462.3525" y2="3402.1309" gradientTransform="matrix(-0.3085 0.9512 0.9512 0.3085 -5168.0791 5119.4546)">
				<stop  offset="5.385320e-03" style="stop-color:#E78724"/>
				<stop  offset="0.9966" style="stop-color:#FAA847"/>
			</linearGradient>
			<path class="st27" d="M62.69,23.59c0.36-0.68-0.08-1.5-0.85-1.56c-0.29-0.04-0.58,0.03-0.77,0.22c-0.54,0.2-0.77,0.91-0.34,1.42
				C61.2,24.22,62.32,24.28,62.69,23.59z"/>
			
				<linearGradient id="SVGID_28_" gradientUnits="userSpaceOnUse" x1="-6454.2461" y1="3403.4778" x2="-6455.9102" y2="3402.9377" gradientTransform="matrix(-0.3085 0.9512 0.9512 0.3085 -5168.0791 5119.4546)">
				<stop  offset="5.385320e-03" style="stop-color:#E78724"/>
				<stop  offset="0.9966" style="stop-color:#FAA847"/>
			</linearGradient>
			<path class="st28" d="M60.79,30.07c0.26-0.15,0.43-0.41,0.49-0.69c0.04-0.25,0.03-0.57-0.15-0.73c-0.05-0.04-0.1-0.08-0.13-0.08
				c-0.13-0.1-0.3-0.18-0.48-0.16c-0.65,0.07-1.3,0.95-0.66,1.47C60.11,30.11,60.48,30.25,60.79,30.07z"/>
			
				<linearGradient id="SVGID_29_" gradientUnits="userSpaceOnUse" x1="-6448.3711" y1="3401.4355" x2="-6450.0293" y2="3400.8972" gradientTransform="matrix(-0.3085 0.9512 0.9512 0.3085 -5168.0791 5119.4546)">
				<stop  offset="5.385320e-03" style="stop-color:#E78724"/>
				<stop  offset="0.9966" style="stop-color:#FAA847"/>
			</linearGradient>
			<path class="st29" d="M57.04,35.01c0.26-0.14,0.42-0.4,0.48-0.69c0.04-0.24,0.03-0.54-0.17-0.72c-0.02-0.04-0.07-0.07-0.12-0.08
				c-0.13-0.11-0.29-0.16-0.47-0.15c-0.66,0.07-1.3,0.94-0.67,1.48C56.36,35.05,56.72,35.22,57.04,35.01z"/>
			
				<linearGradient id="SVGID_30_" gradientUnits="userSpaceOnUse" x1="-6441.9165" y1="3399.0759" x2="-6443.1846" y2="3398.6643" gradientTransform="matrix(-0.3085 0.9512 0.9512 0.3085 -5168.0791 5119.4546)">
				<stop  offset="5.385320e-03" style="stop-color:#E78724"/>
				<stop  offset="0.9966" style="stop-color:#FAA847"/>
			</linearGradient>
			<path class="st30" d="M52.72,40.45c0.2-0.11,0.33-0.31,0.37-0.53c0.03-0.19,0.03-0.43-0.12-0.57c-0.04-0.02-0.06-0.04-0.1-0.07
				c-0.09-0.08-0.22-0.12-0.36-0.1c-0.49,0.04-1,0.73-0.5,1.14C52.2,40.49,52.48,40.59,52.72,40.45z"/>
			
				<linearGradient id="SVGID_31_" gradientUnits="userSpaceOnUse" x1="-6427.8501" y1="3382.1953" x2="-6465.8613" y2="3369.8557" gradientTransform="matrix(-0.3085 0.9512 0.9512 0.3085 -5168.0791 5119.4546)">
				<stop  offset="5.385320e-03" style="stop-color:#E78724"/>
				<stop  offset="0.9966" style="stop-color:#FAA847"/>
			</linearGradient>
			<path class="st31" d="M34.33,48.44l-0.06-0.18c-0.15-0.94-0.18-1.88-0.31-2.82c-0.11-0.93-0.22-1.84-0.35-2.78
				c-0.23-1.9-0.46-3.83-0.63-5.76c-0.33-3.85-0.39-7.73,0-11.6c0.4-3.91,1.27-7.79,1.66-11.7c0.1-0.89,0.23-1.79,0.21-2.7
				c-0.02-0.71-0.07-1.72-0.82-2.07C33,8.36,32.07,9.7,31.59,10.39c-1,1.42-1.64,3.04-1.97,4.74c-0.72,3.64-0.34,7.32,0.22,10.95
				c0.56,3.68,1.22,7.32,1.75,11.02c0.46,3.24,0.95,6.49,1.82,9.65c0.06,0.39,0.18,0.76,0.23,1.16c0.04,0.28,0.09,0.53,0.3,0.73
				C34.07,48.76,34.37,48.62,34.33,48.44z"/>
			
				<linearGradient id="SVGID_32_" gradientUnits="userSpaceOnUse" x1="-6428.3086" y1="3390.7312" x2="-6460.6343" y2="3380.2373" gradientTransform="matrix(-0.3085 0.9512 0.9512 0.3085 -5168.0791 5119.4546)">
				<stop  offset="5.385320e-03" style="stop-color:#E78724"/>
				<stop  offset="0.9966" style="stop-color:#FAA847"/>
			</linearGradient>
			<path class="st32" d="M39.66,43.74c0.43-0.57,1.34-0.73,1.57,0.08c0.21,0.77,0.08,1.6-0.04,2.37c-0.35,2.21-1,4.35-1.43,6.52
				c-0.12-1.09-0.23-2.21-0.29-3.35c-0.07-1.58-0.16-3.14-0.19-4.72C39.37,44.3,39.48,44,39.66,43.74z"/>
			
				<linearGradient id="SVGID_33_" gradientUnits="userSpaceOnUse" x1="-6426.7803" y1="3386.3076" x2="-6459.2808" y2="3375.7571" gradientTransform="matrix(-0.3085 0.9512 0.9512 0.3085 -5168.0791 5119.4546)">
				<stop  offset="5.385320e-03" style="stop-color:#E78724"/>
				<stop  offset="0.9966" style="stop-color:#FAA847"/>
			</linearGradient>
			<path class="st33" d="M34.03,34.67c-0.04-0.83-0.07-1.64-0.07-2.48c-0.02-1.14,0.03-2.27,0.07-3.41
				c0.11-0.72,0.23-1.46,0.36-2.19c0.21-1.08,0.44-2.15,0.77-3.2c0.22-0.63,0.49-1.61,1.09-1.99c0.54-0.35,0.89,0.12,1.06,0.63
				c-0.83,2.88-1.46,5.86-1.62,8.86c-0.2,1.28-0.3,2.55-0.3,3.85c-0.1,0.1-0.19,0.21-0.28,0.31c-0.52,0.65-0.77,1.32-0.93,2.03
				C34.35,36.41,34.07,35.36,34.03,34.67z"/>
			
				<linearGradient id="SVGID_34_" gradientUnits="userSpaceOnUse" x1="-6426.7866" y1="3386.3528" x2="-6459.3188" y2="3375.792" gradientTransform="matrix(-0.3085 0.9512 0.9512 0.3085 -5168.0791 5119.4546)">
				<stop  offset="5.385320e-03" style="stop-color:#E78724"/>
				<stop  offset="0.9966" style="stop-color:#FAA847"/>
			</linearGradient>
			<path class="st34" d="M35.65,33.33c0.01,0.37,0.03,0.76,0.07,1.12c-0.02,0.02-0.06,0.07-0.08,0.08
				C35.64,34.12,35.65,33.74,35.65,33.33z"/>
			
				<linearGradient id="SVGID_35_" gradientUnits="userSpaceOnUse" x1="-6428.1675" y1="3390.3247" x2="-6460.501" y2="3379.8286" gradientTransform="matrix(-0.3085 0.9512 0.9512 0.3085 -5168.0791 5119.4546)">
				<stop  offset="5.385320e-03" style="stop-color:#E78724"/>
				<stop  offset="0.9966" style="stop-color:#FAA847"/>
			</linearGradient>
			<path class="st35" d="M36.38,33.05c0.29-3,0.7-6.11,1.89-8.89c0.47-1.09,1.04-2.07,1.84-2.94c0.49-0.51,1.77-1.83,2.57-1.2
				c1.29,1.02,0.53,3.29,0,4.48c-0.58,1.34-1.14,2.6-1.56,3.98c-0.52,1.67-1.05,3.39-1.28,5.12c-0.12,0.83-0.19,1.66-0.26,2.47
				c-0.11,0.51-0.2,1-0.26,1.48c-0.19-1.44-0.69-3.16-2.09-3.51c-0.26-0.08-0.53-0.07-0.77,0.02C36.4,33.71,36.4,33.39,36.38,33.05z
				"/>
			
				<linearGradient id="SVGID_36_" gradientUnits="userSpaceOnUse" x1="-6429.1602" y1="3393.4258" x2="-6461.5205" y2="3382.9209" gradientTransform="matrix(-0.3085 0.9512 0.9512 0.3085 -5168.0791 5119.4546)">
				<stop  offset="5.385320e-03" style="stop-color:#E78724"/>
				<stop  offset="0.9966" style="stop-color:#FAA847"/>
			</linearGradient>
			<path class="st36" d="M39.94,37.39c0.59-1.55,0.87-3.25,1.37-4.79c0.37-1.18,0.77-2.34,1.31-3.43c0.41-0.83,0.93-1.8,1.74-2.33
				c0.9-0.57,2.01-0.25,2.16,0.89c0.19,1.3-0.21,2.68-0.58,3.89c-0.38,1.18-0.88,2.3-1.21,3.47c-0.14,0.51-0.26,1.04-0.36,1.54
				c-0.48,1.38-0.88,2.8-1.18,4.26c-0.17-0.44-0.42-0.87-0.81-1.19c-0.89-0.73-1.81-0.9-2.67-0.54
				C39.76,38.58,39.85,37.97,39.94,37.39z"/>
			
				<linearGradient id="SVGID_37_" gradientUnits="userSpaceOnUse" x1="-6430.9204" y1="3398.7903" x2="-6463.2524" y2="3388.2947" gradientTransform="matrix(-0.3085 0.9512 0.9512 0.3085 -5168.0791 5119.4546)">
				<stop  offset="5.385320e-03" style="stop-color:#E78724"/>
				<stop  offset="0.9966" style="stop-color:#FAA847"/>
			</linearGradient>
			<path class="st37" d="M44.85,37.37c0.55-1.14,0.98-2.3,1.51-3.43c0.59-1.25,1.31-2.35,2.22-3.38c0.74-0.81,1.6-1.73,2.67-2.09
				c1.11-0.36,2.38,0.14,2.58,1.38c0.34,2.07-1.11,4.24-2.04,6c-0.83,1.6-1.61,3.25-2.26,4.95c-0.11,0.2-0.21,0.38-0.32,0.58
				c-0.28,0.53-0.51,1.05-0.74,1.61c-0.12-0.12-0.26-0.25-0.43-0.35c-1.23-0.81-2.92-1.04-4.35-0.59
				C43.98,40.45,44.38,38.9,44.85,37.37z"/>
			
				<linearGradient id="SVGID_38_" gradientUnits="userSpaceOnUse" x1="-6429.0859" y1="3393.1362" x2="-6461.4243" y2="3382.6382" gradientTransform="matrix(-0.3085 0.9512 0.9512 0.3085 -5168.0791 5119.4546)">
				<stop  offset="5.385320e-03" style="stop-color:#E78724"/>
				<stop  offset="0.9966" style="stop-color:#FAA847"/>
			</linearGradient>
			<path class="st38" d="M40.11,56.8c0.26-2.2,0.46-4.36,1.14-6.52c0.16-0.5,0.35-1.03,0.53-1.54c0.44-0.77,0.86-1.56,1.51-2.17
				c0.44-0.43,1.14-0.89,1.74-0.47c0.38,0.27,0.54,0.69,0.56,1.16c0.01,0.1,0.01,0.21-0.02,0.3c-0.5,0.77-1.02,1.58-1.5,2.4
				c-0.83,1.4-1.65,2.81-2.3,4.32c-0.39,0.83-0.77,1.66-1.23,2.45c-0.12,0.18-0.26,0.4-0.4,0.61C40.14,57.17,40.13,56.99,40.11,56.8
				z"/>
			
				<linearGradient id="SVGID_39_" gradientUnits="userSpaceOnUse" x1="-6427.3911" y1="3387.9172" x2="-6459.7124" y2="3377.4248" gradientTransform="matrix(-0.3085 0.9512 0.9512 0.3085 -5168.0791 5119.4546)">
				<stop  offset="5.385320e-03" style="stop-color:#E78724"/>
				<stop  offset="0.9966" style="stop-color:#FAA847"/>
			</linearGradient>
			<path class="st39" d="M35.87,42.68c0.44-0.81,1.57-1.26,2.06-0.22c0.31,0.65,0.42,1.36,0.48,2.07c0.17,2.07,0.25,4.16,0.43,6.23
				c0.18,2.07,0.39,4.12,0.58,6.19c-0.02,0.32-0.07,0.67-0.12,1.01c0.07-0.57-0.69-1.83-0.91-2.41c-0.3-0.81-0.6-1.65-0.87-2.46
				c-0.56-1.68-1.09-3.38-1.53-5.09c-0.24-0.91-0.47-1.83-0.69-2.72C35.32,44.34,35.48,43.41,35.87,42.68z"/>
			
				<linearGradient id="SVGID_40_" gradientUnits="userSpaceOnUse" x1="-6427.9004" y1="3382.3496" x2="-6465.9165" y2="3370.0085" gradientTransform="matrix(-0.3085 0.9512 0.9512 0.3085 -5168.0791 5119.4546)">
				<stop  offset="5.385320e-03" style="stop-color:#E78724"/>
				<stop  offset="0.9966" style="stop-color:#FAA847"/>
			</linearGradient>
			<path class="st40" d="M33.94,48.65c-0.21-0.21-0.26-0.45-0.3-0.73c-0.05-0.4-0.17-0.77-0.23-1.16c-0.87-3.16-1.36-6.41-1.82-9.65
				c-0.45-3.13-1-6.23-1.5-9.33c0-0.28,0-0.54,0-0.81c0-0.99,0.07-1.98,0.17-2.95c0.14-1.18,0.27-2.7,1.01-3.69
				c0.57-0.77,1.26-0.67,1.55,0.21c0.27,0.81,0.39,1.68,0.43,2.55c-0.1,0.75-0.19,1.48-0.27,2.23c-0.39,3.88-0.33,7.75,0,11.6
				c0.16,1.93,0.4,3.86,0.63,5.76c0.12,0.94,0.24,1.85,0.35,2.78c0.13,0.94,0.17,1.88,0.31,2.82l0.06,0.18
				C34.37,48.62,34.07,48.76,33.94,48.65z"/>
			
				<linearGradient id="SVGID_41_" gradientUnits="userSpaceOnUse" x1="-6454.8618" y1="3439.5652" x2="-6456.7666" y2="3438.9468" gradientTransform="matrix(-0.3085 0.9512 0.9512 0.3085 -5168.0791 5119.4546)">
				<stop  offset="5.385320e-03" style="stop-color:#E78724"/>
				<stop  offset="0.9966" style="stop-color:#FAA847"/>
			</linearGradient>
			<path class="st41" d="M94.84,40.69c0.63,0.07,1.19-0.46,1.14-1.09c-0.05-0.69-0.68-1.07-1.32-0.83c-0.31,0.1-0.64,0.4-0.68,0.71
				C93.76,40.02,94.23,40.63,94.84,40.69z"/>
			
				<linearGradient id="SVGID_42_" gradientUnits="userSpaceOnUse" x1="-6458.022" y1="3435.1333" x2="-6461.5498" y2="3433.988" gradientTransform="matrix(-0.3085 0.9512 0.9512 0.3085 -5168.0791 5119.4546)">
				<stop  offset="5.385320e-03" style="stop-color:#E78724"/>
				<stop  offset="0.9966" style="stop-color:#FAA847"/>
			</linearGradient>
			<path class="st42" d="M91.49,36.31c1.17,0.12,2.22-0.86,2.13-2.03c-0.09-1.28-1.26-1.97-2.44-1.54c-0.59,0.21-1.2,0.75-1.28,1.34
				C89.52,35.07,90.34,36.21,91.49,36.31z"/>
			
				<linearGradient id="SVGID_43_" gradientUnits="userSpaceOnUse" x1="-6459.0278" y1="3420.4431" x2="-6460.5635" y2="3419.9446" gradientTransform="matrix(-0.3085 0.9512 0.9512 0.3085 -5168.0791 5119.4546)">
				<stop  offset="5.385320e-03" style="stop-color:#E78724"/>
				<stop  offset="0.9966" style="stop-color:#FAA847"/>
			</linearGradient>
			<path class="st43" d="M77.96,30.83c0.5,0.04,0.97-0.39,0.92-0.89c-0.04-0.55-0.55-0.86-1.06-0.67c-0.25,0.1-0.51,0.32-0.56,0.58
				C77.1,30.29,77.46,30.79,77.96,30.83z"/>
			
				<linearGradient id="SVGID_44_" gradientUnits="userSpaceOnUse" x1="-6457.4058" y1="3414.0769" x2="-6457.9473" y2="3413.9011" gradientTransform="matrix(-0.3085 0.9512 0.9512 0.3085 -5168.0791 5119.4546)">
				<stop  offset="5.385320e-03" style="stop-color:#E78724"/>
				<stop  offset="0.9966" style="stop-color:#FAA847"/>
			</linearGradient>
			<path class="st44" d="M71.46,30.41c0.19,0.02,0.35-0.12,0.34-0.31c-0.03-0.21-0.21-0.3-0.39-0.25c-0.09,0.04-0.19,0.12-0.2,0.22
				C71.16,30.22,71.29,30.41,71.46,30.41z"/>
		</g>
		
			<linearGradient id="SVGID_45_" gradientUnits="userSpaceOnUse" x1="-6475.7944" y1="3383.365" x2="-6420.1426" y2="3383.365" gradientTransform="matrix(-0.3085 0.9512 0.9512 0.3085 -5168.0791 5119.4546)">
			<stop  offset="5.385320e-03" style="stop-color:#FFFFFF"/>
			<stop  offset="0.9977" style="stop-color:#565759"/>
		</linearGradient>
		<path class="st45" d="M37.89,58.58c-1.63-1.09-2.7-4.34-3.36-6c-1.09-2.82-1.89-5.72-2.67-8.64c-1.49-5.68-2.69-11.5-3.14-17.39
			c-0.42-5.47-0.4-11.2,1-16.55c0.93-3.57,2.8-8.54,6.98-9.28c2.54-0.44,5.03,0.57,7.24,1.91c0.34,0.55,0.6,1.19,0.77,1.95
			c0.71,3.04,0.05,6.29-0.6,9.29c-0.41,1.88-0.78,3.77-1.18,5.65c-0.95,4.61-1.93,9.21-2.4,13.92c-0.25,2.4-0.39,4.83-0.16,7.24
			c0.19,1.77,0.52,3.74,1.61,5.18c2.05,2.67,5.49,1.83,8.31,0.22c-1.94,2.33-3.95,4.61-5.71,7.08c-1.08,1.52-2.07,3.23-3.35,4.58
			C39.93,59.15,38.82,59.22,37.89,58.58z"/>
		
			<linearGradient id="SVGID_46_" gradientUnits="userSpaceOnUse" x1="-6460.5024" y1="3428.6289" x2="-6432.9917" y2="3407.1511" gradientTransform="matrix(-0.3085 0.9512 0.9512 0.3085 -5168.0791 5119.4546)">
			<stop  offset="5.385320e-03" style="stop-color:#FFFFFF"/>
			<stop  offset="0.9977" style="stop-color:#565759"/>
		</linearGradient>
		<path class="st46" d="M41.88,57.75c0.4-1.11,1.36-1.97,2.09-2.86c0.88-1.08,1.73-2.19,2.6-3.31c1.7-2.15,3.4-4.3,5.1-6.43
			c3.48-4.36,6.96-8.97,11.22-12.6c1.88-1.61,3.93-3.02,6.3-3.79c2.41-0.81,5-0.97,7.54-0.9c3.44,0.11,6.98,0.55,10.37,1.41
			c0.29,1.54-1.48,2.67-2.81,3.18c-3.46,1.36-7.26,1.37-10.7,2.81c-4.08,1.69-7.74,4.4-11.15,7.19c-3.14,2.58-6.41,5.54-7.89,9.43
			c-0.7,1.83-0.41,3.59,1.42,4.57c2.07,1.11,4.65,1.25,6.97,1.28c2.69,0.04,5.37-0.17,8.03-0.51c0.35-0.06,0.7-0.1,1.04-0.16
			c-4.1,1.4-8.33,2.49-12.55,3.14c-3.53,0.53-7.09,1.14-10.68,1.15c-1.73-0.02-3.56-0.1-5.23-0.54
			C42.07,60.41,41.37,59.13,41.88,57.75z"/>
	</g>
	<path class="st0" d="M0,58.97c-0.12-3.02,3.38-4.28,5.79-4.74c3.65-0.72,7.6-0.23,11.23,0.38c4.23,0.69,8.4,1.85,12.52,3
		c1.79,0.51,3.6,0.97,5.39,1.51c0.13,0.02,0.02,0.16-0.07,0.16c-4.13-0.77-8.14-2.07-12.21-3.08c-4.23-1.04-8.54-1.83-12.9-1.89
		c-1.63-0.02-3.23,0.11-4.82,0.51c-1.54,0.39-3.26,1.09-4.07,2.56c-0.79,1.44-0.09,3.16,0.83,4.36c0.91,1.19,2.3,2.15,3.82,2.39
		c0.35,0.07,0.06,0.47-0.22,0.45C2.67,64.23,0.1,61.65,0,58.97z"/>
	<g>
		<path class="st0" d="M34.77,64.93c0.27-0.36,0.42-0.71,0.38-1.16c-1,0.07-1.98-0.4-2.56-1.51c-0.53-1-0.57-2.24-0.3-3.33
			c0.23-0.99,0.81-1.72,1.46-2.43c0.02-0.03,0.03-0.04,0.04-0.04c-0.11,0.1-0.21,0.18-0.31,0.3c0.17-0.21,0.35-0.41,0.55-0.57
			c0.1-0.08,0.2-0.16,0.31-0.25c0.12-0.04,0.23-0.08,0.35-0.14c0.18-0.08,0.36-0.16,0.54-0.25c0.02,0,0.02,0,0.02,0
			c0.14-0.02,0.26-0.06,0.39-0.06c0.15-0.04,0.29-0.07,0.44-0.08c0.45-0.02,1.04-0.02,1.41,0.31c0.02,0.02,0.03,0.06,0.05,0.06
			c0.21,0.11,0.41,0.25,0.6,0.39c0.23-0.43,0.29-0.89,0.43-1.36c0.03-0.14,0.32-0.18,0.27-0.03c-0.04,0.23-0.06,0.43-0.06,0.65
			c-0.02,0.33,0.07,0.47,0.37,0.35c0.43-0.14,0.81-0.24,1.22-0.04c0.08,0.04,0.07,0.15,0,0.21c-0.16,0.12-0.36,0.21-0.49,0.35
			c0.72-0.03,1.64-0.06,2.21,0.4c0.05,0.04,0.03,0.12,0,0.16c-0.33,0.35-0.85,0.44-1.16,0.75c0.04,0,0.07-0.02,0.1-0.02
			c0.3-0.03,0.59,0,0.89,0.04c0.07,0,0.11,0.1,0.09,0.16c-0.26,0.43-0.72,0.69-0.95,1.12c0.35-0.04,0.76-0.39,1.01-0.55
			c0.15-0.1,0.35-0.02,0.25,0.16c-0.16,0.22-0.34,0.43-0.52,0.61c3.79,0.36,7.56,0.87,11.31,1.6c3.79,0.73,7.51,1.79,11.03,3.45
			c2.87,1.36,5.93,3.12,7.96,5.62c1.07,1.32,1.94,3.14,0.27,4.36c-1.47,1.07-3.65,1.21-5.4,1.28c-2.41,0.08-4.81-0.25-7.14-0.79
			c-3.56-0.87-6.95-2.34-10.23-3.93c-1.7-0.84-3.36-1.71-4.96-2.68c-1.64-0.97-3.13-2.15-4.76-3.08c-0.29-0.17-0.56-0.31-0.85-0.45
			c0.07,0.45,0.23,0.86,0.23,1.34c0,0.08-0.08,0.14-0.19,0.17c-0.33,0.02-0.57-0.17-0.75-0.45c-0.12-0.18-0.24-0.36-0.36-0.54
			c-0.07-0.08-0.09-0.18-0.12-0.29c-0.04,0.25-0.06,0.49-0.05,0.72c0.01,0.32,0.07,0.61,0.01,0.93c-0.03,0.1-0.16,0.17-0.26,0.12
			c-0.35-0.16-0.56-0.37-0.76-0.68c-0.16-0.26-0.19-0.54-0.21-0.83c-0.06,0.26-0.07,0.57-0.26,0.8c-0.04,0.06-0.14,0.1-0.22,0.06
			c-0.47-0.33-0.3-0.87-0.51-1.32c-0.19,0.22-0.4,0.4-0.64,0.54C34.82,65.16,34.68,65.03,34.77,64.93z"/>
		<path class="st47" d="M40.66,59.03c-0.03,0.08-0.02,0.16,0.09,0.18c0.23,0.04,0.47-0.02,0.69-0.12c0,0-0.02,0.02-0.03,0.02
			c-0.06,0-0.13,0.07-0.13,0.12c-0.21,0.21-0.42,0.39-0.6,0.63c-0.08,0.06-0.04,0.18,0.07,0.2c0.12,0.04,0.26,0.04,0.38,0.07
			c-0.32,0.04-0.64,0.1-0.79,0.35c-0.12,0.18-0.04,0.28,0.05,0.49c0.17,0.36,0.33,0.71,0.32,1.09c-0.26-0.12-0.54-0.26-0.85-0.26
			c-0.15-0.06-0.39,0.18-0.2,0.26l0.01,0.02c0.02,0.02,0.02,0.02,0.04,0.04c0.01,0.04,0.04,0.07,0.06,0.07
			c0.12,0.16,0.22,0.43,0.3,0.5c0.01,0.04,0.03,0.07,0.05,0.08c-0.16-0.08-0.32-0.18-0.53-0.18c-0.08,0-0.21,0.08-0.19,0.18
			c0.06,0.33,0.16,0.69,0.36,0.94c0.15,0.22,0.43,0.44,0.52,0.68c0.03,0.08-0.77-0.36-0.81-0.4c-0.14-0.12-0.27-0.24-0.43-0.35
			c-0.1-0.08-0.24-0.02-0.27,0.08c-0.03,0.12-0.05,0.22-0.05,0.35c-0.12,0.06-0.19,0.22-0.03,0.29c0.02,0,0.02,0,0.03,0.02
			c0.02,0.44,0.17,0.87,0.22,1.36c-0.57-0.18-0.75-1.3-0.95-1.66c-0.08-0.14-0.26-0.04-0.3,0.08c-0.1,0.39-0.19,0.77-0.21,1.18
			c-0.02,0.26,0.04,0.53,0.04,0.81c-0.63-0.4-0.5-1.01-0.74-1.68c-0.03-0.12-0.2-0.07-0.25,0c-0.26,0.31-0.19,0.71-0.34,1.05
			c-0.29-0.32-0.16-0.93-0.44-1.3c-0.06-0.06-0.18-0.02-0.23,0.04c-0.08,0.11-0.15,0.16-0.23,0.25c0.11-0.22,0.12-0.47,0.06-0.73
			c0.77-0.08,1.55-0.44,2.19-1.05c0.96-0.9,1.41-1.87,1.48-3.18c0.05-1.01,0.05-2.41-0.73-3.21c0.08-0.02,0.14-0.1,0.06-0.14
			c0.07,0.04,0.15-0.1,0.21-0.28c0.04,0.07,0.07,0.14,0.15,0.18c0.1,0.08,0.24,0.06,0.36,0.02c0.31-0.12,0.63-0.26,0.95-0.18
			c-0.21,0.12-0.4,0.25-0.49,0.49c-0.03,0.08,0.02,0.16,0.11,0.16c0.46-0.02,0.92-0.06,1.37,0.06c0.17,0.03,0.91,0.19,0.44,0.41
			c-0.44,0.18-0.78,0.35-0.99,0.79c-0.03,0.04-0.02,0.12,0.04,0.14c0.1,0.04,0.17,0.06,0.26,0c0.21-0.14,0.55-0.1,0.82-0.06
			C41.28,58.28,40.83,58.51,40.66,59.03z"/>
		<path class="st48" d="M48.7,69.78c-1.7-0.83-3.36-1.79-4.95-2.8c-1.16-0.75-2.26-1.58-3.44-2.27c0.03,0,0.06-0.02,0.09-0.04
			c0.22-0.12,0.26-0.3,0.09-0.53c-0.28-0.43-0.58-0.75-0.73-1.23c0.29,0.1,0.52,0.34,0.86,0.34c0.1,0,0.26-0.16,0.16-0.26
			c-0.26-0.24-0.46-0.5-0.63-0.81c0.21,0.08,0.4,0.2,0.6,0.26c0.1,0.04,0.25-0.03,0.27-0.14c0.11-0.47-0.03-0.91-0.24-1.34
			c-0.07-0.17-0.28-0.4,0.07-0.47c0.12-0.02,0.26-0.04,0.4-0.06c0.14-0.03,0.28-0.04,0.41-0.08c0.12-0.02,0.23-0.14,0.13-0.25
			c-0.17-0.22-0.41-0.24-0.67-0.28c0.14-0.18,0.31-0.33,0.48-0.49c6.96,0.93,14.05,1.66,20.57,4.36c2.88,1.19,5.84,2.73,8.16,4.85
			c1.08,0.97,3.84,3.63,2.1,5.17c-1.42,1.26-3.84,1.33-5.63,1.37c-2.6,0.06-5.15-0.35-7.64-1.04C55.5,73.03,52.08,71.47,48.7,69.78z
			"/>
		<path class="st49" d="M50.47,70.64c-0.6-0.29-1.19-0.57-1.77-0.86c-0.8-0.4-1.59-0.81-2.36-1.23c0.44-2.92,1.39-5.84,3.19-8.11
			c1.32,0.2,2.63,0.44,3.93,0.71C51.36,63.68,50.52,67.26,50.47,70.64z"/>
		<path class="st49" d="M63.11,64.12c-1.43,1.32-2.39,3.45-2.91,5.16c-0.47,1.44-0.86,3.18-0.76,4.85c-0.1-0.03-0.19-0.07-0.29-0.08
			c-1.6-0.44-3.15-1-4.68-1.62c0.16-1.85,0.68-3.71,1.28-5.36c0.57-1.52,1.35-3.37,2.53-4.72c1.31,0.38,2.62,0.83,3.88,1.36
			C62.48,63.84,62.81,63.98,63.11,64.12z"/>
		<path class="st49" d="M68.1,66.8c0.77,0.53,1.53,1.11,2.21,1.75c1.08,0.97,3.84,3.63,2.1,5.17c-1.42,1.26-3.84,1.33-5.63,1.37
			c-0.64,0.02-1.27,0-1.9-0.04C64.94,72.04,66.1,69.05,68.1,66.8z"/>
		<path class="st49" d="M45.54,60.75c-0.69,0.87-1.14,1.85-1.52,2.86c-0.37,0.95-0.7,1.93-0.92,2.92c-0.93-0.61-1.83-1.26-2.78-1.83
			c0.03,0,0.06-0.02,0.09-0.04c0.22-0.12,0.26-0.3,0.09-0.53c-0.28-0.43-0.58-0.75-0.73-1.23c0.29,0.1,0.52,0.34,0.86,0.34
			c0.1,0,0.26-0.16,0.16-0.26c-0.26-0.24-0.46-0.5-0.63-0.81c0.21,0.08,0.4,0.2,0.6,0.26c0.1,0.04,0.25-0.03,0.27-0.14
			c0.11-0.47-0.03-0.91-0.24-1.34c-0.07-0.17-0.28-0.4,0.07-0.47c0.12-0.02,0.26-0.04,0.4-0.06c0.14-0.03,0.28-0.04,0.41-0.08
			c0.12-0.02,0.23-0.14,0.13-0.25c-0.17-0.22-0.41-0.24-0.67-0.28c0.14-0.18,0.31-0.33,0.48-0.49c1.54,0.2,3.1,0.4,4.65,0.61
			C45.99,60.23,45.76,60.49,45.54,60.75z"/>
		<path class="st48" d="M43.69,59.68c-0.24,0.02-0.5,0.04-0.73,0c-0.1,0-0.07-0.08-0.03-0.16c0.44,0.06,0.89,0.12,1.33,0.16
			C44.08,59.68,43.9,59.68,43.69,59.68z"/>
		<path class="st49" d="M64.43,74.7c0.2-0.33,0.47-0.41,0.8-0.55c1-0.47,0.92-1.76,0.71-2.67c-0.32-1.4-1.5-2.46-2.49-3.41
			c-0.47-0.47-1.18-0.49-1.7-0.87c-0.52-0.37-0.73-1.02-1.26-1.37c-0.36-0.24-0.74-0.36-1.15-0.49c-0.49-0.14-0.82-0.4-1.13-0.81
			c-0.39-0.51-0.66-0.73-1.27-0.94c-0.68-0.22-1.37-0.38-2.06-0.58c-0.77-0.25-1.52-0.53-2.3-0.77c-0.87-0.3-1.76-0.58-2.65-0.87
			c-0.76-0.22-1.46-0.57-2.21-0.83c-0.6-0.22-2.92,0.16-2.95-0.71c-0.01-0.04-0.01-0.07-0.02-0.07c5.92,0.77,11.87,1.65,17.41,3.94
			c2.88,1.19,5.84,2.73,8.16,4.85c1.08,0.97,3.84,3.63,2.1,5.17c-1.42,1.26-3.84,1.33-5.63,1.37c-0.83,0.02-1.65-0.03-2.49-0.08
			C64.32,74.88,64.36,74.79,64.43,74.7z"/>
		<path class="st50" d="M61.7,73.26c0.44,0.1,1.17,0.32,1.6,0.04c0.54-0.35-0.31-1.12-0.56-1.34c-1.29-1.01-2.85-1.83-4.32-2.56
			c-1.71-0.85-3.5-1.55-5.23-2.35c-1.75-0.81-3.52-1.72-4.89-3.1c-0.94-0.93-1.91-2.02-3.3-2.21c-1.07-0.12-2.22,0.18-2.92,1.05
			c-0.44,0.53-0.53,1.15-0.09,1.72c0.64,0.83,1.6,1.3,2.58,1.7c0.61,0.3,1.24,0.59,1.83,0.86c2.84,1.32,5.67,2.66,8.54,3.85
			C57.12,71.83,59.38,72.77,61.7,73.26z"/>
	</g>
	<g>
		<g>
			<path class="st0" d="M44.19,62.8c2.44,0.81,5.2-2.01,6.96-3.31c3.05-2.25,6.32-4.13,9.55-6.12c3.23-2.03,6.37-4.18,9.55-6.25
				c2.8-1.81,6.07-3.75,8.11-6.44c3.74-4.93,1.45-10.89-1.18-15.78c-1.62-3.07-3.54-5.93-5.46-8.83c-1.72-2.62-3.48-5.43-5.77-7.6
				c-1.78-1.66-4.08-3.09-6.61-2.9c-2.08,0.15-3.93,1.18-5.44,2.58c-4.04,3.72-6.39,9.05-8.15,14.12
				c-2.31,6.67-3.47,13.75-3.99,20.8c-0.21,2.84-0.32,5.7-0.37,8.56c-0.03,2.15-0.47,7.2,1.1,9.78
				C42.93,62.06,43.46,62.57,44.19,62.8z"/>
			
				<linearGradient id="SVGID_47_" gradientUnits="userSpaceOnUse" x1="-5459.3643" y1="2013.5543" x2="-5525.2456" y2="2017.1742" gradientTransform="matrix(-0.5936 0.8048 0.8048 0.5936 -4820.8389 3253.636)">
				<stop  offset="5.385320e-03" style="stop-color:#1C0000"/>
				<stop  offset="0.9977" style="stop-color:#565759"/>
			</linearGradient>
			<path class="st51" d="M41.97,54.67c-0.15-3,0.01-6.02,0.2-9.03c0.38-5.87,1.09-11.77,2.52-17.49c1.32-5.33,3.17-10.77,6.19-15.38
				c2.02-3.08,5.36-7.24,9.55-6.59c3.51,0.53,6.07,3.61,8.01,6.33c1.95,2.72,3.84,5.48,5.65,8.32c1.89,3,3.76,6.15,4.82,9.55
				c0.91,2.86,1.17,5.9-0.5,8.56c-1.9,3.03-5.23,4.99-8.14,6.94c-3.15,2.12-6.21,4.35-9.37,6.41c-3.16,2.09-6.49,3.9-9.56,6.13
				c-1.51,1.09-2.98,2.41-4.62,3.28c-1.7,0.91-2.77,0.63-3.46-0.26C42.03,59.88,42.06,56.47,41.97,54.67z"/>
			<path class="st0" d="M47.13,66.15c2.72,1.58,5.79,2.56,8.86,3.24c6.51,1.47,13.15,2.23,19.82,2.27
				c6.54,0.04,13.12-0.58,19.44-2.31c2.78-0.75,5.66-1.58,8.18-3.02c2.1-1.19,4.35-2.94,4.92-5.44c1.16-5.13-4.04-9.32-7.79-11.8
				c-2.7-1.81-5.56-3.45-8.54-4.72c-2.93-1.28-6.22-2.44-9.48-2.34c-6.63,0.25-12.4,4.28-17.8,7.75
				c-5.77,3.69-11.51,7.42-17.19,11.27c-0.08,0.02-0.18,0.07-0.26,0.12c-0.17,0.14-0.38,0.29-0.57,0.44
				c-0.38,0.26-0.74,0.51-1.1,0.77c-0.16,0.1-0.02,0.24,0.14,0.22c-0.26,0.36-0.43,0.75-0.4,1.19
				C45.44,64.88,46.25,65.64,47.13,66.15z"/>
			
				<linearGradient id="SVGID_48_" gradientUnits="userSpaceOnUse" x1="-5499.1821" y1="2047.0189" x2="-5455.6646" y2="2047.0189" gradientTransform="matrix(-0.5936 0.8048 0.8048 0.5936 -4820.8389 3253.636)">
				<stop  offset="5.385320e-03" style="stop-color:#E78724"/>
				<stop  offset="0.9966" style="stop-color:#FAA847"/>
			</linearGradient>
			<path class="st52" d="M47.29,61.92c0.72-0.94,1.91-1.44,2.88-2.05c1.18-0.75,2.35-1.55,3.53-2.31c2.29-1.48,4.58-3,6.86-4.49
				c4.67-3.02,9.45-6.33,14.62-8.4c2.3-0.93,4.68-1.64,7.18-1.62c2.55,0,5.07,0.68,7.44,1.55c4.44,1.62,8.92,3.93,12.6,6.94
				c2.06,1.66,4.3,3.84,4.8,6.55c0.6,3.31-1.59,5.74-4.3,7.26c-2.71,1.51-5.79,2.46-8.77,3.23c-3.31,0.87-6.68,1.46-10.07,1.79
				c-6.87,0.69-14.07,0.61-20.88-0.54c-3.52-0.61-7.1-1.16-10.5-2.3c-1.64-0.54-3.34-1.19-4.8-2.17
				C46.65,64.49,46.38,63.07,47.29,61.92z"/>
			
				<linearGradient id="SVGID_49_" gradientUnits="userSpaceOnUse" x1="-5464.334" y1="2020.2164" x2="-5496.6577" y2="2009.7234" gradientTransform="matrix(-0.5936 0.8048 0.8048 0.5936 -4820.8389 3253.636)">
				<stop  offset="5.385320e-03" style="stop-color:#E78724"/>
				<stop  offset="0.9966" style="stop-color:#FAA847"/>
			</linearGradient>
			<path class="st53" d="M52.88,47.96c-0.61,1.32-1.53,2.49-2.41,3.65c-1.28,1.66-2.61,3.3-3.57,5.17
				c-0.05,0.08-0.08,0.16-0.13,0.26c0.26-1.28,0.53-2.58,0.91-3.85c0.51-1.88,1.02-3.78,1.66-5.62c0.36-1.04,0.76-2.05,1.14-3.06
				C52.65,43.64,53.74,46.07,52.88,47.96z"/>
			
				<linearGradient id="SVGID_50_" gradientUnits="userSpaceOnUse" x1="-5463.1504" y1="2016.7297" x2="-5495.6157" y2="2006.1906" gradientTransform="matrix(-0.5936 0.8048 0.8048 0.5936 -4820.8389 3253.636)">
				<stop  offset="5.385320e-03" style="stop-color:#E78724"/>
				<stop  offset="0.9966" style="stop-color:#FAA847"/>
			</linearGradient>
			<path class="st54" d="M56.9,17.52c0.66-0.72,2.99-2.62,3.86-1.11c0.72,1.23-1.16,3.49-1.85,4.4c-1.18,1.54-2.57,2.9-3.72,4.46
				c-2.77,3.77-5.23,7.97-6.36,12.58c-0.28,0.11-0.54,0.25-0.78,0.39c-0.69,0.44-1.13,1.01-1.51,1.62c0.36-0.58,0.44-1.66,0.62-2.33
				c0.21-0.79,0.45-1.59,0.71-2.38c0.52-1.6,1.12-3.2,1.76-4.77c1.3-3.1,2.86-6.08,4.67-8.9c0.85-1.34,1.56-2.76,2.6-3.93
				L56.9,17.52z"/>
			
				<linearGradient id="SVGID_51_" gradientUnits="userSpaceOnUse" x1="-5464.667" y1="2021.288" x2="-5497.0205" y2="2010.785" gradientTransform="matrix(-0.5936 0.8048 0.8048 0.5936 -4820.8389 3253.636)">
				<stop  offset="5.385320e-03" style="stop-color:#E78724"/>
				<stop  offset="0.9966" style="stop-color:#FAA847"/>
			</linearGradient>
			<path class="st55" d="M60.43,19.75c1.75-1.01,4.24-0.91,5.54,0.81c1.99,2.62-0.77,5.14-2.67,6.77c-2.89,2.5-5.65,4.83-7.9,7.96
				c-1.49,2.09-2.96,4.3-4.16,6.63c0.28-1.42,0.33-3.23-0.87-4c-0.23-0.16-0.49-0.22-0.76-0.22c1.67-6.45,5.94-11.7,10-16.88
				C59.82,20.57,60.12,20.21,60.43,19.75z"/>
			
				<linearGradient id="SVGID_52_" gradientUnits="userSpaceOnUse" x1="-5465.8374" y1="2024.8848" x2="-5498.1782" y2="2014.3861" gradientTransform="matrix(-0.5936 0.8048 0.8048 0.5936 -4820.8389 3253.636)">
				<stop  offset="5.385320e-03" style="stop-color:#E78724"/>
				<stop  offset="0.9966" style="stop-color:#FAA847"/>
			</linearGradient>
			<path class="st56" d="M67.88,30.72c-0.02,0.02-0.07,0.03-0.08,0.03c-0.1,0.07-0.13,0.15-0.14,0.23
				c-0.83,1.01-1.81,1.93-2.78,2.77c-4.25,3.75-8.16,7.73-11.02,12.58c-0.01-0.49-0.11-0.95-0.38-1.41
				c-0.61-0.95-1.44-1.4-2.38-1.33c0.79-1.7,1.78-3.32,2.76-4.91c1.28-2.05,2.66-4.1,4.29-5.9c1.49-1.62,3.21-2.96,4.87-4.38
				c1.21-1.04,2.65-2.13,3.51-3.51c0,0,0.01,0,0.01,0.02c0.98,0.24,2.53,0.71,2.87,1.82c0.26,0.86-0.04,1.73-0.48,2.48
				C68.63,29.74,68.27,30.22,67.88,30.72z"/>
			
				<linearGradient id="SVGID_53_" gradientUnits="userSpaceOnUse" x1="-5467.4819" y1="2029.8724" x2="-5499.8047" y2="2019.3796" gradientTransform="matrix(-0.5936 0.8048 0.8048 0.5936 -4820.8389 3253.636)">
				<stop  offset="5.385320e-03" style="stop-color:#E78724"/>
				<stop  offset="0.9966" style="stop-color:#FAA847"/>
			</linearGradient>
			<path class="st57" d="M73.94,34.87c-0.36,2.27-2.07,3.93-3.75,5.33c-2.38,2.01-4.97,3.74-7.42,5.66
				c-1.16,0.89-2.3,1.83-3.35,2.84c-0.4,0.4-0.81,0.86-1.21,1.28c-0.07-0.14-0.17-0.3-0.28-0.44c-0.93-1.18-2.44-1.93-3.95-1.95
				c1.91-3.47,4.35-6.63,7.14-9.41c1.95-1.95,4.14-3.61,6.07-5.58c0.4-0.41,0.83-0.86,1.25-1.36C70.94,29.94,74.4,31.85,73.94,34.87
				z"/>
			
				<linearGradient id="SVGID_54_" gradientUnits="userSpaceOnUse" x1="-5465.3027" y1="2023.1802" x2="-5497.6294" y2="2012.686" gradientTransform="matrix(-0.5936 0.8048 0.8048 0.5936 -4820.8389 3253.636)">
				<stop  offset="5.385320e-03" style="stop-color:#E78724"/>
				<stop  offset="0.9966" style="stop-color:#FAA847"/>
			</linearGradient>
			<path class="st58" d="M45.93,60.45c0.92-1.98,1.79-3.99,3.12-5.8c1.27-1.76,2.79-3.42,3.88-5.33c0.18-0.3,0.36-0.67,0.53-1.05
				c1.6-0.07,3.86,1.14,4.2,2.49c-2.01,1.4-3.98,2.86-5.83,4.46c-1.23,1.05-2.44,2.16-3.53,3.35c-0.62,0.69-1.25,1.36-1.96,1.95
				c-0.17,0.16-0.36,0.31-0.56,0.46C45.83,60.82,45.87,60.63,45.93,60.45z"/>
			
				<linearGradient id="SVGID_55_" gradientUnits="userSpaceOnUse" x1="-5463.0791" y1="2016.3789" x2="-5495.4258" y2="2005.8783" gradientTransform="matrix(-0.5936 0.8048 0.8048 0.5936 -4820.8389 3253.636)">
				<stop  offset="5.385320e-03" style="stop-color:#E78724"/>
				<stop  offset="0.9966" style="stop-color:#FAA847"/>
			</linearGradient>
			<path class="st59" d="M49.93,44.02c-0.35,0.99-0.77,1.94-1.12,2.92c-0.9,2.47-1.63,5-2.2,7.56c-0.42,1.91-0.77,3.85-1.33,5.72
				c-0.17,0.37-0.34,0.71-0.51,1.08c0.26-0.53-0.07-1.97-0.09-2.58c-0.03-0.87-0.03-1.74-0.04-2.62c-0.01-1.79,0.04-3.56,0.16-5.32
				c0.15-2.3,0.27-4.58,0.81-6.81c0.46-1.83,1.31-4.44,3.16-5.28c1.22-0.55,1.89,0.02,1.93,1.3C50.75,41.41,50.39,42.72,49.93,44.02
				z"/>
			
				<linearGradient id="SVGID_56_" gradientUnits="userSpaceOnUse" x1="-5499.1821" y1="2047.0189" x2="-5455.6646" y2="2047.0189" gradientTransform="matrix(-0.5936 0.8048 0.8048 0.5936 -4820.8389 3253.636)">
				<stop  offset="5.385320e-03" style="stop-color:#1C0000"/>
				<stop  offset="0.9977" style="stop-color:#565759"/>
			</linearGradient>
			<path class="st60" d="M47.29,61.92c0.72-0.94,1.91-1.44,2.88-2.05c1.18-0.75,2.35-1.55,3.53-2.31c2.29-1.48,4.58-3,6.86-4.49
				c4.67-3.02,9.45-6.33,14.62-8.4c2.3-0.93,4.68-1.64,7.18-1.62c2.55,0,5.07,0.68,7.44,1.55c4.44,1.62,8.92,3.93,12.6,6.94
				c2.06,1.66,4.3,3.84,4.8,6.55c0.6,3.31-1.59,5.74-4.3,7.26c-2.71,1.51-5.79,2.46-8.77,3.23c-3.31,0.87-6.68,1.46-10.07,1.79
				c-6.87,0.69-14.07,0.61-20.88-0.54c-3.52-0.61-7.1-1.16-10.5-2.3c-1.64-0.54-3.34-1.19-4.8-2.17
				C46.65,64.49,46.38,63.07,47.29,61.92z"/>
			
				<linearGradient id="SVGID_57_" gradientUnits="userSpaceOnUse" x1="-5466.4683" y1="2024.3834" x2="-5492.4126" y2="2051.0515" gradientTransform="matrix(-0.5936 0.8048 0.8048 0.5936 -4820.8389 3253.636)">
				<stop  offset="5.385320e-03" style="stop-color:#E36726"/>
				<stop  offset="0.9966" style="stop-color:#FAA847"/>
			</linearGradient>
			<path class="st61" d="M83.91,50.31c-0.07,0.04-0.14,0.06-0.21,0.08c0,0.02-0.02,0.02-0.02,0.02c-1.17,0.53-2.48,0.86-3.04,1
				c-2.84,0.77-5.76,1.28-8.62,2.01c-4.62,1.19-9.19,2.59-13.64,4.34c-2.17,0.86-4.38,1.7-6.44,2.78c-1.77,0.94-3.48,1.97-5.2,2.98
				c-0.02-0.54,0.15-1.09,0.54-1.6c0.72-0.94,1.91-1.44,2.88-2.05c1.18-0.75,2.35-1.55,3.53-2.31c2.29-1.48,4.58-3,6.86-4.49
				c0.72-0.47,1.44-0.93,2.16-1.42c1.54-0.68,2.94-1.84,4.46-2.53c2.37-1.07,4.81-1.79,7.32-2.49c2.01-0.58,4.11-1.08,6.2-1.01
				c1.68,0.04,4.04,0.43,4.95,2.09C86.28,48.81,85.24,49.68,83.91,50.31z"/>
			
				<linearGradient id="SVGID_58_" gradientUnits="userSpaceOnUse" x1="-5464.3535" y1="2026.4338" x2="-5490.2969" y2="2053.1011" gradientTransform="matrix(-0.5936 0.8048 0.8048 0.5936 -4820.8389 3253.636)">
				<stop  offset="5.385320e-03" style="stop-color:#E78724"/>
				<stop  offset="0.9966" style="stop-color:#FAA847"/>
			</linearGradient>
			<path class="st62" d="M46.79,63.82c2.51-1.46,4.97-2.94,7.63-4.09c2.81-1.22,5.67-2.34,8.57-3.31c4.93-1.69,9.97-3.03,15.08-4.08
				c1.9-0.4,4.05-0.81,5.83-1.72h0.01c1.99-0.87,4.3-1.22,6.46-1.3c2.12-0.08,4.98-0.02,6.62,1.56c0.62,0.58,1.2,1.54,1.01,2.41
				c-0.17,0.79-0.8,1.34-1.48,1.7c-1.34,0.71-2.89,1.08-4.41,1.3c-0.12,0-0.22-0.03-0.3-0.04c-0.1-0.02-0.17,0.04-0.18,0.1
				c-0.26,0.04-0.49,0.07-0.72,0.11c-3.11,0.36-6.23,0.4-9.35,0.61c-3.54,0.22-7.08,0.5-10.6,0.95c-0.49,0.04-0.96,0.08-1.46,0.12
				c-0.07,0-0.12,0.07-0.12,0.11c-0.71,0.1-1.42,0.2-2.12,0.32c-3.58,0.61-7.15,1.38-10.68,2.35c-0.2,0.04-0.39,0.06-0.58,0.12
				c-0.05,0-0.09,0.04-0.11,0.08c-1.18,0.32-2.32,0.67-3.49,1.03c-1.4,0.45-2.72,1.04-4.07,1.62c-0.46,0.19-0.91,0.37-1.35,0.55
				C46.9,64.16,46.83,64.01,46.79,63.82z"/>
			
				<linearGradient id="SVGID_59_" gradientUnits="userSpaceOnUse" x1="-5459.1953" y1="2031.4614" x2="-5485.1353" y2="2058.1255" gradientTransform="matrix(-0.5936 0.8048 0.8048 0.5936 -4820.8389 3253.636)">
				<stop  offset="5.385320e-03" style="stop-color:#E36726"/>
				<stop  offset="0.9966" style="stop-color:#FAA847"/>
			</linearGradient>
			<path class="st63" d="M65.26,60.06c2.63-0.14,5.79-0.28,8.2,0.98c0.96,0.5,1.88,1.4,1.89,2.55c0.03,1.73-1.67,2.8-3.07,3.43
				c-3.27,1.52-7.1,2.23-10.67,2.49c-0.02,0-0.04,0-0.07,0c-2.98-0.51-5.98-1.05-8.86-2.01c-1.64-0.54-3.34-1.19-4.8-2.17
				c-0.32-0.22-0.58-0.49-0.77-0.77c1.09-0.43,2.16-0.91,3.23-1.38c1.65-0.71,3.4-1.18,5.12-1.66c0.38-0.12,0.77-0.22,1.15-0.33
				C59.46,60.66,62.34,60.23,65.26,60.06z"/>
			
				<linearGradient id="SVGID_60_" gradientUnits="userSpaceOnUse" x1="-5458.9272" y1="2031.7273" x2="-5484.8657" y2="2058.3892" gradientTransform="matrix(-0.5936 0.8048 0.8048 0.5936 -4820.8389 3253.636)">
				<stop  offset="5.385320e-03" style="stop-color:#E36726"/>
				<stop  offset="0.9966" style="stop-color:#FAA847"/>
			</linearGradient>
			<path class="st64" d="M71.91,58.24c2.95-0.11,6.01-0.04,8.87,0.72c2.31,0.63,5.44,2.21,4.59,5.15c-0.55,1.91-2.58,3-4.3,3.69
				c-1.79,0.73-3.63,1.18-5.54,1.47c-3.36,0.5-6.73,0.71-10.12,0.85c-0.75-0.08-1.49-0.21-2.23-0.32c-0.18-0.04-0.37-0.08-0.56-0.11
				c2.35-0.24,4.67-0.67,6.94-1.36c2.05-0.63,6.13-1.88,6.08-4.64c-0.03-2.27-2.29-3.25-4.19-3.65c-2.78-0.57-5.74-0.36-8.53-0.08
				c-1,0.1-1.98,0.25-2.97,0.39c0.6-0.16,1.21-0.29,1.82-0.43c3.06-0.69,6.16-1.23,9.27-1.65C71.33,58.26,71.61,58.26,71.91,58.24z"
				/>
			
				<linearGradient id="SVGID_61_" gradientUnits="userSpaceOnUse" x1="-5460.3076" y1="2030.3712" x2="-5486.25" y2="2057.0374" gradientTransform="matrix(-0.5936 0.8048 0.8048 0.5936 -4820.8389 3253.636)">
				<stop  offset="5.385320e-03" style="stop-color:#E36726"/>
				<stop  offset="0.9966" style="stop-color:#FAA847"/>
			</linearGradient>
			<path class="st65" d="M98.98,61.65c-0.09-0.07-0.2,0.02-0.24,0.1c-0.24,0.1-0.48,0.18-0.72,0.25c-1.42,0.44-2.89,0.67-4.37,0.79
				c-2.57,0.2-5.23,0.26-7.79-0.12c-0.04,0-0.09,0.02-0.12,0.02c-0.15-0.95-0.67-1.75-1.42-2.37c-2-1.66-5.04-2.03-7.53-2.23
				c-0.96-0.08-1.95-0.12-2.93-0.12c0.35-0.04,0.7-0.08,1.05-0.12c4.11-0.4,8.24-0.54,12.34-0.81c1.62-0.11,3.25-0.22,4.84-0.47
				c2.4,0.25,10.92,0.14,8.86,3.53c-0.45,0.75-1.18,1.23-1.96,1.56C98.98,61.65,98.98,61.65,98.98,61.65z"/>
			
				<linearGradient id="SVGID_62_" gradientUnits="userSpaceOnUse" x1="-5456.5874" y1="2034.0129" x2="-5482.521" y2="2060.6702" gradientTransform="matrix(-0.5936 0.8048 0.8048 0.5936 -4820.8389 3253.636)">
				<stop  offset="5.385320e-03" style="stop-color:#E36726"/>
				<stop  offset="0.9966" style="stop-color:#FAA847"/>
			</linearGradient>
			<path class="st66" d="M98.95,62.01c1.23,0.79-0.14,1.87-1.03,2.44c-1.23,0.75-2.58,1.36-3.91,1.87c-1.79,0.67-3.7,0.89-5.56,1.11
				c-2.6,0.31-5.23,0.51-7.81,0.94c1.28-0.47,2.48-1.1,3.49-1.95c1.05-0.9,1.81-2.07,1.65-3.49h0.01c2.86,0.43,5.86,0.36,8.7,0.02
				C95.81,62.8,97.53,62.61,98.95,62.01z"/>
			
				<linearGradient id="SVGID_63_" gradientUnits="userSpaceOnUse" x1="-5499.2021" y1="2027.4393" x2="-5455.6709" y2="2027.4393" gradientTransform="matrix(-0.5936 0.8048 0.8048 0.5936 -4820.8389 3253.636)">
				<stop  offset="5.385320e-03" style="stop-color:#E78724"/>
				<stop  offset="0.9966" style="stop-color:#FAA847"/>
			</linearGradient>
			<path class="st67" d="M61.08,52.72c0.12-0.06,0.25-0.12,0.35-0.18c0.58-0.26,1.17-0.55,1.79-0.71c0.15-0.03,1.87-0.25,1.83,0.07
				c-0.16,1.04-1.08,1.81-1.88,2.39c-1,0.72-2.09,1.3-3.21,1.83c-2.16,1.04-4.39,1.87-6.48,3.09c-2.27,1.32-4.46,2.84-6.74,4.18
				c0-0.51,0.17-1.02,0.55-1.48c0.72-0.94,1.91-1.44,2.88-2.05c1.18-0.75,2.35-1.55,3.53-2.31c2.29-1.48,4.58-3,6.86-4.49
				C60.74,52.94,60.92,52.82,61.08,52.72z"/>
			
				<linearGradient id="SVGID_64_" gradientUnits="userSpaceOnUse" x1="-5499.1768" y1="2046.2568" x2="-5455.6978" y2="2046.2568" gradientTransform="matrix(-0.5936 0.8048 0.8048 0.5936 -4820.8389 3253.636)">
				<stop  offset="5.385320e-03" style="stop-color:#E78724"/>
				<stop  offset="0.9966" style="stop-color:#FAA847"/>
			</linearGradient>
			<path class="st68" d="M71.03,58c0.8-0.25,1.6-0.57,2.38-0.86c0.95-0.34,1.95-0.71,2.76-1.32c0.47-0.32,1.14-0.95,0.69-1.58
				c-0.59-0.79-1.68-1-2.61-1.01c-0.09,0-0.18,0.02-0.27,0.02c1.33-0.32,2.72-0.63,4.08-0.91c0.07-0.02,0.13-0.04,0.21-0.04
				c-0.08,0.08-0.02,0.25,0.12,0.21c2.87-0.77,6.06-1.76,9.06-1.36c1.33,0.2,3.4,1.14,2.67,2.9c-0.58,1.44-2.3,2.34-3.82,2.78
				c-1.59,0.08-3.17,0.14-4.76,0.25c-3.52,0.2-7.07,0.5-10.58,0.95C70.99,58.01,71.03,58.01,71.03,58z"/>
			
				<linearGradient id="SVGID_65_" gradientUnits="userSpaceOnUse" x1="-5499.2178" y1="2031.3436" x2="-5455.665" y2="2031.3436" gradientTransform="matrix(-0.5936 0.8048 0.8048 0.5936 -4820.8389 3253.636)">
				<stop  offset="5.385320e-03" style="stop-color:#E78724"/>
				<stop  offset="0.9966" style="stop-color:#FAA847"/>
			</linearGradient>
			<path class="st69" d="M48.39,64.2c3.53-0.3,6.91-1.94,10.49-1.83c1.28,0.03,6.15,0.73,4.44,3.05c-1.22,1.69-3.51,2.66-5.36,3.45
				h-0.01c-1.78-0.36-3.54-0.79-5.27-1.36c-1.64-0.54-3.34-1.19-4.8-2.17c-0.32-0.22-0.58-0.49-0.77-0.77
				c0.37-0.15,0.73-0.31,1.09-0.45C48.25,64.16,48.3,64.2,48.39,64.2z"/>
			
				<linearGradient id="SVGID_66_" gradientUnits="userSpaceOnUse" x1="-5499.1929" y1="2043.8231" x2="-5455.6719" y2="2043.8231" gradientTransform="matrix(-0.5936 0.8048 0.8048 0.5936 -4820.8389 3253.636)">
				<stop  offset="5.385320e-03" style="stop-color:#E78724"/>
				<stop  offset="0.9966" style="stop-color:#FAA847"/>
			</linearGradient>
			<path class="st70" d="M69.56,68.34c2.05-0.63,6.13-1.88,6.08-4.64c-0.03-2.27-2.29-3.25-4.19-3.65c-1.6-0.32-3.24-0.4-4.87-0.36
				c3.22-0.98,7.51-1.41,10.47,0.38c1.01,0.61,2.21,1.67,2.32,2.95c0.09,1-0.41,1.89-1.07,2.58c-1.64,1.68-3.93,2.72-6.09,3.57
				c-0.63,0.24-1.28,0.49-1.93,0.71c-1.61,0.12-3.24,0.21-4.86,0.26c-0.75-0.08-1.49-0.21-2.23-0.32c-0.18-0.04-0.37-0.08-0.56-0.11
				C64.97,69.46,67.29,69.03,69.56,68.34z"/>
			
				<linearGradient id="SVGID_67_" gradientUnits="userSpaceOnUse" x1="-5499.2026" y1="2051.6838" x2="-5455.6582" y2="2051.6838" gradientTransform="matrix(-0.5936 0.8048 0.8048 0.5936 -4820.8389 3253.636)">
				<stop  offset="5.385320e-03" style="stop-color:#E78724"/>
				<stop  offset="0.9966" style="stop-color:#FAA847"/>
			</linearGradient>
			<path class="st71" d="M85.75,62.68c-0.15-0.95-0.67-1.75-1.42-2.37c-1.94-1.6-4.84-2.01-7.28-2.21c1.84-0.18,3.71-0.28,5.58-0.16
				c1.71,0.1,3.63,0.28,5.23,0.97c0.93,0.39,1.87,0.91,2.62,1.6c0.31,0.28,0.85,0.77,0.81,1.25c-0.07,0.61-0.85,0.81-1.32,0.94
				c-0.11,0.02-0.14,0.16-0.1,0.24c-1.34,0-2.68-0.07-4-0.28C85.83,62.66,85.78,62.68,85.75,62.68z"/>
			
				<linearGradient id="SVGID_68_" gradientUnits="userSpaceOnUse" x1="-5499.1914" y1="2057.8176" x2="-5455.6611" y2="2057.8176" gradientTransform="matrix(-0.5936 0.8048 0.8048 0.5936 -4820.8389 3253.636)">
				<stop  offset="5.385320e-03" style="stop-color:#E78724"/>
				<stop  offset="0.9966" style="stop-color:#FAA847"/>
			</linearGradient>
			<path class="st72" d="M85.81,62.93c1.62,0.25,3.3,0.32,4.98,0.29c1.28,0.46,2.27,1.66,1.34,3.1c-0.17,0.24-0.35,0.46-0.56,0.67
				c-1.03,0.18-2.08,0.32-3.12,0.44c-2.6,0.31-5.23,0.51-7.81,0.94c1.28-0.47,2.48-1.1,3.49-1.95c1.05-0.9,1.81-2.07,1.65-3.49
				C85.78,62.93,85.79,62.93,85.81,62.93z"/>
			
				<linearGradient id="SVGID_69_" gradientUnits="userSpaceOnUse" x1="-5505.5298" y1="2001.2161" x2="-5508.2368" y2="2000.3374" gradientTransform="matrix(-0.5936 0.8048 0.8048 0.5936 -4820.8389 3253.636)">
				<stop  offset="5.385320e-03" style="stop-color:#E78724"/>
				<stop  offset="0.9966" style="stop-color:#FAA847"/>
			</linearGradient>
			<path class="st73" d="M57.39,10.54c-0.61-0.3-1.04-0.89-0.67-1.56c0.27-0.53,0.89-0.83,1.5-0.95c0.36-0.02,0.7,0.04,1,0.14
				c0.94,0.36,0.95,1.38,0.26,2.02C58.92,10.73,58.08,10.89,57.39,10.54z"/>
			
				<linearGradient id="SVGID_70_" gradientUnits="userSpaceOnUse" x1="-5506.3726" y1="2008.3043" x2="-5508.8804" y2="2007.4901" gradientTransform="matrix(-0.5936 0.8048 0.8048 0.5936 -4820.8389 3253.636)">
				<stop  offset="5.385320e-03" style="stop-color:#E78724"/>
				<stop  offset="0.9966" style="stop-color:#FAA847"/>
			</linearGradient>
			<path class="st74" d="M64.85,14.28c0.86-0.18,1.28-1.3,0.74-1.99c-0.05-0.08-0.13-0.16-0.19-0.22c0.03-0.04,0.04-0.1-0.05-0.14
				c-0.87-0.49-2.35-0.12-2.3,1.08C63.09,13.92,64.01,14.46,64.85,14.28z"/>
			
				<linearGradient id="SVGID_71_" gradientUnits="userSpaceOnUse" x1="-5505.4834" y1="2014.6429" x2="-5507.0469" y2="2014.1353" gradientTransform="matrix(-0.5936 0.8048 0.8048 0.5936 -4820.8389 3253.636)">
				<stop  offset="5.385320e-03" style="stop-color:#E78724"/>
				<stop  offset="0.9966" style="stop-color:#FAA847"/>
			</linearGradient>
			<path class="st75" d="M68.85,18.73c0.53-0.07,1.01-0.68,0.74-1.2c-0.19-0.36-0.53-0.43-0.86-0.32c-0.29-0.02-0.58,0.26-0.63,0.57
				C68.05,18.24,68.32,18.81,68.85,18.73z"/>
			
				<linearGradient id="SVGID_72_" gradientUnits="userSpaceOnUse" x1="-5500.27" y1="2024.0675" x2="-5504.3496" y2="2022.7432" gradientTransform="matrix(-0.5936 0.8048 0.8048 0.5936 -4820.8389 3253.636)">
				<stop  offset="5.385320e-03" style="stop-color:#E78724"/>
				<stop  offset="0.9966" style="stop-color:#FAA847"/>
			</linearGradient>
			<path class="st76" d="M72.87,28.42c1.23,0.55,2.74-0.14,3.06-1.46c0.35-1.42-0.67-2.62-2.12-2.58c-0.72,0-1.56,0.39-1.9,1.02
				C71.12,26.33,71.63,27.87,72.87,28.42z"/>
			
				<linearGradient id="SVGID_73_" gradientUnits="userSpaceOnUse" x1="-5496.189" y1="2031.5701" x2="-5498.1787" y2="2030.9242" gradientTransform="matrix(-0.5936 0.8048 0.8048 0.5936 -4820.8389 3253.636)">
				<stop  offset="5.385320e-03" style="stop-color:#E78724"/>
				<stop  offset="0.9966" style="stop-color:#FAA847"/>
			</linearGradient>
			<path class="st77" d="M77.84,36.09c0.57-0.55,0.39-1.46-0.31-1.77c-0.27-0.12-0.57-0.12-0.81,0c-0.58,0.03-1.01,0.61-0.76,1.22
				C76.24,36.21,77.27,36.63,77.84,36.09z"/>
			
				<linearGradient id="SVGID_74_" gradientUnits="userSpaceOnUse" x1="-5490.0576" y1="2032.2816" x2="-5491.7202" y2="2031.7417" gradientTransform="matrix(-0.5936 0.8048 0.8048 0.5936 -4820.8389 3253.636)">
				<stop  offset="5.385320e-03" style="stop-color:#E78724"/>
				<stop  offset="0.9966" style="stop-color:#FAA847"/>
			</linearGradient>
			<path class="st78" d="M74,41.63c0.3-0.04,0.54-0.25,0.67-0.51c0.13-0.21,0.21-0.51,0.09-0.75c-0.02-0.04-0.06-0.08-0.09-0.1
				c-0.09-0.15-0.23-0.25-0.4-0.3c-0.65-0.15-1.55,0.5-1.09,1.19C73.34,41.45,73.64,41.71,74,41.63z"/>
			
				<linearGradient id="SVGID_75_" gradientUnits="userSpaceOnUse" x1="-5484.1816" y1="2030.2373" x2="-5485.8379" y2="2029.6997" gradientTransform="matrix(-0.5936 0.8048 0.8048 0.5936 -4820.8389 3253.636)">
				<stop  offset="5.385320e-03" style="stop-color:#E78724"/>
				<stop  offset="0.9966" style="stop-color:#FAA847"/>
			</linearGradient>
			<path class="st79" d="M68.88,45.16c0.28-0.07,0.53-0.26,0.67-0.53c0.11-0.21,0.21-0.51,0.08-0.73c-0.03-0.04-0.07-0.08-0.09-0.12
				c-0.09-0.14-0.22-0.25-0.4-0.28c-0.65-0.16-1.55,0.49-1.11,1.17C68.2,44.97,68.52,45.22,68.88,45.16z"/>
			
				<linearGradient id="SVGID_76_" gradientUnits="userSpaceOnUse" x1="-5477.7314" y1="2027.8818" x2="-5478.9985" y2="2027.4705" gradientTransform="matrix(-0.5936 0.8048 0.8048 0.5936 -4820.8389 3253.636)">
				<stop  offset="5.385320e-03" style="stop-color:#E78724"/>
				<stop  offset="0.9966" style="stop-color:#FAA847"/>
			</linearGradient>
			<path class="st80" d="M63.05,48.93c0.22-0.04,0.4-0.18,0.52-0.39c0.09-0.16,0.16-0.39,0.05-0.57c-0.01-0.04-0.03-0.06-0.06-0.08
				c-0.07-0.12-0.16-0.2-0.3-0.22c-0.51-0.12-1.19,0.37-0.84,0.91C62.56,48.79,62.78,48.99,63.05,48.93z"/>
			
				<linearGradient id="SVGID_77_" gradientUnits="userSpaceOnUse" x1="-5463.6563" y1="2011.0092" x2="-5501.6733" y2="1998.6677" gradientTransform="matrix(-0.5936 0.8048 0.8048 0.5936 -4820.8389 3253.636)">
				<stop  offset="5.385320e-03" style="stop-color:#E78724"/>
				<stop  offset="0.9966" style="stop-color:#FAA847"/>
			</linearGradient>
			<path class="st81" d="M43.07,50.7l0.02-0.21c0.15-0.93,0.42-1.84,0.6-2.76c0.17-0.91,0.35-1.83,0.54-2.74
				c0.38-1.91,0.77-3.79,1.23-5.68c0.91-3.78,2.07-7.46,3.67-11c1.61-3.6,3.65-7,5.28-10.59c0.38-0.81,0.77-1.62,1.04-2.48
				c0.21-0.69,0.49-1.68-0.12-2.23c-0.81-0.77-2.15,0.21-2.83,0.71c-1.38,1.04-2.5,2.38-3.35,3.88c-1.82,3.23-2.64,6.84-3.27,10.47
				c-0.63,3.65-1.15,7.32-1.83,11c-0.59,3.21-1.16,6.45-1.32,9.74c-0.07,0.39-0.07,0.77-0.15,1.16c-0.05,0.28-0.08,0.53,0.04,0.79
				C42.71,50.94,43.05,50.88,43.07,50.7z"/>
			
				<linearGradient id="SVGID_78_" gradientUnits="userSpaceOnUse" x1="-5464.1187" y1="2019.5414" x2="-5496.4365" y2="2009.0502" gradientTransform="matrix(-0.5936 0.8048 0.8048 0.5936 -4820.8389 3253.636)">
				<stop  offset="5.385320e-03" style="stop-color:#E78724"/>
				<stop  offset="0.9966" style="stop-color:#FAA847"/>
			</linearGradient>
			<path class="st82" d="M49.62,47.93c0.61-0.42,1.51-0.28,1.47,0.57c-0.04,0.79-0.42,1.55-0.78,2.24
				c-1.03,1.97-2.32,3.79-3.42,5.72c0.24-1.08,0.49-2.2,0.8-3.27c0.42-1.52,0.83-3.04,1.32-4.54C49.18,48.36,49.37,48.1,49.62,47.93
				z"/>
			
				<linearGradient id="SVGID_79_" gradientUnits="userSpaceOnUse" x1="-5462.6221" y1="2015.1073" x2="-5495.0913" y2="2004.5669" gradientTransform="matrix(-0.5936 0.8048 0.8048 0.5936 -4820.8389 3253.636)">
				<stop  offset="5.385320e-03" style="stop-color:#E78724"/>
				<stop  offset="0.9966" style="stop-color:#FAA847"/>
			</linearGradient>
			<path class="st83" d="M47.16,37.53c0.21-0.79,0.45-1.59,0.71-2.38c0.35-1.07,0.74-2.15,1.14-3.2c0.34-0.67,0.68-1.32,1.04-1.97
				c0.54-0.95,1.09-1.91,1.74-2.78c0.4-0.54,0.96-1.38,1.66-1.56c0.62-0.14,0.81,0.39,0.81,0.94c-1.72,2.47-3.25,5.09-4.35,7.89
				c-0.58,1.15-1.1,2.33-1.5,3.56c-0.13,0.07-0.26,0.15-0.37,0.21c-0.69,0.44-1.13,1.01-1.51,1.62
				C46.9,39.27,46.98,38.2,47.16,37.53z"/>
			
				<linearGradient id="SVGID_80_" gradientUnits="userSpaceOnUse" x1="-5462.9077" y1="2015.0593" x2="-5494.8296" y2="2004.6968" gradientTransform="matrix(-0.5936 0.8048 0.8048 0.5936 -4820.8389 3253.636)">
				<stop  offset="5.385320e-03" style="stop-color:#E78724"/>
				<stop  offset="0.9966" style="stop-color:#FAA847"/>
			</linearGradient>
			<path class="st84" d="M49.13,36.78c-0.11,0.36-0.21,0.71-0.3,1.07c-0.04,0.02-0.08,0.04-0.1,0.04
				C48.84,37.53,48.99,37.14,49.13,36.78z"/>
			
				<linearGradient id="SVGID_81_" gradientUnits="userSpaceOnUse" x1="-5463.9717" y1="2019.1305" x2="-5496.314" y2="2008.6313" gradientTransform="matrix(-0.5936 0.8048 0.8048 0.5936 -4820.8389 3253.636)">
				<stop  offset="5.385320e-03" style="stop-color:#E78724"/>
				<stop  offset="0.9966" style="stop-color:#FAA847"/>
			</linearGradient>
			<path class="st85" d="M49.89,36.74c1.23-2.76,2.59-5.56,4.6-7.83c0.79-0.89,1.63-1.65,2.68-2.19c0.63-0.35,2.26-1.2,2.81-0.35
				c0.89,1.36-0.54,3.28-1.42,4.26c-0.97,1.07-1.9,2.11-2.73,3.27c-1.03,1.42-2.07,2.88-2.85,4.44c-0.36,0.76-0.68,1.52-1.03,2.27
				c-0.25,0.43-0.49,0.87-0.72,1.33c0.28-1.42,0.33-3.23-0.87-4c-0.23-0.16-0.49-0.22-0.76-0.22C49.7,37.39,49.8,37.06,49.89,36.74z
				"/>
			
				<linearGradient id="SVGID_82_" gradientUnits="userSpaceOnUse" x1="-5464.9741" y1="2022.2264" x2="-5497.3159" y2="2011.7275" gradientTransform="matrix(-0.5936 0.8048 0.8048 0.5936 -4820.8389 3253.636)">
				<stop  offset="5.385320e-03" style="stop-color:#E78724"/>
				<stop  offset="0.9966" style="stop-color:#FAA847"/>
			</linearGradient>
			<path class="st86" d="M51.92,41.97c1.04-1.26,1.84-2.81,2.81-4.1c0.72-1,1.47-1.97,2.32-2.84c0.67-0.65,1.46-1.42,2.39-1.65
				c1.03-0.26,1.98,0.39,1.78,1.52c-0.25,1.28-1.04,2.45-1.79,3.51c-0.73,0.98-1.56,1.88-2.25,2.9c-0.28,0.44-0.57,0.89-0.83,1.33
				c-0.89,1.18-1.71,2.4-2.48,3.68c-0.01-0.49-0.11-0.95-0.38-1.41c-0.61-0.95-1.44-1.4-2.38-1.33
				C51.36,43.07,51.63,42.52,51.92,41.97z"/>
			
				<linearGradient id="SVGID_83_" gradientUnits="userSpaceOnUse" x1="-5466.7446" y1="2027.5885" x2="-5499.0503" y2="2017.1012" gradientTransform="matrix(-0.5936 0.8048 0.8048 0.5936 -4820.8389 3253.636)">
				<stop  offset="5.385320e-03" style="stop-color:#E78724"/>
				<stop  offset="0.9966" style="stop-color:#FAA847"/>
			</linearGradient>
			<path class="st87" d="M56.58,43.51c0.86-0.89,1.64-1.87,2.5-2.78c0.95-1,1.98-1.83,3.18-2.49c0.95-0.55,2.06-1.14,3.19-1.14
				c1.15-0.02,2.21,0.87,2.01,2.11c-0.31,2.09-2.39,3.68-3.83,5.05c-1.28,1.24-2.55,2.58-3.7,4c-0.17,0.14-0.33,0.31-0.49,0.44
				c-0.4,0.4-0.81,0.86-1.21,1.28c-0.07-0.14-0.17-0.3-0.28-0.44c-0.93-1.18-2.44-1.93-3.95-1.95
				C54.76,46.17,55.64,44.81,56.58,43.51z"/>
			
				<linearGradient id="SVGID_84_" gradientUnits="userSpaceOnUse" x1="-5464.8979" y1="2021.9454" x2="-5497.207" y2="2011.457" gradientTransform="matrix(-0.5936 0.8048 0.8048 0.5936 -4820.8389 3253.636)">
				<stop  offset="5.385320e-03" style="stop-color:#E78724"/>
				<stop  offset="0.9966" style="stop-color:#FAA847"/>
			</linearGradient>
			<path class="st88" d="M45.93,60.45c0.92-1.98,1.79-3.99,3.12-5.8c0.31-0.44,0.65-0.89,0.99-1.32c0.66-0.58,1.31-1.19,2.1-1.58
				c0.57-0.26,1.37-0.49,1.83,0.12c0.27,0.36,0.28,0.83,0.16,1.25c-0.03,0.11-0.07,0.21-0.1,0.29c-0.75,0.58-1.48,1.18-2.2,1.8
				c-1.23,1.05-2.44,2.16-3.53,3.35c-0.62,0.69-1.25,1.36-1.96,1.95c-0.17,0.16-0.36,0.31-0.56,0.46
				C45.83,60.82,45.87,60.63,45.93,60.45z"/>
			
				<linearGradient id="SVGID_85_" gradientUnits="userSpaceOnUse" x1="-5463.1953" y1="2016.7209" x2="-5495.563" y2="2006.2135" gradientTransform="matrix(-0.5936 0.8048 0.8048 0.5936 -4820.8389 3253.636)">
				<stop  offset="5.385320e-03" style="stop-color:#E78724"/>
				<stop  offset="0.9966" style="stop-color:#FAA847"/>
			</linearGradient>
			<path class="st89" d="M46.38,45.73c0.67-0.65,1.87-0.72,2.01,0.42c0.08,0.72-0.03,1.42-0.2,2.11c-0.5,2.03-1.1,4.03-1.57,6.07
				c-0.49,2.01-0.93,4.02-1.4,6.02c-0.14,0.32-0.28,0.63-0.44,0.95c0.26-0.53-0.07-1.97-0.09-2.58c-0.03-0.87-0.03-1.74-0.04-2.62
				c-0.01-1.79,0.04-3.56,0.16-5.32c0.06-0.93,0.12-1.87,0.19-2.8C45.32,47.13,45.77,46.29,46.38,45.73z"/>
			
				<linearGradient id="SVGID_86_" gradientUnits="userSpaceOnUse" x1="-5463.7031" y1="2011.1527" x2="-5501.7319" y2="1998.8075" gradientTransform="matrix(-0.5936 0.8048 0.8048 0.5936 -4820.8389 3253.636)">
				<stop  offset="5.385320e-03" style="stop-color:#E78724"/>
				<stop  offset="0.9966" style="stop-color:#FAA847"/>
			</linearGradient>
			<path class="st90" d="M42.64,50.76c-0.12-0.26-0.09-0.51-0.04-0.79c0.07-0.39,0.07-0.77,0.15-1.16c0.16-3.28,0.72-6.53,1.32-9.74
				c0.57-3.1,1.04-6.23,1.55-9.33c0.07-0.26,0.17-0.5,0.26-0.77c0.3-0.94,0.69-1.85,1.09-2.74c0.51-1.09,1.11-2.49,2.14-3.21
				c0.77-0.53,1.4-0.22,1.4,0.69c-0.01,0.86-0.16,1.7-0.4,2.58c-0.34,0.67-0.66,1.34-0.96,2.03c-1.6,3.53-2.76,7.22-3.67,11
				c-0.47,1.88-0.86,3.77-1.23,5.68c-0.19,0.91-0.36,1.83-0.54,2.74c-0.18,0.91-0.45,1.83-0.6,2.76l-0.02,0.21
				C43.05,50.88,42.71,50.94,42.64,50.76z"/>
			
				<linearGradient id="SVGID_87_" gradientUnits="userSpaceOnUse" x1="-5490.6758" y1="2068.3647" x2="-5492.5791" y2="2067.7466" gradientTransform="matrix(-0.5936 0.8048 0.8048 0.5936 -4820.8389 3253.636)">
				<stop  offset="5.385320e-03" style="stop-color:#E78724"/>
				<stop  offset="0.9966" style="stop-color:#FAA847"/>
			</linearGradient>
			<path class="st91" d="M102.95,62.48c0.57,0.26,1.27-0.07,1.42-0.69c0.16-0.65-0.31-1.22-0.99-1.19c-0.34,0-0.73,0.18-0.89,0.46
				C102.14,61.5,102.36,62.22,102.95,62.48z"/>
			
				<linearGradient id="SVGID_88_" gradientUnits="userSpaceOnUse" x1="-5493.8213" y1="2063.9312" x2="-5497.356" y2="2062.7834" gradientTransform="matrix(-0.5936 0.8048 0.8048 0.5936 -4820.8389 3253.636)">
				<stop  offset="5.385320e-03" style="stop-color:#E78724"/>
				<stop  offset="0.9966" style="stop-color:#FAA847"/>
			</linearGradient>
			<path class="st92" d="M101.16,57.29c1.06,0.46,2.36-0.12,2.64-1.28c0.3-1.22-0.57-2.25-1.84-2.23c-0.62,0.03-1.36,0.35-1.64,0.87
				C99.66,55.46,100.08,56.8,101.16,57.29z"/>
			
				<linearGradient id="SVGID_89_" gradientUnits="userSpaceOnUse" x1="-5494.8364" y1="2049.2488" x2="-5496.3755" y2="2048.7493" gradientTransform="matrix(-0.5936 0.8048 0.8048 0.5936 -4820.8389 3253.636)">
				<stop  offset="5.385320e-03" style="stop-color:#E78724"/>
				<stop  offset="0.9966" style="stop-color:#FAA847"/>
			</linearGradient>
			<path class="st93" d="M90.04,47.79c0.47,0.21,1.03-0.04,1.15-0.54c0.15-0.55-0.24-1-0.8-0.98c-0.26,0-0.59,0.14-0.71,0.39
				C89.4,47,89.58,47.59,90.04,47.79z"/>
			
				<linearGradient id="SVGID_90_" gradientUnits="userSpaceOnUse" x1="-5493.2124" y1="2042.8785" x2="-5493.7549" y2="2042.7025" gradientTransform="matrix(-0.5936 0.8048 0.8048 0.5936 -4820.8389 3253.636)">
				<stop  offset="5.385320e-03" style="stop-color:#E78724"/>
				<stop  offset="0.9966" style="stop-color:#FAA847"/>
			</linearGradient>
			<path class="st94" d="M84.02,45.34c0.15,0.08,0.36-0.03,0.39-0.18c0.06-0.21-0.08-0.37-0.27-0.35c-0.1,0-0.21,0.04-0.26,0.11
				C83.77,45.05,83.85,45.27,84.02,45.34z"/>
		</g>
		
			<linearGradient id="SVGID_91_" gradientUnits="userSpaceOnUse" x1="-5511.6016" y1="2012.175" x2="-5455.9463" y2="2012.175" gradientTransform="matrix(-0.5936 0.8048 0.8048 0.5936 -4820.8389 3253.636)">
			<stop  offset="5.385320e-03" style="stop-color:#FFFFFF"/>
			<stop  offset="0.9977" style="stop-color:#565759"/>
		</linearGradient>
		<path class="st95" d="M43.24,61.45c-1.21-1.56-1.18-4.97-1.28-6.77c-0.15-3,0.01-6.02,0.2-9.03c0.38-5.87,1.09-11.77,2.52-17.49
			c1.32-5.33,3.17-10.77,6.19-15.38c2.02-3.08,5.36-7.24,9.55-6.59c2.56,0.39,4.6,2.13,6.28,4.1c0.13,0.63,0.18,1.32,0.11,2.09
			c-0.3,3.13-1.95,5.97-3.51,8.63c-0.99,1.66-1.94,3.32-2.91,4.99c-2.37,4.08-4.75,8.16-6.67,12.44c-0.98,2.21-1.89,4.48-2.44,6.84
			c-0.4,1.72-0.71,3.7-0.12,5.42c1.09,3.21,4.63,3.47,7.81,2.84c-2.58,1.6-5.19,3.13-7.66,4.91c-1.51,1.09-2.98,2.41-4.62,3.28
			C45,62.62,43.93,62.34,43.24,61.45z"/>
		
			<linearGradient id="SVGID_92_" gradientUnits="userSpaceOnUse" x1="-5496.3257" y1="2057.4365" x2="-5468.8125" y2="2035.957" gradientTransform="matrix(-0.5936 0.8048 0.8048 0.5936 -4820.8389 3253.636)">
			<stop  offset="5.385320e-03" style="stop-color:#FFFFFF"/>
			<stop  offset="0.9977" style="stop-color:#565759"/>
		</linearGradient>
		<path class="st96" d="M47.29,61.92c0.72-0.94,1.91-1.44,2.88-2.05c1.18-0.75,2.35-1.55,3.53-2.31c2.29-1.48,4.58-3,6.86-4.49
			c4.67-3.02,9.45-6.33,14.62-8.4c2.3-0.93,4.68-1.64,7.18-1.62c2.55,0,5.07,0.68,7.44,1.55c3.23,1.18,6.45,2.72,9.4,4.6
			c-0.21,1.56-2.26,2.07-3.7,2.15c-3.69,0.19-7.32-0.99-11.04-0.72c-4.41,0.31-8.72,1.75-12.84,3.28
			c-3.82,1.44-7.85,3.23-10.49,6.45c-1.23,1.52-1.51,3.28-0.09,4.79c1.61,1.7,4.03,2.66,6.2,3.41c2.55,0.89,5.17,1.54,7.79,2.05
			c0.35,0.08,0.7,0.14,1.05,0.18c-4.35,0.04-8.71-0.26-12.9-0.97c-3.52-0.61-7.1-1.16-10.5-2.3c-1.64-0.54-3.34-1.19-4.8-2.17
			C46.65,64.49,46.38,63.07,47.29,61.92z"/>
	</g>
	<path class="st50" d="M37.14,62.8c1.26-1.19,2.26-3.88,1.27-5.56c-0.4-0.69-1.22-1.44-2.05-1.46c-0.71-0.02-1.45,0.29-1.98,0.73
		c0.07-0.02,0.15-0.02,0.22-0.04c-1.33,1.44-2.72,3.27-1.81,5.29C33.56,63.51,35.74,64.12,37.14,62.8z"/>
	<path class="st0" d="M34.2,63.54c1.66-0.43,1.31-3.04,0.58-4.08c-0.51-0.72-1.3-1.56-2.19-1.82c0-0.04-0.03-0.08-0.09-0.11
		c-0.68-0.28-1.54-0.08-1.87,0.65c-0.38,0.87-0.27,1.88,0.14,2.76C31.3,62.04,32.73,63.9,34.2,63.54z"/>
	<path d="M31.42,61.39c-0.4-0.65-0.77-1.48-0.66-2.27c0.06-0.45,0.16-1,0.6-1.24c0.33-0.2,0.62-0.17,0.94-0.12
		c0.86,0.23,1.58,0.98,2.05,1.7c0.58,0.94,1.05,2.85-0.06,3.61C33.33,63.72,31.87,62.14,31.42,61.39z"/>
	<path class="st97" d="M31.87,58.36c0.45,0,0.83,0.15,1.2,0.39c0.26,0.18,0.67,0.49,0.67,0.83c-0.01,0.08-0.15,0.11-0.21,0.08
		c-0.24-0.17-0.37-0.44-0.58-0.65c-0.31-0.28-0.7-0.49-1.1-0.57C31.78,58.44,31.83,58.36,31.87,58.36z"/>
	<path class="st97" d="M34.08,60.49c-0.02-0.06,0.03-0.14,0.03-0.22c0-0.04,0.09-0.04,0.1,0c0.01,0.04,0,0.12,0.05,0.12
		C34.39,60.49,34.13,60.66,34.08,60.49z"/>
</g>
</svg>
