<?xml version="1.0" encoding="utf-8"?>
<!-- Generator: Adobe Illustrator 24.1.1, SVG Export Plug-In . SVG Version: 6.00 Build 0)  -->
<svg version="1.1" id="Layer_1" xmlns="http://www.w3.org/2000/svg" xmlns:xlink="http://www.w3.org/1999/xlink" x="0px" y="0px"
	 viewBox="0 0 355.74 140.04" style="enable-background:new 0 0 355.74 140.04;" xml:space="preserve">
<style type="text/css">
	.st0{fill:#23E262;}
	.st1{fill:#1AA83F;}
	.st2{fill:#F9B233;}
	.st3{fill:#FFFFFF;}
	.st4{fill:#CF3736;}
	.st5{opacity:0.15;}
	.st6{clip-path:url(#SVGID_1_);}
	.st7{fill:#1D1715;}
	.st8{opacity:0.1;fill:#1D1D1B;}
	.st9{fill:#222220;}
	.st10{fill:#FDFDFD;}
	.st11{fill:#B2B2B2;}
	.st12{clip-path:url(#SVGID_2_);}
	.st13{clip-path:url(#SVGID_3_);}
</style>
<g>
	<path d="M13.24,92.46l-8.61-1.71c-3.08-0.61-5.07-3.61-4.46-6.69L8.96,40c0.6-3.08,3.6-5.08,6.67-4.47l8.61,1.71
		c3.08,0.62,5.08,3.61,4.46,6.69l-8.78,44.06C19.32,91.08,16.32,93.07,13.24,92.46z"/>
	<path class="st0" d="M13.68,90.6l-0.73,8.77c0.7,2.96,2.11,5.66,4.09,7.85c1.44,1.6,3.15,2.94,5.09,3.94
		c0.61,0.32,1.25,0.6,1.9,0.84l18.53,7.76h292.78l7.7-1c4.26-0.55,7.74-3.55,8.94-7.6c0.1-0.31,0.18-0.62,0.24-0.95l0.22-1.12
		l0.21-0.96l2.06-10.14l0.83-4.06c0.09-0.47,0.15-0.94,0.19-1.41c0.05-0.73,0.02-1.44-0.09-2.15c-0.08-0.62-0.22-1.25-0.43-1.85
		c-0.06-0.17-0.11-0.34-0.18-0.5c0-0.01-7.33-18.79-7.33-18.79c-0.34-0.87-0.75-1.66-1.19-2.4c-0.29-0.48-0.61-0.95-0.96-1.4
		c-0.62-0.81-1.32-1.56-2.1-2.23c-0.04-0.03-0.09-0.06-0.14-0.1c-0.42-0.35-0.86-0.7-1.31-1.01c-0.12-0.09-0.27-0.16-0.4-0.24
		c-0.38-0.23-0.77-0.48-1.17-0.7c-0.29-0.14-0.59-0.25-0.89-0.38c-0.26-0.12-0.51-0.25-0.8-0.35c-0.58-0.21-1.17-0.41-1.79-0.54
		L258.1,40.33c-1.44-0.58-2.81-1.33-4.06-2.29L220.02,8.86c-4.84-4.44-8.13-5.19-15.93-6.41c-43.2-3.34-95.87-3.2-139.35,0
		c-8.85,0-17.05,4.61-21.65,12.16c0,0-22.24,37.07-22.33,37.47l-0.49,2.16l-6.49,28.41l-0.09,0.42c-0.22,0.97-0.35,1.96-0.39,2.94
		C13.19,87.55,13.33,89.09,13.68,90.6z"/>
	<path class="st1" d="M163.61,103.22V8.65c0-1.97,1.63-3.55,3.59-3.49c12.74,0.4,24.99,1.05,36.34,1.92
		c7.59,1.19,9.61,1.79,13.32,5.21l0.15,0.14l28.5,24.44c3.41,2.93,5.37,7.19,5.37,11.69v54.67c0,2.96-2.4,5.36-5.36,5.36h-76.56
		C166.01,108.58,163.61,106.18,163.61,103.22z"/>
	<path d="M337.97,73.79l4.35,10.6c0.8,1.98,3.16,3.6,5.99,4.14c0.67,0.14,1.33,0.2,2,0.2l3.92-0.01c0.34,0,0.67-0.07,0.96-0.21
		c-0.06-0.17-0.11-0.34-0.18-0.5c0-0.01-7.33-18.79-7.33-18.79c-0.34-0.87-0.75-1.66-1.19-2.4c-0.29-0.48-0.61-0.95-0.96-1.4h-1.02
		c-2.69,0-4.93,1.03-6.14,2.84C337.33,69.83,337.18,71.86,337.97,73.79z"/>
	<path class="st2" d="M339.27,73.27l0.08,0.19l4.27,10.41c0.65,1.59,2.69,2.86,4.96,3.3c0.58,0.12,1.15,0.18,1.75,0.18l3.92-0.01
		c1.42,0,1.48-2.75-0.4-7.97c-1.51-4.17-2.75-6.43-4.37-10.24c-0.6-1.41-1.98-2.32-3.51-2.32h-1.43
		C340.16,66.82,337.87,69.88,339.27,73.27z"/>
	<path d="M22.13,111.16c0.61,0.32,1.25,0.6,1.9,0.84l18.53,7.76h292.78l7.7-1c4.26-0.55,7.74-3.55,8.94-7.6H22.13z"/>
	<path d="M327.92,119.76h7.43l7.7-1c4.26-0.55,7.74-3.55,8.94-7.6c0.1-0.31,0.18-0.62,0.24-0.95l0.22-1.12l0.21-0.96l2.06-10.14
		l0.83-4.06c0.09-0.47,0.15-0.94,0.19-1.41h-8.59c-6.74,0-12.66,4.46-14.53,10.94L327.92,119.76z"/>
	<path d="M12.63,97.54c0.33,5.34,0.33,7.15,3.73,10.29c4.04,3.72,26.21,11.93,26.21,11.93l-2.57-21.03
		c-1.91-7.48-8.66-12.72-16.38-12.72H13.28C13.19,87.55,12.63,97.54,12.63,97.54z"/>
	<path class="st2" d="M344.8,102.25c-0.39,2.15,0.37,3.89,1.69,3.89c1.32,0,2.7-1.74,3.09-3.89c0.39-2.15-0.37-3.89-1.69-3.89
		C346.57,98.37,345.19,100.11,344.8,102.25z"/>
	<path class="st2" d="M21.15,96.35c0.33,3.06-0.49,5.53-1.82,5.5c-1.33-0.03-2.68-2.53-3.01-5.6c-0.33-3.06,0.49-5.53,1.82-5.5
		C19.48,90.78,20.82,93.29,21.15,96.35z"/>
	<path d="M13.76,82.65h1.17c1.69,0,3.15-1.15,3.55-2.79l5.12-21.13c0.27-1.09,0.02-2.23-0.68-3.11c-0.65-0.84-1.62-1.33-2.67-1.38
		L13.76,82.65z"/>
	<path class="st3" d="M12.63,71.18l6.22,1.25l-1.72,7.1c-0.24,1.01-1.15,1.72-2.19,1.72h-1.42c-1.7,0-2.95-1.59-2.55-3.24
		L12.63,71.18z"/>
	<path class="st4" d="M15.91,57.62c0.29-1.17,1.34-2,2.55-2h1.6c1.46,0,2.53,1.36,2.19,2.78l-3.4,14.03l-6.22-1.25L15.91,57.62z"/>
	<path d="M255.84,119.76h70.25l-0.81-8.6l-0.52-5.53c-1.11-11.69-10.92-20.62-22.67-20.62H279.6c-11.9,0-21.78,9.16-22.7,21.02
		l-0.4,5.12L255.84,119.76z"/>
	<path class="st1" d="M104.99,4.86c12.35-0.58,18.63-0.2,30.3-0.2c6.93,0,13.81,0.07,20.6,0.21c2.23,0.05,4.01,1.87,4.01,4.1v95.78
		c0,2.12-1.72,3.83-3.83,3.83h-30.21c-1.81,0-3.32-1.38-3.49-3.18l-0.03-0.29c-1.38-14.56-13.6-25.68-28.22-25.68h-4.54
		c-5.65,0-10.23-4.58-10.23-10.23V48.94C79.33,48.94,91.9,5.48,104.99,4.86z"/>
	<g>
		<path d="M64.83,42.54l-27.25-0.63c-1.67-0.04-2.69-1.86-1.84-3.31c4.11-6.99,8.75-15.14,12.87-21.5
			c5.03-7.76,9.27-9.79,30.77-9.78c1.6,0,2.67,1.66,2,3.12c-3.93,8.52-10.48,21.44-14.49,30.78C66.54,42.04,65.73,42.56,64.83,42.54
			z"/>
	</g>
	<path d="M47.85,119.76h70.26l-0.82-8.6l-0.52-5.53c-1.1-11.69-10.92-20.62-22.66-20.62H71.61c-11.9,0-21.79,9.16-22.71,21.02
		l-0.39,5.12L47.85,119.76z"/>
	<path class="st3" d="M169.43,54.56l12.83,0.35c0.57,0.02,1.04-0.44,1.04-1.01v-2.49c0-0.55-0.44-1-0.98-1.01l-12.83-0.35
		c-0.57-0.02-1.04,0.44-1.04,1.01v2.49C168.45,54.1,168.88,54.55,169.43,54.56z"/>
	<path class="st3" d="M88.54,52.63l12.83,0.35c0.57,0.02,1.04-0.44,1.04-1.01v-2.49c0-0.55-0.44-1-0.99-1.01L88.6,48.11
		c-0.57-0.02-1.04,0.44-1.04,1.01v2.49C87.56,52.16,87.99,52.61,88.54,52.63z"/>
	<path class="st5" d="M3.9,65.36l349.7,37.7l-1.03,5.07l-0.21,0.96l-0.22,1.12c-0.07,0.33-0.14,0.64-0.24,0.95
		c-1.19,4.05-4.68,7.05-8.94,7.6l-7.7,1h-7.43h-1.82h-70.25H118.03H47.78H42.5c0,0-22.17-8.21-26.21-11.93
		c-3.41-3.14-3.41-4.94-3.73-10.29c0,0,0.14-2.47,0.29-5.14l-8.28-1.65c-3.08-0.61-5.07-3.61-4.46-6.69L3.9,65.36z"/>
	<g>
		<defs>
			<path id="SVGID_12_" d="M255.84,119.76c0,27.05,70.26,27.03,70.25,0l-0.81-8.6l-0.52-5.53c-1.11-11.69-10.92-20.62-22.67-20.62
				H279.6c-11.9,0-21.78,9.16-22.7,21.02l-0.4,5.12L255.84,119.76z"/>
		</defs>
		<clipPath id="SVGID_1_">
			<use xlink:href="#SVGID_12_"  style="overflow:visible;"/>
		</clipPath>
		<g class="st6">
			<g>
				<g>
					<path class="st7" d="M263.93,110.95c0.02,0.53,0.05,1.06,0.1,1.59l-1.44,0.13c0,0-0.52,0.41-1.06,0.88
						c-0.04,0.03-0.07,0.06-0.11,0.08c-0.06,0.06-0.12,0.11-0.18,0.16c0.11,0.89,0.26,1.76,0.46,2.62c0.03,0.16,0.06,0.31,0.1,0.46
						c0.08-0.09,0.16-0.17,0.24-0.25c0.34-0.35,0.57-0.58,0.57-0.58l1.89-0.4c0.11,0.52,0.23,1.04,0.37,1.55l-1.17,0.32l-0.21,0.06
						c0,0-0.13,0.14-0.33,0.36c-0.16,0.18-0.37,0.42-0.57,0.68c-0.04,0.04-0.07,0.08-0.1,0.11c-0.05,0.06-0.09,0.11-0.14,0.17
						c0.31,1.01,0.67,1.99,1.08,2.95c0.07-0.11,0.14-0.22,0.2-0.31c0.25-0.38,0.43-0.64,0.43-0.64l1.8-0.73
						c0.2,0.5,0.42,0.98,0.65,1.46l-1.29,0.6c0,0-0.36,0.56-0.72,1.19c-0.03,0.05-0.06,0.1-0.09,0.14
						c-0.03,0.07-0.06,0.12-0.09,0.18c0.48,0.94,1.01,1.84,1.57,2.71c0.05-0.12,0.1-0.23,0.14-0.34c0.03-0.06,0.06-0.13,0.08-0.19
						c0.15-0.3,0.24-0.51,0.24-0.51l1.65-1.03c0.28,0.45,0.57,0.9,0.87,1.33l-1.15,0.82c0,0-0.26,0.61-0.5,1.3
						c-0.02,0.05-0.03,0.1-0.05,0.14c-0.02,0.07-0.04,0.13-0.07,0.21c0.64,0.83,1.3,1.62,2.01,2.38c0.03-0.12,0.06-0.25,0.09-0.36
						c0.12-0.44,0.2-0.76,0.2-0.76l1.44-1.29c0.36,0.39,0.72,0.79,1.1,1.16l-1,1.02c0,0-0.14,0.66-0.27,1.37
						c-0.01,0.05-0.01,0.09-0.02,0.13c-0.01,0.08-0.02,0.15-0.03,0.23c0.76,0.7,1.56,1.37,2.4,2c0-0.12,0.02-0.25,0.02-0.37
						c0.03-0.46,0.07-0.79,0.07-0.79l1.18-1.51c0.42,0.33,0.85,0.64,1.29,0.95l-0.82,1.18c0,0-0.03,0.66-0.01,1.39l0,0.13
						c0.01,0.08,0.01,0.16,0,0.24c0.87,0.56,1.79,1.09,2.72,1.55c-0.02-0.13-0.03-0.25-0.04-0.36c-0.06-0.47-0.09-0.8-0.09-0.8
						l0.91-1.7c0.47,0.25,0.94,0.49,1.43,0.71l-0.6,1.32c0,0,0.02,0.19,0.07,0.47c0.04,0.24,0.1,0.56,0.16,0.88
						c0.01,0.05,0.02,0.1,0.03,0.15c0.01,0.07,0.03,0.15,0.04,0.21c0.95,0.41,1.94,0.76,2.94,1.07c-0.04-0.13-0.07-0.24-0.11-0.36
						c-0.13-0.43-0.22-0.74-0.22-0.74l0.61-1.86c0.51,0.17,1.01,0.31,1.53,0.45l-0.35,1.38c0,0,0.2,0.63,0.44,1.31
						c0.02,0.06,0.04,0.11,0.05,0.17c0.03,0.06,0.06,0.12,0.07,0.18c1.02,0.23,2.04,0.41,3.09,0.53c-0.06-0.12-0.12-0.23-0.17-0.32
						c-0.2-0.41-0.34-0.71-0.34-0.71l0.27-1.92c0.53,0.07,1.06,0.13,1.59,0.17l-0.11,1.41c0,0,0.31,0.59,0.68,1.22
						c0.02,0.04,0.05,0.08,0.06,0.12c0.04,0.07,0.08,0.14,0.12,0.2c0.24,0.02,0.48,0.03,0.73,0.04c0.8,0.02,1.6,0,2.39-0.05
						c-0.07-0.1-0.15-0.2-0.21-0.29c-0.27-0.37-0.47-0.65-0.47-0.65l-0.06-1.92c0.53-0.02,1.06-0.05,1.59-0.11l0.13,1.44
						c0,0,0.41,0.52,0.88,1.06c0.03,0.04,0.06,0.07,0.08,0.11c0.06,0.06,0.11,0.12,0.16,0.18c1.04-0.13,2.07-0.31,3.08-0.55
						c-0.09-0.09-0.18-0.17-0.26-0.25c-0.34-0.33-0.57-0.56-0.57-0.56l-0.4-1.89c0.52-0.11,1.04-0.23,1.55-0.37l0.38,1.39
						c0,0,0.14,0.13,0.36,0.33c0.18,0.16,0.42,0.37,0.68,0.57c0.04,0.04,0.08,0.07,0.11,0.1c0.06,0.05,0.11,0.09,0.17,0.14
						c1.01-0.31,1.99-0.67,2.95-1.08c-0.11-0.07-0.22-0.14-0.31-0.2c-0.38-0.25-0.65-0.43-0.65-0.43l-0.73-1.8
						c0.5-0.2,0.98-0.42,1.46-0.65l0.6,1.29c0,0,0.56,0.36,1.19,0.72c0.05,0.03,0.09,0.06,0.14,0.09c0.07,0.03,0.12,0.06,0.18,0.09
						c0.94-0.48,1.84-1.01,2.71-1.57c-0.12-0.05-0.23-0.1-0.34-0.14c-0.06-0.03-0.13-0.06-0.19-0.08c-0.31-0.15-0.51-0.24-0.51-0.24
						l-1.03-1.65c0.45-0.28,0.9-0.57,1.33-0.87l0.82,1.15c0,0,0.61,0.26,1.3,0.5c0.05,0.02,0.1,0.03,0.14,0.05
						c0.07,0.02,0.13,0.04,0.2,0.07c0.52-0.39,1.02-0.8,1.52-1.24c0.29-0.24,0.59-0.51,0.88-0.78c-0.15-0.04-0.27-0.06-0.36-0.09
						c-0.44-0.12-0.76-0.2-0.76-0.2l-1.29-1.44c0.39-0.36,0.79-0.72,1.16-1.1l1.02,1c0,0,0.66,0.14,1.37,0.27
						c0.05,0.01,0.09,0.01,0.13,0.02c0.08,0.01,0.15,0.02,0.23,0.03c0.7-0.76,1.37-1.56,2-2.4c-0.13,0-0.25-0.02-0.37-0.02
						c-0.46-0.03-0.79-0.07-0.79-0.07l-1.51-1.19c0.33-0.42,0.64-0.85,0.95-1.29l1.18,0.82c0,0,0.66,0.03,1.39,0.02l0.14,0
						c0.08-0.01,0.15-0.01,0.24,0c0.56-0.87,1.09-1.79,1.55-2.72c-0.13,0.02-0.25,0.03-0.36,0.05c-0.47,0.05-0.8,0.08-0.8,0.08
						l-1.7-0.91c0.25-0.47,0.49-0.94,0.71-1.43l1.32,0.6c0,0,0.19-0.02,0.47-0.07c0.24-0.04,0.56-0.1,0.88-0.16
						c0.05-0.01,0.1-0.02,0.15-0.03c0.07-0.01,0.15-0.03,0.21-0.04c0.41-0.95,0.76-1.94,1.07-2.94c-0.13,0.04-0.24,0.07-0.36,0.11
						c-0.43,0.13-0.74,0.22-0.74,0.22l-1.86-0.61c0.17-0.51,0.31-1.01,0.45-1.53l1.38,0.35c0,0,0.63-0.2,1.31-0.44
						c0.06-0.02,0.11-0.04,0.17-0.05c0.06-0.03,0.12-0.06,0.18-0.07c0.23-1.02,0.41-2.04,0.53-3.09c-0.12,0.06-0.23,0.12-0.32,0.17
						c-0.41,0.2-0.71,0.34-0.71,0.34l-1.92-0.27c0.07-0.53,0.13-1.06,0.17-1.59l1.41,0.11c0,0,0.59-0.31,1.22-0.68
						c0.04-0.02,0.08-0.05,0.12-0.06c0.07-0.04,0.14-0.08,0.2-0.12c0.02-0.24,0.03-0.48,0.04-0.73c0.02-0.8,0-1.6-0.05-2.39
						c-0.1,0.08-0.2,0.15-0.29,0.21c-0.37,0.27-0.65,0.47-0.65,0.47l-1.92,0.06c-0.02-0.53-0.05-1.06-0.11-1.59l1.44-0.13
						c0,0,0.52-0.41,1.06-0.88c0.04-0.03,0.07-0.06,0.11-0.08c0.06-0.06,0.12-0.11,0.18-0.16c-0.13-1.04-0.31-2.07-0.55-3.08
						c-0.09,0.09-0.17,0.18-0.25,0.26c-0.33,0.34-0.56,0.57-0.56,0.57l-1.89,0.4c-0.11-0.52-0.23-1.04-0.37-1.55l1.39-0.38
						c0,0,0.13-0.14,0.33-0.36c0.16-0.18,0.37-0.42,0.57-0.68c0.04-0.04,0.07-0.08,0.1-0.11c0.05-0.06,0.09-0.11,0.14-0.17
						c-0.31-1.01-0.67-1.98-1.08-2.95c-0.07,0.11-0.14,0.22-0.2,0.31c-0.25,0.38-0.43,0.65-0.43,0.65l-1.8,0.73
						c-0.2-0.5-0.42-0.98-0.65-1.46l1.29-0.6c0,0,0.36-0.56,0.72-1.19c0.03-0.05,0.06-0.1,0.09-0.14c0.03-0.07,0.06-0.12,0.09-0.18
						c-0.48-0.94-1.01-1.84-1.57-2.71c-0.05,0.12-0.1,0.23-0.14,0.34c-0.03,0.06-0.06,0.13-0.08,0.19
						c-0.15,0.31-0.24,0.51-0.24,0.51l-1.66,1.03c-0.28-0.45-0.57-0.9-0.87-1.33l1.15-0.82c0,0,0.26-0.61,0.5-1.3
						c0.02-0.05,0.03-0.1,0.05-0.14c0.02-0.07,0.04-0.13,0.07-0.2c-0.64-0.84-1.3-1.63-2.01-2.39c-0.01,0.04-0.02,0.09-0.03,0.12
						c-0.02,0.1-0.04,0.17-0.05,0.24c-0.12,0.44-0.2,0.76-0.2,0.76l-1.44,1.29c-0.36-0.39-0.72-0.79-1.1-1.16l1-1.02
						c0,0,0.14-0.66,0.27-1.37c0.01-0.05,0.01-0.09,0.02-0.13c0.01-0.08,0.02-0.15,0.03-0.23c-0.76-0.7-1.56-1.37-2.4-2
						c0,0.13-0.02,0.25-0.02,0.37c-0.03,0.46-0.07,0.79-0.07,0.79l-1.18,1.51c-0.42-0.33-0.85-0.64-1.29-0.95l0.82-1.18
						c0,0,0.03-0.66,0.01-1.39l0-0.13c-0.01-0.08-0.01-0.15,0-0.24c-0.87-0.56-1.79-1.09-2.72-1.55c0.02,0.13,0.03,0.25,0.04,0.36
						c0.06,0.47,0.09,0.8,0.09,0.8l-0.91,1.7c-0.47-0.25-0.94-0.49-1.43-0.71l0.6-1.32c0,0-0.02-0.19-0.07-0.47
						c-0.04-0.24-0.1-0.56-0.16-0.88c-0.01-0.05-0.02-0.1-0.02-0.15c-0.01-0.07-0.03-0.15-0.04-0.21c-0.95-0.41-1.94-0.76-2.94-1.07
						c0.04,0.13,0.07,0.24,0.11,0.36c0.13,0.43,0.22,0.74,0.22,0.74l-0.61,1.86c-0.51-0.17-1.01-0.31-1.53-0.45l0.35-1.38
						c0,0-0.2-0.63-0.44-1.31c-0.02-0.06-0.04-0.11-0.05-0.17c-0.03-0.06-0.05-0.12-0.07-0.18c-1.02-0.23-2.04-0.41-3.09-0.53
						c0.06,0.12,0.12,0.22,0.16,0.32c0.2,0.41,0.34,0.71,0.34,0.71l-0.27,1.92c-0.53-0.07-1.06-0.13-1.59-0.17l0.11-1.41
						c0,0-0.31-0.59-0.68-1.22c-0.02-0.04-0.05-0.08-0.06-0.12c-0.04-0.07-0.08-0.14-0.12-0.2c-0.24-0.02-0.48-0.03-0.73-0.04
						c-0.8-0.02-1.6,0-2.39,0.05c0.07,0.1,0.15,0.2,0.21,0.29c0.27,0.37,0.47,0.65,0.47,0.65l0.06,1.92
						c-0.53,0.02-1.06,0.05-1.59,0.11l-0.13-1.44c0,0-0.41-0.52-0.88-1.06c-0.03-0.04-0.06-0.07-0.08-0.11
						c-0.06-0.06-0.11-0.12-0.16-0.18c-1.04,0.13-2.07,0.31-3.08,0.55c0.09,0.09,0.18,0.17,0.26,0.25c0.34,0.33,0.57,0.56,0.57,0.56
						l0.4,1.89c-0.52,0.11-1.04,0.23-1.55,0.37l-0.38-1.39c0,0-0.14-0.13-0.36-0.33c-0.18-0.16-0.42-0.37-0.68-0.57
						c-0.04-0.04-0.08-0.07-0.11-0.1c-0.06-0.05-0.11-0.09-0.17-0.14c-1.01,0.31-1.99,0.67-2.95,1.08c0.11,0.07,0.22,0.14,0.31,0.2
						c0.38,0.25,0.65,0.43,0.65,0.43l0.73,1.8c-0.5,0.2-0.98,0.42-1.46,0.65l-0.6-1.29c0,0-0.56-0.36-1.19-0.72
						c-0.05-0.03-0.1-0.06-0.14-0.09c-0.07-0.03-0.12-0.06-0.18-0.09c-0.94,0.48-1.84,1.01-2.71,1.57c0.12,0.05,0.23,0.1,0.34,0.14
						c0.06,0.03,0.13,0.06,0.19,0.08c0.3,0.15,0.51,0.24,0.51,0.24l1.03,1.65c-0.45,0.28-0.9,0.57-1.33,0.87l-0.82-1.15
						c0,0-0.61-0.26-1.3-0.5c-0.05-0.02-0.1-0.03-0.14-0.05c-0.07-0.02-0.13-0.04-0.2-0.07c-0.75,0.57-1.47,1.16-2.15,1.8
						c-0.08,0.07-0.16,0.13-0.24,0.22c0.12,0.03,0.24,0.06,0.35,0.09c0.44,0.12,0.76,0.2,0.76,0.2l1.29,1.44
						c-0.39,0.36-0.79,0.72-1.16,1.1l-1.02-1c0,0-0.66-0.14-1.37-0.27c-0.05-0.01-0.09-0.01-0.13-0.02
						c-0.08-0.01-0.15-0.02-0.23-0.04c-0.7,0.76-1.37,1.56-2,2.4c0.13,0,0.25,0.02,0.37,0.02c0.46,0.03,0.79,0.07,0.79,0.07
						l1.51,1.19c-0.33,0.42-0.64,0.85-0.95,1.29l-1.18-0.82c0,0-0.66-0.03-1.39-0.02l-0.13,0c-0.08,0.01-0.15,0.01-0.24,0
						c-0.56,0.87-1.09,1.79-1.55,2.72c0.13-0.02,0.25-0.03,0.36-0.04c0.47-0.06,0.8-0.09,0.8-0.09l1.7,0.91
						c-0.25,0.47-0.49,0.94-0.71,1.43l-1.32-0.6c0,0-0.19,0.02-0.47,0.07c-0.24,0.04-0.56,0.1-0.88,0.16
						c-0.05,0.01-0.1,0.02-0.15,0.03c-0.07,0.01-0.15,0.03-0.21,0.04c-0.41,0.95-0.76,1.94-1.07,2.94c0.13-0.04,0.24-0.07,0.36-0.11
						c0.43-0.13,0.74-0.22,0.74-0.22l1.85,0.61c-0.17,0.51-0.31,1.01-0.45,1.53l-1.38-0.35c0,0-0.63,0.2-1.31,0.44
						c-0.06,0.02-0.11,0.04-0.16,0.05c-0.06,0.03-0.12,0.06-0.19,0.07c-0.23,1.02-0.41,2.04-0.53,3.09
						c0.12-0.06,0.23-0.12,0.32-0.17c0.41-0.2,0.71-0.34,0.71-0.34l1.92,0.27c-0.07,0.53-0.13,1.06-0.17,1.59l-1.41-0.11
						c0,0-0.59,0.31-1.22,0.68c-0.04,0.02-0.08,0.05-0.12,0.06c-0.07,0.04-0.14,0.08-0.2,0.12c-0.02,0.24-0.03,0.48-0.04,0.73
						c-0.02,0.8,0,1.6,0.05,2.39c0.1-0.07,0.2-0.15,0.29-0.21c0.37-0.27,0.65-0.47,0.65-0.47L263.93,110.95z"/>
					<path d="M313.14,94.38c0.31,0.43,0.6,0.88,0.87,1.33l1.66-1.03c0,0,0.09-0.21,0.24-0.51c0.02-0.06,0.05-0.13,0.08-0.19
						c-0.38-0.59-0.78-1.16-1.2-1.72c-0.25,0.69-0.5,1.3-0.5,1.3L313.14,94.38z"/>
					<path d="M267.25,109.45c0.32-13.1,11.25-23.5,24.35-23.18c13.1,0.32,23.5,11.25,23.18,24.35c-0.32,13.1-11.25,23.5-24.35,23.18
						C277.33,133.48,266.93,122.55,267.25,109.45z"/>
					<path d="M264.62,109.39c0.36-14.55,12.49-26.1,27.05-25.74c14.55,0.36,26.1,12.49,25.74,27.05
						c-0.36,14.55-12.49,26.1-27.05,25.74C275.81,136.07,264.26,123.94,264.62,109.39z M264.93,109.39
						c-0.36,14.39,11.06,26.38,25.44,26.74c14.39,0.36,26.38-11.06,26.74-25.44c0.36-14.39-11.06-26.38-25.44-26.74
						C277.28,83.59,265.28,95.01,264.93,109.39z"/>
					<path d="M309.12,130.2l1.29,1.44c0,0,0.32,0.09,0.76,0.2c0.51-0.48,1.02-0.97,1.49-1.48c-0.71-0.12-1.37-0.27-1.37-0.27
						l-1.02-1C309.9,129.48,309.51,129.85,309.12,130.2z"/>
					<path d="M312.35,126.75l1.51,1.19c0,0,0.33,0.04,0.79,0.07c0.42-0.56,0.83-1.12,1.21-1.7c-0.72,0.01-1.39-0.02-1.39-0.02
						l-1.18-0.82C312.99,125.9,312.68,126.34,312.35,126.75z"/>
					<path d="M301.13,135.19c0.49-0.2,0.98-0.42,1.46-0.64l0.61,1.29c0,0,0.56,0.36,1.19,0.72c-0.62,0.31-1.25,0.6-1.89,0.87
						c-0.38-0.25-0.64-0.43-0.64-0.43L301.13,135.19z"/>
					<path d="M306.37,134.69l-1.03-1.65c0.45-0.28,0.9-0.57,1.33-0.88l0.82,1.16c0,0,0.62,0.25,1.3,0.5
						c-0.56,0.42-1.13,0.82-1.71,1.2c-0.06-0.03-0.14-0.06-0.19-0.08C306.58,134.79,306.37,134.69,306.37,134.69z"/>
					<path d="M314.93,122.8l1.7,0.91c0,0,0.33-0.03,0.8-0.08c0.31-0.62,0.6-1.25,0.88-1.89c-0.32,0.06-0.64,0.12-0.88,0.16
						c-0.28,0.04-0.47,0.07-0.47,0.07l-1.32-0.6C315.41,121.86,315.18,122.33,314.93,122.8z"/>
					<path d="M318,107.54c0.05,0.53,0.09,1.06,0.11,1.59l1.92-0.06c0,0,0.27-0.2,0.65-0.47c-0.03-0.7-0.08-1.39-0.17-2.08
						c-0.54,0.47-1.06,0.88-1.06,0.88L318,107.54z"/>
					<path d="M296.61,136.56c0.52-0.11,1.04-0.23,1.55-0.37l0.38,1.39c0,0,0.14,0.13,0.36,0.33c0.19,0.16,0.43,0.36,0.68,0.57
						c-0.66,0.2-1.32,0.38-2,0.53c-0.34-0.32-0.58-0.56-0.58-0.56L296.61,136.56z"/>
					<path d="M316.78,118.46l1.86,0.61c0,0,0.31-0.09,0.74-0.22c0.21-0.66,0.4-1.32,0.55-2c-0.68,0.24-1.31,0.44-1.31,0.44
						l-1.38-0.35C317.1,117.44,316.95,117.95,316.78,118.46z"/>
					<path d="M317.17,102.89c0.13,0.51,0.25,1.03,0.37,1.55l1.89-0.4c0,0,0.24-0.24,0.56-0.57c-0.16-0.68-0.33-1.34-0.54-2
						c-0.2,0.26-0.41,0.5-0.57,0.68c-0.2,0.22-0.33,0.36-0.33,0.36L317.17,102.89z"/>
					<path d="M315.52,98.46c0.23,0.48,0.45,0.97,0.65,1.46l1.8-0.73c0,0,0.18-0.27,0.43-0.65c-0.27-0.63-0.56-1.27-0.87-1.88
						c-0.36,0.63-0.72,1.19-0.72,1.19L315.52,98.46z"/>
					<path d="M317.85,113.86l1.92,0.27c0,0,0.3-0.14,0.71-0.34c0.08-0.68,0.14-1.38,0.18-2.09c-0.64,0.37-1.22,0.68-1.22,0.68
						l-1.41-0.11C317.98,112.8,317.92,113.33,317.85,113.86z"/>
					<path d="M266.36,125.39l1.65-1.03c0.28,0.45,0.57,0.9,0.88,1.33l-1.16,0.82c0,0-0.25,0.62-0.5,1.3
						c-0.42-0.56-0.82-1.13-1.2-1.71c0.03-0.06,0.06-0.14,0.08-0.19C266.27,125.6,266.36,125.39,266.36,125.39z"/>
					<path d="M265.87,120.15c0.2,0.5,0.42,0.98,0.64,1.46l-1.29,0.61c0,0-0.36,0.56-0.72,1.19c-0.31-0.62-0.6-1.25-0.87-1.89
						c0.25-0.38,0.43-0.64,0.43-0.64L265.87,120.15z"/>
					<path d="M291.92,137.12c0.54-0.02,1.07-0.05,1.59-0.1l0.13,1.43c0,0,0.41,0.52,0.88,1.07c-0.69,0.08-1.38,0.13-2.08,0.17
						c-0.27-0.38-0.46-0.65-0.46-0.65L291.92,137.12z"/>
					<path d="M270.85,128.14c0.36,0.4,0.72,0.78,1.1,1.16l-1.01,1.01c0,0-0.14,0.66-0.26,1.37c-0.51-0.48-1-0.98-1.48-1.49
						c0.11-0.44,0.2-0.76,0.2-0.76L270.85,128.14z"/>
					<path d="M262.01,111.01l1.92-0.06c0.02,0.54,0.05,1.07,0.1,1.59l-1.43,0.13c0,0-0.52,0.41-1.07,0.88
						c-0.08-0.69-0.13-1.38-0.17-2.08C261.74,111.2,262.01,111.01,262.01,111.01z"/>
					<path d="M264.5,115.64c0.11,0.52,0.23,1.04,0.37,1.55l-1.39,0.38c0,0-0.13,0.14-0.33,0.36c-0.16,0.19-0.36,0.43-0.57,0.68
						c-0.2-0.66-0.38-1.32-0.53-2c0.32-0.34,0.56-0.57,0.56-0.57L264.5,115.64z"/>
					<path d="M282.6,135.8c0.5,0.16,1.02,0.31,1.53,0.45l-0.36,1.38c0,0,0.2,0.63,0.44,1.32c-0.68-0.16-1.34-0.35-2-0.55
						c-0.13-0.43-0.22-0.75-0.22-0.75L282.6,135.8z"/>
					<path d="M287.2,136.87c0.52,0.07,1.05,0.14,1.59,0.18l-0.12,1.41c0,0,0.31,0.59,0.68,1.22c-0.7-0.04-1.4-0.09-2.09-0.18
						c-0.2-0.41-0.33-0.71-0.33-0.71L287.2,136.87z"/>
					<path d="M278.26,133.95c0.47,0.25,0.94,0.49,1.43,0.71l-0.6,1.31c0,0,0.03,0.19,0.07,0.48c0.04,0.24,0.1,0.56,0.16,0.88
						c-0.64-0.27-1.27-0.56-1.88-0.88c-0.05-0.46-0.08-0.8-0.08-0.8L278.26,133.95z"/>
					<path d="M274.3,131.37c0.42,0.33,0.85,0.64,1.29,0.94l-0.82,1.18c0,0-0.02,0.66-0.01,1.38c-0.58-0.38-1.15-0.79-1.7-1.21
						c0.03-0.46,0.06-0.79,0.06-0.79L274.3,131.37z"/>
					<path d="M273.24,86.26c0.69,0.25,1.3,0.5,1.3,0.5l0.82,1.15c0.43-0.31,0.88-0.6,1.33-0.87l-1.03-1.65c0,0-0.21-0.09-0.51-0.24
						c-0.06-0.02-0.13-0.05-0.19-0.08C274.37,85.44,273.8,85.84,273.24,86.26z"/>
					<path d="M293.36,81.62l-0.11,1.41c0.53,0.04,1.06,0.1,1.59,0.17l0.27-1.92c0,0-0.14-0.3-0.34-0.71
						c-0.68-0.08-1.38-0.14-2.09-0.18C293.05,81.03,293.36,81.62,293.36,81.62z"/>
					<path d="M302.35,85.42c0.49,0.22,0.96,0.46,1.43,0.71l0.91-1.7c0,0-0.03-0.33-0.09-0.8c-0.61-0.31-1.24-0.6-1.88-0.88
						c0.06,0.32,0.12,0.64,0.16,0.88c0.04,0.28,0.07,0.47,0.07,0.47L302.35,85.42z"/>
					<path d="M298.26,82.44l-0.35,1.38c0.52,0.14,1.02,0.29,1.53,0.45l0.61-1.86c0,0-0.09-0.31-0.22-0.74
						c-0.66-0.21-1.32-0.4-2-0.55C298.06,81.81,298.26,82.44,298.26,82.44z"/>
					<path d="M282.45,81.61c0.26,0.2,0.5,0.41,0.68,0.57c0.22,0.2,0.36,0.33,0.36,0.33l0.38,1.39c0.51-0.13,1.03-0.25,1.55-0.37
						l-0.4-1.89c0,0-0.24-0.24-0.57-0.56C283.77,81.23,283.11,81.4,282.45,81.61z"/>
					<path d="M269.68,93.32c-0.33,0.42-0.64,0.85-0.94,1.29l-1.18-0.82c0,0-0.66-0.02-1.38-0.01c0.38-0.58,0.79-1.15,1.21-1.7
						c0.46,0.03,0.79,0.06,0.79,0.06L269.68,93.32z"/>
					<path d="M265.25,101.62c-0.16,0.5-0.31,1.02-0.45,1.53l-1.38-0.36c0,0-0.63,0.2-1.32,0.44c0.16-0.68,0.35-1.34,0.55-2
						c0.43-0.13,0.75-0.22,0.75-0.22L265.25,101.62z"/>
					<path d="M287.51,80.56c0.47,0.54,0.88,1.06,0.88,1.06l0.13,1.44c0.53-0.05,1.06-0.09,1.59-0.11l-0.06-1.92
						c0,0-0.2-0.27-0.47-0.65C288.89,80.42,288.19,80.47,287.51,80.56z"/>
					<path d="M277.65,83.52c0.63,0.36,1.19,0.72,1.19,0.72l0.6,1.29c0.48-0.23,0.97-0.45,1.46-0.65l-0.73-1.8
						c0,0-0.27-0.18-0.65-0.43C278.9,82.93,278.26,83.21,277.65,83.52z"/>
					<path d="M267.11,97.28c-0.25,0.47-0.49,0.94-0.71,1.43l-1.31-0.6c0,0-0.19,0.03-0.48,0.07c-0.24,0.04-0.56,0.1-0.88,0.16
						c0.27-0.64,0.56-1.27,0.88-1.88c0.46-0.05,0.8-0.08,0.8-0.08L267.11,97.28z"/>
					<path d="M264.19,106.23c-0.07,0.52-0.14,1.05-0.18,1.59l-1.41-0.11c0,0-0.59,0.31-1.22,0.68c0.04-0.7,0.09-1.4,0.18-2.09
						c0.41-0.2,0.71-0.33,0.71-0.33L264.19,106.23z"/>
					<path d="M306.45,87.76c0.44,0.31,0.87,0.62,1.29,0.95l1.18-1.51c0,0,0.04-0.33,0.07-0.79c-0.56-0.42-1.12-0.83-1.71-1.21
						c0.01,0.72-0.01,1.39-0.01,1.39L306.45,87.76z"/>
					<path d="M272.92,89.88c-0.4,0.36-0.78,0.72-1.16,1.1l-1.01-1c0,0-0.66-0.14-1.37-0.26c0.48-0.51,0.98-1,1.49-1.48
						c0.44,0.11,0.76,0.2,0.76,0.2L272.92,89.88z"/>
					<g>
						<g>
							<path d="M310.08,90.79c0.38,0.37,0.74,0.76,1.1,1.16l1.44-1.29c0,0,0.08-0.32,0.2-0.76c-0.48-0.51-0.97-1.02-1.48-1.49
								c-0.12,0.71-0.27,1.37-0.27,1.37L310.08,90.79z"/>
						</g>
						<g>
							<path class="st8" d="M310.08,90.79c0.38,0.37,0.74,0.76,1.1,1.16l1.44-1.29c0,0,0.08-0.32,0.2-0.76
								c-0.48-0.51-0.97-1.02-1.48-1.49c-0.12,0.71-0.27,1.37-0.27,1.37L310.08,90.79z"/>
						</g>
					</g>
				</g>
				<g class="st5">
					<path class="st9" d="M262.04,116.62c-0.08,0.08-0.16,0.16-0.24,0.26c-0.03-0.15-0.06-0.3-0.09-0.46
						C261.82,116.49,261.93,116.56,262.04,116.62z"/>
				</g>
			</g>
			<path class="st10" d="M268.63,110.04c0,12.36,10.02,22.39,22.39,22.39c12.36,0,22.39-10.02,22.39-22.39s-10.02-22.39-22.39-22.39
				C278.65,87.65,268.63,97.67,268.63,110.04z"/>
			<path d="M272.55,110.04c0,10.2,8.27,18.47,18.47,18.47c10.2,0,18.47-8.27,18.47-18.47c0-10.2-8.27-18.47-18.47-18.47
				C280.82,91.57,272.55,99.84,272.55,110.04z"/>
			<g>
				<g>
					<g>
						<polygon class="st3" points="290.02,113.03 292.01,106.91 272.85,101.86 271.55,105.85 						"/>
					</g>
					<g>
						<polygon class="st3" points="293.62,111.86 288.41,108.08 277.69,124.74 281.09,127.21 						"/>
					</g>
					<g>
						<polygon class="st3" points="293.62,108.08 288.41,111.86 300.95,127.21 304.34,124.74 						"/>
					</g>
					<g>
						<polygon class="st3" points="290.02,106.91 292.01,113.03 310.48,105.85 309.19,101.86 						"/>
					</g>
					<g>
						<polygon class="st3" points="287.8,109.97 294.24,109.97 293.11,90.19 288.92,90.19 						"/>
					</g>
				</g>
				<circle class="st11" cx="291.02" cy="110.04" r="6.76"/>
			</g>
		</g>
	</g>
	<g>
		<defs>
			<path id="SVGID_10_" d="M47.85,119.76c0,27.05,70.26,27.03,70.26,0l-0.81-8.6l-0.52-5.53c-1.11-11.69-10.92-20.62-22.67-20.62
				H71.61c-11.9,0-21.78,9.16-22.7,21.02l-0.4,5.12L47.85,119.76z"/>
		</defs>
		<clipPath id="SVGID_2_">
			<use xlink:href="#SVGID_10_"  style="overflow:visible;"/>
		</clipPath>
		<g class="st12">
			<g>
				<g>
					<path class="st7" d="M55.94,110.95c0.02,0.53,0.05,1.06,0.11,1.59l-1.44,0.13c0,0-0.52,0.41-1.06,0.88
						c-0.04,0.03-0.07,0.06-0.11,0.08c-0.06,0.06-0.12,0.11-0.18,0.16c0.11,0.89,0.26,1.76,0.46,2.62c0.03,0.16,0.06,0.31,0.1,0.46
						c0.08-0.09,0.16-0.17,0.24-0.25c0.34-0.35,0.57-0.58,0.57-0.58l1.89-0.4c0.11,0.52,0.23,1.04,0.37,1.55l-1.17,0.32l-0.21,0.06
						c0,0-0.13,0.14-0.33,0.36c-0.16,0.18-0.37,0.42-0.57,0.68c-0.04,0.04-0.07,0.08-0.1,0.11c-0.05,0.06-0.09,0.11-0.14,0.17
						c0.31,1.01,0.67,1.99,1.08,2.95c0.07-0.11,0.14-0.22,0.2-0.31c0.25-0.38,0.43-0.64,0.43-0.64l1.8-0.73
						c0.2,0.5,0.42,0.98,0.65,1.46l-1.29,0.6c0,0-0.36,0.56-0.72,1.19c-0.03,0.05-0.06,0.1-0.09,0.14
						c-0.03,0.07-0.06,0.12-0.09,0.18c0.48,0.94,1.01,1.84,1.57,2.71c0.05-0.12,0.1-0.23,0.14-0.34c0.03-0.06,0.06-0.13,0.08-0.19
						c0.15-0.3,0.24-0.51,0.24-0.51l1.65-1.03c0.28,0.45,0.57,0.9,0.87,1.33l-1.15,0.82c0,0-0.26,0.61-0.5,1.3
						c-0.02,0.05-0.03,0.1-0.05,0.14c-0.02,0.07-0.04,0.13-0.07,0.21c0.64,0.83,1.3,1.62,2.01,2.38c0.03-0.12,0.06-0.25,0.09-0.36
						c0.12-0.44,0.2-0.76,0.2-0.76l1.44-1.29c0.36,0.39,0.72,0.79,1.1,1.16l-1,1.02c0,0-0.14,0.66-0.27,1.37
						c-0.01,0.05-0.01,0.09-0.02,0.13c-0.01,0.08-0.02,0.15-0.03,0.23c0.76,0.7,1.56,1.37,2.4,2c0-0.12,0.02-0.25,0.02-0.37
						c0.03-0.46,0.07-0.79,0.07-0.79l1.18-1.51c0.42,0.33,0.85,0.64,1.29,0.95l-0.82,1.18c0,0-0.03,0.66-0.02,1.39l0,0.13
						c0.01,0.08,0.01,0.16,0,0.24c0.87,0.56,1.79,1.09,2.72,1.55c-0.02-0.13-0.03-0.25-0.04-0.36c-0.06-0.47-0.09-0.8-0.09-0.8
						l0.91-1.7c0.47,0.25,0.94,0.49,1.43,0.71l-0.6,1.32c0,0,0.02,0.19,0.07,0.47c0.04,0.24,0.1,0.56,0.16,0.88
						c0.01,0.05,0.02,0.1,0.03,0.15c0.01,0.07,0.03,0.15,0.04,0.21c0.95,0.41,1.94,0.76,2.94,1.07c-0.04-0.13-0.07-0.24-0.11-0.36
						c-0.13-0.43-0.22-0.74-0.22-0.74l0.61-1.86c0.51,0.17,1.01,0.31,1.53,0.45l-0.35,1.38c0,0,0.2,0.63,0.44,1.31
						c0.02,0.06,0.04,0.11,0.05,0.17c0.03,0.06,0.06,0.12,0.07,0.18c1.02,0.23,2.04,0.41,3.09,0.53c-0.06-0.12-0.12-0.23-0.17-0.32
						c-0.2-0.41-0.34-0.71-0.34-0.71l0.27-1.92c0.53,0.07,1.06,0.13,1.59,0.17l-0.11,1.41c0,0,0.31,0.59,0.68,1.22
						c0.02,0.04,0.05,0.08,0.06,0.12c0.04,0.07,0.08,0.14,0.12,0.2c0.24,0.02,0.48,0.03,0.73,0.04c0.8,0.02,1.6,0,2.39-0.05
						c-0.07-0.1-0.15-0.2-0.21-0.29c-0.27-0.37-0.47-0.65-0.47-0.65l-0.06-1.92c0.53-0.02,1.06-0.05,1.59-0.11l0.13,1.44
						c0,0,0.41,0.52,0.88,1.06c0.03,0.04,0.06,0.07,0.08,0.11c0.06,0.06,0.11,0.12,0.16,0.18c1.04-0.13,2.07-0.31,3.08-0.55
						c-0.09-0.09-0.18-0.17-0.26-0.25c-0.34-0.33-0.57-0.56-0.57-0.56l-0.4-1.89c0.52-0.11,1.04-0.23,1.55-0.37l0.38,1.39
						c0,0,0.14,0.13,0.36,0.33c0.18,0.16,0.42,0.37,0.68,0.57c0.04,0.04,0.08,0.07,0.11,0.1c0.06,0.05,0.11,0.09,0.17,0.14
						c1.01-0.31,1.99-0.67,2.95-1.08c-0.11-0.07-0.22-0.14-0.31-0.2c-0.38-0.25-0.65-0.43-0.65-0.43l-0.73-1.8
						c0.5-0.2,0.98-0.42,1.46-0.65l0.6,1.29c0,0,0.56,0.36,1.19,0.72c0.05,0.03,0.1,0.06,0.14,0.09c0.07,0.03,0.12,0.06,0.18,0.09
						c0.94-0.48,1.84-1.01,2.71-1.57c-0.12-0.05-0.23-0.1-0.34-0.14c-0.06-0.03-0.13-0.06-0.19-0.08c-0.3-0.15-0.51-0.24-0.51-0.24
						l-1.03-1.65c0.45-0.28,0.9-0.57,1.33-0.87l0.82,1.15c0,0,0.61,0.26,1.3,0.5c0.05,0.02,0.1,0.03,0.14,0.05
						c0.07,0.02,0.13,0.04,0.2,0.07c0.52-0.39,1.02-0.8,1.51-1.24c0.3-0.24,0.59-0.51,0.88-0.78c-0.15-0.04-0.27-0.06-0.36-0.09
						c-0.44-0.12-0.76-0.2-0.76-0.2l-1.29-1.44c0.39-0.36,0.79-0.72,1.16-1.1l1.02,1c0,0,0.66,0.14,1.37,0.27
						c0.05,0.01,0.09,0.01,0.13,0.02c0.08,0.01,0.15,0.02,0.23,0.03c0.7-0.76,1.37-1.56,2-2.4c-0.13,0-0.25-0.02-0.37-0.02
						c-0.46-0.03-0.79-0.07-0.79-0.07l-1.51-1.19c0.33-0.42,0.64-0.85,0.95-1.29l1.17,0.82c0,0,0.66,0.03,1.39,0.02l0.13,0
						c0.08-0.01,0.15-0.01,0.24,0c0.56-0.87,1.09-1.79,1.55-2.72c-0.13,0.02-0.25,0.03-0.36,0.05c-0.47,0.05-0.8,0.08-0.8,0.08
						l-1.7-0.91c0.25-0.47,0.49-0.94,0.71-1.43l1.32,0.6c0,0,0.19-0.02,0.47-0.07c0.24-0.04,0.56-0.1,0.88-0.16
						c0.05-0.01,0.1-0.02,0.14-0.03c0.07-0.01,0.15-0.03,0.21-0.04c0.41-0.95,0.76-1.94,1.07-2.94c-0.13,0.04-0.24,0.07-0.36,0.11
						c-0.43,0.13-0.74,0.22-0.74,0.22l-1.86-0.61c0.17-0.51,0.31-1.01,0.45-1.53l1.38,0.35c0,0,0.63-0.2,1.31-0.44
						c0.06-0.02,0.11-0.04,0.17-0.05c0.06-0.03,0.12-0.06,0.18-0.07c0.23-1.02,0.41-2.04,0.53-3.09c-0.12,0.06-0.23,0.12-0.32,0.17
						c-0.41,0.2-0.71,0.34-0.71,0.34l-1.92-0.27c0.07-0.53,0.13-1.06,0.17-1.59l1.41,0.11c0,0,0.59-0.31,1.22-0.68
						c0.04-0.02,0.08-0.05,0.12-0.06c0.07-0.04,0.14-0.08,0.2-0.12c0.02-0.24,0.03-0.48,0.04-0.73c0.02-0.8,0-1.6-0.05-2.39
						c-0.1,0.08-0.2,0.15-0.29,0.21c-0.37,0.27-0.65,0.47-0.65,0.47l-1.92,0.06c-0.02-0.53-0.05-1.06-0.11-1.59l1.44-0.13
						c0,0,0.52-0.41,1.06-0.88c0.04-0.03,0.07-0.06,0.11-0.08c0.06-0.06,0.12-0.11,0.18-0.16c-0.13-1.04-0.31-2.07-0.55-3.08
						c-0.09,0.09-0.17,0.18-0.25,0.26c-0.33,0.34-0.56,0.57-0.56,0.57l-1.89,0.4c-0.11-0.52-0.23-1.04-0.37-1.55l1.39-0.38
						c0,0,0.13-0.14,0.33-0.36c0.16-0.18,0.37-0.42,0.57-0.68c0.04-0.04,0.07-0.08,0.1-0.11c0.05-0.06,0.09-0.11,0.14-0.17
						c-0.31-1.01-0.67-1.98-1.08-2.95c-0.07,0.11-0.14,0.22-0.2,0.31c-0.25,0.38-0.43,0.65-0.43,0.65l-1.8,0.73
						c-0.2-0.5-0.42-0.98-0.65-1.46l1.29-0.6c0,0,0.36-0.56,0.72-1.19c0.03-0.05,0.06-0.1,0.09-0.14c0.03-0.07,0.06-0.12,0.09-0.18
						c-0.48-0.94-1-1.84-1.57-2.71c-0.05,0.12-0.1,0.23-0.14,0.34c-0.03,0.06-0.06,0.13-0.08,0.19c-0.15,0.31-0.24,0.51-0.24,0.51
						l-1.65,1.03c-0.28-0.45-0.57-0.9-0.87-1.33l1.15-0.82c0,0,0.26-0.61,0.5-1.3c0.02-0.05,0.03-0.1,0.05-0.14
						c0.02-0.07,0.04-0.13,0.07-0.2c-0.63-0.84-1.3-1.63-2.01-2.39c-0.01,0.04-0.02,0.09-0.03,0.12c-0.02,0.1-0.04,0.17-0.05,0.24
						c-0.12,0.44-0.2,0.76-0.2,0.76l-1.44,1.29c-0.36-0.39-0.72-0.79-1.1-1.16l1-1.02c0,0,0.14-0.66,0.26-1.37
						c0.01-0.05,0.01-0.09,0.02-0.13c0.01-0.08,0.02-0.15,0.03-0.23c-0.76-0.7-1.56-1.37-2.4-2c0,0.13-0.02,0.25-0.02,0.37
						c-0.03,0.46-0.07,0.79-0.07,0.79l-1.18,1.51c-0.42-0.33-0.85-0.64-1.29-0.95l0.82-1.18c0,0,0.03-0.66,0.02-1.39l0-0.13
						c-0.01-0.08-0.01-0.15,0-0.24c-0.87-0.56-1.79-1.09-2.72-1.55c0.02,0.13,0.03,0.25,0.04,0.36c0.06,0.47,0.09,0.8,0.09,0.8
						l-0.91,1.7c-0.47-0.25-0.94-0.49-1.43-0.71l0.6-1.32c0,0-0.02-0.19-0.07-0.47c-0.04-0.24-0.1-0.56-0.16-0.88
						c-0.01-0.05-0.02-0.1-0.02-0.15c-0.01-0.07-0.03-0.15-0.04-0.21c-0.95-0.41-1.94-0.76-2.94-1.07c0.04,0.13,0.07,0.24,0.11,0.36
						c0.13,0.43,0.22,0.74,0.22,0.74l-0.61,1.86c-0.51-0.17-1.01-0.31-1.53-0.45l0.35-1.38c0,0-0.2-0.63-0.44-1.31
						c-0.02-0.06-0.04-0.11-0.05-0.17c-0.03-0.06-0.06-0.12-0.07-0.18c-1.02-0.23-2.04-0.41-3.09-0.53
						c0.06,0.12,0.12,0.22,0.16,0.32c0.2,0.41,0.34,0.71,0.34,0.71l-0.27,1.92c-0.53-0.07-1.06-0.13-1.59-0.17l0.11-1.41
						c0,0-0.31-0.59-0.68-1.22c-0.02-0.04-0.05-0.08-0.06-0.12c-0.04-0.07-0.08-0.14-0.12-0.2c-0.24-0.02-0.48-0.03-0.73-0.04
						c-0.8-0.02-1.6,0-2.39,0.05c0.08,0.1,0.15,0.2,0.21,0.29c0.27,0.37,0.47,0.65,0.47,0.65l0.06,1.92
						c-0.53,0.02-1.06,0.05-1.59,0.11l-0.13-1.44c0,0-0.41-0.52-0.88-1.06c-0.03-0.04-0.06-0.07-0.08-0.11
						c-0.06-0.06-0.11-0.12-0.16-0.18c-1.04,0.13-2.07,0.31-3.08,0.55c0.09,0.09,0.18,0.17,0.26,0.25c0.34,0.33,0.57,0.56,0.57,0.56
						l0.4,1.89c-0.52,0.11-1.04,0.23-1.55,0.37l-0.38-1.39c0,0-0.14-0.13-0.36-0.33c-0.18-0.16-0.42-0.37-0.68-0.57
						c-0.04-0.04-0.08-0.07-0.11-0.1c-0.06-0.05-0.11-0.09-0.17-0.14c-1.01,0.31-1.99,0.67-2.95,1.08c0.11,0.07,0.22,0.14,0.31,0.2
						c0.38,0.25,0.65,0.43,0.65,0.43l0.73,1.8c-0.5,0.2-0.98,0.42-1.46,0.65l-0.6-1.29c0,0-0.56-0.36-1.19-0.72
						c-0.05-0.03-0.1-0.06-0.14-0.09c-0.07-0.03-0.12-0.06-0.18-0.09c-0.94,0.48-1.84,1.01-2.71,1.57c0.12,0.05,0.23,0.1,0.34,0.14
						c0.06,0.03,0.13,0.06,0.19,0.08c0.31,0.15,0.51,0.24,0.51,0.24l1.03,1.65c-0.45,0.28-0.9,0.57-1.33,0.87l-0.82-1.15
						c0,0-0.61-0.26-1.3-0.5c-0.05-0.02-0.1-0.03-0.14-0.05c-0.07-0.02-0.13-0.04-0.2-0.07c-0.75,0.57-1.46,1.16-2.15,1.8
						c-0.08,0.07-0.16,0.13-0.24,0.22c0.12,0.03,0.24,0.06,0.35,0.09c0.44,0.12,0.76,0.2,0.76,0.2l1.29,1.44
						c-0.39,0.36-0.79,0.72-1.16,1.1l-1.02-1c0,0-0.66-0.14-1.37-0.27c-0.05-0.01-0.09-0.01-0.13-0.02
						c-0.08-0.01-0.15-0.02-0.23-0.04c-0.7,0.76-1.37,1.56-2,2.4c0.13,0,0.25,0.02,0.37,0.02c0.46,0.03,0.79,0.07,0.79,0.07
						l1.51,1.19c-0.33,0.42-0.64,0.85-0.95,1.29l-1.18-0.82c0,0-0.66-0.03-1.39-0.02l-0.13,0c-0.08,0.01-0.15,0.01-0.24,0
						c-0.56,0.87-1.09,1.79-1.55,2.72c0.13-0.02,0.25-0.03,0.36-0.04c0.47-0.06,0.8-0.09,0.8-0.09l1.7,0.91
						c-0.25,0.47-0.49,0.94-0.71,1.43l-1.32-0.6c0,0-0.19,0.02-0.47,0.07c-0.24,0.04-0.56,0.1-0.88,0.16
						c-0.05,0.01-0.1,0.02-0.15,0.03c-0.07,0.01-0.15,0.03-0.21,0.04c-0.41,0.95-0.76,1.94-1.07,2.94c0.13-0.04,0.24-0.07,0.36-0.11
						c0.43-0.13,0.74-0.22,0.74-0.22l1.86,0.61c-0.17,0.51-0.31,1.01-0.45,1.53l-1.38-0.35c0,0-0.63,0.2-1.31,0.44
						c-0.06,0.02-0.11,0.04-0.17,0.05c-0.06,0.03-0.12,0.06-0.18,0.07c-0.23,1.02-0.41,2.04-0.53,3.09
						c0.12-0.06,0.22-0.12,0.32-0.17c0.41-0.2,0.71-0.34,0.71-0.34l1.92,0.27c-0.07,0.53-0.13,1.06-0.17,1.59l-1.41-0.11
						c0,0-0.59,0.31-1.22,0.68c-0.04,0.02-0.08,0.05-0.12,0.06c-0.07,0.04-0.14,0.08-0.2,0.12c-0.02,0.24-0.03,0.48-0.04,0.73
						c-0.02,0.8,0,1.6,0.05,2.39c0.1-0.07,0.2-0.15,0.29-0.21c0.37-0.27,0.65-0.47,0.65-0.47L55.94,110.95z"/>
					<path d="M105.15,94.38c0.31,0.43,0.6,0.88,0.87,1.33l1.65-1.03c0,0,0.09-0.21,0.24-0.51c0.02-0.06,0.05-0.13,0.08-0.19
						c-0.38-0.59-0.78-1.16-1.2-1.72c-0.25,0.69-0.5,1.3-0.5,1.3L105.15,94.38z"/>
					<path d="M59.26,109.45c0.32-13.1,11.25-23.5,24.35-23.18c13.1,0.32,23.5,11.25,23.18,24.35c-0.32,13.1-11.25,23.5-24.35,23.18
						C69.33,133.48,58.93,122.55,59.26,109.45z"/>
					<path d="M56.63,109.39c0.36-14.55,12.49-26.1,27.05-25.74c14.55,0.36,26.1,12.49,25.74,27.05
						c-0.36,14.55-12.49,26.1-27.05,25.74C67.81,136.07,56.26,123.94,56.63,109.39z M56.93,109.39
						c-0.36,14.39,11.06,26.38,25.44,26.74c14.39,0.36,26.38-11.06,26.74-25.44c0.36-14.39-11.06-26.38-25.45-26.74
						C69.28,83.59,57.28,95.01,56.93,109.39z"/>
					<path d="M101.12,130.2l1.29,1.44c0,0,0.32,0.09,0.76,0.2c0.51-0.48,1.02-0.97,1.49-1.48c-0.71-0.12-1.37-0.27-1.37-0.27
						l-1.02-1C101.91,129.48,101.51,129.85,101.12,130.2z"/>
					<path d="M104.36,126.75l1.51,1.19c0,0,0.33,0.04,0.79,0.07c0.42-0.56,0.83-1.12,1.21-1.7c-0.72,0.01-1.39-0.02-1.39-0.02
						l-1.17-0.82C104.99,125.9,104.68,126.34,104.36,126.75z"/>
					<path d="M93.14,135.19c0.49-0.2,0.98-0.42,1.46-0.64l0.61,1.29c0,0,0.56,0.36,1.19,0.72c-0.62,0.31-1.25,0.6-1.89,0.87
						c-0.38-0.25-0.64-0.43-0.64-0.43L93.14,135.19z"/>
					<path d="M98.37,134.69l-1.03-1.65c0.45-0.28,0.9-0.57,1.33-0.88l0.82,1.16c0,0,0.62,0.25,1.3,0.5
						c-0.56,0.42-1.13,0.82-1.71,1.2c-0.06-0.03-0.14-0.06-0.19-0.08C98.58,134.79,98.37,134.69,98.37,134.69z"/>
					<path d="M106.93,122.8l1.7,0.91c0,0,0.33-0.03,0.8-0.08c0.31-0.62,0.6-1.25,0.88-1.89c-0.32,0.06-0.64,0.12-0.88,0.16
						c-0.28,0.04-0.47,0.07-0.47,0.07l-1.32-0.6C107.42,121.86,107.18,122.33,106.93,122.8z"/>
					<path d="M110,107.54c0.06,0.53,0.09,1.06,0.11,1.59l1.92-0.06c0,0,0.27-0.2,0.65-0.47c-0.03-0.7-0.08-1.39-0.17-2.08
						c-0.54,0.47-1.06,0.88-1.06,0.88L110,107.54z"/>
					<path d="M88.62,136.56c0.52-0.11,1.04-0.23,1.55-0.37l0.38,1.39c0,0,0.14,0.13,0.36,0.33c0.19,0.16,0.43,0.36,0.68,0.57
						c-0.66,0.2-1.33,0.38-2,0.53c-0.34-0.32-0.57-0.56-0.57-0.56L88.62,136.56z"/>
					<path d="M108.78,118.46l1.86,0.61c0,0,0.31-0.09,0.74-0.22c0.21-0.66,0.4-1.32,0.55-2c-0.68,0.24-1.31,0.44-1.31,0.44
						l-1.38-0.35C109.1,117.44,108.95,117.95,108.78,118.46z"/>
					<path d="M109.17,102.89c0.13,0.51,0.25,1.03,0.37,1.55l1.89-0.4c0,0,0.24-0.24,0.56-0.57c-0.16-0.68-0.33-1.34-0.54-2
						c-0.2,0.26-0.41,0.5-0.57,0.68c-0.2,0.22-0.33,0.36-0.33,0.36L109.17,102.89z"/>
					<path d="M107.52,98.46c0.23,0.48,0.45,0.97,0.65,1.46l1.8-0.73c0,0,0.18-0.27,0.43-0.65c-0.27-0.63-0.56-1.27-0.87-1.88
						c-0.36,0.63-0.72,1.19-0.72,1.19L107.52,98.46z"/>
					<path d="M109.85,113.86l1.92,0.27c0,0,0.3-0.14,0.71-0.34c0.08-0.68,0.14-1.38,0.18-2.09c-0.64,0.37-1.22,0.68-1.22,0.68
						l-1.41-0.11C109.98,112.8,109.92,113.33,109.85,113.86z"/>
					<path d="M58.37,125.39l1.65-1.03c0.28,0.45,0.57,0.9,0.88,1.33l-1.16,0.82c0,0-0.25,0.62-0.5,1.3
						c-0.42-0.56-0.82-1.13-1.2-1.71c0.03-0.06,0.06-0.14,0.08-0.19C58.27,125.6,58.37,125.39,58.37,125.39z"/>
					<path d="M57.87,120.15c0.2,0.5,0.42,0.98,0.64,1.46l-1.29,0.61c0,0-0.36,0.56-0.72,1.19c-0.31-0.62-0.6-1.25-0.87-1.89
						c0.25-0.38,0.43-0.64,0.43-0.64L57.87,120.15z"/>
					<path d="M83.93,137.12c0.54-0.02,1.07-0.05,1.59-0.1l0.13,1.43c0,0,0.41,0.52,0.88,1.07c-0.69,0.08-1.38,0.13-2.08,0.17
						c-0.27-0.38-0.46-0.65-0.46-0.65L83.93,137.12z"/>
					<path d="M62.86,128.14c0.36,0.4,0.72,0.78,1.1,1.16l-1.01,1.01c0,0-0.14,0.66-0.26,1.37c-0.51-0.48-1-0.98-1.48-1.49
						c0.11-0.44,0.2-0.76,0.2-0.76L62.86,128.14z"/>
					<path d="M54.02,111.01l1.92-0.06c0.02,0.54,0.05,1.07,0.1,1.59l-1.43,0.13c0,0-0.52,0.41-1.07,0.88
						c-0.08-0.69-0.13-1.38-0.17-2.08C53.74,111.2,54.02,111.01,54.02,111.01z"/>
					<path d="M56.5,115.64c0.11,0.52,0.23,1.04,0.37,1.55l-1.39,0.38c0,0-0.13,0.14-0.33,0.36c-0.16,0.19-0.36,0.43-0.57,0.68
						c-0.2-0.66-0.38-1.32-0.53-2c0.32-0.34,0.56-0.57,0.56-0.57L56.5,115.64z"/>
					<path d="M74.6,135.8c0.5,0.16,1.02,0.31,1.53,0.45l-0.36,1.38c0,0,0.2,0.63,0.44,1.32c-0.68-0.16-1.34-0.35-2-0.55
						c-0.13-0.43-0.22-0.75-0.22-0.75L74.6,135.8z"/>
					<path d="M79.21,136.87c0.52,0.07,1.05,0.14,1.59,0.18l-0.12,1.41c0,0,0.31,0.59,0.68,1.22c-0.7-0.04-1.4-0.09-2.09-0.18
						c-0.2-0.41-0.33-0.71-0.33-0.71L79.21,136.87z"/>
					<path d="M70.26,133.95c0.47,0.25,0.94,0.49,1.43,0.71l-0.6,1.31c0,0,0.03,0.19,0.07,0.48c0.04,0.24,0.1,0.56,0.16,0.88
						c-0.64-0.27-1.27-0.56-1.88-0.88c-0.05-0.46-0.08-0.8-0.08-0.8L70.26,133.95z"/>
					<path d="M66.3,131.37c0.42,0.33,0.85,0.64,1.29,0.94l-0.82,1.18c0,0-0.02,0.66-0.01,1.38c-0.58-0.38-1.15-0.79-1.7-1.21
						c0.03-0.46,0.06-0.79,0.06-0.79L66.3,131.37z"/>
					<path d="M65.24,86.26c0.69,0.25,1.3,0.5,1.3,0.5l0.82,1.15c0.43-0.31,0.88-0.6,1.33-0.87l-1.03-1.65c0,0-0.21-0.09-0.51-0.24
						c-0.06-0.02-0.13-0.05-0.19-0.08C66.37,85.44,65.8,85.84,65.24,86.26z"/>
					<path d="M85.36,81.62l-0.11,1.41c0.53,0.04,1.06,0.1,1.59,0.17l0.27-1.92c0,0-0.14-0.3-0.34-0.71
						c-0.68-0.08-1.38-0.14-2.09-0.18C85.05,81.03,85.36,81.62,85.36,81.62z"/>
					<path d="M94.35,85.42c0.49,0.22,0.96,0.46,1.43,0.71l0.91-1.7c0,0-0.03-0.33-0.09-0.8c-0.61-0.31-1.24-0.6-1.88-0.88
						c0.06,0.32,0.12,0.64,0.16,0.88c0.04,0.28,0.07,0.47,0.07,0.47L94.35,85.42z"/>
					<path d="M90.26,82.44l-0.35,1.38c0.52,0.14,1.02,0.29,1.53,0.45l0.61-1.86c0,0-0.09-0.31-0.22-0.74c-0.66-0.21-1.32-0.4-2-0.55
						C90.06,81.81,90.26,82.44,90.26,82.44z"/>
					<path d="M74.45,81.61c0.26,0.2,0.5,0.41,0.68,0.57c0.22,0.2,0.36,0.33,0.36,0.33l0.38,1.39c0.51-0.13,1.03-0.25,1.55-0.37
						l-0.4-1.89c0,0-0.24-0.24-0.57-0.56C75.77,81.23,75.11,81.4,74.45,81.61z"/>
					<path d="M61.68,93.32c-0.33,0.42-0.64,0.85-0.94,1.29l-1.18-0.82c0,0-0.66-0.02-1.38-0.01c0.38-0.58,0.79-1.15,1.21-1.7
						c0.46,0.03,0.79,0.06,0.79,0.06L61.68,93.32z"/>
					<path d="M57.25,101.62c-0.16,0.5-0.31,1.02-0.45,1.53l-1.38-0.36c0,0-0.63,0.2-1.32,0.44c0.16-0.68,0.35-1.34,0.55-2
						c0.43-0.13,0.75-0.22,0.75-0.22L57.25,101.62z"/>
					<path d="M79.51,80.56c0.47,0.54,0.88,1.06,0.88,1.06l0.13,1.44c0.53-0.05,1.06-0.09,1.59-0.11l-0.06-1.92
						c0,0-0.2-0.27-0.47-0.65C80.89,80.42,80.19,80.47,79.51,80.56z"/>
					<path d="M69.65,83.52c0.63,0.36,1.19,0.72,1.19,0.72l0.6,1.29c0.48-0.23,0.97-0.45,1.46-0.65l-0.73-1.8
						c0,0-0.27-0.18-0.65-0.43C70.9,82.93,70.26,83.21,69.65,83.52z"/>
					<path d="M59.11,97.28c-0.25,0.47-0.49,0.94-0.71,1.43l-1.31-0.6c0,0-0.19,0.03-0.48,0.07c-0.24,0.04-0.56,0.1-0.88,0.16
						c0.27-0.64,0.56-1.27,0.88-1.88c0.46-0.05,0.8-0.08,0.8-0.08L59.11,97.28z"/>
					<path d="M56.19,106.23c-0.07,0.52-0.14,1.05-0.18,1.59l-1.41-0.11c0,0-0.59,0.31-1.22,0.68c0.04-0.7,0.09-1.4,0.18-2.09
						c0.41-0.2,0.71-0.33,0.71-0.33L56.19,106.23z"/>
					<path d="M98.45,87.76c0.44,0.31,0.87,0.62,1.29,0.95l1.18-1.51c0,0,0.04-0.33,0.07-0.79c-0.56-0.42-1.12-0.83-1.71-1.21
						c0.01,0.72-0.02,1.39-0.02,1.39L98.45,87.76z"/>
					<path d="M64.92,89.88c-0.4,0.36-0.78,0.72-1.16,1.1l-1.01-1c0,0-0.66-0.14-1.37-0.26c0.48-0.51,0.98-1,1.49-1.48
						c0.44,0.11,0.76,0.2,0.76,0.2L64.92,89.88z"/>
					<g>
						<g>
							<path d="M102.08,90.79c0.38,0.37,0.74,0.76,1.1,1.16l1.44-1.29c0,0,0.09-0.32,0.2-0.76c-0.48-0.51-0.97-1.02-1.48-1.49
								c-0.12,0.71-0.26,1.37-0.26,1.37L102.08,90.79z"/>
						</g>
						<g>
							<path class="st8" d="M102.08,90.79c0.38,0.37,0.74,0.76,1.1,1.16l1.44-1.29c0,0,0.09-0.32,0.2-0.76
								c-0.48-0.51-0.97-1.02-1.48-1.49c-0.12,0.71-0.26,1.37-0.26,1.37L102.08,90.79z"/>
						</g>
					</g>
				</g>
				<g class="st5">
					<path class="st9" d="M54.04,116.62c-0.08,0.08-0.16,0.16-0.24,0.26c-0.03-0.15-0.06-0.3-0.09-0.46
						C53.82,116.49,53.93,116.56,54.04,116.62z"/>
				</g>
			</g>
			<path class="st10" d="M60.63,110.04c0,12.36,10.02,22.39,22.39,22.39c12.36,0,22.39-10.02,22.39-22.39S95.38,87.65,83.02,87.65
				C70.66,87.65,60.63,97.67,60.63,110.04z"/>
			<path d="M64.55,110.04c0,10.2,8.27,18.47,18.47,18.47c10.2,0,18.47-8.27,18.47-18.47c0-10.2-8.27-18.47-18.47-18.47
				C72.82,91.57,64.55,99.84,64.55,110.04z"/>
			<g>
				<g>
					<g>
						<polygon class="st3" points="82.02,113.03 84.02,106.91 64.85,101.86 63.56,105.85 						"/>
					</g>
					<g>
						<polygon class="st3" points="85.63,111.86 80.41,108.08 69.69,124.74 73.09,127.21 						"/>
					</g>
					<g>
						<polygon class="st3" points="85.63,108.08 80.41,111.86 92.95,127.21 96.34,124.74 						"/>
					</g>
					<g>
						<polygon class="st3" points="82.02,106.91 84.02,113.03 102.48,105.85 101.19,101.86 						"/>
					</g>
					<g>
						<polygon class="st3" points="79.8,109.97 86.24,109.97 85.12,90.19 80.92,90.19 						"/>
					</g>
				</g>
				<circle class="st11" cx="83.02" cy="110.04" r="6.76"/>
			</g>
		</g>
	</g>
	<path class="st3" d="M153.98,8.59c-4.45-0.05-7.09-0.16-11.54-0.18c-2.39-0.01-4.78-0.03-7.16-0.03c-3.51,0-6.53-0.04-9.37-0.06
		c-2.5-0.03-4.87-0.05-7.31-0.05c-4.59,0-8.74,0.1-13.44,0.31c-0.75,0.04-1.56,0.35-2.39,0.93c-5.17,3.54-11.76,16.63-16.75,30.75
		c-0.45,1.31,0.49,2.7,1.88,2.72l45.92,1.02l11.64,0.26l2.26,0.05l0.7,0.01l3.88,0.09l1.61,0.04h0.18c0.05,0,0.12,0,0.17-0.01
		c1.09-0.08,1.91-0.95,1.91-2.02V10.98C156.16,9.19,155.73,8.61,153.98,8.59z M246.11,43.71c-0.7-1.53-1.72-2.9-3.02-4.02
		l-28.6-24.51l-0.16-0.14c-2.9-2.67-4.08-3.12-11.23-4.25c-10.6-0.82-22.06-1.43-34.08-1.83c-0.92-0.04-1.69,0.7-1.69,1.63v31.89
		c0,1.27,1.01,2.31,2.28,2.33l74.63,1.66C245.7,46.5,246.7,45.02,246.11,43.71z"/>
	<g>
		<defs>
			<path id="SVGID_8_" d="M169.03,8.95c12.01,0.4,23.47,1.02,34.08,1.84c7.15,1.13,8.32,1.57,11.23,4.25l0.15,0.14l28.6,24.51
				c1.3,1.12,2.33,2.49,3.02,4.02c0.59,1.31-0.41,2.79-1.85,2.76l-74.63-1.66c-1.27-0.03-2.29-1.07-2.29-2.34V10.58
				C167.34,9.66,168.11,8.92,169.03,8.95z M87.9,42.99l66.18,1.48c1.14,0.03,2.08-0.89,2.08-2.03V10.98c0-1.79-0.43-2.37-2.18-2.39
				c-4.45-0.04-7.09-0.15-11.54-0.18c-2.39-0.02-4.79-0.03-7.17-0.03c-3.5,0-6.52-0.04-9.36-0.07c-2.51-0.03-4.87-0.06-7.31-0.06
				c-4.59,0-8.74,0.1-13.45,0.32c-0.75,0.04-1.55,0.35-2.39,0.93c-5.16,3.54-11.76,16.63-16.74,30.75
				C85.57,41.58,86.52,42.96,87.9,42.99z"/>
		</defs>
		<clipPath id="SVGID_3_">
			<use xlink:href="#SVGID_8_"  style="overflow:visible;"/>
		</clipPath>
		<path class="st13" d="M227.13,34.19l0.32,7.45l1.73,0.97c4.22-3.34,6.75-4.33,10.86-7.08l9.13,0.7l-7.99,13.55h-23.33l1.96-4.95
			l4.09-0.07l1.4-1.62l-0.54-6.7L227.13,34.19z"/>
		<path class="st13" d="M214.75,51.38c-0.73-0.47-0.94-1.41-0.49-2.12l11.33-17.73c0.45-0.71,1.4-0.92,2.1-0.46
			c0.74,0.47,0.94,1.41,0.49,2.12l-11.33,17.73C216.4,51.63,215.45,51.84,214.75,51.38z"/>
		<path class="st13" d="M180.5,51.41h-16.07l-4.54-23.7h8.2c4.57,0,8.49,3.24,9.35,7.73L180.5,51.41z"/>
		<path class="st13" d="M115.42,51.41H99.35l-3.43-17.94c-0.57-2.99,1.72-5.76,4.76-5.76h2.34c4.57,0,8.49,3.24,9.35,7.73
			L115.42,51.41z"/>
		<rect x="31.68" y="33.85" class="st13" width="70.73" height="15.63"/>
	</g>
	<path class="st0" d="M246.92,44.31c0.29,5.29-4.94,5.27-8.87,5.48c-0.5,0.03-1-0.02-1.48-0.13l4.63-18.83
		C244.39,32.46,246.67,39.7,246.92,44.31z"/>
</g>
</svg>
