<?xml version="1.0" encoding="utf-8"?>
<!-- Generator: Adobe Illustrator 24.1.1, SVG Export Plug-In . SVG Version: 6.00 Build 0)  -->
<svg version="1.1" id="Layer_1" xmlns="http://www.w3.org/2000/svg" xmlns:xlink="http://www.w3.org/1999/xlink" x="0px" y="0px"
	 viewBox="0 0 50.96 106" style="enable-background:new 0 0 50.96 106;" xml:space="preserve">
<style type="text/css">
	.st0{fill:#185426;}
	.st1{fill:#2C7138;}
	.st2{fill:#21602E;}
	.st3{fill:#FEE5D8;}
	.st4{fill:#FFFFFF;}
	.st5{fill:#E6C055;}
	.st6{fill:#E3A650;}
</style>
<g>
	<g>
		<path class="st0" d="M22.87,106h2.47c0.13-1.66,0.25-3.31,0.36-4.97c1.27-18.69,0.91-37.39,0.38-56.11
			c-0.04-1.04-1.63-1.73-1.59-0.43c0.47,18.63-0.23,37.26-1.26,55.86C23.14,102.24,23,104.12,22.87,106z"/>
		<g>
			<path class="st1" d="M7.98,87.61c0.32,2.56,1.45,4.9,2.33,7.26c0.87,2.34,1.87,4.67,3.32,6.63c2.34,3.15,6.31,4.84,9.92,4.17
				c0.21-0.05,0.43-0.22,0.39-0.51c-0.02-0.3-0.06-0.6-0.09-0.9c0.02-0.02,0.05-0.04,0.07-0.09c0.06-0.04,0.09-0.08,0.14-0.13
				c0.21-0.11,0.03-0.48-0.18-0.4c-0.03,0.01-0.06,0.02-0.09,0.02c-0.02-0.12-0.04-0.25-0.05-0.36c0.08-0.23,0.18-0.54,0.11-0.89
				c-0.24-1.4-0.63-2.73-1.15-4.03c-0.62-1.48-1.21-2.99-1.93-4.42c-0.68-1.35-1.77-2.28-2.49-3.59c-0.13-0.24-0.57-0.44-0.56,0.01
				c0,0.32,0.05,0.62,0.09,0.91c-1.63-2.18-4.35-4-6.62-4.19c-0.36-0.03-0.45,0.53-0.31,0.82c0.07,0.12,0.11,0.24,0.16,0.36
				c-0.84-0.32-1.63-1.2-2.52-1.34C8.11,86.89,7.92,87.19,7.98,87.61z"/>
			<path class="st2" d="M11.66,90.87c1.65,1.79,3.18,3.67,4.85,5.43c2.69,2.86,5.24,5.78,7.2,9.29c-0.05,0.04-0.11,0.05-0.17,0.07
				c-3.61,0.67-7.58-1.02-9.92-4.17c-1.45-1.96-2.44-4.29-3.32-6.63c-0.88-2.35-2-4.7-2.33-7.26c-0.02-0.13,0-0.24,0.01-0.34
				C8.81,88.62,11.01,90.17,11.66,90.87z"/>
		</g>
		<g>
			<path class="st1" d="M44.21,68.78c-0.89-0.13-1.85,0.49-2.74,0.57c0.08-0.09,0.16-0.2,0.23-0.29c0.2-0.24,0.24-0.82-0.14-0.89
				c-2.23-0.45-5.25,0.54-7.31,2.19c0.11-0.29,0.22-0.57,0.28-0.86c0.11-0.44-0.37-0.37-0.54-0.18c-0.99,1.06-2.24,1.65-3.19,2.77
				c-1.01,1.18-1.91,2.47-2.83,3.74c-0.79,1.12-1.46,2.28-2,3.58c-0.13,0.31-0.11,0.64-0.09,0.88c-0.04,0.11-0.08,0.23-0.12,0.35
				c-0.02-0.01-0.05-0.03-0.09-0.05c-0.18-0.13-0.42,0.18-0.26,0.34c0.05,0.05,0.08,0.1,0.12,0.16c0,0.06,0.04,0.08,0.05,0.11
				c-0.1,0.28-0.2,0.56-0.28,0.85c-0.09,0.27,0.08,0.48,0.27,0.6c3.34,1.67,7.55,1.16,10.5-1.22c1.83-1.47,3.31-3.46,4.65-5.48
				c1.36-2.03,2.95-3.98,3.82-6.37C44.72,69.16,44.6,68.81,44.21,68.78z"/>
			<path class="st2" d="M40.31,71.65c-2,1.28-3.88,2.66-5.89,3.91c-3.21,1.99-6.31,4.11-8.97,6.95c0.04,0.05,0.1,0.08,0.15,0.12
				c3.34,1.67,7.55,1.16,10.5-1.22c1.83-1.47,3.31-3.46,4.65-5.48c1.36-2.03,2.95-3.98,3.82-6.37c0.05-0.12,0.06-0.24,0.05-0.34
				C43.55,70.29,41.08,71.16,40.31,71.65z"/>
		</g>
	</g>
	<g>
		<g>
			<path class="st3" d="M22.15,6.71c0.1,2.45,0.92,4.38,1.63,6.71c0.6,1.93,1.69,4.39,3.39,4.99c0.03,0.14,0.11,0.27,0.24,0.31
				c1.36,0.4,2.44-0.17,3.78-0.58c1.58-0.49,3.31-0.77,4.81-1.55c2.66-1.4,5.42-3.59,6.79-6.63c0.53-1.2,0.53-3.18-1.09-3.03
				c-1.38,0.12-2-0.19-3.24,0.44c-0.08-1.18,0.03-2.68-0.81-3.74c-1.11-1.39-3.03-1.28-4.53-2.17c-0.81-0.48-1.67,0.91-2.52,0.58
				c-0.88-0.34-1.75-1.91-2.67-1.78c-1.11,0.17-1.88,0.89-3.08,0.78C24.42,1,22.65,1.02,22.29,1.4C21.29,2.48,22.1,5.34,22.15,6.71z
				"/>
			<path class="st3" d="M0,13.66c0.02,1.24,1.01,2.08,1.87,2.64c3.52,2.28,7.97,2.73,11.93,3.1c2.44,0.23,9.33,2.01,8.84-3.15
				c-0.21-2.13-1.02-4.02-1.71-5.98c-0.69-1.96-1.31-3.99-2.26-5.82c-0.71-1.97-1.9-4.43-2.84-2.81c-1.33-1.08-3.24-2.33-4.69-1.2
				c-0.92,0.73-1.4,1.74-1.08,3.01c0.06,0.26,1.06,3.16-0.44,2.36C9.18,5.58,8.81,5.29,8.33,5.2C7.61,5.09,6.14,4.73,5.68,5.72
				c-0.2,0.45-0.32,0.87-0.3,1.39c0,0.39,0.2,1.97-0.55,1.89C4.47,8.94,4.08,8.88,3.7,8.82c-0.78-0.16-1.86,0.15-1.85,1.27
				c0,0.83,0.52,1.62,0.98,2.33C1.85,12.62-0.03,12.39,0,13.66z"/>
			<path class="st4" d="M24.43,5.58c0.21-1.37,1.85-0.37,1.99,0.54c0.3,1.95,0.51,3.96,0.92,5.88c0.05,0.23,0.14,0.79,0.24,1.39
				c0.27-1.72,0.7-3.44,0.98-5.07c0.09-0.48,0.67-0.04,0.62,0.34c-0.31,2.03-0.26,3.8-0.06,5.65c0.93-2.71,2.3-5.22,3.48-7.78
				c0.41-0.89,1.55,0.33,1.2,1.12c-0.64,1.46-1.29,2.91-1.91,4.38c0.71-0.9,1.42-1.82,2.05-2.83c0.61-0.97,1.95,0.45,1.43,1.34
				c-0.81,1.4-1.74,2.66-2.72,3.92c0.05-0.03,0.1-0.03,0.14-0.06c1.45-0.69,2.78-1.51,4.01-2.65c0.62-0.58,1.56,0.78,0.95,1.4
				c-1.03,1.04-2.17,1.85-3.4,2.56c-1.11,0.66-2.55,1.58-3.86,1.71c-0.11,0.14-0.23,0.29-0.36,0.43c-0.23,0.24-0.6,0.19-0.85,0.03
				c-0.02,0-0.02,0-0.02-0.01c-0.19,0.22-0.46,0.33-0.83,0.27c-0.08-0.03-0.18-0.05-0.27-0.07c-0.21,0.19-0.62,0.1-0.84-0.2
				C24.83,14.74,23.81,9.72,24.43,5.58z"/>
			<path class="st4" d="M8.64,15.23c2.3,0.68,4.67,1.06,7.05,1.43c-2.42-1.55-4.67-3.66-6.4-5.61c-0.37-0.44-0.11-1.13,0.41-0.73
				c1.89,1.48,3.95,2.67,5.97,3.93c1.18,0.77,2.5,1.19,3.8,1.64c-0.64-0.77-1.26-1.54-2-2.2c-1.68-1.52-3.94-2.34-5.35-4.18
				c-0.28-0.34-0.29-1.25,0.28-1.2c1.89,0.14,3.66,1.88,5.19,3.03c0.71,0.54,1.33,1.16,1.94,1.82c-0.51-1.11-1.08-2.19-1.71-3.16
				c-0.62-0.91-1.37-3.64-2.47-3.83c-0.23-0.04-0.49-0.64-0.16-0.72c1.29-0.29,2.59,2.23,3.25,3.16c1.92,2.71,3.64,5.2,4.53,8.63
				c0.21,0.77-0.28,1.27-0.83,1.27c-0.08,0.25-0.27,0.41-0.63,0.39c-0.13-0.02-0.26-0.05-0.39-0.06c-0.1,0.06-0.22,0.11-0.38,0.08
				c-4.11-0.53-8.18-1.51-12.09-3.05C8.37,15.74,8.25,15.1,8.64,15.23z"/>
			<path class="st1" d="M16.14,28.02c0.08,0.42,0.23,0.82,0.38,1.18c-0.16-0.07-0.33,0-0.35,0.29c0,0.12,0,0.25-0.01,0.4
				c-0.02,0.06-0.03,0.13-0.03,0.21c0,0.32,0.01,0.62,0.04,0.91c0.08,2.14,0.46,4.27,0.72,6.33c0.3,2.15,0.49,4.41,1.4,6.33
				c1.27,2.67,3.35,4.81,5.98,4.64c2.56-0.17,6.7-0.87,7.32-4.98c0.65-4.33,0.18-8.73,0.92-13.04c0.09-0.13,0.16-0.27,0.24-0.42
				c0.08,0.06,0.19,0.06,0.22-0.1c0.06-0.2,0.11-0.38,0.17-0.58c0.09-0.28-0.24-0.75-0.47-0.5c-0.03,0.04-0.06,0.07-0.08,0.1
				c-0.03,0-0.07,0.01-0.09,0.07c-0.02,0.02-0.02,0.07-0.05,0.1c-0.75,0.96-1.43,2.04-1.89,3.27c-0.18-0.92-0.39-1.84-0.61-2.74
				c-0.12-0.46-0.55-0.84-0.86-0.4c-0.52,0.73-0.69,1.81-0.82,2.73c-0.1,0.68,0.08,1.78-0.4,1c-0.3-0.51-0.58-1.05-0.84-1.6
				c-0.79-1.71-1.71-3.35-3.04-4.4c-0.28-0.22-0.61,0.05-0.62,0.44c-0.05,1.32,0.33,2.49,0.58,3.72c0.2,0.99,0.16,1.99,0.17,2.95
				c-1.12-1.52-2.28-3.22-3.06-4.93c-0.27-0.62-1.06-0.66-0.96,0.23c0.12,1.13,0.41,2.17,0.72,3.22c-1.34-1.58-2.48-3.56-3.9-5
				C16.56,27.1,16.02,27.36,16.14,28.02z"/>
			<path class="st5" d="M19.86,23.78c1.98,1.6,4.26,2.18,6.59,1.86c1.78-0.23,3.67-0.44,4.95-1.94c0.29-0.17,0.54-0.37,0.65-0.47
				c1.35-1.25,1.39-3.24,0.55-4.98c-0.55-1.11-1.37-2.4-2.25-3.21c-1.12-1.03-2.18-1.11-3.56-1.17c-1.37-0.07-2.57-0.93-3.92-0.28
				c-0.64,0.28-1.23,0.58-1.93,0.58c-0.44,0.01-0.97-0.04-1.37,0.15C15.74,16.06,17.1,21.5,19.86,23.78z"/>
			<path class="st3" d="M30.76,23.31c0.29,3.05,1.9,5.09,4.19,6.54c2.4,1.51,5.36,3.12,8.18,2.88c1.65-0.13,2.05-1.15,1.55-2.46
				c0.87,0.13,1.76,0.24,2.64,0.22c0.61-0.01,1.58,0.06,2.15-0.27c1.09-0.64,0.83-1.8,0.48-2.94c-0.25-0.89-1.49-2.28-0.45-3.04
				c0.45-0.35,1.05-0.53,1.36-1.06c0.47-0.82-0.9-2.11-1.61-2.81c0.8-0.76,1.12-1.81,0.57-2.97c-0.64-1.31-2.42-1.42-3.55-1.37
				c-2.19,0.1-4.36,0.08-6.51,0.55c-0.96,0.21-1.97,0.4-2.91,0.73c-0.91,0.31-1.85,0.77-2.83,0.67c-0.19-0.02-0.13,0.22-0.01,0.34
				C32.06,19.01,30.51,20.53,30.76,23.31z"/>
			<path class="st3" d="M18.54,41c1.13,1.05,2.44-0.64,3.42-1.09c1.47-0.68,2.5,1.51,3.77,0.91c0.48-0.22,0.89-0.58,1.16-1.09
				c0.16-0.33,0.3-0.67,0.48-0.98c0.51-0.95,1.39-0.23,1.77,0.45c0.48,0.88,1.13,2.06,2.23,1.61c0.63-0.25,1.06-0.94,1.68-1.17
				c1.3-0.47,1.9,0.39,3.04,0.51c0.77,0.08,1.39-0.11,1.63-1.02c0.57-2.29-1.89-5.93-2.83-7.62c-0.97-1.76-2.07-3.4-3.45-4.74
				c-0.67-0.67-1.35-1.43-2.13-1.97c-1.91-1.68-4.44-3.01-6.45-1.81c-2.8,1.67-4.35,4.85-4.89,8.29
				C17.52,34.22,16.13,38.77,18.54,41z"/>
			<path class="st3" d="M1.64,23.11c0.32,0.67,0.74,1.39,1.22,1.81c0.89,0.84,0,1.75-0.35,2.67c-1.38,3.61,1.43,4.17,3.29,3.99
				c0.54-0.05,2.84-0.52,2.69,0.89c-0.08,0.69-0.31,1.67-0.17,2.38c0.28,1.23,0.89,1.92,1.85,1.82c0.65-0.07,1.2-0.69,1.79-1.02
				c1.04-0.55,0.51,1.2,0.5,1.98c-0.01,0.97,0.35,2.56,1.19,2.52c1.35-0.04,1.96-2.37,2.4-3.86c0.75-2.58,1.71-5.08,2.33-7.74
				c0.42-1.82,1.73-4.06,1.45-6.04c-0.21-1.34-1.28-1.97-2.12-2.13c-0.2-0.03-0.39-0.06-0.58-0.1c-0.78-0.35-1.62-0.42-2.43-0.62
				c-1.21-0.27-2.43-0.45-3.64-0.64c-1.95-0.27-3.9-0.2-5.82-0.6c-0.95-0.2-2.41-0.58-3.19,0.64C1.24,20.3,0.95,21.69,1.64,23.11z"
				/>
			<path class="st4" d="M7.24,20.27c3.48,1.02,7.29-0.15,10.85,0.34c0.55,0.08,0.92,0.89,0.9,1.5c0.3,0.12,0.57,0.46,0.63,0.79
				c0.24,1.17-0.03,2.67-0.46,3.77c-0.3,0.78-0.67,1.52-0.86,2.34c-0.09,0.42-0.43,0.74-0.56,1.11c-0.18,0.55-0.74,0.11-0.78-0.32
				c-0.01-0.33-0.01-0.65,0-0.96c-0.72,1.6-1.74,2.97-2.87,4.24c-0.42,0.49-1.03-0.4-0.93-0.88c0.38-2.07,1.58-3.66,2.32-5.55
				c0.22-0.6,0.43-1.27,0.63-1.95c-1.84,1.48-3.71,2.88-5.33,4.75c-0.29,0.32-0.77-0.37-0.49-0.7c1.21-1.37,2.37-3.11,3.83-4.13
				c0.03-0.02,0.06-0.03,0.08-0.06c-0.76,0.07-1.54,0.19-2.31,0.28c-1.01,0.14-1.91-0.09-2.92,0.21c-0.41,0.1-0.82-0.72-0.37-0.86
				c0.95-0.33,1.75-0.93,2.63-1.43c0.08-0.05,0.19-0.08,0.27-0.12c-1.47-0.09-2.89-0.29-4.26-0.78C6.53,21.56,6.29,19.99,7.24,20.27
				z"/>
			<path class="st4" d="M20.57,28.06c-0.28,0.21-0.72-0.28-0.52-0.6c0.63-0.96,3.3-4.6,5.17-4.77c0.32-0.17,0.83,0.08,1.09,0.49
				c0.06,0.07,0.12,0.14,0.16,0.23c0,0,0,0,0.01,0c1.44,0.09,2.93,1.82,3.95,2.78c0.85,0.84,1.69,1.68,2.46,2.65
				c0.75,0.99,0.86,1.96,1.43,3.05c0.07,0.15-0.09,0.29-0.21,0.19c-0.48-0.48-0.77-1.09-1.17-1.64c-0.68-0.94-1.6-1.72-2.41-2.5
				c-0.64-0.61-1.29-1.19-1.97-1.76c-0.17-0.15-0.34-0.27-0.53-0.4c0.36,0.61,0.73,1.22,1.11,1.75c1.18,1.6,2.27,3.21,3.11,5.11
				c0.18,0.4-0.27,0.66-0.48,0.29c-1.38-2.46-3.21-4.63-4.98-6.78c0.02,0.58,0.04,1.12,0.1,1.57c0.3,2.08,0.86,5.37,2.12,6.99
				c0.38,0.5-0.1,1.16-0.57,0.72c-1.37-1.29-1.91-3.61-2.44-5.48c-0.26-0.9-0.55-1.92-0.74-2.95c-0.3,0.87-0.65,1.72-0.76,2.68
				c-0.22,1.93-0.67,4.28-0.35,6.24c0.13,0.75-0.6,0.91-0.97,0.38c-1-1.45-0.87-4.21-0.84-5.97c0.01-0.89,0.11-1.76,0.31-2.62
				c-0.14,0.19-0.26,0.38-0.39,0.59c-0.51,0.83-0.78,1.74-1.01,2.7c-0.18,0.74-0.65,1.67-0.73,2.42c-0.05,0.42-0.53,0.14-0.63-0.08
				c-0.7-1.54,0.12-3.86,0.76-5.4C20.63,28,20.6,28.03,20.57,28.06z"/>
			<path class="st4" d="M31.99,23.1c-0.03-1.19,0.47-2.41,1.35-3.33c1.04-1.09,2.51-1.34,3.85-1.62c0.84-0.18,1.67-0.42,2.52-0.55
				c0.73-0.11,1.71,0.52,2.38,0.23c0.09-0.04,0.2,0.1,0.17,0.2c-0.18,0.48-0.38,0.64-0.81,0.85l-0.02,0.01
				c0.16-0.01,0.31-0.01,0.48-0.04c0.74-0.08,1.49,1.67,0.58,1.86c-1.23,0.27-2.51,0.47-3.77,0.69c0.94,0.22,1.87,0.47,2.78,0.68
				c0.3,0.08,0.51,0.81,0.09,0.8c-1.79-0.14-4.13-0.84-5.88-0.37c-0.38,0.1-0.78,0.19-1.16,0.17c0.2,0.15,0.38,0.27,0.57,0.36
				c1.14,0.6,2.37,0.99,3.52,1.56c0.8,0.4,0.61,1.98-0.35,1.5c-1.16-0.55-2.38-0.94-3.53-1.48c-0.42-0.2-0.93-0.44-1.39-0.75
				c0.04,0.2,0.07,0.4,0.12,0.61c0.49,0.63,0.96,1.27,1.58,1.77c1.09,0.85,2.35,2.25,3.75,2.1c0.34-0.05,0.58,0.68,0.16,0.75
				c-1.4,0.28-2.88-0.77-4.04-1.56c-1.4-0.97-2.55-2-3.34-3.68C31.33,23.4,31.64,23.06,31.99,23.1z"/>
		</g>
		<path class="st6" d="M30.21,17.5c0.76,0.11,0.95,1.7,0.01,1.56C29.44,18.95,29.26,17.35,30.21,17.5z"/>
		<path class="st6" d="M28.77,15.03c0.99,0.16,1.22,2.19,0,2.01C27.78,16.91,27.55,14.86,28.77,15.03z"/>
		<path class="st6" d="M25.63,13.99c0.57,0.08,0.71,1.28,0.01,1.17C25.05,15.09,24.92,13.89,25.63,13.99z"/>
		<path class="st6" d="M22.81,13.53c1,0.14,1.23,2.19,0.01,2.01C21.84,15.39,21.6,13.35,22.81,13.53z"/>
		<path class="st6" d="M19.2,14.72c0.21-0.22,0.51-0.25,0.77-0.16c0.5,0.19,0.86,0.66,0.89,1.28c0,0.02,0,0.04,0,0.07
			c0.01,0.45-0.29,0.9-0.71,0.88c-0.01,0-0.02,0-0.04,0C19.29,16.78,18.47,15.46,19.2,14.72z"/>
		<path class="st6" d="M24.12,18.42c0.19,0.03,0.36,0.12,0.5,0.25c-0.11-0.19-0.07-0.49,0.19-0.46c0.29,0.04,0.36,0.65,0,0.61
			c-0.04-0.02-0.05-0.02-0.09-0.04c0.61,0.7,0.56,2.19-0.59,2.02C22.94,20.64,22.67,18.21,24.12,18.42z"/>
		<path class="st6" d="M19.96,18.22c-0.1-0.73,0.22-1.45,1.1-1.32c1.19,0.17,1.56,2.44,0.39,2.68c-0.1,0.32-0.35,0.54-0.79,0.48
			C19.89,19.94,19.56,18.75,19.96,18.22z"/>
		<path class="st6" d="M27.82,19.91c0.31,0.04,0.39,0.7,0,0.65C27.51,20.51,27.44,19.86,27.82,19.91z"/>
		<path class="st6" d="M26.79,16.62c0.55,0.08,0.99,0.85,0.99,1.44c0,0.67-0.45,0.97-0.99,0.9c-0.55-0.09-0.98-0.84-0.99-1.43
			C25.81,16.84,26.27,16.54,26.79,16.62z"/>
		<path class="st6" d="M29.88,21.35c0.57,0.08,0.69,1.23,0.02,1.13C29.34,22.41,29.2,21.25,29.88,21.35z"/>
		<path class="st6" d="M31.91,16.49c0.83,0.12,1.03,1.81,0.02,1.67C31.11,18.04,30.91,16.34,31.91,16.49z"/>
		<path class="st6" d="M30.78,14.94c0.28,0.04,0.34,0.63,0,0.57C30.51,15.47,30.44,14.89,30.78,14.94z"/>
		<path class="st6" d="M17.72,17.32c1.16,0.17,1.44,2.57,0.02,2.37C16.58,19.52,16.29,17.11,17.72,17.32z"/>
		<path class="st6" d="M26.92,12.64c0.02,0.01,0.03,0.02,0.06,0.02c0.15,0.1,0.27,0.23,0.38,0.38c0.09,0.11,0.15,0.24,0.19,0.39
			c0.02,0.02,0.02,0.05,0.02,0.06c0.01,0.05,0.02,0.1,0.03,0.13c0.02,0.15,0.02,0.3-0.01,0.46c0,0,0,0.01-0.01,0.03v-0.01
			c-0.03,0.15-0.09,0.28-0.22,0.39c-0.18,0.16-0.36,0.18-0.57,0.12c-0.44-0.06-0.83-0.46-0.94-1.01
			C25.7,12.85,26.31,12.23,26.92,12.64z"/>
	</g>
</g>
</svg>
