<?xml version="1.0" encoding="utf-8"?>
<!-- Generator: Adobe Illustrator 24.1.1, SVG Export Plug-In . SVG Version: 6.00 Build 0)  -->
<svg version="1.1" id="Layer_1" xmlns="http://www.w3.org/2000/svg" xmlns:xlink="http://www.w3.org/1999/xlink" x="0px" y="0px"
	 viewBox="0 0 84.57 78.67" style="enable-background:new 0 0 84.57 78.67;" xml:space="preserve">
<style type="text/css">
	.st0{fill:#FFDCAD;}
	.st1{fill:#D79054;}
	.st2{fill:#FCCA92;}
	.st3{fill:#FFF9DF;}
</style>
<g>
	<path class="st0" d="M83.53,46.96C82.84,37.8,67.3,10.41,63.9,8.87c-2.91-1.32-4.64-1.36-6.39-0.15c-0.29,0.2-0.59,0.44-0.9,0.72
		c-2.04,1.86-2.16,3.15-2.17,3.17c-0.02,0.21-0.16,0.38-0.35,0.45c-0.2,0.06-0.41,0-0.54-0.15c-0.01-0.02-1.4-1.64-3.31-1.72
		c-1.8-0.08-4.71,0.35-6.54,1.88c-1.26,1.05-0.7,3.7-0.37,4.63c0.07,0.21,0,0.44-0.17,0.57c-0.18,0.14-0.42,0.14-0.6,0.01
		c-0.01-0.01-1.49-1.02-3.63-1.39c-1.57-0.27-4.64,0.4-6.88,1.94c-0.67,0.46-1.22,0.97-1.62,1.5c-1.48,1.96,0.59,6.68,1.51,8.34
		c0.13,0.24,0.04,0.53-0.18,0.68c-0.23,0.14-0.54,0.07-0.69-0.15C30.93,28.96,16.98,7.84,11.67,2.92C9.49,0.89,6.81,0.44,4.86,1.79
		C3.09,3,1.74,6.01,3.72,10.47c3.61,8.12,27.89,40.79,28.13,41.11c0.09,0.12,0.12,0.27,0.09,0.41c-0.03,0.14-0.12,0.27-0.25,0.34
		c-0.3,0.16-7.41,3.94-16.78,1.32c-5.53-1.55-9.42,0.56-10.84,1.54c-2.52,1.74-3.68,4.2-2.7,5.73c1.64,2.56,10.31,4.88,23.77,6.37
		c3.48,0.38,6.56,2.51,9.83,4.76c5.37,3.7,10.92,7.52,19.17,4.56c4.42-1.58,8.75-3.82,12.85-6.65
		C77.21,62.92,84.01,53.46,83.53,46.96z"/>
	<path class="st1" d="M56.93,7.88c-0.33,0.23-0.66,0.49-1,0.81c-1.33,1.22-1.95,2.24-2.24,2.93c-0.69-0.59-1.89-1.39-3.4-1.45
		c-1.82-0.08-4.68,0.32-6.74,1.74c-0.17,0.12-0.34,0.25-0.5,0.38c-1.36,1.14-1.24,3.23-0.99,4.55c-0.71-0.34-1.73-0.74-2.97-0.95
		c-1.8-0.31-5.14,0.39-7.63,2.1c-0.76,0.52-1.38,1.11-1.85,1.73c-0.95,1.25-0.83,3.15-0.38,4.92C24.88,18.17,16.37,5.89,12.36,2.17
		C9.81-0.19,6.64-0.67,4.28,0.96C2.2,2.39,0.56,5.85,2.79,10.88C6.24,18.65,27.49,47.4,30.68,51.7c-1.79,0.8-7.93,3.09-15.49,0.98
		C11,51.5,6.74,52.11,3.49,54.35c-3.03,2.09-4.29,5.08-2.98,7.11c2.35,3.67,14.63,5.74,24.51,6.83c3.23,0.36,6.21,2.41,9.37,4.59
		c5.32,3.66,11.35,7.81,20.08,4.68c4.5-1.61,8.91-3.89,13.08-6.77c10.68-7.36,17.5-16.97,16.98-23.91
		C83.83,37.37,68.08,9.65,64.32,7.94C61.07,6.47,59,6.45,56.93,7.88z M54.13,76.61c-8.25,2.95-13.8-0.87-19.17-4.56
		c-3.27-2.25-6.35-4.37-9.83-4.76C11.67,65.8,3.01,63.48,1.37,60.92c-0.98-1.53,0.18-3.99,2.7-5.73c1.42-0.98,5.32-3.08,10.84-1.54
		c9.37,2.62,16.48-1.15,16.78-1.32c0.13-0.07,0.22-0.19,0.25-0.34c0.03-0.14,0-0.29-0.09-0.41C31.61,51.25,7.33,18.59,3.72,10.47
		C1.74,6.01,3.09,3,4.86,1.79c1.95-1.35,4.63-0.9,6.82,1.13c5.3,4.92,19.25,26.04,19.39,26.26c0.15,0.23,0.45,0.3,0.69,0.15
		c0.22-0.15,0.31-0.44,0.18-0.68c-0.92-1.65-2.99-6.38-1.51-8.34c0.4-0.54,0.95-1.04,1.62-1.5c2.24-1.54,5.31-2.21,6.88-1.94
		c2.14,0.37,3.62,1.38,3.63,1.39c0.18,0.13,0.42,0.13,0.6-0.01c0.17-0.13,0.25-0.36,0.17-0.57c-0.32-0.93-0.89-3.57,0.37-4.63
		c1.83-1.53,4.74-1.96,6.54-1.88c1.91,0.09,3.29,1.71,3.31,1.72c0.13,0.16,0.35,0.22,0.54,0.15c0.19-0.06,0.34-0.24,0.35-0.45
		c0-0.01,0.13-1.31,2.17-3.17c0.31-0.28,0.6-0.52,0.9-0.72c1.75-1.21,3.49-1.17,6.39,0.15c3.4,1.55,18.95,28.94,19.63,38.09
		c0.49,6.5-6.32,15.96-16.55,23C62.88,72.79,58.55,75.03,54.13,76.61z"/>
	<path class="st2" d="M19.39,25.89C13.7,18.4,7.39,11.04,4.55,2.07c0-0.01-0.01-0.02-0.01-0.03c-1.6,1.34-2.68,4.25-0.82,8.44
		c3.43,7.73,25.59,37.68,27.93,40.84c0.26-0.47,0.44-1,0.53-1.52c0.65-3.78-1.43-7.45-3.51-10.67
		C25.74,34.6,22.65,30.18,19.39,25.89z"/>
	<path class="st2" d="M62.72,72.64c-0.75,0.22-1.52,0.4-2.3,0.5c-1.54,0.2-3.11,0.09-4.66,0.05c-4.31-0.09-8.87,0.38-12.71-1.57
		c-1.93-0.98-3.53-2.51-5.29-3.77c-5.16-3.72-11.62-5.14-17.94-5.8c-3.32-0.35-6.7-0.52-9.88-1.53c-2.65-0.84-5.2-2.37-6.79-4.62
		c-1.87,1.65-2.63,3.68-1.78,5.01c1.64,2.56,10.31,4.88,23.77,6.37c3.48,0.38,6.56,2.51,9.83,4.76c5.37,3.7,10.92,7.52,19.17,4.56
		C57.05,75.57,59.92,74.23,62.72,72.64z"/>
	<path class="st2" d="M34.12,17.7c-0.72,0.3-1.44,0.66-2.08,1.11c-0.67,0.46-1.22,0.97-1.62,1.5c-1.48,1.96,0.59,6.68,1.51,8.34
		c0.13,0.24,0.04,0.53-0.18,0.68c-0.08,0.05-0.17,0.07-0.27,0.06c0.66,0.81,1.41,1.55,2.24,2.17c0.94-0.46,1.36-1.61,1.3-2.66
		c-0.06-1.04-0.49-2.02-0.85-3c-0.57-1.57-0.95-3.24-0.89-4.91C33.34,19.85,33.61,18.71,34.12,17.7z"/>
	<path class="st2" d="M45.41,17.31c-0.36-1.19-0.54-2.47-0.25-3.69c0.16-0.68,0.49-1.33,0.94-1.86c-0.88,0.3-1.72,0.72-2.4,1.29
		c-1.26,1.05-0.7,3.7-0.37,4.63c0.06,0.18,0.01,0.37-0.11,0.51c0.57,0.91,1.29,1.73,2.14,2.38C46.18,19.77,45.75,18.41,45.41,17.31z
		"/>
	<path class="st2" d="M57.5,8.71c-0.29,0.2-0.59,0.44-0.9,0.72c-2.04,1.86-2.16,3.15-2.17,3.17c-0.01,0.18-0.12,0.33-0.28,0.41
		c0.48,1.01,1.25,1.89,2.23,2.43c0.2,0.11,0.44,0.22,0.66,0.16c0.39-0.09,0.53-0.57,0.57-0.97c0.15-1.56-0.21-3.14-0.05-4.7
		c0.05-0.52,0.19-1.04,0.41-1.53C57.83,8.5,57.67,8.6,57.5,8.71z"/>
	<path class="st2" d="M39.22,27.7c-0.31,0.01-0.56,0.16-0.72,0.5c-0.18,0.39-0.09,0.85,0.02,1.26c0.43,1.62,1.19,4.19,2.81,5
		c1.5,0.75,2.77-0.06,2.49-1.78c-0.1-0.58-0.19-1.16-0.41-1.7C43.09,30.24,40.6,27.64,39.22,27.7z"/>
	<path class="st2" d="M51.78,20.71c-0.23-0.02-0.44,0.06-0.59,0.3c-0.18,0.27-0.16,0.62-0.12,0.94c0.16,1.25,0.45,3.24,1.58,4.02
		c1.04,0.72,2.07,0.24,2.04-1.07c-0.01-0.44-0.03-0.88-0.13-1.31C54.41,23.01,52.82,20.81,51.78,20.71z"/>
	<path class="st2" d="M63.49,14.32c-0.2-0.02-0.37,0.05-0.5,0.25c-0.15,0.23-0.13,0.52-0.1,0.79c0.13,1.06,0.38,2.74,1.33,3.39
		c0.88,0.61,1.75,0.2,1.72-0.9c-0.01-0.37-0.02-0.74-0.11-1.1C65.71,16.26,64.37,14.4,63.49,14.32z"/>
	<path class="st3" d="M6.87,2.23c-0.27,0-0.27,0.41-0.02,0.45c2.24,0.45,4.05,1.43,5.38,3.33c0.62,0.88,1.27,2.02,2.48,1.84
		c0.18-0.03,0.26-0.24,0.12-0.36C12.3,5.22,10.69,2.26,6.87,2.23z"/>
	<path class="st3" d="M16.22,9.88c-0.27-0.29-0.5-0.61-0.72-0.94c-0.21-0.31-0.66,0.01-0.47,0.32c0.38,0.61,0.88,1.49,1.62,1.69
		c0.13,0.03,0.22-0.11,0.19-0.22C16.7,10.37,16.47,10.17,16.22,9.88z"/>
	<path class="st3" d="M11.42,54.7c-0.78-0.44-1.94-0.15-2.77,0.07c-0.95,0.25-1.93,0.75-2.57,1.51c-0.08,0.1,0.02,0.26,0.15,0.21
		c0.8-0.3,1.54-0.69,2.36-0.93c0.9-0.26,1.97-0.1,2.81-0.44C11.59,55.04,11.59,54.8,11.42,54.7z"/>
	<path class="st3" d="M68.88,18.94c-0.18-0.21-0.52,0-0.37,0.25c2.04,3.38,3.65,7.26,6,10.42c0.19,0.25,0.52,0.04,0.46-0.23
		C74.17,25.53,71.4,21.84,68.88,18.94z"/>
	<path class="st3" d="M76.67,32.45c-0.26-0.34-0.78,0.02-0.55,0.38c0.62,0.98,1.12,2.37,2.21,2.91c0.13,0.06,0.28-0.05,0.27-0.19
		C78.49,34.34,77.36,33.38,76.67,32.45z"/>
	<path class="st2" d="M66.29,68.97c-1.49-0.18-2.8,0.58-4.17,1.05c-2.14,0.74-4.25,1.35-6.52,0.86c-0.3-0.06-0.36,0.37-0.08,0.45
		c1.9,0.57,3.81,0.72,5.77,0.42c1.76-0.27,4.06-0.81,5.19-2.27C66.61,69.31,66.54,69,66.29,68.97z"/>
	<path class="st2" d="M66.04,66c-0.66,0.18-1.23,0.62-1.81,0.97c-0.79,0.47-1.7,0.84-2.59,1.07c-0.27,0.07-0.17,0.5,0.1,0.48
		c1.59-0.14,3.85-0.54,4.7-2.07C66.59,66.18,66.29,65.93,66.04,66z"/>
	<path class="st2" d="M32.92,40.64c-0.33-0.41-1,0.03-0.68,0.47c0.81,1.11,1.46,2.28,1.96,3.56c0.46,1.16,0.58,2.45,1.18,3.54
		c0.12,0.21,0.43,0.1,0.47-0.1C36.45,45.59,34.43,42.49,32.92,40.64z"/>
	<path class="st2" d="M37.17,45.99c0.03,1.03,0.03,2.31,0.45,3.27c0.07,0.17,0.35,0.18,0.38-0.03c0.14-1.06-0.22-2.29-0.49-3.31
		C37.46,45.72,37.16,45.8,37.17,45.99z"/>
	<path class="st2" d="M44.65,31.05c0.22,1.07,0.27,2.42,0.9,3.34c0.09,0.13,0.32,0.09,0.34-0.07c0.18-1.12-0.37-2.39-0.63-3.48
		C45.16,30.42,44.57,30.65,44.65,31.05z"/>
	<path class="st2" d="M45.69,29c0.02,0.57,0.13,1.3,0.63,1.65c0.12,0.09,0.31,0.01,0.3-0.15c-0.05-0.53-0.31-1-0.34-1.54
		C46.25,28.57,45.67,28.62,45.69,29z"/>
	<path class="st2" d="M56.05,24.34c0.06,0.48,0.14,0.95,0.19,1.43c0.04,0.47-0.02,1.03,0.16,1.47c0.06,0.14,0.18,0.27,0.34,0.29
		c0.03,0,0.07,0.01,0.1,0.01c0.25,0.02,0.47-0.14,0.46-0.41c0-0.07-0.02-0.12-0.05-0.17c-0.37-0.83-0.51-1.84-0.71-2.72
		C56.46,23.97,56.01,24.07,56.05,24.34z"/>
	<path class="st2" d="M56.63,21.58c-0.15,0.73-0.14,1.55,0.53,2.03c0.17,0.12,0.42,0.02,0.4-0.21c-0.04-0.61-0.31-1.18-0.35-1.79
		C57.19,21.28,56.69,21.26,56.63,21.58z"/>
	<path class="st2" d="M63.89,20.17c-0.35-0.41-0.67-0.9-1.09-1.24c-0.23-0.19-0.57,0.04-0.48,0.33c0.16,0.51,0.51,0.99,0.77,1.46
		c0.24,0.42,0.45,0.86,0.98,0.86c0.11,0,0.24-0.09,0.28-0.19C64.53,20.89,64.2,20.54,63.89,20.17z"/>
</g>
</svg>
