<svg xmlns="http://www.w3.org/2000/svg" width="332.978" height="110.57">
    <defs>
        <style>
            .cls-2{fill:#d81800}.cls-3{fill:#e55b40}.cls-4{fill:#fff}
        </style>
    </defs>
    <g id="Group_6280" data-name="Group 6280" transform="translate(-17 -8.43)">
        <g id="Group_6272" data-name="Group 6272" transform="translate(-140 -20)">
            <g id="Group_6271" data-name="Group 6271" transform="translate(73.154 -29.702)">
                <g id="Group_6266" data-name="Group 6266">
                    <g id="Group_6265" data-name="Group 6265">
                        <path id="Path_20849" data-name="Path 20849" d="m121.931 81.015-.963 11.185 7.931-7.376z" style="fill:#ab1403"/>
                        <path id="Path_20850" data-name="Path 20850" class="cls-2" d="m115.79 77.663 6.141 3.352 40.216-22.883z"/>
                        <path id="Path_20851" data-name="Path 20851" class="cls-2" d="m115.79 77.663 5.178 14.537.963-11.183z"/>
                        <path id="Path_20852" data-name="Path 20852" class="cls-3" d="m121.931 81.015 6.968 3.806 11 6.014 22.247-32.7z"/>
                        <path id="Path_20853" data-name="Path 20853" class="cls-3" d="m100.838 69.487 14.953 8.176 46.357-19.531z"/>
                    </g>
                </g>
                <g id="Group_6270" data-name="Group 6270">
                    <g id="Group_6267" data-name="Group 6267">
                        <path id="Path_20854" data-name="Path 20854" class="cls-4" d="m119.738 92.259-.422-1.439q.726-.213 1.449-.417l.407 1.444q-.715.201-1.434.412z"/>
                    </g>
                    <g id="Group_6268" data-name="Group 6268">
                        <path id="Path_20855" data-name="Path 20855" class="cls-4" d="M411.814 164.787q-1.072-1.037-2.16-2.054l1.024-1.1q1.1 1.026 2.178 2.07zm-5.091-4.737q-1.11-.995-2.235-1.973l.984-1.132q1.133.985 2.252 1.988zm-5.26-4.548q-1.146-.954-2.305-1.891l.942-1.167q1.168.943 2.323 1.906zm-5.424-4.356q-1.179-.912-2.371-1.807l.9-1.2q1.2.9 2.389 1.82zm-279.668-2.256h-.482l.013-1.5h.467q1.242 0 2.479-.066l.078 1.5a51 51 0 0 1-2.555.066zm-4.535-.226a41.513 41.513 0 0 1-2.414-.315l-.607-.1.266-1.476c.193.035.387.067.58.1.76.122 1.543.224 2.327.3zm11.117-.2-.187-1.488a61.645 61.645 0 0 0 2.922-.442l.26 1.478a67.497 67.497 0 0 1-2.995.449zm-18.1-1.2a33.958 33.958 0 0 1-2.873-1.058l.581-1.383c.9.379 1.824.719 2.746 1.012zm25.047-.064-.34-1.461q1.44-.336 2.875-.725l.392 1.448q-1.464.396-2.927.738zm260.568-.214q-1.212-.87-2.435-1.721l.857-1.232q1.233.858 2.453 1.736zm-253.782-1.647-.446-1.433q1.419-.441 2.83-.918l.48 1.422q-1.431.48-2.867.929zm-38.37-.939a33.263 33.263 0 0 1-2.59-1.628l.856-1.233c.793.55 1.626 1.074 2.475 1.557zm45.013-1.315-.512-1.41q1.405-.51 2.8-1.035l.528 1.4q-1.402.53-2.816 1.043zm241.416-.057q-1.24-.826-2.494-1.635l.814-1.261q1.262.814 2.512 1.648zm-234.866-2.411-.54-1.4 2.788-1.08.544 1.4zm-57.356-.373a30.61 30.61 0 0 1-2.178-2.158l1.108-1.01a29.055 29.055 0 0 0 2.071 2.05zm286.366-.974q-1.269-.783-2.549-1.548l.77-1.288q1.289.77 2.567 1.56zm-222.5-1.187-.548-1.4 2.785-1.094.549 1.4zm216.517-2.367q-1.3-.738-2.6-1.459l.725-1.314q1.314.726 2.619 1.471zm-210.018-.192-.551-1.4 2.784-1.1.551 1.4zm-75.08-.651a25.377 25.377 0 0 1-1.567-2.654l1.336-.682a23.835 23.835 0 0 0 1.474 2.5zm81.576-1.913-.549-1.395 2.786-1.1.548 1.4zm197.42-.59q-1.318-.694-2.648-1.37l.678-1.338q1.34.681 2.669 1.381zm-190.92-1.954-.544-1.4 2.793-1.082.54 1.4zm184.709-1.182q-1.342-.649-2.694-1.28l.634-1.359q1.361.634 2.713 1.288zM84.7 128.4a21.267 21.267 0 0 1-.674-3.024l1.485-.216a19.783 19.783 0 0 0 .625 2.81zm97.7-.49-.533-1.4q1.4-.532 2.8-1.059l.527 1.4q-1.394.524-2.794 1.057zm171.881-1.6q-1.363-.6-2.735-1.188l.587-1.38q1.381.588 2.756 1.2zm-165.347-.848-.519-1.407q1.407-.518 2.815-1.028l.511 1.41q-1.406.507-2.809 1.023zM347.87 123.6q-1.383-.558-2.774-1.1l.541-1.4q1.4.542 2.794 1.1zm-152.377-.5-.5-1.415q1.413-.5 2.832-.987l.488 1.418q-1.413.484-2.82.984zm-110.149-1.772-1.5-.081c.007-.142.017-.283.028-.424a21.4 21.4 0 0 1 .378-2.652l1.469.3a19.737 19.737 0 0 0-.351 2.465zm256.029-.223q-1.4-.512-2.809-1l.493-1.418q1.419.5 2.83 1.009zm-139.285-.273-.474-1.423q1.422-.474 2.85-.936l.462 1.427q-1.426.461-2.838.932zm132.709-2q-1.418-.465-2.841-.907l.445-1.432q1.436.447 2.863.913zM208.72 118.7l-.445-1.433q1.433-.444 2.87-.875l.431 1.436q-1.431.425-2.856.872zm119.428-1.918q-1.433-.416-2.87-.812l.4-1.446q1.447.4 2.89.817zm-112.751-.07-.41-1.442q1.443-.411 2.891-.806l.394 1.448q-1.44.388-2.872.796zm106.038-1.759q-1.445-.367-2.9-.715l.35-1.459q1.461.35 2.916.72zm-99.316-.057-.372-1.453q1.455-.372 2.914-.724l.352 1.458q-1.45.345-2.894.715zm-135.274-.1-1.389-.563a25.024 25.024 0 0 1 1.334-2.779l1.31.729a23.811 23.811 0 0 0-1.255 2.611zm227.819-1.449q-1.457-.318-2.917-.617l.3-1.47q1.472.3 2.938.622zm-85.777-.074-.328-1.463q1.465-.329 2.936-.634l.305 1.469q-1.46.301-2.913.626zm78.956-1.3q-1.465-.27-2.936-.519l.25-1.478q1.48.25 2.959.522zm-72.143-.1-.277-1.475q1.478-.277 2.958-.531l.254 1.478q-1.47.25-2.935.524zm65.281-1.043q-1.475-.22-2.952-.419l.2-1.487q1.49.2 2.975.422zm-58.422-.114-.223-1.483q1.486-.223 2.976-.422l.2 1.487q-1.48.193-2.953.414zm51.524-.8q-1.48-.169-2.964-.318l.149-1.492q1.494.148 2.986.32zm-44.628-.106-.167-1.491q1.494-.167 2.989-.312l.144 1.493q-1.483.143-2.966.309zm37.7-.569q-1.485-.118-2.974-.216l.1-1.5q1.5.1 3 .218zm-30.778-.083-.114-1.5q1.5-.114 3-.2l.09 1.5q-1.484.086-2.972.199zm-166.149-.216-1.191-.911c.61-.8 1.276-1.585 1.98-2.34l1.1 1.022a30.538 30.538 0 0 0-1.885 2.228zm189.984-.137q-1.488-.067-2.979-.113l.046-1.5q1.5.045 3 .114zm-16.889-.049-.061-1.5q1.5-.06 3-.1l.038 1.5q-1.484.039-2.973.099zm9.936-.145q-1.044-.012-2.088-.011h-.893l-.008-1.5h.9q1.052 0 2.1.011zm-178.314-4.584-.967-1.147a36.283 36.283 0 0 1 2.419-1.868l.866 1.225a34.19 34.19 0 0 0-2.318 1.79zm5.626-3.9-.758-1.295c.852-.5 1.744-.992 2.653-1.465l.693 1.33c-.886.461-1.759.942-2.588 1.429zm6.141-3.151-.617-1.368q1.375-.62 2.777-1.19l.566 1.39q-1.375.559-2.726 1.167zm6.425-2.579-.506-1.412q1.421-.51 2.851-.977l.467 1.426q-1.41.459-2.812.966z"/>
                    </g>
                    <g id="Group_6269" data-name="Group 6269">
                        <path id="Path_20856" data-name="Path 20856" class="cls-4" d="M415.749 168.7q-.522-.535-1.048-1.067l1.065-1.056q.531.534 1.058 1.075z"/>
                    </g>
                </g>
            </g>
        </g>
    </g>
</svg>
