<svg xmlns="http://www.w3.org/2000/svg" width="27.318" height="25.496">
    <g data-name="Group 6137">
        <path data-name="Path 20732" d="M28.318 15.659a13.659 13.659 0 1 0-27.318 0v10.927a.911.911 0 0 0 .911.911h4.553a.911.911 0 0 0 .911-.911V17.48a.911.911 0 0 0-.911-.911H2.821v-.911a11.838 11.838 0 0 1 23.675 0v.911h-3.642a.911.911 0 0 0-.911.911v9.106a.911.911 0 0 0 .911.911h4.553a.911.911 0 0 0 .911-.911zM5.553 18.391v7.285H2.821v-7.285zm18.212 7.285v-7.285H26.5v7.285z" transform="translate(-1 -2)" style="fill:#aa7b0e"/>
    </g>
</svg>
