<svg xmlns="http://www.w3.org/2000/svg" width="30.193" height="26.511">
    <defs>
        <style>
            .cls-1{fill:#aa7b0e}
        </style>
    </defs>
    <g id="Group_6133" data-name="Group 6133" transform="translate(0 -.215)">
        <path id="Path_20721" data-name="Path 20721" class="cls-1" d="m23.136 10.737 2.055-.089a.962.962 0 0 0 .715-.893v-2.5H3.752a.788.788 0 0 1-.8-.715.8.8 0 0 1 .8-.8h4.109l2.858-1.34H2.5a.991.991 0 0 0-.983.983v18.932a.991.991 0 0 0 .983.985h22.423a.991.991 0 0 0 .983-.983v-4.379a.991.991 0 0 0-.983-.983h-3.038a2.423 2.423 0 0 1-2.412-2.5v-3.306c.001-2.233 1.876-2.412 3.663-2.412zm-11.791-5h9.826l-1.876-3.754zm11.523 0h3.037v-.36a.991.991 0 0 0-.983-.983h-2.769zm-1.429-2.861h3.484a2.479 2.479 0 0 1 2.412 2.5v4.378a1.923 1.923 0 0 1-.179.983h.536a2.479 2.479 0 0 1 2.5 2.412v3.305a2.556 2.556 0 0 1-2.5 2.5h-.536a1.767 1.767 0 0 1 .179.983v4.377a2.4 2.4 0 0 1-2.412 2.412H2.5A2.479 2.479 0 0 1 0 24.315V5.377a2.556 2.556 0 0 1 2.5-2.5h11.346L19.384.285a.751.751 0 0 1 .983.357zm6.253 9.379h-5.807a.844.844 0 0 0-.893.893v3.305a.918.918 0 0 0 .893.983h5.806a.991.991 0 0 0 .983-.983v-3.304a.918.918 0 0 0-.982-.894z"/>
        <circle id="Ellipse_87" data-name="Ellipse 87" class="cls-1" cx="1.438" cy="1.438" r="1.438" transform="translate(22.064 13.377)"/>
    </g>
</svg>
