<svg xmlns="http://www.w3.org/2000/svg" width="26.895" height="26.895">
    <path data-name="Path 20733" d="M-2014.245-1404.1a.756.756 0 0 1-.755-.755v-.81a7.381 7.381 0 0 1 4.954-6.967l2.839-.989a.77.77 0 0 1 .247-.041.759.759 0 0 1 .556.242 6.6 6.6 0 0 0 4.851 2.291 6.6 6.6 0 0 0 4.849-2.29.763.763 0 0 1 .557-.243.77.77 0 0 1 .247.041l2.839.989a7.38 7.38 0 0 1 4.956 6.967v.81a.756.756 0 0 1-.755.755zm4.694-7.107a5.874 5.874 0 0 0-3.94 5.542v.055h23.875v-.055a5.873 5.873 0 0 0-3.94-5.542l-2.383-.83a8.022 8.022 0 0 1-5.614 2.418 8.019 8.019 0 0 1-5.614-2.418zm4.149-2.186a8.9 8.9 0 0 1-2.445-3.971c-.956-.164-1.635-1.368-1.635-2.943a3.273 3.273 0 0 1 1.1-2.727v-3.955l-2.64-.294a.755.755 0 0 1-.669-.7.757.757 0 0 1 .57-.784l8.828-2.207a.7.7 0 0 1 .272-.018l9.911 1.1a.736.736 0 0 1 .193.043h.019a.756.756 0 0 1 .476.652v4.153l.883.883a.754.754 0 0 1 .142.871l-1.1 2.207a.754.754 0 0 1-.675.417.75.75 0 0 1-.675-.417l-1.1-2.207a.75.75 0 0 1 .143-.871l.881-.883v-3.136l-1.8.451v4.717a3.189 3.189 0 0 1 1.1 2.7c0 1.575-.68 2.779-1.635 2.943a8.909 8.909 0 0 1-2.445 3.971 5.717 5.717 0 0 1-3.849 1.566 5.714 5.714 0 0 1-3.848-1.568zm-1.63-5.5a.753.753 0 0 1 .465.5c.751 3.025 2.765 5.055 5.014 5.055s4.264-2.031 5.015-5.054a.764.764 0 0 1 .448-.517.755.755 0 0 1 .589.008 2.25 2.25 0 0 0 .369-1.409 2.3 2.3 0 0 0-.383-1.444.766.766 0 0 1-.546-.221.761.761 0 0 1-.216-.611l.017-.157a2.65 2.65 0 0 0 .027-.326v-.518a16.945 16.945 0 0 1-5.315.721 16.936 16.936 0 0 1-5.316-.721v.518a2.675 2.675 0 0 0 .022.3l.02.183a.752.752 0 0 1-.215.612.771.771 0 0 1-.548.221 2.309 2.309 0 0 0-.383 1.444 2.407 2.407 0 0 0 .363 1.422.818.818 0 0 1 .306-.061.731.731 0 0 1 .267.048zm14.675-4.574.186.371.185-.371-.185-.186zm-14.511-1.727a14.063 14.063 0 0 0 5.316.823 14.1 14.1 0 0 0 5.315-.823v-2.147l-4.581 1.145a.746.746 0 0 1-.182.023.785.785 0 0 1-.083-.005l-5.784-.643zm.191-3.124 5.625.625 4.624-1.156-5.625-.625zm6.781 8.767a.756.756 0 0 1-.755-.755.756.756 0 0 1 .755-.755h1.1a.756.756 0 0 1 .755.755.756.756 0 0 1-.755.755zm-4.415 0a.756.756 0 0 1-.755-.755.756.756 0 0 1 .755-.755h1.1a.756.756 0 0 1 .755.755.756.756 0 0 1-.755.755z" transform="translate(2015 1431)" style="fill:#aa7b0e"/>
</svg>
