<svg xmlns="http://www.w3.org/2000/svg" width="1074.556" height="178.208">
    <defs>
        <linearGradient id="linear-gradient" x1=".755" y1="-.133" x2=".744" y2="1.109" gradientUnits="objectBoundingBox">
            <stop offset="0" stop-color="#63a809"/>
            <stop offset="1" stop-color="#c2fb76"/>
        </linearGradient>
        <linearGradient id="linear-gradient-2" x1=".619" y1="4.515" x2=".719" y2="-3.273" gradientUnits="objectBoundingBox">
            <stop offset="0" stop-color="#91dc2e"/>
            <stop offset="1" stop-color="#63a809"/>
        </linearGradient>
        <filter id="Path_21334" x="0" y="0" width="999.576" height="178.208" filterUnits="userSpaceOnUse">
            <feOffset dy="-1"/>
            <feGaussianBlur stdDeviation="19.5" result="blur"/>
            <feFlood flood-color="#fff"/>
            <feComposite operator="in" in2="blur"/>
            <feComposite in="SourceGraphic"/>
        </filter>
        <style>
            .cls-3{fill:#91dc2e}.cls-4{fill:#894029}.cls-6{fill:#63a809}.cls-7{fill:#c2fb76}
        </style>
    </defs>
    <g id="Group_6503" data-name="Group 6503" transform="translate(-24.842 -647.291)">
        <g transform="translate(24.84 647.29)" style="filter:url(#Path_21334)">
            <path id="Path_21334-2" data-name="Path 21334" d="M16469.793 1569c67.8-13.189 142.344-25.024 220.811-34.658 183.7-22.555 369.992-31.141 497.855-24.211 97.342 5.278 160.869 19.536 163.8 43.454.6 4.913-1.371 10.071-5.7 15.415z" transform="translate(-16411.29 -1448.29)" style="fill:url(#linear-gradient)"/>
        </g>
        <g id="Group_6490" data-name="Group 6490" transform="translate(399.388 362.061)">
            <path id="Path_20844" data-name="Path 20844" d="M319.051 363.673a4.37 4.37 0 0 1 2.637-6.977v-.132a5.078 5.078 0 0 1 4.978-5.076 5.552 5.552 0 0 1 10.651 2.938 5.661 5.661 0 0 1 .641-.038 5.486 5.486 0 0 1 4.194 9.023 5.882 5.882 0 0 1-8.725 7.8 5.074 5.074 0 0 1-6.024.71 5.882 5.882 0 0 1-8.349-8.252z" style="fill:#558e0b"/>
            <path id="Path_20845" data-name="Path 20845" class="cls-3" d="M327.131 370.843a5.882 5.882 0 0 1-4.444-9.736 4.371 4.371 0 0 1 2.636-6.978v-.131a5.045 5.045 0 0 1 .626-2.439 5.123 5.123 0 0 1 .717-.071 5.556 5.556 0 0 1 1.26-1.924 5.061 5.061 0 0 1 2.375-.642 5.6 5.6 0 0 1 .43-.867 5.546 5.546 0 0 1 6.586 6.371 5.661 5.661 0 0 1 .641-.038 5.486 5.486 0 0 1 4.194 9.023 5.88 5.88 0 0 1 .2 6.629 5.94 5.94 0 0 1-1.322.151 5.861 5.861 0 0 1-3.97-1.542 5.072 5.072 0 0 1-6.024.709 5.86 5.86 0 0 1-3.905 1.485z"/>
            <g id="Group_6264" data-name="Group 6264">
                <path id="Rectangle_63" data-name="Rectangle 63" class="cls-4" transform="translate(330.003 359.075)" d="M0 0h1.048v24.597H0z"/>
            </g>
            <path id="Path_20846" data-name="Path 20846" class="cls-4" d="m330.82 371.375-6.407-6.6 5.82 7.126z"/>
            <path id="Path_20847" data-name="Path 20847" class="cls-4" d="m330.757 368.522 6.131-4.9-6.59 4.262z"/>
            <path id="Path_20848" data-name="Path 20848" class="cls-4" d="m330.8 363.875-3.546-2.99 2.99 3.546z"/>
        </g>
        <path id="Path_21333" data-name="Path 21333" d="M16258.755 1458c107.908-20.275 263.4-33 436.243-33s328.338 12.724 436.248 33z" transform="translate(-16159 -690)" style="fill:url(#linear-gradient-2)"/>
        <g id="Group_6258" data-name="Group 6258" transform="translate(212.393 367.516)">
            <path id="Path_20828" data-name="Path 20828" class="cls-6" d="M81.566 364.439a7.876 7.876 0 0 0-4.752-12.575c0-.079.006-.158.006-.237a9.15 9.15 0 0 0-8.972-9.148 10.006 10.006 0 0 0-19.2 5.295 10.011 10.011 0 0 0-1.148-.074 9.887 9.887 0 0 0-7.559 16.262 10.6 10.6 0 0 0 15.725 14.065 9.146 9.146 0 0 0 10.857 1.279 10.6 10.6 0 0 0 15.047-14.872z"/>
            <path id="Path_20829" data-name="Path 20829" class="cls-3" d="M67 377.361a10.6 10.6 0 0 0 8.01-17.547 7.876 7.876 0 0 0-4.752-12.575c0-.079.006-.157.006-.237a9.1 9.1 0 0 0-1.128-4.4 9.018 9.018 0 0 0-1.292-.127 10.01 10.01 0 0 0-2.272-3.468 9.1 9.1 0 0 0-4.28-1.157 10.02 10.02 0 0 0-.776-1.563 9.986 9.986 0 0 0-12.013 9.8 10.147 10.147 0 0 0 .143 1.683 9.877 9.877 0 0 0-11.043 9.82 9.849 9.849 0 0 0 2.33 6.373 10.595 10.595 0 0 0-.365 11.947 10.595 10.595 0 0 0 9.538-2.507 9.146 9.146 0 0 0 10.857 1.279A10.561 10.561 0 0 0 67 377.361z"/>
            <g id="Group_6258-2" data-name="Group 6258">
                <path id="Rectangle_60" data-name="Rectangle 60" class="cls-4" transform="translate(59.939 356.153)" d="M0 0h1.888v44.331H0z"/>
            </g>
            <path id="Path_20830" data-name="Path 20830" class="cls-4" d="m60.354 378.32 11.548-11.9-10.49 12.844z"/>
            <path id="Path_20831" data-name="Path 20831" class="cls-4" d="m60.47 373.18-11.05-8.83 11.88 7.68z"/>
            <path id="Path_20832" data-name="Path 20832" class="cls-4" d="m60.383 364.8 6.391-5.389-5.389 6.391z"/>
        </g>
        <g id="Group_6491" data-name="Group 6491" transform="translate(504.439 332.843)">
            <path id="Path_20823" data-name="Path 20823" class="cls-7" d="m255.56 406.334 2.388-.978c1.566-.578 3.844-1.553 6.78-2.544 2.953-.983 6.438-2.41 10.635-3.518a377.63 377.63 0 0 1 14.6-3.067c5.421-.786 11.341-1.181 17.675-1.544 6.311.281 13.121.135 19.981 1.467a80.658 80.658 0 0 1 10.424 1.979c3.427.9 7.061 1.629 10.408 2.823 3.363 1.148 6.893 2.182 10.188 3.457l9.859 3.774 9.517 3.8c3.127 1.1 6.192 2.342 9.26 3.515 3.067.986 6.1 1.957 9.088 3.009s6.027 1.567 8.966 2.466c1.48.387 2.937.854 4.408 1.168q2.222.372 4.4.814c2.912.55 5.761 1.178 8.577 1.647l8.3 1a77.565 77.565 0 0 0 7.861.885c5.086.3 9.8.651 14.033 1.037l11.015.391c3.074.079 5.541.334 7.213.423l2.587.225-2.367.988c-1.558.586-3.829 1.571-6.785 2.58s-6.538 2.413-10.748 3.627a404.345 404.345 0 0 1-14.433 3.143c-5.347 1.009-11.291 1.263-17.592 1.818-3.16.116-6.417-.125-9.763-.185q-2.512-.064-5.079-.208c-1.7-.142-3.4-.443-5.134-.662-3.439-.517-7.018-.9-10.483-1.744-3.474-.818-7-1.672-10.512-2.646-3.4-1.113-6.863-2.18-10.285-3.391l-9.95-3.776-9.582-3.87-9.28-3.637c-6.136-2.177-12.072-4.417-17.991-5.892-5.845-1.9-11.726-2.664-17.282-3.989-2.811-.461-5.584-.7-8.267-1.108-2.682-.34-5.312-.867-7.811-1.022-5-.327-9.671-.714-13.879-1.128-4.248-.241-8.059-.284-11.149-.449-3.1-.084-5.558-.347-7.223-.439l-2.568-.239z" transform="translate(0 17.939)"/>
            <path id="Path_20825" data-name="Path 20825" class="cls-7" d="M360.807 438.855s2.174-.57 5.992-1.381c1.931-.335 4.184-1.055 6.762-1.686 2.573-.608 5.457-1.516 8.619-2.412 3.158-.849 6.531-2.078 10.135-3.109L403.6 426.6c3.931-1.24 7.958-2.666 12.132-3.916l12.679-3.825c4.306-1.168 8.607-2.352 12.931-3.285 4.268-1.092 8.629-1.667 12.763-2.458 4.214-.54 8.242-1.173 12.157-1.283l5.657-.289c1.833-.007 3.614.1 5.309.142 1.7.083 3.317.058 4.858.225q2.307.3 4.364.58c1.364.19 2.636.335 3.806.534 1.168.228 2.228.53 3.188.753 3.829.955 5.951 1.6 5.951 1.6s-2.271.144-6.131.22c-.965.028-2.027.007-3.183.083-1.163.134-2.412.208-3.741.324-2.659.185-5.634.454-8.868.953-3.232.365-6.7 1.014-10.363 1.683q-2.75.436-5.611 1.158c-1.9.474-3.863.824-5.845 1.26-7.907 1.98-16.3 4.243-24.754 6.642l-12.68 3.492c-4.176 1.212-8.384 2.154-12.429 3.178s-8.037 1.79-11.806 2.529c-3.8.676-7.375 1.316-10.751 1.625a84.923 84.923 0 0 1-9.2.733 59.889 59.889 0 0 1-7.081.031c-3.91-.209-6.145-.434-6.145-.434z" transform="translate(68.591 28.926)"/>
            <path id="Path_20824" data-name="Path 20824" d="m313.171 393.494 2.869.154c1.868.145 4.608.2 8.092.677A262.321 262.321 0 0 1 352.7 399.4l18.707 4.121a355.23 355.23 0 0 0 20.75 3.725c3.586.614 7.264.922 10.964 1.384 3.723.238 7.467.669 11.268.755l5.71.261 5.753.02c3.842.094 7.707-.1 11.569-.233 7.773-.3 15.665-.9 23.416-1.389 7.77-.548 15.46-.993 22.989-1.283 3.759-.155 7.489-.243 11.149-.264 3.673.068 7.277.188 10.807.461a80.99 80.99 0 0 1 19.776 3.657 55.307 55.307 0 0 1 15.311 7.512 58.056 58.056 0 0 1 9.734 8.5 64.353 64.353 0 0 1 5.168 6.359l1.642 2.365-2.177-1.875c-1.4-1.232-3.54-2.938-6.3-4.972a71.357 71.357 0 0 0-10.49-6.214 61.308 61.308 0 0 0-14.687-4.7 96.838 96.838 0 0 0-18.273-1.31c-6.585.157-13.6.732-20.931 1.394l-22.767 2.314c-7.829.712-15.772 1.381-23.867 1.643a192.076 192.076 0 0 1-24.323-.5c-4.015-.21-7.953-.932-11.858-1.374-3.872-.685-7.723-1.221-11.44-2.056l-5.538-1.174-5.358-1.412c-3.543-.9-6.926-1.985-10.251-2.942-6.6-2.005-12.723-4.218-18.337-6.194l-15.29-5.429c-4.572-1.511-8.543-2.937-11.853-3.913-3.293-1.057-5.954-1.809-7.75-2.319z" transform="translate(37.546 17.164)" style="fill:#8ecd3a"/>
            <path id="Path_20826" data-name="Path 20826" d="M493.746 400.467c2.463-16.425-9.856-21.449-9.856-21.449 2.341 6.47.507 14.981-1.878 18.77 2.194-35.408-34.618-32.806-40.517-27.579 13.077 1.652 23.676 9.91 17.412 24.913-9.971 23.887-93.529 12.731-134 12.525 37.783 7.226 75.7 20.372 144.112 11.219 52.207-6.985 79.007 19.89 79.007 19.89-12.414-30.863-38.814-37.301-54.28-38.289z" transform="translate(45.198)" style="fill:#6cb013"/>
            <g id="Group_6260" data-name="Group 6260" transform="translate(20.176 47.939)">
                <path id="Path_20834" data-name="Path 20834" class="cls-6" d="M465.342 362.574A7.874 7.874 0 0 0 460.59 350c0-.079.006-.157.006-.237a9.15 9.15 0 0 0-8.972-9.148 10.006 10.006 0 0 0-19.2 5.295 9.877 9.877 0 0 0-11.043 9.82 9.847 9.847 0 0 0 2.33 6.373 10.6 10.6 0 0 0 15.725 14.065 9.144 9.144 0 0 0 10.856 1.279 10.6 10.6 0 0 0 15.047-14.872z"/>
                <path id="Path_20835" data-name="Path 20835" class="cls-3" d="M450.781 375.5a10.6 10.6 0 0 0 8.009-17.547 7.874 7.874 0 0 0-4.752-12.574c0-.08.007-.158.007-.238a9.112 9.112 0 0 0-1.128-4.4 9.164 9.164 0 0 0-1.293-.127 10.016 10.016 0 0 0-2.271-3.468 9.114 9.114 0 0 0-4.281-1.157 9.927 9.927 0 0 0-.775-1.563 10 10 0 0 0-11.87 11.483 9.877 9.877 0 0 0-11.043 9.82 9.847 9.847 0 0 0 2.33 6.373 10.59 10.59 0 0 0-.365 11.947 10.594 10.594 0 0 0 9.538-2.507 9.14 9.14 0 0 0 10.856 1.279 10.563 10.563 0 0 0 7.038 2.679z"/>
                <g id="Group_6260-2" data-name="Group 6260">
                    <path id="Rectangle_61" data-name="Rectangle 61" class="cls-4" transform="translate(443.716 354.289)" d="M0 0h1.889v44.331H0z"/>
                </g>
                <path id="Path_20836" data-name="Path 20836" class="cls-4" d="m444.131 376.456 11.548-11.9-10.49 12.844z"/>
                <path id="Path_20837" data-name="Path 20837" class="cls-4" d="m444.246 371.315-11.049-8.83 11.877 7.681z"/>
                <path id="Path_20838" data-name="Path 20838" class="cls-4" d="m444.159 362.94 6.391-5.389-5.389 6.391z"/>
            </g>
            <g id="Group_6261" data-name="Group 6261" transform="translate(-28.257 56.777)">
                <path id="Path_20839" data-name="Path 20839" class="cls-6" d="M373 354.289a3.585 3.585 0 0 1 2.164-5.725v-.108a4.165 4.165 0 0 1 4.084-4.164 4.556 4.556 0 0 1 8.8 1.644 4.6 4.6 0 0 1-.065.766 4.5 4.5 0 0 1 5.027 4.471 4.486 4.486 0 0 1-1.06 2.9 4.827 4.827 0 0 1-7.159 6.4 4.161 4.161 0 0 1-4.943.582 4.826 4.826 0 0 1-6.85-6.77z"/>
                <path id="Path_20840" data-name="Path 20840" class="cls-3" d="M379.626 360.172a4.825 4.825 0 0 1-3.646-7.988 3.585 3.585 0 0 1 2.163-5.725v-.108a4.145 4.145 0 0 1 .513-2 4.079 4.079 0 0 1 .588-.058 4.545 4.545 0 0 1 1.035-1.579 4.142 4.142 0 0 1 1.948-.527.888.888 0 0 1 1.266-.806 4.556 4.556 0 0 1 4.556 4.556 4.6 4.6 0 0 1-.065.766 4.5 4.5 0 0 1 5.027 4.471 4.486 4.486 0 0 1-1.06 2.9 3.061 3.061 0 1 1-4.176 4.3 4.164 4.164 0 0 1-4.943.583 4.808 4.808 0 0 1-3.206 1.215z"/>
                <g id="Group_6262" data-name="Group 6262">
                    <path id="Rectangle_62" data-name="Rectangle 62" class="cls-4" transform="translate(381.983 350.517)" d="M0 0h.86v20.181H0z"/>
                </g>
                <path id="Path_20841" data-name="Path 20841" class="cls-4" d="m382.654 360.608-5.254-5.418 4.775 5.847z"/>
                <path id="Path_20842" data-name="Path 20842" class="cls-4" d="m382.6 358.268 5.03-4.02-5.407 3.5z"/>
                <path id="Path_20843" data-name="Path 20843" class="cls-4" d="m382.641 354.455-2.91-2.455 2.454 2.909z"/>
            </g>
        </g>
    </g>
</svg>
