<svg xmlns="http://www.w3.org/2000/svg" width="90.293" height="118.264">
    <defs>
        <filter id="Path_21396" x="0" y="0" width="90.293" height="118.264" filterUnits="userSpaceOnUse">
            <feOffset dy="6"/>
            <feGaussianBlur stdDeviation="5" result="blur"/>
            <feFlood flood-opacity=".6"/>
            <feComposite operator="in" in2="blur"/>
            <feComposite in="SourceGraphic"/>
        </filter>
        <filter id="Path_20598" x="21.552" y="13.271" width="43.675" height="43.672" filterUnits="userSpaceOnUse">
            <feOffset dy="1"/>
            <feGaussianBlur stdDeviation="2" result="blur-2"/>
            <feFlood flood-color="#060000" flood-opacity=".6"/>
            <feComposite operator="in" in2="blur-2"/>
            <feComposite in="SourceGraphic"/>
        </filter>
        <linearGradient id="linear-gradient" x1=".5" x2=".5" y2="1" gradientUnits="objectBoundingBox">
            <stop offset="0" stop-color="#ff4141"/>
            <stop offset="1" stop-color="#9f0404"/>
        </linearGradient>
        <style>
            .cls-1{fill:#593524}
        </style>
    </defs>
    <g id="Component_19_190" data-name="Component 19 – 190" transform="translate(11.306 5.766)">
        <g id="Group_21388" data-name="Group 21388">
            <path id="Path_21392" data-name="Path 21392" class="cls-1" d="M359.511 787.038c-.719-.688-1.97-4.94-1.782-6.566a11.911 11.911 0 0 1 5.211 4.335 7.492 7.492 0 0 1-3.429 2.231z" transform="translate(-343.185 -780.472)"/>
            <path id="Path_21393" data-name="Path 21393" class="cls-1" d="M553.889 781.762c.377-.921 3.877-3.641 5.458-4.062a11.91 11.91 0 0 1-2.127 6.436 7.489 7.489 0 0 1-3.331-2.374z" transform="translate(-506.59 -777.107)"/>
            <path id="Path_21394" data-name="Path 21394" class="cls-1" d="M642.119 645.153c.841-.531 5.27-.715 6.8-.139a11.912 11.912 0 0 1-5.468 4.006 7.491 7.491 0 0 1-1.332-3.867z" transform="translate(-580.08 -619.765)"/>
            <path id="Path_21395" data-name="Path 21395" class="cls-1" d="M275.158 655c-1.931-1.3-4.387-5.28-4.387-5.28a15.838 15.838 0 0 1 6.981 2.088c-1.52 3.492-2.594 3.192-2.594 3.192z" transform="translate(-270.771 -626.6)"/>
            <g transform="translate(-11.31 -5.77)" style="filter:url(#Path_21396)">
                <path id="Path_21396-2" data-name="Path 21396" d="M346.385 37.237a11.143 11.143 0 0 0-3.638-21.376A11.246 11.246 0 0 0 323.063 5.2a12.03 12.03 0 0 0-20.778 11.971 10.506 10.506 0 0 0-2.653 20.261c3.253 2.613 2.662 4.039 1.252 14.369-2.371 17.378-1.743 9.332-2.577 33.726l43.392 2.74c-1.876-47.649-3.656-44.636-3.253-47.765.307-2.331 3.538-1.066 7.939-3.265z" transform="translate(-277.88 9)" style="fill:#fcd228"/>
            </g>
            <path id="Path_21397" data-name="Path 21397" d="M346.385 389.834a11.143 11.143 0 0 0-3.638-21.376 11.246 11.246 0 0 0-19.683-10.665 12.03 12.03 0 0 0-20.778 11.971 10.506 10.506 0 0 0-2.653 20.261c3.253 2.613 2.662 4.039 1.252 14.369-.652 4.779-.892 6.161-1.779 13.584 15.272 7.195 32.269-1.1 41.693-3.653-1.909-17.681-2.559-19.625-2.353-21.229.307-2.328 3.538-1.063 7.939-3.262z" transform="translate(-289.186 -349.364)" style="fill:url(#linear-gradient)"/>
            <path id="Path_21398" data-name="Path 21398" class="cls-1" d="M410.969 589.338c6.5 0 12.09 10.089 9.505 12.507-3.844 3.6-5.336-.25-9-.25s-6.3 3.563-9.588.917c-3.424-2.751 2.914-13.174 9.083-13.174z" transform="translate(-379.177 -564.992)"/>
            <path id="Path_21399" data-name="Path 21399" class="cls-1" d="M342.633 629.8a2.168 2.168 0 1 1-2.168-2.168 2.168 2.168 0 0 1 2.168 2.168z" transform="translate(-327.016 -599.864)"/>
            <path id="Path_21400" data-name="Path 21400" class="cls-1" d="M410.7 709.462a2.168 2.168 0 1 1-2.168-2.168 2.168 2.168 0 0 1 2.168 2.168z" transform="translate(-383.713 -692.838)"/>
            <path id="Path_21401" data-name="Path 21401" class="cls-1" d="M518.658 707.026a2.168 2.168 0 1 1-2.168-2.168 2.168 2.168 0 0 1 2.168 2.168z" transform="translate(-473.633 -689.995)"/>
            <path id="Path_21402" data-name="Path 21402" class="cls-1" d="M576.551 620.883a2.168 2.168 0 1 1-2.168-2.168 2.168 2.168 0 0 1 2.168 2.168z" transform="translate(-521.855 -589.46)"/>
            <g id="Group_21385" data-name="Group 21385" transform="translate(25.288 47.192)" style="mix-blend-mode:multiply;isolation:isolate">
                <path id="Path_21403" data-name="Path 21403" d="M428.238 525.741a17.873 17.873 0 0 1-5.584-.855.75.75 0 0 1 .475-1.424 17.54 17.54 0 0 0 10.287 0 .75.75 0 1 1 .464 1.427 18.473 18.473 0 0 1-5.642.852z" transform="translate(-422.141 -523.423)" style="fill:#e6debe"/>
            </g>
        </g>
        <g transform="translate(-11.31 -5.77)" style="filter:url(#Path_20598)">
            <path id="Path_20598-2" data-name="Path 20598" d="M19.651 30.1s4.063 3.533 8.6 4.181a5.75 5.75 0 0 0 5.356-1.881 1.854 1.854 0 0 0 .118-2.827l-3.415-3.357a1.623 1.623 0 0 0-2.15-.116l-2.032 2s-5.594-2.885-7.832-7.92l1.56-1.56a1.957 1.957 0 0 0 .029-2.944l-3.415-3.357a1.964 1.964 0 0 0-2.414.206 6.906 6.906 0 0 0-2 6.625s.087 4.359 7.595 10.95z" transform="rotate(137 31.089 32.646)" style="fill:#fff"/>
        </g>
    </g>
</svg>
