<svg xmlns="http://www.w3.org/2000/svg" width="24.206" height="25.023" viewBox="0 0 24.206 25.023">
  <defs>
    <style>
      .cls-1 {
        fill: #1e1d20;
      }
    </style>
  </defs>
  <path id="Path_20695" data-name="Path 20695" class="cls-1" d="M-4815.729-671.673a4.438,4.438,0,0,1-2.388.7,4.449,4.449,0,0,1-3.061-1.211,4.381,4.381,0,0,1-1.668-.28,4.5,4.5,0,0,1-2.928-4.2,4.521,4.521,0,0,1,.266-1.513,4.484,4.484,0,0,1-2.492-4.014,4.424,4.424,0,0,1,.917-2.713,4.428,4.428,0,0,1-.917-2.713,4.463,4.463,0,0,1,1.185-3.033,4.469,4.469,0,0,1,2.747-1.416,4.474,4.474,0,0,1,1.415-2.746,4.469,4.469,0,0,1,3.033-1.185,4.447,4.447,0,0,1,2.438.724,4.5,4.5,0,0,1,1.455,1.545,4.363,4.363,0,0,1,3.788-2.269,4.282,4.282,0,0,1,2.956,1.188,4.516,4.516,0,0,1,1.377,2.747,4.318,4.318,0,0,1,2.666,1.419,4.531,4.531,0,0,1,1.148,3.025,4.486,4.486,0,0,1-.9,2.713,4.5,4.5,0,0,1,.892,2.713,4.5,4.5,0,0,1-2.418,4.01,4.537,4.537,0,0,1,.257,1.517,4.493,4.493,0,0,1-2.845,4.2,4.177,4.177,0,0,1-1.619.283,4.258,4.258,0,0,1-2.979,1.212A4.231,4.231,0,0,1-4815.729-671.673Zm-4.8-1.517a3.3,3.3,0,0,0,2.414,1.05,3.276,3.276,0,0,0,1.811-.542v-6.307h-3.165v.722a1.912,1.912,0,0,1,1.339,1.83,1.923,1.923,0,0,1-1.921,1.922,1.924,1.924,0,0,1-1.923-1.922,1.913,1.913,0,0,1,1.34-1.83v-1.3a.584.584,0,0,1,.583-.583h3.742v-5.807h-2.231a.583.583,0,0,1-.582-.582v-.722h-2.889a1.914,1.914,0,0,1-1.855,1.432,1.925,1.925,0,0,1-1.923-1.922,1.925,1.925,0,0,1,1.923-1.922,1.937,1.937,0,0,1,1.8,1.249h3.533a.584.584,0,0,1,.583.582v.722h1.647v-4.39a3.319,3.319,0,0,0-3.315-3.316,3.319,3.319,0,0,0-3.315,3.316.583.583,0,0,1-.584.583,3.32,3.32,0,0,0-3.315,3.316,3.288,3.288,0,0,0,.938,2.306.591.591,0,0,1,0,.812,3.356,3.356,0,0,0-.506.681h5.313a1.913,1.913,0,0,1,1.831-1.339,1.924,1.924,0,0,1,1.922,1.922,1.924,1.924,0,0,1-1.922,1.922,1.913,1.913,0,0,1-1.831-1.339h-5.711a3.13,3.13,0,0,0-.034.462,3.305,3.305,0,0,0,2.282,3.147.573.573,0,0,1,.358.337.581.581,0,0,1-.028.489,3.3,3.3,0,0,0-.386,1.551,3.326,3.326,0,0,0,2.165,3.1,3.312,3.312,0,0,0,1.153.207c.093,0,.187,0,.279-.013a.385.385,0,0,1,.061,0A.586.586,0,0,1-4820.53-673.19Zm5.387-18.332v18.839a3.085,3.085,0,0,0,1.742.538,3.065,3.065,0,0,0,1.612-.455,3.325,3.325,0,0,1-1.691-1.854.574.574,0,0,1-.014-.446.58.58,0,0,1,.306-.324.585.585,0,0,1,.24-.052.583.583,0,0,1,.53.344v0a2.418,2.418,0,0,0,1.868,1.561c.075.005.151.008.227.008a3.1,3.1,0,0,0,1.105-.2,3.327,3.327,0,0,0,2.095-3.108,3.374,3.374,0,0,0-.377-1.557.215.215,0,0,1-.011-.025.033.033,0,0,1-.006-.011l-.006-.014a3.023,3.023,0,0,0-2.416-2.056.584.584,0,0,1-.478-.672.582.582,0,0,1,.574-.485.536.536,0,0,1,.1.008,4.059,4.059,0,0,1,3.053,2.229,3.33,3.33,0,0,0,1.73-2.94,3.341,3.341,0,0,0-.91-2.308,3.072,3.072,0,0,0-2.288-.968,4.7,4.7,0,0,0-.539.033c-.022,0-.043,0-.064,0a.586.586,0,0,1-.581-.515.587.587,0,0,1,.51-.646,5.854,5.854,0,0,1,.672-.04,4.146,4.146,0,0,1,2.634.887,3.356,3.356,0,0,0,.564-1.873,3.283,3.283,0,0,0-2.644-3.264,3.408,3.408,0,0,1-2.2,3.309l-.006,0a.667.667,0,0,1-.186.029.579.579,0,0,1-.551-.393.585.585,0,0,1,.361-.741c.969-.334,1.44-1.264,1.44-2.843a3.264,3.264,0,0,0-3.2-3.316A3.264,3.264,0,0,0-4815.143-691.522Zm-5.667,15.08a.757.757,0,0,0,.757.756.757.757,0,0,0,.756-.756.757.757,0,0,0-.756-.756A.757.757,0,0,0-4820.81-676.442Zm.793-6.8a.758.758,0,0,0,.756.756.758.758,0,0,0,.757-.756.758.758,0,0,0-.757-.757A.758.758,0,0,0-4820.016-683.239Zm-4.606-4.522a.757.757,0,0,0,.756.756.757.757,0,0,0,.756-.756.757.757,0,0,0-.756-.757A.757.757,0,0,0-4824.623-687.761Zm11.089,10.756a.58.58,0,0,1-.183-.406.569.569,0,0,1,.158-.418,2.195,2.195,0,0,1,1.613-.6,2.571,2.571,0,0,1,1.69.57.574.574,0,0,1,.187.4.58.58,0,0,1-.155.418.587.587,0,0,1-.427.187.58.58,0,0,1-.4-.155,1.447,1.447,0,0,0-.9-.261,1.074,1.074,0,0,0-.759.234.588.588,0,0,1-.426.184A.584.584,0,0,1-4813.534-677.005ZM-4813.136-677.034Zm-.063-3.7a.582.582,0,0,1-.514-.635,2.976,2.976,0,0,1,1.046-1.873,3.141,3.141,0,0,1,2.018-.824.58.58,0,0,1,.58.58.583.583,0,0,1-.582.583,2.152,2.152,0,0,0-1.9,1.65.582.582,0,0,1-.58.524A.378.378,0,0,1-4813.2-680.739Zm.162-5.875a2.342,2.342,0,0,1-.5-1.782,5.549,5.549,0,0,1,.552-2.052.574.574,0,0,1,.522-.33.585.585,0,0,1,.253.057.577.577,0,0,1,.3.332.578.578,0,0,1-.026.445,2.9,2.9,0,0,0-.249,2.53.582.582,0,0,1-.024.823.586.586,0,0,1-.4.16A.581.581,0,0,1-4813.038-686.614Z" transform="translate(4828 696)"/>
</svg>
