<svg xmlns="http://www.w3.org/2000/svg" width="39.281" height="40.607">
    <path data-name="Path 20695" d="M-4808.087-656.522a7.2 7.2 0 0 1-3.875 1.128 7.215 7.215 0 0 1-4.965-1.965 7.106 7.106 0 0 1-2.708-.454 7.3 7.3 0 0 1-4.75-6.814 7.376 7.376 0 0 1 .429-2.455A7.277 7.277 0 0 1-4828-673.6a7.173 7.173 0 0 1 1.488-4.4 7.179 7.179 0 0 1-1.488-4.4 7.247 7.247 0 0 1 1.922-4.922 7.249 7.249 0 0 1 4.458-2.3 7.25 7.25 0 0 1 2.3-4.457 7.25 7.25 0 0 1 4.92-1.921 7.223 7.223 0 0 1 3.956 1.175 7.31 7.31 0 0 1 2.359 2.507 7.083 7.083 0 0 1 6.148-3.682 6.955 6.955 0 0 1 4.8 1.928 7.328 7.328 0 0 1 2.234 4.458 7 7 0 0 1 4.326 2.3 7.353 7.353 0 0 1 1.864 4.91 7.272 7.272 0 0 1-1.454 4.4 7.291 7.291 0 0 1 1.449 4.4 7.3 7.3 0 0 1-3.926 6.507 7.384 7.384 0 0 1 .418 2.462 7.294 7.294 0 0 1-4.617 6.808 6.782 6.782 0 0 1-2.627.459 6.911 6.911 0 0 1-4.834 1.966 6.869 6.869 0 0 1-3.783-1.12zm-7.791-2.462a5.36 5.36 0 0 0 3.917 1.7 5.321 5.321 0 0 0 2.939-.88v-10.235h-5.136v1.172a3.1 3.1 0 0 1 2.172 2.97 3.122 3.122 0 0 1-3.118 3.119 3.123 3.123 0 0 1-3.12-3.119 3.1 3.1 0 0 1 2.174-2.97v-2.117a.948.948 0 0 1 .946-.946h6.073v-9.423h-3.62a.947.947 0 0 1-.945-.945v-1.172h-4.688a3.107 3.107 0 0 1-3.012 2.324 3.123 3.123 0 0 1-3.12-3.119 3.123 3.123 0 0 1 3.12-3.119 3.143 3.143 0 0 1 2.92 2.027h5.733a.947.947 0 0 1 .946.945v1.172h2.674v-7.123a5.387 5.387 0 0 0-5.381-5.381 5.386 5.386 0 0 0-5.379 5.381.947.947 0 0 1-.947.945 5.388 5.388 0 0 0-5.381 5.381 5.339 5.339 0 0 0 1.522 3.742.957.957 0 0 1 0 1.317 5.4 5.4 0 0 0-.822 1.105h8.623a3.1 3.1 0 0 1 2.97-2.173 3.122 3.122 0 0 1 3.12 3.119 3.123 3.123 0 0 1-3.12 3.119 3.1 3.1 0 0 1-2.97-2.174h-9.268a5.168 5.168 0 0 0-.055.75 5.364 5.364 0 0 0 3.7 5.107.926.926 0 0 1 .582.546.942.942 0 0 1-.045.794 5.336 5.336 0 0 0-.627 2.517 5.4 5.4 0 0 0 3.514 5.038 5.38 5.38 0 0 0 1.871.336c.151 0 .3-.007.453-.021a.65.65 0 0 1 .1-.006.948.948 0 0 1 .685.297zm8.743-29.749v30.572a5 5 0 0 0 2.826.872 4.976 4.976 0 0 0 2.617-.739 5.4 5.4 0 0 1-2.746-3.009.936.936 0 0 1-.021-.723.939.939 0 0 1 .5-.526.941.941 0 0 1 .388-.084.944.944 0 0 1 .86.559 3.923 3.923 0 0 0 3.032 2.532c.122.008.246.013.368.013a5.042 5.042 0 0 0 1.794-.328 5.4 5.4 0 0 0 3.4-5.044 5.5 5.5 0 0 0-.612-2.526 1.065 1.065 0 0 1-.018-.041.078.078 0 0 1-.01-.018l-.01-.023a4.908 4.908 0 0 0-3.92-3.336.947.947 0 0 1-.775-1.091.944.944 0 0 1 .932-.788.87.87 0 0 1 .159.013 6.586 6.586 0 0 1 4.954 3.617 5.4 5.4 0 0 0 2.808-4.772 5.42 5.42 0 0 0-1.477-3.745 4.985 4.985 0 0 0-3.714-1.57 7.62 7.62 0 0 0-.874.053 1.05 1.05 0 0 1-.105.006.95.95 0 0 1-.941-.836.953.953 0 0 1 .829-1.048 9.445 9.445 0 0 1 1.088-.065 6.732 6.732 0 0 1 4.276 1.44 5.453 5.453 0 0 0 .914-3.039 5.325 5.325 0 0 0-4.289-5.3c-.226 2.822-1.425 4.629-3.566 5.37h-.01a1.075 1.075 0 0 1-.3.047.942.942 0 0 1-.9-.639.95.95 0 0 1 .586-1.2c1.573-.543 2.337-2.051 2.337-4.614a5.3 5.3 0 0 0-5.192-5.381 5.3 5.3 0 0 0-5.188 5.391zm-9.2 24.471a1.229 1.229 0 0 0 1.229 1.227 1.228 1.228 0 0 0 1.228-1.227 1.228 1.228 0 0 0-1.228-1.227 1.229 1.229 0 0 0-1.226 1.227zm1.287-11.03a1.23 1.23 0 0 0 1.228 1.227 1.23 1.23 0 0 0 1.229-1.227 1.23 1.23 0 0 0-1.229-1.229 1.23 1.23 0 0 0-1.225 1.229zm-7.475-7.338a1.229 1.229 0 0 0 1.228 1.227 1.229 1.229 0 0 0 1.227-1.227 1.229 1.229 0 0 0-1.227-1.229 1.229 1.229 0 0 0-1.225 1.229zm18 17.454a.946.946 0 0 1-.3-.659.928.928 0 0 1 .255-.679 3.567 3.567 0 0 1 2.619-.972 4.175 4.175 0 0 1 2.743.925.934.934 0 0 1 .3.657.95.95 0 0 1-.251.679.954.954 0 0 1-.694.3.942.942 0 0 1-.644-.252 2.348 2.348 0 0 0-1.465-.424 1.741 1.741 0 0 0-1.232.379.955.955 0 0 1-.692.3.944.944 0 0 1-.64-.254zm.644-.046zm-.1-6.012a.945.945 0 0 1-.835-1.031 4.838 4.838 0 0 1 1.7-3.04 5.1 5.1 0 0 1 3.274-1.338.942.942 0 0 1 .941.941.947.947 0 0 1-.945.946 3.5 3.5 0 0 0-3.089 2.678.945.945 0 0 1-.94.851.606.606 0 0 1-.108-.007zm.26-9.535a3.808 3.808 0 0 1-.815-2.892 9.023 9.023 0 0 1 .895-3.33.935.935 0 0 1 .849-.536.946.946 0 0 1 .411.093.941.941 0 0 1 .483.539.946.946 0 0 1-.041.722c-.83 1.716-.9 3.583-.4 4.106a.945.945 0 0 1-.039 1.335.95.95 0 0 1-.648.259.947.947 0 0 1-.697-.296z" transform="translate(4828 696)" style="fill:#1e1d20"/>
</svg>
