<svg xmlns="http://www.w3.org/2000/svg" width="75.38" height="47.809">
    <defs>
        <style>
            .cls-1{fill:#6dc4c6}.cls-2{fill:#00a3e5;opacity:.4;mix-blend-mode:multiply}.cls-2,.cls-5{isolation:isolate}.cls-3{fill:#0072bc}.cls-4{fill:#0092b8}.cls-5{fill:#b95cbf;mix-blend-mode:screen}.cls-6{fill:#524643}.cls-7{fill:#e04392}.cls-8{fill:#bf1a88}.cls-9{fill:#e669a8}.cls-10{fill:#cc48a0}.cls-11{fill:#fff}.cls-12{fill:#dddfe0}.cls-13{fill:#231f20}.cls-15{fill:#cb0540}.cls-16{fill:#ad023c}.cls-17{fill:#d0074a}
        </style>
    </defs>
    <g id="Group_6443" data-name="Group 6443" transform="translate(-531.829 -35.618)">
        <g id="Group_6430" data-name="Group 6430" transform="translate(531.829 35.618)">
            <g id="Group_6424" data-name="Group 6424" transform="translate(0 9.026)">
                <g id="Group_6423" data-name="Group 6423">
                    <g id="Group_6422" data-name="Group 6422">
                        <path id="Path_21148" data-name="Path 21148" class="cls-1" d="M187.454 62.505c-9.428 5.39-11.068 3.082-10.667 1.984.429-1.091.429-2.843-1.78-3.919-10.751-5.362-14.846-21.706-6.114-23.114 24.289-3.511 34.083 11.4 35.476 12.869.148 2.772.352 5.516.556 8.282a.794.794 0 0 0-.211.352c-1.266 3.56-3.469 18.1-17.1 16.268-14.314-3.075-.16-12.722-.16-12.722z" transform="translate(-163.947 -36.764)"/>
                        <path id="Path_21149" data-name="Path 21149" class="cls-2" d="M168.893 37.457c-8.732 1.407-4.637 17.752 6.114 23.114 2.209 1.077 2.209 2.829 1.78 3.919-.4 1.1 1.238 3.405 10.667-1.984 0 0-14.15 9.647.162 12.721 13.629 1.836 15.831-12.707 17.1-16.268a.794.794 0 0 1 .211-.352c-.2-2.765-.408-5.509-.556-8.282-1.395-1.47-11.189-16.379-35.478-12.868zm13.341 26.35a5.109 5.109 0 0 1-2.568.493c-1.914-.253-1.435-2.364-2.153-3.342-1.133-1.632-3.145-2.646-4.862-3.835a13.338 13.338 0 0 1-3.814-3.94c-1.316-2.174-2.864-4.862-3.068-7.444a7.007 7.007 0 0 1-.028-4.566 4.861 4.861 0 0 1 2.4-2.456 14.071 14.071 0 0 1 6.051-.936 43.948 43.948 0 0 1 14.255 2.695 33.078 33.078 0 0 1 3.687 1.59c3.173 1.6 6.339 3.856 7.254 6.832.816 2.667-.45 5.291-2.688 7.3a25.4 25.4 0 0 1-4.693 3.258 47.979 47.979 0 0 1-6.874 3.208c-.951.39-1.933.756-2.899 1.143zm19.3-.823c-1.062 3.216-2.66 6.938-5.939 9.217a11.9 11.9 0 0 1-10.54 1c-1.618-.7-2.786-1.942-2.786-3.427 0-1.6 1.147-2.976 2.463-4.123a31.472 31.472 0 0 1 3.9-2.843c1.59-1.006 8.556-5.706 11.469-5.967 3.621-.33 1.89 4.759 1.433 6.143z" transform="translate(-163.947 -36.764)"/>
                        <path id="Path_21150" data-name="Path 21150" class="cls-3" d="M192.291 75.525a16.175 16.175 0 0 1-4.517 0c-3.764-.8-5.924-2.139-6.466-3.954-.788-2.758 2.322-5.931 4.426-7.712a21.258 21.258 0 0 1-6.03 2.287 3.138 3.138 0 0 1-2.582-.38 1.046 1.046 0 0 1-.345-1.2c.218-.556.767-2.519-1.7-3.715-7.648-3.814-12.039-13.34-10.723-18.976a5.438 5.438 0 0 1 4.658-4.447c10.3-1.492 24.753-.563 35.216 12.377.211.253.366.457.464.556a.114.114 0 0 1 .049.1c.155 2.814.38 5.727.57 8.275a.116.116 0 0 1-.056.106.829.829 0 0 0-.169.281c-.134.422-.317 1-.5 1.675-1.227 4.349-3.767 13.402-12.295 14.727zm-4.7-13.052a.2.2 0 0 1 .2.07.132.132 0 0 1-.014.218c-.077.042-7.156 4.939-6.051 8.732.5 1.71 2.561 2.948 6.135 3.722a15.709 15.709 0 0 0 4.341-.007c8.267-1.295 10.779-10.2 11.99-14.48.19-.675.366-1.267.507-1.689a1.392 1.392 0 0 1 .2-.352c-.2-2.512-.394-5.369-.563-8.169-.105-.12-.246-.3-.443-.542-10.329-12.771-24.626-13.7-34.787-12.229a5.111 5.111 0 0 0-4.327 4.186c-1.3 5.552 3 14.881 10.526 18.653 2.146 1.034 2.385 2.779 1.85 4.081a.826.826 0 0 0 .274.88c.267.246.9.485 2.188.288 1.907-.288 4.56-1.421 7.895-3.321z" transform="translate(-164.126 -36.901)"/>
                    </g>
                    <path id="Path_21151" data-name="Path 21151" class="cls-4" d="M180.107 45.874c-4.728-1.077-10.385-1.661-13.861-4.693-1.217-1.055-2.076-3.124 0-3.574 12.109-2.568 27.969 7.015 26.491 8.69-1.084 1.203-10.885-.029-12.63-.423z" transform="translate(-158.908 -35.26)"/>
                    <path id="Path_21152" data-name="Path 21152" class="cls-4" d="M164.8 39.564a2.671 2.671 0 0 1 2.336-1.175c3.054-.267 22.8 3.011 24.106 3.792 2.512 1.513-1.252 1.9-2.695 2.062-3.018.345-20.151 1.97-22.91-1.478-.898-1.097-1.299-2.328-.837-3.201z" transform="translate(-161.221 -28.008)"/>
                    <path id="Path_21153" data-name="Path 21153" class="cls-4" d="M185.636 40.072c-4.391 3.405-12.693 5.305-18.146 2.716-.753-.366-1.942-1.414-.57-1.991 1.323-.577 20.559-2.125 18.716-.725z" transform="translate(-151.061 -21.198)"/>
                    <path id="Path_21154" data-name="Path 21154" class="cls-4" d="M168.615 43.44a2.749 2.749 0 0 1-1.351-.232c-2.561-1.288.373-3.56 2.716-2.73 2.483.886.562 2.807-1.365 2.962z" transform="translate(-151.18 -16.383)"/>
                    <path id="Path_21155" data-name="Path 21155" class="cls-4" d="M167.006 41.627a1.281 1.281 0 0 1-.711-.141c-1.379-.69.183-1.893 1.449-1.456 1.317.478.303 1.505-.738 1.597z" transform="translate(-154.278 -18.573)"/>
                    <path id="Path_21156" data-name="Path 21156" class="cls-4" d="M166.207 40.813a.978.978 0 0 1-.5-.091c-.964-.478.127-1.337 1.013-1.027.937.337.219 1.048-.513 1.118z" transform="translate(-156.85 -20.433)"/>
                    <path id="Path_21157" data-name="Path 21157" class="cls-4" d="M174.838 40.724a.844.844 0 0 1 .415.049c.436.281.063 1.168-.042 1.485a18.425 18.425 0 0 1-1.914 4c-.612.985-2.054 3.068-3.792 2.948-1.611-.12-1.428-2.033-.746-2.829a35.743 35.743 0 0 1 4.524-4.531c.288-.246 1.055-1.072 1.555-1.122z" transform="translate(-139.186 -13.85)"/>
                    <path id="Path_21158" data-name="Path 21158" class="cls-4" d="M177.445 40.306c2.667-.253-4.032 8.436-6.734 9.393a2.936 2.936 0 0 1-3.311-1.049 2.316 2.316 0 0 1 .978-2.737 40.786 40.786 0 0 1 6.438-4.447 8.009 8.009 0 0 1 2.629-1.16z" transform="translate(-145.403 -16.379)"/>
                </g>
                <path id="Path_21159" data-name="Path 21159" class="cls-5" d="M169.24 37.114s-5.861.176-4.623 6.255a22.416 22.416 0 0 0 10.6 14.86s-5.917-4.306-8.373-10.35c-2.444-6.072-1.432-9.579 2.396-10.765z" transform="translate(-162.198 -35.612)"/>
                <path id="Path_21160" data-name="Path 21160" class="cls-5" d="M171.052 40.849s-5.72 3.532-3.891 6.325 6.114 3.018 8.288 2.463c0 0-6.4.493-7.74-2.822-.934-2.349 3.343-5.966 3.343-5.966z" transform="translate(-147.982 -13.067)"/>
            </g>
            <g id="Group_6427" data-name="Group 6427" transform="translate(39.12)">
                <g id="Group_6426" data-name="Group 6426">
                    <g id="Group_6425" data-name="Group 6425">
                        <path id="Path_21161" data-name="Path 21161" class="cls-1" d="M191.282 64.417c11.349 2.16 11.715-.464 10.807-1.358a2.78 2.78 0 0 1-.267-4.144c7.325-8.176 3.138-24.521-5.608-23.2-24.183 4.025-25.942 20.757-26.5 22.516 1.2 2.6 2.364 5.221 3.518 7.817a1.061 1.061 0 0 1 .373.26c2.9 2.913 12.025 15.7 23.733 9.921 11.731-7.129-6.056-11.812-6.056-11.812z" transform="translate(-169.505 -35.476)"/>
                        <path id="Path_21162" data-name="Path 21162" class="cls-2" d="M169.716 58.233c1.2 2.6 2.364 5.221 3.518 7.817a1.061 1.061 0 0 1 .373.26c2.9 2.913 12.025 15.7 23.733 9.921 11.729-7.135-6.058-11.814-6.058-11.814 11.349 2.16 11.715-.464 10.807-1.358a2.78 2.78 0 0 1-.267-4.144c7.325-8.176 3.138-24.521-5.608-23.2-24.183 4.027-25.942 20.758-26.498 22.518zm23.782 5.65a54.764 54.764 0 0 1-7.909-.922 31.126 31.126 0 0 1-5.938-1.59c-3.04-1.189-5.5-3.251-6.044-5.953-.626-3.026 1.224-6.051 3.377-8.479a25.949 25.949 0 0 1 2.618-2.582 37.309 37.309 0 0 1 11.863-6.748 13.958 13.958 0 0 1 6.051-.964 6.44 6.44 0 0 1 3.427 1.562 8.157 8.157 0 0 1 2.188 4.236c1.084 2.427.957 5.376.8 7.789a10.148 10.148 0 0 1-1.6 4.792c-1.02 1.611-2.364 3.159-2.632 4.982-.155 1.133 1.309 2.948-.331 3.75a5.217 5.217 0 0 1-2.617.3c-1.1-.056-2.176-.11-3.251-.173zm-16.676-.922c2.828-.619 11.546 1.646 13.516 2.083a41.51 41.51 0 0 1 4.982 1.471c1.787.668 3.511 1.6 4.3 3.075a3.333 3.333 0 0 1-.894 4c-2.287 2.273-6.825 3.159-10.238 2.237-4.144-1.119-7.437-4.1-10.012-6.741-1.076-1.151-5.158-5.33-1.653-6.125z" transform="translate(-169.505 -35.476)"/>
                        <path id="Path_21163" data-name="Path 21163" class="cls-3" d="M174.893 67.944c-.5-.563-.943-1.062-1.295-1.393a.906.906 0 0 0-.274-.218.155.155 0 0 1-.12-.084 430.833 430.833 0 0 0-3.5-7.817l-.014-.091a5.245 5.245 0 0 0 .176-.668C173.2 42.6 186.108 37.4 196.339 35.7a6.827 6.827 0 0 1 6.48 2.716c3.975 4.813 4.573 14.917-.633 20.735a2.634 2.634 0 0 0 .253 3.947 1.056 1.056 0 0 1 .26 1.2c-.183.394-.711.887-2.209 1.133a23.588 23.588 0 0 1-6.684-.3c2.814 1 7.24 3 7.838 5.8.415 1.829-.943 3.715-4.025 5.587a14.674 14.674 0 0 1-4.172 1.351c-8.521 1.319-15.318-6.28-18.554-9.925zm16.612-3.544c4.018.76 7.015 1.006 8.915.7 1.316-.2 1.752-.605 1.9-.908a.8.8 0 0 0-.2-.894 2.878 2.878 0 0 1-.26-4.334c5.108-5.72 4.531-15.655.619-20.384a6.458 6.458 0 0 0-6.051-2.575c-10.09 1.682-22.832 6.825-26.16 21.721-.077.281-.113.493-.148.633 1.217 2.639 2.406 5.326 3.476 7.712a2.415 2.415 0 0 1 .338.267c.352.352.788.844 1.295 1.407 3.215 3.6 9.865 11.075 18.139 9.787a14.252 14.252 0 0 0 4.025-1.288c2.927-1.78 4.229-3.56 3.849-5.27-.816-3.842-9.759-6.248-9.844-6.276-.12-.021-.176-.113-.127-.183a.14.14 0 0 1 .148-.12z" transform="translate(-169.686 -35.618)"/>
                    </g>
                    <path id="Path_21164" data-name="Path 21164" class="cls-4" d="M182.142 47.771c3.849-2.413 8.774-4.658 10.512-8.479.591-1.351.394-3.525-1.738-3.307-12.447 1.245-22.431 14.86-20.257 15.944 1.598.802 10.069-3.265 11.483-4.158z" transform="translate(-165.615 -33.492)"/>
                    <path id="Path_21165" data-name="Path 21165" class="cls-4" d="M194.6 37.459a3.127 3.127 0 0 0-2.73-.38c-2.948.661-19.6 9.611-20.412 10.73-1.6 2.153 2.062 1.379 3.5 1.091 2.969-.584 19.567-4.215 20.44-8.218a3.15 3.15 0 0 0-.798-3.223z" transform="translate(-161.352 -27.592)"/>
                    <path id="Path_21166" data-name="Path 21166" class="cls-4" d="M171.032 43.553c5.72 1.822 14.333 1.1 18.1-2.934.521-.563 1.1-1.893-.457-2.019-1.502-.12-20.035 4.2-17.643 4.953z" transform="translate(-162.842 -17.63)"/>
                    <path id="Path_21167" data-name="Path 21167" class="cls-4" d="M176.528 42.191a2.112 2.112 0 0 0 1.133-.605c1.759-1.963-2.076-3.18-3.842-1.717-1.857 1.562.837 2.765 2.709 2.322z" transform="translate(-148.51 -13.854)"/>
                    <path id="Path_21168" data-name="Path 21168" class="cls-4" d="M175.536 40.284a1.215 1.215 0 0 0 .605-.331c.936-1.055-1.1-1.7-2.048-.908-.999.817.437 1.464 1.443 1.239z" transform="translate(-145.126 -17.048)"/>
                    <path id="Path_21169" data-name="Path 21169" class="cls-4" d="M175.354 39.38a.809.809 0 0 0 .408-.225c.661-.746-.781-1.189-1.443-.647-.689.583.31 1.04 1.035.872z" transform="translate(-143.115 -19.627)"/>
                    <path id="Path_21170" data-name="Path 21170" class="cls-4" d="M171.622 40.4a.644.644 0 0 0-.366.19c-.26.38.535 1.091.774 1.351a22.377 22.377 0 0 0 3.722 3.11c1.048.746 3.384 2.23 4.939 1.59 1.421-.584.338-2.3-.675-2.829a47.945 47.945 0 0 0-6.4-2.836 6.16 6.16 0 0 0-1.994-.576z" transform="translate(-160.519 -6.784)"/>
                    <path id="Path_21171" data-name="Path 21171" class="cls-4" d="M171.883 39.9c-2.589.556 7.831 6.586 10.815 6.663 1.316.042 2.617-.978 2.561-1.963-.056-1.055-1.077-1.822-2.251-2.237a49.787 49.787 0 0 0-8.12-2.188 9.779 9.779 0 0 0-3.005-.275z" transform="translate(-158.895 -10.075)"/>
                </g>
                <path id="Path_21172" data-name="Path 21172" class="cls-5" d="M173.262 36.019a5.868 5.868 0 0 1 7.325 4.384 18.663 18.663 0 0 1-2.568 16.922s3.4-5.756 2.709-12.1-3.343-9.276-7.466-9.206z" transform="translate(-148.101 -34.384)"/>
                <path id="Path_21173" data-name="Path 21173" class="cls-5" d="M172.979 39.981s7.008 1.555 6.684 4.686-4.172 4.623-6.466 4.749c0 0 6.164-1.456 5.777-4.925-.261-2.448-5.995-4.51-5.995-4.51z" transform="translate(-149.809 -9.28)"/>
            </g>
            <g id="Group_6428" data-name="Group 6428" transform="translate(26.099 3.066)">
                <path id="Path_21174" data-name="Path 21174" class="cls-6" d="m169.946 48.117-.035.007c-.127 0-.232-.056-.232-.169a7.624 7.624 0 0 1-.056-.978 16.175 16.175 0 0 1 .162-2.456 15.4 15.4 0 0 1 .865-3.194 11.427 11.427 0 0 1 2.04-3.166c1.393-1.661 2.737-2.336 4.137-2.04a1.048 1.048 0 0 1 .063 2.09 1.272 1.272 0 0 1-1.309-.246.739.739 0 0 1 .141-1.055.266.266 0 0 1 .324-.021c.084.056.127.169.035.239-.239.218-.274.464-.141.633a.792.792 0 0 0 .809.113.755.755 0 0 0 .64-.732.734.734 0 0 0-.676-.683c-1.175-.246-2.385.38-3.666 1.9a11.041 11.041 0 0 0-1.977 3.068 13.6 13.6 0 0 0-.83 3.131 14.085 14.085 0 0 0-.176 2.42 6.886 6.886 0 0 0 .063.95.216.216 0 0 1-.181.189z" transform="translate(-157.051 -36.053)"/>
                <path id="Path_21175" data-name="Path 21175" class="cls-6" d="M179.358 46.742a.214.214 0 0 1-.232-.134 12.37 12.37 0 0 0-.3-.929 15.49 15.49 0 0 0-1.013-2.294 16.122 16.122 0 0 0-1.913-2.835 13.146 13.146 0 0 0-3-2.5c-1.752-1.189-3.124-1.527-4.165-1.034a.651.651 0 0 0-.422.8.893.893 0 0 0 .872.57c.373.014.654-.091.739-.288s-.049-.408-.359-.577a.143.143 0 0 1-.035-.239.239.239 0 0 1 .3-.042c.464.246.676.633.528.978a1.219 1.219 0 0 1-1.182.528 1.355 1.355 0 0 1-1.288-.83.954.954 0 0 1 .612-1.2c1.231-.584 2.758-.232 4.686 1.055a13.534 13.534 0 0 1 3.1 2.6 18.163 18.163 0 0 1 1.949 2.871 16.846 16.846 0 0 1 1.027 2.343c.134.38.225.675.31.957a.193.193 0 0 1-.183.2z" transform="translate(-167.835 -33.749)"/>
            </g>
            <g id="Group_6429" data-name="Group 6429" transform="translate(34.848 14.073)">
                <path id="Path_21176" data-name="Path 21176" class="cls-7" d="M170.537 47.7c1.449 4.911 3.764 8.661 5.207 8.429 1.421-.26 1.485-4.461.07-9.365-1.421-4.883-3.764-8.676-5.228-8.45-1.428.3-1.47 4.461-.049 9.386z" transform="translate(-166.582 -33.502)"/>
                <path id="Path_21177" data-name="Path 21177" class="cls-8" d="m176 56.412-.239.007c-.936-.07-1.815-1.062-2.709-2.554a25.823 25.823 0 0 1-2.526-5.988 23.057 23.057 0 0 1-1.06-6.877 7.351 7.351 0 0 1 .31-1.829 1.3 1.3 0 0 1 .971-.865l.106-.028c1.055.049 1.935 1.041 2.807 2.561a25.737 25.737 0 0 1 2.554 6.016 23.432 23.432 0 0 1 1.013 6.846 5.107 5.107 0 0 1-.31 1.829 1.344 1.344 0 0 1-.915.88zm-2.709-15.451c-.816-1.478-1.787-2.357-2.336-2.35l-.042-.028-.07.014c-.225.042-.464.246-.647.675a5.787 5.787 0 0 0-.287 1.728 23.266 23.266 0 0 0 1.034 6.755 26.4 26.4 0 0 0 2.484 5.981c.837 1.5 1.815 2.35 2.371 2.371l.1-.021c.19-.028.443-.239.626-.654a5.034 5.034 0 0 0 .281-1.759 22.122 22.122 0 0 0-.978-6.748 25.912 25.912 0 0 0-2.533-5.967z" transform="translate(-166.77 -33.62)"/>
                <path id="Path_21178" data-name="Path 21178" class="cls-9" d="M174.023 51.467c-.887-.084-2.2-2.294-3.026-5.165-.858-3.061-.908-5.629.007-5.77l.183-.007c.886.084 2.216 2.322 3.061 5.172.851 3.047.844 5.615-.056 5.777a.448.448 0 0 1-.169-.007zm-3.406-12.954h-.183c-1.182.232-1.21 3.757-.056 7.895 1.147 3.87 2.948 6.938 4.222 7.064l.2-.014c1.175-.218 1.252-3.729.028-7.859-1.112-3.926-2.948-6.952-4.208-7.085z" transform="translate(-166.353 -32.214)"/>
                <path id="Path_21179" data-name="Path 21179" class="cls-7" d="M169.265 40.575a2.826 2.826 0 0 0 2.857 2.561 2.518 2.518 0 0 0 2.2-2.941 2.835 2.835 0 0 0-2.906-2.54 2.465 2.465 0 0 0-2.146 2.92z" transform="translate(-168.117 -37.442)"/>
                <path id="Path_21180" data-name="Path 21180" class="cls-8" d="M172.358 43.429h-.288a3.039 3.039 0 0 1-2.85-2.681l.239-.035-.239.035c-.007-.19 0-.366-.014-.549a2.619 2.619 0 0 1 2.4-2.554l.288-.021a3.008 3.008 0 0 1 2.829 2.667 2.207 2.207 0 0 1 .014.521 2.619 2.619 0 0 1-2.378 2.617zm1.963-3.1a2.717 2.717 0 0 0-2.427-2.392h-.042l-.113-.007a2.331 2.331 0 0 0-2.118 2.343 1.261 1.261 0 0 0 .042.436 2.613 2.613 0 0 0 2.463 2.378l.169-.007a2.251 2.251 0 0 0 2.04-2.273c-.028-.148.035-.31-.014-.478z" transform="translate(-168.311 -37.58)"/>
                <path id="Path_21181" data-name="Path 21181" class="cls-9" d="M171.534 37.72a.988.988 0 0 0-.464.739c-.007.605.535 1.1 1.337 1.21l.091-.021a1.6 1.6 0 0 0 1.069-.31 1 1 0 0 0 .056.218v.1l-.056-.021a2.126 2.126 0 0 0-.373.021c-.3.049-.493.155-.464.281l.211.106c.084 0 .246-.007.373-.014l.324-.127a2.032 2.032 0 0 1-1.843 2.23 1.8 1.8 0 0 1-.387.028 2.375 2.375 0 0 1-2.012-1.675l.021.007c.281-.07.486-.183.479-.3 0-.049-.141-.091-.253-.063a.688.688 0 0 0-.359 0 1.046 1.046 0 0 0 0-.155 1.348 1.348 0 0 0 1.506-1.091.97.97 0 0 0-.471-.915 1.678 1.678 0 0 1 .887-.3 1.527 1.527 0 0 1 .183 0h.042l.106.049z" transform="translate(-167.846 -37.317)"/>
                <path id="Path_21182" data-name="Path 21182" class="cls-10" d="M170.75 37.655a1.6 1.6 0 0 1 .3.028c-.091.056-.211.1-.253.218l-.106-.049h-.042l-.113-.007a1.78 1.78 0 0 0-.957.31 1.118 1.118 0 0 0-.169-.141 2.034 2.034 0 0 1 1.02-.373c.12-.014.246.021.324.014z" transform="translate(-167.104 -37.499)"/>
                <path id="Path_21183" data-name="Path 21183" class="cls-9" d="M170.178 37.721a.931.931 0 0 1 .415.816c.014.549-.612.957-1.309.95a3.218 3.218 0 0 1 .021-.591 2.721 2.721 0 0 1 .872-1.175z" transform="translate(-167.855 -36.995)"/>
                <path id="Path_21184" data-name="Path 21184" class="cls-10" d="M169.989 37.706a.344.344 0 0 0 .106.1 3.315 3.315 0 0 0-.809 1.182 2.357 2.357 0 0 1 .7-1.281z" transform="translate(-167.835 -37.085)"/>
                <path id="Path_21185" data-name="Path 21185" class="cls-8" d="m169.578 37.711-.2.014z" transform="translate(-167.255 -37.055)"/>
                <path id="Path_21186" data-name="Path 21186" class="cls-8" d="m169.62 37.689.169.021z" transform="translate(-165.812 -37.188)"/>
                <path id="Path_21187" data-name="Path 21187" class="cls-11" d="M169.09 38.738a1.446 1.446 0 0 0 2.793.077c.028-.619-.57-1.1-1.365-1.14a1.339 1.339 0 0 0-1.428 1.063z" transform="translate(-169.012 -37.266)"/>
                <path id="Path_21188" data-name="Path 21188" class="cls-12" d="M172.021 38.9a1.348 1.348 0 0 1-1.506 1.091 1.306 1.306 0 0 1-1.435-1.21c.007-.619.711-1.133 1.506-1.119a1.335 1.335 0 0 1 1.435 1.238zm-.2-.028a1.11 1.11 0 0 0-1.238-1.034c-.668-.007-1.274.415-1.288.943-.035.591.521 1.027 1.217 1.041s1.323-.4 1.309-.95z" transform="translate(-169.079 -37.333)"/>
                <path id="Path_21189" data-name="Path 21189" class="cls-11" d="M169.557 38.657c-.035.584.549 1.1 1.344 1.112a1.185 1.185 0 0 0 1.379-1.041c.056-.577-.556-1.084-1.309-1.091a1.224 1.224 0 0 0-1.414 1.02z" transform="translate(-166.2 -37.522)"/>
                <path id="Path_21190" data-name="Path 21190" class="cls-12" d="M172.542 38.787a1.364 1.364 0 0 1-1.534 1.168c-.844-.021-1.492-.549-1.471-1.2a1.413 1.413 0 0 1 1.534-1.14c.823.042 1.5.584 1.47 1.168zm-.218.049a1.122 1.122 0 0 0-1.238-1.034 1.219 1.219 0 0 0-1.33.964 1.2 1.2 0 0 0 1.253 1.041c.654.007 1.3-.429 1.316-.971z" transform="translate(-166.314 -37.618)"/>
                <path id="Path_21191" data-name="Path 21191" class="cls-13" d="M169.327 38.507c.324-.471.528-.556.668-.528a.633.633 0 0 1 .479.239.237.237 0 0 0 .148.028s.056-.063-.007-.091a.9.9 0 0 0-.584-.366c-.26.007-.57.183-.83.654a.059.059 0 0 0 .014.084l.021.035z" transform="translate(-168.419 -36.584)"/>
                <path id="Path_21192" data-name="Path 21192" class="cls-13" d="m169.8 38.262-.1-.12s-.38-.07-.331-.26c-.007-.056-.084-.091-.084-.091l-.141.084c-.021.345.493.4.493.4v.035l.021-.021z" transform="translate(-168.674 -36.572)"/>
                <path id="Path_21193" data-name="Path 21193" class="cls-13" d="m169.644 38.2.141-.007c.1-.028.134-.07.078-.113l-.07-.049-.127.014s-.281-.063-.317-.155l-.183-.049-.056.106a.616.616 0 0 0 .528.274z" transform="translate(-168.897 -36.288)"/>
                <path id="Path_21194" data-name="Path 21194" class="cls-13" d="M171.009 38.314c-.394-.408-.689-.436-.816-.422a.78.78 0 0 0-.352.3l-.155.063c-.035-.007-.042-.063-.042-.063a.729.729 0 0 1 .528-.443c.253-.077.591.042 1.013.45l-.056.12-.007.021z" transform="translate(-165.668 -36.947)"/>
                <path id="Path_21195" data-name="Path 21195" class="cls-13" d="M169.828 38.247c-.028-.056-.021-.077-.021-.077s.4-.2.331-.359c-.042-.035 0-.084.063-.106l.127.084c.1.331-.387.493-.387.493h-.021c-.05.035-.078.018-.092-.035z" transform="translate(-164.69 -37.091)"/>
                <path id="Path_21196" data-name="Path 21196" class="cls-13" d="M170.093 38.152a.282.282 0 0 1-.183.028l-.084-.028.1-.155.113-.014c.127-.014.288-.091.31-.19l.113-.042c.035-.021.106.056.106.056a.521.521 0 0 1-.471.345z" transform="translate(-164.569 -36.835)"/>
                <path id="Path_21197" data-name="Path 21197" class="cls-13" d="m171.835 38.167-.07-.113-.106.042a1.233 1.233 0 0 1-1.034.654 1.663 1.663 0 0 1-1.027-.486l-.1-.035c-.113.084-.105.134-.105.134a2.06 2.06 0 0 0 1.26.542 1.261 1.261 0 0 0 1.182-.738z" transform="translate(-167.183 -34.985)"/>
                <rect id="Rectangle_79" data-name="Rectangle 79" width=".089" transform="rotate(-22.72 8.43 -1.07)" style="fill:#5f0d53"/>
                <path id="Path_21198" data-name="Path 21198" class="cls-15" d="M169.385 38.018c.049.113.063.218.113.352l-.134.007-.084-.042a1.872 1.872 0 0 1-.014-.2l.12-.12z" transform="translate(-167.949 -35.202)"/>
                <path id="Path_21199" data-name="Path 21199" class="cls-16" d="M169.568 38.023a1.126 1.126 0 0 0 .035.274l.014.077a.179.179 0 0 0-.12-.021l-.183-.014.084-.035-.084.035a.2.2 0 0 0-.1-.077.743.743 0 0 1 .352-.239z" transform="translate(-168.251 -35.172)"/>
                <path id="Path_21200" data-name="Path 21200" class="cls-17" d="M169.642 38.043c.113-.028.253.014.253.063.007.113-.2.225-.479.3l-.021-.007c-.049-.134-.063-.239-.113-.352a.509.509 0 0 1 .3-.014z" transform="translate(-167.846 -35.227)"/>
                <path id="Path_21201" data-name="Path 21201" class="cls-15" d="M169.9 37.95c.084.014.141.042.113.077l.063.028c.028.042-.063.127-.063.127a.3.3 0 0 1-.113-.232z" transform="translate(-164.122 -35.612)"/>
                <rect id="Rectangle_80" data-name="Rectangle 80" class="cls-16" height=".068" transform="rotate(-66.098 4.8 -3.32)"/>
                <path id="Path_21202" data-name="Path 21202" class="cls-17" d="m170.613 37.947.056.021a2.324 2.324 0 0 1 .014.246l-.324.127a8.508 8.508 0 0 1-.373.014l-.211-.106c-.028-.127.162-.232.464-.281a1.248 1.248 0 0 1 .3-.014z" transform="translate(-164.891 -35.63)"/>
            </g>
        </g>
    </g>
</svg>
