<svg id="Group_6444" data-name="Group 6444" xmlns="http://www.w3.org/2000/svg" width="82.069" height="56.74">
    <defs>
        <style>
            .cls-1,.cls-2,.cls-5{fill:#f9b049}.cls-2{opacity:.4;mix-blend-mode:multiply}.cls-2,.cls-5{isolation:isolate}.cls-3{fill:#eb6025}.cls-4{fill:#e84c23}.cls-5{mix-blend-mode:screen}.cls-6{fill:#524643}.cls-7{fill:#e04392}.cls-8{fill:#bf1a88}.cls-9{fill:#e669a8}.cls-10{fill:#cc48a0}.cls-11{fill:#fff}.cls-12{fill:#dddfe0}.cls-13{fill:#231f20}.cls-15{fill:#cb0540}.cls-16{fill:#ad023c}.cls-17{fill:#d0074a}
        </style>
    </defs>
    <g id="Group_6406" data-name="Group 6406" transform="translate(0 15.616)">
        <g id="Group_6405" data-name="Group 6405">
            <g id="Group_6404" data-name="Group 6404">
                <path id="Path_21038" data-name="Path 21038" class="cls-1" d="M152.481 85.411c-9.344 6.916-11.532 4.559-11.286 3.328.274-1.238-.042-3.145-2.646-4.067-12.686-4.693-20.06-22.079-10.793-24.57 25.886-6.473 39.226 8.746 41 10.181.654 3 1.372 5.981 2.1 8.971a.554.554 0 0 0-.183.4c-.746 4.025-.563 20.137-15.74 19.631-16.165-1.814-2.452-13.874-2.452-13.874z" transform="translate(-123.359 -58.338)"/>
                <path id="Path_21039" data-name="Path 21039" class="cls-2" d="M127.756 60.1c-9.267 2.491-1.893 19.877 10.793 24.57 2.6.922 2.92 2.829 2.646 4.067-.246 1.231 1.942 3.588 11.286-3.328 0 0-13.713 12.06 2.449 13.875 15.177.507 14.994-15.606 15.74-19.631a.554.554 0 0 1 .183-.4c-.725-2.99-1.442-5.974-2.1-8.971-1.77-1.434-15.111-16.653-40.997-10.182zM147 87.388a5.294 5.294 0 0 1-2.709.83c-2.132-.056-1.984-2.413-2.934-3.427-1.527-1.632-3.891-2.526-5.988-3.631a15.474 15.474 0 0 1-4.855-3.891c-1.836-2.238-4-5-4.672-7.789a7.9 7.9 0 0 1-.865-4.982 4.927 4.927 0 0 1 2.188-2.948 14.751 14.751 0 0 1 6.431-1.668 50.032 50.032 0 0 1 16.042 1.379 40.616 40.616 0 0 1 4.3 1.344c3.736 1.393 7.62 3.5 9.14 6.663 1.33 2.814.436 5.812-1.632 8.246a26.824 26.824 0 0 1-4.56 4.081 51.487 51.487 0 0 1-6.916 4.25c-.97.523-1.978 1.029-2.97 1.543zm20.911-3c-.577 3.631-1.674 7.859-4.834 10.709a12.732 12.732 0 0 1-11.342 2.23c-1.843-.577-3.37-1.808-3.624-3.42-.3-1.745.711-3.377 1.949-4.777a31.4 31.4 0 0 1 3.74-3.53c1.548-1.252 8.324-7.142 11.455-7.754 3.888-.752 2.902 4.997 2.656 6.545z" transform="translate(-123.359 -58.338)"/>
                <path id="Path_21040" data-name="Path 21040" class="cls-3" d="M160.039 99.1a16.921 16.921 0 0 1-4.932.493c-4.243-.471-6.839-1.682-7.733-3.6-1.372-2.927 1.478-6.741 3.434-8.88a21.7 21.7 0 0 1-6.164 3.131 3.483 3.483 0 0 1-2.885-.134 1.2 1.2 0 0 1-.591-1.259c.155-.647.394-2.843-2.5-3.884-9.013-3.321-15.515-13.221-15.078-19.525a5.552 5.552 0 0 1 4.32-5.362c10.948-2.744 26.885-3.3 40.6 9.661.26.26.478.45.605.563a.162.162 0 0 1 .07.091 418.63 418.63 0 0 0 2.09 8.978.124.124 0 0 1-.042.134.67.67 0 0 0-.127.317c-.091.471-.162 1.133-.246 1.872-.584 4.887-1.76 15.026-10.821 17.404zm-7.423-13.706a.206.206 0 0 1 .218.028.152.152 0 0 1 .014.246c-.077.063-6.938 6.171-5.038 10.2.837 1.794 3.3 2.927 7.332 3.37a16.413 16.413 0 0 0 4.742-.485c8.8-2.294 9.956-12.285 10.512-17.091.077-.76.155-1.414.253-1.893a1.02 1.02 0 0 1 .148-.4 518.989 518.989 0 0 1-2.054-8.866c-.148-.113-.331-.3-.591-.528-13.545-12.82-29.291-12.271-40.106-9.555a5.12 5.12 0 0 0-3.968 5.038c-.457 6.185 5.917 15.909 14.776 19.188 2.54.908 3.089 2.793 2.772 4.257a.89.89 0 0 0 .429.936 2.971 2.971 0 0 0 2.435.056c2.012-.521 4.721-2.026 8.028-4.475a.127.127 0 0 1 .098-.027z" transform="translate(-123.564 -58.482)"/>
            </g>
            <path id="Path_21041" data-name="Path 21041" class="cls-3" d="M142.193 67.391c-5.354-.654-11.638-.682-15.951-3.6-1.527-1.034-2.829-3.187-.647-3.9 12.764-4.137 31.761 4.6 30.459 6.572-.977 1.449-11.898 1.181-13.861.928z" transform="translate(-118.285 -56.571)"/>
            <path id="Path_21042" data-name="Path 21042" class="cls-4" d="M124.332 61.89c.246-.7.978-1.274 2.343-1.534 3.293-.633 25.422.8 26.984 1.513 3.011 1.379-1.027 2.2-2.6 2.547-3.223.69-21.615 4.341-25.246.894-1.172-1.126-1.826-2.41-1.481-3.42z" transform="translate(-119.484 -48.122)"/>
            <path id="Path_21043" data-name="Path 21043" class="cls-3" d="M147.157 61.479c-4.208 4.194-12.925 7.17-19.321 4.932-.887-.324-2.378-1.337-.992-2.118 1.372-.76 22.056-4.545 20.313-2.814z" transform="translate(-107.178 -43.102)"/>
            <path id="Path_21044" data-name="Path 21044" class="cls-3" d="M129.224 65.6a2.764 2.764 0 0 1-1.513-.106c-3.04-1.112-.239-3.912 2.477-3.265 2.856.691 1.119 2.999-.964 3.371z" transform="translate(-106.498 -36.438)"/>
            <path id="Path_21045" data-name="Path 21045" class="cls-3" d="M127.257 63.661a1.386 1.386 0 0 1-.809-.049c-1.618-.6-.12-2.1 1.33-1.745 1.522.366.605 1.605-.521 1.794z" transform="translate(-110.385 -38.369)"/>
            <path id="Path_21046" data-name="Path 21046" class="cls-3" d="M126.271 62.846a1.153 1.153 0 0 1-.556-.042c-1.14-.422-.084-1.478.929-1.238 1.084.267.423 1.134-.373 1.28z" transform="translate(-113.558 -40.08)"/>
            <path id="Path_21047" data-name="Path 21047" class="cls-3" d="M134.734 62.326a.949.949 0 0 1 .457.035c.542.239.267 1.245.218 1.618a19.1 19.1 0 0 1-1.379 4.545c-.507 1.161-1.71 3.588-3.617 3.638-1.78.056-1.928-2.062-1.337-3a36.285 36.285 0 0 1 4.137-5.439c.297-.286 1.001-1.285 1.521-1.397z" transform="translate(-92.166 -35.351)"/>
            <path id="Path_21048" data-name="Path 21048" class="cls-4" d="M137.4 61.938c2.885-.584-2.871 9.625-5.671 10.976a3.386 3.386 0 0 1-3.814-.781 2.456 2.456 0 0 1 .6-3.1 40.723 40.723 0 0 1 6.227-5.544 8.3 8.3 0 0 1 2.658-1.551z" transform="translate(-99.311 -37.771)"/>
        </g>
        <path id="Path_21049" data-name="Path 21049" class="cls-5" d="M128.391 58.826s-6.368.823-3.94 7.332 7.142 11.666 14.22 15.064c0 0-7.226-4.039-10.976-10.4-3.772-6.332-3.287-10.286.696-11.996z" transform="translate(-121.545 -56.408)"/>
        <path id="Path_21050" data-name="Path 21050" class="cls-5" d="M130.9 62.652s-5.608 4.489-3.11 7.325c2.491 2.864 7.212 2.624 9.478 1.78 0 0-6.917 1.252-8.957-2.223-1.447-2.47 2.589-6.882 2.589-6.882z" transform="translate(-101.907 -33.313)"/>
    </g>
    <g id="Group_6409" data-name="Group 6409" transform="translate(44.008)">
        <g id="Group_6408" data-name="Group 6408">
            <g id="Group_6407" data-name="Group 6407">
                <path id="Path_21051" data-name="Path 21051" class="cls-1" d="M154.464 88.365c12.771 1.119 12.714-1.78 11.56-2.66-1.161-.858-2.371-2.54-1.006-4.5 6.522-9.717-.964-27.089-10.28-24.7-25.647 7.029-24.6 25.464-24.887 27.455 1.759 2.7 3.49 5.425 5.228 8.148a1.655 1.655 0 0 1 .443.239c3.68 2.864 15.916 15.81 27.652 8.239 11.519-9.054-8.71-12.221-8.71-12.221z" transform="translate(-129.617 -56.104)"/>
                <path id="Path_21052" data-name="Path 21052" class="cls-2" d="M129.852 83.968c1.759 2.7 3.49 5.425 5.228 8.148a1.655 1.655 0 0 1 .443.239c3.68 2.864 15.916 15.81 27.652 8.239 11.518-9.063-8.711-12.229-8.711-12.229 12.771 1.119 12.714-1.78 11.56-2.66-1.161-.858-2.371-2.54-1.006-4.5 6.522-9.717-.964-27.089-10.28-24.7-25.646 7.037-24.598 25.472-24.886 27.463zm26.948 3.553a62.18 62.18 0 0 1-8.8-.127 35.314 35.314 0 0 1-6.762-1.1c-3.532-.957-6.572-2.934-7.648-5.819-1.21-3.237.253-6.741 2.174-9.625a26.633 26.633 0 0 1 2.406-3.1 37.445 37.445 0 0 1 11.742-8.65 14.88 14.88 0 0 1 6.417-1.71 7.5 7.5 0 0 1 4.018 1.33 9.485 9.485 0 0 1 3.138 4.383c1.618 2.54 2.012 5.763 2.266 8.4a10.763 10.763 0 0 1-.9 5.411c-.823 1.865-2.019 3.7-1.984 5.727.028 1.252 1.949 3.068.289 4.13a5.7 5.7 0 0 1-2.793.605c-1.192.054-2.374.117-3.563.145zm-18.35.844c2.969-.992 12.89.521 15.106.8a44.951 44.951 0 0 1 5.7 1.048c2.069.535 4.116 1.365 5.228 2.885a3.586 3.586 0 0 1-.267 4.461c-2.09 2.723-6.874 4.194-10.765 3.553-4.721-.76-8.851-3.645-12.1-6.269-1.389-1.13-6.589-5.243-2.902-6.478z" transform="translate(-129.617 -56.104)"/>
                <path id="Path_21053" data-name="Path 21053" class="cls-3" d="M137.2 94.02c-.668-.563-1.21-1.048-1.639-1.386a.92.92 0 0 0-.352-.19.3.3 0 0 1-.141-.084c-1.6-2.519-3.413-5.376-5.228-8.148a.144.144 0 0 1-.021-.106c.021-.148.035-.415.063-.732.985-16.816 14.136-23.895 24.992-26.878a7.932 7.932 0 0 1 7.55 2.259c5.186 4.827 7.634 15.789 2.99 22.7-1.527 2.181.359 3.828.985 4.285a1.247 1.247 0 0 1 .492 1.288c-.134.422-.619 1.048-2.209 1.471a26.293 26.293 0 0 1-7.36.387c3.251.8 8.443 2.5 9.6 5.474.753 1.963-.38 4.158-3.405 6.523a14.99 14.99 0 0 1-4.327 1.935c-9.062 2.368-17.801-5.175-21.99-8.798zm17.485-5.671c4.524.4 7.838.317 9.851-.2 1.393-.366 1.808-.858 1.9-1.2a.9.9 0 0 0-.366-.957c-1.386-1.006-2.385-2.779-1.062-4.7 4.566-6.79 2.174-17.555-2.941-22.3a7.507 7.507 0 0 0-7.036-2.139c-10.737 2.934-23.719 9.928-24.7 26.54a6.942 6.942 0 0 1-.049.711c1.787 2.737 3.574 5.552 5.157 8.035a1.552 1.552 0 0 1 .429.253c.443.345 1.006.837 1.654 1.393 4.137 3.574 12.742 11 21.538 8.7a14.417 14.417 0 0 0 4.144-1.858c2.885-2.259 3.982-4.334 3.279-6.164-1.583-4.109-11.771-5.741-11.863-5.756-.12-.028-.2-.106-.183-.2a.233.233 0 0 1 .155-.148z" transform="translate(-129.819 -56.263)"/>
            </g>
            <path id="Path_21054" data-name="Path 21054" class="cls-3" d="M142.676 70.549c3.75-3.04 8.746-6.023 9.956-10.4.422-1.534-.19-3.87-2.5-3.405-13.34 2.716-21.812 18.653-19.251 19.6 1.895.693 10.395-4.669 11.795-5.795z" transform="translate(-126.145 -53.718)"/>
            <path id="Path_21055" data-name="Path 21055" class="cls-4" d="M154.966 58.053a3.5 3.5 0 0 0-3.033-.12c-3.1 1.048-19.673 12.63-20.37 13.939-1.351 2.519 2.512 1.267 4.018.8 3.117-.957 20.595-6.72 20.841-11.187a3.656 3.656 0 0 0-1.456-3.432z" transform="translate(-120.986 -47.857)"/>
            <path id="Path_21056" data-name="Path 21056" class="cls-3" d="M131.391 66.875c6.579 1.358 15.838-.373 19.223-5.193.471-.668.858-2.174-.844-2.132-1.661.036-21.102 6.755-18.379 7.325z" transform="translate(-121.903 -36.422)"/>
            <path id="Path_21057" data-name="Path 21057" class="cls-3" d="M137.634 63.39a2.075 2.075 0 0 0 1.126-.8c1.548-2.329-2.843-3.237-4.489-1.442-1.766 1.897 1.393 2.924 3.363 2.242z" transform="translate(-106.068 -32.465)"/>
            <path id="Path_21058" data-name="Path 21058" class="cls-3" d="M136.319 61.293a1.159 1.159 0 0 0 .612-.429c.83-1.245-1.52-1.731-2.406-.774-.936 1.01.746 1.562 1.794 1.203z" transform="translate(-103.064 -36.208)"/>
            <path id="Path_21059" data-name="Path 21059" class="cls-3" d="M135.991 60.288a.719.719 0 0 0 .415-.3c.6-.872-1.076-1.21-1.682-.542-.654.715.521 1.102 1.267.842z" transform="translate(-101.363 -39.193)"/>
            <path id="Path_21060" data-name="Path 21060" class="cls-3" d="M132.143 61.77a.528.528 0 0 0-.345.239c-.246.443.753 1.126 1.07 1.393a29.017 29.017 0 0 0 4.6 2.983c1.288.675 4.109 2.062 5.685 1.2 1.456-.8-.063-2.554-1.238-3.011a55.791 55.791 0 0 0-7.5-2.4 6.447 6.447 0 0 0-2.272-.404z" transform="translate(-118.103 -23.232)"/>
            <path id="Path_21061" data-name="Path 21061" class="cls-4" d="M132.349 61.251c-2.737.887 9.71 6.326 12.961 6.093 1.435-.106 2.681-1.344 2.434-2.42-.239-1.154-1.492-1.893-2.836-2.2a57.3 57.3 0 0 0-9.245-1.5 10.46 10.46 0 0 0-3.314.027z" transform="translate(-116.902 -27.069)"/>
        </g>
        <path id="Path_21062" data-name="Path 21062" class="cls-5" d="M133.185 56.927s5.706-2.35 8.781 3.982 3.251 12.679.211 18.73a23.443 23.443 0 0 0 .781-13.474c-1.878-6.846-5.291-9.765-9.773-9.238z" transform="translate(-109.499 -54.829)"/>
        <path id="Path_21063" data-name="Path 21063" class="cls-5" d="M133.613 61.1s7.9.922 8.12 4.384c.183 3.455-3.743 5.481-6.2 5.889 0 0 6.466-2.259 5.425-6.009-.745-2.647-7.345-4.264-7.345-4.264z" transform="translate(-106.915 -27.071)"/>
    </g>
    <g id="Group_6410" data-name="Group 6410" transform="translate(26.983 5.724)">
        <path id="Path_21064" data-name="Path 21064" class="cls-6" d="m130.3 70.935-.021.007a.277.277 0 0 1-.3-.162c-.07-.3-.141-.619-.218-1.062a16.037 16.037 0 0 1-.267-2.7 16.537 16.537 0 0 1 .366-3.574 11.711 11.711 0 0 1 1.675-3.673c1.217-1.956 2.575-2.836 4.151-2.674a1.379 1.379 0 0 1 1.295.992 1.188 1.188 0 0 1-.851 1.281 1.479 1.479 0 0 1-1.485-.127.821.821 0 0 1-.014-1.168.3.3 0 0 1 .338-.07.176.176 0 0 1 .07.274c-.211.267-.211.542-.028.7a.955.955 0 0 0 .908.035.761.761 0 0 0 .563-.872.892.892 0 0 0-.88-.668c-1.316-.141-2.5.668-3.631 2.463a11 11 0 0 0-1.618 3.567 16.426 16.426 0 0 0-.373 3.511 17.771 17.771 0 0 0 .253 2.653 9.51 9.51 0 0 0 .232 1.041c.026.091-.051.191-.165.226z" transform="translate(-114.772 -57.076)"/>
        <path id="Path_21065" data-name="Path 21065" class="cls-6" d="M141.591 67.977c-.127.014-.239-.035-.26-.141-.148-.281-.281-.584-.5-.971a19.467 19.467 0 0 0-4.1-5.263 16.219 16.219 0 0 0-3.722-2.427c-2.118-1.091-3.673-1.316-4.742-.661a.682.682 0 0 0-.31.915 1.086 1.086 0 0 0 1.055.528c.415-.028.7-.169.76-.387s-.141-.443-.5-.591a.167.167 0 0 1-.091-.26.281.281 0 0 1 .338-.084c.528.225.837.619.732 1.006s-.556.661-1.189.7a1.546 1.546 0 0 1-1.548-.767 1.007 1.007 0 0 1 .457-1.372c1.238-.76 2.976-.549 5.3.654a16.93 16.93 0 0 1 3.842 2.491 21.543 21.543 0 0 1 2.632 2.934 20.916 20.916 0 0 1 1.541 2.442 8.435 8.435 0 0 1 .486 1.006c.049.091-.014.2-.141.239z" transform="translate(-127.399 -52.957)"/>
    </g>
    <g id="Group_6411" data-name="Group 6411" transform="translate(38.044 18.356)">
        <path id="Path_21066" data-name="Path 21066" class="cls-7" d="M131.97 69.886c2.456 5.214 5.65 9.063 7.184 8.64 1.5-.45.823-5.024-1.6-10.216-2.4-5.179-5.657-9.07-7.177-8.654-1.527.471-.823 5.031 1.6 10.23z" transform="translate(-125.371 -54.326)"/>
        <path id="Path_21067" data-name="Path 21067" class="cls-8" d="m139.454 78.841-.26.035c-1.013.014-2.146-.964-3.42-2.5a32.142 32.142 0 0 1-3.792-6.248 27.345 27.345 0 0 1-2.4-7.381 6.827 6.827 0 0 1 .049-2.055 1.27 1.27 0 0 1 .894-1.041.214.214 0 0 0 .1-.049c1.161-.042 2.294.936 3.518 2.491a30.3 30.3 0 0 1 3.849 6.29 27.465 27.465 0 0 1 2.343 7.346 5.267 5.267 0 0 1-.028 2.048 1.349 1.349 0 0 1-.851 1.062zm-5.7-16.57c-1.161-1.513-2.35-2.378-2.955-2.308l-.063-.014-.077.014a1.036 1.036 0 0 0-.563.816 5.341 5.341 0 0 0 0 1.907 25.806 25.806 0 0 0 2.294 7.261 32.179 32.179 0 0 0 3.786 6.255c1.175 1.548 2.4 2.364 3.011 2.329l.077-.049c.218-.035.45-.288.577-.781a4.711 4.711 0 0 0 .014-1.935 25.862 25.862 0 0 0-2.28-7.261 30.128 30.128 0 0 0-3.821-6.234z" transform="translate(-125.579 -54.458)"/>
        <path id="Path_21068" data-name="Path 21068" class="cls-9" d="M136.527 73.626c-.985 0-2.829-2.266-4.229-5.305-1.485-3.251-2.005-6.044-1.006-6.318l.169-.021c.985 0 2.864 2.294 4.264 5.312 1.5 3.23 1.928 6.037.971 6.333a.55.55 0 0 1-.169 0zm-6.027-13.77a2 2 0 0 1-.211.014c-1.259.387-.654 4.236 1.344 8.619 1.942 4.1 4.468 7.247 5.854 7.254l.2-.049c1.266-.338.711-4.179-1.344-8.556-1.928-4.165-4.461-7.268-5.847-7.282z" transform="translate(-124.96 -52.93)"/>
        <path id="Path_21069" data-name="Path 21069" class="cls-7" d="M129.3 62.386a3.411 3.411 0 0 0 3.61 2.477 2.6 2.6 0 0 0 1.865-3.455 3.356 3.356 0 0 0-3.624-2.442 2.551 2.551 0 0 0-1.851 3.42z" transform="translate(-127.763 -58.57)"/>
        <path id="Path_21070" data-name="Path 21070" class="cls-8" d="m133.167 65.181-.31.028a3.6 3.6 0 0 1-3.581-2.589l.225-.077-.225.077c-.049-.225-.07-.422-.12-.619a2.685 2.685 0 0 1 2.167-3.047l.317-.049a3.526 3.526 0 0 1 3.546 2.6 3.992 3.992 0 0 1 .127.584 2.658 2.658 0 0 1-2.146 3.1zm1.6-3.6a3.259 3.259 0 0 0-3.082-2.329h-.049a.242.242 0 0 0-.127 0 2.38 2.38 0 0 0-1.879 2.786 2.779 2.779 0 0 0 .106.457 3.131 3.131 0 0 0 3.117 2.343l.2-.021a2.289 2.289 0 0 0 1.8-2.709c-.049-.155-.014-.345-.085-.528z" transform="translate(-127.961 -58.726)"/>
        <path id="Path_21071" data-name="Path 21071" class="cls-9" d="M131.281 58.979a1.035 1.035 0 0 0-.373.872 1.6 1.6 0 0 0 1.66 1.161l.12-.028a1.568 1.568 0 0 0 1.1-.457 1.127 1.127 0 0 0 .112.232v.106l-.077-.007a1.219 1.219 0 0 0-.373.07c-.331.077-.542.2-.471.345l.239.091a2.633 2.633 0 0 0 .422-.07l.317-.155a2.087 2.087 0 0 1-1.6 2.639 2.159 2.159 0 0 1-.422.07 2.861 2.861 0 0 1-2.512-1.611l.035.007c.3-.12.514-.26.471-.38-.021-.056-.19-.077-.3-.049a.912.912 0 0 0-.394.042.54.54 0 0 0-.021-.155c.865-.049 1.548-.718 1.456-1.358a1.148 1.148 0 0 0-.668-.936 1.582 1.582 0 0 1 .887-.436.547.547 0 0 1 .2-.021h.049l.127.028z" transform="translate(-127.426 -58.428)"/>
        <path id="Path_21072" data-name="Path 21072" class="cls-10" d="M130.741 58.921a1.178 1.178 0 0 1 .289 0c-.077.07-.2.141-.225.26l-.127-.028h-.049a.242.242 0 0 0-.127 0 1.723 1.723 0 0 0-.964.457.93.93 0 0 0-.232-.141 2.244 2.244 0 0 1 1.048-.528c.148-.028.274-.007.387-.021z" transform="translate(-126.949 -58.63)"/>
        <path id="Path_21073" data-name="Path 21073" class="cls-9" d="M129.952 59.022a1.12 1.12 0 0 1 .605.851c.1.6-.507 1.112-1.266 1.175a2.4 2.4 0 0 1-.077-.654 2.694 2.694 0 0 1 .739-1.372z" transform="translate(-127.525 -57.964)"/>
        <path id="Path_21074" data-name="Path 21074" class="cls-10" d="M129.739 59.01a.268.268 0 0 0 .155.077 3.182 3.182 0 0 0-.682 1.379 2.23 2.23 0 0 1 .528-1.456z" transform="translate(-127.522 -58.037)"/>
        <path id="Path_21075" data-name="Path 21075" class="cls-8" d="m129.489 59.011-.2.049z" transform="translate(-127.076 -58.031)"/>
        <path id="Path_21076" data-name="Path 21076" class="cls-8" d="m129.54 58.965.19.007z" transform="translate(-125.536 -58.308)"/>
        <path id="Path_21077" data-name="Path 21077" class="cls-11" d="M128.99 60.317a1.556 1.556 0 0 0 1.7 1.062 1.35 1.35 0 0 0 1.386-1.281 1.532 1.532 0 0 0-1.7-1.112c-.823.086-1.449.649-1.386 1.331z" transform="translate(-128.884 -58.19)"/>
        <path id="Path_21078" data-name="Path 21078" class="cls-12" d="M132.229 60.18c.091.64-.591 1.309-1.456 1.358a1.557 1.557 0 0 1-1.794-1.175c-.084-.668.591-1.316 1.471-1.386a1.588 1.588 0 0 1 1.78 1.2zm-.229-.007a1.322 1.322 0 0 0-1.548-1c-.732.07-1.309.591-1.224 1.175a1.294 1.294 0 0 0 1.506 1c.76-.063 1.365-.577 1.266-1.175z" transform="translate(-128.971 -58.263)"/>
        <path id="Path_21079" data-name="Path 21079" class="cls-11" d="M129.5 60.162a1.421 1.421 0 0 0 1.654 1.069c.809-.021 1.442-.619 1.316-1.3a1.389 1.389 0 0 0-1.625-1.034c-.851.042-1.449.619-1.344 1.267z" transform="translate(-125.86 -58.774)"/>
        <path id="Path_21080" data-name="Path 21080" class="cls-12" d="M132.736 60.007c.106.76-.549 1.365-1.449 1.421a1.591 1.591 0 0 1-1.815-1.133 1.433 1.433 0 0 1 1.463-1.421c.9-.042 1.738.471 1.8 1.133zm-.225.056a1.3 1.3 0 0 0-1.511-.992c-.781.063-1.358.612-1.281 1.2a1.411 1.411 0 0 0 1.534 1c.725-.07 1.344-.612 1.26-1.21z" transform="translate(-125.988 -58.872)"/>
        <path id="Path_21081" data-name="Path 21081" class="cls-13" d="M129.272 59.973c.274-.549.471-.675.647-.633a.714.714 0 0 1 .556.183.2.2 0 0 0 .155.028s.063-.091-.035-.113a.984.984 0 0 0-.675-.331c-.3.042-.584.26-.816.809-.007.056.056.091.056.091l.014.028z" transform="translate(-128.175 -57.451)"/>
        <path id="Path_21082" data-name="Path 21082" class="cls-13" d="M129.819 59.581a.874.874 0 0 0-.134-.106s-.429-.042-.408-.246a.281.281 0 0 0-.106-.106l-.127.12c.014.38.6.387.6.387v.021l.042-.014z" transform="translate(-128.524 -57.348)"/>
        <path id="Path_21083" data-name="Path 21083" class="cls-13" d="M129.639 59.52a.414.414 0 0 0 .141-.035c.12-.035.134-.084.07-.12l-.091-.042-.148.028s-.3-.049-.359-.141l-.2-.028-.042.12a.718.718 0 0 0 .626.232z" transform="translate(-128.717 -56.998)"/>
        <path id="Path_21084" data-name="Path 21084" class="cls-13" d="M131.1 59.56a1.3 1.3 0 0 0-.957-.38.773.773 0 0 0-.352.38l-.141.084a.123.123 0 0 1-.07-.07.738.738 0 0 1 .486-.535c.267-.113.647-.021 1.2.387l-.042.127v.021z" transform="translate(-125.265 -58.129)"/>
        <path id="Path_21085" data-name="Path 21085" class="cls-13" d="M129.8 59.6a.238.238 0 0 1-.042-.1s.4-.253.3-.436c-.035-.021-.028-.077.042-.113l.162.077c.176.359-.324.584-.324.584l-.042-.007c-.048.061-.069.054-.096-.005z" transform="translate(-124.226 -58.369)"/>
        <path id="Path_21086" data-name="Path 21086" class="cls-13" d="M130.088 59.482a.281.281 0 0 1-.183.049l-.12-.021.1-.169.106-.035c.141-.028.31-.134.289-.246l.12-.06c.049-.014.141.049.141.049a.508.508 0 0 1-.45.436z" transform="translate(-124.057 -58.129)"/>
        <path id="Path_21087" data-name="Path 21087" class="cls-13" d="m132.006 59.463-.1-.113-.113.056s-.3.809-1.013.837a1.972 1.972 0 0 1-1.2-.422l-.134-.021c-.1.1-.077.155-.077.155a2.3 2.3 0 0 0 1.485.443 1.283 1.283 0 0 0 1.152-.935z" transform="translate(-126.588 -55.984)"/>
        <rect id="Rectangle_75" data-name="Rectangle 75" width=".071" transform="rotate(-29.07 8.166 -.932)" style="fill:#5f0d53"/>
        <path id="Path_21088" data-name="Path 21088" class="cls-15" d="M129.3 59.359a2.364 2.364 0 0 1 .183.38l-.141.028-.1-.035a1.549 1.549 0 0 1-.021-.218l.077-.155z" transform="translate(-127.474 -55.93)"/>
        <path id="Path_21089" data-name="Path 21089" class="cls-16" d="M129.523 59.369a2.01 2.01 0 0 0 .063.267l.035.1a.243.243 0 0 0-.134 0l-.2-.014.056-.035-.056.035a.382.382 0 0 0-.127-.063.778.778 0 0 1 .359-.288z" transform="translate(-127.806 -55.87)"/>
        <path id="Path_21090" data-name="Path 21090" class="cls-17" d="M129.624 59.364c.106-.028.274-.007.3.049.042.12-.169.26-.471.38l-.035-.007a2.364 2.364 0 0 0-.183-.38.719.719 0 0 1 .331-.049z" transform="translate(-127.408 -55.977)"/>
        <path id="Path_21091" data-name="Path 21091" class="cls-15" d="M129.892 59.218c.085.014.148.028.141.077l.063.014c.035.049-.021.155-.021.155a.294.294 0 0 1-.183-.246z" transform="translate(-123.412 -56.781)"/>
        <rect id="Rectangle_76" data-name="Rectangle 76" class="cls-16" height=".063" transform="rotate(-77.196 4.888 -2.889)"/>
        <path id="Path_21092" data-name="Path 21092" class="cls-17" d="m130.617 59.217.077.007c.007.084.042.169.056.274l-.317.155a2.633 2.633 0 0 1-.422.07l-.239-.091c-.07-.148.141-.267.471-.345a.866.866 0 0 1 .31-.063z" transform="translate(-124.214 -56.787)"/>
    </g>
</svg>
