<svg id="Group_6445" data-name="Group 6445" xmlns="http://www.w3.org/2000/svg" width="75.15" height="49.282">
    <defs>
        <style>
            .cls-1,.cls-2,.cls-5{fill:#b95cbf}.cls-2{opacity:.4;mix-blend-mode:multiply}.cls-2,.cls-5{isolation:isolate}.cls-3{fill:#8840af}.cls-4{fill:#7c3ead}.cls-5{mix-blend-mode:screen}.cls-6{fill:#524643}.cls-7{fill:#e04392}.cls-8{fill:#bf1a88}.cls-9{fill:#e669a8}.cls-10{fill:#cc48a0}.cls-11{fill:#fff}.cls-12{fill:#dddfe0}.cls-13{fill:#231f20}.cls-15{fill:#cb0540}.cls-16{fill:#ad023c}.cls-17{fill:#d0074a}
        </style>
    </defs>
    <g id="Group_6415" data-name="Group 6415">
        <g id="Group_6414" data-name="Group 6414">
            <g id="Group_6413" data-name="Group 6413">
                <path id="Path_21093" data-name="Path 21093" class="cls-1" d="M116.6 77.668c-11.469 1.752-11.7-.887-10.723-1.752a2.79 2.79 0 0 0 .5-4.13c-6.825-8.443-1.639-24.605 7.022-22.973 23.888 4.925 24.655 21.692 25.091 23.48a555.93 555.93 0 0 0-3.968 7.683.765.765 0 0 0-.373.232c-3.1 2.814-12.982 15.247-24.31 9.041C98.546 81.7 116.6 77.668 116.6 77.668z" transform="translate(-103.05 -48.534)"/>
                <path id="Path_21094" data-name="Path 21094" class="cls-2" d="M113.4 48.813c-8.661-1.632-13.847 14.53-7.022 22.973a2.79 2.79 0 0 1-.5 4.13c-.978.865-.746 3.5 10.723 1.752 0 0-18.055 4.032-6.762 11.581 11.328 6.206 21.214-6.227 24.31-9.041a.765.765 0 0 1 .373-.232 555.93 555.93 0 0 1 3.968-7.683c-.436-1.793-1.203-18.555-25.09-23.48zm-2.245 28.3a5.049 5.049 0 0 1-2.582-.4c-1.618-.858-.035-2.617-.127-3.757-.162-1.836-1.428-3.427-2.329-5.066a9.976 9.976 0 0 1-1.309-4.855c-.021-2.406.042-5.354 1.274-7.747a8.266 8.266 0 0 1 2.427-4.151 6.526 6.526 0 0 1 3.525-1.428 13.654 13.654 0 0 1 5.981 1.182 35.9 35.9 0 0 1 11.441 7.163 25.638 25.638 0 0 1 2.456 2.681c2.019 2.512 3.666 5.6 2.871 8.605-.711 2.674-3.286 4.637-6.4 5.713a32.01 32.01 0 0 1-6.03 1.393 59.933 59.933 0 0 1-7.951.605zM129.1 82.8c-2.73 2.554-6.2 5.4-10.406 6.368-3.476.8-7.937-.26-10.1-2.61a3.325 3.325 0 0 1-.647-4.018c.865-1.442 2.646-2.329 4.468-2.92a41.915 41.915 0 0 1 5.08-1.281c1.984-.38 10.85-2.308 13.615-1.576 3.461.905-.866 4.937-2.01 6.037z" transform="translate(-103.05 -48.534)"/>
                <path id="Path_21095" data-name="Path 21095" class="cls-3" d="M113.974 91.022a14.054 14.054 0 0 1-4.1-1.5c-2.976-1.977-4.2-3.905-3.694-5.727.774-2.772 5.326-4.595 8.183-5.5a24.475 24.475 0 0 1-6.705.056c-1.478-.288-1.963-.823-2.132-1.21a1.063 1.063 0 0 1 .345-1.2 2.662 2.662 0 0 0 .478-3.94c-4.848-6-3.652-16.078.605-20.735a7.011 7.011 0 0 1 6.635-2.484c10.111 2.09 22.684 7.761 25.147 22.945.049.3.084.514.113.668a.075.075 0 0 1-.007.084 504.05 504.05 0 0 0-3.975 7.676.155.155 0 0 1-.12.084 1.178 1.178 0 0 0-.3.2c-.352.331-.823.8-1.358 1.351-3.46 3.54-10.689 10.878-19.115 9.232zm2.826-13.369a.2.2 0 0 1 .148.127c.028.07-.035.162-.12.19-.113.021-9.175 2.083-10.238 5.9-.478 1.7.718 3.511 3.532 5.4a14.15 14.15 0 0 0 3.94 1.449c8.183 1.59 15.29-5.629 18.716-9.112a49.114 49.114 0 0 1 1.358-1.358 1.611 1.611 0 0 1 .373-.246c1.2-2.35 2.568-5 3.94-7.585-.035-.134-.07-.359-.113-.633-2.427-15.015-14.846-20.616-24.83-22.67a6.641 6.641 0 0 0-6.2 2.35c-4.194 4.595-5.362 14.487-.591 20.384a2.924 2.924 0 0 1-.535 4.327.8.8 0 0 0-.253.88c.12.317.549.732 1.843.985 1.872.373 4.883.232 8.943-.38a.169.169 0 0 1 .087-.008z" transform="translate(-103.209 -48.674)"/>
            </g>
            <path id="Path_21096" data-name="Path 21096" class="cls-3" d="M114.757 61.161c-3.687-2.554-8.479-4.975-9.991-8.873-.521-1.358-.169-3.511 1.942-3.223 12.348 1.7 21.509 15.662 19.265 16.669-1.633.746-9.844-3.634-11.216-4.573z" transform="translate(-95.105 -46.472)"/>
            <path id="Path_21097" data-name="Path 21097" class="cls-4" d="M104.565 50.44a3.2 3.2 0 0 1 2.765-.288c2.9.781 19 10.329 19.736 11.476 1.456 2.2-2.146 1.3-3.56.957-2.913-.69-19.3-4.925-19.926-8.957a3.189 3.189 0 0 1 .985-3.188z" transform="translate(-101.357 -40.775)"/>
            <path id="Path_21098" data-name="Path 21098" class="cls-3" d="M122.872 57.27c-5.847 1.611-14.382.556-17.907-3.617-.492-.57-1-1.921.556-1.991 1.52-.062 19.758 4.933 17.351 5.608z" transform="translate(-95.565 -30.641)"/>
            <path id="Path_21099" data-name="Path 21099" class="cls-3" d="M105.529 55.228a2.072 2.072 0 0 1-1.1-.661c-1.632-2.019 2.273-3.1 3.926-1.562 1.775 1.618-.997 2.723-2.826 2.223z" transform="translate(-98.191 -26.918)"/>
            <path id="Path_21100" data-name="Path 21100" class="cls-3" d="M104.637 53.308a1.175 1.175 0 0 1-.591-.359c-.858-1.07 1.217-1.646 2.1-.823.961.858-.517 1.449-1.509 1.182z" transform="translate(-99.388 -30.197)"/>
            <path id="Path_21101" data-name="Path 21101" class="cls-3" d="M104.205 52.4a.92.92 0 0 1-.422-.246c-.584-.753.872-1.154 1.492-.591.668.62-.375 1.021-1.07.837z" transform="translate(-100.561 -32.83)"/>
            <path id="Path_21102" data-name="Path 21102" class="cls-3" d="M115.245 53.556a.623.623 0 0 1 .352.19c.239.387-.591 1.069-.865 1.316a22.681 22.681 0 0 1-3.9 2.969c-1.091.7-3.525 2.1-5.017 1.407-1.407-.633-.2-2.315.837-2.793a46.018 46.018 0 0 1 6.565-2.6 5.741 5.741 0 0 1 2.028-.489z" transform="translate(-91.323 -19.335)"/>
            <path id="Path_21103" data-name="Path 21103" class="cls-4" d="M118.07 53.054c2.554.647-8.218 6.29-11.2 6.255-1.295-.014-2.54-1.062-2.427-2.055.113-1.055 1.182-1.787 2.371-2.153a55.344 55.344 0 0 1 8.239-1.879 9.684 9.684 0 0 1 3.017-.168z" transform="translate(-95.815 -22.71)"/>
        </g>
        <path id="Path_21104" data-name="Path 21104" class="cls-5" d="M112.557 49.138s-5.4-1.794-7.578 4.13a18.517 18.517 0 0 0 1.541 16.985s-3.04-5.889-1.977-12.18 3.904-9.146 8.014-8.935z" transform="translate(-100.757 -47.417)"/>
        <path id="Path_21105" data-name="Path 21105" class="cls-5" d="M110.879 53.058s-7.085 1.295-6.945 4.44 3.884 4.756 6.164 4.975c0 0-6.086-1.682-5.5-5.129.441-2.436 6.281-4.286 6.281-4.286z" transform="translate(-98.841 -22.215)"/>
    </g>
    <g id="Group_6418" data-name="Group 6418" transform="translate(33.11 11.011)">
        <g id="Group_6417" data-name="Group 6417">
            <g id="Group_6416" data-name="Group 6416">
                <path id="Path_21106" data-name="Path 21106" class="cls-1" d="M125.167 75.413c9.1 5.741 10.864 3.5 10.533 2.385-.366-1.1-.253-2.843 2.012-3.835 11.068-4.967 16.148-21.144 7.5-22.874-24.049-4.4-34.744 10.139-36.2 11.553q-.486 4.127-1.07 8.239a.843.843 0 0 1 .2.359c1.041 3.6 2.385 18.224 16.106 16.894 14.471-2.547.919-12.721.919-12.721z" transform="translate(-107.744 -50.107)"/>
                <path id="Path_21107" data-name="Path 21107" class="cls-2" d="M109.012 62.642q-.486 4.127-1.07 8.239a.843.843 0 0 1 .2.359c1.041 3.6 2.385 18.224 16.106 16.894 14.473-2.547.922-12.721.922-12.721 9.1 5.741 10.864 3.5 10.533 2.385-.366-1.1-.253-2.843 2.012-3.835 11.068-4.967 16.148-21.144 7.5-22.874-24.051-4.405-34.746 10.139-36.203 11.553zm18.463 13.031a48.008 48.008 0 0 1-6.663-3.455 25.349 25.349 0 0 1-4.524-3.434c-2.09-2.083-3.173-4.763-2.216-7.388 1.076-2.948 4.4-5.073 7.648-6.565a43.332 43.332 0 0 1 3.785-1.456 45.328 45.328 0 0 1 14.382-2.153 13.657 13.657 0 0 1 6.013 1.148 4.845 4.845 0 0 1 2.252 2.547 7.142 7.142 0 0 1-.317 4.559c-.345 2.568-2.055 5.207-3.5 7.318a13.275 13.275 0 0 1-4.06 3.807c-1.794 1.119-3.856 2.062-5.087 3.638-.746.971-.415 3.1-2.35 3.265a4.991 4.991 0 0 1-2.526-.584c-.958-.42-1.901-.82-2.837-1.247zM112.868 69.3c2.913.366 9.59 5.326 11.11 6.4a29.615 29.615 0 0 1 3.722 2.976c1.259 1.2 2.308 2.617 2.209 4.208-.07 1.478-1.337 2.681-2.976 3.314a11.754 11.754 0 0 1-10.47-1.379c-3.152-2.392-4.524-6.171-5.39-9.442-.365-1.385-1.793-6.543 1.795-6.077z" transform="translate(-107.744 -50.107)"/>
                <path id="Path_21108" data-name="Path 21108" class="cls-3" d="M108.507 73.09a24.372 24.372 0 0 0-.4-1.682.689.689 0 0 0-.134-.288.108.108 0 0 1-.056-.12c.338-2.526.725-5.425 1.062-8.239a.088.088 0 0 1 .042-.077c.113-.12.3-.3.507-.549C120.75 49.6 135.259 49.2 145.447 51.06a5.26 5.26 0 0 1 4.383 4.623c.985 5.678-3.968 15.015-11.842 18.554-2.547 1.1-2.1 3.075-1.907 3.659a1.107 1.107 0 0 1-.429 1.182 3.184 3.184 0 0 1-2.589.274 20.86 20.86 0 0 1-5.9-2.5c2 1.85 4.918 5.129 3.954 7.873-.64 1.787-2.871 3.04-6.677 3.694a15.4 15.4 0 0 1-4.517-.155c-8.453-1.651-10.452-10.784-11.416-15.174zm16.957 2.343c3.23 2.026 5.8 3.244 7.7 3.61a2.752 2.752 0 0 0 2.216-.2.831.831 0 0 0 .3-.872c-.415-1.323-.1-3.054 2.1-4.025 7.74-3.469 12.6-12.637 11.645-18.224a4.952 4.952 0 0 0-4.088-4.348c-10.055-1.836-24.373-1.442-35.469 10.934-.211.232-.352.408-.485.528-.331 2.786-.7 5.636-1.041 8.134a.926.926 0 0 1 .169.366c.127.436.253 1.02.415 1.7.943 4.334 2.92 13.319 11.11 14.91a14.848 14.848 0 0 0 4.327.162c3.631-.633 5.748-1.808 6.347-3.469 1.351-3.764-5.446-8.908-5.5-8.964a.128.128 0 0 1-.028-.225.271.271 0 0 1 .2-.049z" transform="translate(-107.915 -50.239)"/>
            </g>
            <path id="Path_21109" data-name="Path 21109" class="cls-3" d="M121.779 58.879c4.771-.915 10.463-1.3 14.1-4.186 1.295-1.013 2.28-3.047.218-3.567-11.933-3-28.356 5.981-26.977 7.683 1.007 1.259 10.886.391 12.659.07z" transform="translate(-101.126 -48.574)"/>
            <path id="Path_21110" data-name="Path 21110" class="cls-4" d="M136.924 53.036a2.638 2.638 0 0 0-2.28-1.252c-3.033-.387-22.952 2.174-24.31 2.906-2.6 1.421 1.14 1.942 2.6 2.167 2.976.443 19.983 2.688 22.959-.633.946-1.084 1.407-2.301 1.031-3.188z" transform="translate(-98.73 -41.155)"/>
            <path id="Path_21111" data-name="Path 21111" class="cls-3" d="M108.972 53.228c4.208 3.567 12.37 5.763 18 3.377.767-.338 2.012-1.358.661-1.984-1.281-.605-20.406-2.871-18.661-1.393z" transform="translate(-102.209 -35.169)"/>
            <path id="Path_21112" data-name="Path 21112" class="cls-3" d="M113.317 56.756a2.64 2.64 0 0 0 1.365-.183c2.646-1.189-.141-3.567-2.54-2.821-2.519.774-.742 2.765 1.175 3.004z" transform="translate(-89.914 -29.895)"/>
            <path id="Path_21113" data-name="Path 21113" class="cls-3" d="M113.067 54.951a1.27 1.27 0 0 0 .725-.091c1.421-.64-.084-1.907-1.365-1.513-1.358.422-.394 1.485.64 1.604z" transform="translate(-84.717 -31.932)"/>
            <path id="Path_21114" data-name="Path 21114" class="cls-3" d="M113.228 54.162a1.017 1.017 0 0 0 .521-.063c.985-.45-.063-1.344-.957-1.062-.957.295-.292 1.04.436 1.125z" transform="translate(-81.353 -33.683)"/>
            <path id="Path_21115" data-name="Path 21115" class="cls-3" d="M109.216 53.943a.74.74 0 0 0-.408.042c-.471.253-.127 1.147-.049 1.485a16.811 16.811 0 0 0 1.682 4.053c.549 1.027 1.858 3.145 3.6 3.089 1.611-.063 1.548-1.977.943-2.8a38.063 38.063 0 0 0-4.264-4.693c-.28-.254-1.012-1.106-1.504-1.176z" transform="translate(-103.993 -27.94)"/>
            <path id="Path_21116" data-name="Path 21116" class="cls-4" d="M109.753 53.544c-2.66-.359 3.5 8.577 6.164 9.639a3 3 0 0 0 3.384-.929 2.264 2.264 0 0 0-.816-2.765 38.693 38.693 0 0 0-6.164-4.679 8.039 8.039 0 0 0-2.568-1.266z" transform="translate(-100.752 -30.356)"/>
        </g>
        <path id="Path_21117" data-name="Path 21117" class="cls-5" d="M119.15 50.483s5.854.394 4.264 6.424-5.4 10.969-11.511 14.445c0 0 6.206-4.067 9.006-10.034s2.02-9.512-1.759-10.835z" transform="translate(-83.841 -48.769)"/>
        <path id="Path_21118" data-name="Path 21118" class="cls-5" d="M114.66 54.131s5.5 3.729 3.511 6.459c-2.012 2.723-6.3 2.786-8.436 2.146 0 0 6.389.739 7.909-2.533 1.09-2.303-2.984-6.072-2.984-6.072z" transform="translate(-96.928 -26.749)"/>
    </g>
    <g id="Group_6419" data-name="Group 6419" transform="translate(30.867 4.209)">
        <path id="Path_21119" data-name="Path 21119" class="cls-6" d="m108.785 58.75-.021-.007a.171.171 0 0 1-.141-.218 7.943 7.943 0 0 1 .507-.9 14.29 14.29 0 0 1 1.478-2.167 19.694 19.694 0 0 1 2.5-2.617 15.431 15.431 0 0 1 3.588-2.188c2.146-1.027 3.729-1.189 4.848-.457a.918.918 0 0 1 .366 1.245 1.449 1.449 0 0 1-1.442.661c-.57-.056-.992-.31-1.076-.661-.056-.345.211-.711.725-.9a.258.258 0 0 1 .3.077c.063.091.014.19-.1.239-.338.127-.521.317-.457.528.042.2.289.331.661.366a.981.981 0 0 0 .978-.443.617.617 0 0 0-.253-.851c-.936-.612-2.35-.443-4.327.5a14.952 14.952 0 0 0-3.469 2.125 19.525 19.525 0 0 0-2.47 2.554 20.175 20.175 0 0 0-1.449 2.132 9.381 9.381 0 0 0-.464.88.283.283 0 0 1-.282.102z" transform="translate(-101.44 -46.434)"/>
        <path id="Path_21120" data-name="Path 21120" class="cls-6" d="M113.211 61.976c-.106-.028-.183-.12-.155-.2.1-.274.155-.563.253-.95a15.741 15.741 0 0 0 .324-2.406 13.724 13.724 0 0 0-.19-3.194 10.2 10.2 0 0 0-1.351-3.265c-.957-1.668-2-2.427-3.223-2.343a.846.846 0 0 0-.809.591.689.689 0 0 0 .471.809.888.888 0 0 0 .83-.014.429.429 0 0 0-.007-.626.174.174 0 0 1 .077-.253.286.286 0 0 1 .31.056.735.735 0 0 1-.049 1.062 1.331 1.331 0 0 1-1.358.077 1 1 0 0 1-.711-1.182 1.252 1.252 0 0 1 1.2-.858c1.435-.113 2.631.711 3.68 2.519a10.267 10.267 0 0 1 1.372 3.37 14.446 14.446 0 0 1 .211 3.272 15.672 15.672 0 0 1-.338 2.456c-.091.38-.169.682-.239.957a.276.276 0 0 1-.281.127z" transform="translate(-107.596 -49.273)"/>
    </g>
    <g id="Group_6420" data-name="Group 6420" transform="translate(29.733 14.881)">
        <path id="Path_21121" data-name="Path 21121" class="cls-7" d="M108.446 59.979c-1.358 4.925-1.3 9.1.127 9.365 1.449.232 3.771-3.539 5.143-8.457 1.386-4.9 1.316-9.1-.127-9.379-1.456-.218-3.757 3.539-5.143 8.471z" transform="translate(-107.263 -46.507)"/>
        <path id="Path_21122" data-name="Path 21122" class="cls-8" d="M108.723 69.634s-.141-.035-.232-.07c-.781-.366-1.048-1.562-1.055-3.216a24.148 24.148 0 0 1 .978-6.255 24.427 24.427 0 0 1 2.765-6.579 8.3 8.3 0 0 1 1.281-1.562 1.677 1.677 0 0 1 1.34-.452l.113.007c.929.415 1.182 1.59 1.154 3.251a24.561 24.561 0 0 1-.957 6.3 25.685 25.685 0 0 1-2.779 6.53 6.3 6.3 0 0 1-1.295 1.555 1.749 1.749 0 0 1-1.309.493zm5.938-14.881c.049-1.618-.338-2.73-.823-2.913l-.049-.028-.063-.021a1.409 1.409 0 0 0-.957.4 6.818 6.818 0 0 0-1.182 1.478 24.392 24.392 0 0 0-2.751 6.445 25.48 25.48 0 0 0-1 6.248c-.049 1.639.373 2.723.858 2.941h.106a1.3 1.3 0 0 0 .929-.387 6.2 6.2 0 0 0 1.21-1.485 24.252 24.252 0 0 0 2.772-6.438 24.614 24.614 0 0 0 .95-6.241z" transform="translate(-107.435 -46.621)"/>
        <path id="Path_21123" data-name="Path 21123" class="cls-9" d="M108.868 64.64c-.76-.38-.76-2.829.063-5.685.887-3.061 2.223-5.4 3.152-5.242l.148.056c.753.38.753 2.85-.035 5.713-.872 3.033-2.28 5.355-3.2 5.214a.278.278 0 0 1-.127-.056zm3.947-12.869-.183-.07c-1.189-.183-3.138 3-4.334 7.135-1.062 3.884-1.069 7.254-.007 7.8l.183.049c1.182.2 3.159-2.948 4.285-7.092 1.126-3.933 1.1-7.275.056-7.817z" transform="translate(-107.058 -45.335)"/>
        <path id="Path_21124" data-name="Path 21124" class="cls-7" d="M108.335 52.878a2.236 2.236 0 0 0 1.217 3.279 3.27 3.27 0 0 0 3.574-1.928 2.256 2.256 0 0 0-1.267-3.272 3.152 3.152 0 0 0-3.525 1.921z" transform="translate(-103.69 -50.354)"/>
        <path id="Path_21125" data-name="Path 21125" class="cls-8" d="m109.679 56.436-.239-.106a2.407 2.407 0 0 1-1.147-3.37l.246.035-.246-.035c.106-.19.2-.338.288-.514a3.4 3.4 0 0 1 3.56-1.52l.281.091a2.4 2.4 0 0 1 1.119 3.356 4.817 4.817 0 0 1-.274.478 3.428 3.428 0 0 1-3.588 1.583zm3.469-2.167a2.127 2.127 0 0 0-.908-2.969l-.028-.007a.3.3 0 0 0-.106-.063 3.05 3.05 0 0 0-3.187 1.414 3.294 3.294 0 0 0-.183.408 2.083 2.083 0 0 0 .922 2.983l.176.056a2.886 2.886 0 0 0 3.068-1.386c.063-.148.211-.267.246-.436z" transform="translate(-103.894 -50.472)"/>
        <path id="Path_21126" data-name="Path 21126" class="cls-9" d="M111.646 51.109a1.4 1.4 0 0 0-.823.528 1.071 1.071 0 0 0 .556 1.527l.084.021a1.756 1.756 0 0 0 1.133.077l-.056.211-.063.084-.028-.035a1.422 1.422 0 0 0-.352-.091c-.31-.077-.535-.056-.57.091l.12.155a1.938 1.938 0 0 0 .373.12h.331a2.587 2.587 0 0 1-2.864 1.4 1.685 1.685 0 0 1-.366-.113 1.847 1.847 0 0 1-.929-2.181l.035.021c.288.028.549-.014.591-.12.014-.049-.084-.127-.19-.141a.61.61 0 0 0-.331-.113.714.714 0 0 0 .077-.141 1.662 1.662 0 0 0 1.956-.485.882.882 0 0 0 .07-.978 1.766 1.766 0 0 1 .978.014.462.462 0 0 1 .155.07l.028.007.084.07z" transform="translate(-103.215 -50.21)"/>
        <path id="Path_21127" data-name="Path 21127" class="cls-10" d="M109.873 51.057a1.046 1.046 0 0 1 .232.113.833.833 0 0 0-.338.113l-.084-.07-.028-.007a.3.3 0 0 0-.106-.063 1.886 1.886 0 0 0-1.027-.021c-.014-.07-.056-.12-.077-.19a1.857 1.857 0 0 1 1.428.127z" transform="translate(-101.338 -50.384)"/>
        <path id="Path_21128" data-name="Path 21128" class="cls-9" d="M109.98 50.895a.81.81 0 0 1-.084.872 1.441 1.441 0 0 1-1.717.422 2.52 2.52 0 0 1 .366-.528 3.482 3.482 0 0 1 1.435-.767z" transform="translate(-102.943 -50.151)"/>
        <path id="Path_21129" data-name="Path 21129" class="cls-10" d="M109.547 50.873a.153.153 0 0 0 .063.127 4.192 4.192 0 0 0-1.379.8 3 3 0 0 1 1.316-.922z" transform="translate(-102.629 -50.284)"/>
        <path id="Path_21130" data-name="Path 21130" class="cls-8" d="m108.607 50.927-.2-.049z" transform="translate(-101.549 -50.254)"/>
        <path id="Path_21131" data-name="Path 21131" class="cls-8" d="m108.64 50.936.148.084z" transform="translate(-100.161 -49.904)"/>
        <path id="Path_21132" data-name="Path 21132" class="cls-11" d="M108.2 51.4a1.024 1.024 0 0 0 .619 1.471 1.642 1.642 0 0 0 1.886-.457 1.049 1.049 0 0 0-.633-1.513 1.682 1.682 0 0 0-1.872.499z" transform="translate(-103.623 -50.723)"/>
        <path id="Path_21133" data-name="Path 21133" class="cls-12" d="M110.825 52.5a1.662 1.662 0 0 1-1.956.485 1.046 1.046 0 0 1-.647-1.576 1.709 1.709 0 0 1 1.984-.5 1.041 1.041 0 0 1 .619 1.59zm-.162-.1a.889.889 0 0 0-.563-1.344 1.448 1.448 0 0 0-1.675.429.876.876 0 0 0 .521 1.337 1.441 1.441 0 0 0 1.717-.422z" transform="translate(-103.71 -50.789)"/>
        <path id="Path_21134" data-name="Path 21134" class="cls-11" d="M108.671 51.5c-.359.514-.1 1.168.612 1.442a1.482 1.482 0 0 0 1.836-.478.946.946 0 0 0-.6-1.414 1.511 1.511 0 0 0-1.851.45z" transform="translate(-100.944 -50.038)"/>
        <path id="Path_21135" data-name="Path 21135" class="cls-12" d="M111.344 52.58a1.68 1.68 0 0 1-2.012.542 1.071 1.071 0 0 1-.682-1.569 1.715 1.715 0 0 1 2-.528c.711.317 1.041 1.027.7 1.555zm-.225-.028a.89.89 0 0 0-.563-1.358 1.458 1.458 0 0 0-1.71.443.912.912 0 0 0 .556 1.337 1.5 1.5 0 0 0 1.717-.422z" transform="translate(-101.042 -50.126)"/>
        <path id="Path_21136" data-name="Path 21136" class="cls-13" d="M108.251 51.37c.556-.31.788-.338.894-.253a.492.492 0 0 1 .31.366.2.2 0 0 0 .106.091s.106-.049.056-.106a.637.637 0 0 0-.345-.521 1.354 1.354 0 0 0-1.1.317.071.071 0 0 0-.028.084v.035z" transform="translate(-103.17 -50.014)"/>
        <path id="Path_21137" data-name="Path 21137" class="cls-13" d="M108.6 51.475s-.021-.113-.056-.141c0 0-.3-.2-.148-.338a.191.191 0 0 0-.021-.12l-.176.035c-.211.31.211.528.211.528v.028h.042z" transform="translate(-103.175 -50.26)"/>
        <path id="Path_21138" data-name="Path 21138" class="cls-13" d="m108.441 51.382.127.035c.12.014.155-.007.134-.07l-.042-.077-.134-.021s-.2-.134-.2-.239l-.126-.11-.113.091c-.007.2.183.324.331.415z" transform="translate(-103.487 -50.097)"/>
        <path id="Path_21139" data-name="Path 21139" class="cls-13" d="M109.766 51.794c-.141-.486-.373-.605-.5-.647a.907.907 0 0 0-.486.162l-.176.007v-.077a1.009 1.009 0 0 1 .711-.225c.274.021.507.232.675.753l-.106.077-.021.021z" transform="translate(-100.372 -49.474)"/>
        <path id="Path_21140" data-name="Path 21140" class="cls-13" d="M108.764 51.4c0-.063.035-.07.035-.07s.464-.049.479-.232c0-.021.049-.063.134-.063l.056.113c-.063.345-.605.331-.605.331l-.042-.021c-.057.023-.071-.005-.057-.058z" transform="translate(-99.441 -49.33)"/>
        <path id="Path_21141" data-name="Path 21141" class="cls-13" d="M108.991 51.334a.283.283 0 0 1-.169-.042c-.049-.028-.056-.056-.056-.056l.148-.091.127.014c.12.028.324.028.366-.063l.134-.007c.049.007.063.084.063.084a.636.636 0 0 1-.612.162z" transform="translate(-99.4 -48.986)"/>
        <path id="Path_21142" data-name="Path 21142" class="cls-13" d="M110.542 51.937v-.127l-.127.007s-.725.514-1.288.253a1.3 1.3 0 0 1-.683-.788l-.077-.063c-.127.028-.155.084-.155.084a1.49 1.49 0 0 0 .851.908 1.6 1.6 0 0 0 1.479-.274z" transform="translate(-102.738 -48.196)"/>
        <rect id="Rectangle_77" data-name="Rectangle 77" width=".089" transform="translate(4.553 2.527)" style="fill:#5f0d53"/>
        <path id="Path_21143" data-name="Path 21143" class="cls-15" d="M108.4 51.122a2.151 2.151 0 0 1-.106.352.626.626 0 0 1-.127-.035l-.049-.063a1.974 1.974 0 0 0 .113-.19l.169-.063z" transform="translate(-103.318 -48.781)"/>
        <path id="Path_21144" data-name="Path 21144" class="cls-16" d="M108.525 51.129a1.411 1.411 0 0 0-.113.232l-.035.077a.2.2 0 0 0-.106-.049l-.148-.084a.157.157 0 0 0-.049-.091.824.824 0 0 1 .45-.084z" transform="translate(-103.571 -48.781)"/>
        <path id="Path_21145" data-name="Path 21145" class="cls-17" d="M108.578 51.235c.106.014.2.091.19.141-.042.106-.3.148-.591.12l-.035-.021a2.151 2.151 0 0 0 .106-.352.453.453 0 0 1 .281.084z" transform="translate(-103.167 -48.781)"/>
        <path id="Path_21146" data-name="Path 21146" class="cls-15" d="M108.781 51.265c.063.042.113.084.063.113l.049.035c-.007.049-.127.106-.127.106a.311.311 0 0 1 .014-.253z" transform="translate(-99.521 -47.918)"/>
        <rect id="Rectangle_78" data-name="Rectangle 78" class="cls-16" height=".059" transform="rotate(-54.782 8.002 -7.264)"/>
        <path id="Path_21147" data-name="Path 21147" class="cls-17" d="m109.538 51.376.028.035a.794.794 0 0 1-.127.239h-.331a1.938 1.938 0 0 1-.373-.12l-.12-.155c.035-.148.26-.169.57-.091a.7.7 0 0 1 .274.084z" transform="translate(-100.305 -48.064)"/>
    </g>
</svg>
