<svg xmlns="http://www.w3.org/2000/svg" width="25.394" height="23.616">
    <path data-name="Path 20705" d="m23.214 23.579-3.8-1.273a18.465 18.465 0 0 1-4.581.749h-.051a11.31 11.31 0 0 1-6.556-2.029.714.714 0 1 1 .822-1.168 10.029 10.029 0 0 0 5.737 1.769h.043a16.888 16.888 0 0 0 4.348-.747.713.713 0 0 1 .466 0l2.865.96-.545-2.824a.716.716 0 0 1 .159-.6 7.239 7.239 0 0 0 .69-8.741.714.714 0 1 1 1.209-.775 8.655 8.655 0 0 1-.589 10.168l.712 3.694a.714.714 0 0 1-.928.812zM1.525 19.364a.713.713 0 0 1-.234-.671l.7-3.7A8.717 8.717 0 0 1 0 9.472C0 4.249 4.754 0 10.6 0s10.6 4.249 10.6 9.472-4.754 9.471-10.6 9.471a18.474 18.474 0 0 1-4.584-.731L2.222 19.5a.713.713 0 0 1-.7-.137zm-.1-9.891a7.351 7.351 0 0 0 1.865 4.856.714.714 0 0 1 .162.6l-.532 2.827 2.86-.972a.717.717 0 0 1 .466 0 16.934 16.934 0 0 0 4.352.729c5.056 0 9.169-3.608 9.169-8.043S15.654 1.428 10.6 1.428 1.428 5.037 1.428 9.472zm8.936 2.805a.714.714 0 1 1 0-1.428h2.875a.714.714 0 0 1 0 1.428zm-5.471 0a.714.714 0 0 1 0-1.428h2.876a.714.714 0 0 1 0 1.428zm0-4a.714.714 0 1 1 0-1.428H16.3a.714.714 0 1 1 0 1.428z" style="fill:#6e6d71"/>
</svg>
