<?xml version="1.0" encoding="utf-8"?>
<!-- Generator: Adobe Illustrator 16.0.0, SVG Export Plug-In . SVG Version: 6.00 Build 0)  -->
<!DOCTYPE svg PUBLIC "-//W3C//DTD SVG 1.1//EN" "http://www.w3.org/Graphics/SVG/1.1/DTD/svg11.dtd">
<svg version="1.1" id="Layer_1" xmlns="http://www.w3.org/2000/svg" xmlns:xlink="http://www.w3.org/1999/xlink" x="0px" y="0px"
	 width="23.042px" height="10.125px" viewBox="1.403 6.528 23.042 10.125" enable-background="new 1.403 6.528 23.042 10.125"
	 xml:space="preserve">
<g>
	<path fill="none" stroke="#1E1D20" stroke-width="1.2" d="M11.363,7.386C8.882,7.512,6.47,8.251,4.345,9.538
		c-1.309,0.843-2.077,2.312-2.023,3.866c-0.124,0.777,0.404,1.508,1.181,1.632c0.077,0.013,0.156,0.019,0.234,0.018l3.678,0.097
		c0.63,0.019,1.175-0.437,1.269-1.06l0.09-2.187c0,0,4.656-1.312,8.55,0.347l-0.059,1.696c-0.095,0.823,0.496,1.566,1.319,1.66
		c0.068,0.008,0.138,0.012,0.206,0.01l3.681,0.092c0.684-0.118,1.199-0.688,1.249-1.381c0.128-1.896-0.767-3.715-2.347-4.771
		C21.373,9.558,19.037,7.158,11.363,7.386z"/>
</g>
</svg>
