<?xml version="1.0" encoding="utf-8"?>
<!-- Generator: Adobe Illustrator 16.0.0, SVG Export Plug-In . SVG Version: 6.00 Build 0)  -->
<!DOCTYPE svg PUBLIC "-//W3C//DTD SVG 1.1//EN" "http://www.w3.org/Graphics/SVG/1.1/DTD/svg11.dtd">
<svg version="1.1" id="Layer_1" xmlns="http://www.w3.org/2000/svg" xmlns:xlink="http://www.w3.org/1999/xlink" x="0px" y="0px"
	 width="23.042px" height="10.125px" viewBox="0 0 23.042 10.125" enable-background="new 0 0 23.042 10.125" xml:space="preserve">
<g>
	<path fill="#FFFFFF" stroke="#FFFFFF" stroke-width="1.2" d="M9.867,0.908C7.386,1.034,4.974,1.773,2.849,3.061
		C1.54,3.903,0.772,5.372,0.826,6.927C0.702,7.704,1.23,8.435,2.007,8.559c0.077,0.013,0.156,0.019,0.234,0.019l3.678,0.096
		c0.63,0.02,1.175-0.437,1.269-1.06l0.09-2.187c0,0,4.656-1.313,8.55,0.347L15.769,7.47c-0.096,0.822,0.496,1.566,1.318,1.66
		c0.068,0.008,0.139,0.012,0.207,0.01l3.681,0.092c0.684-0.118,1.198-0.688,1.249-1.381c0.128-1.896-0.768-3.715-2.348-4.771
		C19.876,3.081,17.541,0.681,9.867,0.908z"/>
</g>
</svg>
