<svg xmlns="http://www.w3.org/2000/svg" width="36" height="36" viewBox="0 0 36 36">
    <g data-name="Group 21393">
        <path data-name="Path 21405" d="M16807.311-293.014a1.793 1.793 0 0 1 0-2.391c5.973-6.566 11.619-7.276 13.764-7.276s7.793.71 13.766 7.276a1.784 1.784 0 0 1 0 2.391c-5.969 6.562-11.613 7.271-13.766 7.271s-7.796-.709-13.764-7.271zm1.229-1.272a.118.118 0 0 0 0 .152c1.438 1.576 6.574 6.722 12.523 6.722 5.91 0 11.092-5.155 12.535-6.735l.043-.042a.132.132 0 0 0-.029-.1c-1.437-1.576-6.588-6.726-12.537-6.726-5.907-.001-11.087 5.149-12.536 6.73zm12.621 5.5a5.4 5.4 0 0 1-3.816-1.568 5.425 5.425 0 0 1-1.605-3.8 5.415 5.415 0 0 1 1.539-3.841 5.37 5.37 0 0 1 3.793-1.635h.039a5.413 5.413 0 0 1 3.844 1.584 5.445 5.445 0 0 1 1.619 3.836 5.382 5.382 0 0 1-1.576 3.824 5.387 5.387 0 0 1-3.811 1.6zm-3.762-5.493a3.77 3.77 0 0 0 3.682 3.815l.193.008a3.811 3.811 0 0 0 3.639-3.752 3.772 3.772 0 0 0-3.723-3.769h-.039a3.77 3.77 0 0 0-3.751 3.696z" transform="translate(-16803.077 311.787)" style="fill:#bfdbff"/>
        <g data-name="Path 20643" style="fill:#bfdbff">
            <path d="M1.79 32.648A1.292 1.292 0 0 1 .5 31.39L4.598 1.86l.005-.034v-.034c0-.712.579-1.291 1.29-1.291.702 0 1.274.562 1.29 1.26L3.087 31.288l-.004.034v.034c0 .712-.58 1.291-1.291 1.291z" style="stroke:none" transform="rotate(27 7.953 46.769)"/>
            <path d="M5.893 1a.792.792 0 0 0-.79.79v.07L1.002 31.413a.792.792 0 0 0 1.58-.056v-.069l4.1-29.553A.792.792 0 0 0 5.893 1m0-1c.99 0 1.791.802 1.791 1.79L3.582 31.358a1.79 1.79 0 0 1-3.582 0L4.103 1.791C4.103.8 4.904 0 5.893 0z" style="fill:#0f1d50;stroke:none" transform="rotate(27 7.953 46.769)"/>
        </g>
    </g>
</svg>
