<svg xmlns="http://www.w3.org/2000/svg" width="55.099" height="45.158">
    <defs>
        <linearGradient id="a" x1=".5" x2=".5" y2="1" gradientUnits="objectBoundingBox">
            <stop offset="0" stop-color="#41872d"/>
            <stop offset="1" stop-color="#5fc535"/>
        </linearGradient>
    </defs>
    <path data-name="Path 21374" d="M74.548 38.35 47.917 25.494a1.274 1.274 0 0 0-.826 0L20.459 38.35a.861.861 0 0 0-.459.826.882.882 0 0 0 .551.826l9.918 4.775A17.984 17.984 0 0 0 29 52.033a18.55 18.55 0 0 0 37.1 0 17.676 17.676 0 0 0-1.469-7.255l5.418-2.663v11.2a.691.691 0 0 0-.459.643l-1.47 8.82a.989.989 0 0 0 .184.735 1.134 1.134 0 0 0 .735.367h3.949a.835.835 0 0 0 .735-.367.714.714 0 0 0 .184-.735l-1.561-8.724a1.171 1.171 0 0 0-.459-.643V41.289L74.548 40a1.055 1.055 0 0 0 .551-.826.8.8 0 0 0-.551-.824zM70.14 62.043l.826-5.234.826 5.234zm.551-22.223c-.092 0-.092.092-.184.092L47.549 51.023 23.03 39.177l24.519-11.938 24.52 11.846z" transform="translate(-20 -25.425)" style="fill:url(#a)"/>
</svg>
