<svg xmlns="http://www.w3.org/2000/svg" width="11.498" height="19.337" viewBox="0 0 11.498 19.337">
    <g data-name="Group 280">
        <path data-name="Path 20593" d="M31.517 27.8a5.709 5.709 0 0 1-5.748-5.655v-8.819a.3.3 0 0 1 .008-.07 1.389 1.389 0 0 1 2.172-.978v-1.1a.3.3 0 0 1 .011-.079 1.389 1.389 0 0 1 2.171-.967v-.378a.3.3 0 0 1 .01-.075 1.387 1.387 0 0 1 2.755 0 .3.3 0 0 1 .01.077v.382a1.39 1.39 0 0 1 2.172.974.3.3 0 0 1 .009.072v3.312a1.388 1.388 0 0 1 2.169.966.291.291 0 0 1 .012.083v6.6a5.71 5.71 0 0 1-5.751 5.655zm-5.155-14.43v8.77a5.157 5.157 0 0 0 10.311 0V15.6a.224.224 0 0 1-.005-.04.793.793 0 0 0-1.58 0V18.074a.3.3 0 1 1-.593 0v-2.532a.279.279 0 0 1 0-.037.282.282 0 0 1 0-.038v-4.265a.795.795 0 0 0-1.583 0V18.076a.3.3 0 0 1-.593 0v-8.27a.285.285 0 0 1 0-.032.793.793 0 0 0-1.581 0V18.077a.3.3 0 1 1-.593 0V11.203a.794.794 0 0 0-1.582 0 .292.292 0 0 1 0 .032v6.843a.3.3 0 1 1-.593 0v-4.731a.794.794 0 0 0-1.582 0c-.024.007-.025.015-.026.023z" transform="translate(-25.769 -8.458)" style="fill:#1e1d20"/>
    </g>
</svg>
