<svg xmlns="http://www.w3.org/2000/svg" width="177.04" height="62.1">
    <defs>
        <filter id="a" x="0" y="0" width="177.04" height="62.1" filterUnits="userSpaceOnUse">
            <feOffset dy="3"/>
            <feGaussianBlur result="blur"/>
            <feFlood flood-color="#872382"/>
            <feComposite operator="in" in2="blur"/>
            <feComposite in="SourceGraphic"/>
        </filter>
    </defs>
    <g style="filter:url(#a)">
        <path data-name="Path 21037" d="M414.266 179.219c2.013-9.716 4.713-24.274-.425-33.55-4.982-9-17.939-7.923-26.927-8.817-28.819-2.86-57.811-2.956-86.741-2.938-12.092.008-24.238.257-36.148 2.329-5.262.915-10.657 2.277-14.82 5.622-7.866 6.319-9.161 17.639-9.413 27.725-.1 4.14-.078 8.506 1.982 12.1 3.744 6.532 12.405 7.918 19.909 8.509a918.729 918.729 0 0 0 139.549.321c3.039-.225 6.275-.539 8.677-2.417 2.652-2.081 3.673-5.586 4.357-8.884z" transform="translate(-239.76 -133.91)" style="fill:#b23cac"/>
    </g>
</svg>
