<svg xmlns="http://www.w3.org/2000/svg" width="196.022" height="70.437" viewBox="0 0 196.022 70.437">
    <defs>
        <filter id="a" x="0" y="0" width="196.022" height="70.437" filterUnits="userSpaceOnUse">
            <feOffset dy="5"/>
            <feGaussianBlur result="blur"/>
            <feFlood flood-color="#86a401"/>
            <feComposite operator="in" in2="blur"/>
            <feComposite in="SourceGraphic"/>
        </filter>
    </defs>
    <g style="filter:url(#a)">
        <path data-name="Path 21037" d="M432.977 184.076c2.229-10.758 5.218-26.877-.471-37.147-5.516-9.963-19.863-8.772-29.814-9.762-31.909-3.167-64.009-3.273-96.041-3.253-13.388.009-26.837.284-40.024 2.579-5.826 1.013-11.8 2.522-16.409 6.225-8.709 7-10.144 19.53-10.422 30.7-.115 4.584-.086 9.418 2.195 13.394 4.145 7.232 13.735 8.767 22.043 9.421a1017.241 1017.241 0 0 0 154.511.356c3.365-.25 6.948-.6 9.607-2.677 2.937-2.302 4.067-6.184 4.825-9.836z" transform="translate(-239.76 -133.91)" style="fill:#d0ff00"/>
    </g>
</svg>
