<svg xmlns="http://www.w3.org/2000/svg" width="154.425" height="48.551">
    <defs>
        <filter id="a" x="0" y="0" width="154.425" height="48.551" filterUnits="userSpaceOnUse">
            <feOffset dy="3"/>
            <feGaussianBlur result="blur"/>
            <feFlood flood-color="#872382"/>
            <feComposite operator="in" in2="blur"/>
            <feComposite in="SourceGraphic"/>
        </filter>
    </defs>
    <g style="filter:url(#a)">
        <path data-name="Path 21037" d="M391.975 167.431c1.756-8.475 4.111-15.173-.371-23.264-4.346-7.849-15.648-6.911-23.488-7.691-25.137-2.495-50.426-2.579-75.661-2.563-10.547.007-21.142.224-31.531 2.032-4.59.8-9.3 1.987-12.927 4.9-6.861 5.512-7.991 9.386-8.21 18.184-.09 3.611-.068 7.419 1.729 10.552 3.266 5.7 10.821 6.906 17.365 7.422a801.369 801.369 0 0 0 121.723.28c2.651-.2 5.474-.47 7.569-2.109 2.315-1.808 3.205-4.866 3.802-7.743z" transform="translate(-239.76 -133.91)" style="fill:#b23cac"/>
    </g>
</svg>
