<?xml version="1.0" encoding="utf-8"?>
<!-- Generator: Adobe Illustrator 16.0.0, SVG Export Plug-In . SVG Version: 6.00 Build 0)  -->
<!DOCTYPE svg PUBLIC "-//W3C//DTD SVG 1.1//EN" "http://www.w3.org/Graphics/SVG/1.1/DTD/svg11.dtd">
<svg version="1.1" id="Layer_1" xmlns="http://www.w3.org/2000/svg" xmlns:xlink="http://www.w3.org/1999/xlink" x="0px" y="0px"
	 width="411.085px" height="274.521px" viewBox="0 0 411.085 274.521" enable-background="new 0 0 411.085 274.521"
	 xml:space="preserve">
<filter  height="345.375" width="411.085" id="a" y="0" x="0" filterUnits="userSpaceOnUse">
	<feOffset  dy="7"></feOffset>
	<feGaussianBlur  result="blur"></feGaussianBlur>
	<feFlood  flood-color="#91dc2e"></feFlood>
	<feComposite  in2="blur" operator="in"></feComposite>
	<feComposite  in="SourceGraphic" operator="over"></feComposite>
</filter>
<g filter="url(#a)">
	<path fill="#FFFFFF" d="M325.868,260.909c-11.699-0.33-31.86,0.662-43.562,0.332s-31.8-0.868-43.505-1.197
		c-11.705-0.331-31.738-2.347-43.438-2.677c-11.7-0.33-62.032,0.162-73.74-0.167c-11.708-0.33-31.884,0.983-43.592,0.653
		c-7.1-0.201-13.276-3.86-19.364-6.129c-6.312-2.354-34.681-3.746-39.34-7.832c-4.659-4.085-8.068-9.978-10.5-15.293
		c-2.347-5.127-1.722-11.284-1.477-17.098c0.424-10.095,3.266-10.016,3.691-20.11s-3.251-10.199-2.826-20.295
		c0.425-10.096,4.554-9.979,4.978-20.077c0.424-10.099-2.281-10.17-1.857-20.265c0.424-10.095,2.51-10.039,2.934-20.136
		c0.424-10.097-2.991-10.194-2.565-20.292c0.426-10.098,3.531-10.012,3.955-20.111c0.424-10.1-2.835-10.194-2.411-20.291
		c0.246-5.813,0.914-12.012,3.689-16.994c2.994-5.266,7.22-10.054,12.462-14.119c4.991-3.813,12.182-5.883,18.676-7.875
		c6.265-1.922,33.256-0.322,40.359-0.122c11.7,0.33,31.8,0.764,43.5,1.09c11.7,0.326,62.068-1.081,73.772-0.75
		c11.703,0.331,31.838-0.104,43.539,0.224c11.699,0.329,31.617,5.343,43.324,5.673c11.707,0.33,31.92-1.806,43.627-1.479
		c7.1,0.2,33.287,3.813,39.375,6.085c6.311,2.354,14.318,3.246,18.977,7.33c4.951,4.354,8.832,9.379,11.449,14.825
		c2.35,5.127-0.285,11.415-0.531,17.228c-0.424,10.095,1.992,10.164,1.568,20.259s-2.357,10.039-2.781,20.138
		c-0.426,10.098,2.645,10.184,2.219,20.28c-0.424,10.097-4.342,9.984-4.768,20.078c-0.426,10.093,4.084,10.225,3.66,20.323
		c-0.424,10.098-5.18,9.961-5.607,20.063c-0.426,10.101,2.543,10.183,2.117,20.282c-0.426,10.099-0.434,10.099-0.857,20.198
		c-0.246,5.813-4.176,10.799-6.947,15.778c-2.877,5.166-4.221,11.512-9.213,15.326c-4.992,3.813-12.045,6.167-18.539,8.16
		C360.047,263.854,332.967,261.109,325.868,260.909L325.868,260.909z"/>
</g>
</svg>
