<svg xmlns="http://www.w3.org/2000/svg" xmlns:xlink="http://www.w3.org/1999/xlink" width="74.843" height="75.149" viewBox="0 0 74.843 75.149">
  <defs>
    <style>
      .cls-1 {
        fill: none;
      }

      .cls-2 {
        fill: #a0411a;
      }

      .cls-3 {
        fill: #fff;
      }

      .cls-4 {
        clip-path: url(#clip-path);
      }

      .cls-5 {
        fill: #843217;
      }

      .cls-6 {
        fill: #ca501a;
      }

      .cls-7 {
        fill: #ffa700;
      }

      .cls-8 {
        clip-path: url(#clip-path-2);
      }

      .cls-9 {
        fill: #f8820b;
      }

      .cls-10 {
        fill: #ffce64;
      }

      .cls-11 {
        fill: #ffeac8;
      }

      .cls-12 {
        clip-path: url(#clip-path-3);
      }

      .cls-13 {
        fill: #f1cba2;
      }

      .cls-14 {
        fill: #3e1f0d;
      }

      .cls-15 {
        fill: #f7ab00;
      }

      .cls-16 {
        clip-path: url(#clip-path-4);
      }

      .cls-17 {
        fill: #f2770f;
      }

      .cls-18 {
        clip-path: url(#clip-path-5);
      }

      .cls-19 {
        fill: #f2b635;
      }

      .cls-20 {
        clip-path: url(#clip-path-6);
      }

      .cls-21 {
        clip-path: url(#clip-path-7);
      }

      .cls-22 {
        fill: #9e461a;
      }

      .cls-23 {
        clip-path: url(#clip-path-8);
      }

      .cls-24 {
        fill: #8b3718;
      }

      .cls-25 {
        fill: #0060ad;
      }

      .cls-26 {
        fill: #3d3d3d;
      }

      .cls-27 {
        clip-path: url(#clip-path-9);
      }

      .cls-28 {
        fill: #545454;
      }
    </style>
    <clipPath id="clip-path">
      <path id="Path_20874" data-name="Path 20874" class="cls-1" d="M-1232.468,142.553s.728-1.941,5.094-2.377a63.239,63.239,0,0,0,7.763-1.261s-1.359,1.941-2.377,2.135c0,0,7.035.194,11.353,4.657l-4.027-.485s8.49,3.057,10.285,10.237,3.687,11.159,5.288,12.663c0,0-1.65.728-4.561-2.28,0,0,2.571,4.657,2.474,8.2s-2.038,5.87-1.455,12.08a4.244,4.244,0,0,1-1.941-3.008s.194,14.312-17.417,18.921c0,0,2.717-4.172,2.765-7.035,0,0-2.717,2.668-4.124,3.008,0,0,.049-2.377-.97-2.862,0,0-1.5,4.706-6.016,6.21a14.635,14.635,0,0,0,1.164-6.4s-3.008,7.811-6.259,9.315c0,0-4.318-1.067-6.21-10.528a6.046,6.046,0,0,0-.776,3.639s-3.59-3.493-3.784-4.657c0,0,1.067,7.083,4.561,9.072,0,0-11.4-2.086-15.089-8.733s-2.62-9.509-2.62-9.509-2.038,2.814-3.3,3.057c0,0,.922-5.531,0-8.733s-.34-9.9,1.892-11.6a11.062,11.062,0,0,1-4.706,2.086,34.842,34.842,0,0,0,6.259-14.652c1.358-8.49,12.08-8.587,12.08-8.587s-4.9-.679-6.841.922a16.094,16.094,0,0,1,11.692-4.851s-2.62-1.213-2.62-2.28a20.56,20.56,0,0,0,8.393,1.31S-1232.468,139.739-1232.468,142.553Z" transform="translate(1265.459 -138.914)"/>
    </clipPath>
    <clipPath id="clip-path-2">
      <path id="Path_20899" data-name="Path 20899" class="cls-1" d="M-1149.844,243.8s1.589-5.458,9.594-5.021l-1.819,1.747s6.622-.655,8.3,3.639,2.62,11.207,6.477,12.226c0,0-2.838,1.237-4.075,0,0,0,3.784,4,2.911,12.954l-.946-3.42s-1.213,11.789-20.437,12.153-19.807-12.153-19.807-12.153a4.816,4.816,0,0,0-.8,3.566s-2.911-3.42,2.4-13.754a4.728,4.728,0,0,1-3.857.873,12.467,12.467,0,0,0,4.512-8.223c.437-5.167,5.676-8.951,9.533-8.151,0,0-1.237-1.505-1.674-1.48C-1159.535,238.75-1150.7,238.629-1149.844,243.8Z" transform="translate(1171.906 -238.749)"/>
    </clipPath>
    <clipPath id="clip-path-3">
      <path id="Path_20908" data-name="Path 20908" class="cls-1" d="M-1101.065,413.163s6.076-6.638,16.992-.182c0,0,5.931.036,5.968,5.895s-7.892,8.005-7.892,8.005-3.339,3.129-6.857,2.693a12.5,12.5,0,0,1-6.174-2.874s-7.787-1.274-8.078-8.151C-1107.1,418.548-1107.505,413.345-1101.065,413.163Z" transform="translate(1107.11 -410.158)"/>
    </clipPath>
    <clipPath id="clip-path-4">
      <path id="Path_20924" data-name="Path 20924" class="cls-1" d="M-838.894,204.669s3.275-6.43,10.152-4.98,4.439,9.746,4.439,9.746a7.351,7.351,0,0,1-7.086,5.2s-1.538-3.275-3.284-3.748c0,0,2.785.655,3.284,1.637a9.129,9.129,0,0,0-3.976-4.949,2.18,2.18,0,0,1,2.292-.146S-836.019,204.887-838.894,204.669Z" transform="translate(838.894 -199.476)"/>
    </clipPath>
    <clipPath id="clip-path-5">
      <path id="Path_20923" data-name="Path 20923" class="cls-1" d="M-816.908,237.927s3.966-3.566,6.477-2.8,2.11,3.893,2,4.8-2.766,5.349-6.841,3.166l-2.183-.982-.437-3.6Z" transform="translate(817.89 -235.018)"/>
    </clipPath>
    <clipPath id="clip-path-6">
      <path id="Path_20934" data-name="Path 20934" class="cls-1" d="M-1246.288,207.965a8.418,8.418,0,0,0-8.781-5.143c-6.792.485-6.5,7.617-6.161,9.266s3.836,5.87,7.4,5.725a5.873,5.873,0,0,1,2.448-3.348,11.088,11.088,0,0,0-2.448,1.154,10.364,10.364,0,0,1,4.1-5.084h-2.183S-1249.322,207.92-1246.288,207.965Z" transform="translate(1261.374 -202.793)"/>
    </clipPath>
    <clipPath id="clip-path-7">
      <path id="Path_20933" data-name="Path 20933" class="cls-1" d="M-1229.567,240.874c.146-.12-2.939-4.341-7.024-2.546s.378,9.2,5.132,8.189l2.814-1.93a10.068,10.068,0,0,1-.243-1.455A20.936,20.936,0,0,0-1229.567,240.874Z" transform="translate(1238.194 -237.884)"/>
    </clipPath>
    <clipPath id="clip-path-8">
      <path id="Path_20947" data-name="Path 20947" class="cls-1" d="M-1022.758,401.942s-1.286-1.691,1.431-2.677,7.193-.679,7.2,1.338-1.5,3.74-4.118,3.983S-1022.758,401.942-1022.758,401.942Z" transform="translate(1023.062 -398.723)"/>
    </clipPath>
    <clipPath id="clip-path-9">
      <rect id="Rectangle_66" data-name="Rectangle 66" class="cls-1" width="42.682" height="23.192" rx="11.596"/>
    </clipPath>
  </defs>
  <g id="Group_6394" data-name="Group 6394" transform="translate(1316.344 -118.831)">
    <g id="Group_6358" data-name="Group 6358" transform="translate(-1312.654 118.831)">
      <g id="Group_6291" data-name="Group 6291" transform="translate(0 0)">
        <g id="Group_6281" data-name="Group 6281">
          <path id="Path_20858" data-name="Path 20858" class="cls-2" d="M-1232.468,142.553s.728-1.941,5.094-2.377a63.239,63.239,0,0,0,7.763-1.261s-1.359,1.941-2.377,2.135c0,0,7.035.194,11.353,4.657l-4.027-.485s8.49,3.057,10.285,10.237,3.687,11.159,5.288,12.663c0,0-1.65.728-4.561-2.28,0,0,2.571,4.657,2.474,8.2s-2.038,5.87-1.455,12.08a4.244,4.244,0,0,1-1.941-3.008s.194,14.312-17.417,18.921c0,0,2.717-4.172,2.765-7.035,0,0-2.717,2.668-4.124,3.008,0,0,.049-2.377-.97-2.862,0,0-1.5,4.706-6.016,6.21a14.635,14.635,0,0,0,1.164-6.4s-3.008,7.811-6.259,9.315c0,0-4.318-1.067-6.21-10.528a6.046,6.046,0,0,0-.776,3.639s-3.59-3.493-3.784-4.657c0,0,1.067,7.083,4.561,9.072,0,0-11.4-2.086-15.089-8.733s-2.62-9.509-2.62-9.509-2.038,2.814-3.3,3.057c0,0,.922-5.531,0-8.733s-.34-9.9,1.892-11.6a11.062,11.062,0,0,1-4.706,2.086,34.842,34.842,0,0,0,6.259-14.652c1.358-8.49,12.08-8.587,12.08-8.587s-4.9-.679-6.841.922a16.094,16.094,0,0,1,11.692-4.851s-2.62-1.213-2.62-2.28a20.56,20.56,0,0,0,8.393,1.31S-1232.468,139.739-1232.468,142.553Z" transform="translate(1267.852 -136.513)"/>
          <path id="Path_20859" data-name="Path 20859" class="cls-3" d="M-1237.235,121.232h0m0,0s-1.359,1.941-2.377,2.135c0,0,7.035.194,11.353,4.657l-4.027-.485s8.49,3.057,10.285,10.237,3.687,11.159,5.288,12.663a1.382,1.382,0,0,1-.513.077c-.7,0-2.086-.33-4.048-2.358,0,0,2.571,4.657,2.474,8.2s-2.037,5.87-1.455,12.08a4.243,4.243,0,0,1-1.941-3.008s.194,14.312-17.417,18.921c0,0,2.717-4.172,2.765-7.035,0,0-2.717,2.668-4.124,3.008,0,0,.049-2.377-.97-2.862,0,0-1.5,4.706-6.016,6.21a14.635,14.635,0,0,0,1.164-6.4s-3.008,7.811-6.259,9.315c0,0-4.318-1.067-6.21-10.528a6.047,6.047,0,0,0-.776,3.639s-3.59-3.493-3.784-4.657c0,0,1.067,7.083,4.561,9.072,0,0-11.4-2.086-15.088-8.733s-2.62-9.509-2.62-9.509-2.038,2.814-3.3,3.057c0,0,.922-5.531,0-8.733s-.344-9.844,1.865-11.575l.027-.02-.027.02a10.979,10.979,0,0,1-4.679,2.066,34.843,34.843,0,0,0,6.258-14.652c1.358-8.49,12.08-8.587,12.08-8.587a18.97,18.97,0,0,0-2.337-.143c-1.538,0-3.454.2-4.5,1.065a16.1,16.1,0,0,1,11.692-4.851s-2.62-1.213-2.62-2.28a20.079,20.079,0,0,0,7.665,1.32c.238,0,.481,0,.728-.01a6.089,6.089,0,0,1,.658-.032c1.142,0,3.368.268,3.368,2.361,0,0,.728-1.941,5.094-2.377a63.245,63.245,0,0,0,7.763-1.261m-25.289-2.4a2.389,2.389,0,0,0-1.283.376,2.388,2.388,0,0,0-1.1,2.024,3.119,3.119,0,0,0,.048.547,17.864,17.864,0,0,0-8.553,5.038,2.385,2.385,0,0,0-.468.863,12.453,12.453,0,0,0-2.183,1.74,11.142,11.142,0,0,0-3.126,6.232,32.748,32.748,0,0,1-5.772,13.545,2.388,2.388,0,0,0-.215,2.652,2.391,2.391,0,0,0,2.087,1.224,2.415,2.415,0,0,0,.276-.016q-.039.246-.07.483a19.383,19.383,0,0,0,.312,7.313c.63,2.189.17,6.286-.061,7.68a2.392,2.392,0,0,0,.69,2.1,2.393,2.393,0,0,0,1.669.679,2.392,2.392,0,0,0,.451-.043,3.863,3.863,0,0,0,.952-.32,27.985,27.985,0,0,0,2.425,5.585c1.8,3.245,5.2,5.907,10.113,7.912a37.023,37.023,0,0,0,6.635,2.012,2.39,2.39,0,0,0,.432.039,2.392,2.392,0,0,0,1.565-.585q.233.29.478.559a7.633,7.633,0,0,0,3.592,2.43,2.394,2.394,0,0,0,.574.07,2.39,2.39,0,0,0,1-.221,9.228,9.228,0,0,0,3.263-2.83,2.409,2.409,0,0,0,.816.142,2.426,2.426,0,0,0,.767-.125,11.358,11.358,0,0,0,5.085-3.507,2.363,2.363,0,0,0,.728.25c-.078.129-.155.251-.229.366a2.392,2.392,0,0,0,.068,2.7,2.392,2.392,0,0,0,1.938.991,2.381,2.381,0,0,0,.6-.078,29.089,29.089,0,0,0,11.05-5.355,22.138,22.138,0,0,0,5.78-7.046,21.817,21.817,0,0,0,1.437-3.483,2.393,2.393,0,0,0,.485.05,2.389,2.389,0,0,0,1.286-.375,2.391,2.391,0,0,0,1.094-2.238,19.175,19.175,0,0,1,.721-7.472,18.679,18.679,0,0,0,.744-4.32,13.358,13.358,0,0,0-.443-3.532,3.493,3.493,0,0,0,1.1-.265,2.39,2.39,0,0,0,1.392-1.784,2.391,2.391,0,0,0-.72-2.146c-.531-.5-2.431-2.8-4.606-11.5a16.1,16.1,0,0,0-6.218-8.79,2.391,2.391,0,0,0-.642-2.044,18.055,18.055,0,0,0-8.354-4.636,2.4,2.4,0,0,0,.051-.493,2.39,2.39,0,0,0-2.234-2.386q-.078-.005-.156-.005t-.174.006a2.388,2.388,0,0,0-.431.071,62.059,62.059,0,0,1-7.4,1.2,12.092,12.092,0,0,0-4.248,1.13,4.988,4.988,0,0,0-.847-.5,7.327,7.327,0,0,0-3.129-.623c-.359,0-.647.02-.809.035-.193,0-.387.007-.577.007a18.322,18.322,0,0,1-6.683-1.109,2.352,2.352,0,0,0-.994-.221Z" transform="translate(1285.475 -118.831)"/>
        </g>
        <g id="Group_6290" data-name="Group 6290" transform="translate(2.393 2.401)">
          <g id="Group_6289" data-name="Group 6289" class="cls-4">
            <g id="Group_6282" data-name="Group 6282" transform="translate(-8.892 6.921)">
              <path id="Path_20860" data-name="Path 20860" class="cls-5" d="M-1312.034,243.5s2.01,4.075,3.552,4.124,5.666-6.356,6.321-9.024c0,0-2.45.388-3.226-.485,0,0,4.464-2.6,6.113-9.958s6.646-9.06,6.646-9.06-4.948-1.261-5-1.747a50.233,50.233,0,0,0,7.271-.388c1.8-.437,8.884.049,9.927,3.59a11.331,11.331,0,0,1,8.951-3.725c5.725.28,7.277.959,8.345.523A22.131,22.131,0,0,1-1267.3,219s5.676,2.717,6.453,8.878,4.318,9.509,6.016,10.043c0,0-1.892,1.438-2.911,1.18,0,0,4.631,13.21,8.968,5.89q.052-.088.1-.181c4.366-7.714,1.7,25.768,1.7,25.768l-36.6,6.883-23.608-6.4s-12.663-18.048-12.663-18.776S-1312.034,243.5-1312.034,243.5Z" transform="translate(1322.236 -214.425)"/>
              <path id="Path_20861" data-name="Path 20861" class="cls-3" d="M-1289.655,199.206c.188,0,.378,0,.572.014,4.395.215,6.331.665,7.476.665a2.237,2.237,0,0,0,.869-.143,22.132,22.132,0,0,1-4.172,1.649s5.676,2.717,6.453,8.878,4.318,9.509,6.016,10.043a6.144,6.144,0,0,1-2.643,1.211,1.09,1.09,0,0,1-.268-.031s2.84,8.1,6.154,8.1c.918,0,1.873-.622,2.814-2.21q.052-.088.1-.181c.451-.8.827-1.154,1.139-1.154,2.705,0,.559,26.922.559,26.922l-36.6,6.883-23.608-6.4s-12.662-18.048-12.662-18.776,7.811-8.781,7.811-8.781,2.01,4.075,3.552,4.124h.018c1.555,0,5.651-6.366,6.3-9.024a8.557,8.557,0,0,1-1.2.086,2.863,2.863,0,0,1-2.028-.571s4.464-2.6,6.113-9.958,6.646-9.06,6.646-9.06-4.949-1.261-5-1.747l.487,0a43.882,43.882,0,0,0,6.784-.39,7.184,7.184,0,0,1,1.557-.134c2.759,0,7.53.868,8.371,3.725a11.333,11.333,0,0,1,8.38-3.739m8.916.537h0m-8.917-2.927a13.641,13.641,0,0,0-8,2.605,9.583,9.583,0,0,0-3.052-1.666,18.182,18.182,0,0,0-5.694-.925,9.271,9.271,0,0,0-2.12.2,40.006,40.006,0,0,1-6.221.322l-.466,0h-.021a2.39,2.39,0,0,0-1.766.779,2.391,2.391,0,0,0-.613,1.85,3.048,3.048,0,0,0,2.173,2.412,16.684,16.684,0,0,0-3.776,7.635c-1.383,6.171-4.946,8.393-4.982,8.414a2.39,2.39,0,0,0-1.159,1.689,2.391,2.391,0,0,0,.574,1.966,3.725,3.725,0,0,0,1.489,1c-.26.468-.559.972-.895,1.5a19.571,19.571,0,0,1-1.885,2.544,14.946,14.946,0,0,1-1.426-2.3,2.391,2.391,0,0,0-1.773-1.3,2.388,2.388,0,0,0-.371-.029,2.39,2.39,0,0,0-1.716.726c-.02.02-1.994,2.057-3.942,4.156-1.156,1.246-2.081,2.275-2.75,3.058-1.247,1.46-1.793,2.207-1.793,3.232a4.224,4.224,0,0,0,.9,2.268c.342.556.839,1.327,1.477,2.292,1.058,1.6,2.531,3.771,4.377,6.456,3.136,4.559,6.312,9.088,6.344,9.133a2.391,2.391,0,0,0,1.331.934l23.609,6.4a2.394,2.394,0,0,0,.626.083,2.4,2.4,0,0,0,.442-.041l36.6-6.883a2.39,2.39,0,0,0,1.941-2.16c.005-.062.493-6.232.71-12.607.129-3.776.138-6.9.029-9.275-.2-4.342-.772-5.809-1.571-6.674a2.856,2.856,0,0,0-2.111-.947c-1.879,0-2.888,1.782-3.219,2.367q-.04.071-.081.14a3.494,3.494,0,0,1-.787,1c-.264-.145-1.114-.757-2.341-3.043-.21-.392-.4-.782-.577-1.15a11.885,11.885,0,0,0,1.151-.757,2.391,2.391,0,0,0,.909-2.314,2.391,2.391,0,0,0-1.638-1.87,5.966,5.966,0,0,1-2.15-2.055,13.161,13.161,0,0,1-2.211-6.006,13.5,13.5,0,0,0-3.956-7.9c.176-.087.3-.153.375-.19a2.386,2.386,0,0,0,.327-.2,2.376,2.376,0,0,0,.57-.582,2.377,2.377,0,0,0,.42-1.236,2.375,2.375,0,0,0-.014-.405,2.377,2.377,0,0,0-.491-1.19,2.377,2.377,0,0,0-.392-.4,2.38,2.38,0,0,0-1.2-.5,2.4,2.4,0,0,0-.291-.018,2.379,2.379,0,0,0-.43.039,2.371,2.371,0,0,0-.382.1h-.056c-.309,0-.857-.067-1.552-.152-1.223-.15-3.07-.376-5.807-.51-.229-.011-.46-.017-.688-.017Z" transform="translate(1339.844 -196.815)"/>
            </g>
            <g id="Group_6283" data-name="Group 6283" transform="translate(51.983 14.894)">
              <path id="Path_20862" data-name="Path 20862" class="cls-5" d="M-800.87,287.173s-7.239-1.81-9.715-3.662l.291,5.336s3.784.728,5.24,2.11,4.148,5.24,7.787,4.876Z" transform="translate(812.976 -281.12)"/>
              <path id="Path_20863" data-name="Path 20863" class="cls-3" d="M-828.194,265.9c2.476,1.852,9.715,3.662,9.715,3.662l3.6,8.66a4.807,4.807,0,0,1-.482.024c-3.394,0-5.914-3.579-7.3-4.9-1.455-1.383-5.24-2.11-5.24-2.11l-.291-5.336m0-2.391a2.388,2.388,0,0,0-1.128.283,2.391,2.391,0,0,0-1.259,2.238l.291,5.336a2.391,2.391,0,0,0,1.936,2.217,11.325,11.325,0,0,1,4.044,1.5c.2.189.479.493.774.815,1.631,1.774,4.362,4.743,8.177,4.743.239,0,.482-.012.72-.036a2.39,2.39,0,0,0,1.814-1.153,2.39,2.39,0,0,0,.155-2.144l-3.6-8.66a2.391,2.391,0,0,0-1.628-1.4c-2.62-.656-7.343-2.12-8.863-3.257a2.389,2.389,0,0,0-1.432-.476Z" transform="translate(830.585 -263.511)"/>
            </g>
            <g id="Group_6284" data-name="Group 6284" transform="translate(44.815 3.118)">
              <path id="Path_20864" data-name="Path 20864" class="cls-5" d="M-865.845,191.617s-.2-2.6.643-3.59c0,0-2.923-2.911-5.349-3.008,0,0,5.822-.243,8.83.873l.582,2.415Z" transform="translate(872.942 -182.606)"/>
              <path id="Path_20865" data-name="Path 20865" class="cls-3" d="M-886.8,167.387a25.264,25.264,0,0,1,7.466.9l.582,2.415-4.706,3.31s-.2-2.6.643-3.59c0,0-2.923-2.911-5.349-3.008,0,0,.535-.022,1.364-.022m0-2.391v0c-.869,0-1.439.023-1.463.024a2.391,2.391,0,0,0-2.291,2.391,2.391,2.391,0,0,0,2.3,2.387,6,6,0,0,1,2.6,1.323,9.607,9.607,0,0,0-.175,1.29,13.144,13.144,0,0,0-.006,1.775,2.391,2.391,0,0,0,1.363,1.982,2.387,2.387,0,0,0,1.021.229,2.39,2.39,0,0,0,1.376-.435l4.706-3.31a2.391,2.391,0,0,0,.949-2.516l-.582-2.415a2.391,2.391,0,0,0-1.493-1.681A26.705,26.705,0,0,0-886.8,165Z" transform="translate(890.551 -164.996)"/>
            </g>
            <g id="Group_6285" data-name="Group 6285" transform="translate(34.432 -3.604)">
              <path id="Path_20866" data-name="Path 20866" class="cls-5" d="M-957.406,133.424a7.681,7.681,0,0,1,2.911-1.164c1.5-.194,3.639-.049,4.512-2.717l2.717-.776-.485,2.329-1.564,1.154A21.616,21.616,0,0,0-957.406,133.424Z" transform="translate(959.797 -126.376)"/>
              <path id="Path_20867" data-name="Path 20867" class="cls-3" d="M-964.878,111.158h0m0,0-.485,2.329-1.564,1.154s-.342-.022-.915-.022a20.714,20.714,0,0,0-7.175,1.2,7.68,7.68,0,0,1,2.911-1.164c1.5-.194,3.639-.049,4.512-2.717l2.717-.776m0-2.391q-.059,0-.119,0a2.378,2.378,0,0,0-.591.1l-2.664.761a2.391,2.391,0,0,0-1.615,1.555c-.256.782-.434.878-1.9,1.02-.208.02-.423.041-.641.069a10.03,10.03,0,0,0-3.962,1.567,2.391,2.391,0,0,0-.752,3.093,2.392,2.392,0,0,0,2.11,1.266,2.383,2.383,0,0,0,.877-.167,18.6,18.6,0,0,1,6.3-1.029c.476,0,.764.017.767.017q.076,0,.152,0a2.381,2.381,0,0,0,1.416-.468l1.564-1.154a2.39,2.39,0,0,0,.921-1.436l.472-2.267a2.392,2.392,0,0,0,.063-.549,2.391,2.391,0,0,0-2.318-2.39Zm0,4.781h0Z" transform="translate(977.409 -108.767)"/>
            </g>
            <g id="Group_6286" data-name="Group 6286" transform="translate(17.404 -3.604)">
              <path id="Path_20868" data-name="Path 20868" class="cls-5" d="M-1091.666,133.182a4.31,4.31,0,0,0-2.439-1.067c-1.588-.194-2.947-.922-2.849-2.135l-2.911-1.213V131.1s3.153,1.552,4.1,1.552A15,15,0,0,1-1091.666,133.182Z" transform="translate(1102.256 -126.376)"/>
              <path id="Path_20869" data-name="Path 20869" class="cls-3" d="M-1117.474,111.158l2.911,1.213c-.1,1.213,1.261,1.941,2.85,2.135a4.31,4.31,0,0,1,2.439,1.067,15,15,0,0,0-4.1-.534c-.946,0-4.1-1.552-4.1-1.552v-2.329m0-2.391a2.39,2.39,0,0,0-1.326.4,2.391,2.391,0,0,0-1.065,1.989v2.329a2.391,2.391,0,0,0,1.335,2.145c.035.017.856.421,1.81.829a8.557,8.557,0,0,0,3.345.969,12.64,12.64,0,0,1,3.476.451,2.386,2.386,0,0,0,.624.083,2.391,2.391,0,0,0,2.061-1.18,2.391,2.391,0,0,0-.348-2.879,6.633,6.633,0,0,0-3.861-1.772,3.327,3.327,0,0,1-.786-.184,2.391,2.391,0,0,0-1.434-1.785l-2.911-1.213a2.389,2.389,0,0,0-.919-.184Z" transform="translate(1119.865 -108.767)"/>
            </g>
            <g id="Group_6287" data-name="Group 6287" transform="translate(-4.428 15.1)">
              <path id="Path_20870" data-name="Path 20870" class="cls-5" d="M-1278.478,288.4s7.665-1.07,9.9-3.165l.243,4.487s-7.471,3.905-9.849,7.653-4.318,1.426-4.318,1.426l.873-4.616Z" transform="translate(1284.896 -282.845)"/>
              <path id="Path_20871" data-name="Path 20871" class="cls-3" d="M-1286.19,267.627l.243,4.487s-7.471,3.905-9.849,7.653c-1.062,1.674-2.036,2.137-2.79,2.137a2.16,2.16,0,0,1-1.528-.711l.873-4.616,3.154-5.786s7.665-1.07,9.9-3.165m0-2.391a2.389,2.389,0,0,0-1.636.647c-.156.146-1.116.92-4.71,1.787-2.058.5-3.864.751-3.882.753a2.391,2.391,0,0,0-1.769,1.224l-3.153,5.786a2.388,2.388,0,0,0-.25.7l-.873,4.616a2.391,2.391,0,0,0,.514,1.977,4.533,4.533,0,0,0,3.363,1.569,4.589,4.589,0,0,0,2.638-.864,8.044,8.044,0,0,0,2.171-2.383c1.66-2.617,7.146-5.879,8.937-6.815a2.39,2.39,0,0,0,1.28-2.248l-.243-4.487a2.391,2.391,0,0,0-1.5-2.09,2.389,2.389,0,0,0-.89-.172Z" transform="translate(1302.505 -265.236)"/>
            </g>
            <g id="Group_6288" data-name="Group 6288" transform="translate(7.021 4.013)">
              <path id="Path_20872" data-name="Path 20872" class="cls-5" d="M-1181.821,197.768l.573-.2s-2.179-4.753-.287-5.084l-3.974,1.232-1.213.854Z" transform="translate(1189.112 -190.097)"/>
              <path id="Path_20873" data-name="Path 20873" class="cls-3" d="M-1199.143,174.876l-.238.074a.925.925,0,0,1,.238-.074m-.238.074c-1.456.688.524,5.01.524,5.01l-.573.2-4.9-3.194,1.213-.854,3.736-1.158m.24-2.465a2.4,2.4,0,0,0-.413.036,3.359,3.359,0,0,0-.642.179l-3.628,1.125a2.39,2.39,0,0,0-.669.329l-1.213.854a2.391,2.391,0,0,0-1.013,2,2.391,2.391,0,0,0,1.085,1.96l4.9,3.194a2.391,2.391,0,0,0,1.305.388,2.391,2.391,0,0,0,.773-.128l.573-.2a2.391,2.391,0,0,0,1.424-1.318,2.391,2.391,0,0,0-.023-1.94,12.11,12.11,0,0,1-.792-2.375,2.39,2.39,0,0,0,.656-2.274,2.392,2.392,0,0,0-2.322-1.83Z" transform="translate(1206.72 -172.485)"/>
            </g>
          </g>
        </g>
      </g>
      <g id="Group_6292" data-name="Group 6292" transform="translate(33.247 5.066)">
        <path id="Path_20875" data-name="Path 20875" class="cls-6" d="M-987.339,186s1.88-5.2,7.12-4.767,3.6,3.893,2.11,2.8S-985.144,182.837-987.339,186Z" transform="translate(989.73 -178.82)"/>
        <path id="Path_20876" data-name="Path 20876" class="cls-3" d="M-998.448,163.6q.3,0,.617.026c4.531.378,3.919,3.014,2.706,3.014a1.007,1.007,0,0,1-.6-.212,5.748,5.748,0,0,0-3.089-.693c-2.164,0-4.788.707-6.141,2.658,0,0,1.732-4.793,6.5-4.793m0-2.391a8.836,8.836,0,0,0-6.854,3.229,10.965,10.965,0,0,0-1.9,3.142,2.391,2.391,0,0,0,1.152,2.937,2.383,2.383,0,0,0,1.1.267,2.39,2.39,0,0,0,1.966-1.029c.834-1.2,2.771-1.63,4.176-1.63a4.643,4.643,0,0,1,1.71.256,3.382,3.382,0,0,0,1.974.649,3.3,3.3,0,0,0,3.264-3.2,3.877,3.877,0,0,0-1.738-3.308,8.02,8.02,0,0,0-4.034-1.276c-.273-.023-.547-.034-.815-.034Z" transform="translate(1007.342 -161.211)"/>
      </g>
      <g id="Group_6293" data-name="Group 6293" transform="translate(18.643 4.47)">
        <path id="Path_20877" data-name="Path 20877" class="cls-6" d="M-1095.687,181.867a9.5,9.5,0,0,0-8.405-5.64c-6.259-.182-8.058,6.818-.218,2.989C-1101.618,177.9-1095.687,181.867-1095.687,181.867Z" transform="translate(1111.907 -173.833)"/>
        <path id="Path_20878" data-name="Path 20878" class="cls-3" d="M-1121.943,158.615c.079,0,.159,0,.24,0a9.5,9.5,0,0,1,8.405,5.64s-4.364-2.918-7.3-2.918a2.992,2.992,0,0,0-1.319.267,9.273,9.273,0,0,1-3.776,1.147c-3.031,0-.987-4.14,3.755-4.14m0-2.391h0a9.052,9.052,0,0,0-5.168,1.535,5.04,5.04,0,0,0-2.406,3.978,3.282,3.282,0,0,0,1.278,2.621,4.056,4.056,0,0,0,2.542.787,11.52,11.52,0,0,0,4.818-1.386.981.981,0,0,1,.277-.028c1.517,0,4.409,1.471,5.978,2.516a2.389,2.389,0,0,0,1.326.4,2.388,2.388,0,0,0,1.5-.53,2.39,2.39,0,0,0,.724-2.735,11.873,11.873,0,0,0-2.348-3.524,11.56,11.56,0,0,0-8.213-3.631c-.1,0-.206,0-.309,0Z" transform="translate(1129.517 -156.224)"/>
      </g>
      <g id="Group_6294" data-name="Group 6294" transform="translate(59.906 26.669)">
        <path id="Path_20879" data-name="Path 20879" class="cls-6" d="M-764.316,361.937s1.637,8.842,1.455,12.19C-762.86,374.127-759.113,370.524-764.316,361.937Z" transform="translate(766.707 -359.546)"/>
        <path id="Path_20880" data-name="Path 20880" class="cls-3" d="M-781.927,344.326c5.2,8.587,1.455,12.19,1.455,12.19.182-3.348-1.455-12.19-1.455-12.19m0-2.391a2.385,2.385,0,0,0-.85.157,2.391,2.391,0,0,0-1.5,2.669c.441,2.382,1.556,9.115,1.419,11.625a2.391,2.391,0,0,0,1.391,2.3,2.386,2.386,0,0,0,1,.217,2.39,2.39,0,0,0,1.657-.667,7.434,7.434,0,0,0,1.933-4.255c.462-3.183-.547-6.849-3-10.9a2.391,2.391,0,0,0-2.045-1.152Z" transform="translate(784.318 -341.935)"/>
      </g>
      <g id="Group_6295" data-name="Group 6295" transform="translate(3.562 27.251)">
        <path id="Path_20881" data-name="Path 20881" class="cls-6" d="M-1234.076,378.887s-.619-9.388,1.019-12.08C-1233.057,366.807-1238.151,374.266-1234.076,378.887Z" transform="translate(1238.05 -364.416)"/>
        <path id="Path_20882" data-name="Path 20882" class="cls-3" d="M-1250.685,349.2h0m0,0c-1.637,2.693-1.019,12.08-1.019,12.08-4.075-4.621,1.019-12.08,1.019-12.08m0-2.391q-.089,0-.177.007a2.373,2.373,0,0,0-.965.283,2.375,2.375,0,0,0-.733.617c-.047.06-.092.122-.133.186a20.68,20.68,0,0,0-2.312,4.893c-1.263,4.036-.741,7.518,1.508,10.068a2.391,2.391,0,0,0,1.794.809,2.389,2.389,0,0,0,.918-.183,2.391,2.391,0,0,0,1.467-2.365c0-.022-.148-2.305-.1-4.86.084-4.387.658-5.612.765-5.8a2.373,2.373,0,0,0,.344-.989,2.4,2.4,0,0,0,.015-.266v0a2.381,2.381,0,0,0-.417-1.35,2.38,2.38,0,0,0-.374-.427,2.383,2.383,0,0,0-1.139-.569,2.385,2.385,0,0,0-.459-.045Zm0,4.782h0Z" transform="translate(1255.677 -346.805)"/>
      </g>
      <g id="Group_6296" data-name="Group 6296" transform="translate(19.736 50.953)">
        <path id="Path_20883" data-name="Path 20883" class="cls-6" d="M-1100.3,565.09a2.8,2.8,0,0,1,.572.465,4.123,4.123,0,0,1,.45.541,5.64,5.64,0,0,1,.574,1.264c.177.429.339.864.484,1.3s.27.89.362,1.345l-.081.029c-.219-.406-.435-.807-.672-1.2l-.7-1.17a7.318,7.318,0,0,1-.713-1.161,4.366,4.366,0,0,1-.346-1.375Z" transform="translate(1102.765 -562.699)"/>
        <path id="Path_20884" data-name="Path 20884" class="cls-3" d="M-1117.91,547.481a2.8,2.8,0,0,1,.572.465,4.132,4.132,0,0,1,.45.541,5.645,5.645,0,0,1,.574,1.264c.177.429.339.864.484,1.3s.27.89.362,1.345l-.08.029c-.219-.406-.435-.807-.672-1.2l-.7-1.171a7.314,7.314,0,0,1-.713-1.161,4.371,4.371,0,0,1-.346-1.375l.073-.044m0-2.391a2.388,2.388,0,0,0-1.242.348l-.073.044a2.391,2.391,0,0,0-1.143,2.2,6.72,6.72,0,0,0,.506,2.1,5.9,5.9,0,0,0,.728,1.283c.066.093.128.182.169.248l.7,1.157,0,.006c.194.321.381.667.579,1.034l.034.063a2.391,2.391,0,0,0,2.1,1.255,2.386,2.386,0,0,0,.8-.138l.081-.029a2.391,2.391,0,0,0,1.543-2.726c-.113-.562-.273-1.087-.413-1.55l0-.015-.017-.052c-.158-.481-.341-.975-.545-1.47l0-.005c-.03-.072-.065-.166-.1-.265a5.746,5.746,0,0,0-.744-1.484,6.45,6.45,0,0,0-.685-.819,5.17,5.17,0,0,0-1.047-.838,2.39,2.39,0,0,0-1.227-.339Z" transform="translate(1120.374 -545.09)"/>
      </g>
      <g id="Group_6297" data-name="Group 6297" transform="translate(27.399 54.04)">
        <path id="Path_20885" data-name="Path 20885" class="cls-6" d="M-1033.842,600.909s-3.057-4.912-2.292-7.459,1.747-2.874,1.783-2.292-1.178,1.492-.7,3.238,1.208,5.2,1.208,5.2-.073-6.331,1.419-6.841.8,2.292.364,3.675S-1033.842,600.909-1033.842,600.909Z" transform="translate(1038.648 -588.52)"/>
        <path id="Path_20886" data-name="Path 20886" class="cls-3" d="M-1052.175,573.3c.124,0,.2.091.211.247.036.582-1.178,1.492-.7,3.238s1.208,5.2,1.208,5.2-.073-6.331,1.419-6.841a1.01,1.01,0,0,1,.323-.061c1.057,0,.442,2.466.041,3.736-.437,1.383-1.783,4.476-1.783,4.476s-3.057-4.912-2.292-7.459c.559-1.864,1.235-2.539,1.572-2.539m0-2.391c-1.181,0-2.81.736-3.862,4.243-.49,1.633-.177,3.7.955,6.321a25.988,25.988,0,0,0,1.6,3.089,2.391,2.391,0,0,0,2.029,1.128c.058,0,.116,0,.175-.006a2.391,2.391,0,0,0,2.018-1.43c.143-.328,1.409-3.25,1.871-4.71,1.113-3.524.592-4.882.013-5.671a2.862,2.862,0,0,0-2.333-1.176h0a2.577,2.577,0,0,0-2.463-1.787Z" transform="translate(1056.261 -570.911)"/>
      </g>
      <g id="Group_6298" data-name="Group 6298" transform="translate(38.4 53.675)">
        <path id="Path_20887" data-name="Path 20887" class="cls-6" d="M-944.216,593.226a10.922,10.922,0,0,0,.837-4.316c-.182-1.892.728-.873.8.327A7.487,7.487,0,0,1-944.216,593.226Z" transform="translate(946.609 -585.471)"/>
        <path id="Path_20888" data-name="Path 20888" class="cls-3" d="M-960.823,570.253c.23,0,.575.655.618,1.375a7.486,7.486,0,0,1-1.637,3.988,10.922,10.922,0,0,0,.837-4.316c-.073-.757.029-1.048.182-1.048m0-2.391h0a2.523,2.523,0,0,0-1.862.828,3.539,3.539,0,0,0-.7,2.84,8.3,8.3,0,0,1-.663,3.166,2.388,2.388,0,0,0,1.033,3.008,2.377,2.377,0,0,0,1.168.306,2.394,2.394,0,0,0,1.941-.991c.672-.929,2.221-3.327,2.087-5.535-.109-1.8-1.176-3.622-3-3.622Z" transform="translate(964.235 -567.862)"/>
      </g>
      <g id="Group_6299" data-name="Group 6299" transform="translate(43.837 49.592)">
        <path id="Path_20889" data-name="Path 20889" class="cls-6" d="M-898.714,560.768a16.435,16.435,0,0,1,3.275-4.912,4.219,4.219,0,0,0,1.565-2.147S-894.9,558.966-898.714,560.768Z" transform="translate(901.127 -551.318)"/>
        <path id="Path_20890" data-name="Path 20890" class="cls-3" d="M-911.493,536.1s-1.023,5.257-4.839,7.059l-.01,0a16.78,16.78,0,0,1,3.285-4.915,4.218,4.218,0,0,0,1.565-2.147m0-2.391a2.392,2.392,0,0,0-2.307,1.772,2.192,2.192,0,0,1-.723.878,13.42,13.42,0,0,0-2.7,3.37c-.345.552-.674,1.12-.926,1.6a3.126,3.126,0,0,0-.458,2.6,2.4,2.4,0,0,0,2.271,1.622,2.432,2.432,0,0,0,1.033-.233,10.841,10.841,0,0,0,4.986-5.339,15.563,15.563,0,0,0,1.177-3.424,2.391,2.391,0,0,0-1.855-2.8,2.4,2.4,0,0,0-.494-.052Zm0,4.782h0Z" transform="translate(918.746 -533.705)"/>
      </g>
      <g id="Group_6306" data-name="Group 6306" transform="translate(11.172 11.944)">
        <g id="Group_6300" data-name="Group 6300">
          <path id="Path_20891" data-name="Path 20891" class="cls-7" d="M-1149.844,243.8s1.589-5.458,9.594-5.021l-1.819,1.747s6.622-.655,8.3,3.639,2.62,11.207,6.477,12.226c0,0-2.838,1.237-4.075,0,0,0,3.784,4,2.911,12.954l-.946-3.42s-1.213,11.789-20.437,12.153-19.807-12.153-19.807-12.153a4.816,4.816,0,0,0-.8,3.566s-2.911-3.42,2.4-13.754a4.728,4.728,0,0,1-3.857.873,12.467,12.467,0,0,0,4.512-8.223c.437-5.167,5.676-8.951,9.533-8.151,0,0-1.237-1.505-1.674-1.48C-1159.535,238.75-1150.7,238.629-1149.844,243.8Z" transform="translate(1174.309 -236.359)"/>
          <path id="Path_20892" data-name="Path 20892" class="cls-3" d="M-1177.225,221.14h0m.04,0c.721,0,8.817.11,9.64,5.046,0,0,1.47-5.046,8.7-5.046.29,0,.587.008.9.025l-1.819,1.747s.362-.036.938-.036c1.888,0,6.076.384,7.358,3.674,1.674,4.294,2.62,11.207,6.477,12.226a7.2,7.2,0,0,1-2.469.55,2.209,2.209,0,0,1-1.606-.55s3.784,4,2.911,12.954l-.946-3.42s-1.213,11.789-20.437,12.153c-.275.005-.548.008-.815.008-18.428,0-18.992-12.161-18.992-12.161a4.816,4.816,0,0,0-.8,3.566s-2.911-3.42,2.4-13.754a5.1,5.1,0,0,1-2.864,1.011,3.6,3.6,0,0,1-.993-.137,12.466,12.466,0,0,0,4.512-8.223c.4-4.7,4.771-8.258,8.461-8.258a5.27,5.27,0,0,1,1.072.107s-1.2-1.464-1.655-1.481h.032m-.04-2.391c-.048,0-.1,0-.146,0a2.392,2.392,0,0,0-2.2,1.872,11.719,11.719,0,0,0-4.148,2.5,11.48,11.48,0,0,0-3.759,7.449,10.148,10.148,0,0,1-3.57,6.517,2.369,2.369,0,0,0-.925,2.337,2.393,2.393,0,0,0,1.708,1.87q.213.061.431.106a20.2,20.2,0,0,0-1.5,7.545,7.2,7.2,0,0,0,1.36,4.48,2.39,2.39,0,0,0,1.822.841,2.381,2.381,0,0,0,.367-.028,15.053,15.053,0,0,0,1.155,1.65,16.867,16.867,0,0,0,6.581,4.878,29.571,29.571,0,0,0,11.688,2.1c.283,0,.572,0,.86-.008a33.821,33.821,0,0,0,12.166-2.231,19.031,19.031,0,0,0,6.99-4.769A15.945,15.945,0,0,0-1146.9,254a2.379,2.379,0,0,0,.738.117c.069,0,.138,0,.208-.009a2.391,2.391,0,0,0,2.173-2.15,23.635,23.635,0,0,0-1.174-10.66,9.169,9.169,0,0,0,.915-.334,2.391,2.391,0,0,0,1.428-2.374,2.391,2.391,0,0,0-1.773-2.129c-1.623-.429-2.793-4.291-3.648-7.11-.378-1.247-.769-2.536-1.212-3.672-.976-2.5-3.219-4.2-6.34-4.871a2.386,2.386,0,0,0-.123-.478,2.391,2.391,0,0,0-2.111-1.556c-.345-.019-.691-.028-1.026-.028a12.029,12.029,0,0,0-8.559,3.038q-.194-.177-.4-.343a11.366,11.366,0,0,0-3.927-1.928,21.193,21.193,0,0,0-5.449-.767h-.04Z" transform="translate(1192.011 -218.749)"/>
        </g>
        <g id="Group_6305" data-name="Group 6305" transform="translate(2.403 2.391)">
          <g id="Group_6304" data-name="Group 6304" class="cls-8">
            <g id="Group_6301" data-name="Group 6301" transform="translate(-4.162 10.176)">
              <path id="Path_20893" data-name="Path 20893" class="cls-9" d="M-1185.605,348.873a8.233,8.233,0,0,0,6.647-4.657s-2.038,8.684-3.978,11.061a5.551,5.551,0,0,1,2.765-2.135s-2.232,7.714,1.941,10.867c0,0-2.523-9.557,6.453-9.9,0,0,4.755-4.561,8.442-4.8s8.587,4.172,8.587,4.172,5.482.437,6.938,3.542a12.118,12.118,0,0,1,.522,6.986s3.02-1.213,2.486-10.722a7.255,7.255,0,0,1,2.086,2.183s-4-10.965-4.718-11.6c0,0,4.621,5.191,7.726,6.016l-1.844.825s2.668,8.781,1.213,12.08l-2.086,1.5-11.6,7.132-12.76,1.365-13.2-5.052-6.744-6.55,2.086-8.2Z" transform="translate(1189.112 -341.486)"/>
              <path id="Path_20894" data-name="Path 20894" class="cls-3" d="M-1165.045,326.269a.491.491,0,0,1,.059.066l-.059-.066m.059.066c.548.6,4.768,5.18,7.667,5.95l-1.844.825s2.668,8.781,1.213,12.08l-2.086,1.5-11.6,7.132-12.76,1.365-13.2-5.052-6.744-6.55,2.086-8.2-.97-4.124a8.233,8.233,0,0,0,6.647-4.657s-1.9,8.093-3.776,10.792c-.13.164-.2.269-.2.269q.1-.124.2-.269a5.055,5.055,0,0,1,2.563-1.865s-2.232,7.714,1.941,10.867c0,0-2.523-9.557,6.453-9.9,0,0,4.755-4.561,8.442-4.8.1-.006.2-.01.3-.01,3.647,0,8.289,4.182,8.289,4.182s5.482.437,6.938,3.542a12.117,12.117,0,0,1,.521,6.986s3.02-1.213,2.486-10.722a7.257,7.257,0,0,1,2.086,2.183s-3.806-10.425-4.659-11.529m-32.8,9.2h0m32.737-11.657a2.386,2.386,0,0,0-1.695.7,2.392,2.392,0,0,0-.155,3.2c.394.69,1.468,3.343,2.631,6.38a2.39,2.39,0,0,0-.538,1.649c.01.187.019.37.027.549a12.936,12.936,0,0,0-6.588-2.777,27.868,27.868,0,0,0-2.476-1.81,13.035,13.035,0,0,0-6.811-2.474c-.153,0-.306.005-.455.015a14.008,14.008,0,0,0-6.83,2.928c-1.029.73-1.893,1.449-2.447,1.934a10.4,10.4,0,0,0-3.464.935,8.1,8.1,0,0,0-1.625,1.033c.019-.071.034-.143.046-.216a2.387,2.387,0,0,0-.593-2.011c-.04-.044-.081-.085-.123-.125,1.031-3.011,1.772-6.107,1.9-6.64a2.391,2.391,0,0,0-1.55-2.807,2.388,2.388,0,0,0-.778-.131,2.391,2.391,0,0,0-2.171,1.389,5.82,5.82,0,0,1-4.613,3.272,2.34,2.34,0,0,0-1.786.934,2.377,2.377,0,0,0-.4,2l.836,3.554-1.942,7.632a2.391,2.391,0,0,0,.651,2.3l6.744,6.55a2.389,2.389,0,0,0,.811.518l13.2,5.052a2.39,2.39,0,0,0,.855.158,2.378,2.378,0,0,0,.254-.014l12.76-1.365a2.388,2.388,0,0,0,1-.341l11.6-7.132q.075-.046.146-.1l2.086-1.5a2.391,2.391,0,0,0,.789-.974c.813-1.842.846-4.681.1-8.68-.209-1.124-.449-2.171-.661-3.018a2.391,2.391,0,0,0,1.385-2.365,2.391,2.391,0,0,0-1.769-2.118c-1.508-.4-4.385-2.91-6.468-5.2a2.768,2.768,0,0,0-.291-.3,2.383,2.383,0,0,0-1.579-.6Z" transform="translate(1206.721 -323.879)"/>
            </g>
            <g id="Group_6302" data-name="Group 6302" transform="translate(5.067 -2.262)">
              <path id="Path_20895" data-name="Path 20895" class="cls-9" d="M-1109.516,242.582s6.853-2.525,10.334.157c0,0-4-3.431-7.095-2.849Z" transform="translate(1111.907 -237.433)"/>
              <path id="Path_20896" data-name="Path 20896" class="cls-3" d="M-1123.147,222.215c2.953,0,6.355,2.915,6.355,2.915a7.188,7.188,0,0,0-4.413-1.234,19.6,19.6,0,0,0-5.921,1.077l3.24-2.692a4,4,0,0,1,.739-.066m0-2.391a6.406,6.406,0,0,0-1.182.108,2.391,2.391,0,0,0-1.085.511l-3.24,2.692a2.391,2.391,0,0,0-.543,3.033,2.391,2.391,0,0,0,2.072,1.2,2.385,2.385,0,0,0,.826-.148,17.289,17.289,0,0,1,5.095-.93,4.921,4.921,0,0,1,2.954.737,2.381,2.381,0,0,0,1.457.5,2.387,2.387,0,0,0,1.857-.883,2.391,2.391,0,0,0-.3-3.323c-.417-.357-4.181-3.491-7.911-3.491Z" transform="translate(1129.517 -219.824)"/>
            </g>
            <g id="Group_6303" data-name="Group 6303" transform="translate(24.335 -3.215)">
              <path id="Path_20897" data-name="Path 20897" class="cls-9" d="M-948.325,235.568s3.633-3.468,5.494-3.711l2.541,2.911A29.957,29.957,0,0,0-948.325,235.568Z" transform="translate(950.716 -229.466)"/>
              <path id="Path_20898" data-name="Path 20898" class="cls-3" d="M-960.441,214.248l2.541,2.911s-.368-.016-.973-.016a27.649,27.649,0,0,0-7.062.815s3.633-3.468,5.494-3.711m0-2.391a2.383,2.383,0,0,0-.309.02c-.78.1-2.106.465-4.615,2.438-1.217.957-2.181,1.876-2.222,1.914a2.391,2.391,0,0,0-.42,2.923,2.391,2.391,0,0,0,2.071,1.2,2.389,2.389,0,0,0,.669-.1,25.774,25.774,0,0,1,6.393-.72c.538,0,.87.013.874.013l.1,0a2.392,2.392,0,0,0,2.156-1.357,2.39,2.39,0,0,0-.354-2.606l-2.541-2.911a2.391,2.391,0,0,0-1.8-.819Z" transform="translate(968.326 -211.857)"/>
            </g>
          </g>
        </g>
      </g>
      <g id="Group_6307" data-name="Group 6307" transform="translate(17.479 15.021)">
        <path id="Path_20900" data-name="Path 20900" class="cls-10" d="M-1108.22,265.882s-1.71-2.292-6-.982a7.562,7.562,0,0,0-5.021,5.676S-1114.988,265.009-1108.22,265.882Z" transform="translate(1121.636 -262.105)"/>
        <path id="Path_20901" data-name="Path 20901" class="cls-3" d="M-1129.347,246.886a4.389,4.389,0,0,1,3.515,1.387,11.219,11.219,0,0,0-1.436-.093c-5.928,0-9.589,4.787-9.589,4.787a7.562,7.562,0,0,1,5.021-5.676,8.53,8.53,0,0,1,2.489-.4m0-2.391h0a10.966,10.966,0,0,0-3.187.508,9.967,9.967,0,0,0-6.682,7.57,2.4,2.4,0,0,0,1.411,2.6,2.407,2.407,0,0,0,.946.195,2.366,2.366,0,0,0,1.9-.946c.122-.153,3.141-3.854,7.694-3.854a8.858,8.858,0,0,1,1.13.073,2.392,2.392,0,0,0,.307.02,2.391,2.391,0,0,0,2.063-1.184,2.391,2.391,0,0,0-.148-2.636,6.738,6.738,0,0,0-5.431-2.348Z" transform="translate(1139.249 -244.495)"/>
      </g>
      <g id="Group_6308" data-name="Group 6308" transform="translate(37.965 14.988)">
        <path id="Path_20902" data-name="Path 20902" class="cls-10" d="M-947.869,265.6s4.148-2.583,7.5-.691a6.24,6.24,0,0,1,3.384,4.985S-939.864,264.833-947.869,265.6Z" transform="translate(950.26 -261.822)"/>
        <path id="Path_20903" data-name="Path 20903" class="cls-3" d="M-960.753,246.6a5.556,5.556,0,0,1,2.769.693,6.24,6.24,0,0,1,3.384,4.985s-2.485-4.372-9.268-4.372c-.512,0-1.049.025-1.612.079a10.123,10.123,0,0,1,4.727-1.384m0-2.391a12.393,12.393,0,0,0-5.99,1.745,2.391,2.391,0,0,0-1,2.8,2.391,2.391,0,0,0,2.263,1.625q.114,0,.229-.011c.471-.045.937-.068,1.384-.068,5.059,0,7.023,2.9,7.2,3.177a2.329,2.329,0,0,0,2.068,1.23,2.475,2.475,0,0,0,.61-.077,2.412,2.412,0,0,0,1.784-2.377,8.676,8.676,0,0,0-4.6-7.038,7.914,7.914,0,0,0-3.945-1Z" transform="translate(967.871 -244.213)"/>
      </g>
      <g id="Group_6313" data-name="Group 6313" transform="translate(18.931 32.433)">
        <g id="Group_6309" data-name="Group 6309">
          <path id="Path_20904" data-name="Path 20904" class="cls-11" d="M-1101.065,413.163s6.076-6.638,16.992-.182c0,0,5.931.036,5.968,5.895s-7.892,8.005-7.892,8.005-3.339,3.129-6.857,2.693a12.5,12.5,0,0,1-6.174-2.874s-7.787-1.274-8.078-8.151C-1107.1,418.548-1107.505,413.345-1101.065,413.163Z" transform="translate(1109.5 -407.767)"/>
          <path id="Path_20905" data-name="Path 20905" class="cls-3" d="M-1110.8,392.549a17.9,17.9,0,0,1,9.117,2.823s5.931.036,5.967,5.895-7.892,8.005-7.892,8.005-2.918,2.734-6.172,2.734a5.538,5.538,0,0,1-.685-.042,12.507,12.507,0,0,1-6.174-2.874s-7.787-1.274-8.078-8.151c0,0-.4-5.2,6.04-5.385a11.1,11.1,0,0,1,7.875-3.005m0-2.391v0a14.307,14.307,0,0,0-7.037,1.812,12.639,12.639,0,0,0-1.829,1.251,8.278,8.278,0,0,0-5.574,2.568,7.578,7.578,0,0,0-1.863,5.276,9.991,9.991,0,0,0,1.823,5.433,11.3,11.3,0,0,0,3.492,3.151,15.2,15.2,0,0,0,4.07,1.654,14.578,14.578,0,0,0,6.96,3.034,7.984,7.984,0,0,0,.979.06,12.359,12.359,0,0,0,7.362-2.992,18.767,18.767,0,0,0,4.061-1.927c3.312-2.125,5.052-4.97,5.032-8.226a7.748,7.748,0,0,0-4.321-7.269,10.008,10.008,0,0,0-3.315-.955,20.055,20.055,0,0,0-9.839-2.87Z" transform="translate(1127.108 -390.158)"/>
        </g>
        <g id="Group_6312" data-name="Group 6312" transform="translate(2.391 2.391)">
          <g id="Group_6311" data-name="Group 6311" class="cls-12">
            <g id="Group_6310" data-name="Group 6310" transform="translate(5.795 0.117)">
              <path id="Path_20906" data-name="Path 20906" class="cls-13" d="M-1038.58,446.031s9.024,2.668,12.566-2.862c0,0,9.994-1.164,2.911-12.032l3.4,1.116,1.941,2.086.764,3.445L-1018.4,442l-3.008,2.474-3.93,1.7-2.959,1.91-3.4.565-3.672-.243Z" transform="translate(1040.977 -428.746)"/>
              <path id="Path_20907" data-name="Path 20907" class="cls-3" d="M-1040.761,413.527l3.4,1.116,1.941,2.086.764,3.445-1.395,4.221-3.008,2.474-3.93,1.7-2.959,1.91-3.4.565-3.672-.243-3.218-2.377a18.916,18.916,0,0,0,4.811.643c2.73,0,5.953-.691,7.755-3.506,0,0,9.994-1.164,2.911-12.032m0-2.391a2.391,2.391,0,0,0-1.9.934,2.391,2.391,0,0,0-.107,2.762c1.859,2.852,2.545,5.155,1.933,6.486-.674,1.466-2.983,1.845-3.128,1.867a2.322,2.322,0,0,0-1.726,1.084c-1.022,1.6-2.953,2.4-5.742,2.4a16.728,16.728,0,0,1-4.138-.547,2.383,2.383,0,0,0-.687-.1,2.386,2.386,0,0,0-2.132,1.323,2.4,2.4,0,0,0,.725,3l3.218,2.377a2.391,2.391,0,0,0,1.263.463l3.672.243q.079.005.158.005a2.4,2.4,0,0,0,.392-.032l3.4-.565a2.389,2.389,0,0,0,.9-.35l2.793-1.8,3.748-1.619a2.391,2.391,0,0,0,.57-.348l3.008-2.474a2.389,2.389,0,0,0,.751-1.1l1.4-4.221a2.392,2.392,0,0,0,.064-1.268l-.764-3.445a2.389,2.389,0,0,0-.584-1.111l-1.941-2.086a2.391,2.391,0,0,0-1-.643l-3.4-1.116a2.388,2.388,0,0,0-.746-.12Z" transform="translate(1058.635 -411.136)"/>
            </g>
          </g>
        </g>
      </g>
      <g id="Group_6314" data-name="Group 6314" transform="translate(25.552 39.938)">
        <path id="Path_20909" data-name="Path 20909" class="cls-14" d="M-1051.669,473.329s5.951,6.841,15.44-.388C-1036.229,472.941-1044.033,485.846-1051.669,473.329Z" transform="translate(1054.065 -470.55)"/>
        <path id="Path_20910" data-name="Path 20910" class="cls-3" d="M-1053.876,455.332s-3.539,5.852-8.183,5.852c-2.252,0-4.764-1.376-7.257-5.464a9.744,9.744,0,0,0,6.967,2.929c2.335,0,5.192-.817,8.473-3.317m0-2.391a2.385,2.385,0,0,0-1.448.489,11.853,11.853,0,0,1-7.024,2.828,7.345,7.345,0,0,1-5.171-2.116,2.345,2.345,0,0,0-1.8-.839,2.4,2.4,0,0,0-1.4.454,2.41,2.41,0,0,0-.633,3.208c2.676,4.386,5.8,6.61,9.3,6.61,2.546,0,5.147-1.253,7.522-3.625a19.779,19.779,0,0,0,2.706-3.381,2.391,2.391,0,0,0-.448-3.016,2.387,2.387,0,0,0-1.6-.612Zm0,4.781h0Z" transform="translate(1071.712 -452.941)"/>
      </g>
      <g id="Group_6315" data-name="Group 6315" transform="translate(18.93 19.7)">
        <path id="Path_20911" data-name="Path 20911" class="cls-14" d="M-1107.11,306.823a3.652,3.652,0,0,1,1.024-1.707,5.062,5.062,0,0,1,1.693-1.1c.156-.067.321-.108.482-.162a3.207,3.207,0,0,1,.493-.118c.167-.027.332-.058.5-.076s.336-.013.5-.015a2.673,2.673,0,0,1,.5.027c.166.02.33.045.492.073a5.107,5.107,0,0,1,.943.317c-.325.115-.635.163-.938.243-.151.042-.3.081-.449.115l-.221.05-.216.065c-.144.041-.287.08-.43.114-.139.049-.279.092-.418.137l-.209.062-.2.079c-.135.052-.275.088-.406.15a12.546,12.546,0,0,0-1.569.752A16.6,16.6,0,0,0-1107.11,306.823Z" transform="translate(1109.501 -301.248)"/>
        <path id="Path_20912" data-name="Path 20912" class="cls-3" d="M-1119.922,286.03a2.565,2.565,0,0,1,.394.029c.166.02.33.045.492.073a5.1,5.1,0,0,1,.943.317c-.325.115-.635.163-.938.243-.151.042-.3.081-.449.115l-.221.05-.216.065c-.144.041-.287.08-.43.114-.139.049-.279.092-.418.137l-.209.062-.2.079c-.135.052-.275.088-.406.15a12.533,12.533,0,0,0-1.569.752,16.6,16.6,0,0,0-1.569,1,3.651,3.651,0,0,1,1.024-1.707,5.064,5.064,0,0,1,1.693-1.1c.156-.067.321-.108.482-.162a3.2,3.2,0,0,1,.493-.118c.167-.027.332-.058.5-.077s.336-.013.5-.015l.1,0m0-2.391h0l-.152,0c-.219,0-.407.008-.589.018-.044,0-.087.006-.131.011-.186.021-.355.049-.491.072l-.1.017a5.564,5.564,0,0,0-.83.194l-.065.021-.1.031a5.4,5.4,0,0,0-.526.185,7.492,7.492,0,0,0-2.463,1.611l-.017.017a5.962,5.962,0,0,0-1.66,2.85,2.391,2.391,0,0,0,.995,2.532,2.388,2.388,0,0,0,1.332.406,2.388,2.388,0,0,0,1.388-.444,14.359,14.359,0,0,1,1.346-.859,10.129,10.129,0,0,1,1.268-.611l.1-.043.045-.015c.064-.022.152-.051.251-.089l.007,0,.114-.044.117-.035.041-.013.081-.026c.087-.028.183-.058.285-.092.127-.032.262-.068.416-.112l.029-.008.135-.041.138-.031.01,0c.171-.039.347-.084.538-.137.061-.016.136-.033.222-.052a7.471,7.471,0,0,0,.891-.245,2.391,2.391,0,0,0,1.59-2.15,2.39,2.39,0,0,0-1.4-2.28,7.514,7.514,0,0,0-1.384-.468q-.069-.016-.138-.028c-.2-.034-.392-.064-.58-.087a4.994,4.994,0,0,0-.718-.051Z" transform="translate(1127.111 -283.639)"/>
      </g>
      <g id="Group_6316" data-name="Group 6316" transform="translate(41.786 19.586)">
        <path id="Path_20913" data-name="Path 20913" class="cls-14" d="M-915.907,302.887a3.9,3.9,0,0,1,1.815-.171,4.994,4.994,0,0,1,1.755.565,4.3,4.3,0,0,1,1.419,1.213,3.372,3.372,0,0,1,.688,1.7c-.494-.389-.876-.771-1.325-1.074a10.772,10.772,0,0,0-1.328-.843c-.46-.25-.937-.481-1.439-.7Z" transform="translate(918.298 -300.29)"/>
        <path id="Path_20914" data-name="Path 20914" class="cls-3" d="M-932.286,285.071a5.167,5.167,0,0,1,.585.035,5,5,0,0,1,1.755.565,4.3,4.3,0,0,1,1.419,1.213,3.372,3.372,0,0,1,.688,1.7c-.494-.389-.876-.771-1.326-1.074a10.763,10.763,0,0,0-1.328-.843c-.46-.25-.937-.481-1.439-.7l-1.584-.692a3.494,3.494,0,0,1,1.229-.206m0-2.391a5.89,5.89,0,0,0-2.065.357,2.391,2.391,0,0,0-1.555,2.175,2.391,2.391,0,0,0,1.433,2.256l1.58.69c.461.2.872.4,1.258.614l.028.015a8.4,8.4,0,0,1,1.034.66l.072.051a6.841,6.841,0,0,1,.562.454c.181.155.385.331.619.515a2.389,2.389,0,0,0,1.48.513,2.388,2.388,0,0,0,1.164-.3,2.391,2.391,0,0,0,1.21-2.361,5.727,5.727,0,0,0-1.173-2.9,6.7,6.7,0,0,0-2.184-1.858,7.34,7.34,0,0,0-2.583-.828l-.026,0a7.613,7.613,0,0,0-.855-.05Z" transform="translate(935.907 -282.68)"/>
      </g>
      <g id="Group_6326" data-name="Group 6326" transform="translate(50.992 7.249)">
        <g id="Group_6317" data-name="Group 6317">
          <path id="Path_20915" data-name="Path 20915" class="cls-15" d="M-838.894,204.669s3.275-6.43,10.152-4.98,4.439,9.746,4.439,9.746a7.351,7.351,0,0,1-7.086,5.2s-1.538-3.275-3.284-3.748c0,0,2.785.655,3.284,1.637a9.129,9.129,0,0,0-3.976-4.949,2.18,2.18,0,0,1,2.292-.146S-836.019,204.887-838.894,204.669Z" transform="translate(841.285 -197.085)"/>
          <path id="Path_20916" data-name="Path 20916" class="cls-3" d="M-848.331,181.867a9.569,9.569,0,0,1,1.98.213c6.877,1.45,4.439,9.746,4.439,9.746a7.351,7.351,0,0,1-7.086,5.2s-1.538-3.275-3.284-3.748c0,0,2.785.655,3.284,1.637a9.128,9.128,0,0,0-3.976-4.949,2.416,2.416,0,0,1,1.308-.419,1.9,1.9,0,0,1,.985.274s-2.947-2.547-5.822-2.765c0,0,2.645-5.192,8.172-5.193m0-2.391v0c-6.913,0-10.167,6.233-10.3,6.5a2.391,2.391,0,0,0,.046,2.256,2.39,2.39,0,0,0,1.9,1.213,4.856,4.856,0,0,1,1.329.323,2.377,2.377,0,0,0,0,.4,2.39,2.39,0,0,0,1.074,1.8,2.392,2.392,0,0,0-.318.724,2.391,2.391,0,0,0,1.648,2.881,7.3,7.3,0,0,1,1.792,2.474,2.383,2.383,0,0,0,2.16,1.37q.06,0,.119,0a9.936,9.936,0,0,0,7.49-3.586,9.484,9.484,0,0,0,1.782-3.37c.2-.691,1.406-5.344-.78-9a8.082,8.082,0,0,0-5.471-3.72,12.018,12.018,0,0,0-2.473-.264Z" transform="translate(858.894 -179.476)"/>
        </g>
        <g id="Group_6325" data-name="Group 6325" transform="translate(2.391 2.391)">
          <g id="Group_6324" data-name="Group 6324" class="cls-16">
            <g id="Group_6318" data-name="Group 6318" transform="translate(-1.772 1.858)">
              <path id="Path_20917" data-name="Path 20917" class="cls-17" d="M-824.841,235.018s5.411,2.145,6.69.8l-.467,4.73-1.965,4.421-3.966,2.056-3.893-.4-3.384-2.11-1.273-4.039-.619-2.838,2.147-.218,1.283.046Z" transform="translate(836.11 -232.628)"/>
              <path id="Path_20918" data-name="Path 20918" class="cls-3" d="M-842.45,217.411a18.376,18.376,0,0,0,5.2,1.243,2.048,2.048,0,0,0,1.494-.444l-.468,4.73-1.965,4.421-3.966,2.056-3.893-.4-3.384-2.11-1.274-4.039-.619-2.838,2.147-.218,1.284.046,5.448-2.446m6.69.8h0m-6.691-3.189a2.388,2.388,0,0,0-.979.209l-4.94,2.218-.727-.026-.086,0a2.406,2.406,0,0,0-.242.012l-2.147.218a2.39,2.39,0,0,0-1.694.975,2.39,2.39,0,0,0-.4,1.913l.619,2.838q.023.106.056.21l1.274,4.039a2.39,2.39,0,0,0,1.015,1.31l3.384,2.11a2.392,2.392,0,0,0,1.021.35l3.893.4a2.4,2.4,0,0,0,.245.013,2.392,2.392,0,0,0,1.1-.268l3.966-2.056a2.39,2.39,0,0,0,1.084-1.152l1.965-4.421a2.39,2.39,0,0,0,.194-.736l.463-4.68a2.418,2.418,0,0,0,.017-.285,2.391,2.391,0,0,0-2.232-2.386q-.079-.005-.158-.005l-.117,0a2.378,2.378,0,0,0-1.268.439l-.109,0a15.452,15.452,0,0,1-4.317-1.075,2.4,2.4,0,0,0-.88-.167Z" transform="translate(853.719 -215.021)"/>
            </g>
            <g id="Group_6323" data-name="Group 6323" transform="translate(0.12 1.858)">
              <g id="Group_6319" data-name="Group 6319">
                <path id="Path_20919" data-name="Path 20919" class="cls-10" d="M-816.908,237.927s3.966-3.566,6.477-2.8,2.11,3.893,2,4.8-2.766,5.349-6.841,3.166l-2.183-.982-.437-3.6Z" transform="translate(820.281 -232.627)"/>
                <path id="Path_20920" data-name="Path 20920" class="cls-3" d="M-828.805,217.409a2.618,2.618,0,0,1,.765.107c2.511.764,2.11,3.893,2,4.8-.088.734-1.833,3.763-4.642,3.763a4.626,4.626,0,0,1-2.2-.6l-2.183-.982-.437-3.6.983-.581s3.236-2.909,5.712-2.909m0-2.391h0a9.664,9.664,0,0,0-5.088,1.841,20.458,20.458,0,0,0-2.026,1.51l-.8.471a2.391,2.391,0,0,0-1.157,2.346l.437,3.6a2.39,2.39,0,0,0,1.392,1.893l2.114.951a6.981,6.981,0,0,0,3.249.839,6.922,6.922,0,0,0,5.083-2.359,7.235,7.235,0,0,0,1.933-3.509l0-.025a10.046,10.046,0,0,0-.06-3.23,5.181,5.181,0,0,0-3.622-4.12,5.013,5.013,0,0,0-1.461-.211Z" transform="translate(837.891 -215.018)"/>
              </g>
              <g id="Group_6322" data-name="Group 6322" transform="translate(2.391 2.391)">
                <g id="Group_6321" data-name="Group 6321" class="cls-18">
                  <g id="Group_6320" data-name="Group 6320" transform="translate(-3.337 0.227)">
                    <path id="Path_20921" data-name="Path 20921" class="cls-19" d="M-825.8,257.392s4.33-.218,5.2.946,4.148,3.02,5.895-1.419c0,0,.619,3.857-2.693,5.676s-7.787-.582-7.787-.582Z" transform="translate(828.196 -254.528)"/>
                    <path id="Path_20922" data-name="Path 20922" class="cls-3" d="M-832.316,239.31s.619,3.857-2.693,5.676a5.917,5.917,0,0,1-2.876.681A11.808,11.808,0,0,1-842.8,244.4l-.619-4.621s.322-.016.808-.016c1.3,0,3.76.115,4.4.962a3.756,3.756,0,0,0,2.751,1.395c1.11,0,2.3-.679,3.143-2.814m0-2.391a2.391,2.391,0,0,0-2.223,1.515c-.332.843-.721,1.3-.919,1.3a1.459,1.459,0,0,1-.842-.443,5.236,5.236,0,0,0-3.488-1.722,18.98,18.98,0,0,0-2.817-.193c-.531,0-.89.017-.929.019a2.391,2.391,0,0,0-1.718.859,2.39,2.39,0,0,0-.531,1.846l.619,4.621a2.39,2.39,0,0,0,1.239,1.789,14.033,14.033,0,0,0,6.041,1.547,8.26,8.26,0,0,0,4.027-.976,7.465,7.465,0,0,0,3.773-5.107,8.705,8.705,0,0,0,.129-3.043,2.391,2.391,0,0,0-2.1-2,2.389,2.389,0,0,0-.259-.014Z" transform="translate(845.805 -236.919)"/>
                  </g>
                </g>
              </g>
            </g>
          </g>
        </g>
      </g>
      <g id="Group_6335" data-name="Group 6335" transform="translate(0.488 7.646)">
        <g id="Group_6327" data-name="Group 6327">
          <path id="Path_20925" data-name="Path 20925" class="cls-15" d="M-1246.288,207.965a8.418,8.418,0,0,0-8.781-5.143c-6.792.485-6.5,7.617-6.161,9.266s3.836,5.87,7.4,5.725a5.873,5.873,0,0,1,2.448-3.348,11.088,11.088,0,0,0-2.448,1.154,10.364,10.364,0,0,1,4.1-5.084h-2.183S-1249.322,207.92-1246.288,207.965Z" transform="translate(1263.767 -200.402)"/>
          <path id="Path_20926" data-name="Path 20926" class="cls-3" d="M-1271.879,185.183a8.363,8.363,0,0,1,7.964,5.172h-.078c-3,0-5.549,2.572-5.549,2.572h2.183a10.364,10.364,0,0,0-4.1,5.084,11.082,11.082,0,0,1,2.448-1.154,5.872,5.872,0,0,0-2.448,3.348c-.06,0-.12,0-.181,0-3.5,0-6.886-4.107-7.22-5.729-.34-1.649-.631-8.781,6.161-9.266.281-.02.553-.03.818-.03m0-2.391h0c-.323,0-.655.012-.987.036a8.653,8.653,0,0,0-6.521,3.314,11.882,11.882,0,0,0-1.811,8.819,10.454,10.454,0,0,0,3.138,4.743,9.74,9.74,0,0,0,6.423,2.894c.093,0,.186,0,.278-.006a2.345,2.345,0,0,0,2.209-1.76,3.474,3.474,0,0,1,1.234-1.85,2.391,2.391,0,0,0,1.1-3.086,2.408,2.408,0,0,0-.146-.281,7.849,7.849,0,0,1,.9-.681,2.391,2.391,0,0,0,1.093-2.043,3.584,3.584,0,0,1,.976-.147h.078a2.391,2.391,0,0,0,1.942-1,2.391,2.391,0,0,0,.312-2.192,10.534,10.534,0,0,0-2.2-3.432,10.716,10.716,0,0,0-8.018-3.334Z" transform="translate(1281.393 -182.792)"/>
        </g>
        <g id="Group_6334" data-name="Group 6334" transform="translate(2.393 2.391)">
          <g id="Group_6333" data-name="Group 6333" class="cls-20">
            <g id="Group_6328" data-name="Group 6328" transform="translate(-3.321 1.657)">
              <path id="Path_20927" data-name="Path 20927" class="cls-17" d="M-1263.038,237.3s-4.852,1.6-5.676-.389-.243,8.529-.243,8.529l7.18,3.455h2.474l3.4-4.512s1.5-2.98,1.5-3.212-.582-2.088-.582-2.088h-4.124Z" transform="translate(1271.547 -234.266)"/>
              <path id="Path_20928" data-name="Path 20928" class="cls-3" d="M-1286.508,219.048c.052,0,.112.079.184.25.316.762,1.224,1,2.223,1a13.072,13.072,0,0,0,3.453-.608l3.93,1.783h4.124s.582,1.856.582,2.088-1.5,3.212-1.5,3.212l-3.4,4.512h-2.474l-7.18-3.455s-.486-8.781.059-8.779m0-2.391a2.466,2.466,0,0,0-1.781.769c-.734.775-.818,1.8-.855,3.156-.022.789-.016,1.837.018,3.115.056,2.137.168,4.176.173,4.262a2.39,2.39,0,0,0,1.35,2.022l7.18,3.455a2.39,2.39,0,0,0,1.036.236h2.474a2.391,2.391,0,0,0,1.91-.953l3.4-4.512a2.385,2.385,0,0,0,.224-.361c.016-.031.389-.77.768-1.552.853-1.756.992-2.14.992-2.738a9.3,9.3,0,0,0-.692-2.8,2.391,2.391,0,0,0-2.281-1.675h-3.607l-3.459-1.569a2.39,2.39,0,0,0-.988-.214,2.388,2.388,0,0,0-.748.12,10.54,10.54,0,0,1-2.7.488c-.107,0-.194,0-.264-.01a2.519,2.519,0,0,0-2.139-1.237h0Z" transform="translate(1289.157 -216.657)"/>
            </g>
            <g id="Group_6329" data-name="Group 6329" transform="translate(0.379 1.804)">
              <path id="Path_20929" data-name="Path 20929" class="cls-10" d="M-1229.567,240.874c.146-.12-2.939-4.341-7.024-2.546s.378,9.2,5.132,8.189l2.814-1.93a10.068,10.068,0,0,1-.243-1.455A20.936,20.936,0,0,0-1229.567,240.874Z" transform="translate(1240.586 -235.494)"/>
              <path id="Path_20930" data-name="Path 20930" class="cls-3" d="M-1252.171,220.275a6.239,6.239,0,0,1,4.984,2.99,20.911,20.911,0,0,1,.679,2.257,10.084,10.084,0,0,0,.243,1.455l-2.814,1.93a4.316,4.316,0,0,1-.9.094c-4.388,0-8.062-6.6-4.235-8.283a5.032,5.032,0,0,1,2.04-.444m0-2.391a7.43,7.43,0,0,0-3,.646,5.045,5.045,0,0,0-2.891,5.974,9.1,9.1,0,0,0,2.738,4.644,7.956,7.956,0,0,0,5.35,2.245,6.733,6.733,0,0,0,1.393-.146,2.392,2.392,0,0,0,.856-.367l2.814-1.93a2.391,2.391,0,0,0,.981-2.49c-.072-.324-.148-.708-.181-.913a6.394,6.394,0,0,0-.441-1.94c-.114-.354-.229-.7-.3-.908a2.566,2.566,0,0,0-.087-.294,7.378,7.378,0,0,0-2.258-2.693,8.065,8.065,0,0,0-4.972-1.826Z" transform="translate(1258.206 -217.884)"/>
            </g>
            <g id="Group_6332" data-name="Group 6332" transform="translate(2.771 4.195)">
              <g id="Group_6331" data-name="Group 6331" class="cls-21">
                <g id="Group_6330" data-name="Group 6330" transform="translate(-3.012 0.588)">
                  <path id="Path_20931" data-name="Path 20931" class="cls-19" d="M-1243.347,262.9s2.377,3.518,4.609,2.063,4.027-2.355,5.919-1.735l-3.153,6.324-3.108-.38S-1243.783,265.542-1243.347,262.9Z" transform="translate(1245.768 -260.497)"/>
                  <path id="Path_20932" data-name="Path 20932" class="cls-3" d="M-1260.972,245.207s1.632,2.416,3.461,2.416a2.065,2.065,0,0,0,1.148-.353c1.743-1.136,3.219-1.934,4.683-1.934a3.935,3.935,0,0,1,1.236.2l-3.153,6.324-3.108-.38s-4.7-3.628-4.267-6.271m0-2.4a2.427,2.427,0,0,0-.506.054,2.4,2.4,0,0,0-1.853,1.959c-.31,1.878.526,3.881,2.557,6.122a22.377,22.377,0,0,0,2.609,2.432,2.39,2.39,0,0,0,1.17.48l3.108.38a2.383,2.383,0,0,0,.291.018,2.391,2.391,0,0,0,2.139-1.324l3.153-6.324a2.391,2.391,0,0,0,.066-1.989,2.391,2.391,0,0,0-1.462-1.35,6.352,6.352,0,0,0-1.979-.317c-2.2,0-4.191,1.154-5.893,2.259a4.54,4.54,0,0,1-1.421-1.34,2.368,2.368,0,0,0-1.978-1.059Z" transform="translate(1263.394 -242.805)"/>
                </g>
              </g>
            </g>
          </g>
        </g>
      </g>
      <g id="Group_6336" data-name="Group 6336" transform="translate(35.891 23.354)">
        <path id="Path_20935" data-name="Path 20935" class="cls-9" d="M-965.219,339.672s2.365-4.371,6.258-5.426C-958.961,334.246-964.64,333.383-965.219,339.672Z" transform="translate(967.61 -331.815)"/>
        <path id="Path_20936" data-name="Path 20936" class="cls-3" d="M-977.254,316.6a5.02,5.02,0,0,1,.682.04c-3.893,1.055-6.258,5.426-6.258,5.426.454-4.935,4.049-5.466,5.576-5.466m0-2.391c-3.507,0-7.438,2.006-7.957,7.638a2.4,2.4,0,0,0,1.692,2.518,2.408,2.408,0,0,0,.689.1,2.376,2.376,0,0,0,2.1-1.259c.538-.974,2.437-3.623,4.783-4.259a2.391,2.391,0,0,0,1.761-2.444,2.391,2.391,0,0,0-2.028-2.228,7.255,7.255,0,0,0-1.042-.067Z" transform="translate(985.221 -314.206)"/>
      </g>
      <g id="Group_6337" data-name="Group 6337" transform="translate(26.917 25.745)">
        <path id="Path_20937" data-name="Path 20937" class="cls-9" d="M-1054.035,339.672s-2.365-4.371-6.258-5.426C-1060.293,334.246-1054.614,333.383-1054.035,339.672Z" transform="translate(1060.293 -334.206)"/>
        <path id="Path_20938" data-name="Path 20938" class="cls-3" d="M-1059.61,334.206c1.527,0,5.121.531,5.576,5.466,0,0-2.365-4.371-6.258-5.426a5.019,5.019,0,0,1,.683-.04" transform="translate(1060.293 -334.206)"/>
      </g>
      <g id="Group_6338" data-name="Group 6338" transform="translate(45.013 29.494)">
        <path id="Path_20939" data-name="Path 20939" class="cls-9" d="M-885.085,385.569a8.2,8.2,0,0,1-3.828,6.139S-885.753,393.445-885.085,385.569Z" transform="translate(891.304 -383.178)"/>
        <path id="Path_20940" data-name="Path 20940" class="cls-3" d="M-902.695,367.959s0,.01,0,.028l0-.028m0,.028c-.467,5.442-2.126,6.274-3.1,6.274a1.638,1.638,0,0,1-.726-.163,8.173,8.173,0,0,0,3.825-6.112m0-2.419a2.391,2.391,0,0,0-2.38,2.189v.016a5.759,5.759,0,0,1-2.6,4.235,2.39,2.39,0,0,0-1.23,2.1,2.391,2.391,0,0,0,1.24,2.09,3.987,3.987,0,0,0,1.877.458,4.42,4.42,0,0,0,3.726-2.157,13.464,13.464,0,0,0,1.755-6.3c0-.044.005-.067.005-.067a2.391,2.391,0,0,0-2.2-2.556q-.1-.007-.19-.007Z" transform="translate(908.913 -365.568)"/>
      </g>
      <g id="Group_6339" data-name="Group 6339" transform="translate(18.537 29.503)">
        <path id="Path_20941" data-name="Path 20941" class="cls-9" d="M-1110.4,385.584a8.2,8.2,0,0,0,3.6,6.275S-1110.025,393.479-1110.4,385.584Z" transform="translate(1112.794 -383.2)"/>
        <path id="Path_20942" data-name="Path 20942" class="cls-3" d="M-1128.01,368.026v.028c0-.018,0-.028,0-.028m0,.028a8.172,8.172,0,0,0,3.6,6.247,1.619,1.619,0,0,1-.669.137c-.964,0-2.657-.811-2.931-6.384m0-2.412-.1,0a2.4,2.4,0,0,0-2.3,2.466s0,.023,0,.067a13.238,13.238,0,0,0,1.583,6.451,4.366,4.366,0,0,0,3.735,2.2,3.978,3.978,0,0,0,1.742-.392,2.391,2.391,0,0,0,1.315-2.043,2.391,2.391,0,0,0-1.152-2.139,5.759,5.759,0,0,1-2.448-4.328v-.017a2.384,2.384,0,0,0-2.385-2.268Z" transform="translate(1130.4 -365.642)"/>
      </g>
      <g id="Group_6344" data-name="Group 6344" transform="translate(31.368 33.457)">
        <g id="Group_6340" data-name="Group 6340">
          <path id="Path_20943" data-name="Path 20943" class="cls-22" d="M-1022.758,401.942s-1.286-1.691,1.431-2.677,7.193-.679,7.2,1.338-1.5,3.74-4.118,3.983S-1022.758,401.942-1022.758,401.942Z" transform="translate(1023.062 -398.723)"/>
          <path id="Path_20944" data-name="Path 20944" class="cls-3" d="M-1018,398.723c2.031,0,3.864.59,3.868,1.881.006,2.018-1.5,3.74-4.118,3.983q-.158.015-.313.014c-2.456,0-4.2-2.659-4.2-2.659s-1.286-1.691,1.431-2.677a10.129,10.129,0,0,1,3.331-.543" transform="translate(1023.062 -398.723)"/>
        </g>
        <g id="Group_6343" data-name="Group 6343">
          <g id="Group_6342" data-name="Group 6342" class="cls-23">
            <g id="Group_6341" data-name="Group 6341" transform="translate(-2.87 -0.811)">
              <path id="Path_20945" data-name="Path 20945" class="cls-24" d="M-1027.066,413.234s3.238,2.693,5.967,1.783a7.835,7.835,0,0,0,3.93-2.753v2.571l-1.856,2.074s-2.438.764-2.547.764-3.275-.691-3.42-.728-2.219-1.674-2.074-1.783A8.532,8.532,0,0,0-1027.066,413.234Z" transform="translate(1029.463 -409.834)"/>
              <path id="Path_20946" data-name="Path 20946" class="cls-3" d="M-1034.773,394.368v2.571l-1.856,2.074s-2.438.764-2.547.764-3.275-.691-3.42-.728-2.22-1.674-2.074-1.783a8.532,8.532,0,0,0,0-1.928,8.89,8.89,0,0,0,4.764,1.971,3.788,3.788,0,0,0,1.2-.188,7.835,7.835,0,0,0,3.93-2.753m0-2.43a2.317,2.317,0,0,0-1.991,1.109,5.623,5.623,0,0,1-2.692,1.806,1.4,1.4,0,0,1-.448.065,6.48,6.48,0,0,1-3.238-1.421,2.367,2.367,0,0,0-1.528-.559,2.4,2.4,0,0,0-1.1.266,2.394,2.394,0,0,0-1.284,2.324c.033.415.056.908.057,1.176a2.411,2.411,0,0,0-.024,1.059c.187.927.818,1.5,1.836,2.331,1.231,1.007,1.557,1.162,2.008,1.274.163.041,1.377.3,1.8.4a10.569,10.569,0,0,0,2.2.4c.412,0,.475,0,3.262-.873a2.393,2.393,0,0,0,1.067-.687l1.856-2.074a2.391,2.391,0,0,0,.609-1.594v-2.571a2.413,2.413,0,0,0-1.728-2.338,2.482,2.482,0,0,0-.666-.092Z" transform="translate(1047.067 -391.938)"/>
            </g>
          </g>
        </g>
      </g>
      <g id="Group_6345" data-name="Group 6345" transform="translate(12.603 21.669)">
        <path id="Path_20948" data-name="Path 20948" class="cls-14" d="M-1118.31,329.01a6.494,6.494,0,0,0-5.3-2.812,7.367,7.367,0,0,0-7.245-6.089,7.368,7.368,0,0,0-7.077,5.354,5.073,5.073,0,0,0-2.517,0,7.368,7.368,0,0,0-7.077-5.353,7.366,7.366,0,0,0-7.346,6.975,6.473,6.473,0,0,0-4.982,2.8,1,1,0,0,0,.241,1.39.993.993,0,0,0,.574.182,1,1,0,0,0,.816-.423,4.515,4.515,0,0,1,3.52-1.962,7.368,7.368,0,0,0,7.177,5.75,7.365,7.365,0,0,0,7.356-7.356s0-.008,0-.011a3.121,3.121,0,0,1,1.959.01h0a7.365,7.365,0,0,0,7.356,7.356,7.367,7.367,0,0,0,7.32-6.627,4.523,4.523,0,0,1,3.591,1.966,1,1,0,0,0,.816.423.993.993,0,0,0,.574-.182A1,1,0,0,0-1118.31,329.01Zm-29.213,3.815a5.367,5.367,0,0,1-5.361-5.361,5.367,5.367,0,0,1,5.361-5.361,5.367,5.367,0,0,1,5.361,5.361A5.367,5.367,0,0,1-1147.523,332.825Zm16.671,0a5.367,5.367,0,0,1-5.361-5.361,5.367,5.367,0,0,1,5.361-5.361,5.367,5.367,0,0,1,5.361,5.361A5.367,5.367,0,0,1-1130.852,332.825Z" transform="translate(1162.426 -317.717)"/>
        <path id="Path_20949" data-name="Path 20949" class="cls-3" d="M-1148.467,302.5a7.367,7.367,0,0,1,7.245,6.089,6.5,6.5,0,0,1,5.3,2.812,1,1,0,0,1-.241,1.39.994.994,0,0,1-.574.182,1,1,0,0,1-.816-.423,4.522,4.522,0,0,0-3.591-1.966,7.367,7.367,0,0,1-7.32,6.627,7.364,7.364,0,0,1-7.356-7.356h0a2.89,2.89,0,0,0-.969-.164,3.36,3.36,0,0,0-.99.154s0,.008,0,.011a7.365,7.365,0,0,1-7.356,7.356,7.368,7.368,0,0,1-7.177-5.75,4.515,4.515,0,0,0-3.52,1.962,1,1,0,0,1-.816.423.994.994,0,0,1-.574-.182,1,1,0,0,1-.241-1.39,6.473,6.473,0,0,1,4.982-2.8,7.366,7.366,0,0,1,7.346-6.975,7.368,7.368,0,0,1,7.077,5.353,5.283,5.283,0,0,1,1.274-.158,4.87,4.87,0,0,1,1.243.16,7.368,7.368,0,0,1,7.077-5.354m0,12.717a5.367,5.367,0,0,0,5.361-5.361,5.367,5.367,0,0,0-5.361-5.361,5.367,5.367,0,0,0-5.361,5.361,5.367,5.367,0,0,0,5.361,5.361m-16.671,0a5.367,5.367,0,0,0,5.361-5.361,5.367,5.367,0,0,0-5.361-5.361,5.367,5.367,0,0,0-5.361,5.361,5.367,5.367,0,0,0,5.361,5.361m16.671-15.108a9.647,9.647,0,0,0-5.928,2.015,9.834,9.834,0,0,0-2.407,2.693,9.834,9.834,0,0,0-2.408-2.693,9.648,9.648,0,0,0-5.928-2.015,9.7,9.7,0,0,0-6.721,2.693,9.72,9.72,0,0,0-2.719,4.622,8.774,8.774,0,0,0-4.843,3.475,3.367,3.367,0,0,0-.568,2.53,3.366,3.366,0,0,0,1.387,2.191,3.371,3.371,0,0,0,1.95.618,3.393,3.393,0,0,0,2.771-1.437,2.623,2.623,0,0,1,.2-.256,9.819,9.819,0,0,0,2.4,2.88,9.761,9.761,0,0,0,6.134,2.178,9.75,9.75,0,0,0,8.336-4.7,9.75,9.75,0,0,0,8.336,4.7,9.719,9.719,0,0,0,6.562-2.544,9.767,9.767,0,0,0,2.332-3.216q.031.041.062.085a3.394,3.394,0,0,0,2.771,1.437,3.371,3.371,0,0,0,1.95-.618,3.366,3.366,0,0,0,1.388-2.192,3.365,3.365,0,0,0-.568-2.53,8.823,8.823,0,0,0-3.893-3.146,8.959,8.959,0,0,0-1.487-.465,9.794,9.794,0,0,0-2.812-3.987,9.743,9.743,0,0,0-6.3-2.319Zm0,12.717a2.974,2.974,0,0,1-2.97-2.97,2.974,2.974,0,0,1,2.97-2.97,2.974,2.974,0,0,1,2.97,2.97,2.974,2.974,0,0,1-2.97,2.97Zm-16.671,0a2.974,2.974,0,0,1-2.97-2.97,2.974,2.974,0,0,1,2.97-2.97,2.974,2.974,0,0,1,2.97,2.97,2.974,2.974,0,0,1-2.97,2.97Z" transform="translate(1180.041 -300.108)"/>
      </g>
      <g id="Group_6350" data-name="Group 6350" transform="translate(21.373 25.208)">
        <g id="Group_6346" data-name="Group 6346">
          <circle id="Ellipse_94" data-name="Ellipse 94" class="cls-11" cx="3.613" cy="3.613" r="3.613" transform="translate(2.391 2.391)"/>
          <path id="Path_20950" data-name="Path 20950" class="cls-3" d="M-1100.671,332.1a3.613,3.613,0,0,1,3.613,3.613,3.613,3.613,0,0,1-3.613,3.613,3.613,3.613,0,0,1-3.613-3.613,3.613,3.613,0,0,1,3.613-3.613m0-2.391a6.01,6.01,0,0,0-6,6,6.011,6.011,0,0,0,6,6,6.011,6.011,0,0,0,6-6,6.01,6.01,0,0,0-6-6Z" transform="translate(1106.675 -329.709)"/>
        </g>
        <g id="Group_6347" data-name="Group 6347" transform="translate(3.057 2.578)">
          <ellipse id="Ellipse_95" data-name="Ellipse 95" class="cls-25" cx="1.528" cy="1.912" rx="1.528" ry="1.912" transform="translate(2.391 2.391)"/>
          <path id="Path_20951" data-name="Path 20951" class="cls-3" d="M-1077.186,353.663a1.753,1.753,0,0,1,1.528,1.912,1.753,1.753,0,0,1-1.528,1.912,1.753,1.753,0,0,1-1.528-1.912,1.753,1.753,0,0,1,1.528-1.912m0-2.391a3.777,3.777,0,0,0-2.948,1.458,4.561,4.561,0,0,0-.971,2.845,4.561,4.561,0,0,0,.971,2.845,3.777,3.777,0,0,0,2.948,1.458,3.778,3.778,0,0,0,2.948-1.458,4.562,4.562,0,0,0,.971-2.845,4.562,4.562,0,0,0-.971-2.845,3.778,3.778,0,0,0-2.948-1.458Z" transform="translate(1081.105 -351.272)"/>
        </g>
        <g id="Group_6348" data-name="Group 6348" transform="translate(3.931 4.376)">
          <circle id="Ellipse_96" data-name="Ellipse 96" class="cls-14" cx="0.966" cy="0.966" r="0.966" transform="translate(2.391 2.391)"/>
          <path id="Path_20952" data-name="Path 20952" class="cls-3" d="M-1070.431,368.7a.966.966,0,0,1,.966.966.966.966,0,0,1-.966.966.966.966,0,0,1-.966-.966.966.966,0,0,1,.966-.966m0-2.391a3.36,3.36,0,0,0-3.356,3.357,3.36,3.36,0,0,0,3.356,3.356,3.36,3.36,0,0,0,3.357-3.356,3.36,3.36,0,0,0-3.357-3.357Z" transform="translate(1073.787 -366.314)"/>
        </g>
        <g id="Group_6349" data-name="Group 6349" transform="translate(5.111 4.958)">
          <circle id="Ellipse_97" data-name="Ellipse 97" class="cls-11" cx="0.501" cy="0.501" r="0.501" transform="translate(2.391 2.391)"/>
          <path id="Path_20953" data-name="Path 20953" class="cls-3" d="M-1061.023,373.576a.5.5,0,0,1,.5.5.5.5,0,0,1-.5.5.5.5,0,0,1-.5-.5.5.5,0,0,1,.5-.5m0-2.391a2.9,2.9,0,0,0-2.892,2.891,2.9,2.9,0,0,0,2.892,2.892,2.9,2.9,0,0,0,2.891-2.892,2.9,2.9,0,0,0-2.891-2.891Z" transform="translate(1063.915 -371.185)"/>
        </g>
      </g>
      <g id="Group_6355" data-name="Group 6355" transform="translate(38.173 25.208)">
        <g id="Group_6351" data-name="Group 6351">
          <circle id="Ellipse_98" data-name="Ellipse 98" class="cls-11" cx="3.613" cy="3.613" r="3.613" transform="translate(2.391 2.391)"/>
          <path id="Path_20954" data-name="Path 20954" class="cls-3" d="M-960.128,332.1a3.613,3.613,0,0,1,3.613,3.613,3.613,3.613,0,0,1-3.613,3.613,3.613,3.613,0,0,1-3.613-3.613,3.613,3.613,0,0,1,3.613-3.613m0-2.391a6.01,6.01,0,0,0-6,6,6.011,6.011,0,0,0,6,6,6.011,6.011,0,0,0,6-6,6.01,6.01,0,0,0-6-6Z" transform="translate(966.132 -329.709)"/>
        </g>
        <g id="Group_6352" data-name="Group 6352" transform="translate(1.113 2.578)">
          <ellipse id="Ellipse_99" data-name="Ellipse 99" class="cls-25" cx="1.528" cy="1.912" rx="1.528" ry="1.912" transform="translate(2.391 2.391)"/>
          <path id="Path_20955" data-name="Path 20955" class="cls-3" d="M-952.9,353.663a1.753,1.753,0,0,1,1.528,1.912,1.753,1.753,0,0,1-1.528,1.912,1.753,1.753,0,0,1-1.528-1.912,1.753,1.753,0,0,1,1.528-1.912m0-2.391a3.777,3.777,0,0,0-2.948,1.458,4.561,4.561,0,0,0-.971,2.845,4.561,4.561,0,0,0,.971,2.845,3.777,3.777,0,0,0,2.948,1.458,3.778,3.778,0,0,0,2.948-1.458,4.562,4.562,0,0,0,.971-2.845,4.562,4.562,0,0,0-.971-2.845,3.778,3.778,0,0,0-2.948-1.458Z" transform="translate(956.821 -351.272)"/>
        </g>
        <g id="Group_6353" data-name="Group 6353" transform="translate(1.363 4.376)">
          <circle id="Ellipse_100" data-name="Ellipse 100" class="cls-14" cx="0.966" cy="0.966" r="0.966" transform="translate(2.391 2.391)"/>
          <path id="Path_20956" data-name="Path 20956" class="cls-3" d="M-951.372,368.7a.966.966,0,0,1,.966.966.966.966,0,0,1-.966.966.966.966,0,0,1-.966-.966.966.966,0,0,1,.966-.966m0-2.391a3.36,3.36,0,0,0-3.356,3.357,3.36,3.36,0,0,0,3.356,3.356,3.36,3.36,0,0,0,3.356-3.356,3.36,3.36,0,0,0-3.356-3.357Z" transform="translate(954.728 -366.314)"/>
        </g>
        <g id="Group_6354" data-name="Group 6354" transform="translate(1.113 4.958)">
          <circle id="Ellipse_101" data-name="Ellipse 101" class="cls-11" cx="0.501" cy="0.501" r="0.501" transform="translate(2.391 2.391)"/>
          <path id="Path_20957" data-name="Path 20957" class="cls-3" d="M-953.929,373.576a.5.5,0,0,1,.5.5.5.5,0,0,1-.5.5.5.5,0,0,1-.5-.5.5.5,0,0,1,.5-.5m0-2.391a2.9,2.9,0,0,0-2.892,2.891,2.9,2.9,0,0,0,2.892,2.892,2.9,2.9,0,0,0,2.892-2.892,2.9,2.9,0,0,0-2.892-2.891Z" transform="translate(956.821 -371.185)"/>
        </g>
      </g>
      <g id="Group_6356" data-name="Group 6356" transform="translate(41.468 25.062)">
        <path id="Path_20958" data-name="Path 20958" class="cls-14" d="M-918.57,348.651a3.1,3.1,0,0,1,1.679-.084,3.1,3.1,0,0,1,1.549.836c.053.054.109.105.159.163l.135.183a2.1,2.1,0,0,1,.239.383c.062.137.126.272.182.409.04.142.072.286.1.428.016.071.031.142.042.213l.009.216c0,.143.005.286,0,.426a4.622,4.622,0,0,1-.169.822c-.109-.267-.166-.525-.248-.773-.049-.122-.095-.242-.136-.361l-.061-.178-.083-.166c-.055-.11-.1-.22-.154-.329-.068-.1-.128-.2-.19-.3a1.707,1.707,0,0,0-.208-.277l-.1-.137c-.038-.043-.084-.079-.124-.119a4.1,4.1,0,0,0-1.157-.806A10.243,10.243,0,0,0-918.57,348.651Z" transform="translate(920.961 -346.1)"/>
        <path id="Path_20959" data-name="Path 20959" class="cls-3" d="M-935.224,330.881a3.62,3.62,0,0,1,.724.076,3.1,3.1,0,0,1,1.549.837c.053.054.109.105.159.163l.135.183a2.1,2.1,0,0,1,.239.383c.062.137.126.272.182.409.04.142.072.286.1.428.016.071.031.142.042.213l.009.216c0,.143.005.285,0,.426a4.623,4.623,0,0,1-.169.822c-.109-.267-.166-.525-.248-.773-.049-.122-.095-.242-.136-.361l-.061-.178-.083-.166c-.055-.11-.1-.22-.154-.329-.068-.1-.128-.2-.19-.3a1.708,1.708,0,0,0-.208-.277l-.1-.137c-.038-.043-.084-.079-.124-.119a4.1,4.1,0,0,0-1.157-.806,10.238,10.238,0,0,0-1.466-.551,2.794,2.794,0,0,1,.955-.16m0-2.391a5.178,5.178,0,0,0-1.77.3,2.391,2.391,0,0,0-1.575,2.311,2.391,2.391,0,0,0,1.7,2.224,7.887,7.887,0,0,1,1.125.418,1.752,1.752,0,0,1,.487.326l.021.021.024.024.005.007c.031.039.059.074.084.1l.007.01.092.148q.052.112.111.233l0,.007.01.021.008.024.008.022c.042.119.087.241.139.373.012.04.026.086.04.135a7.162,7.162,0,0,0,.248.738,2.391,2.391,0,0,0,2.213,1.487l.108,0a2.391,2.391,0,0,0,2.178-1.687,7,7,0,0,0,.258-1.249q.014-.117.016-.235c0-.185,0-.367,0-.543,0-.008,0-.016,0-.024l-.009-.216a2.377,2.377,0,0,0-.031-.3c-.018-.108-.04-.218-.066-.335-.034-.155-.077-.347-.136-.558a2.362,2.362,0,0,0-.086-.25c-.066-.162-.132-.307-.191-.435l-.014-.03a3.647,3.647,0,0,0-.415-.716l-.025-.036q-.034-.051-.07-.1l-.135-.183q-.051-.069-.107-.134c-.1-.117-.193-.208-.249-.262l-.022-.022A5.516,5.516,0,0,0-934,328.619l-.021,0a6.018,6.018,0,0,0-1.2-.125Z" transform="translate(938.57 -328.49)"/>
      </g>
      <g id="Group_6357" data-name="Group 6357" transform="translate(21.203 25.062)">
        <path id="Path_20960" data-name="Path 20960" class="cls-14" d="M-1084,348.651a3.1,3.1,0,0,0-1.679-.084,3.1,3.1,0,0,0-1.549.836c-.053.054-.109.105-.159.163l-.135.183a2.108,2.108,0,0,0-.239.383c-.062.137-.126.272-.182.409-.04.142-.072.286-.1.428-.016.071-.031.142-.043.213l-.009.216c0,.143-.005.286,0,.426a4.617,4.617,0,0,0,.169.822c.109-.267.166-.525.248-.773.049-.122.095-.242.136-.361l.06-.178.083-.166c.055-.11.1-.22.154-.329.068-.1.128-.2.19-.3a1.721,1.721,0,0,1,.208-.277l.1-.137c.038-.043.084-.079.124-.119a4.1,4.1,0,0,1,1.157-.806A10.25,10.25,0,0,1-1084,348.651Z" transform="translate(1090.49 -346.1)"/>
        <path id="Path_20961" data-name="Path 20961" class="cls-3" d="M-1102.562,330.881a2.794,2.794,0,0,1,.955.16,10.241,10.241,0,0,0-1.466.551,4.1,4.1,0,0,0-1.157.806c-.041.04-.086.076-.124.119l-.1.137a1.715,1.715,0,0,0-.208.277c-.062.1-.122.2-.19.3-.049.109-.1.219-.154.329l-.083.166-.06.178c-.042.119-.088.239-.136.361-.082.248-.139.506-.248.773a4.629,4.629,0,0,1-.169-.822c0-.14,0-.283,0-.426l.009-.216c.012-.071.026-.142.043-.213.031-.142.063-.286.1-.428.056-.137.119-.272.182-.409a2.1,2.1,0,0,1,.239-.383l.135-.183c.049-.057.105-.109.159-.163a3.1,3.1,0,0,1,1.549-.837,3.621,3.621,0,0,1,.724-.076m0-2.391a6.018,6.018,0,0,0-1.2.125l-.021,0a5.518,5.518,0,0,0-2.752,1.5l-.02.019c-.056.055-.148.146-.249.263-.037.043-.073.088-.107.134l-.135.183q-.036.049-.07.1l-.025.036a3.65,3.65,0,0,0-.415.716l-.014.03c-.059.128-.125.272-.191.435a2.361,2.361,0,0,0-.086.251c-.059.21-.1.41-.136.557-.026.118-.048.227-.066.336a2.4,2.4,0,0,0-.031.3l-.009.216c0,.008,0,.016,0,.024-.006.175-.007.358,0,.543q0,.118.016.235a7.025,7.025,0,0,0,.258,1.249,2.391,2.391,0,0,0,2.178,1.687l.108,0a2.391,2.391,0,0,0,2.213-1.487,7.127,7.127,0,0,0,.248-.738c.014-.048.028-.1.04-.135.052-.132.1-.254.139-.373l.008-.022.008-.024.01-.021,0-.007c.04-.08.077-.158.111-.233l.092-.148.007-.011c.025-.029.053-.064.084-.1l.005-.007.024-.024.021-.021a1.762,1.762,0,0,1,.49-.328,7.875,7.875,0,0,1,1.122-.417,2.39,2.39,0,0,0,1.7-2.224,2.391,2.391,0,0,0-1.575-2.311,5.179,5.179,0,0,0-1.77-.3Z" transform="translate(1108.1 -328.49)"/>
      </g>
    </g>
    <g id="Group_6359" data-name="Group 6359" transform="translate(-1316.344 186.052)">
      <rect id="Rectangle_64" data-name="Rectangle 64" class="cls-26" width="42.5" height="3.146" rx="1.573" transform="translate(2.391 2.391)"/>
      <path id="Path_20962" data-name="Path 20962" class="cls-3" d="M-1272.073,683.574a.619.619,0,0,1,.619.619V686.1a.619.619,0,0,1-.619.619h-41.261a.619.619,0,0,1-.619-.619v-1.907a.619.619,0,0,1,.619-.619h41.261m0-2.391h-41.261a3.014,3.014,0,0,0-3.01,3.01V686.1a3.014,3.014,0,0,0,3.01,3.01h41.261a3.014,3.014,0,0,0,3.01-3.01v-1.907a3.014,3.014,0,0,0-3.01-3.01Z" transform="translate(1316.344 -681.183)"/>
    </g>
    <g id="Group_6364" data-name="Group 6364" transform="translate(-1316.315 163.735)">
      <g id="Group_6360" data-name="Group 6360" transform="translate(0)">
        <rect id="Rectangle_65" data-name="Rectangle 65" class="cls-26" width="42.682" height="23.192" rx="11.596" transform="translate(2.391 2.391)"/>
        <path id="Path_20963" data-name="Path 20963" class="cls-1" d="M-1273.081,496.875a2.051,2.051,0,0,1,2.051,2.051v19.091a2.051,2.051,0,0,1-2.051,2.051h-38.58a2.051,2.051,0,0,1-2.051-2.051V498.925a2.051,2.051,0,0,1,2.051-2.051h38.58m0-2.391h-38.58a4.447,4.447,0,0,0-4.442,4.441v19.091a4.447,4.447,0,0,0,4.442,4.441h38.58a4.447,4.447,0,0,0,4.442-4.441V498.925a4.447,4.447,0,0,0-4.442-4.441Z" transform="translate(1316.103 -494.484)"/>
      </g>
      <g id="Group_6363" data-name="Group 6363" transform="translate(2.391 2.391)">
        <g id="Group_6362" data-name="Group 6362" class="cls-27">
          <g id="Group_6361" data-name="Group 6361" transform="translate(-3.447 -3.105)">
            <path id="Path_20964" data-name="Path 20964" class="cls-28" d="M-1304.941,524.081s14.321,18.646,39.029-15.576h9.319l-.821,21.677-5.114,6.733-17.455,1.554-19.96-1.036-5-5.021Z" transform="translate(1307.332 -506.114)"/>
            <path id="Path_20965" data-name="Path 20965" class="cls-3" d="M-1274.2,490.9h0m0,0-.821,21.677-5.114,6.733-17.454,1.554-19.96-1.036-5-5.021v-8.33a14.682,14.682,0,0,0,11.125,5.07c6.635,0,16.08-4.269,27.9-20.647h9.319m0-2.391h-9.32a2.391,2.391,0,0,0-1.938.991c-5.248,7.268-10.391,12.61-15.286,15.876-3.759,2.508-7.353,3.78-10.679,3.78a12.189,12.189,0,0,1-6.793-2.031,11.3,11.3,0,0,1-2.441-2.112,2.359,2.359,0,0,0-1.891-.943,2.42,2.42,0,0,0-.764.124,2.4,2.4,0,0,0-1.627,2.281v8.33a2.391,2.391,0,0,0,.7,1.687l5,5.021a2.391,2.391,0,0,0,1.57.7l19.96,1.036q.062,0,.124,0c.071,0,.141,0,.212-.009l17.454-1.554a2.391,2.391,0,0,0,1.692-.935l5.114-6.733a2.391,2.391,0,0,0,.485-1.356l.819-21.635q0-.065,0-.132a2.391,2.391,0,0,0-2.39-2.391Zm0,4.781h0Z" transform="translate(1324.941 -488.505)"/>
          </g>
        </g>
      </g>
    </g>
    <g id="Group_6390" data-name="Group 6390" transform="translate(-1310.261 121.232)">
      <g id="Group_6367" data-name="Group 6367" transform="translate(0 0)">
        <path id="Path_20966" data-name="Path 20966" class="cls-2" d="M-1232.468,142.553s.728-1.941,5.094-2.377a63.239,63.239,0,0,0,7.763-1.261s-1.359,1.941-2.377,2.135c0,0,7.035.194,11.353,4.657l-4.027-.485s8.49,3.057,10.285,10.237,3.687,11.159,5.288,12.663c0,0-1.65.728-4.561-2.28,0,0,2.571,4.657,2.474,8.2s-2.038,5.87-1.455,12.08a4.244,4.244,0,0,1-1.941-3.008s.194,14.312-17.417,18.921c0,0,2.717-4.172,2.765-7.035,0,0-2.717,2.668-4.124,3.008,0,0,.049-2.377-.97-2.862,0,0-1.5,4.706-6.016,6.21a14.635,14.635,0,0,0,1.164-6.4s-3.008,7.811-6.259,9.315c0,0-4.318-1.067-6.21-10.528a6.046,6.046,0,0,0-.776,3.639s-3.59-3.493-3.784-4.657c0,0,1.067,7.083,4.561,9.072,0,0-11.4-2.086-15.089-8.733s-2.62-9.509-2.62-9.509-2.038,2.814-3.3,3.057c0,0,.922-5.531,0-8.733s-.34-9.9,1.892-11.6a11.062,11.062,0,0,1-4.706,2.086,34.842,34.842,0,0,0,6.259-14.652c1.358-8.49,12.08-8.587,12.08-8.587s-4.9-.679-6.841.922a16.094,16.094,0,0,1,11.692-4.851s-2.62-1.213-2.62-2.28a20.56,20.56,0,0,0,8.393,1.31S-1232.468,139.739-1232.468,142.553Z" transform="translate(1265.459 -138.914)"/>
        <g id="Group_6366" data-name="Group 6366">
          <g id="Group_6365" data-name="Group 6365" class="cls-4">
            <path id="Path_20967" data-name="Path 20967" class="cls-5" d="M-1312.034,243.5s2.01,4.075,3.552,4.124,5.666-6.356,6.321-9.024c0,0-2.45.388-3.226-.485,0,0,4.464-2.6,6.113-9.958s6.646-9.06,6.646-9.06-4.948-1.261-5-1.747a50.233,50.233,0,0,0,7.271-.388c1.8-.437,8.884.049,9.927,3.59a11.331,11.331,0,0,1,8.951-3.725c5.725.28,7.277.959,8.345.523A22.131,22.131,0,0,1-1267.3,219s5.676,2.717,6.453,8.878,4.318,9.509,6.016,10.043c0,0-1.892,1.438-2.911,1.18,0,0,4.631,13.21,8.968,5.89q.052-.088.1-.181c4.366-7.714,1.7,25.768,1.7,25.768l-36.6,6.883-23.608-6.4s-12.663-18.048-12.663-18.776S-1312.034,243.5-1312.034,243.5Z" transform="translate(1313.344 -207.504)"/>
            <path id="Path_20968" data-name="Path 20968" class="cls-5" d="M-800.87,287.173s-7.239-1.81-9.715-3.662l.291,5.336s3.784.728,5.24,2.11,4.148,5.24,7.787,4.876Z" transform="translate(864.959 -266.226)"/>
            <path id="Path_20969" data-name="Path 20969" class="cls-5" d="M-865.845,191.617s-.2-2.6.643-3.59c0,0-2.923-2.911-5.349-3.008,0,0,5.822-.243,8.83.873l.582,2.415Z" transform="translate(917.757 -179.488)"/>
            <path id="Path_20970" data-name="Path 20970" class="cls-5" d="M-957.406,133.424a7.681,7.681,0,0,1,2.911-1.164c1.5-.194,3.639-.049,4.512-2.717l2.717-.776-.485,2.329-1.564,1.154A21.616,21.616,0,0,0-957.406,133.424Z" transform="translate(994.229 -129.98)"/>
            <path id="Path_20971" data-name="Path 20971" class="cls-5" d="M-1091.666,133.182a4.31,4.31,0,0,0-2.439-1.067c-1.588-.194-2.947-.922-2.849-2.135l-2.911-1.213V131.1s3.153,1.552,4.1,1.552A15,15,0,0,1-1091.666,133.182Z" transform="translate(1119.659 -129.98)"/>
            <path id="Path_20972" data-name="Path 20972" class="cls-5" d="M-1278.478,288.4s7.665-1.07,9.9-3.165l.243,4.487s-7.471,3.905-9.849,7.653-4.318,1.426-4.318,1.426l.873-4.616Z" transform="translate(1280.467 -267.745)"/>
            <path id="Path_20973" data-name="Path 20973" class="cls-5" d="M-1181.821,197.768l.573-.2s-2.179-4.753-.287-5.084l-3.974,1.232-1.213.854Z" transform="translate(1196.133 -186.084)"/>
          </g>
        </g>
      </g>
      <path id="Path_20975" data-name="Path 20975" class="cls-6" d="M-987.339,186s1.88-5.2,7.12-4.767,3.6,3.893,2.11,2.8S-985.144,182.837-987.339,186Z" transform="translate(1020.584 -176.154)"/>
      <path id="Path_20976" data-name="Path 20976" class="cls-6" d="M-1095.687,181.867a9.5,9.5,0,0,0-8.405-5.64c-6.259-.182-8.058,6.818-.218,2.989C-1101.618,177.9-1095.687,181.867-1095.687,181.867Z" transform="translate(1128.157 -171.764)"/>
      <path id="Path_20977" data-name="Path 20977" class="cls-6" d="M-764.316,361.937s1.637,8.842,1.455,12.19C-762.86,374.127-759.113,370.524-764.316,361.937Z" transform="translate(824.221 -335.278)"/>
      <path id="Path_20978" data-name="Path 20978" class="cls-6" d="M-1234.076,378.887s-.619-9.388,1.019-12.08C-1233.057,366.807-1238.151,374.266-1234.076,378.887Z" transform="translate(1239.219 -339.566)"/>
      <path id="Path_20979" data-name="Path 20979" class="cls-6" d="M-1100.3,565.09a2.8,2.8,0,0,1,.572.465,4.123,4.123,0,0,1,.45.541,5.64,5.64,0,0,1,.574,1.264c.177.429.339.864.484,1.3s.27.89.362,1.345l-.081.029c-.219-.406-.435-.807-.672-1.2l-.7-1.17a7.318,7.318,0,0,1-.713-1.161,4.366,4.366,0,0,1-.346-1.375Z" transform="translate(1120.108 -514.147)"/>
      <path id="Path_20980" data-name="Path 20980" class="cls-6" d="M-1033.842,600.909s-3.057-4.912-2.292-7.459,1.747-2.874,1.783-2.292-1.178,1.492-.7,3.238,1.208,5.2,1.208,5.2-.073-6.331,1.419-6.841.8,2.292.364,3.675S-1033.842,600.909-1033.842,600.909Z" transform="translate(1063.655 -536.881)"/>
      <path id="Path_20981" data-name="Path 20981" class="cls-6" d="M-944.216,593.226a10.922,10.922,0,0,0,.837-4.316c-.182-1.892.728-.873.8.327A7.487,7.487,0,0,1-944.216,593.226Z" transform="translate(982.616 -534.197)"/>
      <path id="Path_20982" data-name="Path 20982" class="cls-6" d="M-898.714,560.768a16.435,16.435,0,0,1,3.275-4.912,4.219,4.219,0,0,0,1.565-2.147S-894.9,558.966-898.714,560.768Z" transform="translate(942.572 -504.126)"/>
      <g id="Group_6370" data-name="Group 6370" transform="translate(11.183 11.934)">
        <path id="Path_20983" data-name="Path 20983" class="cls-7" d="M-1149.844,243.8s1.589-5.458,9.594-5.021l-1.819,1.747s6.622-.655,8.3,3.639,2.62,11.207,6.477,12.226c0,0-2.838,1.237-4.075,0,0,0,3.784,4,2.911,12.954l-.946-3.42s-1.213,11.789-20.437,12.153-19.807-12.153-19.807-12.153a4.816,4.816,0,0,0-.8,3.566s-2.911-3.42,2.4-13.754a4.728,4.728,0,0,1-3.857.873,12.467,12.467,0,0,0,4.512-8.223c.437-5.167,5.676-8.951,9.533-8.151,0,0-1.237-1.505-1.674-1.48C-1159.535,238.75-1150.7,238.629-1149.844,243.8Z" transform="translate(1171.906 -238.749)"/>
        <g id="Group_6369" data-name="Group 6369">
          <g id="Group_6368" data-name="Group 6368" class="cls-8">
            <path id="Path_20984" data-name="Path 20984" class="cls-9" d="M-1185.605,348.873a8.233,8.233,0,0,0,6.647-4.657s-2.038,8.684-3.978,11.061a5.551,5.551,0,0,1,2.765-2.135s-2.232,7.714,1.941,10.867c0,0-2.523-9.557,6.453-9.9,0,0,4.755-4.561,8.442-4.8s8.587,4.172,8.587,4.172,5.482.437,6.938,3.542a12.118,12.118,0,0,1,.522,6.986s3.02-1.213,2.486-10.722a7.255,7.255,0,0,1,2.086,2.183s-4-10.965-4.718-11.6c0,0,4.621,5.191,7.726,6.016l-1.844.825s2.668,8.781,1.213,12.08l-2.086,1.5-11.6,7.132-12.76,1.365-13.2-5.052-6.744-6.55,2.086-8.2Z" transform="translate(1184.95 -331.31)"/>
            <path id="Path_20985" data-name="Path 20985" class="cls-9" d="M-1109.516,242.582s6.853-2.525,10.334.157c0,0-4-3.431-7.095-2.849Z" transform="translate(1116.974 -239.696)"/>
            <path id="Path_20986" data-name="Path 20986" class="cls-9" d="M-948.325,235.568s3.633-3.468,5.494-3.711l2.541,2.911A29.957,29.957,0,0,0-948.325,235.568Z" transform="translate(975.051 -232.681)"/>
          </g>
        </g>
      </g>
      <path id="Path_20988" data-name="Path 20988" class="cls-10" d="M-1108.22,265.882s-1.71-2.292-6-.982a7.562,7.562,0,0,0-5.021,5.676S-1114.988,265.009-1108.22,265.882Z" transform="translate(1136.723 -249.484)"/>
      <path id="Path_20989" data-name="Path 20989" class="cls-10" d="M-947.869,265.6s4.148-2.583,7.5-.691a6.24,6.24,0,0,1,3.384,4.985S-939.864,264.833-947.869,265.6Z" transform="translate(985.832 -249.235)"/>
      <g id="Group_6373" data-name="Group 6373" transform="translate(18.928 32.423)">
        <path id="Path_20990" data-name="Path 20990" class="cls-11" d="M-1101.065,413.163s6.076-6.638,16.992-.182c0,0,5.931.036,5.968,5.895s-7.892,8.005-7.892,8.005-3.339,3.129-6.857,2.693a12.5,12.5,0,0,1-6.174-2.874s-7.787-1.274-8.078-8.151C-1107.1,418.548-1107.505,413.345-1101.065,413.163Z" transform="translate(1107.11 -410.158)"/>
        <g id="Group_6372" data-name="Group 6372">
          <g id="Group_6371" data-name="Group 6371" class="cls-12">
            <path id="Path_20991" data-name="Path 20991" class="cls-13" d="M-1038.58,446.031s9.024,2.668,12.566-2.862c0,0,9.994-1.164,2.911-12.032l3.4,1.116,1.941,2.086.764,3.445L-1018.4,442l-3.008,2.474-3.93,1.7-2.959,1.91-3.4.565-3.672-.243Z" transform="translate(1046.772 -428.629)"/>
          </g>
        </g>
      </g>
      <path id="Path_20993" data-name="Path 20993" class="cls-14" d="M-1051.669,473.329s5.951,6.841,15.44-.388C-1036.229,472.941-1044.033,485.846-1051.669,473.329Z" transform="translate(1077.224 -433.013)"/>
      <path id="Path_20994" data-name="Path 20994" class="cls-14" d="M-1107.11,306.823a3.652,3.652,0,0,1,1.024-1.707,5.062,5.062,0,0,1,1.693-1.1c.156-.067.321-.108.482-.162a3.207,3.207,0,0,1,.493-.118c.167-.027.332-.058.5-.076s.336-.013.5-.015a2.673,2.673,0,0,1,.5.027c.166.02.33.045.492.073a5.107,5.107,0,0,1,.943.317c-.325.115-.635.163-.938.243-.151.042-.3.081-.449.115l-.221.05-.216.065c-.144.041-.287.08-.43.114-.139.049-.279.092-.418.137l-.209.062-.2.079c-.135.052-.275.088-.406.15a12.546,12.546,0,0,0-1.569.752A16.6,16.6,0,0,0-1107.11,306.823Z" transform="translate(1126.038 -283.948)"/>
      <path id="Path_20995" data-name="Path 20995" class="cls-14" d="M-915.907,302.887a3.9,3.9,0,0,1,1.815-.171,4.994,4.994,0,0,1,1.755.565,4.3,4.3,0,0,1,1.419,1.213,3.372,3.372,0,0,1,.688,1.7c-.494-.389-.876-.771-1.325-1.074a10.772,10.772,0,0,0-1.328-.843c-.46-.25-.937-.481-1.439-.7Z" transform="translate(957.691 -283.104)"/>
      <g id="Group_6379" data-name="Group 6379" transform="translate(50.99 7.239)">
        <path id="Path_20996" data-name="Path 20996" class="cls-15" d="M-838.894,204.669s3.275-6.43,10.152-4.98,4.439,9.746,4.439,9.746a7.351,7.351,0,0,1-7.086,5.2s-1.538-3.275-3.284-3.748c0,0,2.785.655,3.284,1.637a9.129,9.129,0,0,0-3.976-4.949,2.18,2.18,0,0,1,2.292-.146S-836.019,204.887-838.894,204.669Z" transform="translate(838.894 -199.476)"/>
        <g id="Group_6378" data-name="Group 6378">
          <g id="Group_6377" data-name="Group 6377" class="cls-16">
            <path id="Path_20997" data-name="Path 20997" class="cls-17" d="M-824.841,235.018s5.411,2.145,6.69.8l-.467,4.73-1.965,4.421-3.966,2.056-3.893-.4-3.384-2.11-1.273-4.039-.619-2.838,2.147-.218,1.283.046Z" transform="translate(834.338 -230.769)"/>
            <g id="Group_6376" data-name="Group 6376" transform="translate(2.511 4.249)">
              <path id="Path_20998" data-name="Path 20998" class="cls-10" d="M-816.908,237.927s3.966-3.566,6.477-2.8,2.11,3.893,2,4.8-2.766,5.349-6.841,3.166l-2.183-.982-.437-3.6Z" transform="translate(817.89 -235.018)"/>
              <g id="Group_6375" data-name="Group 6375">
                <g id="Group_6374" data-name="Group 6374" class="cls-18">
                  <path id="Path_20999" data-name="Path 20999" class="cls-19" d="M-825.8,257.392s4.33-.218,5.2.946,4.148,3.02,5.895-1.419c0,0,.619,3.857-2.693,5.676s-7.787-.582-7.787-.582Z" transform="translate(824.859 -254.301)"/>
                </g>
              </g>
            </g>
          </g>
        </g>
      </g>
      <g id="Group_6384" data-name="Group 6384" transform="translate(0.488 7.636)">
        <path id="Path_21002" data-name="Path 21002" class="cls-15" d="M-1246.288,207.965a8.418,8.418,0,0,0-8.781-5.143c-6.792.485-6.5,7.617-6.161,9.266s3.836,5.87,7.4,5.725a5.873,5.873,0,0,1,2.448-3.348,11.088,11.088,0,0,0-2.448,1.154,10.364,10.364,0,0,1,4.1-5.084h-2.183S-1249.322,207.92-1246.288,207.965Z" transform="translate(1261.374 -202.793)"/>
        <g id="Group_6383" data-name="Group 6383">
          <g id="Group_6382" data-name="Group 6382" class="cls-20">
            <path id="Path_21003" data-name="Path 21003" class="cls-17" d="M-1263.038,237.3s-4.852,1.6-5.676-.389-.243,8.529-.243,8.529l7.18,3.455h2.474l3.4-4.512s1.5-2.98,1.5-3.212-.582-2.088-.582-2.088h-4.124Z" transform="translate(1268.226 -232.609)"/>
            <path id="Path_21004" data-name="Path 21004" class="cls-10" d="M-1229.567,240.874c.146-.12-2.939-4.341-7.024-2.546s.378,9.2,5.132,8.189l2.814-1.93a10.068,10.068,0,0,1-.243-1.455A20.936,20.936,0,0,0-1229.567,240.874Z" transform="translate(1240.965 -233.69)"/>
            <g id="Group_6381" data-name="Group 6381" transform="translate(2.771 4.195)">
              <g id="Group_6380" data-name="Group 6380" class="cls-21">
                <path id="Path_21005" data-name="Path 21005" class="cls-19" d="M-1243.347,262.9s2.377,3.518,4.609,2.063,4.027-2.355,5.919-1.735l-3.153,6.324-3.108-.38S-1243.783,265.542-1243.347,262.9Z" transform="translate(1242.756 -259.909)"/>
              </g>
            </g>
          </g>
        </g>
      </g>
      <path id="Path_21008" data-name="Path 21008" class="cls-9" d="M-965.219,339.672s2.365-4.371,6.258-5.426C-958.961,334.246-964.64,333.383-965.219,339.672Z" transform="translate(1001.108 -310.862)"/>
      <path id="Path_21009" data-name="Path 21009" class="cls-9" d="M-1054.035,339.672s-2.365-4.371-6.258-5.426C-1060.293,334.246-1054.614,333.383-1054.035,339.672Z" transform="translate(1084.818 -310.862)"/>
      <path id="Path_21010" data-name="Path 21010" class="cls-9" d="M-885.085,385.569a8.2,8.2,0,0,1-3.828,6.139S-885.753,393.445-885.085,385.569Z" transform="translate(933.924 -356.085)"/>
      <path id="Path_21011" data-name="Path 21011" class="cls-9" d="M-1110.4,385.584a8.2,8.2,0,0,0,3.6,6.275S-1110.025,393.479-1110.4,385.584Z" transform="translate(1128.939 -356.098)"/>
      <g id="Group_6387" data-name="Group 6387" transform="translate(28.975 31.056)">
        <path id="Path_21012" data-name="Path 21012" class="cls-22" d="M-1022.758,401.942s-1.286-1.691,1.431-2.677,7.193-.679,7.2,1.338-1.5,3.74-4.118,3.983S-1022.758,401.942-1022.758,401.942Z" transform="translate(1023.062 -398.723)"/>
        <g id="Group_6386" data-name="Group 6386">
          <g id="Group_6385" data-name="Group 6385" class="cls-23">
            <path id="Path_21013" data-name="Path 21013" class="cls-24" d="M-1027.066,413.234s3.238,2.693,5.967,1.783a7.835,7.835,0,0,0,3.93-2.753v2.571l-1.856,2.074s-2.438.764-2.547.764-3.275-.691-3.42-.728-2.219-1.674-2.074-1.783A8.532,8.532,0,0,0-1027.066,413.234Z" transform="translate(1026.594 -410.645)"/>
          </g>
        </g>
      </g>
      <path id="Path_21015" data-name="Path 21015" class="cls-14" d="M-1118.31,329.01a6.494,6.494,0,0,0-5.3-2.812,7.367,7.367,0,0,0-7.245-6.089,7.368,7.368,0,0,0-7.077,5.354,5.073,5.073,0,0,0-2.517,0,7.368,7.368,0,0,0-7.077-5.353,7.366,7.366,0,0,0-7.346,6.975,6.473,6.473,0,0,0-4.982,2.8,1,1,0,0,0,.241,1.39.993.993,0,0,0,.574.182,1,1,0,0,0,.816-.423,4.515,4.515,0,0,1,3.52-1.962,7.368,7.368,0,0,0,7.177,5.75,7.365,7.365,0,0,0,7.356-7.356s0-.008,0-.011a3.121,3.121,0,0,1,1.959.01h0a7.365,7.365,0,0,0,7.356,7.356,7.367,7.367,0,0,0,7.32-6.627,4.523,4.523,0,0,1,3.591,1.966,1,1,0,0,0,.816.423.993.993,0,0,0,.574-.182A1,1,0,0,0-1118.31,329.01Zm-29.213,3.815a5.367,5.367,0,0,1-5.361-5.361,5.367,5.367,0,0,1,5.361-5.361,5.367,5.367,0,0,1,5.361,5.361A5.367,5.367,0,0,1-1147.523,332.825Zm16.671,0a5.367,5.367,0,0,1-5.361-5.361,5.367,5.367,0,0,1,5.361-5.361,5.367,5.367,0,0,1,5.361,5.361A5.367,5.367,0,0,1-1130.852,332.825Z" transform="translate(1172.636 -298.449)"/>
      <g id="Group_6388" data-name="Group 6388" transform="translate(21.371 25.198)">
        <circle id="Ellipse_102" data-name="Ellipse 102" class="cls-11" cx="3.613" cy="3.613" r="3.613"/>
        <ellipse id="Ellipse_103" data-name="Ellipse 103" class="cls-25" cx="1.528" cy="1.912" rx="1.528" ry="1.912" transform="translate(3.056 2.578)"/>
        <circle id="Ellipse_104" data-name="Ellipse 104" class="cls-14" cx="0.966" cy="0.966" r="0.966" transform="translate(3.931 4.376)"/>
        <circle id="Ellipse_105" data-name="Ellipse 105" class="cls-11" cx="0.501" cy="0.501" r="0.501" transform="translate(5.111 4.958)"/>
      </g>
      <g id="Group_6389" data-name="Group 6389" transform="translate(38.171 25.198)">
        <circle id="Ellipse_106" data-name="Ellipse 106" class="cls-11" cx="3.613" cy="3.613" r="3.613"/>
        <ellipse id="Ellipse_107" data-name="Ellipse 107" class="cls-25" cx="1.528" cy="1.912" rx="1.528" ry="1.912" transform="translate(1.113 2.578)"/>
        <circle id="Ellipse_108" data-name="Ellipse 108" class="cls-14" cx="0.966" cy="0.966" r="0.966" transform="translate(1.363 4.376)"/>
        <circle id="Ellipse_109" data-name="Ellipse 109" class="cls-11" cx="0.501" cy="0.501" r="0.501" transform="translate(1.113 4.958)"/>
      </g>
      <path id="Path_21016" data-name="Path 21016" class="cls-14" d="M-918.57,348.651a3.1,3.1,0,0,1,1.679-.084,3.1,3.1,0,0,1,1.549.836c.053.054.109.105.159.163l.135.183a2.1,2.1,0,0,1,.239.383c.062.137.126.272.182.409.04.142.072.286.1.428.016.071.031.142.042.213l.009.216c0,.143.005.286,0,.426a4.622,4.622,0,0,1-.169.822c-.109-.267-.166-.525-.248-.773-.049-.122-.095-.242-.136-.361l-.061-.178-.083-.166c-.055-.11-.1-.22-.154-.329-.068-.1-.128-.2-.19-.3a1.707,1.707,0,0,0-.208-.277l-.1-.137c-.038-.043-.084-.079-.124-.119a4.1,4.1,0,0,0-1.157-.806A10.243,10.243,0,0,0-918.57,348.651Z" transform="translate(960.036 -323.439)"/>
      <path id="Path_21017" data-name="Path 21017" class="cls-14" d="M-1084,348.651a3.1,3.1,0,0,0-1.679-.084,3.1,3.1,0,0,0-1.549.836c-.053.054-.109.105-.159.163l-.135.183a2.108,2.108,0,0,0-.239.383c-.062.137-.126.272-.182.409-.04.142-.072.286-.1.428-.016.071-.031.142-.043.213l-.009.216c0,.143-.005.286,0,.426a4.617,4.617,0,0,0,.169.822c.109-.267.166-.525.248-.773.049-.122.095-.242.136-.361l.06-.178.083-.166c.055-.11.1-.22.154-.329.068-.1.128-.2.19-.3a1.721,1.721,0,0,1,.208-.277l.1-.137c.038-.043.084-.079.124-.119a4.1,4.1,0,0,1,1.157-.806A10.25,10.25,0,0,1-1084,348.651Z" transform="translate(1109.301 -323.439)"/>
    </g>
    <rect id="Rectangle_67" data-name="Rectangle 67" class="cls-26" width="42.5" height="3.146" rx="1.573" transform="translate(-1313.953 188.443)"/>
    <g id="Group_6393" data-name="Group 6393" transform="translate(-1313.924 166.126)">
      <rect id="Rectangle_68" data-name="Rectangle 68" class="cls-26" width="42.682" height="23.192" rx="11.596"/>
      <g id="Group_6392" data-name="Group 6392">
        <g id="Group_6391" data-name="Group 6391" class="cls-27">
          <path id="Path_21018" data-name="Path 21018" class="cls-28" d="M-1304.941,524.081s14.321,18.646,39.029-15.576h9.319l-.821,21.677-5.114,6.733-17.455,1.554-19.96-1.036-5-5.021Z" transform="translate(1303.885 -509.22)"/>
        </g>
      </g>
    </g>
  </g>
</svg>
