<svg xmlns="http://www.w3.org/2000/svg" width="1074.556" height="194.069">
    <defs>
        <linearGradient id="linear-gradient" x1=".755" y1="-.133" x2=".744" y2="1.109" gradientUnits="objectBoundingBox">
            <stop offset="0" stop-color="#63a809"/>
            <stop offset="1" stop-color="#c2fb76"/>
        </linearGradient>
        <linearGradient id="linear-gradient-2" x1=".619" y1="4.515" x2=".719" y2="-3.273" gradientUnits="objectBoundingBox">
            <stop offset="0" stop-color="#91dc2e"/>
            <stop offset="1" stop-color="#63a809"/>
        </linearGradient>
        <filter id="Path_21334" x="0" y="15.861" width="999.576" height="178.208" filterUnits="userSpaceOnUse">
            <feOffset dy="-1"/>
            <feGaussianBlur stdDeviation="19.5" result="blur"/>
            <feFlood flood-color="#fff"/>
            <feComposite operator="in" in2="blur"/>
            <feComposite in="SourceGraphic"/>
        </filter>
        <style>
            .cls-1{fill:#82c6d8}.cls-3{fill:#d81800}.cls-4{fill:#e55b40}.cls-7{fill:#91dc2e}.cls-8{fill:#894029}.cls-10{fill:#63a809}.cls-11{fill:#c2fb76}.cls-14{fill:#d267a7}.cls-15{fill:#e242bb;opacity:.4;mix-blend-mode:multiply}.cls-15,.cls-20{isolation:isolate}.cls-16{fill:#781d89}.cls-17{fill:#8045a4}.cls-18{fill:#4944ab}.cls-20{fill:#7f5fbc;mix-blend-mode:screen}.cls-21{fill:#524643}.cls-22{fill:#6bc5d0}.cls-23{fill:#1880aa}.cls-25{fill:#cc48a0}.cls-26{fill:#bf1a88}.cls-27{fill:#fff}.cls-28{fill:#dddfe0}.cls-31{fill:#cb0540}.cls-32{fill:#ad023c}.cls-33{fill:#d0074a}.cls-34{fill:#4d2a38}
        </style>
    </defs>
    <g id="Group_6503" data-name="Group 6503" transform="translate(-24.842 -631.43)">
        <g id="Group_6493" data-name="Group 6493" transform="translate(21 623)">
            <g id="Group_6272" data-name="Group 6272" transform="translate(-140 -20)">
                <g id="Group_6271" data-name="Group 6271" transform="translate(672.154 -38.702)">
                    <g id="Group_6270" data-name="Group 6270" transform="translate(-599 9)">
                        <g id="Group_6267" data-name="Group 6267">
                            <path id="Path_20854" data-name="Path 20854" class="cls-1" d="m119.738 92.259-.422-1.439q.726-.213 1.449-.417l.407 1.444q-.715.201-1.434.412z"/>
                        </g>
                        <g id="Group_6268" data-name="Group 6268">
                            <path id="Path_20855" data-name="Path 20855" class="cls-1" d="M411.814 164.787q-1.072-1.037-2.16-2.054l1.024-1.1q1.1 1.026 2.178 2.07zm-5.091-4.737q-1.11-.995-2.235-1.973l.984-1.132q1.133.985 2.252 1.988zm-5.26-4.548q-1.146-.954-2.305-1.891l.942-1.167q1.168.943 2.323 1.906zm-5.424-4.356q-1.179-.912-2.371-1.807l.9-1.2q1.2.9 2.389 1.82zm-279.668-2.256h-.482l.013-1.5h.467q1.242 0 2.479-.066l.078 1.5a51 51 0 0 1-2.555.066zm-4.535-.226a41.513 41.513 0 0 1-2.414-.315l-.607-.1.266-1.476c.193.035.387.067.58.1.76.122 1.543.224 2.327.3zm11.117-.2-.187-1.488a61.645 61.645 0 0 0 2.922-.442l.26 1.478a67.497 67.497 0 0 1-2.995.449zm-18.1-1.2a33.958 33.958 0 0 1-2.873-1.058l.581-1.383c.9.379 1.824.719 2.746 1.012zm25.047-.064-.34-1.461q1.44-.336 2.875-.725l.392 1.448q-1.464.396-2.927.738zm260.568-.214q-1.212-.87-2.435-1.721l.857-1.232q1.233.858 2.453 1.736zm-253.782-1.647-.446-1.433q1.419-.441 2.83-.918l.48 1.422q-1.431.48-2.867.929zm-38.37-.939a33.263 33.263 0 0 1-2.59-1.628l.856-1.233c.793.55 1.626 1.074 2.475 1.557zm45.013-1.315-.512-1.41q1.405-.51 2.8-1.035l.528 1.4q-1.402.53-2.816 1.043zm241.416-.057q-1.24-.826-2.494-1.635l.814-1.261q1.262.814 2.512 1.648zm-234.866-2.411-.54-1.4 2.788-1.08.544 1.4zm-57.356-.373a30.61 30.61 0 0 1-2.178-2.158l1.108-1.01a29.055 29.055 0 0 0 2.071 2.05zm286.366-.974q-1.269-.783-2.549-1.548l.77-1.288q1.289.77 2.567 1.56zm-222.5-1.187-.548-1.4 2.785-1.094.549 1.4zm216.517-2.367q-1.3-.738-2.6-1.459l.725-1.314q1.314.726 2.619 1.471zm-210.018-.192-.551-1.4 2.784-1.1.551 1.4zm-75.08-.651a25.377 25.377 0 0 1-1.567-2.654l1.336-.682a23.835 23.835 0 0 0 1.474 2.5zm81.576-1.913-.549-1.395 2.786-1.1.548 1.4zm197.42-.59q-1.318-.694-2.648-1.37l.678-1.338q1.34.681 2.669 1.381zm-190.92-1.954-.544-1.4 2.793-1.082.54 1.4zm184.709-1.182q-1.342-.649-2.694-1.28l.634-1.359q1.361.634 2.713 1.288zM84.7 128.4a21.267 21.267 0 0 1-.674-3.024l1.485-.216a19.783 19.783 0 0 0 .625 2.81zm97.7-.49-.533-1.4q1.4-.532 2.8-1.059l.527 1.4q-1.394.524-2.794 1.057zm171.881-1.6q-1.363-.6-2.735-1.188l.587-1.38q1.381.588 2.756 1.2zm-165.347-.848-.519-1.407q1.407-.518 2.815-1.028l.511 1.41q-1.406.507-2.809 1.023zM347.87 123.6q-1.383-.558-2.774-1.1l.541-1.4q1.4.542 2.794 1.1zm-152.377-.5-.5-1.415q1.413-.5 2.832-.987l.488 1.418q-1.413.484-2.82.984zm-110.149-1.772-1.5-.081c.007-.142.017-.283.028-.424a21.4 21.4 0 0 1 .378-2.652l1.469.3a19.737 19.737 0 0 0-.351 2.465zm256.029-.223q-1.4-.512-2.809-1l.493-1.418q1.419.5 2.83 1.009zm-139.285-.273-.474-1.423q1.422-.474 2.85-.936l.462 1.427q-1.426.461-2.838.932zm132.709-2q-1.418-.465-2.841-.907l.445-1.432q1.436.447 2.863.913zM208.72 118.7l-.445-1.433q1.433-.444 2.87-.875l.431 1.436q-1.431.425-2.856.872zm119.428-1.918q-1.433-.416-2.87-.812l.4-1.446q1.447.4 2.89.817zm-112.751-.07-.41-1.442q1.443-.411 2.891-.806l.394 1.448q-1.44.388-2.872.796zm106.038-1.759q-1.445-.367-2.9-.715l.35-1.459q1.461.35 2.916.72zm-99.316-.057-.372-1.453q1.455-.372 2.914-.724l.352 1.458q-1.45.345-2.894.715zm-135.274-.1-1.389-.563a25.024 25.024 0 0 1 1.334-2.779l1.31.729a23.811 23.811 0 0 0-1.255 2.611zm227.819-1.449q-1.457-.318-2.917-.617l.3-1.47q1.472.3 2.938.622zm-85.777-.074-.328-1.463q1.465-.329 2.936-.634l.305 1.469q-1.46.301-2.913.626zm78.956-1.3q-1.465-.27-2.936-.519l.25-1.478q1.48.25 2.959.522zm-72.143-.1-.277-1.475q1.478-.277 2.958-.531l.254 1.478q-1.47.25-2.935.524zm65.281-1.043q-1.475-.22-2.952-.419l.2-1.487q1.49.2 2.975.422zm-58.422-.114-.223-1.483q1.486-.223 2.976-.422l.2 1.487q-1.48.193-2.953.414zm51.524-.8q-1.48-.169-2.964-.318l.149-1.492q1.494.148 2.986.32zm-44.628-.106-.167-1.491q1.494-.167 2.989-.312l.144 1.493q-1.483.143-2.966.309zm37.7-.569q-1.485-.118-2.974-.216l.1-1.5q1.5.1 3 .218zm-30.778-.083-.114-1.5q1.5-.114 3-.2l.09 1.5q-1.484.086-2.972.199zm-166.149-.216-1.191-.911c.61-.8 1.276-1.585 1.98-2.34l1.1 1.022a30.538 30.538 0 0 0-1.885 2.228zm189.984-.137q-1.488-.067-2.979-.113l.046-1.5q1.5.045 3 .114zm-16.889-.049-.061-1.5q1.5-.06 3-.1l.038 1.5q-1.484.039-2.973.099zm9.936-.145q-1.044-.012-2.088-.011h-.893l-.008-1.5h.9q1.052 0 2.1.011zm-178.314-4.584-.967-1.147a36.283 36.283 0 0 1 2.419-1.868l.866 1.225a34.19 34.19 0 0 0-2.318 1.79zm5.626-3.9-.758-1.295c.852-.5 1.744-.992 2.653-1.465l.693 1.33c-.886.461-1.759.942-2.588 1.429zm6.141-3.151-.617-1.368q1.375-.62 2.777-1.19l.566 1.39q-1.375.559-2.726 1.167zm6.425-2.579-.506-1.412q1.421-.51 2.851-.977l.467 1.426q-1.41.459-2.812.966z"/>
                        </g>
                        <g id="Group_6269" data-name="Group 6269">
                            <path id="Path_20856" data-name="Path 20856" class="cls-1" d="M415.749 168.7q-.522-.535-1.048-1.067l1.065-1.056q.531.534 1.058 1.075z"/>
                        </g>
                    </g>
                </g>
            </g>
            <g id="Group_6502" data-name="Group 6502" transform="translate(-66.846 -49.702)">
                <g id="Group_6265" data-name="Group 6265">
                    <path id="Path_20849" data-name="Path 20849" d="m121.931 81.015-.963 11.185 7.931-7.376z" style="fill:#ab1403"/>
                    <path id="Path_20850" data-name="Path 20850" class="cls-3" d="m115.79 77.663 6.141 3.352 40.216-22.883z"/>
                    <path id="Path_20851" data-name="Path 20851" class="cls-3" d="m115.79 77.663 5.178 14.537.963-11.183z"/>
                    <path id="Path_20852" data-name="Path 20852" class="cls-4" d="m121.931 81.015 6.968 3.806 11 6.014 22.247-32.7z"/>
                    <path id="Path_20853" data-name="Path 20853" class="cls-4" d="m100.838 69.487 14.953 8.176 46.357-19.531z"/>
                </g>
            </g>
        </g>
        <g transform="translate(24.84 631.43)" style="filter:url(#Path_21334)">
            <path id="Path_21334-2" data-name="Path 21334" d="M16469.793 1569c67.8-13.189 142.344-25.024 220.811-34.658 183.7-22.555 369.992-31.141 497.855-24.211 97.342 5.278 160.869 19.536 163.8 43.454.6 4.913-1.371 10.071-5.7 15.415z" transform="translate(-16411.29 -1432.43)" style="fill:url(#linear-gradient)"/>
        </g>
        <g id="Group_6490" data-name="Group 6490" transform="translate(399.388 362.061)">
            <path id="Path_20844" data-name="Path 20844" d="M319.051 363.673a4.37 4.37 0 0 1 2.637-6.977v-.132a5.078 5.078 0 0 1 4.978-5.076 5.552 5.552 0 0 1 10.651 2.938 5.661 5.661 0 0 1 .641-.038 5.486 5.486 0 0 1 4.194 9.023 5.882 5.882 0 0 1-8.725 7.8 5.074 5.074 0 0 1-6.024.71 5.882 5.882 0 0 1-8.349-8.252z" style="fill:#558e0b"/>
            <path id="Path_20845" data-name="Path 20845" class="cls-7" d="M327.131 370.843a5.882 5.882 0 0 1-4.444-9.736 4.371 4.371 0 0 1 2.636-6.978v-.131a5.045 5.045 0 0 1 .626-2.439 5.123 5.123 0 0 1 .717-.071 5.556 5.556 0 0 1 1.26-1.924 5.061 5.061 0 0 1 2.375-.642 5.6 5.6 0 0 1 .43-.867 5.546 5.546 0 0 1 6.586 6.371 5.661 5.661 0 0 1 .641-.038 5.486 5.486 0 0 1 4.194 9.023 5.88 5.88 0 0 1 .2 6.629 5.94 5.94 0 0 1-1.322.151 5.861 5.861 0 0 1-3.97-1.542 5.072 5.072 0 0 1-6.024.709 5.86 5.86 0 0 1-3.905 1.485z"/>
            <g id="Group_6264" data-name="Group 6264">
                <path id="Rectangle_63" data-name="Rectangle 63" class="cls-8" transform="translate(330.003 359.075)" d="M0 0h1.048v24.597H0z"/>
            </g>
            <path id="Path_20846" data-name="Path 20846" class="cls-8" d="m330.82 371.375-6.407-6.6 5.82 7.126z"/>
            <path id="Path_20847" data-name="Path 20847" class="cls-8" d="m330.757 368.522 6.131-4.9-6.59 4.262z"/>
            <path id="Path_20848" data-name="Path 20848" class="cls-8" d="m330.8 363.875-3.546-2.99 2.99 3.546z"/>
        </g>
        <path id="Path_21333" data-name="Path 21333" d="M16258.755 1458c107.908-20.275 263.4-33 436.243-33s328.338 12.724 436.248 33z" transform="translate(-16159 -690)" style="fill:url(#linear-gradient-2)"/>
        <g id="Group_6258" data-name="Group 6258" transform="translate(212.393 367.516)">
            <path id="Path_20828" data-name="Path 20828" class="cls-10" d="M81.566 364.439a7.876 7.876 0 0 0-4.752-12.575c0-.079.006-.158.006-.237a9.15 9.15 0 0 0-8.972-9.148 10.006 10.006 0 0 0-19.2 5.295 10.011 10.011 0 0 0-1.148-.074 9.887 9.887 0 0 0-7.559 16.262 10.6 10.6 0 0 0 15.725 14.065 9.146 9.146 0 0 0 10.857 1.279 10.6 10.6 0 0 0 15.047-14.872z"/>
            <path id="Path_20829" data-name="Path 20829" class="cls-7" d="M67 377.361a10.6 10.6 0 0 0 8.01-17.547 7.876 7.876 0 0 0-4.752-12.575c0-.079.006-.157.006-.237a9.1 9.1 0 0 0-1.128-4.4 9.018 9.018 0 0 0-1.292-.127 10.01 10.01 0 0 0-2.272-3.468 9.1 9.1 0 0 0-4.28-1.157 10.02 10.02 0 0 0-.776-1.563 9.986 9.986 0 0 0-12.013 9.8 10.147 10.147 0 0 0 .143 1.683 9.877 9.877 0 0 0-11.043 9.82 9.849 9.849 0 0 0 2.33 6.373 10.595 10.595 0 0 0-.365 11.947 10.595 10.595 0 0 0 9.538-2.507 9.146 9.146 0 0 0 10.857 1.279A10.561 10.561 0 0 0 67 377.361z"/>
            <g id="Group_6258-2" data-name="Group 6258">
                <path id="Rectangle_60" data-name="Rectangle 60" class="cls-8" transform="translate(59.939 356.153)" d="M0 0h1.888v44.331H0z"/>
            </g>
            <path id="Path_20830" data-name="Path 20830" class="cls-8" d="m60.354 378.32 11.548-11.9-10.49 12.844z"/>
            <path id="Path_20831" data-name="Path 20831" class="cls-8" d="m60.47 373.18-11.05-8.83 11.88 7.68z"/>
            <path id="Path_20832" data-name="Path 20832" class="cls-8" d="m60.383 364.8 6.391-5.389-5.389 6.391z"/>
        </g>
        <g id="Group_6491" data-name="Group 6491" transform="translate(504.439 332.843)">
            <path id="Path_20823" data-name="Path 20823" class="cls-11" d="m255.56 406.334 2.388-.978c1.566-.578 3.844-1.553 6.78-2.544 2.953-.983 6.438-2.41 10.635-3.518a377.63 377.63 0 0 1 14.6-3.067c5.421-.786 11.341-1.181 17.675-1.544 6.311.281 13.121.135 19.981 1.467a80.658 80.658 0 0 1 10.424 1.979c3.427.9 7.061 1.629 10.408 2.823 3.363 1.148 6.893 2.182 10.188 3.457l9.859 3.774 9.517 3.8c3.127 1.1 6.192 2.342 9.26 3.515 3.067.986 6.1 1.957 9.088 3.009s6.027 1.567 8.966 2.466c1.48.387 2.937.854 4.408 1.168q2.222.372 4.4.814c2.912.55 5.761 1.178 8.577 1.647l8.3 1a77.565 77.565 0 0 0 7.861.885c5.086.3 9.8.651 14.033 1.037l11.015.391c3.074.079 5.541.334 7.213.423l2.587.225-2.367.988c-1.558.586-3.829 1.571-6.785 2.58s-6.538 2.413-10.748 3.627a404.345 404.345 0 0 1-14.433 3.143c-5.347 1.009-11.291 1.263-17.592 1.818-3.16.116-6.417-.125-9.763-.185q-2.512-.064-5.079-.208c-1.7-.142-3.4-.443-5.134-.662-3.439-.517-7.018-.9-10.483-1.744-3.474-.818-7-1.672-10.512-2.646-3.4-1.113-6.863-2.18-10.285-3.391l-9.95-3.776-9.582-3.87-9.28-3.637c-6.136-2.177-12.072-4.417-17.991-5.892-5.845-1.9-11.726-2.664-17.282-3.989-2.811-.461-5.584-.7-8.267-1.108-2.682-.34-5.312-.867-7.811-1.022-5-.327-9.671-.714-13.879-1.128-4.248-.241-8.059-.284-11.149-.449-3.1-.084-5.558-.347-7.223-.439l-2.568-.239z" transform="translate(0 17.939)"/>
            <path id="Path_20825" data-name="Path 20825" class="cls-11" d="M360.807 438.855s2.174-.57 5.992-1.381c1.931-.335 4.184-1.055 6.762-1.686 2.573-.608 5.457-1.516 8.619-2.412 3.158-.849 6.531-2.078 10.135-3.109L403.6 426.6c3.931-1.24 7.958-2.666 12.132-3.916l12.679-3.825c4.306-1.168 8.607-2.352 12.931-3.285 4.268-1.092 8.629-1.667 12.763-2.458 4.214-.54 8.242-1.173 12.157-1.283l5.657-.289c1.833-.007 3.614.1 5.309.142 1.7.083 3.317.058 4.858.225q2.307.3 4.364.58c1.364.19 2.636.335 3.806.534 1.168.228 2.228.53 3.188.753 3.829.955 5.951 1.6 5.951 1.6s-2.271.144-6.131.22c-.965.028-2.027.007-3.183.083-1.163.134-2.412.208-3.741.324-2.659.185-5.634.454-8.868.953-3.232.365-6.7 1.014-10.363 1.683q-2.75.436-5.611 1.158c-1.9.474-3.863.824-5.845 1.26-7.907 1.98-16.3 4.243-24.754 6.642l-12.68 3.492c-4.176 1.212-8.384 2.154-12.429 3.178s-8.037 1.79-11.806 2.529c-3.8.676-7.375 1.316-10.751 1.625a84.923 84.923 0 0 1-9.2.733 59.889 59.889 0 0 1-7.081.031c-3.91-.209-6.145-.434-6.145-.434z" transform="translate(68.591 28.926)"/>
            <path id="Path_20824" data-name="Path 20824" d="m313.171 393.494 2.869.154c1.868.145 4.608.2 8.092.677A262.321 262.321 0 0 1 352.7 399.4l18.707 4.121a355.23 355.23 0 0 0 20.75 3.725c3.586.614 7.264.922 10.964 1.384 3.723.238 7.467.669 11.268.755l5.71.261 5.753.02c3.842.094 7.707-.1 11.569-.233 7.773-.3 15.665-.9 23.416-1.389 7.77-.548 15.46-.993 22.989-1.283 3.759-.155 7.489-.243 11.149-.264 3.673.068 7.277.188 10.807.461a80.99 80.99 0 0 1 19.776 3.657 55.307 55.307 0 0 1 15.311 7.512 58.056 58.056 0 0 1 9.734 8.5 64.353 64.353 0 0 1 5.168 6.359l1.642 2.365-2.177-1.875c-1.4-1.232-3.54-2.938-6.3-4.972a71.357 71.357 0 0 0-10.49-6.214 61.308 61.308 0 0 0-14.687-4.7 96.838 96.838 0 0 0-18.273-1.31c-6.585.157-13.6.732-20.931 1.394l-22.767 2.314c-7.829.712-15.772 1.381-23.867 1.643a192.076 192.076 0 0 1-24.323-.5c-4.015-.21-7.953-.932-11.858-1.374-3.872-.685-7.723-1.221-11.44-2.056l-5.538-1.174-5.358-1.412c-3.543-.9-6.926-1.985-10.251-2.942-6.6-2.005-12.723-4.218-18.337-6.194l-15.29-5.429c-4.572-1.511-8.543-2.937-11.853-3.913-3.293-1.057-5.954-1.809-7.75-2.319z" transform="translate(37.546 17.164)" style="fill:#8ecd3a"/>
            <path id="Path_20826" data-name="Path 20826" d="M493.746 400.467c2.463-16.425-9.856-21.449-9.856-21.449 2.341 6.47.507 14.981-1.878 18.77 2.194-35.408-34.618-32.806-40.517-27.579 13.077 1.652 23.676 9.91 17.412 24.913-9.971 23.887-93.529 12.731-134 12.525 37.783 7.226 75.7 20.372 144.112 11.219 52.207-6.985 79.007 19.89 79.007 19.89-12.414-30.863-38.814-37.301-54.28-38.289z" transform="translate(45.198)" style="fill:#6cb013"/>
            <g id="Group_6260" data-name="Group 6260" transform="translate(20.176 47.939)">
                <path id="Path_20834" data-name="Path 20834" class="cls-10" d="M465.342 362.574A7.874 7.874 0 0 0 460.59 350c0-.079.006-.157.006-.237a9.15 9.15 0 0 0-8.972-9.148 10.006 10.006 0 0 0-19.2 5.295 9.877 9.877 0 0 0-11.043 9.82 9.847 9.847 0 0 0 2.33 6.373 10.6 10.6 0 0 0 15.725 14.065 9.144 9.144 0 0 0 10.856 1.279 10.6 10.6 0 0 0 15.047-14.872z"/>
                <path id="Path_20835" data-name="Path 20835" class="cls-7" d="M450.781 375.5a10.6 10.6 0 0 0 8.009-17.547 7.874 7.874 0 0 0-4.752-12.574c0-.08.007-.158.007-.238a9.112 9.112 0 0 0-1.128-4.4 9.164 9.164 0 0 0-1.293-.127 10.016 10.016 0 0 0-2.271-3.468 9.114 9.114 0 0 0-4.281-1.157 9.927 9.927 0 0 0-.775-1.563 10 10 0 0 0-11.87 11.483 9.877 9.877 0 0 0-11.043 9.82 9.847 9.847 0 0 0 2.33 6.373 10.59 10.59 0 0 0-.365 11.947 10.594 10.594 0 0 0 9.538-2.507 9.14 9.14 0 0 0 10.856 1.279 10.563 10.563 0 0 0 7.038 2.679z"/>
                <g id="Group_6260-2" data-name="Group 6260">
                    <path id="Rectangle_61" data-name="Rectangle 61" class="cls-8" transform="translate(443.716 354.289)" d="M0 0h1.889v44.331H0z"/>
                </g>
                <path id="Path_20836" data-name="Path 20836" class="cls-8" d="m444.131 376.456 11.548-11.9-10.49 12.844z"/>
                <path id="Path_20837" data-name="Path 20837" class="cls-8" d="m444.246 371.315-11.049-8.83 11.877 7.681z"/>
                <path id="Path_20838" data-name="Path 20838" class="cls-8" d="m444.159 362.94 6.391-5.389-5.389 6.391z"/>
            </g>
            <g id="Group_6261" data-name="Group 6261" transform="translate(-28.257 56.777)">
                <path id="Path_20839" data-name="Path 20839" class="cls-10" d="M373 354.289a3.585 3.585 0 0 1 2.164-5.725v-.108a4.165 4.165 0 0 1 4.084-4.164 4.556 4.556 0 0 1 8.8 1.644 4.6 4.6 0 0 1-.065.766 4.5 4.5 0 0 1 5.027 4.471 4.486 4.486 0 0 1-1.06 2.9 4.827 4.827 0 0 1-7.159 6.4 4.161 4.161 0 0 1-4.943.582 4.826 4.826 0 0 1-6.85-6.77z"/>
                <path id="Path_20840" data-name="Path 20840" class="cls-7" d="M379.626 360.172a4.825 4.825 0 0 1-3.646-7.988 3.585 3.585 0 0 1 2.163-5.725v-.108a4.145 4.145 0 0 1 .513-2 4.079 4.079 0 0 1 .588-.058 4.545 4.545 0 0 1 1.035-1.579 4.142 4.142 0 0 1 1.948-.527.888.888 0 0 1 1.266-.806 4.556 4.556 0 0 1 4.556 4.556 4.6 4.6 0 0 1-.065.766 4.5 4.5 0 0 1 5.027 4.471 4.486 4.486 0 0 1-1.06 2.9 3.061 3.061 0 1 1-4.176 4.3 4.164 4.164 0 0 1-4.943.583 4.808 4.808 0 0 1-3.206 1.215z"/>
                <g id="Group_6262" data-name="Group 6262">
                    <path id="Rectangle_62" data-name="Rectangle 62" class="cls-8" transform="translate(381.983 350.517)" d="M0 0h.86v20.181H0z"/>
                </g>
                <path id="Path_20841" data-name="Path 20841" class="cls-8" d="m382.654 360.608-5.254-5.418 4.775 5.847z"/>
                <path id="Path_20842" data-name="Path 20842" class="cls-8" d="m382.6 358.268 5.03-4.02-5.407 3.5z"/>
                <path id="Path_20843" data-name="Path 20843" class="cls-8" d="m382.641 354.455-2.91-2.455 2.454 2.909z"/>
            </g>
        </g>
        <g id="Group_6492" data-name="Group 6492" transform="translate(359.951 658.688)">
            <g id="Group_6434" data-name="Group 6434" transform="translate(10.491 5.43)">
                <g id="Group_6433" data-name="Group 6433">
                    <g id="Group_6432" data-name="Group 6432">
                        <g id="Group_6431" data-name="Group 6431">
                            <path id="Path_21203" data-name="Path 21203" class="cls-14" d="M173.623 69.575c8.985-6.684 6.03-8.936 4.4-8.95a5.611 5.611 0 0 1-5.172-2.941C166.995 46.145 144.775 36.9 141.468 44.3c-8.633 20.75 10.73 34.66 12.567 36.412 3.821 1.077 7.641 2.2 11.483 3.335a.957.957 0 0 1 .514-.091c5.179.084 25.844 3.033 25.372-9.9-2.119-13.973-17.781-4.481-17.781-4.481z" transform="translate(-139.034 -41.436)"/>
                            <path id="Path_21204" data-name="Path 21204" class="cls-15" d="M154.034 80.713c3.821 1.077 7.641 2.2 11.483 3.335a.957.957 0 0 1 .514-.091c5.179.084 25.844 3.033 25.372-9.9-2.118-13.974-17.78-4.482-17.78-4.482 8.985-6.684 6.03-8.936 4.4-8.95a5.611 5.611 0 0 1-5.172-2.941C166.995 46.145 144.775 36.9 141.468 44.3c-8.634 20.751 10.732 34.661 12.566 36.413zm20.18-13.165a37.942 37.942 0 0 1-5.537 5.108 23.678 23.678 0 0 1-5.277 3.138 13.251 13.251 0 0 1-10.61-.056c-4.046-1.851-6.705-5.474-8.443-8.88A32.338 32.338 0 0 1 142.678 63a30.064 30.064 0 0 1-1.576-13.8 8.317 8.317 0 0 1 2.216-5.15 6.185 6.185 0 0 1 3.828-1.344 15.913 15.913 0 0 1 6.368 1.6c3.574 1.041 7.092 3.356 9.935 5.277a19.56 19.56 0 0 1 4.925 4.813c1.414 1.949 2.526 4.116 4.6 5.685 1.288.964 4.313 1.259 4.369 3.089a3.13 3.13 0 0 1-1.091 2.146q-1.011 1.114-2.038 2.233zm-10.449 11.526c.837-2.54 8.45-7.24 10.111-8.338a32.643 32.643 0 0 1 4.566-2.547 9.458 9.458 0 0 1 6.15-.816 6.422 6.422 0 0 1 4.348 3.666 7.417 7.417 0 0 1-3 9.2c-3.673 2.188-9.126 2.364-13.791 2.23-2.009-.074-9.397-.229-8.384-3.395z" transform="translate(-139.034 -41.436)"/>
                            <path id="Path_21205" data-name="Path 21205" class="cls-16" d="M168.661 84.448c-.985-.056-1.808-.1-2.421-.106a.929.929 0 0 0-.4.042.22.22 0 0 1-.176.021 1096.34 1096.34 0 0 0-11.483-3.328.241.241 0 0 1-.12-.07c-.141-.127-.394-.338-.711-.605-16.479-13.861-15.578-27.23-11.919-36.025.936-2.083 3.349-3.011 6.93-2.7 8.106.732 20.736 7.93 24.887 16.134a5.361 5.361 0 0 0 4.96 2.8 2.25 2.25 0 0 1 1.6.7 2.191 2.191 0 0 1 .141 2.463 14.882 14.882 0 0 1-4.1 4.693c2.779-1.309 7.7-3.033 11.434-1.386 2.47 1.112 4 3.511 4.538 7.177a9.3 9.3 0 0 1-.7 4.088c-3.167 7.254-16.184 6.481-22.46 6.102zm5-14.846c3.166-2.357 5.15-4.384 5.847-5.995.479-1.119.239-1.738-.042-2.083a1.645 1.645 0 0 0-1.187-.524 5.912 5.912 0 0 1-5.439-3.089c-4.1-8.063-16.507-15.149-24.443-15.838-2.385-.211-5.46.035-6.537 2.491-3.6 8.661-4.489 21.882 11.793 35.568.289.267.535.45.683.6 3.884 1.1 7.838 2.252 11.335 3.272a2.267 2.267 0 0 1 .521-.063c.605.021 1.471.063 2.427.127 6.178.366 19.012 1.126 22.072-5.9a8.994 8.994 0 0 0 .668-3.94c-.521-3.49-1.949-5.777-4.243-6.8-5.151-2.294-13.059 2.449-13.151 2.491a.269.269 0 0 1-.31-.042.22.22 0 0 1-.049-.218z" transform="translate(-139.229 -41.617)"/>
                        </g>
                        <path id="Path_21206" data-name="Path 21206" class="cls-17" d="M150.572 58.393c-.781-4.623-.753-9.942-4.447-14.107-1.295-1.456-4.039-2.934-4.989-1.2-5.446 10.055 5.523 27.638 8.063 26.871 1.873-.566 1.662-9.857 1.373-11.564z" transform="translate(-136.754 -37.487)"/>
                        <path id="Path_21207" data-name="Path 21207" class="cls-17" d="M143.673 42.383a2.215 2.215 0 0 0-1.991 1.71c-.837 2.667.725 21.629 1.618 23.071 1.745 2.779 2.843-.486 3.314-1.745.929-2.6 5.812-17.534 1.421-21.186a6.555 6.555 0 0 0-4.362-1.85z" transform="translate(-125.865 -37.062)"/>
                        <path id="Path_21208" data-name="Path 21208" class="cls-18" d="M143.028 61.333c5.432-2.836 9.358-9.689 6.558-15.487-.38-.8-1.675-2.237-2.7-1.2-.986 1.025-6.11 17.854-3.858 16.687z" transform="translate(-119.718 -25.51)"/>
                        <path id="Path_21209" data-name="Path 21209" class="cls-18" d="M148.357 47.18a1.642 1.642 0 0 0-.127-1.288 2.242 2.242 0 0 0-4.208 1.527c.845 2.54 3.807 1.47 4.335-.239z" transform="translate(-110.989 -24.078)"/>
                        <path id="Path_21210" data-name="Path 21210" class="cls-18" d="M145.9 45.319a.871.871 0 0 0-.077-.682 1.2 1.2 0 0 0-2.252.8c.456 1.363 2.039.783 2.329-.118z" transform="translate(-113.413 -27.826)"/>
                        <path id="Path_21211" data-name="Path 21211" class="cls-18" d="M144.832 44.393a.611.611 0 0 0-.049-.478.848.848 0 0 0-1.59.577c.323.957 1.449.549 1.639-.099z" transform="translate(-115.563 -30.861)"/>
                        <path id="Path_21212" data-name="Path 21212" class="cls-18" d="M144.126 50.384a.513.513 0 0 0 .042.408c.3.471 1.611.436 2.069.45a31.253 31.253 0 0 0 5.875-.366c1.485-.225 4.609-.823 4.693-2.42.091-1.5-2.61-1.984-3.821-1.646a42.316 42.316 0 0 0-7.029 2.547c-.4.19-1.695.605-1.829 1.027z" transform="translate(-109.819 -10.888)"/>
                        <path id="Path_21213" data-name="Path 21213" d="M143.63 52.425c-.788 2.329 12.4-.767 14.157-2.892.767-.922.267-2.646-.95-3.349a4.288 4.288 0 0 0-3.982-.056 38.237 38.237 0 0 0-7.205 4.313c-.606.485-1.774 1.238-2.02 1.984z" transform="translate(-112.869 -17.186)" style="fill:#4246a9"/>
                    </g>
                    <path id="Path_21214" data-name="Path 21214" class="cls-20" d="M139.689 44.989s1.147-5.249 9.457-2.076 14.867 8.07 19.159 14.663A43.928 43.928 0 0 0 155.1 46.467c-8.1-4.278-13.167-4.56-15.411-1.478z" transform="translate(-136.453 -39.942)"/>
                    <path id="Path_21215" data-name="Path 21215" class="cls-20" d="M144.56 47.581s5.833-3.961 9.464-1.351a6.3 6.3 0 0 1 2.139 8.317s1.7-5.622-2.737-7.951c-3.139-1.647-8.866.985-8.866.985z" transform="translate(-107.051 -19.146)"/>
                </g>
            </g>
            <g id="Group_6437" data-name="Group 6437" transform="translate(20.87)">
                <g id="Group_6436" data-name="Group 6436">
                    <g id="Group_6435" data-name="Group 6435">
                        <path id="Path_21216" data-name="Path 21216" class="cls-14" d="M174.261 80.591c15.993-1.921 14.72-5.432 12.953-6.206-1.766-.732-3.961-2.463-3.124-5.207 3.849-13.509-12.51-32.7-22.853-27.4C133 56.936 141.993 79.093 142.464 81.591c3.3 2.821 6.53 5.7 9.787 8.549a2.159 2.159 0 0 1 .64.176c5.678 2.547 26 15.142 37.08 2.92 10.229-13.988-15.71-12.645-15.71-12.645z" transform="translate(-140.51 -40.647)"/>
                        <path id="Path_21217" data-name="Path 21217" class="cls-15" d="M142.464 81.591c3.3 2.821 6.53 5.7 9.787 8.549a2.159 2.159 0 0 1 .64.176c5.678 2.547 26 15.142 37.08 2.92 10.231-13.988-15.712-12.644-15.712-12.644 15.993-1.921 14.72-5.432 12.953-6.206-1.766-.732-3.961-2.463-3.124-5.207 3.849-13.509-12.51-32.7-22.853-27.4C133 56.936 141.993 79.093 142.464 81.591zm34.28-2.6a77.94 77.94 0 0 1-10.758 2.1 45.75 45.75 0 0 1-8.668.4c-4.707-.26-9.217-1.886-11.736-5.115-2.85-3.624-2.533-8.267-1.407-12.257a27.01 27.01 0 0 1 1.625-4.391 39.011 39.011 0 0 1 10.639-13.552 16.3 16.3 0 0 1 7.114-3.736 10.333 10.333 0 0 1 5.439.584 14.5 14.5 0 0 1 5.643 4.51c3.026 2.681 4.869 6.508 6.276 9.654a13.657 13.657 0 0 1 1.175 6.811c-.225 2.491-.922 5.024 0 7.472.549 1.506 3.645 3.23 2.055 4.946a6.2 6.2 0 0 1-3.131 1.478c-1.416.353-2.837.726-4.266 1.092zm-21.967 5.727c3.187-1.963 15.888-2.688 18.716-2.927a61.252 61.252 0 0 1 7.367-.19c2.744.127 5.566.605 7.578 2.167a4.679 4.679 0 0 1 1.527 5.5c-1.407 3.849-6.593 6.853-11.61 7.092-6.051.267-12.264-2.167-17.337-4.517-2.167-1.014-10.218-4.68-6.241-7.128z" transform="translate(-140.51 -40.647)"/>
                        <path id="Path_21218" data-name="Path 21218" class="cls-16" d="M155.506 91.969c-1.027-.514-1.9-.957-2.582-1.259a1.542 1.542 0 0 0-.507-.141.456.456 0 0 1-.2-.077 812.45 812.45 0 0 0-9.773-8.556.306.306 0 0 1-.063-.127c-.021-.183-.127-.5-.225-.915C136.3 60.2 149.314 48.2 161.283 41.781c2.913-1.478 6.41-1.2 10.118.809 8.352 4.531 15.909 17.239 13.165 26.829-.936 3.068 2.033 4.574 2.983 4.953a1.84 1.84 0 0 1 1.147 1.435c.021.57-.324 1.442-2.076 2.357a30.767 30.767 0 0 1-8.767 2.378c4.264.141 11.293.858 13.953 4.186 1.745 2.2 1.267 5.15-1.4 8.816a15.777 15.777 0 0 1-4.433 3.462c-10.034 5.229-23.846-1.687-30.467-5.037zm18.913-11.4c5.65-.675 9.654-1.618 11.884-2.779 1.534-.809 1.844-1.506 1.8-1.956a1.273 1.273 0 0 0-.844-1.055c-2.1-.887-4.074-2.779-3.265-5.46 2.695-9.428-4.721-21.91-12.918-26.357-2.442-1.337-6.079-2.554-9.471-.809-11.805 6.354-24.66 18.182-18.912 38.647.106.387.2.682.239.88 3.335 2.878 6.691 5.833 9.661 8.45a2.976 2.976 0 0 1 .619.19c.69.31 1.576.76 2.6 1.281 6.53 3.272 20.13 10.1 29.833 5.031a14.872 14.872 0 0 0 4.264-3.314c2.575-3.5 3.033-6.3 1.4-8.352-3.638-4.573-16.7-3.954-16.83-3.954a.272.272 0 0 1-.31-.2.227.227 0 0 1 .127-.211.488.488 0 0 1 .123-.03z" transform="translate(-140.704 -40.845)"/>
                    </g>
                    <path id="Path_21219" data-name="Path 21219" class="cls-17" d="M154.473 60.523c3.307-4.672 8.113-9.6 7.754-15.219-.127-1.977-1.851-4.665-4.447-3.5-15.1 6.748-18.716 28.292-15.205 28.785 2.576.369 10.695-8.335 11.898-10.066z" transform="translate(-136.885 -36.776)"/>
                    <path id="Path_21220" data-name="Path 21220" class="cls-17" d="M165.279 42.542a4.331 4.331 0 0 0-3.75.626c-3.335 2.083-18.646 20.433-18.941 22.192-.577 3.406 3.588.915 5.242-.056 3.377-1.963 22.22-13.474 20.644-18.976a5.365 5.365 0 0 0-3.195-3.786z" transform="translate(-129.664 -31.776)"/>
                    <path id="Path_21221" data-name="Path 21221" class="cls-17" d="M143.087 58.535c8.57-.028 19.1-4.51 21.214-11.237.288-.943.134-2.871-1.935-2.406-2.012.478-22.832 13.671-19.279 13.643z" transform="translate(-128.778 -16.846)"/>
                    <path id="Path_21222" data-name="Path 21222" class="cls-17" d="M151.109 49.268A2.355 2.355 0 0 0 152.15 48c.915-3.23-4.792-3.194-6.065-.6-1.337 2.775 2.934 3.19 5.024 1.868z" transform="translate(-109.76 -12.673)"/>
                    <path id="Path_21223" data-name="Path 21223" class="cls-17" d="M148.963 46.7a1.257 1.257 0 0 0 .549-.682c.486-1.731-2.568-1.71-3.251-.317-.717 1.474 1.569 1.706 2.702.999z" transform="translate(-107.987 -17.645)"/>
                    <path id="Path_21224" data-name="Path 21224" class="cls-17" d="M148.233 45.437a.913.913 0 0 0 .373-.464c.352-1.217-1.794-1.2-2.266-.225-.506 1.034 1.091 1.188 1.893.689z" transform="translate(-107.271 -21.592)"/>
                    <path id="Path_21225" data-name="Path 21225" class="cls-17" d="M144.3 48.153a.564.564 0 0 0-.331.394c-.112.584 1.4 1.168 1.886 1.407a41.5 41.5 0 0 0 6.839 2.449c1.865.507 5.868 1.442 7.43-.007 1.428-1.344-1.133-3.1-2.786-3.356a75.923 75.923 0 0 0-10.1-.978c-.612-.014-2.399-.232-2.938.091z" transform="translate(-121.051 2.204)"/>
                    <path id="Path_21226" data-name="Path 21226" class="cls-17" d="M144.278 48.461c-2.962 1.773 14.466 5.193 18.336 4.067 1.675-.507 2.681-2.329 1.942-3.574-.781-1.323-2.6-1.893-4.377-1.942a77.832 77.832 0 0 0-11.884.563c-1.118.169-3.074.302-4.017.886z" transform="translate(-121.167 -3.754)"/>
                </g>
                <path id="Path_21227" data-name="Path 21227" class="cls-20" d="M143.5 42.5s5.974-4.341 12.362 2.582 9.281 14.579 8.113 22.727a30.544 30.544 0 0 0-4.686-16.6C154.132 43.39 148.756 40.71 143.5 42.5z" transform="translate(-123.829 -38.944)"/>
                <path id="Path_21228" data-name="Path 21228" class="cls-20" d="M145.926 46.833s10.02-.908 11.7 3.244-2.252 7.634-5.073 8.753c0 0 6.917-4.426 4.088-8.7-2.004-3.037-10.715-3.297-10.715-3.297z" transform="translate(-109.185 -5.207)"/>
            </g>
            <g id="Group_6441" data-name="Group 6441" transform="translate(0 14.269)">
                <g id="Group_6438" data-name="Group 6438">
                    <path id="Path_21229" data-name="Path 21229" class="cls-21" d="m140.874 59.894-.035.007a.292.292 0 0 1-.338-.211 11.588 11.588 0 0 1-.155-1.358 22.94 22.94 0 0 1 .014-3.413 20.3 20.3 0 0 1 .9-4.468 15.438 15.438 0 0 1 2.554-4.482c1.794-2.364 3.617-3.37 5.552-3.033a1.612 1.612 0 0 1 1.492 1.337 1.506 1.506 0 0 1-1.2 1.534 1.826 1.826 0 0 1-1.851-.274.991.991 0 0 1 .134-1.456.328.328 0 0 1 .415-.063.216.216 0 0 1 .07.352c-.288.324-.352.654-.134.872a1.136 1.136 0 0 0 1.14.127 1 1 0 0 0 .809-1.055 1.094 1.094 0 0 0-1.006-.922c-1.654-.26-3.244.661-4.883 2.822a15.071 15.071 0 0 0-2.484 4.369 19.863 19.863 0 0 0-.894 4.369 21.437 21.437 0 0 0-.007 3.363 9.677 9.677 0 0 0 .155 1.323.281.281 0 0 1-.248.26z" transform="translate(-122.335 -42.873)"/>
                    <path id="Path_21230" data-name="Path 21230" class="cls-21" d="M154.469 57.275a.33.33 0 0 1-.338-.169 17.246 17.246 0 0 0-.486-1.281 25.208 25.208 0 0 0-1.583-3.11 25.721 25.721 0 0 0-2.9-3.807 19.674 19.674 0 0 0-4.369-3.335c-2.533-1.541-4.461-1.935-5.868-1.2a.851.851 0 0 0-.5 1.126 1.282 1.282 0 0 0 1.267.746c.507-.007.886-.162.978-.45.091-.253-.1-.549-.542-.767-.134-.084-.183-.232-.084-.338a.359.359 0 0 1 .422-.07c.668.317.978.844.8 1.316a1.571 1.571 0 0 1-1.569.788 1.934 1.934 0 0 1-1.879-1.084 1.326 1.326 0 0 1 .76-1.675c1.668-.858 3.814-.464 6.586 1.224a19.7 19.7 0 0 1 4.5 3.427 26.431 26.431 0 0 1 2.941 3.891 22.684 22.684 0 0 1 1.625 3.166c.225.514.366.929.493 1.3a.249.249 0 0 1-.225.3z" transform="translate(-137.738 -38.904)"/>
                </g>
                <path id="Path_21231" data-name="Path 21231" class="cls-22" d="M147.083 58.026c5.15 5.692 10.681 9.534 12.362 8.633 1.654-.922-1.112-6.311-6.262-12.011-5.094-5.678-10.688-9.555-12.376-8.661-1.632.978 1.119 6.318 6.276 12.039z" transform="translate(-122.049 -24.85)"/>
                <path id="Path_21232" data-name="Path 21232" class="cls-23" d="M159.894 67s-.169.07-.289.106c-1.231.288-3.025-.605-5.207-2.146a47.876 47.876 0 0 1-7.261-6.628 39.924 39.924 0 0 1-6.023-8.352 9.6 9.6 0 0 1-.809-2.484 1.4 1.4 0 0 1 .64-1.52.248.248 0 0 0 .106-.063c1.407-.366 3.187.528 5.319 2.1a46.859 46.859 0 0 1 7.36 6.656A39.824 39.824 0 0 1 159.662 63a7.51 7.51 0 0 1 .83 2.484 1.462 1.462 0 0 1-.6 1.52zm-13.9-18.667c-2.04-1.548-3.87-2.28-4.559-2.048h-.091l-.091.035c-.232.148-.4.514-.366 1.147a8.887 8.887 0 0 0 .816 2.322A37.8 37.8 0 0 0 147.574 58a48.888 48.888 0 0 0 7.226 6.649c2.09 1.569 3.912 2.23 4.658 2.04l.07-.07c.239-.113.415-.478.387-1.1a6.843 6.843 0 0 0-.809-2.35 37.9 37.9 0 0 0-5.847-8.253 47.138 47.138 0 0 0-7.268-6.586z" transform="translate(-122.315 -24.997)"/>
                <path id="Path_21233" data-name="Path 21233" d="M154.271 61.34c-1.2.253-4.391-2.048-7.374-5.376-3.173-3.56-4.975-6.818-3.891-7.395l.2-.077c1.189-.267 4.433 2.048 7.416 5.362 3.173 3.532 4.9 6.825 3.842 7.43a.491.491 0 0 1-.2.056zm-13.129-15.184-.253.07c-1.358.788 1 5.305 5.277 10.125 4.088 4.489 8.471 7.662 10.174 7.318l.232-.113c1.379-.753-.922-5.284-5.263-10.062-4.074-4.588-8.471-7.683-10.167-7.339z" transform="translate(-121.04 -23.211)" style="fill:#c0e1d5"/>
                <path id="Path_21234" data-name="Path 21234" class="cls-22" d="M139.879 49.318a4.033 4.033 0 0 0 4.194 3.384 3.409 3.409 0 0 0 2.765-4.2 4.019 4.019 0 0 0-4.243-3.349 3.326 3.326 0 0 0-2.716 4.165z" transform="translate(-125.301 -29.257)"/>
                <path id="Path_21235" data-name="Path 21235" class="cls-23" d="m144.378 53.086-.387.014a4.329 4.329 0 0 1-4.172-3.546l.324-.056-.324.056c-.035-.281-.035-.514-.063-.76a3.515 3.515 0 0 1 3.1-3.673l.4-.021a4.248 4.248 0 0 1 4.144 3.525 5.8 5.8 0 0 1 .077.725 3.534 3.534 0 0 1-3.1 3.736zm2.463-4.4a3.867 3.867 0 0 0-3.588-3.159h-.021a.837.837 0 0 0-.176-.007 3.145 3.145 0 0 0-2.723 3.349 2.136 2.136 0 0 0 .091.605 3.75 3.75 0 0 0 3.617 3.166l.253-.014a3.013 3.013 0 0 0 2.6-3.258c-.035-.218.049-.436-.049-.683z" transform="translate(-125.564 -29.438)"/>
                <path id="Path_21236" data-name="Path 21236" class="cls-25" d="M141.874 45.123a1.7 1.7 0 0 1 .387.021 1.181 1.181 0 0 0-.338.317l-.162-.049h-.021a.837.837 0 0 0-.176-.007 2.159 2.159 0 0 0-1.266.493 1.112 1.112 0 0 0-.3-.19 2.92 2.92 0 0 1 1.4-.577c.183-.035.345.014.471-.007z" transform="translate(-124.073 -29.327)"/>
                <path id="Path_21237" data-name="Path 21237" class="cls-25" d="M140.693 45.223a.527.527 0 0 0 .19.113 4.437 4.437 0 0 0-1.027 1.675 3.077 3.077 0 0 1 .837-1.787z" transform="translate(-124.954 -28.688)"/>
                <path id="Path_21238" data-name="Path 21238" class="cls-26" d="m140.247 45.227-.274.035z" transform="translate(-124.248 -28.664)"/>
                <path id="Path_21239" data-name="Path 21239" class="cls-26" d="m140.3 45.186.253.007z" transform="translate(-122.274 -28.911)"/>
                <path id="Path_21240" data-name="Path 21240" class="cls-27" d="M139.53 47.084c0 1.161 1.2 2.1 2.765 2.076A2.286 2.286 0 0 0 144.9 47c.021-1.112-1.231-2.083-2.695-2.026-1.576-.014-2.716.929-2.674 2.111z" transform="translate(-126.929 -30.211)"/>
                <path id="Path_21241" data-name="Path 21241" class="cls-28" d="M145.383 47.148c.042 1.365-1.273 2.378-2.878 2.4-1.632.014-2.99-.985-3.012-2.245a2.671 2.671 0 0 1 2.85-2.364c1.59.042 3.04 1.048 3.04 2.209zm-.429.106a2.238 2.238 0 0 0-2.534-1.954c-1.4.035-2.526.943-2.484 2.012a2.376 2.376 0 0 0 2.547 1.942c1.323-.049 2.512-.936 2.47-2z" transform="translate(-127.146 -30.402)"/>
                <path id="Path_21242" data-name="Path 21242" d="m143.391 45.852-.091-.169-.169.07s-.464.992-1.358.964a2.381 2.381 0 0 1-1.492-.619l-.155-.042c-.127.113-.1.2-.1.2a2.74 2.74 0 0 0 1.787.668 1.716 1.716 0 0 0 1.578-1.072z" transform="translate(-123.937 -25.911)" style="fill:#231f20"/>
                <rect id="Rectangle_81" data-name="Rectangle 81" width=".114" transform="rotate(-25.145 52.312 -22.392)" style="fill:#5f0d53"/>
                <path id="Path_21243" data-name="Path 21243" class="cls-31" d="M139.985 45.658a3.511 3.511 0 0 1 .176.486l-.19.028-.106-.056a3.761 3.761 0 0 0-.021-.281l.141-.176z" transform="translate(-125.027 -26.062)"/>
                <path id="Path_21244" data-name="Path 21244" class="cls-32" d="M140.26 45.668s.014.218.042.366l.028.091a.294.294 0 0 0-.162 0l-.253-.021.106-.042-.106.042a.319.319 0 0 0-.141-.1.947.947 0 0 1 .485-.338z" transform="translate(-125.443 -26.002)"/>
                <path id="Path_21245" data-name="Path 21245" class="cls-33" d="M140.364 45.684a.38.38 0 0 1 .366.077c.021.141-.246.317-.654.436l-.035-.007a3.511 3.511 0 0 0-.176-.486.722.722 0 0 1 .415-.042z" transform="translate(-124.906 -26.11)"/>
                <path id="Path_21246" data-name="Path 21246" class="cls-31" d="M140.711 45.53c.12.035.218.056.169.12l.084.014c.021.07-.07.19-.07.19a.514.514 0 0 1-.183-.324z" transform="translate(-119.793 -26.835)"/>
                <rect id="Rectangle_82" data-name="Rectangle 82" class="cls-32" height=".084" transform="rotate(-80.853 21.587 -2.971)"/>
                <path id="Path_21247" data-name="Path 21247" class="cls-33" d="m141.675 45.527.084.021a1.116 1.116 0 0 1 .042.359l-.415.183a5.216 5.216 0 0 1-.535.035l-.31-.127c-.042-.19.225-.331.633-.408a1.248 1.248 0 0 1 .408-.049z" transform="translate(-120.842 -26.853)"/>
                <g id="Group_6439" data-name="Group 6439" transform="translate(13.174 16.224)">
                    <path id="Path_21248" data-name="Path 21248" class="cls-34" d="M142.557 46.275a1.3 1.3 0 0 1-1.372 1.2 1.38 1.38 0 0 1-1.541-1.077c-.049-.633.57-1.168 1.372-1.21a1.4 1.4 0 0 1 1.541 1.087z" transform="translate(-139.422 -45.112)"/>
                    <path id="Path_21249" data-name="Path 21249" class="cls-27" d="M141.022 45.7c.035.317-.253.57-.654.591s-.746-.211-.753-.528c-.042-.3.267-.577.676-.584a.641.641 0 0 1 .731.521z" transform="translate(-139.61 -45.179)"/>
                </g>
                <path id="Path_21250" data-name="Path 21250" class="cls-27" d="M140.052 47.039c0 1.161 1.2 2.1 2.765 2.076a2.307 2.307 0 0 0 2.6-2.174c.014-1.1-1.217-2.076-2.716-2.026-1.562-.007-2.695.943-2.653 2.125z" transform="translate(-123.778 -30.561)"/>
                <path id="Path_21251" data-name="Path 21251" class="cls-28" d="M145.887 47.085c.028 1.379-1.274 2.378-2.878 2.392-1.632.014-2.99-.978-2.99-2.23-.049-1.266 1.3-2.371 2.822-2.364 1.6.028 3.047 1.041 3.047 2.2zm-.429.1a2.237 2.237 0 0 0-2.554-1.942 2.266 2.266 0 0 0-2.463 2.005 2.367 2.367 0 0 0 2.54 1.935c1.323-.028 2.519-.929 2.477-2z" transform="translate(-123.978 -30.74)"/>
                <g id="Group_6440" data-name="Group 6440" transform="translate(17.108 15.802)">
                    <path id="Path_21252" data-name="Path 21252" class="cls-34" d="M143.3 46.288a1.344 1.344 0 0 1-1.449 1.281 1.462 1.462 0 0 1-1.647-1.147c-.063-.668.591-1.231 1.442-1.288a1.479 1.479 0 0 1 1.654 1.154z" transform="translate(-139.966 -45.035)"/>
                    <path id="Path_21253" data-name="Path 21253" class="cls-27" d="M141.685 45.683c.028.331-.3.605-.718.626a.7.7 0 0 1-.8-.556c-.035-.331.281-.612.7-.633a.727.727 0 0 1 .818.563z" transform="translate(-140.17 -45.119)"/>
                </g>
            </g>
        </g>
    </g>
</svg>
