<svg xmlns="http://www.w3.org/2000/svg" width="776.333" height="126.13">
    <defs>
        <linearGradient id="a" x1=".045" y1=".552" x2=".98" y2=".635" gradientUnits="objectBoundingBox">
            <stop offset="0" stop-color="#fff"/>
            <stop offset="1" stop-color="#e0f9ff"/>
        </linearGradient>
    </defs>
    <path data-name="Path 21035" d="M-1518.649-2570.222c.025-.1.066-.2.1-.3a16.34 16.34 0 0 0-4.6-8.922 27.954 27.954 0 0 0-9.433-5.847 56.669 56.669 0 0 0-24.152-3.5c-.453.027-.478-.488-.1-.6 5.452-1.585 11.253-6.1 11.49-11 .125-2.608-1.782-4.457-4.729-5.311a11.011 11.011 0 0 0-7.611.41 10.544 10.544 0 0 1 3.745 3.123c.029.031.014.06-.006.084.161.112.323.23.474.357.095.076-.027.212-.144.15a12.963 12.963 0 0 0-3.01-1.231 8.495 8.495 0 0 0-3.6.19 10.232 10.232 0 0 0-5.87 3.319.3.3 0 0 1-.237.1.065.065 0 0 0 .015.036c.031.12-.179.207-.255.087-1.2-1.791.152-4.335 2.368-5.284a18.805 18.805 0 0 0-12.379-2.146 12.3 12.3 0 0 0-5.72 2.723c-2.053 1.764-2.393 3.807-2.776 6.021a17.635 17.635 0 0 1 3.985 4.559c.053.084-.018.154-.105.16.109.133.228.266.336.405.074.1-.111.218-.211.125a15.725 15.725 0 0 0-11.031-4.23c-4.329-.018-8.61 1.619-11.085 4.5-.193.223-.788.181-.732-.162a8.909 8.909 0 0 1 4.344-5.928 8.663 8.663 0 0 1 3.393-1.128 7.5 7.5 0 0 0-2.646-4.723 13.572 13.572 0 0 0-6.054-2.625 18.954 18.954 0 0 0-7.066-.035 14.022 14.022 0 0 0-3.045.94c-1.586.7-2.42 1.838-3.589 2.887-.15.135-.49-.008-.4-.192.056-.115.118-.22.181-.332-.315-2.638 2.862-4.529 6.169-5.361-1.6-3.211-6.346-4.724-10.29-5.322a18.416 18.416 0 0 0-4.114-.148v-.156a18.416 18.416 0 0 0-3.7.175c-3.944.6-8.691 2.111-10.29 5.321 3.307.833 6.483 2.724 6.168 5.362.064.112.125.217.182.331.092.185-.248.328-.4.193-1.169-1.049-2-2.187-3.589-2.887a14.011 14.011 0 0 0-3.045-.94 18.949 18.949 0 0 0-7.066.036 13.566 13.566 0 0 0-6.053 2.625 7.5 7.5 0 0 0-2.646 4.723 8.657 8.657 0 0 1 3.393 1.128 8.913 8.913 0 0 1 4.344 5.928c.055.343-.539.385-.733.161-2.475-2.885-6.755-4.522-11.084-4.5a15.724 15.724 0 0 0-11.031 4.23c-.1.093-.286-.027-.211-.125.106-.139.226-.272.335-.405-.086-.006-.158-.076-.1-.16a17.623 17.623 0 0 1 3.985-4.559c-.383-2.215-.722-4.256-2.776-6.021a12.3 12.3 0 0 0-5.72-2.723 18.8 18.8 0 0 0-12.379 2.146c2.216.949 3.566 3.493 2.368 5.283-.076.12-.286.034-.255-.087a.062.062 0 0 0 .015-.035.3.3 0 0 1-.237-.1 10.235 10.235 0 0 0-5.871-3.32 8.509 8.509 0 0 0-3.6-.19 12.952 12.952 0 0 0-3.01 1.232c-.118.061-.239-.074-.144-.15.15-.126.312-.245.474-.357-.021-.025-.035-.053-.006-.084a10.538 10.538 0 0 1 3.744-3.124 11.01 11.01 0 0 0-7.611-.41c-2.947.854-4.854 2.7-4.729 5.311.237 4.9 6.037 9.411 11.49 11 .379.114.354.629-.1.6a56.685 56.685 0 0 0-24.152 3.5 27.96 27.96 0 0 0-9.432 5.848 16.339 16.339 0 0 0-4.6 8.922c.031.1.072.2.1.3.067.214-.139.352-.347.352a.347.347 0 0 1-.336-.2 26.384 26.384 0 0 0-1.889-3.832c-5.041-8.073-15.332-13.643-26.039-15.854a49.057 49.057 0 0 0-18.428-.526 58.616 58.616 0 0 0-17.05 6.3c-.206.11-.379-.148-.186-.262.237-.139.471-.277.714-.415-1.943-3.36-3.293-6.961-7.245-9.22a17.067 17.067 0 0 0-7.181-2.109 21.456 21.456 0 0 0-5 .173 20.844 20.844 0 0 0-2.043.418c-.375.1-.976.171-1.414.313a6.514 6.514 0 0 1 .611 1.371c.354 1.105 1.354 3.594.281 4.647l.013.031c.074.287-.395.376-.531.116a25.339 25.339 0 0 0-1.691-3.69 13.39 13.39 0 0 0-2.36-2.477 19.262 19.262 0 0 0-6.208-3.54c-3.578-1.148-8.689-2.162-12.105-.228-.136.078-.274-.089-.169-.176a4.292 4.292 0 0 1 .827-.553 10.862 10.862 0 0 1 4.2-2.023 12.952 12.952 0 0 1 2.225-.352 4.61 4.61 0 0 0-1.644-2.983 6.791 6.791 0 0 0-3.186-1.654 8.87 8.87 0 0 0-6.284.792 9.122 9.122 0 0 1 1.582 3.092c.456 1.562.883 4.1-.469 5.455-.076.076-.234.017-.231-.076.006-.025.006-.053.015-.08a.2.2 0 0 1-.138-.169 7.769 7.769 0 0 0-2.565-5.454 12.047 12.047 0 0 0-4.986-2.692 14.319 14.319 0 0 0-11.193 1.872c-.111.062-.212-.072-.132-.146a8.1 8.1 0 0 1 .924-.74 14.039 14.039 0 0 1 4.261-3.25c.386-.165.8-.314 1.211-.449a24.632 24.632 0 0 0-2.848-3.694 13.361 13.361 0 0 0-4.543-2.807 20.877 20.877 0 0 0-10.986-.731c-3.666.731-7.294 2.369-9.337 5.009a9.329 9.329 0 0 0-1.432 8.453 9.2 9.2 0 0 1 3.067 3.536 12.084 12.084 0 0 1 1.084 4.063 11.224 11.224 0 0 1-.045 1.579 3.95 3.95 0 0 0-.115.844l.016.072c.006.01.008.034.021.04a.08.08 0 0 1-.023.11.24.24 0 0 1-.411-.015 14.885 14.885 0 0 0-2.9-4.861 17.011 17.011 0 0 0-4.64-3.073 28.862 28.862 0 0 0-11.537-2.481 30.055 30.055 0 0 0-8.253 1.061 14.533 14.533 0 0 0-4.132 1.725 8.4 8.4 0 0 0-2.111 2.163c-.008.036-.022.076-.029.114s-.062.07-.113.07a.35.35 0 0 0-.029.04c-.055.07-.2.044-.193-.042a2.027 2.027 0 0 1 .156-.756c.449-2.746 3.249-5.168 5.887-6.727a21.324 21.324 0 0 1 8.313-2.809 6.459 6.459 0 0 0 .2-3.438 7.947 7.947 0 0 0-1.794-2.9 14.813 14.813 0 0 0-5.942-4.02c-3.194-1.12-8.118-1.3-10.877.712a8.138 8.138 0 0 1 .1 3.436 6.261 6.261 0 0 1-2.914 4.643c-.109.188-.493.112-.506-.108-.16-2.143.151-4.18-.678-6.276a13.033 13.033 0 0 0-2.26-3.64c-2.1-2.429-5.451-4.876-9.434-4.029-.114.027-.185-.112-.079-.15.19-.07.377-.125.562-.175-.023-.036-.014-.083.052-.1a15.067 15.067 0 0 1 9.918.478 15.5 15.5 0 0 0 .464-4.5 8.416 8.416 0 0 0-2.693-5.469c-5.5-5.129-16.168-4.975-22.158-.436-3.344 2.536-5.031 6.505-3.7 10.134a11.894 11.894 0 0 0 5.1 5.729c.738.459 1.442.947 2.212 1.372.243.135.672.4 1.127.611a7.3 7.3 0 0 0 1.149.8.211.211 0 0 1-.155.089c-2.537.3-5.1.034-7.481 1.029a15.122 15.122 0 0 0-4.733 2.976 8.664 8.664 0 0 0-2.617 4.52 10.119 10.119 0 0 0 .721 4.914 14.762 14.762 0 0 1 6.121 4.129 13.72 13.72 0 0 1 2.583 3.742 4.79 4.79 0 0 1 .469 3.238.36.36 0 0 1 .037.093.227.227 0 0 1-.19.285c-.038.068-.08.142-.125.214-.086.125-.3.031-.273-.091.014-.083.022-.163.033-.245-.006-.012-.019-.021-.025-.034-1.8-3.565-6.156-5.808-10.613-6.841-4.228-.982-8.632-.906-12.272 1.253-.121.07-.247-.076-.16-.156s.189-.15.286-.229v-.009a14.33 14.33 0 0 1 4.914-3.375 16.854 16.854 0 0 1 2.307-.836 29.736 29.736 0 0 0-.77-3.143 12.736 12.736 0 0 0-2.016-3.532 14.134 14.134 0 0 0-5.9-4.66c-4.916-1.961-10.609-1.282-15.371.689a15.158 15.158 0 0 0-6.01 3.97 9.671 9.671 0 0 0-1.963 4.313c-.615 3.274.515 6.961 5.189 7.367.482 0 .967.006 1.453.034.368.017.36.431 0 .454-4.67.294-9.162.911-13.068 3.122a19.229 19.229 0 0 0-6.877 6.482 22.008 22.008 0 0 0-2.008 4.108v-21.645a33.44 33.44 0 0 1 2.7-.66 13.945 13.945 0 0 1 2.4-6.031 24.6 24.6 0 0 1 17.862-10.408 22.966 22.966 0 0 1 15.457 3.931 5.525 5.525 0 0 1 2.2-2.35 10.445 10.445 0 0 1 3.786-1.426 4.479 4.479 0 0 1 .214-3.392 10.132 10.132 0 0 1 5.037-4.512 8.625 8.625 0 0 1-2.96-4.744c-1.274-6.165 5.8-11.3 11.793-13.992 6.617-2.976 15.945-5.642 23.507-3.521 11.072 3.113 18.883 12.094 17.325 21.659a16.878 16.878 0 0 1-1.027 3.6 19.519 19.519 0 0 1 5.11-.256c6.129.53 11.9 3.789 14.358 8.4a10.318 10.318 0 0 1 1.016 6.625 13.638 13.638 0 0 1 4.184 1.238 11.545 11.545 0 0 1-.48-1.365 14.605 14.605 0 0 1 1.883-12.433 25.571 25.571 0 0 1 21.681-10.71c9.253.37 18.076 5.625 20.249 12.969a16.473 16.473 0 0 1 7.864-1.856c6.9.262 10.192 4.814 10.809 9.923a15.355 15.355 0 0 1 .111 2.641 20.286 20.286 0 0 1 5.516-.917c6.22-.2 12.891 1.226 16.885 5.283a23.653 23.653 0 0 1 4.04 5.5c3.085-4.5 10.49-7.517 16.527-6.058a15.194 15.194 0 0 1 9.12 6.009 12.93 12.93 0 0 1 2.8-3.476c5.364-4.762 14.414-8.447 22.426-6.281a26.994 26.994 0 0 1 16.56 13.145 26.726 26.726 0 0 1 9.126-5.628 24.441 24.441 0 0 1 6.156-1.354 5.119 5.119 0 0 1-.209-5.192c2.771-5.643 10.1-10.134 17.86-9.766a14.236 14.236 0 0 1 8.339 2.819 9.976 9.976 0 0 1 5.3-2.667c3.741-.543 7.16 1.2 7.93 4.268a9.231 9.231 0 0 1 .143 3.422 10.362 10.362 0 0 1 1.922-.087 13.882 13.882 0 0 1-.694-4.831c.327-6.211 7.434-11.471 14.342-13.421 3.432-.966 7.37-1.238 10.716.115a10.593 10.593 0 0 1 6.384 7.432 1.022 1.022 0 0 1 .025.12 13.764 13.764 0 0 1 5.44-.258 10.988 10.988 0 0 1 2.136.56 9.65 9.65 0 0 1 3.311-7 14.258 14.258 0 0 1 11.206-2.57v.052a14.264 14.264 0 0 1 10.79 2.647 9.655 9.655 0 0 1 3.311 7 10.967 10.967 0 0 1 2.135-.56 13.765 13.765 0 0 1 5.44.258 1.091 1.091 0 0 1 .025-.12 10.6 10.6 0 0 1 6.385-7.432c3.346-1.352 7.285-1.079 10.717-.114 6.907 1.95 14.014 7.211 14.341 13.421a13.852 13.852 0 0 1-.693 4.831 10.382 10.382 0 0 1 1.922.087 9.248 9.248 0 0 1 .144-3.421c.77-3.069 4.189-4.812 7.93-4.269a9.972 9.972 0 0 1 5.3 2.667 14.234 14.234 0 0 1 8.34-2.818c7.761-.369 15.088 4.123 17.86 9.765a5.121 5.121 0 0 1-.21 5.192 24.466 24.466 0 0 1 6.156 1.355 26.732 26.732 0 0 1 9.126 5.628 27 27 0 0 1 16.56-13.145c8.012-2.167 17.061 1.519 22.426 6.281a12.952 12.952 0 0 1 2.8 3.476 15.208 15.208 0 0 1 9.12-6.01c6.037-1.457 13.443 1.565 16.526 6.059a23.664 23.664 0 0 1 4.042-5.505c3.994-4.057 10.665-5.484 16.885-5.283a20.3 20.3 0 0 1 5.516.917 15.263 15.263 0 0 1 .111-2.641c.617-5.108 3.909-9.659 10.808-9.922a16.481 16.481 0 0 1 7.864 1.856c2.172-7.344 11-12.6 20.249-12.969a25.572 25.572 0 0 1 21.681 10.71 14.609 14.609 0 0 1 1.883 12.433 11.618 11.618 0 0 1-.48 1.365 13.642 13.642 0 0 1 4.184-1.238 10.307 10.307 0 0 1 1.016-6.625c2.456-4.612 8.228-7.871 14.358-8.4a19.509 19.509 0 0 1 5.109.256 16.933 16.933 0 0 1-1.027-3.6c-1.557-9.564 6.253-18.546 17.325-21.659 7.562-2.121 16.889.545 23.506 3.521 6 2.7 13.068 7.827 11.794 13.992a8.623 8.623 0 0 1-2.961 4.744 10.127 10.127 0 0 1 5.037 4.512 4.481 4.481 0 0 1 .214 3.392 10.443 10.443 0 0 1 3.786 1.426 5.527 5.527 0 0 1 2.2 2.35 22.964 22.964 0 0 1 15.457-3.931 24.607 24.607 0 0 1 17.862 10.408 13.938 13.938 0 0 1 2.4 6.031c.912.18 1.813.408 2.7.66v21.644a22.12 22.12 0 0 0-2.008-4.108 19.24 19.24 0 0 0-6.877-6.482c-3.906-2.21-8.4-2.828-13.068-3.122-.36-.023-.368-.437 0-.454a21.41 21.41 0 0 1 1.453-.034c4.675-.4 5.805-4.093 5.189-7.366a9.671 9.671 0 0 0-1.963-4.314 15.159 15.159 0 0 0-6.01-3.971c-4.761-1.971-10.455-2.65-15.37-.689a14.138 14.138 0 0 0-5.9 4.66 12.748 12.748 0 0 0-2.017 3.532 29.513 29.513 0 0 0-.77 3.142 16.877 16.877 0 0 1 2.306.836 14.329 14.329 0 0 1 4.913 3.376v.008c.1.078.192.15.286.228s-.039.226-.16.156c-3.64-2.16-8.044-2.235-12.272-1.253-4.457 1.033-8.811 3.276-10.613 6.841-.005.013-.018.021-.025.033.01.083.019.163.033.245.023.123-.187.216-.274.091-.045-.071-.086-.146-.125-.214a.226.226 0 0 1-.189-.284.318.318 0 0 1 .037-.094 4.788 4.788 0 0 1 .469-3.238 13.711 13.711 0 0 1 2.582-3.742 14.761 14.761 0 0 1 6.121-4.13 10.115 10.115 0 0 0 .72-4.914 8.674 8.674 0 0 0-2.617-4.52 15.117 15.117 0 0 0-4.733-2.975c-2.379-1-4.944-.729-7.482-1.03a.21.21 0 0 1-.154-.089 7.247 7.247 0 0 0 1.148-.8c.454-.207.885-.475 1.127-.611.77-.424 1.474-.913 2.212-1.371a11.9 11.9 0 0 0 5.1-5.729c1.333-3.629-.354-7.6-3.7-10.133-5.99-4.54-16.656-4.694-22.158.436a8.411 8.411 0 0 0-2.693 5.468 15.449 15.449 0 0 0 .465 4.5 15.065 15.065 0 0 1 9.918-.478c.066.017.074.063.051.1.186.051.373.106.562.175.107.038.035.178-.078.151-3.984-.848-7.337 1.6-9.435 4.029a13.034 13.034 0 0 0-2.259 3.639c-.829 2.1-.519 4.135-.679 6.277-.012.22-.4.3-.506.108a6.26 6.26 0 0 1-2.914-4.643 8.136 8.136 0 0 1 .1-3.436c-2.759-2.016-7.684-1.832-10.877-.712a14.809 14.809 0 0 0-5.942 4.02 7.945 7.945 0 0 0-1.794 2.9 6.465 6.465 0 0 0 .2 3.438 21.328 21.328 0 0 1 8.313 2.809c2.638 1.559 5.438 3.981 5.886 6.727a2.023 2.023 0 0 1 .157.756c.008.086-.138.113-.194.042a.264.264 0 0 0-.029-.04c-.051 0-.109-.019-.113-.07s-.021-.078-.029-.114a8.411 8.411 0 0 0-2.112-2.164 14.554 14.554 0 0 0-4.131-1.724 30.08 30.08 0 0 0-8.254-1.061 28.857 28.857 0 0 0-11.537 2.481 17.029 17.029 0 0 0-4.64 3.073 14.872 14.872 0 0 0-2.9 4.861.241.241 0 0 1-.412.015.08.08 0 0 1-.022-.11c.013-.006.015-.029.021-.04l.016-.072a3.934 3.934 0 0 0-.115-.844 11.257 11.257 0 0 1-.045-1.578 12.072 12.072 0 0 1 1.084-4.064 9.2 9.2 0 0 1 3.066-3.536 9.325 9.325 0 0 0-1.432-8.452c-2.044-2.64-5.671-4.278-9.338-5.009a20.872 20.872 0 0 0-10.985.731 13.368 13.368 0 0 0-4.544 2.807 24.629 24.629 0 0 0-2.847 3.694c.415.135.825.286 1.212.449a14.053 14.053 0 0 1 4.261 3.252 8.1 8.1 0 0 1 .924.739c.08.074-.02.208-.132.146a14.318 14.318 0 0 0-11.193-1.872 12.046 12.046 0 0 0-4.985 2.692 7.769 7.769 0 0 0-2.566 5.454.2.2 0 0 1-.138.17c.008.027.008.055.014.08 0 .094-.154.152-.23.076-1.352-1.359-.926-3.893-.469-5.455a9.135 9.135 0 0 1 1.582-3.091 8.865 8.865 0 0 0-6.283-.793 6.786 6.786 0 0 0-3.186 1.655 4.6 4.6 0 0 0-1.644 2.982 12.955 12.955 0 0 1 2.224.353 10.854 10.854 0 0 1 4.2 2.022 4.319 4.319 0 0 1 .827.554c.1.087-.033.254-.169.176-3.416-1.934-8.527-.92-12.105.228a19.253 19.253 0 0 0-6.208 3.54 13.387 13.387 0 0 0-2.36 2.477 25.311 25.311 0 0 0-1.692 3.69c-.136.26-.605.171-.531-.116l.012-.032c-1.072-1.052-.072-3.541.282-4.647a6.5 6.5 0 0 1 .611-1.371c-.438-.142-1.039-.216-1.413-.313a20.456 20.456 0 0 0-2.043-.417 21.393 21.393 0 0 0-5-.174 17.06 17.06 0 0 0-7.181 2.109c-3.953 2.26-5.3 5.86-7.245 9.22.243.138.478.276.714.415.194.115.021.372-.185.262a58.629 58.629 0 0 0-17.049-6.3 49.08 49.08 0 0 0-18.428.526c-10.708 2.211-21 7.781-26.039 15.855a26.356 26.356 0 0 0-1.888 3.83.346.346 0 0 1-.335.2c-.23.004-.436-.133-.37-.348zm257.1-18.029a2.047 2.047 0 0 1-.808-.632 1.044 1.044 0 0 1-.224-.522 1.154 1.154 0 0 1 .409-1.306 2.44 2.44 0 0 1 .5-.309 1.91 1.91 0 0 1 .987-.167 1.435 1.435 0 0 1 .4-.062 1.234 1.234 0 0 1 1.081.568l.014.01c0-.017 0-.01.006.006.158.1.37.241.352.231a1.227 1.227 0 0 1-.037 1.989 2.739 2.739 0 0 1-1 .479 1.723 1.723 0 0 1-.39.043 3.274 3.274 0 0 1-1.289-.327zm-732.246.156a2.74 2.74 0 0 1-1-.479 1.227 1.227 0 0 1-.036-1.989c-.019.011.193-.135.351-.23.006-.017.01-.023.006-.007l.014-.01a1.233 1.233 0 0 1 1.081-.568 1.434 1.434 0 0 1 .4.061 1.926 1.926 0 0 1 .988.167 2.427 2.427 0 0 1 .5.31 1.153 1.153 0 0 1 .41 1.306 1.045 1.045 0 0 1-.224.522 2.04 2.04 0 0 1-.809.632 3.27 3.27 0 0 1-1.284.329 1.714 1.714 0 0 1-.396-.044zm653.388-6.091c-.06.081-.081.108-.082.108l.048-.066c.024-.033.071-.094.034-.042 1.833-2.45 5.482.361 4.346 2.506a1.777 1.777 0 0 1-1.664.936c-1.762-.001-3.903-1.808-2.681-3.442zm-577.2 2.376c-1.135-2.145 2.512-4.956 4.346-2.506-.038-.052 0 0 .033.042l.049.066-.082-.108c1.222 1.634-.92 3.442-2.682 3.442a1.777 1.777 0 0 1-1.664-.936zm593.389-2.333c1.63-1.306 4.391.85 2.718 2.194a1.854 1.854 0 0 1-1.181.415c-1.452.001-2.814-1.58-1.537-2.609zm-607.949 2.064c-1.672-1.344 1.089-3.5 2.719-2.194 1.275 1.028-.085 2.609-1.538 2.609a1.859 1.859 0 0 1-1.181-.414zm18.988-2.129zm294.495-3.835.02-.05c.9-2.158 4.115-1.165 4.413.712.182 1.132-.856 1.65-1.986 1.65-1.435.001-3.019-.835-2.448-2.311zm-20.731.533c.3-1.877 3.513-2.87 4.413-.712l.022.054c.567 1.474-1.016 2.307-2.449 2.307-1.131.001-2.171-.517-1.986-1.649zm239.026-.434c1.389 0 1.389 1.737 0 1.737a.882.882 0 1 1-.001-1.737zm-452.888-.13a.883.883 0 1 1 0 1.737c-1.39 0-1.39-1.737-.001-1.737zm581.191-9.177c2.522 0 2.522 3.148 0 3.148s-2.523-3.148-.001-3.148zm-709.494-.129c2.523 0 2.523 3.147 0 3.147s-2.52-3.148 0-3.148zm669.58 1.324c-.878-.831-2.249-3.134-.485-3.835l-.149.059.261-.1c.243-.1.488-.191-.111.045 1.929-.761 4.469-1.047 5.726.706.957 1.328 1.718 2.624-.386 3.468a6.784 6.784 0 0 1-2.456.509 3.4 3.4 0 0 1-2.4-.853zm-634.52.209c-2.105-.843-1.344-2.139-.387-3.468 1.258-1.753 3.8-1.467 5.727-.706a28.18 28.18 0 0 1-.112-.045l.261.1-.149-.058c1.764.7.393 3-.485 3.835a3.4 3.4 0 0 1-2.4.847 6.779 6.779 0 0 1-2.456-.506zm568.446-4.9c2.731 0 2.731 3.407 0 3.407s-2.736-3.409-.001-3.409zm-497.518-.13c2.735 0 2.735 3.407 0 3.407s-2.731-3.408-.001-3.408zm425.681-21.105a7.513 7.513 0 0 1-3.352-3.351 2.9 2.9 0 0 0 .954-.025c-.3-.083-.6-.182-.887-.275a4.276 4.276 0 0 1-1.1-.431c-.141-.055-.277-.108-.4-.163a6.74 6.74 0 0 1-1.292-.672c.144.516.808.92 1.348 1.171a4.193 4.193 0 0 0 .833.3c-.939 2.335-5.041 3.578-7.786 3.1a8.258 8.258 0 0 1-4.2-1.824 3.97 3.97 0 0 1-.787-.957 3.553 3.553 0 0 1-.759-1.044 3.521 3.521 0 0 1-.354-1.534 2.95 2.95 0 0 0-.239 1.463 6.376 6.376 0 0 1-3.376 1.465 8.2 8.2 0 0 1-3.693-.328c-1.848-.634-3.175-1.577-3.453-2.936a4.337 4.337 0 0 1-.72-1.424 1.944 1.944 0 0 0-.294 1.245c-.486.171-.759.545-1.272.758a5.817 5.817 0 0 1-2.049.455 9.2 9.2 0 0 1-5.041-1.121c-1.58-1.052-2.8-3.246-.912-4.55a7.278 7.278 0 0 1 4.309-.957 2.008 2.008 0 0 0 .564.809 5.6 5.6 0 0 1 .94-4.045.876.876 0 0 1 .35-.317 8.967 8.967 0 0 1 4.634-2.509 10.488 10.488 0 0 1 1.259-.467 7.66 7.66 0 0 1 4.4.1c.179.056.391.127.6.206a3.4 3.4 0 0 1 1.782-3.4 11.847 11.847 0 0 1 4.494-1.579 9.423 9.423 0 0 1 4.887.805 6.91 6.91 0 0 1 3.179 1.881h.014a7.391 7.391 0 0 0-.848-1.156.482.482 0 0 0 .189-.226c.583-1.6 1.136-2.745 3.295-3.307a12.67 12.67 0 0 1 5.364-.213c3.578.646 6.459 2.677 7.408 5.55-.619.575-1.013 1.243-.656 1.964v.005a4.43 4.43 0 0 1 1.925-2.189 9.839 9.839 0 0 1 2.514-1.285 17.485 17.485 0 0 1 4.98-.665 10.947 10.947 0 0 1 5.415 1.162 8.218 8.218 0 0 1 3.66 3.646.373.373 0 0 0 .312-.072c1.516-1.413 4.478-1.825 6.611-1.511a7.54 7.54 0 0 1 3.792 1.344 20.017 20.017 0 0 1 2.237 1.887c1.747 1.755.751 4.924-.99 6.4a5.952 5.952 0 0 1-3.12 1.57 21.2 21.2 0 0 0-2.29.3 4.018 4.018 0 0 0-.49-1.329 4.419 4.419 0 0 1-1.064 3.715 3.872 3.872 0 0 1-1.113.892 10.135 10.135 0 0 1-5.971 1.872 12.219 12.219 0 0 1-6.967-1.545 7.335 7.335 0 0 1-1.175-.909 3.023 3.023 0 0 1-1.018 1.866 9.075 9.075 0 0 1-2.481 1.606 22.4 22.4 0 0 1-5.2 1.56 15.352 15.352 0 0 1-2.24.168 10.727 10.727 0 0 1-4.661-.95zm-360.739.657a22.46 22.46 0 0 1-5.2-1.559 9.1 9.1 0 0 1-2.482-1.606 3.026 3.026 0 0 1-1.018-1.867 7.312 7.312 0 0 1-1.175.909 12.218 12.218 0 0 1-6.968 1.544 10.131 10.131 0 0 1-5.971-1.872 3.857 3.857 0 0 1-1.113-.892 4.422 4.422 0 0 1-1.064-3.715 4.039 4.039 0 0 0-.489 1.329 21.27 21.27 0 0 0-2.29-.3 5.944 5.944 0 0 1-3.119-1.57c-1.741-1.471-2.736-4.641-.989-6.395a20.038 20.038 0 0 1 2.236-1.887 7.531 7.531 0 0 1 3.792-1.344c2.134-.315 5.1.1 6.611 1.511a.375.375 0 0 0 .313.072 8.21 8.21 0 0 1 3.661-3.646 10.928 10.928 0 0 1 5.416-1.162 17.419 17.419 0 0 1 4.979.666 9.822 9.822 0 0 1 2.514 1.284 4.43 4.43 0 0 1 1.926 2.189v-.006c.356-.721-.037-1.388-.657-1.963.949-2.871 3.83-4.9 7.408-5.549a12.664 12.664 0 0 1 5.365.214c2.158.562 2.712 1.712 3.294 3.307a.488.488 0 0 0 .189.226 7.317 7.317 0 0 0-.847 1.156h.015a6.905 6.905 0 0 1 3.179-1.881 9.415 9.415 0 0 1 4.887-.805 11.828 11.828 0 0 1 4.494 1.579 3.4 3.4 0 0 1 1.782 3.4c.212-.079.424-.151.6-.205a7.657 7.657 0 0 1 4.4-.1 10.444 10.444 0 0 1 1.259.467 8.969 8.969 0 0 1 4.633 2.508.879.879 0 0 1 .35.317 5.592 5.592 0 0 1 .94 4.045 1.988 1.988 0 0 0 .564-.809 7.28 7.28 0 0 1 4.309.957c1.889 1.3.669 3.5-.911 4.55a9.205 9.205 0 0 1-5.042 1.12 5.786 5.786 0 0 1-2.049-.455c-.512-.213-.786-.587-1.271-.758a1.954 1.954 0 0 0-.294-1.245 4.371 4.371 0 0 1-.721 1.424c-.277 1.359-1.6 2.3-3.452 2.936a8.189 8.189 0 0 1-3.693.327 6.371 6.371 0 0 1-3.377-1.465 2.939 2.939 0 0 0-.239-1.462 3.516 3.516 0 0 1-.354 1.535 3.557 3.557 0 0 1-.759 1.044 3.975 3.975 0 0 1-.786.957 8.264 8.264 0 0 1-4.2 1.824c-2.745.476-6.848-.767-7.786-3.1a4.29 4.29 0 0 0 .833-.3c.539-.252 1.2-.656 1.348-1.171a6.665 6.665 0 0 1-1.292.672c-.124.056-.259.108-.4.163a4.286 4.286 0 0 1-1.1.431c-.29.093-.591.193-.887.275a2.877 2.877 0 0 0 .955.026 7.513 7.513 0 0 1-3.352 3.352 10.733 10.733 0 0 1-4.653.955 15.353 15.353 0 0 1-2.253-.184zm289.07-39.309a7.516 7.516 0 0 1-3.346-3.349 3.008 3.008 0 0 0 .953-.023c-.3-.084-.6-.186-.885-.279a4.331 4.331 0 0 1-1.1-.429 6.855 6.855 0 0 1-.395-.163 6.516 6.516 0 0 1-1.292-.672c.14.518.8.92 1.34 1.171a4.274 4.274 0 0 0 .835.3c-.938 2.333-5.039 3.575-7.786 3.1a8.343 8.343 0 0 1-4.205-1.823 4.2 4.2 0 0 1-.782-.958 3.525 3.525 0 0 1-.759-1.049 3.538 3.538 0 0 1-.36-1.53 2.926 2.926 0 0 0-.228 1.46 6.44 6.44 0 0 1-3.377 1.467 8.269 8.269 0 0 1-3.7-.328c-1.841-.64-3.175-1.579-3.457-2.935a4.463 4.463 0 0 1-.716-1.427 1.937 1.937 0 0 0-.291 1.245c-.49.169-.766.547-1.276.759a5.729 5.729 0 0 1-2.05.453 9.209 9.209 0 0 1-5.041-1.117c-1.577-1.056-2.8-3.248-.914-4.552a7.274 7.274 0 0 1 4.311-.958 2.018 2.018 0 0 0 .562.81 5.6 5.6 0 0 1 .942-4.045.854.854 0 0 1 .354-.317 8.99 8.99 0 0 1 4.627-2.511 11.592 11.592 0 0 1 1.259-.465 7.615 7.615 0 0 1 4.4.106c.179.051.4.123.607.2a3.4 3.4 0 0 1 1.784-3.4 11.838 11.838 0 0 1 4.492-1.577 9.436 9.436 0 0 1 4.891.805 6.938 6.938 0 0 1 3.177 1.883h.01a6.867 6.867 0 0 0-.847-1.156.521.521 0 0 0 .193-.226c.572-1.591 1.13-2.745 3.3-3.307a12.7 12.7 0 0 1 5.362-.213c3.572.646 6.461 2.676 7.4 5.552-.609.575-1 1.243-.654 1.962v.008a4.453 4.453 0 0 1 1.93-2.193 9.658 9.658 0 0 1 2.515-1.281 17.365 17.365 0 0 1 4.975-.667 10.985 10.985 0 0 1 5.42 1.162 8.249 8.249 0 0 1 3.66 3.648.389.389 0 0 0 .313-.072c1.512-1.416 4.476-1.827 6.611-1.513a7.583 7.583 0 0 1 3.792 1.342 21.487 21.487 0 0 1 2.236 1.889c1.744 1.757.747 4.927-.99 6.393a5.949 5.949 0 0 1-3.121 1.572 20.942 20.942 0 0 0-2.29.307 4.068 4.068 0 0 0-.492-1.332 4.411 4.411 0 0 1-1.062 3.719 3.911 3.911 0 0 1-1.111.889 10.177 10.177 0 0 1-5.973 1.871 12.314 12.314 0 0 1-6.973-1.543 7.454 7.454 0 0 1-1.165-.911 3.045 3.045 0 0 1-1.02 1.866 9.14 9.14 0 0 1-2.482 1.606 22.257 22.257 0 0 1-5.208 1.558 15.285 15.285 0 0 1-2.249.17 10.69 10.69 0 0 1-4.654-.953zm-217.4.656a22.271 22.271 0 0 1-5.208-1.557 9.155 9.155 0 0 1-2.482-1.606 3.044 3.044 0 0 1-1.02-1.866 7.423 7.423 0 0 1-1.164.911 12.317 12.317 0 0 1-6.973 1.543 10.175 10.175 0 0 1-5.974-1.871 3.924 3.924 0 0 1-1.111-.889 4.415 4.415 0 0 1-1.062-3.719 4.1 4.1 0 0 0-.492 1.331 20.947 20.947 0 0 0-2.29-.307 5.945 5.945 0 0 1-3.122-1.573c-1.736-1.467-2.732-4.636-.99-6.393a21.583 21.583 0 0 1 2.237-1.889 7.573 7.573 0 0 1 3.792-1.342c2.136-.315 5.1.1 6.611 1.513a.389.389 0 0 0 .313.072 8.249 8.249 0 0 1 3.66-3.648 10.984 10.984 0 0 1 5.42-1.162 17.3 17.3 0 0 1 4.975.667 9.669 9.669 0 0 1 2.515 1.281 4.459 4.459 0 0 1 1.93 2.193v-.008c.35-.719-.046-1.386-.655-1.961.939-2.876 3.828-4.905 7.4-5.552a12.686 12.686 0 0 1 5.362.213c2.167.562 2.725 1.716 3.3 3.308a.524.524 0 0 0 .193.225 6.877 6.877 0 0 0-.847 1.157h.01a6.932 6.932 0 0 1 3.177-1.883 9.43 9.43 0 0 1 4.891-.805 11.835 11.835 0 0 1 4.492 1.577 3.4 3.4 0 0 1 1.784 3.4 8.34 8.34 0 0 1 .606-.2 7.617 7.617 0 0 1 4.4-.106 11.451 11.451 0 0 1 1.259.465 8.991 8.991 0 0 1 4.627 2.51.865.865 0 0 1 .354.317 5.6 5.6 0 0 1 .943 4.045 2.029 2.029 0 0 0 .562-.81 7.274 7.274 0 0 1 4.311.957c1.887 1.3.662 3.5-.914 4.552a9.211 9.211 0 0 1-5.042 1.116 5.717 5.717 0 0 1-2.049-.452c-.51-.212-.786-.59-1.275-.759a1.941 1.941 0 0 0-.29-1.245 4.48 4.48 0 0 1-.716 1.427c-.282 1.356-1.615 2.294-3.457 2.936a8.268 8.268 0 0 1-3.7.327 6.435 6.435 0 0 1-3.377-1.467 2.913 2.913 0 0 0-.228-1.46 3.541 3.541 0 0 1-.36 1.53 3.516 3.516 0 0 1-.759 1.049 4.213 4.213 0 0 1-.782.957 8.344 8.344 0 0 1-4.206 1.823c-2.747.474-6.848-.769-7.786-3.1a4.311 4.311 0 0 0 .836-.3c.537-.251 1.2-.653 1.339-1.17a6.461 6.461 0 0 1-1.292.672 6.12 6.12 0 0 1-.4.163 4.34 4.34 0 0 1-1.105.428c-.282.093-.586.195-.885.28a3.016 3.016 0 0 0 .953.023 7.515 7.515 0 0 1-3.345 3.349 10.689 10.689 0 0 1-4.647.957 15.3 15.3 0 0 1-2.25-.175z" transform="translate(2015 2696)" style="fill:url(#a)"/>
</svg>
