<?xml version="1.0" encoding="utf-8"?>
<!-- Generator: Adobe Illustrator 16.0.0, SVG Export Plug-In . SVG Version: 6.00 Build 0)  -->
<!DOCTYPE svg PUBLIC "-//W3C//DTD SVG 1.1//EN" "http://www.w3.org/Graphics/SVG/1.1/DTD/svg11.dtd">
<svg version="1.1" id="Layer_1" xmlns="http://www.w3.org/2000/svg" xmlns:xlink="http://www.w3.org/1999/xlink" x="0px" y="0px"
	 width="411.085px" height="330.704px" viewBox="0 11.484 411.085 330.704" enable-background="new 0 11.484 411.085 330.704"
	 xml:space="preserve">
<filter  height="345.375" width="411.085" id="a" x="0" y="0" filterUnits="userSpaceOnUse">
	<feOffset  dy="7"></feOffset>
	<feGaussianBlur  result="blur"></feGaussianBlur>
	<feFlood  flood-color="#91dc2e"></feFlood>
	<feComposite  in2="blur" operator="in"></feComposite>
	<feComposite  in="SourceGraphic" operator="over"></feComposite>
</filter>
<g filter="url(#a)">
	<path fill="#FFFFFF" d="M325.869,332.425c-11.699-0.424-31.861,0.851-43.563,0.427c-11.701-0.425-31.801-1.115-43.506-1.539
		c-11.704-0.424-31.737-3.016-43.438-3.438c-11.7-0.424-62.032,0.209-73.74-0.215c-11.708-0.425-31.884,1.264-43.592,0.84
		c-7.1-0.258-13.276-4.96-19.364-7.876c-6.312-3.023-34.681-4.813-39.34-10.063c-4.659-5.25-8.068-12.822-10.5-19.652
		c-2.347-6.588-1.722-14.5-1.477-21.971c0.424-12.974,3.266-12.871,3.691-25.844c0.425-12.972-3.251-13.105-2.826-26.08
		c0.425-12.974,4.554-12.822,4.978-25.8c0.424-12.978-2.281-13.067-1.857-26.041c0.424-12.972,2.51-12.9,2.934-25.875
		c0.424-12.975-2.991-13.1-2.565-26.076c0.426-12.976,3.531-12.866,3.955-25.844c0.424-12.978-2.835-13.1-2.411-26.074
		c0.246-7.47,0.914-15.436,3.689-21.838c2.994-6.768,7.22-12.92,12.462-18.143c4.991-4.9,12.182-7.56,18.676-10.119
		c6.265-2.47,33.256-0.414,40.359-0.156c11.7,0.424,31.8,0.981,43.5,1.4c11.7,0.419,62.068-1.389,73.772-0.964
		c11.703,0.425,31.837-0.134,43.539,0.288c11.699,0.422,31.617,6.866,43.324,7.29s31.92-2.32,43.627-1.9
		c7.1,0.256,33.287,4.9,39.375,7.819c6.311,3.025,14.318,4.171,18.977,9.419c4.951,5.596,8.832,12.053,11.449,19.051
		c2.35,6.588-0.285,14.669-0.531,22.138c-0.424,12.972,1.992,13.061,1.568,26.033c-0.424,12.972-2.357,12.9-2.781,25.877
		c-0.426,12.977,2.646,13.087,2.219,26.061c-0.424,12.975-4.342,12.83-4.768,25.801c-0.426,12.97,4.084,13.14,3.66,26.115
		c-0.424,12.977-5.18,12.801-5.607,25.779c-0.426,12.979,2.543,13.085,2.117,26.063c-0.426,12.979-0.434,12.979-0.857,25.955
		c-0.244,7.472-4.176,13.877-6.945,20.276c-2.877,6.638-4.223,14.793-9.213,19.694c-4.992,4.9-12.047,7.925-18.539,10.486
		C360.046,336.208,332.966,332.682,325.869,332.425L325.869,332.425z"/>
</g>
</svg>
