<svg xmlns="http://www.w3.org/2000/svg" width="183.599" height="184.35">
    <defs>
        <clipPath id="clip-path">
            <path id="Path_20874" data-name="Path 20874" class="cls-1" d="M-1184.528 147.84s1.785-4.761 12.5-5.832a155.134 155.134 0 0 0 19.043-3.094s-3.333 4.76-5.832 5.237c0 0 17.257.476 27.85 11.425l-9.878-1.19s20.827 7.5 25.231 25.112 9.046 27.373 12.973 31.063c0 0-4.047 1.785-11.188-5.594 0 0 6.308 11.425 6.07 20.114s-5 14.4-3.57 29.635a10.41 10.41 0 0 1-4.761-7.379s.476 35.11-42.727 46.416c0 0 6.665-10.235 6.784-17.257 0 0-6.665 6.546-10.116 7.379 0 0 .119-5.832-2.38-7.022 0 0-3.689 11.544-14.758 15.234a35.9 35.9 0 0 0 2.856-15.71s-7.379 19.161-15.353 22.851c0 0-10.592-2.618-15.234-25.826 0 0-2.856 5-1.9 8.926 0 0-8.807-8.569-9.283-11.425 0 0 2.619 17.376 11.188 22.256 0 0-27.969-5.118-37.014-21.423s-6.427-23.327-6.427-23.327-5 6.9-8.093 7.5c0 0 2.261-13.568 0-21.423s-.833-24.279 4.641-28.445c0 0-5.593 4.4-11.545 5.118a85.471 85.471 0 0 0 15.353-35.942c3.332-20.828 29.635-21.066 29.635-21.066s-12.021-1.666-16.781 2.261c0 0 10-11.783 28.682-11.9 0 0-6.426-2.975-6.426-5.594 0 0 7.855 3.57 20.589 3.213-.008-.004 9.871-1.194 9.871 5.709z" transform="translate(1265.459 -138.914)"/>
        </clipPath>
        <clipPath id="clip-path-2">
            <path id="Path_20899" data-name="Path 20899" class="cls-1" d="M-1117.784 251.129s3.9-13.389 23.535-12.318l-4.463 4.285s16.246-1.607 20.352 8.926 6.427 27.493 15.889 29.992c0 0-6.962 3.035-10 0 0 0 9.283 9.819 7.141 31.777l-2.321-8.39s-2.975 28.921-50.135 29.813-48.588-29.813-48.588-29.813-3.035 4.106-1.964 8.747c0 0-7.141-8.391 5.892-33.741 0 0-4.463 3.57-9.462 2.142 0 0 10-7.5 11.068-20.173s13.925-21.958 23.387-19.994c0 0-3.035-3.692-4.107-3.632.003 0 21.66-.296 23.776 12.379z" transform="translate(1171.906 -238.749)"/>
        </clipPath>
        <clipPath id="clip-path-3">
            <path id="Path_20908" data-name="Path 20908" class="cls-1" d="M-1092.281 417.53s14.906-16.285 41.685-.446c0 0 14.55.089 14.639 14.46s-19.36 19.638-19.36 19.638-8.192 7.676-16.821 6.605-15.145-7.051-15.145-7.051-19.1-3.124-19.816-19.995c-.001-.001-.981-12.765 14.818-13.211z" transform="translate(1107.11 -410.158)"/>
        </clipPath>
        <clipPath id="clip-path-4">
            <path id="Path_20924" data-name="Path 20924" class="cls-1" d="M-838.894 212.214s8.033-15.774 24.9-12.216 10.89 23.909 10.89 23.909-2.9 12.05-17.382 12.764c0 0-3.772-8.034-8.057-9.194 0 0 6.831 1.607 8.057 4.017 0 0-2.612-8.48-9.753-12.14a5.347 5.347 0 0 1 5.623-.357s-7.226-6.247-14.278-6.783z" transform="translate(838.894 -199.476)"/>
        </clipPath>
        <clipPath id="clip-path-5">
            <path id="Path_20923" data-name="Path 20923" class="cls-1" d="M-815.48 242.154s9.729-8.748 15.889-6.873 5.177 9.551 4.909 11.782-6.784 13.121-16.781 7.766l-5.356-2.41-1.071-8.84z" transform="translate(817.89 -235.018)"/>
        </clipPath>
        <clipPath id="clip-path-6">
            <path id="Path_20934" data-name="Path 20934" class="cls-1" d="M-1224.368 215.481s-4.879-13.806-21.542-12.615-15.948 18.685-15.115 22.732 9.41 14.4 18.153 14.044c0 0 1.6-5.951 6.006-8.212 0 0-5.7 2.092-6.006 2.831a25.425 25.425 0 0 1 10.053-12.471h-5.356s6.365-6.42 13.807-6.309z" transform="translate(1261.374 -202.793)"/>
        </clipPath>
        <clipPath id="clip-path-7">
            <path id="Path_20933" data-name="Path 20933" class="cls-1" d="M-1217.03 245.22c.357-.3-7.209-10.65-17.232-6.246s.927 22.562 12.59 20.088l6.9-4.735a24.689 24.689 0 0 1-.595-3.571 51.357 51.357 0 0 0-1.663-5.536z" transform="translate(1238.194 -237.884)"/>
        </clipPath>
        <clipPath id="clip-path-8">
            <path id="Path_20947" data-name="Path 20947" class="cls-1" d="M-1022.316 406.621s-3.154-4.149 3.511-6.567 17.644-1.667 17.659 3.283-3.675 9.175-10.1 9.77-11.07-6.486-11.07-6.486z" transform="translate(1023.062 -398.723)"/>
        </clipPath>
        <clipPath id="clip-path-9">
            <rect id="Rectangle_66" data-name="Rectangle 66" class="cls-1" width="104.704" height="56.893" rx="17.156"/>
        </clipPath>
        <style>
            .cls-1{fill:none}.cls-2{fill:#a0411a}.cls-3{fill:#fff}.cls-4{clip-path:url(#clip-path)}.cls-5{fill:#843217}.cls-6{fill:#ca501a}.cls-7{fill:#ffa700}.cls-8{clip-path:url(#clip-path-2)}.cls-9{fill:#f8820b}.cls-10{fill:#ffce64}.cls-11{fill:#ffeac8}.cls-12{clip-path:url(#clip-path-3)}.cls-13{fill:#f1cba2}.cls-14{fill:#3e1f0d}.cls-15{fill:#f7ab00}.cls-16{clip-path:url(#clip-path-4)}.cls-17{fill:#f2770f}.cls-18{clip-path:url(#clip-path-5)}.cls-19{fill:#f2b635}.cls-20{clip-path:url(#clip-path-6)}.cls-21{clip-path:url(#clip-path-7)}.cls-22{fill:#9e461a}.cls-23{clip-path:url(#clip-path-8)}.cls-24{fill:#8b3718}.cls-25{fill:#0060ad}.cls-26{fill:#3d3d3d}.cls-27{clip-path:url(#clip-path-9)}.cls-28{fill:#545454}
        </style>
    </defs>
    <g id="Group_6394" data-name="Group 6394" transform="translate(1316.344 -118.831)">
        <g id="Group_6358" data-name="Group 6358" transform="translate(-1307.292 118.831)">
            <g id="Group_6291" data-name="Group 6291">
                <g id="Group_6281" data-name="Group 6281">
                    <path id="Path_20858" data-name="Path 20858" class="cls-2" d="M-1184.528 147.84s1.785-4.761 12.5-5.832a155.134 155.134 0 0 0 19.043-3.094s-3.333 4.76-5.832 5.237c0 0 17.257.476 27.85 11.425l-9.878-1.19s20.827 7.5 25.231 25.112 9.046 27.373 12.973 31.063c0 0-4.047 1.785-11.188-5.594 0 0 6.308 11.425 6.07 20.114s-5 14.4-3.57 29.635a10.41 10.41 0 0 1-4.761-7.379s.476 35.11-42.727 46.416c0 0 6.665-10.235 6.784-17.257 0 0-6.665 6.546-10.116 7.379 0 0 .119-5.832-2.38-7.022 0 0-3.689 11.544-14.758 15.234a35.9 35.9 0 0 0 2.856-15.71s-7.379 19.161-15.353 22.851c0 0-10.592-2.618-15.234-25.826 0 0-2.856 5-1.9 8.926 0 0-8.807-8.569-9.283-11.425 0 0 2.619 17.376 11.188 22.256 0 0-27.969-5.118-37.014-21.423s-6.427-23.327-6.427-23.327-5 6.9-8.093 7.5c0 0 2.261-13.568 0-21.423s-.833-24.279 4.641-28.445c0 0-5.593 4.4-11.545 5.118a85.471 85.471 0 0 0 15.353-35.942c3.332-20.828 29.635-21.066 29.635-21.066s-12.021-1.666-16.781 2.261c0 0 10-11.783 28.682-11.9 0 0-6.426-2.975-6.426-5.594 0 0 7.855 3.57 20.589 3.213-.008-.004 9.871-1.194 9.871 5.709z" transform="translate(1271.328 -133.025)"/>
                    <path id="Path_20859" data-name="Path 20859" class="cls-3" d="M-1167.136 124.72s-3.333 4.761-5.832 5.237c0 0 17.258.476 27.85 11.425l-9.878-1.19s20.828 7.5 25.231 25.112 9.045 27.373 12.973 31.063a3.391 3.391 0 0 1-1.258.19c-1.71 0-5.117-.811-9.93-5.784 0 0 6.308 11.425 6.069 20.114s-5 14.4-3.57 29.635a10.41 10.41 0 0 1-4.761-7.379s.476 35.11-42.727 46.416c0 0 6.665-10.235 6.784-17.257 0 0-6.665 6.546-10.116 7.379 0 0 .119-5.832-2.38-7.022 0 0-3.689 11.545-14.758 15.234a35.9 35.9 0 0 0 2.857-15.71s-7.379 19.161-15.353 22.851c0 0-10.593-2.618-15.234-25.826 0 0-2.856 5-1.9 8.926 0 0-8.807-8.569-9.283-11.425 0 0 2.619 17.376 11.188 22.256 0 0-27.969-5.118-37.014-21.423s-6.426-23.327-6.426-23.327-5 6.9-8.093 7.5c0 0 2.261-13.568 0-21.423-2.253-7.824-.845-24.149 4.576-28.395l.065-.05-.065.05c-.64.489-5.9 4.4-11.479 5.067a85.475 85.475 0 0 0 15.352-35.942c3.333-20.828 29.635-21.066 29.635-21.066a46.536 46.536 0 0 0-5.733-.351c-3.773 0-8.472.488-11.048 2.612 0 0 10-11.783 28.683-11.9 0 0-6.427-2.975-6.427-5.594 0 0 7.125 3.239 18.8 3.239.585 0 1.179-.008 1.786-.025a14.937 14.937 0 0 1 1.615-.078c2.8 0 8.263.658 8.263 5.791 0 0 1.785-4.761 12.5-5.832a155.144 155.144 0 0 0 19.043-3.094m-62.037-5.889a5.86 5.86 0 0 0-3.147.923 5.859 5.859 0 0 0-2.687 4.966 7.658 7.658 0 0 0 .117 1.342 43.824 43.824 0 0 0-20.981 12.359 5.854 5.854 0 0 0-1.149 2.117 30.527 30.527 0 0 0-5.355 4.268 27.332 27.332 0 0 0-7.669 15.287c-3.033 18.954-14.048 33.087-14.159 33.227a5.858 5.858 0 0 0-.527 6.5 5.864 5.864 0 0 0 5.121 3 5.917 5.917 0 0 0 .676-.039q-.095.6-.172 1.184c-.861 6.433-.567 13.307.766 17.939 1.546 5.369.416 15.42-.15 18.84a5.868 5.868 0 0 0 1.693 5.16 5.869 5.869 0 0 0 4.094 1.666 5.867 5.867 0 0 0 1.106-.106 9.47 9.47 0 0 0 2.336-.786 68.657 68.657 0 0 0 5.948 13.7c4.415 7.959 12.763 14.49 24.81 19.41a90.815 90.815 0 0 0 16.277 4.936 5.861 5.861 0 0 0 1.058.1 5.867 5.867 0 0 0 3.841-1.435q.573.711 1.172 1.372c4.109 4.526 7.783 5.707 8.811 5.961a5.876 5.876 0 0 0 1.407.171 5.866 5.866 0 0 0 2.463-.542 22.636 22.636 0 0 0 8-6.943 5.911 5.911 0 0 0 2 .349 5.952 5.952 0 0 0 1.881-.306 27.865 27.865 0 0 0 12.475-8.6 5.794 5.794 0 0 0 1.786.614q-.289.473-.563.9a5.868 5.868 0 0 0 .166 6.628 5.867 5.867 0 0 0 4.754 2.432 5.842 5.842 0 0 0 1.483-.191c10.666-2.791 19.786-7.211 27.107-13.137a54.311 54.311 0 0 0 14.18-17.286 53.539 53.539 0 0 0 3.526-8.545 5.871 5.871 0 0 0 1.189.122 5.861 5.861 0 0 0 3.156-.921 5.865 5.865 0 0 0 2.684-5.491 47.039 47.039 0 0 1 1.77-18.329 45.816 45.816 0 0 0 1.824-10.6 32.764 32.764 0 0 0-1.087-8.664 8.567 8.567 0 0 0 2.708-.65 5.864 5.864 0 0 0 3.414-4.377 5.865 5.865 0 0 0-1.765-5.263c-1.3-1.223-5.964-6.871-11.3-28.211-2.452-9.808-9-16.851-15.253-21.563a5.864 5.864 0 0 0-1.575-5.015c-6.153-6.361-14.077-9.662-20.492-11.374a5.885 5.885 0 0 0 .125-1.21 5.864 5.864 0 0 0-5.481-5.852q-.191-.013-.384-.013-.213 0-.426.016a5.862 5.862 0 0 0-1.057.174 152.236 152.236 0 0 1-18.143 2.935 29.662 29.662 0 0 0-10.422 2.773 12.242 12.242 0 0 0-2.078-1.234 17.974 17.974 0 0 0-7.676-1.528c-.882 0-1.587.05-1.985.086-.472.012-.948.018-1.417.018-9.841 0-16.042-2.571-16.395-2.721a5.768 5.768 0 0 0-2.439-.542z" transform="translate(1285.475 -118.831)"/>
                </g>
                <g id="Group_6290" data-name="Group 6290" transform="translate(5.869 5.889)">
                    <g id="Group_6289" data-name="Group 6289" class="cls-4">
                        <g id="Group_6282" data-name="Group 6282" transform="translate(-21.813 16.979)">
                            <path id="Path_20860" data-name="Path 20860" class="cls-5" d="M-1300.683 282.281s4.93 10 8.713 10.116 13.9-15.591 15.506-22.137c0 0-6.01.952-7.915-1.19 0 0 10.95-6.367 15-24.428s16.3-22.226 16.3-22.226-12.139-3.095-12.258-4.285c0 0 13.419.119 17.837-.952s21.795.119 24.354 8.807a27.8 27.8 0 0 1 21.958-9.137c14.044.687 17.852 2.353 20.47 1.282a54.291 54.291 0 0 1-10.235 4.046s13.925 6.665 15.829 21.78 10.592 23.327 14.758 24.636c0 0-4.642 3.528-7.14 2.895 0 0 11.361 32.405 22 14.449q.128-.217.256-.443c10.711-18.924 4.166 63.212 4.166 63.212l-89.784 16.885-57.915-15.71s-31.063-44.274-31.063-46.059 19.163-21.541 19.163-21.541z" transform="translate(1325.709 -210.951)"/>
                            <path id="Path_20861" data-name="Path 20861" class="cls-3" d="M-1216.724 202.68q.691 0 1.4.035c10.781.527 15.531 1.632 18.34 1.632a5.486 5.486 0 0 0 2.131-.35 54.3 54.3 0 0 1-10.235 4.046s13.925 6.665 15.829 21.78 10.592 23.327 14.758 24.636c0 0-3.908 2.97-6.483 2.97a2.674 2.674 0 0 1-.657-.076s6.966 19.87 15.1 19.87c2.253 0 4.594-1.525 6.9-5.421q.128-.217.256-.443c1.106-1.954 2.029-2.831 2.793-2.831 6.637 0 1.373 66.043 1.373 66.043L-1245 351.456l-57.915-15.71s-31.063-44.274-31.063-46.059 19.161-21.542 19.161-21.542 4.931 10 8.714 10.116h.043c3.815 0 13.862-15.616 15.463-22.137a20.99 20.99 0 0 1-2.939.211c-1.808 0-3.967-.267-4.976-1.4 0 0 10.95-6.367 15-24.428s16.3-22.226 16.3-22.226-12.139-3.095-12.258-4.285h1.2c3.386 0 13.026-.08 16.642-.956a17.628 17.628 0 0 1 3.819-.33c6.769 0 18.471 2.13 20.535 9.137a27.8 27.8 0 0 1 20.556-9.172M-1216.719 196.811a33.463 33.463 0 0 0-19.637 6.391 23.505 23.505 0 0 0-7.487-4.087 44.6 44.6 0 0 0-13.967-2.269 22.746 22.746 0 0 0-5.2.495c-1.951.473-8.084.791-15.26.791H-1279.465a5.863 5.863 0 0 0-4.332 1.91 5.865 5.865 0 0 0-1.5 4.538c.372 3.72 3.633 5.231 5.33 5.916a40.929 40.929 0 0 0-9.263 18.729c-3.391 15.137-12.134 20.589-12.221 20.64a5.865 5.865 0 0 0-2.843 4.143 5.867 5.867 0 0 0 1.407 4.823 9.136 9.136 0 0 0 3.654 2.454 68.788 68.788 0 0 1-2.194 3.67 48.016 48.016 0 0 1-4.623 6.242 36.656 36.656 0 0 1-3.5-5.645 5.864 5.864 0 0 0-4.349-3.2 5.863 5.863 0 0 0-.911-.071 5.863 5.863 0 0 0-4.21 1.782c-.048.05-4.891 5.045-9.67 10.2-2.836 3.056-5.106 5.58-6.747 7.5-3.059 3.581-4.4 5.413-4.4 7.928 0 1.784.706 3.127 2.2 5.563.839 1.365 2.059 3.256 3.623 5.623 2.6 3.924 6.208 9.252 10.737 15.836a3333.383 3333.383 0 0 0 15.563 22.405 5.864 5.864 0 0 0 3.265 2.292l57.915 15.71a5.869 5.869 0 0 0 1.535.2 5.892 5.892 0 0 0 1.085-.1l89.783-16.886a5.864 5.864 0 0 0 4.762-5.3c.012-.151 1.21-15.287 1.742-30.927.316-9.264.34-16.919.072-22.753-.489-10.653-1.894-14.249-3.854-16.372a7 7 0 0 0-5.179-2.322c-4.61 0-7.084 4.371-7.9 5.807q-.1.175-.2.343a8.578 8.578 0 0 1-1.931 2.458c-.647-.356-2.732-1.856-5.742-7.465a60.045 60.045 0 0 1-1.416-2.822 29.144 29.144 0 0 0 2.824-1.856 5.865 5.865 0 0 0 2.229-5.677 5.865 5.865 0 0 0-4.019-4.587c-.471-.159-2.758-1.483-5.275-5.041a32.286 32.286 0 0 1-5.423-14.733 33.123 33.123 0 0 0-9.705-19.382c.433-.214.747-.376.92-.466a5.856 5.856 0 0 0 .8-.486 5.831 5.831 0 0 0 1.4-1.427 5.831 5.831 0 0 0 1.03-3.031 5.8 5.8 0 0 0-.033-.995 5.831 5.831 0 0 0-1.2-2.92 5.828 5.828 0 0 0-.962-.971 5.837 5.837 0 0 0-2.948-1.237 5.883 5.883 0 0 0-.713-.044 5.841 5.841 0 0 0-1.054.1 5.808 5.808 0 0 0-.937.253h-.137c-.757 0-2.1-.165-3.807-.374-3-.367-7.532-.923-14.247-1.251a34.028 34.028 0 0 0-1.689-.042z" transform="translate(1339.844 -196.815)"/>
                        </g>
                        <g id="Group_6283" data-name="Group 6283" transform="translate(127.522 36.537)">
                            <path id="Path_20862" data-name="Path 20862" class="cls-5" d="M-786.752 292.494s-17.758-4.439-23.833-8.983l.714 13.09s9.283 1.785 12.854 5.177 10.176 12.853 19.1 11.961z" transform="translate(816.45 -277.646)"/>
                            <path id="Path_20863" data-name="Path 20863" class="cls-3" d="M-824.72 269.376c6.075 4.544 23.833 8.983 23.833 8.983l8.837 21.244a11.789 11.789 0 0 1-1.183.059c-8.327 0-14.508-8.78-17.919-12.02-3.57-3.392-12.854-5.177-12.854-5.177l-.714-13.09m0-5.865a5.858 5.858 0 0 0-2.767.694 5.865 5.865 0 0 0-3.088 5.49l.714 13.089a5.865 5.865 0 0 0 4.749 5.44c3.6.7 8.564 2.381 9.922 3.67.489.464 1.174 1.209 1.9 2 4 4.351 10.7 11.634 20.059 11.634.587 0 1.181-.03 1.766-.088a5.864 5.864 0 0 0 4.451-2.828 5.864 5.864 0 0 0 .38-5.26l-8.837-21.244a5.865 5.865 0 0 0-3.993-3.437c-6.427-1.609-18.014-5.2-21.742-7.99a5.862 5.862 0 0 0-3.514-1.169z" transform="translate(830.585 -263.511)"/>
                        </g>
                        <g id="Group_6284" data-name="Group 6284" transform="translate(109.937 7.648)">
                            <path id="Path_20864" data-name="Path 20864" class="cls-5" d="M-859.007 201.237s-.481-6.378 1.577-8.807c0 0-7.17-7.141-13.121-7.379 0 0 14.282-.6 21.661 2.142l1.428 5.923z" transform="translate(876.416 -179.132)"/>
                            <path id="Path_20865" data-name="Path 20865" class="cls-3" d="M-881.341 170.861c4.676 0 13.173.289 18.315 2.2l1.428 5.923-11.544 8.12s-.481-6.378 1.577-8.807c0 0-7.17-7.141-13.121-7.379 0 0 1.312-.055 3.345-.055m0-5.865c-2.131 0-3.531.057-3.59.06a5.865 5.865 0 0 0-5.621 5.864 5.865 5.865 0 0 0 5.63 5.855c1.589.063 4.153 1.564 6.377 3.246a23.565 23.565 0 0 0-.43 3.165 32.232 32.232 0 0 0-.015 4.355 5.864 5.864 0 0 0 3.343 4.862 5.856 5.856 0 0 0 2.5.562 5.862 5.862 0 0 0 3.375-1.068l11.544-8.12a5.865 5.865 0 0 0 2.328-6.172l-1.428-5.923a5.864 5.864 0 0 0-3.662-4.124c-5.71-2.119-14.216-2.56-20.35-2.56z" transform="translate(890.551 -164.996)"/>
                        </g>
                        <g id="Group_6285" data-name="Group 6285" transform="translate(84.467 -8.84)">
                            <path id="Path_20866" data-name="Path 20866" class="cls-5" d="M-957.406 140.192a18.843 18.843 0 0 1 7.141-2.856c3.69-.476 8.926-.119 11.068-6.665l6.665-1.9-1.19 5.713-3.837 2.832s-10.802-.694-19.847 2.876z" transform="translate(963.272 -122.902)"/>
                            <path id="Path_20867" data-name="Path 20867" class="cls-3" d="m-946.67 114.632-1.19 5.713-3.836 2.832s-.839-.054-2.245-.054c-3.639 0-11.078.359-17.6 2.934a18.841 18.841 0 0 1 7.141-2.857c3.689-.476 8.926-.119 11.068-6.665l6.664-1.9m0-5.865q-.146 0-.291.007a5.833 5.833 0 0 0-1.45.256l-6.534 1.867a5.865 5.865 0 0 0-3.963 3.815c-.628 1.919-1.065 2.153-4.673 2.5-.51.05-1.037.1-1.572.17a24.605 24.605 0 0 0-9.72 3.845 5.865 5.865 0 0 0-1.846 7.587 5.867 5.867 0 0 0 5.177 3.107 5.846 5.846 0 0 0 2.152-.411c5.773-2.278 12.727-2.524 15.449-2.524 1.168 0 1.874.042 1.881.042.125.008.249.012.373.012a5.84 5.84 0 0 0 3.474-1.147l3.837-2.832a5.863 5.863 0 0 0 2.258-3.522l1.159-5.562a5.869 5.869 0 0 0 .155-1.347 5.865 5.865 0 0 0-5.685-5.862h-.181zm0 11.73z" transform="translate(977.409 -108.767)"/>
                        </g>
                        <g id="Group_6286" data-name="Group 6286" transform="translate(42.694 -8.84)">
                            <path id="Path_20868" data-name="Path 20868" class="cls-5" d="M-1079.752 139.6a10.573 10.573 0 0 0-5.982-2.618c-3.9-.476-7.229-2.261-6.99-5.237l-7.141-2.975v5.713s7.736 3.808 10.056 3.808a36.783 36.783 0 0 1 10.057 1.309z" transform="translate(1105.73 -122.902)"/>
                            <path id="Path_20869" data-name="Path 20869" class="cls-3" d="m-1114 114.632 7.141 2.976c-.238 2.975 3.094 4.761 6.99 5.237a10.574 10.574 0 0 1 5.982 2.618 36.787 36.787 0 0 0-10.057-1.309c-2.321 0-10.057-3.808-10.057-3.808v-5.713m0-5.865a5.863 5.863 0 0 0-3.254.985 5.865 5.865 0 0 0-2.612 4.88v5.713a5.865 5.865 0 0 0 3.274 5.262c.085.042 2.1 1.032 4.44 2.034 4.881 2.089 6.829 2.377 8.207 2.377a31.009 31.009 0 0 1 8.527 1.106 5.854 5.854 0 0 0 1.53.2 5.866 5.866 0 0 0 5.056-2.894 5.865 5.865 0 0 0-.854-7.063 16.272 16.272 0 0 0-9.473-4.348 8.165 8.165 0 0 1-1.928-.45 5.866 5.866 0 0 0-3.518-4.379l-7.141-2.975a5.859 5.859 0 0 0-2.255-.451z" transform="translate(1119.865 -108.767)"/>
                        </g>
                        <g id="Group_6287" data-name="Group 6287" transform="translate(-10.863 37.042)">
                            <path id="Path_20870" data-name="Path 20870" class="cls-5" d="M-1272.627 293s18.8-2.626 24.279-7.763l.6 11.007s-18.329 9.58-24.16 18.774-10.592 3.5-10.592 3.5l2.143-11.322z" transform="translate(1288.37 -279.371)"/>
                            <path id="Path_20871" data-name="Path 20871" class="cls-3" d="m-1262.483 271.1.595 11.007s-18.328 9.58-24.16 18.774c-2.6 4.106-5 5.242-6.844 5.242a5.3 5.3 0 0 1-3.749-1.744l2.142-11.323 7.736-14.193s18.8-2.626 24.279-7.763m0-5.865a5.862 5.862 0 0 0-4.014 1.588c-.383.359-2.738 2.257-11.554 4.384a112.174 112.174 0 0 1-9.523 1.848 5.865 5.865 0 0 0-4.338 3l-7.736 14.193a5.866 5.866 0 0 0-.614 1.717l-2.142 11.323a5.866 5.866 0 0 0 1.262 4.851 11.119 11.119 0 0 0 8.249 3.848 11.257 11.257 0 0 0 6.471-2.12 19.737 19.737 0 0 0 5.325-5.845c4.073-6.421 17.531-14.421 21.924-16.718a5.864 5.864 0 0 0 3.14-5.514l-.6-11.007a5.865 5.865 0 0 0-3.672-5.126 5.86 5.86 0 0 0-2.183-.422z" transform="translate(1302.505 -265.236)"/>
                        </g>
                        <g id="Group_6288" data-name="Group 6288" transform="translate(17.224 9.844)">
                            <path id="Path_20872" data-name="Path 20872" class="cls-5" d="m-1174.7 205.44 1.406-.481s-5.344-11.661-.7-12.471l-9.749 3.022-2.975 2.1z" transform="translate(1192.585 -186.622)"/>
                            <path id="Path_20873" data-name="Path 20873" class="cls-3" d="m-1188.132 178.351-.583.181a2.269 2.269 0 0 1 .583-.181m-.583.181c-3.573 1.688 1.286 12.29 1.286 12.29l-1.407.481-12.021-7.834 2.976-2.1 9.165-2.841m.589-6.047a5.885 5.885 0 0 0-1.014.088 8.242 8.242 0 0 0-1.576.438l-8.9 2.759a5.863 5.863 0 0 0-1.642.807l-2.975 2.1a5.866 5.866 0 0 0-2.486 4.9 5.864 5.864 0 0 0 2.661 4.808l12.021 7.834a5.865 5.865 0 0 0 3.2.952 5.864 5.864 0 0 0 1.9-.315l1.407-.481a5.867 5.867 0 0 0 3.492-3.234 5.866 5.866 0 0 0-.057-4.759 29.691 29.691 0 0 1-1.943-5.826 5.864 5.864 0 0 0 1.609-5.578 5.867 5.867 0 0 0-5.7-4.49z" transform="translate(1206.72 -172.485)"/>
                        </g>
                    </g>
                </g>
            </g>
            <g id="Group_6292" data-name="Group 6292" transform="translate(81.559 12.427)">
                <path id="Path_20875" data-name="Path 20875" class="cls-6" d="M-987.339 192.968s4.612-12.765 17.466-11.693 8.837 9.551 5.177 6.873-17.258-2.948-22.643 4.82z" transform="translate(993.205 -175.346)"/>
                <path id="Path_20876" data-name="Path 20876" class="cls-3" d="M-985.524 167.076q.737 0 1.513.064c11.115.926 9.614 7.393 6.639 7.393a2.471 2.471 0 0 1-1.461-.52c-1.4-1.027-4.273-1.7-7.578-1.7-5.309 0-11.746 1.735-15.065 6.52 0 0 4.248-11.757 15.952-11.757m0-5.865a21.676 21.676 0 0 0-16.814 7.922 26.9 26.9 0 0 0-4.654 7.707 5.865 5.865 0 0 0 2.826 7.2 5.847 5.847 0 0 0 2.687.654 5.863 5.863 0 0 0 4.823-2.523c2.047-2.951 6.8-4 10.245-4a11.39 11.39 0 0 1 4.2.627 8.3 8.3 0 0 0 4.844 1.593 8.084 8.084 0 0 0 8.007-7.857 9.512 9.512 0 0 0-4.263-8.115c-2.418-1.732-5.748-2.785-9.9-3.131a24.117 24.117 0 0 0-2-.084z" transform="translate(1007.342 -161.211)"/>
            </g>
            <g id="Group_6293" data-name="Group 6293" transform="translate(45.733 10.965)">
                <path id="Path_20877" data-name="Path 20877" class="cls-6" d="M-1075.593 190.068s-5.266-13.389-20.619-13.836-19.768 16.726-.536 7.332c6.605-3.225 21.155 6.504 21.155 6.504z" transform="translate(1115.381 -170.359)"/>
                <path id="Path_20878" data-name="Path 20878" class="cls-3" d="M-1110.936 162.089c.193 0 .391 0 .588.008 15.353.446 20.619 13.836 20.619 13.836s-10.705-7.159-17.919-7.159a7.34 7.34 0 0 0-3.236.656c-4.142 2.023-7.187 2.814-9.262 2.814-7.436 0-2.421-10.156 9.211-10.155m0-5.865a22.206 22.206 0 0 0-12.677 3.766c-3.751 2.631-5.9 6.188-5.9 9.759a8.052 8.052 0 0 0 3.134 6.429 9.951 9.951 0 0 0 6.236 1.931c3.219 0 7.195-1.144 11.818-3.4a2.4 2.4 0 0 1 .68-.069c3.721 0 10.815 3.609 14.664 6.172a5.862 5.862 0 0 0 3.253.984 5.858 5.858 0 0 0 3.683-1.3 5.864 5.864 0 0 0 1.777-6.709 29.127 29.127 0 0 0-5.76-8.645 28.359 28.359 0 0 0-20.147-8.906 27.298 27.298 0 0 0-.757-.011z" transform="translate(1129.517 -156.224)"/>
            </g>
            <g id="Group_6294" data-name="Group 6294" transform="translate(146.958 65.423)">
                <path id="Path_20879" data-name="Path 20879" class="cls-6" d="M-764.316 361.937s4.017 21.691 3.57 29.9c0 .003 9.194-8.837-3.57-29.9z" transform="translate(770.181 -356.072)"/>
                <path id="Path_20880" data-name="Path 20880" class="cls-3" d="M-778.452 347.8c12.764 21.066 3.57 29.9 3.57 29.9.446-8.212-3.57-29.9-3.57-29.9m0-5.865a5.853 5.853 0 0 0-2.086.385 5.865 5.865 0 0 0-3.68 6.548c1.082 5.844 3.816 22.359 3.481 28.517a5.864 5.864 0 0 0 3.412 5.65 5.852 5.852 0 0 0 2.442.533 5.862 5.862 0 0 0 4.065-1.637c.626-.6 3.8-3.933 4.741-10.438 1.133-7.808-1.343-16.8-7.36-26.732a5.866 5.866 0 0 0-5.018-2.826z" transform="translate(784.318 -341.935)"/>
            </g>
            <g id="Group_6295" data-name="Group 6295" transform="translate(8.738 66.851)">
                <path id="Path_20881" data-name="Path 20881" class="cls-6" d="M-1231.78 396.442s-1.518-23.029 2.5-29.635c-.001 0-12.497 18.299-2.5 29.635z" transform="translate(1241.527 -360.942)"/>
                <path id="Path_20882" data-name="Path 20882" class="cls-3" d="M-1243.43 352.67c-4.017 6.605-2.5 29.635-2.5 29.635-10-11.336 2.5-29.635 2.5-29.635m.005-5.865q-.219 0-.436.016a5.822 5.822 0 0 0-2.367.693 5.825 5.825 0 0 0-1.8 1.513c-.116.146-.226.3-.327.455a50.736 50.736 0 0 0-5.673 12c-3.1 9.9-1.819 18.443 3.7 24.7a5.865 5.865 0 0 0 4.4 1.986 5.861 5.861 0 0 0 2.251-.45 5.865 5.865 0 0 0 3.6-5.8c0-.055-.364-5.655-.243-11.923.207-10.762 1.615-13.768 1.876-14.235a5.823 5.823 0 0 0 .843-2.427 5.9 5.9 0 0 0 .037-.652v-.012a5.84 5.84 0 0 0-1.024-3.312 5.829 5.829 0 0 0-.917-1.047 5.845 5.845 0 0 0-2.793-1.4 5.848 5.848 0 0 0-1.126-.11zm-.005 11.73z" transform="translate(1255.677 -346.805)"/>
            </g>
            <g id="Group_6296" data-name="Group 6296" transform="translate(48.414 124.995)">
                <path id="Path_20883" data-name="Path 20883" class="cls-6" d="M-1100.195 565.09a6.86 6.86 0 0 1 1.4 1.14 10.1 10.1 0 0 1 1.1 1.327 13.833 13.833 0 0 1 1.409 3.1 46.677 46.677 0 0 1 1.187 3.2c.331 1.093.663 2.183.889 3.3l-.2.07c-.538-1-1.067-1.981-1.648-2.939l-1.726-2.871a17.96 17.96 0 0 1-1.749-2.847 10.708 10.708 0 0 1-.849-3.372z" transform="translate(1106.239 -559.225)"/>
                <path id="Path_20884" data-name="Path 20884" class="cls-3" d="M-1114.33 550.955a6.88 6.88 0 0 1 1.4 1.14 10.148 10.148 0 0 1 1.1 1.327 13.855 13.855 0 0 1 1.409 3.1 46.677 46.677 0 0 1 1.187 3.2c.331 1.093.663 2.182.888 3.3l-.2.07c-.538-1-1.067-1.981-1.648-2.94l-1.726-2.871a17.949 17.949 0 0 1-1.749-2.847 10.727 10.727 0 0 1-.849-3.373l.179-.109m0-5.865a5.859 5.859 0 0 0-3.048.854l-.179.109a5.865 5.865 0 0 0-2.8 5.388 16.485 16.485 0 0 0 1.242 5.14 14.469 14.469 0 0 0 1.786 3.148c.161.229.313.446.415.608l1.707 2.839.009.015c.476.787.936 1.636 1.421 2.536l.083.154a5.867 5.867 0 0 0 5.161 3.078 5.852 5.852 0 0 0 1.961-.339l.2-.07a5.865 5.865 0 0 0 3.786-6.686c-.278-1.378-.669-2.666-1.013-3.8l-.011-.038a52.479 52.479 0 0 0-1.377-3.733l-.006-.013c-.074-.177-.159-.408-.249-.651a14.088 14.088 0 0 0-1.825-3.641 15.84 15.84 0 0 0-1.681-2.009 12.69 12.69 0 0 0-2.568-2.056 5.863 5.863 0 0 0-3.01-.831z" transform="translate(1120.374 -545.09)"/>
            </g>
            <g id="Group_6297" data-name="Group 6297" transform="translate(67.214 132.567)">
                <path id="Path_20885" data-name="Path 20885" class="cls-6" d="M-1030.333 615.439s-7.5-12.05-5.623-18.3 4.285-7.051 4.374-5.623-2.889 3.66-1.712 7.944 2.962 12.764 2.962 12.764-.178-15.532 3.481-16.781 1.964 5.624.893 9.015-4.375 10.981-4.375 10.981z" transform="translate(1042.123 -585.046)"/>
                <path id="Path_20886" data-name="Path 20886" class="cls-3" d="M-1046.238 576.776c.3 0 .494.223.518.606.089 1.428-2.89 3.66-1.713 7.944s2.962 12.764 2.962 12.764-.178-15.532 3.481-16.781a2.476 2.476 0 0 1 .793-.15c2.594 0 1.083 6.05.1 9.165-1.071 3.392-4.374 10.979-4.374 10.979s-7.5-12.05-5.623-18.3c1.371-4.572 3.03-6.229 3.856-6.229m0-5.865c-2.9 0-6.893 1.806-9.474 10.408-1.2 4.007-.435 9.078 2.343 15.505a63.781 63.781 0 0 0 3.918 7.577 5.865 5.865 0 0 0 4.978 2.766q.214 0 .429-.016a5.865 5.865 0 0 0 4.95-3.508c.35-.805 3.458-7.972 4.589-11.554 2.73-8.645 1.451-11.976.032-13.912a7.02 7.02 0 0 0-5.724-2.884 6.322 6.322 0 0 0-6.041-4.383z" transform="translate(1056.261 -570.911)"/>
            </g>
            <g id="Group_6298" data-name="Group 6298" transform="translate(94.2 131.673)">
                <path id="Path_20887" data-name="Path 20887" class="cls-6" d="M-944.216 601.02s2.5-5.946 2.053-10.587 1.785-2.142 1.964.8-2.053 7.074-4.017 9.787z" transform="translate(950.086 -581.997)"/>
                <path id="Path_20888" data-name="Path 20888" class="cls-3" d="M-955.865 573.727c.563 0 1.41 1.607 1.517 3.374.179 2.946-2.053 7.071-4.017 9.784 0 0 2.5-5.945 2.053-10.587-.178-1.857.072-2.57.447-2.571m0-5.865a6.188 6.188 0 0 0-4.567 2.031c-1.912 2.106-1.922 4.829-1.716 6.966.218 2.273-.882 5.969-1.627 7.766a5.857 5.857 0 0 0 2.533 7.375 5.831 5.831 0 0 0 2.865.752 5.873 5.873 0 0 0 4.762-2.431c1.649-2.278 5.448-8.16 5.12-13.577-.267-4.415-2.885-8.884-7.37-8.884z" transform="translate(964.236 -567.862)"/>
            </g>
            <g id="Group_6299" data-name="Group 6299" transform="translate(107.539 121.657)">
                <path id="Path_20889" data-name="Path 20889" class="cls-6" d="M-898.682 571.026c-.646.3 4.82-9.551 8.034-12.05a10.349 10.349 0 0 0 3.838-5.266s-2.511 12.89-11.872 17.316z" transform="translate(904.603 -547.843)"/>
                <path id="Path_20890" data-name="Path 20890" class="cls-3" d="M-900.954 539.571s-2.51 12.9-11.872 17.317a.059.059 0 0 1-.025.007c-.455 0 4.894-9.6 8.059-12.057a10.348 10.348 0 0 0 3.838-5.266m-.005-5.866a5.867 5.867 0 0 0-5.66 4.348 5.376 5.376 0 0 1-1.774 2.155c-1.9 1.476-4.129 4.258-6.632 8.268a65.588 65.588 0 0 0-2.272 3.918c-.9 1.694-2.011 3.8-1.125 6.385a5.892 5.892 0 0 0 5.571 3.98 5.967 5.967 0 0 0 2.535-.571c5.06-2.39 9.292-6.92 12.232-13.1a38.183 38.183 0 0 0 2.887-8.4 5.865 5.865 0 0 0-4.551-6.86 5.894 5.894 0 0 0-1.212-.126zm.005 11.731z" transform="translate(918.746 -533.705)"/>
            </g>
            <g id="Group_6306" data-name="Group 6306" transform="translate(27.407 29.3)">
                <g id="Group_6300" data-name="Group 6300">
                    <path id="Path_20891" data-name="Path 20891" class="cls-7" d="M-1117.784 251.129s3.9-13.389 23.535-12.318l-4.463 4.285s16.246-1.607 20.352 8.926 6.427 27.493 15.889 29.992c0 0-6.962 3.035-10 0 0 0 9.283 9.819 7.141 31.777l-2.321-8.39s-2.975 28.921-50.135 29.813-48.588-29.813-48.588-29.813-3.035 4.106-1.964 8.747c0 0-7.141-8.391 5.892-33.741 0 0-4.463 3.57-9.462 2.142 0 0 10-7.5 11.068-20.173s13.925-21.958 23.387-19.994c0 0-3.035-3.692-4.107-3.632.003 0 21.66-.296 23.776 12.379z" transform="translate(1177.802 -232.885)"/>
                    <path id="Path_20892" data-name="Path 20892" class="cls-3" d="M-1155.64 224.614c1.768 0 21.629.27 23.648 12.38 0 0 3.606-12.379 21.339-12.379.71 0 1.441.02 2.2.061l-4.463 4.284s.888-.088 2.3-.088c4.631 0 14.9.943 18.051 9.014 4.106 10.533 6.427 27.493 15.888 29.992a17.65 17.65 0 0 1-6.056 1.349 5.419 5.419 0 0 1-3.941-1.349s9.283 9.819 7.141 31.777l-2.321-8.39s-2.975 28.921-50.135 29.813c-.674.013-1.344.019-2 .019-45.207 0-46.589-29.832-46.589-29.832s-3.035 4.106-1.964 8.748c0 0-7.141-8.391 5.891-33.741a12.515 12.515 0 0 1-7.025 2.479 8.832 8.832 0 0 1-2.436-.337s10-7.5 11.068-20.173c.975-11.532 11.7-20.257 20.756-20.257a12.929 12.929 0 0 1 2.63.263s-2.951-3.59-4.06-3.632h.079m-.1-5.865c-.119 0-.239 0-.358.01a5.867 5.867 0 0 0-5.4 4.592 28.747 28.747 0 0 0-10.175 6.121 28.162 28.162 0 0 0-9.221 18.274c-.811 9.593-8.4 15.7-8.759 15.986a5.812 5.812 0 0 0-2.268 5.732 5.871 5.871 0 0 0 4.191 4.588q.523.149 1.056.259c-2.6 6.946-3.837 13.143-3.678 18.51.2 6.8 2.605 10.131 3.338 10.991a5.862 5.862 0 0 0 4.468 2.064 5.835 5.835 0 0 0 .9-.069 36.927 36.927 0 0 0 2.833 4.048 41.375 41.375 0 0 0 16.145 11.966c7.912 3.411 17.558 5.14 28.673 5.14.694 0 1.4-.007 2.11-.02 11.486-.217 21.527-2.059 29.845-5.473a46.685 46.685 0 0 0 17.146-11.7 39.127 39.127 0 0 0 3.539-4.537 5.836 5.836 0 0 0 1.81.287c.169 0 .339-.007.51-.022a5.865 5.865 0 0 0 5.332-5.274c.95-9.742-.019-18.536-2.881-26.15a22.494 22.494 0 0 0 2.244-.82 5.865 5.865 0 0 0 3.5-5.824 5.865 5.865 0 0 0-4.35-5.223c-3.981-1.052-6.853-10.525-8.949-17.443-.927-3.058-1.885-6.22-2.973-9.009-2.394-6.141-7.9-10.3-15.553-11.949a5.85 5.85 0 0 0-.3-1.172 5.864 5.864 0 0 0-5.179-3.816 46.664 46.664 0 0 0-2.516-.07c-10.706 0-17.277 3.952-21 7.452q-.477-.433-.99-.842a27.879 27.879 0 0 0-9.633-4.729 51.989 51.989 0 0 0-13.367-1.882h-.1z" transform="translate(1192.011 -218.749)"/>
                </g>
                <g id="Group_6305" data-name="Group 6305" transform="translate(5.896 5.865)">
                    <g id="Group_6304" data-name="Group 6304" class="cls-8">
                        <g id="Group_6301" data-name="Group 6301" transform="translate(-10.209 24.963)">
                            <path id="Path_20893" data-name="Path 20893" class="cls-9" d="M-1183.984 356.135s11.307-.6 16.305-11.425c0 0-5 21.3-9.759 27.135 0 0 3.094-4.522 6.784-5.237 0 0-5.475 18.923 4.761 26.659 0 0-6.189-23.446 15.829-24.279 0 0 11.663-11.188 20.709-11.783s21.065 10.235 21.065 10.235 13.449 1.071 17.019 8.688 1.28 17.138 1.28 17.138 7.408-2.975 6.1-26.3c0 0 3.69 2.5 5.118 5.356 0 0-9.818-26.9-11.574-28.445 0 0 11.336 12.735 18.953 14.758l-4.523 2.023s6.546 21.542 2.975 29.635l-5.117 3.689-28.445 17.5-31.3 3.347-32.372-12.393-16.543-16.067 5.118-20.113z" transform="translate(1192.586 -338.012)"/>
                            <path id="Path_20894" data-name="Path 20894" class="cls-3" d="M-1104.484 329.743a1.2 1.2 0 0 1 .146.162l-.146-.162m.146.162c1.344 1.484 11.7 12.707 18.807 14.6l-4.523 2.023s6.546 21.542 2.975 29.635l-5.118 3.689-28.445 17.5-31.3 3.347-32.372-12.393-16.543-16.067 5.118-20.113-2.38-10.116s11.306-.6 16.305-11.425c0 0-4.658 19.852-9.263 26.475-.319.4-.5.661-.5.661q.248-.3.5-.661c1.016-1.283 3.48-4.032 6.288-4.576 0 0-5.475 18.923 4.761 26.659 0 0-6.189-23.446 15.829-24.279 0 0 11.664-11.188 20.709-11.783.242-.016.486-.024.732-.024 8.948 0 20.334 10.259 20.334 10.259s13.448 1.071 17.019 8.688 1.279 17.138 1.279 17.138 7.409-2.975 6.1-26.3c0 0 3.689 2.5 5.118 5.356 0 0-9.336-25.574-11.428-28.283M-1104.48 323.885a5.852 5.852 0 0 0-4.157 1.727 5.867 5.867 0 0 0-.379 7.858c.967 1.694 3.6 8.2 6.453 15.65a5.863 5.863 0 0 0-1.319 4.046c.026.458.048.908.066 1.347-5.073-4.662-12.532-6.281-16.161-6.813a68.4 68.4 0 0 0-6.074-4.44c-6.227-4.028-11.848-6.07-16.708-6.07-.375 0-.751.012-1.117.036-4.85.319-10.487 2.736-16.755 7.183a75.926 75.926 0 0 0-6 4.745 25.524 25.524 0 0 0-8.5 2.293 19.876 19.876 0 0 0-3.986 2.533c.046-.174.084-.351.114-.53a5.855 5.855 0 0 0-1.453-4.933c-.1-.107-.2-.209-.3-.307 2.53-7.386 4.348-14.981 4.655-16.29a5.864 5.864 0 0 0-3.8-6.885 5.856 5.856 0 0 0-1.908-.321 5.866 5.866 0 0 0-5.325 3.408 14.277 14.277 0 0 1-11.315 8.027 5.741 5.741 0 0 0-4.381 2.29 5.832 5.832 0 0 0-.993 4.909l2.052 8.719-4.764 18.722a5.865 5.865 0 0 0 1.6 5.653l16.543 16.067a5.862 5.862 0 0 0 1.99 1.27l32.372 12.392a5.864 5.864 0 0 0 2.1.388 5.821 5.821 0 0 0 .624-.033l31.3-3.347a5.858 5.858 0 0 0 2.449-.836l28.445-17.5q.183-.113.357-.238l5.118-3.689a5.867 5.867 0 0 0 1.936-2.39c1.994-4.519 2.076-11.484.251-21.292-.513-2.758-1.1-5.327-1.62-7.4a5.865 5.865 0 0 0 3.4-5.8 5.864 5.864 0 0 0-4.34-5.2c-3.7-.983-10.758-7.14-15.866-12.755a6.786 6.786 0 0 0-.715-.735 5.845 5.845 0 0 0-3.874-1.464z" transform="translate(1206.721 -323.879)"/>
                        </g>
                        <g id="Group_6302" data-name="Group 6302" transform="translate(12.43 -5.55)">
                            <path id="Path_20895" data-name="Path 20895" class="cls-9" d="M-1109.516 246.59s16.81-6.194 25.352.385c0 0-9.822-8.416-17.4-6.989z" transform="translate(1115.381 -233.959)"/>
                            <path id="Path_20896" data-name="Path 20896" class="cls-3" d="M-1113.89 225.689c7.244 0 15.59 7.152 15.59 7.152-2.963-2.283-6.92-3.027-10.826-3.027a48.073 48.073 0 0 0-14.525 2.642l7.947-6.6a9.811 9.811 0 0 1 1.814-.163m0-5.865a15.717 15.717 0 0 0-2.9.264 5.866 5.866 0 0 0-2.663 1.252l-7.948 6.6a5.865 5.865 0 0 0-1.332 7.441 5.866 5.866 0 0 0 5.082 2.936 5.851 5.851 0 0 0 2.026-.362 42.412 42.412 0 0 1 12.5-2.281c3.205 0 5.712.625 7.248 1.809a5.842 5.842 0 0 0 3.575 1.219 5.855 5.855 0 0 0 4.555-2.166 5.865 5.865 0 0 0-.736-8.152c-1.023-.877-10.257-8.563-19.406-8.563z" transform="translate(1129.517 -219.824)"/>
                        </g>
                        <g id="Group_6303" data-name="Group 6303" transform="translate(59.697 -7.886)">
                            <path id="Path_20897" data-name="Path 20897" class="cls-9" d="M-948.325 240.96s8.911-8.508 13.478-9.1l6.233 7.141s-11.335-.483-19.711 1.959z" transform="translate(954.19 -225.992)"/>
                            <path id="Path_20898" data-name="Path 20898" class="cls-3" d="m-948.983 217.722 6.234 7.141s-.9-.038-2.387-.038c-3.776 0-11.312.247-17.324 2 0 0 8.911-8.508 13.478-9.1m0-5.865a5.841 5.841 0 0 0-.758.049c-1.912.249-5.166 1.14-11.32 5.98a81.443 81.443 0 0 0-5.451 4.7 5.865 5.865 0 0 0-1.031 7.171 5.866 5.866 0 0 0 5.081 2.936 5.861 5.861 0 0 0 1.642-.235c5.466-1.594 12.788-1.766 15.683-1.766 1.319 0 2.135.033 2.143.033.08 0 .161.005.242.005a5.867 5.867 0 0 0 5.289-3.329 5.864 5.864 0 0 0-.869-6.392l-6.233-7.141a5.865 5.865 0 0 0-4.418-2.008z" transform="translate(968.326 -211.857)"/>
                        </g>
                    </g>
                </g>
            </g>
            <g id="Group_6307" data-name="Group 6307" transform="translate(42.879 36.849)">
                <path id="Path_20900" data-name="Path 20900" class="cls-10" d="M-1092.2 267.9s-4.2-5.623-14.728-2.41-12.318 13.925-12.318 13.925 10.446-13.66 27.046-11.515z" transform="translate(1125.111 -258.63)"/>
                <path id="Path_20901" data-name="Path 20901" class="cls-3" d="M-1114.959 250.36c6.083 0 8.622 3.4 8.622 3.4a27.523 27.523 0 0 0-3.523-.228c-14.543 0-23.523 11.743-23.523 11.743s1.785-10.711 12.318-13.925a20.925 20.925 0 0 1 6.106-.992m0-5.865a26.9 26.9 0 0 0-7.818 1.247c-13.85 4.225-16.294 17.986-16.392 18.57a5.883 5.883 0 0 0 3.462 6.383 5.9 5.9 0 0 0 2.321.477 5.8 5.8 0 0 0 4.65-2.319c.3-.375 7.7-9.454 18.875-9.454a21.719 21.719 0 0 1 2.772.18 5.869 5.869 0 0 0 .752.048 5.865 5.865 0 0 0 5.062-2.9 5.865 5.865 0 0 0-.363-6.467c-.439-.59-4.55-5.76-13.322-5.76z" transform="translate(1139.249 -244.495)"/>
            </g>
            <g id="Group_6308" data-name="Group 6308" transform="translate(93.134 36.767)">
                <path id="Path_20902" data-name="Path 20902" class="cls-10" d="M-947.869 267.608s10.176-6.337 18.388-1.7 8.3 12.229 8.3 12.229-7.05-12.403-26.688-10.529z" transform="translate(953.734 -258.348)"/>
                <path id="Path_20903" data-name="Path 20903" class="cls-3" d="M-950.411 250.078a13.63 13.63 0 0 1 6.793 1.7c8.212 4.642 8.3 12.229 8.3 12.229s-6.1-10.726-22.736-10.726c-1.257 0-2.574.061-3.954.193a24.834 24.834 0 0 1 11.6-3.4m0-5.865a30.4 30.4 0 0 0-14.7 4.282 5.865 5.865 0 0 0-2.455 6.857 5.865 5.865 0 0 0 5.552 3.986q.279 0 .56-.027a35.74 35.74 0 0 1 3.4-.167c12.411 0 17.227 7.119 17.656 7.794a5.714 5.714 0 0 0 5.072 3.018 6.075 6.075 0 0 0 1.5-.189 5.918 5.918 0 0 0 4.376-5.831c-.048-4.072-2.477-12.29-11.28-17.266a19.414 19.414 0 0 0-9.679-2.459z" transform="translate(967.871 -244.213)"/>
            </g>
            <g id="Group_6313" data-name="Group 6313" transform="translate(46.439 79.563)">
                <g id="Group_6309" data-name="Group 6309">
                    <path id="Path_20904" data-name="Path 20904" class="cls-11" d="M-1092.281 417.53s14.906-16.285 41.685-.446c0 0 14.55.089 14.639 14.46s-19.36 19.638-19.36 19.638-8.192 7.676-16.821 6.605-15.145-7.051-15.145-7.051-19.1-3.124-19.816-19.995c-.001-.001-.981-12.765 14.818-13.211z" transform="translate(1112.974 -404.293)"/>
                    <path id="Path_20905" data-name="Path 20905" class="cls-3" d="M-1087.1 396.023c6.113 0 13.6 1.743 22.366 6.925 0 0 14.55.089 14.639 14.46s-19.36 19.637-19.36 19.637-7.159 6.708-15.141 6.708a13.594 13.594 0 0 1-1.68-.1c-8.629-1.071-15.145-7.052-15.145-7.052s-19.1-3.124-19.816-19.995c0 0-.982-12.764 14.817-13.211 0 0 6.749-7.371 19.319-7.372m0-5.865a35.1 35.1 0 0 0-17.261 4.446 31.013 31.013 0 0 0-4.487 3.068c-5.823.565-10.416 2.678-13.675 6.3a18.59 18.59 0 0 0-4.571 12.942 24.508 24.508 0 0 0 4.471 13.327 27.71 27.71 0 0 0 8.566 7.731 37.3 37.3 0 0 0 9.984 4.058 35.761 35.761 0 0 0 17.073 7.442 19.584 19.584 0 0 0 2.4.147c8.288 0 15.358-5.1 18.06-7.34a46.042 46.042 0 0 0 9.961-4.726c8.125-5.214 12.393-12.192 12.344-20.18-.05-8.117-3.815-14.449-10.6-17.832a24.549 24.549 0 0 0-8.131-2.342c-8.266-4.672-16.38-7.04-24.136-7.04z" transform="translate(1127.108 -390.158)"/>
                </g>
                <g id="Group_6312" data-name="Group 6312" transform="translate(5.864 5.865)">
                    <g id="Group_6311" data-name="Group 6311" class="cls-12">
                        <g id="Group_6310" data-name="Group 6310" transform="translate(14.215 .287)">
                            <path id="Path_20906" data-name="Path 20906" class="cls-13" d="M-1038.58 467.675s22.137 6.546 30.825-7.022c0 0 24.517-2.856 7.141-29.516l8.331 2.737 4.761 5.118 1.874 8.45-3.421 10.354-7.379 6.07-9.64 4.166-7.26 4.685-8.331 1.385-9.007-.6z" transform="translate(1044.461 -425.272)"/>
                            <path id="Path_20907" data-name="Path 20907" class="cls-3" d="m-1014.788 417 8.331 2.737 4.761 5.118 1.874 8.45-3.422 10.354-7.379 6.07-9.64 4.166-7.26 4.685-8.331 1.385-9.007-.6-7.893-5.832a46.4 46.4 0 0 0 11.8 1.578c6.7 0 14.6-1.695 19.024-8.6 0 0 24.517-2.856 7.141-29.516m0-5.865a5.866 5.866 0 0 0-4.651 2.291 5.865 5.865 0 0 0-.263 6.776c4.56 7 6.244 12.646 4.743 15.911-1.654 3.6-7.318 4.526-7.674 4.58a5.7 5.7 0 0 0-4.235 2.66c-2.507 3.914-7.245 5.9-14.085 5.9a41.038 41.038 0 0 1-10.151-1.342 5.843 5.843 0 0 0-1.685-.249 5.853 5.853 0 0 0-5.229 3.244 5.88 5.88 0 0 0 1.779 7.35l7.893 5.832a5.867 5.867 0 0 0 3.1 1.135l9.007.6c.129.009.258.013.387.013a5.889 5.889 0 0 0 .962-.079l8.331-1.385a5.864 5.864 0 0 0 2.218-.857l6.852-4.422 9.195-3.973a5.868 5.868 0 0 0 1.4-.854l7.379-6.07a5.861 5.861 0 0 0 1.843-2.689l3.422-10.354a5.868 5.868 0 0 0 .157-3.11l-1.874-8.45a5.862 5.862 0 0 0-1.432-2.725l-4.761-5.118a5.866 5.866 0 0 0-2.463-1.577l-8.331-2.737a5.86 5.86 0 0 0-1.83-.294z" transform="translate(1058.635 -411.136)"/>
                        </g>
                    </g>
                </g>
            </g>
            <g id="Group_6314" data-name="Group 6314" transform="translate(62.683 97.974)">
                <path id="Path_20909" data-name="Path 20909" class="cls-14" d="M-1051.669 473.893s14.6 16.781 37.877-.952c0 0-19.145 31.659-37.877.952z" transform="translate(1057.546 -467.076)"/>
                <path id="Path_20910" data-name="Path 20910" class="cls-3" d="M-1027.958 458.806s-8.682 14.357-20.073 14.357c-5.525 0-11.686-3.376-17.8-13.4a23.9 23.9 0 0 0 17.091 7.184c5.729 0 12.737-2 20.785-8.136m0-5.865a5.852 5.852 0 0 0-3.553 1.2c-6.042 4.6-11.839 6.937-17.231 6.937a18.018 18.018 0 0 1-12.685-5.19 5.753 5.753 0 0 0-4.419-2.059 5.9 5.9 0 0 0-3.442 1.114 5.913 5.913 0 0 0-1.553 7.869c6.564 10.76 14.238 16.215 22.81 16.215 6.245 0 12.625-3.075 18.452-8.893a48.519 48.519 0 0 0 6.639-8.293 5.865 5.865 0 0 0-1.1-7.4 5.856 5.856 0 0 0-3.92-1.5zm0 11.729z" transform="translate(1071.712 -452.941)"/>
            </g>
            <g id="Group_6315" data-name="Group 6315" transform="translate(46.438 48.328)">
                <path id="Path_20911" data-name="Path 20911" class="cls-14" d="M-1107.11 311.451a8.959 8.959 0 0 1 2.511-4.189 12.417 12.417 0 0 1 4.153-2.707c.383-.165.788-.266 1.182-.4a7.872 7.872 0 0 1 1.209-.289c.409-.065.815-.142 1.225-.188.412-.023.824-.033 1.233-.037a6.555 6.555 0 0 1 1.224.067c.406.049.809.111 1.207.18a12.526 12.526 0 0 1 2.313.777c-.8.282-1.557.4-2.3.6-.371.1-.738.2-1.1.281l-.542.122-.531.16c-.353.1-.7.2-1.054.279-.342.121-.684.226-1.025.335l-.512.153-.5.193c-.33.127-.676.217-1 .367a30.789 30.789 0 0 0-3.85 1.846 40.69 40.69 0 0 0-3.843 2.45z" transform="translate(1112.975 -297.774)"/>
                <path id="Path_20912" data-name="Path 20912" class="cls-3" d="M-1109.476 289.5a6.293 6.293 0 0 1 .967.071c.406.05.809.111 1.207.18a12.528 12.528 0 0 1 2.313.777c-.8.282-1.557.4-2.3.6-.371.1-.738.2-1.1.281l-.542.122-.531.16c-.353.1-.7.2-1.054.279-.342.121-.684.226-1.025.335l-.512.153-.5.193c-.33.127-.675.217-1 .367a30.749 30.749 0 0 0-3.85 1.846 40.691 40.691 0 0 0-3.849 2.453 8.955 8.955 0 0 1 2.511-4.189 12.42 12.42 0 0 1 4.153-2.707c.383-.165.788-.266 1.182-.4a7.859 7.859 0 0 1 1.209-.289c.409-.065.815-.142 1.225-.188.411-.023.824-.033 1.233-.037h.257m0-5.865q-.187 0-.374.005c-.539.006-1 .02-1.444.045a5.671 5.671 0 0 0-.32.027c-.457.051-.871.12-1.2.176l-.253.042a13.647 13.647 0 0 0-2.036.477l-.161.051c-.08.027-.161.051-.242.076a13.239 13.239 0 0 0-1.292.453 18.381 18.381 0 0 0-6.043 3.952l-.041.04a14.625 14.625 0 0 0-4.072 6.992 5.864 5.864 0 0 0 2.441 6.211 5.858 5.858 0 0 0 3.268 1 5.859 5.859 0 0 0 3.4-1.089 35.253 35.253 0 0 1 3.3-2.107 24.855 24.855 0 0 1 3.111-1.5q.128-.05.254-.106l.111-.037c.157-.053.374-.126.616-.218l.018-.007.279-.108.288-.086.1-.031.2-.063c.214-.068.448-.142.7-.226.311-.078.642-.167 1.019-.276l.07-.02.331-.1.338-.076.025-.006c.419-.1.852-.206 1.32-.336.149-.039.333-.08.545-.128a18.314 18.314 0 0 0 2.185-.6 5.864 5.864 0 0 0 3.9-5.274 5.864 5.864 0 0 0-3.428-5.592 18.433 18.433 0 0 0-3.395-1.147q-.169-.04-.339-.07a30.557 30.557 0 0 0-1.423-.214 12.256 12.256 0 0 0-1.761-.125z" transform="translate(1127.111 -283.639)"/>
            </g>
            <g id="Group_6316" data-name="Group 6316" transform="translate(102.507 48.047)">
                <path id="Path_20913" data-name="Path 20913" class="cls-14" d="M-915.907 303.186a9.558 9.558 0 0 1 4.451-.42 12.252 12.252 0 0 1 4.3 1.386 10.558 10.558 0 0 1 3.482 2.975 8.27 8.27 0 0 1 1.687 4.181c-1.212-.955-2.149-1.893-3.251-2.635a26.431 26.431 0 0 0-3.257-2.067 47.623 47.623 0 0 0-3.531-1.723z" transform="translate(921.772 -296.816)"/>
                <path id="Path_20914" data-name="Path 20914" class="cls-3" d="M-927.026 288.545a12.676 12.676 0 0 1 1.435.086 12.253 12.253 0 0 1 4.305 1.386 10.557 10.557 0 0 1 3.481 2.976 8.27 8.27 0 0 1 1.688 4.181c-1.212-.955-2.149-1.893-3.252-2.635a26.4 26.4 0 0 0-3.257-2.067 47.23 47.23 0 0 0-3.531-1.723l-3.885-1.7a8.572 8.572 0 0 1 3.016-.506m0-5.865a14.448 14.448 0 0 0-5.065.876 5.865 5.865 0 0 0-3.813 5.335 5.864 5.864 0 0 0 3.516 5.535l3.876 1.693c1.13.5 2.14.991 3.086 1.505l.068.036a20.623 20.623 0 0 1 2.537 1.618c.058.043.117.084.177.125a16.778 16.778 0 0 1 1.379 1.113c.443.381.945.812 1.519 1.264a5.861 5.861 0 0 0 3.632 1.259 5.858 5.858 0 0 0 2.857-.743 5.864 5.864 0 0 0 2.969-5.792 14.046 14.046 0 0 0-2.877-7.1 16.432 16.432 0 0 0-5.359-4.558 18 18 0 0 0-6.335-2.031l-.065-.008a18.671 18.671 0 0 0-2.1-.123z" transform="translate(935.907 -282.68)"/>
            </g>
            <g id="Group_6326" data-name="Group 6326" transform="translate(125.09 17.783)">
                <g id="Group_6317" data-name="Group 6317">
                    <path id="Path_20915" data-name="Path 20915" class="cls-15" d="M-838.894 212.214s8.033-15.774 24.9-12.216 10.89 23.909 10.89 23.909-2.9 12.05-17.382 12.764c0 0-3.772-8.034-8.057-9.194 0 0 6.831 1.607 8.057 4.017 0 0-2.612-8.48-9.753-12.14a5.347 5.347 0 0 1 5.623-.357s-7.226-6.247-14.278-6.783z" transform="translate(844.758 -193.611)"/>
                    <path id="Path_20916" data-name="Path 20916" class="cls-3" d="M-832.983 185.341a23.474 23.474 0 0 1 4.858.523c16.87 3.558 10.89 23.909 10.89 23.909s-2.9 12.05-17.382 12.764c0 0-3.772-8.034-8.057-9.194 0 0 6.831 1.607 8.057 4.017 0 0-2.612-8.48-9.753-12.139a5.927 5.927 0 0 1 3.208-1.028 4.664 4.664 0 0 1 2.415.671s-7.23-6.248-14.282-6.784c0 0 6.489-12.738 20.046-12.739m0-5.865c-16.958 0-24.942 15.29-25.273 15.941a5.865 5.865 0 0 0 .113 5.535 5.864 5.864 0 0 0 4.669 2.975 11.914 11.914 0 0 1 3.259.793 5.839 5.839 0 0 0 0 .982 5.864 5.864 0 0 0 2.634 4.425 5.862 5.862 0 0 0-.779 1.777 5.865 5.865 0 0 0 4.044 7.068c1.031.552 3.187 3.522 4.4 6.068a5.846 5.846 0 0 0 5.3 3.361q.146 0 .292-.007c9.633-.475 15.31-5.045 18.375-8.8a23.27 23.27 0 0 0 4.373-8.267c.485-1.694 3.448-13.109-1.913-22.082-2.815-4.712-7.456-7.867-13.421-9.125a29.483 29.483 0 0 0-6.066-.649z" transform="translate(858.894 -179.476)"/>
                </g>
                <g id="Group_6325" data-name="Group 6325" transform="translate(5.865 5.865)">
                    <g id="Group_6324" data-name="Group 6324" class="cls-16">
                        <g id="Group_6318" data-name="Group 6318" transform="translate(-4.347 4.558)">
                            <path id="Path_20917" data-name="Path 20917" class="cls-17" d="M-811.939 235.018s13.274 5.262 16.411 1.959l-1.147 11.6-4.82 10.845-9.729 5.043-9.551-.982-8.3-5.177-3.125-9.906-1.518-6.962 5.267-.535 3.148.113z" transform="translate(839.584 -229.154)"/>
                            <path id="Path_20918" data-name="Path 20918" class="cls-3" d="M-826.075 220.885s7.689 3.048 12.747 3.048a5.022 5.022 0 0 0 3.664-1.089l-1.147 11.6-4.82 10.845-9.729 5.043-9.551-.982-8.3-5.177-3.124-9.908-1.518-6.962 5.267-.535 3.149.113 13.365-6M-826.075 215.017a5.859 5.859 0 0 0-2.4.513l-12.118 5.44-1.784-.064h-.21a5.9 5.9 0 0 0-.593.03l-5.266.536a5.864 5.864 0 0 0-4.155 2.392 5.864 5.864 0 0 0-.982 4.692l1.518 6.962q.057.26.137.515l3.124 9.908a5.863 5.863 0 0 0 2.49 3.213l8.3 5.177a5.868 5.868 0 0 0 2.5.858l9.551.982a5.87 5.87 0 0 0 .6.031 5.869 5.869 0 0 0 2.7-.658l9.729-5.043a5.863 5.863 0 0 0 2.66-2.825l4.82-10.845a5.861 5.861 0 0 0 .477-1.8l1.135-11.481a5.925 5.925 0 0 0 .041-.7 5.865 5.865 0 0 0-5.476-5.852q-.194-.013-.388-.013-.144 0-.288.007a5.833 5.833 0 0 0-3.11 1.076c-.075 0-.164.006-.268.006-2.846 0-8.006-1.618-10.59-2.637a5.88 5.88 0 0 0-2.158-.41z" transform="translate(853.719 -215.021)"/>
                        </g>
                        <g id="Group_6323" data-name="Group 6323" transform="translate(.294 4.558)">
                            <g id="Group_6319" data-name="Group 6319">
                                <path id="Path_20919" data-name="Path 20919" class="cls-10" d="M-815.48 242.154s9.729-8.748 15.889-6.873 5.177 9.551 4.909 11.782-6.784 13.121-16.781 7.766l-5.356-2.41-1.071-8.84z" transform="translate(823.755 -229.153)"/>
                                <path id="Path_20920" data-name="Path 20920" class="cls-3" d="M-815.6 220.883a6.424 6.424 0 0 1 1.876.263c6.159 1.874 5.177 9.551 4.909 11.782-.216 1.8-4.5 9.231-11.388 9.231a11.348 11.348 0 0 1-5.393-1.465l-5.356-2.41-1.071-8.84 2.41-1.425s7.937-7.136 14.012-7.137m0-5.865c-3.673 0-7.872 1.52-12.481 4.516a50.191 50.191 0 0 0-4.971 3.705l-1.955 1.156a5.865 5.865 0 0 0-2.838 5.754l1.071 8.84a5.864 5.864 0 0 0 3.415 4.643l5.187 2.334a17.124 17.124 0 0 0 7.969 2.057 16.982 16.982 0 0 0 12.47-5.787c1.961-2.085 4.379-5.591 4.741-8.609l.007-.061a24.642 24.642 0 0 0-.147-7.924 12.71 12.71 0 0 0-8.885-10.107 12.3 12.3 0 0 0-3.583-.517z" transform="translate(837.891 -215.018)"/>
                            </g>
                            <g id="Group_6322" data-name="Group 6322" transform="translate(5.865 5.865)">
                                <g id="Group_6321" data-name="Group 6321" class="cls-18">
                                    <g id="Group_6320" data-name="Group 6320" transform="translate(-8.186 .557)">
                                        <path id="Path_20921" data-name="Path 20921" class="cls-19" d="M-825.805 258.079s10.622-.536 12.765 2.321 10.176 7.409 14.46-3.481c0 0 1.518 9.462-6.605 13.925s-19.1-1.428-19.1-1.428z" transform="translate(831.67 -251.054)"/>
                                        <path id="Path_20922" data-name="Path 20922" class="cls-3" d="M-812.716 242.784s1.517 9.462-6.605 13.925a14.515 14.515 0 0 1-7.054 1.671 28.968 28.968 0 0 1-12.048-3.1l-1.517-11.336s.79-.04 1.983-.04c3.18 0 9.223.283 10.782 2.361a9.214 9.214 0 0 0 6.749 3.422c2.723 0 5.651-1.665 7.711-6.9m0-5.865a5.864 5.864 0 0 0-5.454 3.718c-.814 2.069-1.769 3.185-2.254 3.185a3.58 3.58 0 0 1-2.065-1.086c-2.193-2.925-5.934-3.812-8.556-4.224a46.556 46.556 0 0 0-6.91-.472c-1.3 0-2.182.042-2.278.047a5.864 5.864 0 0 0-4.214 2.108 5.864 5.864 0 0 0-1.3 4.528l1.518 11.336a5.864 5.864 0 0 0 3.04 4.389 34.423 34.423 0 0 0 14.82 3.8 20.263 20.263 0 0 0 9.879-2.4 18.313 18.313 0 0 0 9.255-12.529 21.355 21.355 0 0 0 .316-7.464 5.865 5.865 0 0 0-5.159-4.9 5.859 5.859 0 0 0-.634-.034z" transform="translate(845.805 -236.919)"/>
                                    </g>
                                </g>
                            </g>
                        </g>
                    </g>
                </g>
            </g>
            <g id="Group_6335" data-name="Group 6335" transform="translate(1.197 18.756)">
                <g id="Group_6327" data-name="Group 6327">
                    <path id="Path_20925" data-name="Path 20925" class="cls-15" d="M-1224.368 215.481s-4.879-13.806-21.542-12.615-15.948 18.685-15.115 22.732 9.41 14.4 18.153 14.044c0 0 1.6-5.951 6.006-8.212 0 0-5.7 2.092-6.006 2.831a25.425 25.425 0 0 1 10.053-12.471h-5.356s6.365-6.42 13.807-6.309z" transform="translate(1267.244 -196.928)"/>
                    <path id="Path_20926" data-name="Path 20926" class="cls-3" d="M-1258.053 188.657a20.516 20.516 0 0 1 19.536 12.688h-.192c-7.359 0-13.613 6.309-13.613 6.309h5.356a25.424 25.424 0 0 0-10.053 12.471c.3-.739 6.006-2.831 6.006-2.831-4.4 2.261-6.006 8.212-6.006 8.212q-.222.009-.443.009c-8.588 0-16.891-10.075-17.711-14.053-.833-4.046-1.547-21.542 15.115-22.732a28.243 28.243 0 0 1 2.005-.073m0-5.865c-.792 0-1.607.03-2.421.088-6.806.486-12.338 3.3-16 8.13-5.534 7.306-5.326 17.346-4.443 21.635.843 4.1 4.53 8.7 7.7 11.636 4.936 4.578 10.532 7.1 15.757 7.1.227 0 .457 0 .682-.014a5.752 5.752 0 0 0 5.419-4.317c.416-1.425 1.655-3.833 3.027-4.538a5.865 5.865 0 0 0 2.693-7.571 5.914 5.914 0 0 0-.358-.691 19.253 19.253 0 0 1 2.216-1.67 5.865 5.865 0 0 0 2.681-5.011 8.793 8.793 0 0 1 2.394-.359h.192a5.864 5.864 0 0 0 4.763-2.443 5.865 5.865 0 0 0 .766-5.377 25.842 25.842 0 0 0-5.4-8.42 26.287 26.287 0 0 0-19.669-8.178z" transform="translate(1281.393 -182.792)"/>
                </g>
                <g id="Group_6334" data-name="Group 6334" transform="translate(5.871 5.865)">
                    <g id="Group_6333" data-name="Group 6333" class="cls-20">
                        <g id="Group_6328" data-name="Group 6328" transform="translate(-8.147 4.065)">
                            <path id="Path_20927" data-name="Path 20927" class="cls-17" d="M-1254.147 238.225s-11.9 3.923-13.925-.954-.595 20.924-.595 20.924l17.614 8.475h6.07l8.331-11.069s3.689-7.31 3.689-7.88-1.429-5.122-1.429-5.122h-10.116z" transform="translate(1275.021 -230.792)"/>
                            <path id="Path_20928" data-name="Path 20928" class="cls-3" d="M-1282.658 222.522c.127 0 .276.193.45.613.776 1.87 3 2.446 5.454 2.446a32.068 32.068 0 0 0 8.47-1.492l9.64 4.374h10.116s1.428 4.553 1.428 5.122-3.69 7.88-3.69 7.88l-8.331 11.069h-6.07l-17.614-8.475s-1.193-21.54.145-21.537m0-5.865a6.05 6.05 0 0 0-4.37 1.887c-1.8 1.9-2.005 4.408-2.1 7.743-.053 1.936-.039 4.507.043 7.641.137 5.243.412 10.245.424 10.455a5.863 5.863 0 0 0 3.313 4.96l17.615 8.475a5.863 5.863 0 0 0 2.542.58h6.07a5.865 5.865 0 0 0 4.686-2.338l8.331-11.068a5.839 5.839 0 0 0 .55-.885c.038-.076.953-1.889 1.884-3.806 2.093-4.309 2.434-5.25 2.434-6.716 0-.788 0-1.468-1.7-6.878a5.865 5.865 0 0 0-5.6-4.109h-8.847l-8.486-3.85a5.863 5.863 0 0 0-2.423-.524 5.858 5.858 0 0 0-1.836.295 25.856 25.856 0 0 1-6.634 1.2c-.261 0-.475-.011-.647-.025a6.18 6.18 0 0 0-5.247-3.034h-.011z" transform="translate(1289.157 -216.657)"/>
                        </g>
                        <g id="Group_6329" data-name="Group 6329" transform="translate(.929 4.425)">
                            <path id="Path_20929" data-name="Path 20929" class="cls-10" d="M-1217.03 245.22c.357-.3-7.209-10.65-17.232-6.246s.927 22.562 12.59 20.088l6.9-4.735a24.689 24.689 0 0 1-.595-3.571 51.357 51.357 0 0 0-1.663-5.536z" transform="translate(1244.063 -232.019)"/>
                            <path id="Path_20930" data-name="Path 20930" class="cls-3" d="M-1243.4 223.749c7.423 0 12.522 7.091 12.227 7.335a51.361 51.361 0 0 1 1.666 5.536 24.738 24.738 0 0 0 .6 3.571l-6.9 4.735a10.588 10.588 0 0 1-2.2.23c-10.764 0-19.777-16.194-10.389-20.319a12.344 12.344 0 0 1 5-1.089m0-5.865a18.229 18.229 0 0 0-7.364 1.584c-5.743 2.523-8.46 8.139-7.092 14.655a22.316 22.316 0 0 0 6.717 11.392 19.518 19.518 0 0 0 13.124 5.506 16.514 16.514 0 0 0 3.418-.358 5.869 5.869 0 0 0 2.1-.9l6.9-4.736a5.865 5.865 0 0 0 2.408-6.108 47.258 47.258 0 0 1-.444-2.239 15.694 15.694 0 0 0-1.082-4.759c-.28-.868-.563-1.71-.739-2.228a6.3 6.3 0 0 0-.213-.722c-.839-2.331-3.508-5.016-5.538-6.606a19.783 19.783 0 0 0-12.2-4.479z" transform="translate(1258.206 -217.884)"/>
                        </g>
                        <g id="Group_6332" data-name="Group 6332" transform="translate(6.797 10.29)">
                            <g id="Group_6331" data-name="Group 6331" class="cls-21">
                                <g id="Group_6330" data-name="Group 6330" transform="translate(-7.39 1.443)">
                                    <path id="Path_20931" data-name="Path 20931" class="cls-19" d="M-1243.305 262.9s5.832 8.631 11.306 5.06 9.878-5.777 14.52-4.257l-7.736 15.513-7.624-.932s-11.537-8.901-10.466-15.384z" transform="translate(1249.246 -257.007)"/>
                                    <path id="Path_20932" data-name="Path 20932" class="cls-3" d="M-1257.454 248.7s4 5.926 8.492 5.926a5.064 5.064 0 0 0 2.815-.866c4.275-2.788 7.9-4.744 11.489-4.744a9.653 9.653 0 0 1 3.031.487l-7.736 15.513-7.623-.932s-11.538-8.9-10.467-15.385m0-5.892a5.949 5.949 0 0 0-1.241.131 5.875 5.875 0 0 0-4.546 4.805c-.761 4.608 1.29 9.52 6.272 15.018a54.863 54.863 0 0 0 6.4 5.967 5.863 5.863 0 0 0 2.87 1.178l7.624.932a5.846 5.846 0 0 0 .713.044 5.866 5.866 0 0 0 5.247-3.248l7.736-15.513a5.866 5.866 0 0 0 .163-4.879 5.865 5.865 0 0 0-3.587-3.312 15.579 15.579 0 0 0-4.856-.778c-5.4 0-10.281 2.832-14.456 5.543a11.136 11.136 0 0 1-3.486-3.288 5.808 5.808 0 0 0-4.852-2.6z" transform="translate(1263.394 -242.805)"/>
                                </g>
                            </g>
                        </g>
                    </g>
                </g>
            </g>
            <g id="Group_6336" data-name="Group 6336" transform="translate(88.046 57.291)">
                <path id="Path_20935" data-name="Path 20935" class="cls-9" d="M-965.219 347.615s5.8-10.722 15.353-13.311c0-.004-13.934-2.117-15.353 13.311z" transform="translate(971.084 -328.341)"/>
                <path id="Path_20936" data-name="Path 20936" class="cls-3" d="M-965.677 320.071a12.318 12.318 0 0 1 1.674.1c-9.551 2.589-15.353 13.311-15.353 13.311 1.115-12.106 9.932-13.409 13.678-13.409m0-5.865c-8.6 0-18.247 4.922-19.519 18.736a5.879 5.879 0 0 0 4.151 6.176 5.909 5.909 0 0 0 1.691.248 5.829 5.829 0 0 0 5.152-3.089c1.32-2.39 5.978-8.888 11.733-10.448a5.865 5.865 0 0 0 4.321-5.994 5.865 5.865 0 0 0-4.974-5.465 17.788 17.788 0 0 0-2.555-.165z" transform="translate(985.221 -314.206)"/>
            </g>
            <g id="Group_6337" data-name="Group 6337" transform="translate(66.032 63.156)">
                <path id="Path_20937" data-name="Path 20937" class="cls-9" d="M-1044.94 347.615s-5.8-10.722-15.353-13.311c0-.004 13.932-2.117 15.353 13.311z" transform="translate(1060.293 -334.206)"/>
                <path id="Path_20938" data-name="Path 20938" class="cls-3" d="M-1058.618 334.206c3.746 0 12.563 1.3 13.678 13.409 0 0-5.8-10.722-15.353-13.311a12.3 12.3 0 0 1 1.675-.1" transform="translate(1060.293 -334.206)"/>
            </g>
            <g id="Group_6338" data-name="Group 6338" transform="translate(110.422 72.353)">
                <path id="Path_20939" data-name="Path 20939" class="cls-9" d="M-879.524 385.569s-.739 10.255-9.389 15.061c0 0 7.752 4.26 9.389-15.061z" transform="translate(894.778 -379.704)"/>
                <path id="Path_20940" data-name="Path 20940" class="cls-3" d="M-893.659 371.433s0 .023-.006.068l.006-.068m-.006.068c-1.144 13.349-5.216 15.392-7.6 15.392a4.018 4.018 0 0 1-1.781-.4c8.238-4.576 9.3-14.094 9.383-14.993m0-5.933a5.865 5.865 0 0 0-5.837 5.37v.04c-.044.457-.8 7.284-6.39 10.389a5.864 5.864 0 0 0-3.017 5.14 5.865 5.865 0 0 0 3.041 5.126 9.78 9.78 0 0 0 4.6 1.123c2.09 0 6.058-.687 9.14-5.292 2.3-3.431 3.706-8.483 4.3-15.445l.013-.165a5.865 5.865 0 0 0-5.391-6.27q-.234-.018-.465-.018z" transform="translate(908.913 -365.568)"/>
            </g>
            <g id="Group_6339" data-name="Group 6339" transform="translate(45.474 72.374)">
                <path id="Path_20941" data-name="Path 20941" class="cls-9" d="M-1110.4 385.584s.364 10.276 8.833 15.394c-.004 0-7.906 3.973-8.833-15.394z" transform="translate(1116.268 -379.736)"/>
                <path id="Path_20942" data-name="Path 20942" class="cls-3" d="M-1124.536 371.49v.069-.069m0 .069c.05.9.765 10.451 8.829 15.325a3.972 3.972 0 0 1-1.64.336c-2.364 0-6.519-1.989-7.189-15.661m0-5.916h-.233a5.879 5.879 0 0 0-5.634 6.05s0 .056.007.165c.351 7.13 1.621 12.307 3.883 15.826 3.019 4.7 7.037 5.4 9.163 5.4a9.758 9.758 0 0 0 4.274-.961 5.866 5.866 0 0 0 3.227-5.012 5.865 5.865 0 0 0-2.827-5.248c-5.475-3.309-5.979-10.165-6.006-10.616v-.042a5.849 5.849 0 0 0-5.852-5.564z" transform="translate(1130.4 -365.642)"/>
            </g>
            <g id="Group_6344" data-name="Group 6344" transform="translate(76.949 82.075)">
                <g id="Group_6340" data-name="Group 6340">
                    <path id="Path_20943" data-name="Path 20943" class="cls-22" d="M-1022.316 406.621s-3.154-4.149 3.511-6.567 17.644-1.667 17.659 3.283-3.675 9.175-10.1 9.77-11.07-6.486-11.07-6.486z" transform="translate(1023.062 -398.723)"/>
                    <path id="Path_20944" data-name="Path 20944" class="cls-3" d="M-1010.634 398.723c4.984 0 9.479 1.448 9.488 4.615.015 4.95-3.675 9.175-10.1 9.77q-.389.036-.768.035c-6.026 0-10.3-6.522-10.3-6.522s-3.154-4.149 3.511-6.567a24.846 24.846 0 0 1 8.171-1.331" transform="translate(1023.062 -398.723)"/>
                </g>
                <g id="Group_6343" data-name="Group 6343">
                    <g id="Group_6342" data-name="Group 6342" class="cls-23">
                        <g id="Group_6341" data-name="Group 6341" transform="translate(-7.039 -1.99)">
                            <path id="Path_20945" data-name="Path 20945" class="cls-24" d="M-1027.055 414.645s7.944 6.605 14.639 4.374a19.22 19.22 0 0 0 9.64-6.754v6.308l-4.552 5.088s-5.981 1.874-6.248 1.874-8.033-1.7-8.391-1.785-5.445-4.106-5.088-4.374 0-4.731 0-4.731z" transform="translate(1032.936 -406.304)"/>
                            <path id="Path_20946" data-name="Path 20946" class="cls-3" d="M-1016.907 397.9v6.308l-4.552 5.088s-5.981 1.874-6.248 1.874-8.034-1.7-8.391-1.785-5.445-4.106-5.088-4.374 0-4.731 0-4.731 5.814 4.834 11.686 4.834a9.294 9.294 0 0 0 2.953-.46 19.222 19.222 0 0 0 9.64-6.754m-.007-5.96a5.683 5.683 0 0 0-4.884 2.72 13.794 13.794 0 0 1-6.6 4.43 3.438 3.438 0 0 1-1.1.159c-2.99 0-6.818-2.57-7.944-3.485a5.806 5.806 0 0 0-3.749-1.371 5.884 5.884 0 0 0-2.69.653 5.873 5.873 0 0 0-3.149 5.7c.081 1.019.138 2.228.141 2.886a5.916 5.916 0 0 0-.059 2.6c.459 2.273 2.008 3.676 4.5 5.717 3.02 2.47 3.821 2.849 4.927 3.126.4.1 3.377.746 4.416.97 4.6.991 4.689.991 5.4.991 1.01 0 1.165 0 8-2.143a5.871 5.871 0 0 0 2.617-1.686l4.552-5.088a5.865 5.865 0 0 0 1.494-3.911V397.9a5.919 5.919 0 0 0-4.239-5.735 6.089 6.089 0 0 0-1.633-.225z" transform="translate(1047.067 -391.938)"/>
                        </g>
                    </g>
                </g>
            </g>
            <g id="Group_6345" data-name="Group 6345" transform="translate(30.917 53.157)">
                <path id="Path_20948" data-name="Path 20948" class="cls-14" d="M-1057.68 341.945a15.932 15.932 0 0 0-12.994-6.9 18.072 18.072 0 0 0-17.772-14.938 18.074 18.074 0 0 0-17.361 13.135 12.445 12.445 0 0 0-6.176 0 18.075 18.075 0 0 0-17.36-13.132 18.069 18.069 0 0 0-18.021 17.111 15.879 15.879 0 0 0-12.222 6.869 2.447 2.447 0 0 0 .591 3.41 2.436 2.436 0 0 0 1.407.447 2.446 2.446 0 0 0 2-1.038 11.077 11.077 0 0 1 8.635-4.813 18.074 18.074 0 0 0 17.607 14.106 18.066 18.066 0 0 0 18.046-18.046v-.028a7.658 7.658 0 0 1 4.806.025 18.066 18.066 0 0 0 18.046 18.046 18.071 18.071 0 0 0 17.957-16.257 11.094 11.094 0 0 1 8.809 4.822 2.446 2.446 0 0 0 2 1.038 2.437 2.437 0 0 0 1.407-.447 2.447 2.447 0 0 0 .595-3.41zm-71.664 9.36a13.166 13.166 0 0 1-13.151-13.151A13.166 13.166 0 0 1-1129.344 325a13.166 13.166 0 0 1 13.152 13.151 13.166 13.166 0 0 1-13.152 13.149zm40.9 0a13.166 13.166 0 0 1-13.151-13.151A13.166 13.166 0 0 1-1088.447 325a13.166 13.166 0 0 1 13.151 13.151 13.166 13.166 0 0 1-13.151 13.149z" transform="translate(1165.901 -314.243)"/>
                <path id="Path_20949" data-name="Path 20949" class="cls-3" d="M-1102.587 305.973a18.072 18.072 0 0 1 17.773 14.938 15.932 15.932 0 0 1 12.995 6.9 2.447 2.447 0 0 1-.591 3.41 2.439 2.439 0 0 1-1.407.447 2.446 2.446 0 0 1-2-1.038 11.094 11.094 0 0 0-8.809-4.822 18.071 18.071 0 0 1-17.957 16.257 18.066 18.066 0 0 1-18.045-18.046 7.089 7.089 0 0 0-2.376-.4 8.241 8.241 0 0 0-2.429.377v.028a18.066 18.066 0 0 1-18.046 18.046 18.074 18.074 0 0 1-17.607-14.106 11.077 11.077 0 0 0-8.635 4.813 2.446 2.446 0 0 1-2 1.038 2.438 2.438 0 0 1-1.407-.447 2.447 2.447 0 0 1-.591-3.41 15.88 15.88 0 0 1 12.222-6.869 18.069 18.069 0 0 1 18.021-17.111 18.074 18.074 0 0 1 17.36 13.132 12.958 12.958 0 0 1 3.125-.389 11.948 11.948 0 0 1 3.05.391 18.074 18.074 0 0 1 17.361-13.135m0 31.2a13.166 13.166 0 0 0 13.151-13.151 13.166 13.166 0 0 0-13.151-13.151 13.166 13.166 0 0 0-13.151 13.151 13.166 13.166 0 0 0 13.151 13.151m-40.9 0a13.166 13.166 0 0 0 13.151-13.151 13.166 13.166 0 0 0-13.151-13.151 13.166 13.166 0 0 0-13.151 13.151 13.166 13.166 0 0 0 13.151 13.151m40.9-37.061a23.666 23.666 0 0 0-14.543 4.943 24.128 24.128 0 0 0-5.905 6.606 24.121 24.121 0 0 0-5.906-6.607 23.666 23.666 0 0 0-14.542-4.942 23.8 23.8 0 0 0-16.488 6.606 23.844 23.844 0 0 0-6.67 11.338 21.523 21.523 0 0 0-11.88 8.524 8.258 8.258 0 0 0-1.394 6.207 8.258 8.258 0 0 0 3.4 5.375 8.27 8.27 0 0 0 4.784 1.517 8.324 8.324 0 0 0 6.8-3.525 6.436 6.436 0 0 1 .5-.627 24.086 24.086 0 0 0 5.9 7.065 23.944 23.944 0 0 0 15.048 5.342 23.918 23.918 0 0 0 20.449-11.529 23.919 23.919 0 0 0 20.448 11.529 23.843 23.843 0 0 0 16.1-6.242 23.96 23.96 0 0 0 5.722-7.889q.077.1.152.208a8.325 8.325 0 0 0 6.8 3.526 8.27 8.27 0 0 0 4.783-1.516 8.257 8.257 0 0 0 3.4-5.376 8.257 8.257 0 0 0-1.394-6.207 21.645 21.645 0 0 0-9.551-7.716 21.971 21.971 0 0 0-3.648-1.141 24.023 24.023 0 0 0-6.9-9.78 23.9 23.9 0 0 0-15.464-5.688zm0 31.2a7.3 7.3 0 0 1-7.286-7.286 7.3 7.3 0 0 1 7.286-7.286 7.3 7.3 0 0 1 7.287 7.286 7.3 7.3 0 0 1-7.287 7.286zm-40.9 0a7.3 7.3 0 0 1-7.286-7.286 7.3 7.3 0 0 1 7.286-7.286 7.3 7.3 0 0 1 7.287 7.286 7.3 7.3 0 0 1-7.287 7.286z" transform="translate(1180.041 -300.108)"/>
            </g>
            <g id="Group_6350" data-name="Group 6350" transform="translate(52.431 61.837)">
                <g id="Group_6346" data-name="Group 6346">
                    <circle id="Ellipse_94" data-name="Ellipse 94" class="cls-11" cx="8.863" cy="8.863" r="8.863" transform="translate(5.865 5.865)"/>
                    <path id="Path_20950" data-name="Path 20950" class="cls-3" d="M-1091.947 335.574a8.863 8.863 0 0 1 8.863 8.863 8.863 8.863 0 0 1-8.863 8.863 8.863 8.863 0 0 1-8.863-8.863 8.863 8.863 0 0 1 8.863-8.863m0-5.865a14.744 14.744 0 0 0-14.728 14.728 14.745 14.745 0 0 0 14.728 14.728 14.745 14.745 0 0 0 14.728-14.728 14.744 14.744 0 0 0-14.728-14.728z" transform="translate(1106.675 -329.709)"/>
                </g>
                <g id="Group_6347" data-name="Group 6347" transform="translate(7.498 6.323)">
                    <ellipse id="Ellipse_95" data-name="Ellipse 95" class="cls-25" cx="3.749" cy="4.69" rx="3.749" ry="4.69" transform="translate(5.865 5.865)"/>
                    <path id="Path_20951" data-name="Path 20951" class="cls-3" d="M-1071.491 357.137c2.07 0 3.749 2.1 3.749 4.69s-1.678 4.691-3.749 4.691-3.749-2.1-3.749-4.691 1.678-4.69 3.749-4.69m0-5.865a9.265 9.265 0 0 0-7.232 3.577 11.188 11.188 0 0 0-2.382 6.978 11.189 11.189 0 0 0 2.382 6.978 9.265 9.265 0 0 0 7.232 3.577 9.268 9.268 0 0 0 7.232-3.577 11.192 11.192 0 0 0 2.381-6.978 11.191 11.191 0 0 0-2.381-6.978 9.268 9.268 0 0 0-7.232-3.577z" transform="translate(1081.105 -351.272)"/>
                </g>
                <g id="Group_6348" data-name="Group 6348" transform="translate(9.644 10.734)">
                    <circle id="Ellipse_96" data-name="Ellipse 96" class="cls-14" cx="2.369" cy="2.369" r="2.369" transform="translate(5.865 5.865)"/>
                    <path id="Path_20952" data-name="Path 20952" class="cls-3" d="M-1065.553 372.179a2.37 2.37 0 0 1 2.37 2.369 2.37 2.37 0 0 1-2.37 2.369 2.369 2.369 0 0 1-2.369-2.369 2.369 2.369 0 0 1 2.369-2.369m0-5.865a8.243 8.243 0 0 0-8.234 8.234 8.243 8.243 0 0 0 8.234 8.234 8.243 8.243 0 0 0 8.234-8.234 8.244 8.244 0 0 0-8.234-8.234z" transform="translate(1073.787 -366.314)"/>
                </g>
                <g id="Group_6349" data-name="Group 6349" transform="translate(12.539 12.162)">
                    <circle id="Ellipse_97" data-name="Ellipse 97" class="cls-11" cx="1.229" cy="1.229" r="1.229" transform="translate(5.865 5.865)"/>
                    <path id="Path_20953" data-name="Path 20953" class="cls-3" d="M-1056.821 377.05a1.228 1.228 0 0 1 1.228 1.228 1.228 1.228 0 0 1-1.228 1.229 1.229 1.229 0 0 1-1.229-1.229 1.228 1.228 0 0 1 1.229-1.228m0-5.865a7.1 7.1 0 0 0-7.094 7.093 7.1 7.1 0 0 0 7.094 7.093 7.1 7.1 0 0 0 7.093-7.093 7.1 7.1 0 0 0-7.093-7.093z" transform="translate(1063.915 -371.185)"/>
                </g>
            </g>
            <g id="Group_6355" data-name="Group 6355" transform="translate(93.643 61.837)">
                <g id="Group_6351" data-name="Group 6351">
                    <circle id="Ellipse_98" data-name="Ellipse 98" class="cls-11" cx="8.863" cy="8.863" r="8.863" transform="translate(5.865 5.865)"/>
                    <path id="Path_20954" data-name="Path 20954" class="cls-3" d="M-951.4 335.574a8.863 8.863 0 0 1 8.863 8.863 8.863 8.863 0 0 1-8.863 8.863 8.863 8.863 0 0 1-8.863-8.863 8.863 8.863 0 0 1 8.863-8.863m0-5.865a14.744 14.744 0 0 0-14.728 14.728 14.745 14.745 0 0 0 14.728 14.727 14.745 14.745 0 0 0 14.728-14.728 14.744 14.744 0 0 0-14.728-14.727z" transform="translate(966.132 -329.709)"/>
                </g>
                <g id="Group_6352" data-name="Group 6352" transform="translate(2.73 6.323)">
                    <ellipse id="Ellipse_99" data-name="Ellipse 99" class="cls-25" cx="3.749" cy="4.69" rx="3.749" ry="4.69" transform="translate(5.865 5.865)"/>
                    <path id="Path_20955" data-name="Path 20955" class="cls-3" d="M-947.207 357.137c2.07 0 3.749 2.1 3.749 4.69s-1.678 4.691-3.749 4.691-3.749-2.1-3.749-4.691 1.679-4.69 3.749-4.69m0-5.865a9.266 9.266 0 0 0-7.232 3.577 11.19 11.19 0 0 0-2.382 6.978 11.19 11.19 0 0 0 2.382 6.978 9.266 9.266 0 0 0 7.232 3.577 9.267 9.267 0 0 0 7.232-3.577 11.192 11.192 0 0 0 2.381-6.978 11.191 11.191 0 0 0-2.381-6.978 9.267 9.267 0 0 0-7.232-3.577z" transform="translate(956.821 -351.272)"/>
                </g>
                <g id="Group_6353" data-name="Group 6353" transform="translate(3.344 10.734)">
                    <circle id="Ellipse_100" data-name="Ellipse 100" class="cls-14" cx="2.369" cy="2.369" r="2.369" transform="translate(5.865 5.865)"/>
                    <path id="Path_20956" data-name="Path 20956" class="cls-3" d="M-946.494 372.179a2.369 2.369 0 0 1 2.369 2.369 2.369 2.369 0 0 1-2.369 2.369 2.369 2.369 0 0 1-2.369-2.369 2.369 2.369 0 0 1 2.369-2.369m0-5.865a8.243 8.243 0 0 0-8.234 8.234 8.243 8.243 0 0 0 8.234 8.234 8.243 8.243 0 0 0 8.234-8.234 8.243 8.243 0 0 0-8.234-8.234z" transform="translate(954.728 -366.314)"/>
                </g>
                <g id="Group_6354" data-name="Group 6354" transform="translate(2.73 12.162)">
                    <circle id="Ellipse_101" data-name="Ellipse 101" class="cls-11" cx="1.229" cy="1.229" r="1.229" transform="translate(5.865 5.865)"/>
                    <path id="Path_20957" data-name="Path 20957" class="cls-3" d="M-949.727 377.05a1.228 1.228 0 0 1 1.229 1.228 1.229 1.229 0 0 1-1.229 1.229 1.229 1.229 0 0 1-1.229-1.229 1.228 1.228 0 0 1 1.229-1.228m0-5.865a7.1 7.1 0 0 0-7.094 7.093 7.1 7.1 0 0 0 7.094 7.093 7.1 7.1 0 0 0 7.093-7.093 7.1 7.1 0 0 0-7.093-7.093z" transform="translate(956.821 -371.185)"/>
                </g>
            </g>
            <g id="Group_6356" data-name="Group 6356" transform="translate(101.726 61.48)">
                <path id="Path_20958" data-name="Path 20958" class="cls-14" d="M-918.57 348.883a7.613 7.613 0 0 1 4.119-.206 7.6 7.6 0 0 1 3.8 2.052c.131.132.269.258.39.4l.332.448a5.139 5.139 0 0 1 .586.94c.153.335.309.667.446 1 .1.349.177.7.253 1.05.039.174.075.349.1.522l.022.529c.011.352.013.7.007 1.045a11.33 11.33 0 0 1-.414 2.017c-.267-.655-.407-1.288-.608-1.9-.12-.3-.232-.594-.334-.886l-.149-.436-.2-.408c-.134-.27-.257-.539-.377-.806-.167-.242-.315-.489-.466-.732a4.181 4.181 0 0 0-.51-.679l-.257-.335c-.094-.1-.205-.193-.3-.292a10.053 10.053 0 0 0-2.838-1.976 25.135 25.135 0 0 0-3.602-1.347z" transform="translate(924.435 -342.626)"/>
                <path id="Path_20959" data-name="Path 20959" class="cls-3" d="M-930.363 334.355a8.883 8.883 0 0 1 1.777.187 7.6 7.6 0 0 1 3.8 2.052c.131.132.269.258.389.4l.332.448a5.143 5.143 0 0 1 .586.94c.153.335.309.667.446 1 .1.348.177.7.253 1.05.039.174.075.349.1.523l.022.529c.011.351.013.7.007 1.044a11.332 11.332 0 0 1-.414 2.017c-.267-.655-.407-1.288-.608-1.9-.12-.3-.232-.594-.334-.886l-.149-.436-.2-.408c-.134-.27-.257-.539-.377-.806-.167-.242-.315-.489-.466-.732a4.191 4.191 0 0 0-.51-.679l-.258-.335c-.094-.1-.2-.193-.3-.292a10.048 10.048 0 0 0-2.838-1.976 25.114 25.114 0 0 0-3.6-1.352 6.853 6.853 0 0 1 2.342-.393m0-5.865a12.7 12.7 0 0 0-4.341.744 5.865 5.865 0 0 0-3.865 5.67 5.865 5.865 0 0 0 4.161 5.456 19.341 19.341 0 0 1 2.759 1.026 4.3 4.3 0 0 1 1.194.8l.051.051.059.058.013.017c.075.1.145.182.205.254l.016.026c.067.11.143.232.226.363q.128.275.273.571l.009.017.025.051.02.059.019.054c.1.291.215.592.341.914.03.1.063.212.1.331a17.552 17.552 0 0 0 .608 1.811 5.865 5.865 0 0 0 5.428 3.648c.088 0 .177 0 .265-.006a5.865 5.865 0 0 0 5.343-4.139 17.193 17.193 0 0 0 .634-3.063q.033-.287.038-.576c.008-.453 0-.9-.009-1.332v-.06l-.022-.529a5.85 5.85 0 0 0-.076-.725c-.045-.266-.1-.535-.163-.823-.084-.38-.188-.852-.334-1.368a5.781 5.781 0 0 0-.211-.614c-.162-.4-.325-.753-.469-1.066l-.034-.073a8.95 8.95 0 0 0-1.018-1.757l-.062-.088a5.922 5.922 0 0 0-.171-.244l-.332-.448q-.126-.169-.263-.33c-.247-.287-.475-.51-.611-.644l-.055-.054a13.531 13.531 0 0 0-6.745-3.665l-.05-.011a14.761 14.761 0 0 0-2.952-.306z" transform="translate(938.57 -328.49)"/>
            </g>
            <g id="Group_6357" data-name="Group 6357" transform="translate(52.013 61.48)">
                <path id="Path_20960" data-name="Path 20960" class="cls-14" d="M-1078.038 348.883a7.615 7.615 0 0 0-4.12-.206 7.6 7.6 0 0 0-3.8 2.052c-.13.132-.269.258-.39.4l-.332.448a5.185 5.185 0 0 0-.585.94c-.153.335-.309.667-.446 1-.1.349-.177.7-.253 1.05-.04.174-.075.349-.1.522l-.022.529c-.011.352-.013.7-.007 1.045a11.34 11.34 0 0 0 .414 2.017c.268-.655.407-1.288.608-1.9.12-.3.232-.594.334-.886l.148-.436.2-.408c.134-.27.257-.539.377-.806.167-.242.315-.489.466-.732a4.228 4.228 0 0 1 .51-.679l.257-.335c.094-.1.205-.193.3-.292a10.055 10.055 0 0 1 2.838-1.976 25.156 25.156 0 0 1 3.603-1.347z" transform="translate(1093.965 -342.626)"/>
                <path id="Path_20961" data-name="Path 20961" class="cls-3" d="M-1094.516 334.355a6.854 6.854 0 0 1 2.343.393 25.126 25.126 0 0 0-3.6 1.352 10.056 10.056 0 0 0-2.839 1.976c-.1.1-.211.187-.3.292l-.257.335a4.213 4.213 0 0 0-.51.679c-.151.243-.3.49-.466.732-.12.267-.243.537-.377.806l-.2.408-.148.436c-.1.292-.215.586-.334.886-.2.608-.341 1.241-.608 1.9a11.354 11.354 0 0 1-.415-2.017c-.005-.344 0-.693.007-1.044l.022-.529c.029-.174.065-.349.1-.523.077-.348.155-.7.253-1.05.137-.337.293-.668.446-1a5.154 5.154 0 0 1 .586-.94l.333-.448c.12-.14.259-.267.389-.4a7.6 7.6 0 0 1 3.8-2.052 8.884 8.884 0 0 1 1.777-.187m0-5.865a14.762 14.762 0 0 0-2.952.306l-.05.011a13.537 13.537 0 0 0-6.751 3.671l-.048.048c-.136.134-.364.357-.611.645a5.918 5.918 0 0 0-.263.329l-.332.448q-.089.12-.172.244l-.062.088a8.964 8.964 0 0 0-1.018 1.757l-.034.074a26.77 26.77 0 0 0-.469 1.066 5.813 5.813 0 0 0-.21.615c-.146.516-.254 1.006-.334 1.367-.065.288-.118.558-.163.824a5.945 5.945 0 0 0-.076.725l-.022.529v.06c-.014.43-.017.878-.01 1.332q.005.289.038.576a17.242 17.242 0 0 0 .634 3.063 5.865 5.865 0 0 0 5.343 4.139c.089 0 .177.006.266.006a5.865 5.865 0 0 0 5.428-3.648 17.5 17.5 0 0 0 .608-1.81c.034-.119.068-.233.1-.331.126-.323.238-.623.341-.914l.019-.054.02-.059.026-.051.009-.018c.1-.2.188-.387.273-.571.083-.131.158-.253.225-.362l.016-.027c.06-.072.13-.157.205-.253l.013-.017.06-.059.051-.051a4.322 4.322 0 0 1 1.2-.8 19.311 19.311 0 0 1 2.751-1.023 5.864 5.864 0 0 0 4.16-5.456 5.865 5.865 0 0 0-3.864-5.67 12.7 12.7 0 0 0-4.341-.744z" transform="translate(1108.1 -328.49)"/>
            </g>
        </g>
        <g id="Group_6359" data-name="Group 6359" transform="translate(-1316.344 283.734)">
            <rect id="Rectangle_64" data-name="Rectangle 64" class="cls-26" width="104.257" height="7.718" rx="3.859" transform="translate(5.865 5.865)"/>
            <path id="Path_20962" data-name="Path 20962" class="cls-3" d="M-1207.742 687.048a1.519 1.519 0 0 1 1.519 1.519v4.678a1.519 1.519 0 0 1-1.519 1.52h-101.218a1.519 1.519 0 0 1-1.519-1.52v-4.678a1.519 1.519 0 0 1 1.519-1.519h101.218m0-5.865h-101.218a7.393 7.393 0 0 0-7.384 7.384v4.678a7.393 7.393 0 0 0 7.384 7.384h101.218a7.393 7.393 0 0 0 7.384-7.384v-4.678a7.393 7.393 0 0 0-7.384-7.384z" transform="translate(1316.344 -681.183)"/>
        </g>
        <g id="Group_6364" data-name="Group 6364" transform="translate(-1316.273 228.987)">
            <g id="Group_6360" data-name="Group 6360">
                <rect id="Rectangle_65" data-name="Rectangle 65" class="cls-26" width="104.704" height="56.893" rx="17.156" transform="translate(5.865 5.865)"/>
                <path id="Path_20963" data-name="Path 20963" class="cls-3" d="M-1210.565 500.349a5.031 5.031 0 0 1 5.031 5.031v46.832a5.031 5.031 0 0 1-5.031 5.031h-94.642a5.031 5.031 0 0 1-5.031-5.031V505.38a5.031 5.031 0 0 1 5.031-5.031h94.642m0-5.865h-94.642a10.908 10.908 0 0 0-10.9 10.9v46.832a10.908 10.908 0 0 0 10.9 10.9h94.642a10.908 10.908 0 0 0 10.9-10.9V505.38a10.908 10.908 0 0 0-10.9-10.9z" transform="translate(1316.103 -494.484)"/>
            </g>
            <g id="Group_6363" data-name="Group 6363" transform="translate(5.865 5.865)">
                <g id="Group_6362" data-name="Group 6362" class="cls-27">
                    <g id="Group_6361" data-name="Group 6361" transform="translate(-8.456 -7.618)">
                        <path id="Path_20964" data-name="Path 20964" class="cls-28" d="M-1304.941 546.716s35.133 45.74 95.744-38.211h22.86l-2.014 53.176-12.549 16.519-42.818 3.812-48.963-2.541-12.262-12.317z" transform="translate(1310.806 -502.64)"/>
                        <path id="Path_20965" data-name="Path 20965" class="cls-3" d="m-1200.473 494.37-2.014 53.176-12.546 16.517-42.818 3.812-48.964-2.541-12.262-12.317v-20.436a36.016 36.016 0 0 0 27.29 12.438c16.278 0 39.445-10.471 68.452-50.649h22.861m0-5.865h-22.862a5.866 5.866 0 0 0-4.755 2.432c-12.873 17.83-25.489 30.934-37.5 38.945-9.222 6.153-18.037 9.272-26.2 9.272a29.9 29.9 0 0 1-16.664-4.982 27.726 27.726 0 0 1-5.988-5.18 5.788 5.788 0 0 0-4.638-2.312 5.933 5.933 0 0 0-1.874.3 5.883 5.883 0 0 0-3.991 5.6v20.435a5.866 5.866 0 0 0 1.708 4.138l12.262 12.317a5.866 5.866 0 0 0 3.852 1.719l48.964 2.541q.152.008.3.008.26 0 .52-.023l42.818-3.811a5.866 5.866 0 0 0 4.15-2.295l12.546-16.517a5.863 5.863 0 0 0 1.19-3.325l2.01-53.074c.006-.107.009-.215.009-.324a5.864 5.864 0 0 0-5.864-5.865zm0 11.729z" transform="translate(1324.941 -488.505)"/>
                    </g>
                </g>
            </g>
        </g>
        <g id="Group_6390" data-name="Group 6390" transform="translate(-1301.423 124.72)">
            <g id="Group_6367" data-name="Group 6367">
                <path id="Path_20966" data-name="Path 20966" class="cls-2" d="M-1184.528 147.84s1.785-4.761 12.5-5.832a155.134 155.134 0 0 0 19.043-3.094s-3.333 4.76-5.832 5.237c0 0 17.257.476 27.85 11.425l-9.878-1.19s20.827 7.5 25.231 25.112 9.046 27.373 12.973 31.063c0 0-4.047 1.785-11.188-5.594 0 0 6.308 11.425 6.07 20.114s-5 14.4-3.57 29.635a10.41 10.41 0 0 1-4.761-7.379s.476 35.11-42.727 46.416c0 0 6.665-10.235 6.784-17.257 0 0-6.665 6.546-10.116 7.379 0 0 .119-5.832-2.38-7.022 0 0-3.689 11.544-14.758 15.234a35.9 35.9 0 0 0 2.856-15.71s-7.379 19.161-15.353 22.851c0 0-10.592-2.618-15.234-25.826 0 0-2.856 5-1.9 8.926 0 0-8.807-8.569-9.283-11.425 0 0 2.619 17.376 11.188 22.256 0 0-27.969-5.118-37.014-21.423s-6.427-23.327-6.427-23.327-5 6.9-8.093 7.5c0 0 2.261-13.568 0-21.423s-.833-24.279 4.641-28.445c0 0-5.593 4.4-11.545 5.118a85.471 85.471 0 0 0 15.353-35.942c3.332-20.828 29.635-21.066 29.635-21.066s-12.021-1.666-16.781 2.261c0 0 10-11.783 28.682-11.9 0 0-6.426-2.975-6.426-5.594 0 0 7.855 3.57 20.589 3.213-.008-.004 9.871-1.194 9.871 5.709z" transform="translate(1265.459 -138.914)"/>
                <g id="Group_6366" data-name="Group 6366">
                    <g id="Group_6365" data-name="Group 6365" class="cls-4">
                        <path id="Path_20967" data-name="Path 20967" class="cls-5" d="M-1300.683 282.281s4.93 10 8.713 10.116 13.9-15.591 15.506-22.137c0 0-6.01.952-7.915-1.19 0 0 10.95-6.367 15-24.428s16.3-22.226 16.3-22.226-12.139-3.095-12.258-4.285c0 0 13.419.119 17.837-.952s21.795.119 24.354 8.807a27.8 27.8 0 0 1 21.958-9.137c14.044.687 17.852 2.353 20.47 1.282a54.291 54.291 0 0 1-10.235 4.046s13.925 6.665 15.829 21.78 10.592 23.327 14.758 24.636c0 0-4.642 3.528-7.14 2.895 0 0 11.361 32.405 22 14.449q.128-.217.256-.443c10.711-18.924 4.166 63.212 4.166 63.212l-89.784 16.885-57.915-15.71s-31.063-44.274-31.063-46.059 19.163-21.541 19.163-21.541z" transform="translate(1303.897 -193.972)"/>
                        <path id="Path_20968" data-name="Path 20968" class="cls-5" d="M-786.752 292.494s-17.758-4.439-23.833-8.983l.714 13.09s9.283 1.785 12.854 5.177 10.176 12.853 19.1 11.961z" transform="translate(943.971 -241.11)"/>
                        <path id="Path_20969" data-name="Path 20969" class="cls-5" d="M-859.007 201.237s-.481-6.378 1.577-8.807c0 0-7.17-7.141-13.121-7.379 0 0 14.282-.6 21.661 2.142l1.428 5.923z" transform="translate(986.353 -171.483)"/>
                        <path id="Path_20970" data-name="Path 20970" class="cls-5" d="M-957.406 140.192a18.843 18.843 0 0 1 7.141-2.856c3.69-.476 8.926-.119 11.068-6.665l6.665-1.9-1.19 5.713-3.837 2.832s-10.802-.694-19.847 2.876z" transform="translate(1047.739 -131.742)"/>
                        <path id="Path_20971" data-name="Path 20971" class="cls-5" d="M-1079.752 139.6a10.573 10.573 0 0 0-5.982-2.618c-3.9-.476-7.229-2.261-6.99-5.237l-7.141-2.975v5.713s7.736 3.808 10.056 3.808a36.783 36.783 0 0 1 10.057 1.309z" transform="translate(1148.423 -131.742)"/>
                        <path id="Path_20972" data-name="Path 20972" class="cls-5" d="M-1272.627 293s18.8-2.626 24.279-7.763l.6 11.007s-18.329 9.58-24.16 18.774-10.592 3.5-10.592 3.5l2.143-11.322z" transform="translate(1277.506 -242.329)"/>
                        <path id="Path_20973" data-name="Path 20973" class="cls-5" d="m-1174.7 205.44 1.406-.481s-5.344-11.661-.7-12.471l-9.749 3.022-2.975 2.1z" transform="translate(1209.81 -176.778)"/>
                    </g>
                </g>
            </g>
            <path id="Path_20975" data-name="Path 20975" class="cls-6" d="M-987.339 192.968s4.612-12.765 17.466-11.693 8.837 9.551 5.177 6.873-17.258-2.948-22.643 4.82z" transform="translate(1068.894 -168.807)"/>
            <path id="Path_20976" data-name="Path 20976" class="cls-6" d="M-1075.593 190.068s-5.266-13.389-20.619-13.836-19.768 16.726-.536 7.332c6.605-3.225 21.155 6.504 21.155 6.504z" transform="translate(1155.245 -165.283)"/>
            <path id="Path_20977" data-name="Path 20977" class="cls-6" d="M-764.316 361.937s4.017 21.691 3.57 29.9c0 .003 9.194-8.837-3.57-29.9z" transform="translate(911.27 -296.538)"/>
            <path id="Path_20978" data-name="Path 20978" class="cls-6" d="M-1231.78 396.442s-1.518-23.029 2.5-29.635c-.001 0-12.497 18.299-2.5 29.635z" transform="translate(1244.396 -299.98)"/>
            <path id="Path_20979" data-name="Path 20979" class="cls-6" d="M-1100.195 565.09a6.86 6.86 0 0 1 1.4 1.14 10.1 10.1 0 0 1 1.1 1.327 13.833 13.833 0 0 1 1.409 3.1 46.677 46.677 0 0 1 1.187 3.2c.331 1.093.663 2.183.889 3.3l-.2.07c-.538-1-1.067-1.981-1.648-2.939l-1.726-2.871a17.96 17.96 0 0 1-1.749-2.847 10.708 10.708 0 0 1-.849-3.372z" transform="translate(1148.783 -440.119)"/>
            <path id="Path_20980" data-name="Path 20980" class="cls-6" d="M-1030.333 615.439s-7.5-12.05-5.623-18.3 4.285-7.051 4.374-5.623-2.889 3.66-1.712 7.944 2.962 12.764 2.962 12.764-.178-15.532 3.481-16.781 1.964 5.624.893 9.015-4.375 10.981-4.375 10.981z" transform="translate(1103.468 -458.368)"/>
            <path id="Path_20981" data-name="Path 20981" class="cls-6" d="M-944.216 601.02s2.5-5.946 2.053-10.587 1.785-2.142 1.964.8-2.053 7.074-4.017 9.787z" transform="translate(1038.416 -456.213)"/>
            <path id="Path_20982" data-name="Path 20982" class="cls-6" d="M-898.682 571.026c-.646.3 4.82-9.551 8.034-12.05a10.349 10.349 0 0 0 3.838-5.266s-2.511 12.89-11.872 17.316z" transform="translate(1006.272 -432.075)"/>
            <g id="Group_6370" data-name="Group 6370" transform="translate(27.433 29.276)">
                <path id="Path_20983" data-name="Path 20983" class="cls-7" d="M-1117.784 251.129s3.9-13.389 23.535-12.318l-4.463 4.285s16.246-1.607 20.352 8.926 6.427 27.493 15.889 29.992c0 0-6.962 3.035-10 0 0 0 9.283 9.819 7.141 31.777l-2.321-8.39s-2.975 28.921-50.135 29.813-48.588-29.813-48.588-29.813-3.035 4.106-1.964 8.747c0 0-7.141-8.391 5.892-33.741 0 0-4.463 3.57-9.462 2.142 0 0 10-7.5 11.068-20.173s13.925-21.958 23.387-19.994c0 0-3.035-3.692-4.107-3.632.003 0 21.66-.296 23.776 12.379z" transform="translate(1171.906 -238.749)"/>
                <g id="Group_6369" data-name="Group 6369">
                    <g id="Group_6368" data-name="Group 6368" class="cls-8">
                        <path id="Path_20984" data-name="Path 20984" class="cls-9" d="M-1183.984 356.135s11.307-.6 16.305-11.425c0 0-5 21.3-9.759 27.135 0 0 3.094-4.522 6.784-5.237 0 0-5.475 18.923 4.761 26.659 0 0-6.189-23.446 15.829-24.279 0 0 11.663-11.188 20.709-11.783s21.065 10.235 21.065 10.235 13.449 1.071 17.019 8.688 1.28 17.138 1.28 17.138 7.408-2.975 6.1-26.3c0 0 3.69 2.5 5.118 5.356 0 0-9.818-26.9-11.574-28.445 0 0 11.336 12.735 18.953 14.758l-4.523 2.023s6.546 21.542 2.975 29.635l-5.117 3.689-28.445 17.5-31.3 3.347-32.372-12.393-16.543-16.067 5.118-20.113z" transform="translate(1182.377 -313.049)"/>
                        <path id="Path_20985" data-name="Path 20985" class="cls-9" d="M-1109.516 246.59s16.81-6.194 25.352.385c0 0-9.822-8.416-17.4-6.989z" transform="translate(1127.811 -239.509)"/>
                        <path id="Path_20986" data-name="Path 20986" class="cls-9" d="M-948.325 240.96s8.911-8.508 13.478-9.1l6.233 7.141s-11.335-.483-19.711 1.959z" transform="translate(1013.887 -233.878)"/>
                    </g>
                </g>
            </g>
            <path id="Path_20988" data-name="Path 20988" class="cls-10" d="M-1092.2 267.9s-4.2-5.623-14.728-2.41-12.318 13.925-12.318 13.925 10.446-13.66 27.046-11.515z" transform="translate(1162.12 -227.67)"/>
            <path id="Path_20989" data-name="Path 20989" class="cls-10" d="M-947.869 267.608s10.176-6.337 18.388-1.7 8.3 12.229 8.3 12.229-7.05-12.403-26.688-10.529z" transform="translate(1040.998 -227.471)"/>
            <g id="Group_6373" data-name="Group 6373" transform="translate(46.434 79.539)">
                <path id="Path_20990" data-name="Path 20990" class="cls-11" d="M-1092.281 417.53s14.906-16.285 41.685-.446c0 0 14.55.089 14.639 14.46s-19.36 19.638-19.36 19.638-8.192 7.676-16.821 6.605-15.145-7.051-15.145-7.051-19.1-3.124-19.816-19.995c-.001-.001-.981-12.765 14.818-13.211z" transform="translate(1107.11 -410.158)"/>
                <g id="Group_6372" data-name="Group 6372">
                    <g id="Group_6371" data-name="Group 6371" class="cls-12">
                        <path id="Path_20991" data-name="Path 20991" class="cls-13" d="M-1038.58 467.675s22.137 6.546 30.825-7.022c0 0 24.517-2.856 7.141-29.516l8.331 2.737 4.761 5.118 1.874 8.45-3.421 10.354-7.379 6.07-9.64 4.166-7.26 4.685-8.331 1.385-9.007-.6z" transform="translate(1058.676 -424.985)"/>
                    </g>
                </g>
            </g>
            <path id="Path_20993" data-name="Path 20993" class="cls-14" d="M-1051.669 473.893s14.6 16.781 37.877-.952c0 0-19.145 31.659-37.877.952z" transform="translate(1114.36 -374.992)"/>
            <path id="Path_20994" data-name="Path 20994" class="cls-14" d="M-1107.11 311.451a8.959 8.959 0 0 1 2.511-4.189 12.417 12.417 0 0 1 4.153-2.707c.383-.165.788-.266 1.182-.4a7.872 7.872 0 0 1 1.209-.289c.409-.065.815-.142 1.225-.188.412-.023.824-.033 1.233-.037a6.555 6.555 0 0 1 1.224.067c.406.049.809.111 1.207.18a12.526 12.526 0 0 1 2.313.777c-.8.282-1.557.4-2.3.6-.371.1-.738.2-1.1.281l-.542.122-.531.16c-.353.1-.7.2-1.054.279-.342.121-.684.226-1.025.335l-.512.153-.5.193c-.33.127-.676.217-1 .367a30.789 30.789 0 0 0-3.85 1.846 40.69 40.69 0 0 0-3.843 2.45z" transform="translate(1153.544 -255.335)"/>
            <path id="Path_20995" data-name="Path 20995" class="cls-14" d="M-915.907 303.186a9.558 9.558 0 0 1 4.451-.42 12.252 12.252 0 0 1 4.3 1.386 10.558 10.558 0 0 1 3.482 2.975 8.27 8.27 0 0 1 1.687 4.181c-1.212-.955-2.149-1.893-3.251-2.635a26.431 26.431 0 0 0-3.257-2.067 47.623 47.623 0 0 0-3.531-1.723z" transform="translate(1018.409 -254.658)"/>
            <g id="Group_6379" data-name="Group 6379" transform="translate(125.085 17.759)">
                <path id="Path_20996" data-name="Path 20996" class="cls-15" d="M-838.894 212.214s8.033-15.774 24.9-12.216 10.89 23.909 10.89 23.909-2.9 12.05-17.382 12.764c0 0-3.772-8.034-8.057-9.194 0 0 6.831 1.607 8.057 4.017 0 0-2.612-8.48-9.753-12.14a5.347 5.347 0 0 1 5.623-.357s-7.226-6.247-14.278-6.783z" transform="translate(838.894 -199.476)"/>
                <g id="Group_6378" data-name="Group 6378">
                    <g id="Group_6377" data-name="Group 6377" class="cls-16">
                        <path id="Path_20997" data-name="Path 20997" class="cls-17" d="M-811.939 235.018s13.274 5.262 16.411 1.959l-1.147 11.6-4.82 10.845-9.729 5.043-9.551-.982-8.3-5.177-3.125-9.906-1.518-6.962 5.267-.535 3.148.113z" transform="translate(835.236 -224.596)"/>
                        <g id="Group_6376" data-name="Group 6376" transform="translate(6.159 10.422)">
                            <path id="Path_20998" data-name="Path 20998" class="cls-10" d="M-815.48 242.154s9.729-8.748 15.889-6.873 5.177 9.551 4.909 11.782-6.784 13.121-16.781 7.766l-5.356-2.41-1.071-8.84z" transform="translate(817.89 -235.018)"/>
                            <g id="Group_6375" data-name="Group 6375">
                                <g id="Group_6374" data-name="Group 6374" class="cls-18">
                                    <path id="Path_20999" data-name="Path 20999" class="cls-19" d="M-825.805 258.079s10.622-.536 12.765 2.321 10.176 7.409 14.46-3.481c0 0 1.518 9.462-6.605 13.925s-19.1-1.428-19.1-1.428z" transform="translate(823.484 -250.497)"/>
                                </g>
                            </g>
                        </g>
                    </g>
                </g>
            </g>
            <g id="Group_6384" data-name="Group 6384" transform="translate(1.198 18.732)">
                <path id="Path_21002" data-name="Path 21002" class="cls-15" d="M-1224.368 215.481s-4.879-13.806-21.542-12.615-15.948 18.685-15.115 22.732 9.41 14.4 18.153 14.044c0 0 1.6-5.951 6.006-8.212 0 0-5.7 2.092-6.006 2.831a25.425 25.425 0 0 1 10.053-12.471h-5.356s6.365-6.42 13.807-6.309z" transform="translate(1261.374 -202.793)"/>
                <g id="Group_6383" data-name="Group 6383">
                    <g id="Group_6382" data-name="Group 6382" class="cls-20">
                        <path id="Path_21003" data-name="Path 21003" class="cls-17" d="M-1254.147 238.225s-11.9 3.923-13.925-.954-.595 20.924-.595 20.924l17.614 8.475h6.07l8.331-11.069s3.689-7.31 3.689-7.88-1.429-5.122-1.429-5.122h-10.116z" transform="translate(1266.874 -226.726)"/>
                        <path id="Path_21004" data-name="Path 21004" class="cls-10" d="M-1217.03 245.22c.357-.3-7.209-10.65-17.232-6.246s.927 22.562 12.59 20.088l6.9-4.735a24.689 24.689 0 0 1-.595-3.571 51.357 51.357 0 0 0-1.663-5.536z" transform="translate(1244.991 -227.594)"/>
                        <g id="Group_6381" data-name="Group 6381" transform="translate(6.797 10.29)">
                            <g id="Group_6380" data-name="Group 6380" class="cls-21">
                                <path id="Path_21005" data-name="Path 21005" class="cls-19" d="M-1243.305 262.9s5.832 8.631 11.306 5.06 9.878-5.777 14.52-4.257l-7.736 15.513-7.624-.932s-11.537-8.901-10.466-15.384z" transform="translate(1241.856 -255.564)"/>
                            </g>
                        </g>
                    </g>
                </g>
            </g>
            <path id="Path_21008" data-name="Path 21008" class="cls-9" d="M-965.219 347.615s5.8-10.722 15.353-13.311c0-.004-13.934-2.117-15.353 13.311z" transform="translate(1053.261 -276.939)"/>
            <path id="Path_21009" data-name="Path 21009" class="cls-9" d="M-1044.94 347.615s-5.8-10.722-15.353-13.311c0-.004 13.932-2.117 15.353 13.311z" transform="translate(1120.455 -276.939)"/>
            <path id="Path_21010" data-name="Path 21010" class="cls-9" d="M-879.524 385.569s-.739 10.255-9.389 15.061c0 0 7.752 4.26 9.389-15.061z" transform="translate(999.331 -313.24)"/>
            <path id="Path_21011" data-name="Path 21011" class="cls-9" d="M-1110.4 385.584s.364 10.276 8.833 15.394c-.004 0-7.906 3.973-8.833-15.394z" transform="translate(1155.872 -313.251)"/>
            <g id="Group_6387" data-name="Group 6387" transform="translate(71.08 76.186)">
                <path id="Path_21012" data-name="Path 21012" class="cls-22" d="M-1022.316 406.621s-3.154-4.149 3.511-6.567 17.644-1.667 17.659 3.283-3.675 9.175-10.1 9.77-11.07-6.486-11.07-6.486z" transform="translate(1023.062 -398.723)"/>
                <g id="Group_6386" data-name="Group 6386">
                    <g id="Group_6385" data-name="Group 6385" class="cls-23">
                        <path id="Path_21013" data-name="Path 21013" class="cls-24" d="M-1027.055 414.645s7.944 6.605 14.639 4.374a19.22 19.22 0 0 0 9.64-6.754v6.308l-4.552 5.088s-5.981 1.874-6.248 1.874-8.033-1.7-8.391-1.785-5.445-4.106-5.088-4.374 0-4.731 0-4.731z" transform="translate(1025.897 -408.293)"/>
                    </g>
                </g>
            </g>
            <path id="Path_21015" data-name="Path 21015" class="cls-14" d="M-1057.68 341.945a15.932 15.932 0 0 0-12.994-6.9 18.072 18.072 0 0 0-17.772-14.938 18.074 18.074 0 0 0-17.361 13.135 12.445 12.445 0 0 0-6.176 0 18.075 18.075 0 0 0-17.36-13.132 18.069 18.069 0 0 0-18.021 17.111 15.879 15.879 0 0 0-12.222 6.869 2.447 2.447 0 0 0 .591 3.41 2.436 2.436 0 0 0 1.407.447 2.446 2.446 0 0 0 2-1.038 11.077 11.077 0 0 1 8.635-4.813 18.074 18.074 0 0 0 17.607 14.106 18.066 18.066 0 0 0 18.046-18.046v-.028a7.658 7.658 0 0 1 4.806.025 18.066 18.066 0 0 0 18.046 18.046 18.071 18.071 0 0 0 17.957-16.257 11.094 11.094 0 0 1 8.809 4.822 2.446 2.446 0 0 0 2 1.038 2.437 2.437 0 0 0 1.407-.447 2.447 2.447 0 0 0 .595-3.41zm-71.664 9.36a13.166 13.166 0 0 1-13.151-13.151A13.166 13.166 0 0 1-1129.344 325a13.166 13.166 0 0 1 13.152 13.151 13.166 13.166 0 0 1-13.152 13.149zm40.9 0a13.166 13.166 0 0 1-13.151-13.151A13.166 13.166 0 0 1-1088.447 325a13.166 13.166 0 0 1 13.151 13.151 13.166 13.166 0 0 1-13.151 13.149z" transform="translate(1190.949 -266.975)"/>
            <g id="Group_6388" data-name="Group 6388" transform="translate(52.426 61.813)">
                <circle id="Ellipse_102" data-name="Ellipse 102" class="cls-11" cx="8.863" cy="8.863" r="8.863"/>
                <ellipse id="Ellipse_103" data-name="Ellipse 103" class="cls-25" cx="3.749" cy="4.69" rx="3.749" ry="4.69" transform="translate(7.498 6.323)"/>
                <circle id="Ellipse_104" data-name="Ellipse 104" class="cls-14" cx="2.369" cy="2.369" r="2.369" transform="translate(9.644 10.734)"/>
                <circle id="Ellipse_105" data-name="Ellipse 105" class="cls-11" cx="1.229" cy="1.229" r="1.229" transform="translate(12.539 12.162)"/>
            </g>
            <g id="Group_6389" data-name="Group 6389" transform="translate(93.639 61.813)">
                <circle id="Ellipse_106" data-name="Ellipse 106" class="cls-11" cx="8.863" cy="8.863" r="8.863"/>
                <ellipse id="Ellipse_107" data-name="Ellipse 107" class="cls-25" cx="3.749" cy="4.69" rx="3.749" ry="4.69" transform="translate(2.73 6.323)"/>
                <circle id="Ellipse_108" data-name="Ellipse 108" class="cls-14" cx="2.369" cy="2.369" r="2.369" transform="translate(3.344 10.734)"/>
                <circle id="Ellipse_109" data-name="Ellipse 109" class="cls-11" cx="1.229" cy="1.229" r="1.229" transform="translate(2.73 12.162)"/>
            </g>
            <path id="Path_21016" data-name="Path 21016" class="cls-14" d="M-918.57 348.883a7.613 7.613 0 0 1 4.119-.206 7.6 7.6 0 0 1 3.8 2.052c.131.132.269.258.39.4l.332.448a5.139 5.139 0 0 1 .586.94c.153.335.309.667.446 1 .1.349.177.7.253 1.05.039.174.075.349.1.522l.022.529c.011.352.013.7.007 1.045a11.33 11.33 0 0 1-.414 2.017c-.267-.655-.407-1.288-.608-1.9-.12-.3-.232-.594-.334-.886l-.149-.436-.2-.408c-.134-.27-.257-.539-.377-.806-.167-.242-.315-.489-.466-.732a4.181 4.181 0 0 0-.51-.679l-.257-.335c-.094-.1-.205-.193-.3-.292a10.053 10.053 0 0 0-2.838-1.976 25.135 25.135 0 0 0-3.602-1.347z" transform="translate(1020.291 -287.035)"/>
            <path id="Path_21017" data-name="Path 21017" class="cls-14" d="M-1078.038 348.883a7.615 7.615 0 0 0-4.12-.206 7.6 7.6 0 0 0-3.8 2.052c-.13.132-.269.258-.39.4l-.332.448a5.185 5.185 0 0 0-.585.94c-.153.335-.309.667-.446 1-.1.349-.177.7-.253 1.05-.04.174-.075.349-.1.522l-.022.529c-.011.352-.013.7-.007 1.045a11.34 11.34 0 0 0 .414 2.017c.268-.655.407-1.288.608-1.9.12-.3.232-.594.334-.886l.148-.436.2-.408c.134-.27.257-.539.377-.806.167-.242.315-.489.466-.732a4.228 4.228 0 0 1 .51-.679l.257-.335c.094-.1.205-.193.3-.292a10.055 10.055 0 0 1 2.838-1.976 25.156 25.156 0 0 1 3.603-1.347z" transform="translate(1140.108 -287.035)"/>
        </g>
        <rect id="Rectangle_67" data-name="Rectangle 67" class="cls-26" width="104.257" height="7.718" rx="3.859" transform="translate(-1310.479 289.599)"/>
        <g id="Group_6393" data-name="Group 6393" transform="translate(-1310.409 234.852)">
            <rect id="Rectangle_68" data-name="Rectangle 68" class="cls-26" width="104.704" height="56.893" rx="17.156"/>
            <g id="Group_6392" data-name="Group 6392">
                <g id="Group_6391" data-name="Group 6391" class="cls-27">
                    <path id="Path_21018" data-name="Path 21018" class="cls-28" d="M-1304.941 546.716s35.133 45.74 95.744-38.211h22.86l-2.014 53.176-12.549 16.519-42.818 3.812-48.963-2.541-12.262-12.317z" transform="translate(1302.35 -510.258)"/>
                </g>
            </g>
        </g>
    </g>
</svg>
