<svg xmlns="http://www.w3.org/2000/svg" width="19.6" height="19.5">
    <path data-name="Path 20722" d="m-2007.181-1413.3-.033-.7a.117.117 0 0 0-.079-.1h-.011a7.634 7.634 0 0 1-1.525-.642l-.012-.007a.094.094 0 0 0-.024 0 .234.234 0 0 0-.108.031l-.523.455a2.053 2.053 0 0 1-1.28.471 1.932 1.932 0 0 1-1.362-.584 1.925 1.925 0 0 1-.109-2.64l.472-.537c.013-.012.04-.039 0-.125a7.575 7.575 0 0 1-.641-1.514v-.012a.117.117 0 0 0-.1-.078h-.01l-.693-.033a1.9 1.9 0 0 1-1.774-1.909 1.954 1.954 0 0 1 1.8-1.942h.005l.7-.032a.118.118 0 0 0 .1-.078 6.024 6.024 0 0 1 .647-1.531l.007-.012a.205.205 0 0 0-.028-.13l-.451-.514a1.915 1.915 0 0 1 .11-2.642 1.929 1.929 0 0 1 1.36-.582 2.051 2.051 0 0 1 1.28.471l.006.005.538.47a.085.085 0 0 0 .059.021.1.1 0 0 0 .051-.013l.012-.007a7.627 7.627 0 0 1 1.524-.642h.011a.116.116 0 0 0 .08-.1v-.01l.033-.69a1.928 1.928 0 0 1 1.948-1.8 1.956 1.956 0 0 1 1.948 1.8v.005l.033.7a.117.117 0 0 0 .079.1h.011a7.608 7.608 0 0 1 1.525.642l.011.007a.117.117 0 0 0 .025 0 .234.234 0 0 0 .108-.031l.523-.455a2.046 2.046 0 0 1 1.279-.471 1.929 1.929 0 0 1 1.362.584 1.925 1.925 0 0 1 .11 2.64l-.472.536c-.012.012-.04.04 0 .126a7.6 7.6 0 0 1 .641 1.514v.012a.117.117 0 0 0 .1.078h.01l.692.032a1.93 1.93 0 0 1 1.807 1.943 1.953 1.953 0 0 1-1.8 1.941h-.006l-.767.032a.119.119 0 0 0-.1.079 6.04 6.04 0 0 1-.647 1.53l-.007.012a.2.2 0 0 0 .028.13l.451.514a1.915 1.915 0 0 1-.11 2.642 1.926 1.926 0 0 1-1.36.582 2.043 2.043 0 0 1-1.279-.471l-.007-.005-.538-.47a.086.086 0 0 0-.059-.02.087.087 0 0 0-.05.013l-.013.007a7.71 7.71 0 0 1-1.524.642h-.011a.116.116 0 0 0-.08.1v.01l-.032.69a1.9 1.9 0 0 1-1.916 1.768 1.955 1.955 0 0 1-1.945-1.806zm-1.145-2.354a6.569 6.569 0 0 0 1.3.536 1.147 1.147 0 0 1 .841 1.031v.007l.033.69a.911.911 0 0 0 .889.829.886.886 0 0 0 .889-.83l.033-.7a1.145 1.145 0 0 1 .84-1.031 6.644 6.644 0 0 0 1.31-.542 1.169 1.169 0 0 1 .553-.139 1.213 1.213 0 0 1 .8.3l.526.459a.887.887 0 0 0 .571.2.912.912 0 0 0 .641-.259.906.906 0 0 0 .055-1.208l-.429-.526a1.2 1.2 0 0 1-.155-1.345 6.583 6.583 0 0 0 .544-1.3 1.146 1.146 0 0 1 1.034-.838h.007l.693-.033a.909.909 0 0 0 .832-.885.885.885 0 0 0-.833-.885l-.7-.033a1.147 1.147 0 0 1-1.034-.838 6.642 6.642 0 0 0-.544-1.3 1.144 1.144 0 0 1 .159-1.347l.46-.524a.864.864 0 0 0-.051-1.2l-.005-.006a.914.914 0 0 0-.642-.259.887.887 0 0 0-.572.205l-.526.458a1.177 1.177 0 0 1-.784.281 1.347 1.347 0 0 1-.552-.118l-.013-.006a6.665 6.665 0 0 0-1.309-.542 1.145 1.145 0 0 1-.841-1.031v-.007l-.033-.69a.886.886 0 0 0-.889-.829.886.886 0 0 0-.888.831l-.033.7a1.146 1.146 0 0 1-.841 1.031 6.646 6.646 0 0 0-1.309.542 1.17 1.17 0 0 1-.554.139 1.208 1.208 0 0 1-.795-.3l-.526-.459a.892.892 0 0 0-.572-.2.912.912 0 0 0-.641.259.908.908 0 0 0-.055 1.209l.46.524a1.193 1.193 0 0 1 .157 1.346 6.554 6.554 0 0 0-.544 1.3 1.147 1.147 0 0 1-1.034.838h-.007l-.693.032a.886.886 0 0 0-.832.885.886.886 0 0 0 .834.885l.7.033a1.146 1.146 0 0 1 1.034.838 6.615 6.615 0 0 0 .544 1.3 1.141 1.141 0 0 1-.159 1.346l-.46.524a.865.865 0 0 0 .051 1.2l.005.005a.912.912 0 0 0 .641.259.891.891 0 0 0 .573-.2l.521-.454a1.1 1.1 0 0 1 .763-.316.96.96 0 0 1 .562.161zm.849-3.345a3.137 3.137 0 0 1-.925-2.237 3.134 3.134 0 0 1 .925-2.237 3.152 3.152 0 0 1 2.244-.922 3.153 3.153 0 0 1 2.245.922 3.134 3.134 0 0 1 .925 2.237 3.137 3.137 0 0 1-.925 2.237 3.156 3.156 0 0 1-2.245.921 3.155 3.155 0 0 1-2.244-.922zm.135-2.237a2.082 2.082 0 0 0 2.109 2.1 2.082 2.082 0 0 0 2.11-2.1 2.083 2.083 0 0 0-2.11-2.1 2.083 2.083 0 0 0-2.109 2.103z" transform="translate(2015 1431)" style="fill:#6e6d71"/>
</svg>
