<svg xmlns="http://www.w3.org/2000/svg" width="21.634" height="20.023">
    <defs>
        <style>
            .cls-1{fill:#6e6d71}
        </style>
    </defs>
    <g id="Group" transform="translate(-8.3 -11.4)">
        <path id="Compound_Path" data-name="Compound Path" class="cls-1" d="M13.156 11.4a.519.519 0 0 0-.519.519v1.013H10.9a2.6 2.6 0 0 0-2.6 2.6v9.453a2.6 2.6 0 0 0 2.6 2.6h6.96a6.285 6.285 0 1 0 9.583-7.454v-4.576a2.6 2.6 0 0 0-2.6-2.6H23.1v-1.036a.519.519 0 1 0-1.039 0v1.013h-8.385v-1.013a.519.519 0 0 0-.52-.519zm15.765 13.738a5.246 5.246 0 1 1-5.272-5.246 5.246 5.246 0 0 1 5.272 5.246zM22.09 13.971v.753a.519.519 0 1 0 1.039 0V14h1.714a1.558 1.558 0 0 1 1.557 1.555v3.922a6.285 6.285 0 0 0-8.882 7.064H10.9a1.558 1.558 0 0 1-1.558-1.558v-9.428A1.558 1.558 0 0 1 10.9 14h1.74v.753a.519.519 0 0 0 1.039 0V14z"/>
        <path id="Path" class="cls-1" d="M67.235 54.994h-1.9v-2.675a.519.519 0 0 0-1.039 0v3.194a.519.519 0 0 0 .519.519h2.415a.519.519 0 0 0 0-1.039z" transform="translate(-41.457 -29.908)"/>
    </g>
</svg>
