<svg xmlns="http://www.w3.org/2000/svg" width="20.874" height="16.308">
    <path data-name="Path 20718" d="M-920.347-1414.692a.652.652 0 0 1-.652-.652.652.652 0 0 1 .652-.652h19.569a.652.652 0 0 1 .652.652.652.652 0 0 1-.652.652zm16.308-3.262v-2.609h-1.305a.653.653 0 0 1-.652-.652.652.652 0 0 1 .652-.652h1.957a.652.652 0 0 1 .652.652v3.261a.652.652 0 0 1-.652.652.652.652 0 0 1-.652-.652zm-3.914 0v-6.523h-1.3a.652.652 0 0 1-.652-.652.652.652 0 0 1 .652-.652h1.957a.652.652 0 0 1 .652.652v7.175a.652.652 0 0 1-.652.652.652.652 0 0 1-.657-.652zm-3.914 0v-11.746h-1.957v1.3a.653.653 0 0 1-.652.653.652.652 0 0 1-.652-.653v-1.957a.652.652 0 0 1 .652-.652h3.261a.652.652 0 0 1 .652.652v12.394a.652.652 0 0 1-.652.652.652.652 0 0 1-.653-.643zm-3.261 0v-7.175h-1.957v7.175a.652.652 0 0 1-.652.652.652.652 0 0 1-.652-.652v-7.828a.652.652 0 0 1 .652-.652h3.262a.652.652 0 0 1 .652.652v7.828a.652.652 0 0 1-.652.652.652.652 0 0 1-.654-.652z" transform="translate(921 1431)" style="fill:#6e6d71"/>
</svg>
