<svg xmlns="http://www.w3.org/2000/svg" width="22.515" height="22.515">
    <path data-name="Path 20719" d="M-2015-1419.742a11.257 11.257 0 0 1 11.258-11.258.625.625 0 0 1 .625.625.625.625 0 0 1-.625.625 10.007 10.007 0 0 0-10.007 10.007 10.007 10.007 0 0 0 10.007 10.007 10.007 10.007 0 0 0 10.007-10.007.625.625 0 0 1 .625-.625.625.625 0 0 1 .625.625 11.257 11.257 0 0 1-11.258 11.258 11.257 11.257 0 0 1-11.257-11.257zm10.784 8.024a.626.626 0 0 1 .473-.607 7.418 7.418 0 0 0 7.418-7.418 7.418 7.418 0 0 0-7.418-7.418 7.418 7.418 0 0 0-7.418 7.418.625.625 0 0 1-.606.473.626.626 0 0 1-.607-.473 8.631 8.631 0 0 1 8.631-8.631 8.631 8.631 0 0 1 8.631 8.631 8.631 8.631 0 0 1-8.631 8.631.626.626 0 0 1-.473-.606zm-.013-2.737a.626.626 0 0 1 .486-.61 4.678 4.678 0 0 0 4.678-4.678 4.678 4.678 0 0 0-4.678-4.678 4.678 4.678 0 0 0-4.678 4.678.625.625 0 0 1-.609.486.626.626 0 0 1-.61-.486 5.9 5.9 0 0 1 5.9-5.9 5.9 5.9 0 0 1 5.9 5.9 5.9 5.9 0 0 1-5.9 5.9.626.626 0 0 1-.489-.612z" transform="translate(2015 1431)" style="fill:#ffffff"/>
</svg>
