<svg xmlns="http://www.w3.org/2000/svg" width="19.381" height="18.209">
    <path data-name="Path 20720" d="M2.831 18.209A2.834 2.834 0 0 1 0 15.378V1.733A1.74 1.74 0 0 1 1.733 0H7.64a1.74 1.74 0 0 1 1.733 1.733v1.416h7.176a2.834 2.834 0 0 1 2.832 2.831v9.4a2.834 2.834 0 0 1-2.831 2.831zM.976 15.378a1.854 1.854 0 0 0 1.855 1.855h13.718a1.854 1.854 0 0 0 1.851-1.855V5.98a1.854 1.854 0 0 0-1.855-1.855H.976zm0-13.645v1.416H8.4V1.733a.76.76 0 0 0-.76-.757H1.733a.761.761 0 0 0-.757.757zm11.18 12.986h-.122c-.049 0-.073-.024-.122-.024h-.024c-.024-.024-.073-.024-.1-.049l-2.1-1.294-2.1 1.294a.128.128 0 0 1-.1.049h-.019a.22.22 0 0 1-.122.024H7.2c-.024 0-.049-.024-.073-.024a.024.024 0 0 0-.027-.025c-.024-.024-.049-.024-.073-.049a.024.024 0 0 0-.024-.025c-.024-.024-.049-.073-.073-.1a.024.024 0 0 1-.025-.024c0-.024-.024-.024-.024-.049-.024-.024-.024-.024-.024-.049v-.22l.488-2.368-1.804-1.656a.024.024 0 0 1-.024-.024l-.049-.049-.024-.024c0-.024-.024-.024-.024-.049-.024-.024-.024-.024-.024-.049-.026-.025-.026-.025-.026-.049v-.293c0-.024.025-.024.025-.049s.024-.024.024-.049.024-.024.024-.049.024-.024.024-.049v-.024a.024.024 0 0 1 .024-.024c.024 0 .024-.025.049-.025s.025-.024.05-.024.025-.024.049-.024c.024-.024.024-.024.049-.024.024-.024.024-.024.049-.024h.073l2.368-.293 1.073-2.222v-.025c0-.025.024-.025.024-.049l.025-.024.024-.024.025-.024c.024 0 .024-.024.049-.024s.024-.024.049-.024H9.5c.024-.024.024-.024.049-.024h.293c.024 0 .024.024.049.024h.049c.024 0 .024.024.049.024l.025.024.024.024.024.024c0 .024.024.024.024.049s.024.025.024.049v.024l1.074 2.221 2.368.293h.073c.024.024.024.024.049.024s.024.024.049.024.025.024.049.024a.085.085 0 0 1 .049.025c.024 0 .024.024.049.024a.024.024 0 0 0 .024.024v.024c0 .024.024.024.024.049s.024.024.024.049.024.024.024.049c.025.024.025.024.025.049v.146a.024.024 0 0 0 .024.025v.1c-.024.024-.024.024-.024.049-.025.024-.025.024-.025.049s-.024.025-.024.049l-.024.024-.049.049a.024.024 0 0 0-.024.024l-1.806 1.66.488 2.368v.22c-.024.025-.024.025-.024.049s-.024.024-.024.049a.024.024 0 0 0-.024.024.337.337 0 0 1-.073.1.024.024 0 0 1-.024.025c-.024.024-.049.024-.073.049a.024.024 0 0 1-.024.024c-.024 0-.049.024-.073.024zm-2.588-2.368h.244c.024.024.024.024.049.024s.024.024.049.024h.024l1.391.879-.317-1.538v-.2c.024-.025.024-.025.024-.049.024-.024.024-.024.024-.049s.024-.024.024-.049.025-.024.025-.049l.024-.024c.024-.025.024-.049.049-.049l1.22-1.172-1.587-.2h-.071c-.024-.024-.073-.024-.1-.049l-.024-.024-.073-.073-.024-.024a.337.337 0 0 1-.073-.1L9.69 8.1l-.756 1.542c-.024.024-.049.073-.073.1l-.024.024-.073.073-.024.024a.127.127 0 0 1-.1.049h-.072l-1.587.2L8.2 11.253c0 .024.024.024.024.049l.025.025c0 .024.024.024.024.049s.024.024.024.049c.024.024.024.024.024.049.024.024.024.024.024.049v.2l-.317 1.538L9.4 12.4h.024c.024 0 .024-.024.049-.024.024-.024.024-.024.049-.024z" style="fill:#ffffff"/>
</svg>
