<svg xmlns="http://www.w3.org/2000/svg" width="17.517" height="14.014">
    <path data-name="Path 20648" d="M20.641 8H4.876A.876.876 0 0 0 4 8.876v12.262a.876.876 0 0 0 .876.876h15.765a.876.876 0 0 0 .876-.876V8.876A.876.876 0 0 0 20.641 8zm0 .876v1.752H4.876V8.876zM4.876 21.138V11.5h15.765v9.634zm4.817-7.883a3.065 3.065 0 1 0 3.065 3.065 3.065 3.065 0 0 0-3.065-3.065zm0 5.255a2.19 2.19 0 0 1-.438-4.335v2.584h2.584a2.194 2.194 0 0 1-2.146 1.751zm5.569-3.5h.876v4.379h-.876zm2.752-1.752h.876v6.131h-.876z" style="fill:#6e6d71" transform="translate(-4 -8)"/>
</svg>
