<svg xmlns="http://www.w3.org/2000/svg" width="19.276" height="16.925">
    <defs>
        <style>
            .cls-1{fill:#ffffff}
        </style>
    </defs>
    <g id="Group_6131" data-name="Group 6131" transform="translate(0 -.215)">
        <path id="Path_20721" data-name="Path 20721" class="cls-1" d="m14.77 6.932 1.312-.057a.614.614 0 0 0 .456-.57v-1.6H2.4a.5.5 0 0 1-.513-.456.511.511 0 0 1 .513-.51h2.619l1.825-.855H1.6a.633.633 0 0 0-.627.627V15.6a.633.633 0 0 0 .627.627h14.311a.633.633 0 0 0 .627-.627v-2.794a.633.633 0 0 0-.627-.627h-1.939a1.547 1.547 0 0 1-1.54-1.6V8.472c0-1.425 1.198-1.54 2.338-1.54zM7.243 3.739h6.273l-1.2-2.4zm7.357 0h1.939v-.228a.633.633 0 0 0-.627-.627h-1.769zm-.912-1.825h2.224a1.583 1.583 0 0 1 1.54 1.6v2.791a1.228 1.228 0 0 1-.114.627h.342a1.583 1.583 0 0 1 1.6 1.54v2.11a1.632 1.632 0 0 1-1.6 1.6h-.342a1.128 1.128 0 0 1 .114.627V15.6a1.533 1.533 0 0 1-1.54 1.54H1.6A1.583 1.583 0 0 1 0 15.6V3.511a1.632 1.632 0 0 1 1.6-1.6h7.239L12.375.26A.479.479 0 0 1 13 .488zM17.679 7.9h-3.707a.539.539 0 0 0-.57.57v2.11a.586.586 0 0 0 .57.627h3.707a.633.633 0 0 0 .627-.627V8.472a.586.586 0 0 0-.627-.572z"/>
        <circle id="Ellipse_87" data-name="Ellipse 87" class="cls-1" cx=".741" cy=".741" r=".741" transform="translate(14.371 8.814)"/>
    </g>
</svg>
