<svg xmlns="http://www.w3.org/2000/svg" width="26.315" height="26.315">
    <path data-name="Path 20749" d="M59.483 422.966a3.483 3.483 0 1 1 3.483-3.483 3.483 3.483 0 0 1-3.483 3.483zm0-1.548a1.935 1.935 0 1 0-1.935-1.935 1.935 1.935 0 0 0 1.935 1.935zm0 20.9a3.483 3.483 0 1 1 3.483-3.483 3.483 3.483 0 0 1-3.483 3.48zm0-1.548a1.935 1.935 0 1 0-1.935-1.935 1.935 1.935 0 0 0 1.935 1.932zm9.675 1.548a3.483 3.483 0 1 1 3.483-3.483 3.483 3.483 0 0 1-3.483 3.48zm0-1.548a1.935 1.935 0 1 0-1.935-1.935 1.935 1.935 0 0 0 1.935 1.932zm9.675 1.548a3.483 3.483 0 1 1 3.483-3.483 3.483 3.483 0 0 1-3.484 3.48zm0-1.548a1.935 1.935 0 1 0-1.935-1.935 1.935 1.935 0 0 0 1.934 1.932zm-14.319-10.838v3.87a.774.774 0 0 1-1.548 0v-4.644a.774.774 0 0 1 .774-.774h7.353a1.161 1.161 0 1 0 0-2.322h-12a1.548 1.548 0 0 0-1.548 1.548v6.19a.774.774 0 0 1-1.548 0v-6.19a3.1 3.1 0 0 1 3.1-3.1h12a2.709 2.709 0 1 1 0 5.418zm.774-11.61a.774.774 0 0 1 0-1.548h14.705a2.322 2.322 0 0 1 2.322 2.322v10.062a2.322 2.322 0 0 1-2.322 2.322h-3.87a.774.774 0 0 1 0-1.548h3.87a.774.774 0 0 0 .774-.774V419.1a.774.774 0 0 0-.774-.774z" transform="translate(-56 -416)" style="fill:#6e6d71"/>
</svg>
