<svg xmlns="http://www.w3.org/2000/svg" width="44" height="42.337">
    <defs>
        <filter id="a" x="0" y="0" width="44" height="42.337" filterUnits="userSpaceOnUse">
            <feOffset dy="1"/>
            <feGaussianBlur stdDeviation="2" result="blur"/>
            <feFlood flood-opacity=".502"/>
            <feComposite operator="in" in2="blur"/>
            <feComposite in="SourceGraphic"/>
        </filter>
    </defs>
    <g style="filter:url(#a)">
        <path data-name="Path 20739" d="M-10794.573-159.25v-27.164A1.6 1.6 0 0 1-10793-188a1.589 1.589 0 0 1 1.572 1.587v27.164a1.589 1.589 0 0 1-1.572 1.587 1.6 1.6 0 0 1-1.573-1.588zm-7.191-2.872v-21.494a1.585 1.585 0 0 1 1.572-1.587 1.591 1.591 0 0 1 1.576 1.587v21.532a1.6 1.6 0 0 1-1.576 1.587 1.6 1.6 0 0 1-1.573-1.626zm14.385-3.927v-13.6a1.594 1.594 0 0 1 1.574-1.587 1.591 1.591 0 0 1 1.574 1.587v13.6a1.586 1.586 0 0 1-1.574 1.581 1.543 1.543 0 0 1-1.575-1.581zm7.235-2.835v-7.934a1.592 1.592 0 0 1 1.574-1.587 1.591 1.591 0 0 1 1.57 1.587v7.934a1.591 1.591 0 0 1-1.57 1.587 1.545 1.545 0 0 1-1.575-1.587zm-28.855 0v-7.934a1.593 1.593 0 0 1 1.574-1.587 1.589 1.589 0 0 1 1.572 1.587v7.934a1.589 1.589 0 0 1-1.572 1.587 1.593 1.593 0 0 1-1.575-1.587z" transform="translate(10815 193)" style="fill:#fff"/>
    </g>
</svg>
