<svg xmlns="http://www.w3.org/2000/svg" width="12.147" height="17.9">
    <defs>
        <style>
            .cls-1{fill:#1e1d20}
        </style>
    </defs>
    <g id="Layer_1" data-name="Layer 1" transform="translate(-13 -4)">
        <path id="Path_20594" data-name="Path 20594" class="cls-1" d="M24.353 15.827h.32a3.353 3.353 0 0 0 3.36-3.353V7.359A3.353 3.353 0 0 0 24.679 4h-.32A3.353 3.353 0 0 0 21 7.353v5.114a3.353 3.353 0 0 0 3.353 3.36zm-2.074-8.474a2.078 2.078 0 0 1 2.075-2.075h.32a2.078 2.078 0 0 1 2.081 2.075v5.114a2.078 2.078 0 0 1-2.075 2.081h-.32a2.078 2.078 0 0 1-2.081-2.075z" transform="translate(-5.443)"/>
        <path id="Path_20595" data-name="Path 20595" class="cls-1" d="M25.147 28.639a.639.639 0 1 0-1.279 0 4.795 4.795 0 0 1-9.589 0 .639.639 0 1 0-1.279 0 6.073 6.073 0 0 0 5.433 6.038.3.3 0 0 1 0 .035v2.238H16.2a.639.639 0 1 0 0 1.279h6.07a.639.639 0 1 0 0-1.279h-2.557v-2.273a6.073 6.073 0 0 0 5.434-6.038z" transform="translate(0 -16.328)"/>
    </g>
</svg>
