<svg xmlns="http://www.w3.org/2000/svg" width="17.055" height="20.001">
    <g data-name="Group 6400">
        <path data-name="Compound Path" d="M17.4 2.3v2.19h-.905a6.57 6.57 0 0 0-5.138 6.486v2.211a8.465 8.465 0 0 1-.863 3.706l-.927 1.916a.632.632 0 0 0 .569.905h4.843a3.1 3.1 0 0 0 6.106 0h4.843a.632.632 0 0 0 .569-.905l-.948-1.937a8.465 8.465 0 0 1-.842-3.685v-2.212a6.57 6.57 0 0 0-5.138-6.464h-.905V2.3zm.632 18.825a1.832 1.832 0 0 1-1.769-1.411H19.8a1.832 1.832 0 0 1-1.769 1.411zm5.412-10.149v2.211a9.749 9.749 0 0 0 .99 4.253l.484 1.011H11.145l.505-1.011a9.749 9.749 0 0 0 .969-4.253v-2.212a5.327 5.327 0 0 1 4.106-5.222h2.611a5.327 5.327 0 0 1 4.107 5.222z" transform="translate(-9.504 -2.3)" style="fill:#142668"/>
    </g>
</svg>
