<svg xmlns="http://www.w3.org/2000/svg" width="133.914" height="133.914" viewBox="0 0 133.914 133.914">
    <g data-name="Group 21405">
        <g data-name="Group 21402">
            <path data-name="Path 21409" d="M66.957 0A66.957 66.957 0 1 1 0 66.957 66.957 66.957 0 0 1 66.957 0z" style="fill:#fbdddd"/>
            <path data-name="Path 21408" d="M55.5 0A55.5 55.5 0 1 1 0 55.5 55.5 55.5 0 0 1 55.5 0z" transform="translate(11.457 11.457)" style="fill:#f9efef"/>
        </g>
        <g data-name="Group 21404">
            <g data-name="Group 21403">
                <path data-name="Path 20599" d="M68.086 133.556a1.116 1.116 0 0 0-1.131.046l-8.214 5.324v-1.176A4.751 4.751 0 0 0 54 133H38.777A4.788 4.788 0 0 0 34 137.75v11.3a4.788 4.788 0 0 0 4.777 4.75H54a4.751 4.751 0 0 0 4.741-4.75v-1.176l8.205 5.324a1.127 1.127 0 0 0 1.723-.921v-17.764a1.075 1.075 0 0 0-.583-.957z" style="fill:#f10000" transform="translate(16 -76)"/>
            </g>
            <g data-name="Rectangle 1152" transform="rotate(25.97 -62.865 182.823)" style="stroke:#fff;fill:#f10000">
                <rect width="5" height="45" rx="2.5" style="stroke:none"/>
                <rect x=".5" y=".5" width="4" height="44" rx="2" style="fill:none"/>
            </g>
        </g>
    </g>
</svg>
