<svg xmlns="http://www.w3.org/2000/svg" width="133.914" height="133.914" viewBox="0 0 133.914 133.914">
    <defs>
        <clipPath id="clip-path">
            <path id="Path_20974" data-name="Path 20974" class="cls-1" d="M-1228.158 143.028s.823-2.194 5.76-2.688a71.5 71.5 0 0 0 8.777-1.426s-1.536 2.194-2.688 2.414c0 0 7.954.219 12.836 5.266l-4.553-.549s9.6 3.456 11.629 11.574 4.169 12.616 5.979 14.317c0 0-1.865.823-5.156-2.578 0 0 2.907 5.266 2.8 9.27s-2.3 6.637-1.646 13.659a4.8 4.8 0 0 1-2.194-3.4s.219 16.182-19.693 21.393c0 0 3.072-4.717 3.127-7.954 0 0-3.072 3.017-4.663 3.4 0 0 .055-2.688-1.1-3.236 0 0-1.7 5.321-6.8 7.021a16.548 16.548 0 0 0 1.317-7.241s-3.4 8.831-7.076 10.532c0 0-4.882-1.207-7.021-11.9 0 0-1.317 2.3-.878 4.114 0 0-4.059-3.949-4.279-5.266 0 0 1.207 8.009 5.156 10.258 0 0-12.891-2.359-17.06-9.874s-2.962-10.751-2.962-10.751-2.3 3.182-3.73 3.456c0 0 1.042-6.253 0-9.874s-.384-11.19 2.139-13.11a12.506 12.506 0 0 1-5.321 2.359 39.394 39.394 0 0 0 7.076-16.566c1.536-9.6 13.659-9.709 13.659-9.709s-5.54-.768-7.734 1.042a18.2 18.2 0 0 1 13.22-5.485s-2.962-1.371-2.962-2.578a23.246 23.246 0 0 0 9.49 1.481s4.551-.552 4.551 2.629z" transform="translate(1265.459 -138.914)"/>
        </clipPath>
        <clipPath id="clip-path-2">
            <path id="Path_20987" data-name="Path 20987" class="cls-1" d="M-1146.961 244.455s1.8-6.171 10.847-5.677l-2.057 1.975s7.488-.741 9.38 4.114 2.962 12.671 7.323 13.823c0 0-3.209 1.4-4.608 0 0 0 4.279 4.526 3.291 14.646l-1.07-3.867s-1.371 13.33-23.107 13.741-22.394-13.741-22.394-13.741a5.446 5.446 0 0 0-.905 4.032s-3.291-3.867 2.715-15.551a5.345 5.345 0 0 1-4.361.987 14.1 14.1 0 0 0 5.1-9.3c.494-5.842 6.418-10.121 10.779-9.215 0 0-1.4-1.7-1.893-1.674.003.002 9.986-.135 10.96 5.707z" transform="translate(1171.906 -238.749)"/>
        </clipPath>
        <clipPath id="clip-path-3">
            <path id="Path_20992" data-name="Path 20992" class="cls-1" d="M-1100.275 413.556s6.87-7.506 19.213-.206c0 0 6.706.041 6.747 6.665s-8.923 9.051-8.923 9.051-3.776 3.538-7.753 3.044a14.138 14.138 0 0 1-6.98-3.25s-8.8-1.44-9.133-9.216c.004 0-.453-5.883 6.829-6.088z" transform="translate(1107.11 -410.158)"/>
        </clipPath>
        <clipPath id="clip-path-4">
            <path id="Path_21001" data-name="Path 21001" class="cls-1" d="M-838.894 205.347s3.7-7.27 11.478-5.63 5.019 11.02 5.019 11.02-1.336 5.554-8.012 5.883c0 0-1.739-3.7-3.714-4.237 0 0 3.148.741 3.714 1.851 0 0-1.2-3.908-4.5-5.6a2.465 2.465 0 0 1 2.592-.165s-3.327-2.875-6.577-3.122z" transform="translate(838.894 -199.476)"/>
        </clipPath>
        <clipPath id="clip-path-5">
            <path id="Path_21000" data-name="Path 21000" class="cls-1" d="M-816.779 238.307s4.484-4.032 7.323-3.168 2.386 4.4 2.263 5.43-3.127 6.048-7.734 3.579l-2.468-1.111-.494-4.074z" transform="translate(817.89 -235.018)"/>
        </clipPath>
        <clipPath id="clip-path-6">
            <path id="Path_21007" data-name="Path 21007" class="cls-1" d="M-1244.317 208.641a9.518 9.518 0 0 0-9.929-5.814c-7.68.548-7.35 8.612-6.966 10.477s4.337 6.637 8.367 6.473c0 0 .739-2.743 2.768-3.785 0 0-2.629.964-2.768 1.3a11.719 11.719 0 0 1 4.634-5.748h-2.468s2.932-2.955 6.362-2.903z" transform="translate(1261.373 -202.793)"/>
        </clipPath>
        <clipPath id="clip-path-7">
            <path id="Path_21006" data-name="Path 21006" class="cls-1" d="M-1228.44 241.265c.165-.136-3.323-4.909-7.942-2.879s.427 10.4 5.8 9.259l3.182-2.182a11.383 11.383 0 0 1-.274-1.646 23.669 23.669 0 0 0-.766-2.552z" transform="translate(1238.194 -237.884)"/>
        </clipPath>
        <clipPath id="clip-path-8">
            <path id="Path_21014" data-name="Path 21014" class="cls-1" d="M-1022.718 402.363s-1.454-1.912 1.618-3.027 8.132-.768 8.139 1.513-1.694 4.229-4.656 4.5-5.101-2.986-5.101-2.986z" transform="translate(1023.062 -398.723)"/>
        </clipPath>
        <style>
            .cls-1{fill:none}.cls-7{fill:#843217}.cls-8{fill:#ca501a}.cls-11{fill:#f8820b}.cls-12{fill:#ffce64}.cls-13{fill:#ffeac8}.cls-16{fill:#3e1f0d}.cls-17{fill:#f7ab00}.cls-19{fill:#f2770f}.cls-21{fill:#f2b635}.cls-27{fill:#0060ad}
        </style>
    </defs>
    <g id="Group_21398" data-name="Group 21398" transform="translate(-95.543 -33.543)">
        <path id="Path_21409" data-name="Path 21409" d="M66.957 0A66.957 66.957 0 1 1 0 66.957 66.957 66.957 0 0 1 66.957 0z" transform="translate(95.543 33.543)" style="fill:#ccf5ff"/>
        <path id="Path_21408" data-name="Path 21408" d="M55.5 0A55.5 55.5 0 1 1 0 55.5 55.5 55.5 0 0 1 55.5 0z" transform="translate(107 45)" style="fill:#e6faff"/>
        <g id="Group_21397" data-name="Group 21397" transform="translate(125 64)" style="isolation:isolate">
            <g id="Group_6367" data-name="Group 6367">
                <path id="Path_20966" data-name="Path 20966" d="M-1228.158 143.028s.823-2.194 5.76-2.688a71.5 71.5 0 0 0 8.777-1.426s-1.536 2.194-2.688 2.414c0 0 7.954.219 12.836 5.266l-4.553-.549s9.6 3.456 11.629 11.574 4.169 12.616 5.979 14.317c0 0-1.865.823-5.156-2.578 0 0 2.907 5.266 2.8 9.27s-2.3 6.637-1.646 13.659a4.8 4.8 0 0 1-2.194-3.4s.219 16.182-19.693 21.393c0 0 3.072-4.717 3.127-7.954 0 0-3.072 3.017-4.663 3.4 0 0 .055-2.688-1.1-3.236 0 0-1.7 5.321-6.8 7.021a16.548 16.548 0 0 0 1.317-7.241s-3.4 8.831-7.076 10.532c0 0-4.882-1.207-7.021-11.9 0 0-1.317 2.3-.878 4.114 0 0-4.059-3.949-4.279-5.266 0 0 1.207 8.009 5.156 10.258 0 0-12.891-2.359-17.06-9.874s-2.962-10.751-2.962-10.751-2.3 3.182-3.73 3.456c0 0 1.042-6.253 0-9.874s-.384-11.19 2.139-13.11a12.506 12.506 0 0 1-5.321 2.359 39.394 39.394 0 0 0 7.076-16.566c1.536-9.6 13.659-9.709 13.659-9.709s-5.54-.768-7.734 1.042a18.2 18.2 0 0 1 13.22-5.485s-2.962-1.371-2.962-2.578a23.246 23.246 0 0 0 9.49 1.481s4.551-.552 4.551 2.629z" transform="translate(1265.459 -138.914)" style="fill:#a0411a"/>
                <g id="Group_6366" data-name="Group 6366">
                    <g id="Group_6365" data-name="Group 6365" style="clip-path:url(#clip-path)">
                        <path id="Path_20967" data-name="Path 20967" class="cls-7" d="M-1311.013 246.989s2.272 4.608 4.016 4.663 6.406-7.186 7.147-10.2c0 0-2.77.439-3.648-.549 0 0 5.047-2.935 6.912-11.259s7.515-10.244 7.515-10.244-5.595-1.426-5.65-1.975c0 0 6.185.055 8.221-.439s10.045.055 11.224 4.059a12.811 12.811 0 0 1 10.121-4.211c6.473.317 8.228 1.084 9.435.591a25.021 25.021 0 0 1-4.717 1.865s6.418 3.072 7.3 10.038 4.882 10.751 6.8 11.355c0 0-2.139 1.626-3.291 1.334 0 0 5.236 14.936 10.139 6.659l.118-.2c4.937-8.722 1.92 29.134 1.92 29.134l-41.381 7.782-26.693-7.241s-14.317-20.406-14.317-21.229 8.829-9.933 8.829-9.933z" transform="translate(1312.495 -206.287)"/>
                        <path id="Path_20968" data-name="Path 20968" class="cls-7" d="M-799.6 287.651s-8.185-2.046-10.985-4.14l.329 6.033s4.279.823 5.924 2.386 4.69 5.924 8.8 5.513z" transform="translate(872.063 -263.968)"/>
                        <path id="Path_20969" data-name="Path 20969" class="cls-7" d="M-865.23 192.482s-.222-2.94.727-4.059c0 0-3.3-3.291-6.048-3.4 0 0 6.583-.274 9.983.987l.658 2.73z" transform="translate(923.924 -178.768)"/>
                        <path id="Path_20970" data-name="Path 20970" class="cls-7" d="M-957.406 134.033a8.685 8.685 0 0 1 3.291-1.316c1.7-.219 4.114-.055 5.1-3.072l3.072-.878-.548 2.633-1.768 1.305a24.441 24.441 0 0 0-9.147 1.328z" transform="translate(999.041 -130.138)"/>
                        <path id="Path_20971" data-name="Path 20971" class="cls-7" d="M-1090.595 133.759a4.873 4.873 0 0 0-2.757-1.207c-1.8-.219-3.332-1.042-3.222-2.414l-3.291-1.371v2.633s3.565 1.755 4.635 1.755a16.954 16.954 0 0 1 4.635.604z" transform="translate(1122.246 -130.138)"/>
                        <path id="Path_20972" data-name="Path 20972" class="cls-7" d="M-1277.952 288.814s8.667-1.21 11.19-3.578l.274 5.073s-8.448 4.415-11.136 8.653-4.882 1.612-4.882 1.612l.988-5.219z" transform="translate(1280.201 -265.46)"/>
                        <path id="Path_20973" data-name="Path 20973" class="cls-7" d="m-1181.181 198.458.648-.222s-2.463-5.375-.324-5.748l-4.493 1.393-1.371.966z" transform="translate(1197.363 -185.247)"/>
                    </g>
                </g>
            </g>
            <path id="Path_20975" data-name="Path 20975" class="cls-8" d="M-987.339 186.629s2.125-5.883 8.05-5.39 4.073 4.4 2.386 3.168-7.954-1.357-10.436 2.222z" transform="translate(1024.928 -175.494)"/>
            <path id="Path_20976" data-name="Path 20976" class="cls-8" d="M-1093.881 182.6a10.736 10.736 0 0 0-9.5-6.377c-7.076-.206-9.111 7.709-.247 3.38 3.041-1.483 9.747 2.997 9.747 2.997z" transform="translate(1130.592 -171.181)"/>
            <path id="Path_20977" data-name="Path 20977" class="cls-8" d="M-764.316 361.937s1.851 10 1.646 13.782c0 0 4.237-4.073-1.646-13.782z" transform="translate(832.047 -331.795)"/>
            <path id="Path_20978" data-name="Path 20978" class="cls-8" d="M-1233.87 380.466s-.7-10.614 1.152-13.659c0 0-5.759 8.434-1.152 13.659z" transform="translate(1239.684 -336.006)"/>
            <path id="Path_20979" data-name="Path 20979" class="cls-8" d="M-1100.292 565.09a3.163 3.163 0 0 1 .646.526 4.653 4.653 0 0 1 .509.612 6.376 6.376 0 0 1 .649 1.43c.2.485.383.977.547 1.475s.305 1.006.41 1.521l-.091.032c-.248-.459-.492-.913-.759-1.355l-.8-1.323a8.283 8.283 0 0 1-.806-1.312 4.935 4.935 0 0 1-.391-1.554z" transform="translate(1122.686 -507.491)"/>
            <path id="Path_20980" data-name="Path 20980" class="cls-8" d="M-1033.526 602.216s-3.456-5.554-2.592-8.434 1.975-3.25 2.016-2.592-1.332 1.687-.789 3.662 1.365 5.883 1.365 5.883-.082-7.159 1.6-7.734.905 2.592.411 4.155-2.011 5.06-2.011 5.06z" transform="translate(1067.234 -529.822)"/>
            <path id="Path_20981" data-name="Path 20981" class="cls-8" d="M-944.216 593.927a12.35 12.35 0 0 0 .946-4.88c-.206-2.139.823-.987.905.37s-.946 3.259-1.851 4.51z" transform="translate(987.633 -527.185)"/>
            <path id="Path_20982" data-name="Path 20982" class="cls-8" d="M-898.711 561.69c-.3.141 2.222-4.4 3.7-5.554a4.77 4.77 0 0 0 1.769-2.427s-1.158 5.943-5.469 7.981z" transform="translate(948.299 -497.648)"/>
            <g id="Group_6370" data-name="Group 6370" transform="translate(12.644 13.493)">
                <path id="Path_20983" data-name="Path 20983" d="M-1146.961 244.455s1.8-6.171 10.847-5.677l-2.057 1.975s7.488-.741 9.38 4.114 2.962 12.671 7.323 13.823c0 0-3.209 1.4-4.608 0 0 0 4.279 4.526 3.291 14.646l-1.07-3.867s-1.371 13.33-23.107 13.741-22.394-13.741-22.394-13.741a5.446 5.446 0 0 0-.905 4.032s-3.291-3.867 2.715-15.551a5.345 5.345 0 0 1-4.361.987 14.1 14.1 0 0 0 5.1-9.3c.494-5.842 6.418-10.121 10.779-9.215 0 0-1.4-1.7-1.893-1.674.003.002 9.986-.135 10.96 5.707z" transform="translate(1171.906 -238.749)" style="fill:#ffa700"/>
                <g id="Group_6369" data-name="Group 6369">
                    <g id="Group_6368" data-name="Group 6368" style="clip-path:url(#clip-path-2)">
                        <path id="Path_20984" data-name="Path 20984" class="cls-11" d="M-1185.459 349.526a9.309 9.309 0 0 0 7.515-5.266s-2.3 9.819-4.5 12.507c0 0 1.426-2.084 3.127-2.414 0 0-2.523 8.722 2.194 12.287 0 0-2.852-10.806 7.3-11.19 0 0 5.376-5.156 9.545-5.431s9.709 4.717 9.709 4.717 6.2.494 7.844 4 .59 7.9.59 7.9 3.415-1.371 2.811-12.123a8.2 8.2 0 0 1 2.359 2.469s-4.525-12.4-5.334-13.11c0 0 5.225 5.869 8.735 6.8l-2.084.933s3.017 9.929 1.371 13.659l-2.359 1.7-13.11 8.064-14.427 1.543-14.92-5.712-7.625-7.405 2.359-9.27z" transform="translate(1184.719 -329.668)"/>
                        <path id="Path_20985" data-name="Path 20985" class="cls-11" d="M-1109.516 242.943s7.748-2.855 11.685.178c0 0-4.527-3.879-8.022-3.221z" transform="translate(1117.948 -239.679)"/>
                        <path id="Path_20986" data-name="Path 20986" class="cls-11" d="M-948.325 236.052s4.107-3.921 6.212-4.2l2.873 3.291a33.872 33.872 0 0 0-9.085.909z" transform="translate(978.543 -232.789)"/>
                    </g>
                </g>
            </g>
            <path id="Path_20988" data-name="Path 20988" class="cls-12" d="M-1106.779 266.063s-1.934-2.592-6.788-1.111a8.55 8.55 0 0 0-5.677 6.418s4.812-6.294 12.465-5.307z" transform="translate(1139.006 -247.523)"/>
            <path id="Path_20989" data-name="Path 20989" class="cls-12" d="M-947.869 265.778s4.69-2.921 8.475-.782a7.056 7.056 0 0 1 3.826 5.636s-3.25-5.718-12.301-4.854z" transform="translate(990.792 -247.278)"/>
            <g id="Group_6373" data-name="Group 6373" transform="translate(21.401 36.66)">
                <path id="Path_20990" data-name="Path 20990" class="cls-13" d="M-1100.275 413.556s6.87-7.506 19.213-.206c0 0 6.706.041 6.747 6.665s-8.923 9.051-8.923 9.051-3.776 3.538-7.753 3.044a14.138 14.138 0 0 1-6.98-3.25s-8.8-1.44-9.133-9.216c.004 0-.453-5.883 6.829-6.088z" transform="translate(1107.11 -410.158)"/>
                <g id="Group_6372" data-name="Group 6372">
                    <g id="Group_6371" data-name="Group 6371" style="clip-path:url(#clip-path-3)">
                        <path id="Path_20991" data-name="Path 20991" d="M-1038.58 447.977s10.2 3.017 14.207-3.236c0 0 11.3-1.316 3.291-13.6l3.84 1.262 2.194 2.359.864 3.895-1.577 4.772-3.4 2.8-4.443 1.92-3.346 2.159-3.84.638-4.151-.274z" transform="translate(1047.842 -428.302)" style="fill:#f1cba2"/>
                    </g>
                </g>
            </g>
            <path id="Path_20993" data-name="Path 20993" class="cls-16" d="M-1051.669 473.38s6.729 7.734 17.457-.439c0 0-8.824 14.591-17.457.439z" transform="translate(1080.563 -427.796)"/>
            <path id="Path_20994" data-name="Path 20994" class="cls-16" d="M-1107.11 307.239a4.129 4.129 0 0 1 1.157-1.931 5.723 5.723 0 0 1 1.914-1.248c.176-.076.363-.123.545-.184a3.625 3.625 0 0 1 .557-.133c.189-.03.376-.066.565-.086s.38-.015.568-.017a3.024 3.024 0 0 1 .564.031c.187.023.373.051.556.083a5.776 5.776 0 0 1 1.066.358c-.367.13-.718.184-1.06.275-.171.048-.34.091-.507.13l-.25.056-.245.074a9.984 9.984 0 0 1-.486.129c-.157.056-.315.1-.472.154l-.236.071-.229.089c-.152.059-.311.1-.459.169a14.187 14.187 0 0 0-1.774.851 18.776 18.776 0 0 0-1.774 1.129z" transform="translate(1128.511 -281.376)"/>
            <path id="Path_20995" data-name="Path 20995" class="cls-16" d="M-915.907 302.914a4.406 4.406 0 0 1 2.052-.194 5.648 5.648 0 0 1 1.984.639 4.867 4.867 0 0 1 1.6 1.371 3.812 3.812 0 0 1 .778 1.927c-.559-.44-.99-.872-1.5-1.215a12.172 12.172 0 0 0-1.5-.953 21.74 21.74 0 0 0-1.627-.794z" transform="translate(963.15 -280.547)"/>
            <g id="Group_6379" data-name="Group 6379" transform="translate(57.652 8.185)">
                <path id="Path_20996" data-name="Path 20996" class="cls-17" d="M-838.894 205.347s3.7-7.27 11.478-5.63 5.019 11.02 5.019 11.02-1.336 5.554-8.012 5.883c0 0-1.739-3.7-3.714-4.237 0 0 3.148.741 3.714 1.851 0 0-1.2-3.908-4.5-5.6a2.465 2.465 0 0 1 2.592-.165s-3.327-2.875-6.577-3.122z" transform="translate(838.894 -199.476)"/>
                <g id="Group_6378" data-name="Group 6378">
                    <g id="Group_6377" data-name="Group 6377" style="clip-path:url(#clip-path-4)">
                        <path id="Path_20997" data-name="Path 20997" class="cls-19" d="M-823.681 235.018s6.118 2.425 7.564.9l-.529 5.348-2.222 5-4.484 2.324-4.4-.452-3.826-2.386-1.44-4.567-.7-3.209 2.427-.247 1.451.052z" transform="translate(834.418 -230.214)"/>
                        <g id="Group_6376" data-name="Group 6376" transform="translate(2.839 4.804)">
                            <path id="Path_20998" data-name="Path 20998" class="cls-12" d="M-816.779 238.307s4.484-4.032 7.323-3.168 2.386 4.4 2.263 5.43-3.127 6.048-7.734 3.579l-2.468-1.111-.494-4.074z" transform="translate(817.89 -235.018)"/>
                            <g id="Group_6375" data-name="Group 6375">
                                <g id="Group_6374" data-name="Group 6374" style="clip-path:url(#clip-path-5)">
                                    <path id="Path_20999" data-name="Path 20999" class="cls-21" d="M-825.8 257.454s4.9-.247 5.883 1.07 4.69 3.415 6.665-1.6c0 0 .7 4.361-3.044 6.418s-8.8-.658-8.8-.658z" transform="translate(824.735 -253.959)"/>
                                </g>
                            </g>
                        </g>
                    </g>
                </g>
            </g>
            <g id="Group_6384" data-name="Group 6384" transform="translate(.552 8.633)">
                <path id="Path_21002" data-name="Path 21002" class="cls-17" d="M-1244.317 208.641a9.518 9.518 0 0 0-9.929-5.814c-7.68.548-7.35 8.612-6.966 10.477s4.337 6.637 8.367 6.473c0 0 .739-2.743 2.768-3.785 0 0-2.629.964-2.768 1.3a11.719 11.719 0 0 1 4.634-5.748h-2.468s2.932-2.955 6.362-2.903z" transform="translate(1261.373 -202.793)"/>
                <g id="Group_6383" data-name="Group 6383">
                    <g id="Group_6382" data-name="Group 6382" style="clip-path:url(#clip-path-6)">
                        <path id="Path_21003" data-name="Path 21003" class="cls-19" d="M-1262.239 237.379s-5.485 1.808-6.418-.44-.274 9.644-.274 9.644l8.118 3.906h2.8l3.84-5.1s1.7-3.369 1.7-3.632-.658-2.361-.658-2.361h-4.663z" transform="translate(1268.105 -232.08)"/>
                        <path id="Path_21004" data-name="Path 21004" class="cls-12" d="M-1228.44 241.265c.165-.136-3.323-4.909-7.942-2.879s.427 10.4 5.8 9.259l3.182-2.182a11.383 11.383 0 0 1-.274-1.646 23.669 23.669 0 0 0-.766-2.552z" transform="translate(1241.327 -233.142)"/>
                        <g id="Group_6381" data-name="Group 6381" transform="translate(3.133 4.743)">
                            <g id="Group_6380" data-name="Group 6380" style="clip-path:url(#clip-path-7)">
                                <path id="Path_21005" data-name="Path 21005" class="cls-21" d="M-1243.343 262.9s2.688 3.978 5.211 2.332 4.553-2.662 6.692-1.962l-3.565 7.15-3.514-.429s-5.318-4.103-4.824-7.091z" transform="translate(1242.675 -259.518)"/>
                            </g>
                        </g>
                    </g>
                </g>
            </g>
            <path id="Path_21008" data-name="Path 21008" class="cls-11" d="M-965.219 340.386s2.674-4.942 7.076-6.135c0 0-6.421-.976-7.076 6.135z" transform="translate(1005.798 -307.812)"/>
            <path id="Path_21009" data-name="Path 21009" class="cls-11" d="M-1053.217 340.386s-2.674-4.942-7.076-6.135c0 0 6.421-.976 7.076 6.135z" transform="translate(1088.022 -307.812)"/>
            <path id="Path_21010" data-name="Path 21010" class="cls-11" d="M-884.585 385.569s-.341 4.727-4.328 6.942c0 0 3.573 1.963 4.328-6.942z" transform="translate(939.805 -352.233)"/>
            <path id="Path_21011" data-name="Path 21011" class="cls-11" d="M-1110.4 385.584s.168 4.736 4.071 7.1c-.004-.005-3.646 1.826-4.071-7.1z" transform="translate(1131.36 -352.246)"/>
            <g id="Group_6387" data-name="Group 6387" transform="translate(32.761 35.114)">
                <path id="Path_21012" data-name="Path 21012" d="M-1022.718 402.363s-1.454-1.912 1.618-3.027 8.132-.768 8.139 1.513-1.694 4.229-4.656 4.5-5.101-2.986-5.101-2.986z" transform="translate(1023.062 -398.723)" style="fill:#9e461a"/>
                <g id="Group_6386" data-name="Group 6386">
                    <g id="Group_6385" data-name="Group 6385" style="clip-path:url(#clip-path-8)">
                        <path id="Path_21013" data-name="Path 21013" d="M-1027.065 413.361s3.661 3.044 6.747 2.016a8.858 8.858 0 0 0 4.443-3.113v2.907l-2.1 2.345s-2.756.864-2.88.864-3.7-.782-3.867-.823-2.509-1.892-2.345-2.016a9.652 9.652 0 0 0 .002-2.18z" transform="translate(1026.531 -410.434)" style="fill:#8b3718"/>
                    </g>
                </g>
            </g>
            <path id="Path_21015" data-name="Path 21015" class="cls-16" d="M-1112.859 330.173a7.343 7.343 0 0 0-5.989-3.18 8.329 8.329 0 0 0-8.191-6.885 8.33 8.33 0 0 0-8 6.054 5.735 5.735 0 0 0-2.846 0 8.331 8.331 0 0 0-8-6.053 8.328 8.328 0 0 0-8.306 7.886 7.319 7.319 0 0 0-5.633 3.166 1.128 1.128 0 0 0 .273 1.572 1.123 1.123 0 0 0 .649.206 1.127 1.127 0 0 0 .923-.478 5.1 5.1 0 0 1 3.98-2.218 8.33 8.33 0 0 0 8.115 6.5 8.327 8.327 0 0 0 8.317-8.317v-.013a3.529 3.529 0 0 1 2.215.011 8.327 8.327 0 0 0 8.317 8.317 8.329 8.329 0 0 0 8.276-7.493 5.113 5.113 0 0 1 4.06 2.222 1.127 1.127 0 0 0 .923.479 1.123 1.123 0 0 0 .649-.206 1.128 1.128 0 0 0 .268-1.57zm-33.03 4.314a6.068 6.068 0 0 1-6.061-6.062 6.068 6.068 0 0 1 6.061-6.061 6.068 6.068 0 0 1 6.062 6.061 6.068 6.068 0 0 1-6.062 6.062zm18.849 0a6.068 6.068 0 0 1-6.061-6.062 6.068 6.068 0 0 1 6.061-6.061 6.068 6.068 0 0 1 6.062 6.061 6.068 6.068 0 0 1-6.061 6.062z" transform="translate(1174.283 -295.619)"/>
            <g id="Group_6388" data-name="Group 6388" transform="translate(24.163 28.49)">
                <circle id="Ellipse_102" data-name="Ellipse 102" class="cls-13" cx="4.085" cy="4.085" r="4.085"/>
                <ellipse id="Ellipse_103" data-name="Ellipse 103" class="cls-27" cx="1.728" cy="2.162" rx="1.728" ry="2.162" transform="translate(3.456 2.914)"/>
                <circle id="Ellipse_104" data-name="Ellipse 104" class="cls-16" cx="1.092" cy="1.092" r="1.092" transform="translate(4.445 4.947)"/>
                <circle id="Ellipse_105" data-name="Ellipse 105" class="cls-13" cx=".566" cy=".566" r=".566" transform="translate(5.779 5.606)"/>
            </g>
            <g id="Group_6389" data-name="Group 6389" transform="translate(43.158 28.49)">
                <circle id="Ellipse_106" data-name="Ellipse 106" class="cls-13" cx="4.085" cy="4.085" r="4.085"/>
                <ellipse id="Ellipse_107" data-name="Ellipse 107" class="cls-27" cx="1.728" cy="2.162" rx="1.728" ry="2.162" transform="translate(1.258 2.914)"/>
                <circle id="Ellipse_108" data-name="Ellipse 108" class="cls-16" cx="1.092" cy="1.092" r="1.092" transform="translate(1.541 4.947)"/>
                <circle id="Ellipse_109" data-name="Ellipse 109" class="cls-13" cx=".566" cy=".566" r=".566" transform="translate(1.258 5.606)"/>
            </g>
            <path id="Path_21016" data-name="Path 21016" class="cls-16" d="M-918.57 348.672a3.509 3.509 0 0 1 1.9-.1 3.5 3.5 0 0 1 1.751.946c.06.061.124.119.18.184l.153.206a2.37 2.37 0 0 1 .27.433c.071.154.143.307.206.462.045.161.081.323.117.484.018.08.035.161.048.241l.01.244c.005.162.006.323 0 .482a5.219 5.219 0 0 1-.191.93c-.123-.3-.188-.594-.28-.874a10.44 10.44 0 0 1-.154-.408l-.068-.2-.094-.188c-.062-.124-.118-.249-.174-.372-.077-.111-.145-.225-.215-.337a1.927 1.927 0 0 0-.235-.313l-.119-.154c-.043-.048-.095-.089-.141-.134a4.632 4.632 0 0 0-1.308-.911 11.571 11.571 0 0 0-1.656-.621z" transform="translate(965.453 -320.166)"/>
            <path id="Path_21017" data-name="Path 21017" class="cls-16" d="M-1083.462 348.672a3.509 3.509 0 0 0-1.9-.1 3.5 3.5 0 0 0-1.751.946c-.06.061-.124.119-.18.184l-.153.206a2.383 2.383 0 0 0-.27.433c-.071.154-.142.307-.206.462-.045.161-.081.323-.117.484-.018.08-.035.161-.048.241l-.01.244a7.042 7.042 0 0 0 0 .482 5.219 5.219 0 0 0 .191.93c.123-.3.188-.594.28-.874.055-.138.107-.274.154-.408l.068-.2.094-.188c.062-.124.118-.249.174-.372.077-.111.145-.225.215-.337a1.948 1.948 0 0 1 .235-.313l.119-.154c.043-.048.094-.089.141-.134a4.633 4.633 0 0 1 1.308-.911 11.59 11.59 0 0 1 1.656-.621z" transform="translate(1112.07 -320.166)"/>
        </g>
    </g>
</svg>
