<svg xmlns="http://www.w3.org/2000/svg" width="20.205" height="20.204">
    <g data-name="Group 284">
        <path data-name="Path 20600" d="M-531.1-894a10.238 10.238 0 0 1 10.1-10.1 10.238 10.238 0 0 1 10.1 10.1 10.238 10.238 0 0 1-10.1 10.1 10.238 10.238 0 0 1-10.1-10.1zm1.344 0a8.876 8.876 0 0 0 8.756 8.764 8.876 8.876 0 0 0 8.763-8.764 8.877 8.877 0 0 0-8.759-8.76 8.876 8.876 0 0 0-8.758 8.76zm4.412 1.742a.648.648 0 0 1 0-.906l3.772-3.819a.629.629 0 0 1 .449-.188.629.629 0 0 1 .453.188l3.772 3.819a.648.648 0 0 1 0 .906.629.629 0 0 1-.452.189.631.631 0 0 1-.451-.188l-3.32-3.362-3.32 3.362a.632.632 0 0 1-.451.189.633.633 0 0 1-.451-.185z" transform="translate(531.098 904.098)" style="fill:#1e1d20"/>
    </g>
</svg>
