<svg xmlns="http://www.w3.org/2000/svg" width="20.205" height="20.204" viewBox="0 0 20.205 20.204">
  <defs>
    <style>
      .cls-1 {
        fill: #fff;
      }
    </style>
  </defs>
  <g id="Group_284" data-name="Group 284" transform="translate(0.2 0.2)">
    <path id="Path_20600" data-name="Path 20600" class="cls-1" d="M-531.1-894A10.238,10.238,0,0,1-521-904.1a10.238,10.238,0,0,1,10.1,10.1,10.238,10.238,0,0,1-10.1,10.1A10.238,10.238,0,0,1-531.1-894Zm1.344,0A8.876,8.876,0,0,0-521-885.236,8.876,8.876,0,0,0-512.237-894a8.877,8.877,0,0,0-8.759-8.76A8.876,8.876,0,0,0-529.754-894Zm4.412,1.742a.648.648,0,0,1,0-.906l3.772-3.819a.629.629,0,0,1,.449-.188.629.629,0,0,1,.453.188l3.772,3.819a.648.648,0,0,1,0,.906.629.629,0,0,1-.452.189.631.631,0,0,1-.451-.188l-3.32-3.362-3.32,3.362a.632.632,0,0,1-.451.189A.633.633,0,0,1-525.343-892.253Z" transform="translate(530.898 903.898)"/>
  </g>
</svg>
