<svg xmlns="http://www.w3.org/2000/svg" width="32" height="35">
    <defs>
        <filter id="a" x="0" y="0" width="32" height="35" filterUnits="userSpaceOnUse">
            <feOffset dy="3"/>
            <feGaussianBlur result="blur"/>
            <feFlood flood-color="#810000"/>
            <feComposite operator="in" in2="blur"/>
            <feComposite in="SourceGraphic"/>
        </filter>
        <filter id="b" x="14.5" y="3.652" width="13.302" height="11.848" filterUnits="userSpaceOnUse">
            <feOffset dx="-1" dy="2"/>
            <feGaussianBlur result="blur-2"/>
            <feFlood flood-opacity=".051"/>
            <feComposite operator="in" in2="blur-2"/>
            <feComposite in="SourceGraphic"/>
        </filter>
        <filter id="c" x="7" y="8" width="18" height="18" filterUnits="userSpaceOnUse">
            <feOffset dy="1"/>
            <feGaussianBlur stdDeviation="1" result="blur-3"/>
            <feFlood flood-color="#f10000" flood-opacity=".302"/>
            <feComposite operator="in" in2="blur-3"/>
            <feComposite in="SourceGraphic"/>
        </filter>
    </defs>
    <g data-name="Group 6093">
        <g style="filter:url(#a)">
            <g data-name="Path 20745" style="fill:#ffb916">
                <path d="M16 31.25a15.15 15.15 0 0 1-10.783-4.467A15.15 15.15 0 0 1 .75 16 15.15 15.15 0 0 1 5.217 5.217 15.15 15.15 0 0 1 16 .75a15.15 15.15 0 0 1 10.783 4.467A15.15 15.15 0 0 1 31.25 16a15.15 15.15 0 0 1-4.467 10.783A15.15 15.15 0 0 1 16 31.25z" style="stroke:none"/>
                <path d="M16 1.5A14.405 14.405 0 0 0 5.747 5.747 14.405 14.405 0 0 0 1.5 16c0 3.873 1.508 7.514 4.247 10.253A14.405 14.405 0 0 0 16 30.5c3.873 0 7.514-1.508 10.253-4.247A14.405 14.405 0 0 0 30.5 16c0-3.873-1.508-7.514-4.247-10.253A14.405 14.405 0 0 0 16 1.5M16 0c8.837 0 16 7.163 16 16s-7.163 16-16 16S0 24.837 0 16 7.163 0 16 0z" style="fill:#f10000;stroke:none"/>
            </g>
        </g>
        <g style="filter:url(#b)">
            <path data-name="Union 7" d="M9.847 8.341a8.563 8.563 0 0 0-3.4-4.7 9.022 9.022 0 0 0-2.428-1.226.682.682 0 0 1-.5-.855.75.75 0 0 1 .922-.46A10.356 10.356 0 0 1 7.28 2.506a10.079 10.079 0 0 1 3.992 5.472.686.686 0 0 1-.518.846.81.81 0 0 1-.195.024.733.733 0 0 1-.712-.507zM0 1.033A1.072 1.072 0 0 1 1.108 0a1.072 1.072 0 0 1 1.107 1.033 1.072 1.072 0 0 1-1.107 1.033A1.072 1.072 0 0 1 0 1.033z" transform="translate(16 4.15)" style="fill:#fff;stroke:#fff;stroke-linecap:round;opacity:.7"/>
        </g>
        <g style="filter:url(#c)">
            <path data-name="Path 20746" d="M6 0a6 6 0 1 1 0 12A6 6 0 0 1 6 0z" transform="translate(10 10)" style="fill:#f10000"/>
        </g>
    </g>
</svg>
