<svg data-name="Group 289" xmlns="http://www.w3.org/2000/svg" width="32.47" height="25.512">
    <path data-name="Path 20608" d="M150.888 252.008h-4.638a3.479 3.479 0 0 1-3.479-3.479v-15.075a3.479 3.479 0 0 1 3.479-3.479h25.512a3.479 3.479 0 0 1 3.479 3.479v15.075a3.479 3.479 0 0 1-3.479 3.479h-4.639v.9a2.575 2.575 0 0 1-2.576 2.574h-11.083a2.575 2.575 0 0 1-2.576-2.574zm2.319 0v.9a.256.256 0 0 0 .256.255h11.084a.256.256 0 0 0 .256-.255v-.9zm19.714-18.554v15.075a1.159 1.159 0 0 1-1.16 1.16H146.25a1.159 1.159 0 0 1-1.16-1.16v-15.075a1.16 1.16 0 0 1 1.16-1.16h25.512a1.16 1.16 0 0 1 1.16 1.16zm-15.075 6.279-1.3 1.3a1.159 1.159 0 0 1-1.64-1.64l3.279-3.281a1.16 1.16 0 0 1 1.64 0l3.281 3.281a1.16 1.16 0 0 1-1.641 1.64l-1.3-1.3v5.317a1.16 1.16 0 1 1-2.319 0z" transform="translate(-142.771 -229.975)" style="fill:#1e1d20;fill-rule:evenodd"/>
</svg>
