<svg xmlns="http://www.w3.org/2000/svg" width="86" height="110">
    <defs>
        <filter id="a" x="0" y="0" width="86" height="110" filterUnits="userSpaceOnUse">
            <feOffset dx="6" dy="3"/>
            <feGaussianBlur stdDeviation="5" result="blur"/>
            <feFlood flood-color="#462170" flood-opacity=".102"/>
            <feComposite operator="in" in2="blur"/>
            <feComposite in="SourceGraphic"/>
        </filter>
    </defs>
    <g style="filter:url(#a)">
        <g data-name="Path 20642" style="fill:#fff">
            <path d="M40 85.5a39.252 39.252 0 0 1-15.375-3.104 39.37 39.37 0 0 1-12.556-8.465 39.369 39.369 0 0 1-8.465-12.556A39.252 39.252 0 0 1 .5 46V30.5h79V46a39.252 39.252 0 0 1-3.104 15.375 39.37 39.37 0 0 1-8.465 12.556 39.37 39.37 0 0 1-12.556 8.465A39.252 39.252 0 0 1 40 85.5z" style="stroke:none" transform="rotate(-90 35.5 56.5)"/>
            <path d="M1 31v15a38.755 38.755 0 0 0 3.064 15.18 38.871 38.871 0 0 0 8.359 12.397 38.871 38.871 0 0 0 12.397 8.359A38.755 38.755 0 0 0 40 85a38.755 38.755 0 0 0 15.18-3.064 38.871 38.871 0 0 0 12.397-8.359 38.871 38.871 0 0 0 8.359-12.397A38.755 38.755 0 0 0 79 46V31H1m-1-1h80v16c0 22.091-17.909 40-40 40S0 68.091 0 46V30z" style="fill:#e8e8e8;stroke:none" transform="rotate(-90 35.5 56.5)"/>
        </g>
    </g>
</svg>
