<svg xmlns="http://www.w3.org/2000/svg" width="16.866" height="16.866" viewBox="0 0 16.866 16.866">
  <defs>
    <style>
      .cls-1 {
        fill: #142668;
      }
    </style>
  </defs>
  <path id="Path_21314" data-name="Path 21314" class="cls-1" d="M47.931,35h-9A3.911,3.911,0,0,0,35,38.935v9a3.911,3.911,0,0,0,3.935,3.935h9a3.911,3.911,0,0,0,3.935-3.935v-9A3.911,3.911,0,0,0,47.931,35Zm1.687,12.931a1.657,1.657,0,0,1-1.687,1.687h-9a1.657,1.657,0,0,1-1.687-1.687v-9a1.657,1.657,0,0,1,1.687-1.687h9a1.657,1.657,0,0,1,1.687,1.687Z" transform="translate(-35 -35)"/>
</svg>
