<svg xmlns="http://www.w3.org/2000/svg" width="34.99" height="25.588">
    <path data-name="Path 21020" d="M-7137.829-3316.2c0-1.093-.879-2.26-2.412-3.206a9.266 9.266 0 0 0-4.456-1.405.8.8 0 0 1-.757-.537l-.938-2.778c-.512.05-1.046.075-1.59.075a.824.824 0 0 1-.135-.011.835.835 0 0 1-.136.011c-.543 0-1.077-.025-1.589-.075l-.939 2.776a.8.8 0 0 1-.757.539 9.266 9.266 0 0 0-4.456 1.405c-1.533.945-2.412 2.113-2.412 3.206a.794.794 0 0 1-.8.789.8.8 0 0 1-.8-.792c0-1.554 1-3.087 2.809-4.314a11.269 11.269 0 0 1 5.073-1.849l.679-2.011a10.012 10.012 0 0 1-4.456-2.151 7.634 7.634 0 0 1-1.828-2.279.781.781 0 0 1 .029-.758 24.569 24.569 0 0 0 2.1-4.1c1.078-4.5 3.756-7.087 7.346-7.087a.808.808 0 0 1 .136.011.8.8 0 0 1 .135-.011c3.59 0 6.268 2.584 7.346 7.087a24.72 24.72 0 0 0 2.1 4.1.784.784 0 0 1 .029.76 7.658 7.658 0 0 1-1.827 2.277 10.016 10.016 0 0 1-4.457 2.151l.679 2.011a11.26 11.26 0 0 1 5.073 1.849c1.811 1.227 2.809 2.76 2.809 4.314a.8.8 0 0 1-.8.792.794.794 0 0 1-.798-.789zm.8.289zm-22.172 0zm14.507-5.4zm-6.841 0zm3.421-4.308a.8.8 0 0 1 .135-.011h.348c4.774-.107 6.787-2.39 7.49-3.515a22.212 22.212 0 0 1-2.045-4.149c-.42-1.765-1.83-5.872-5.8-5.872a.8.8 0 0 1-.135-.011.808.808 0 0 1-.136.011c-3.966 0-5.373 4.108-5.8 5.872a22.122 22.122 0 0 1-2.045 4.149c.7 1.125 2.717 3.408 7.49 3.515h.351a.808.808 0 0 1 .144.011zm21.51 9.169c0-1.093-.878-2.26-2.412-3.206a9.266 9.266 0 0 0-4.456-1.405h-.022a.8.8 0 0 1-.735-.537l-.938-2.778c-.437.043-.89.068-1.351.074h-.239a.794.794 0 0 1-.8-.791.794.794 0 0 1 .8-.789c5.026 0 7.119-2.367 7.84-3.519a22.264 22.264 0 0 1-2.045-4.149c-.42-1.765-1.829-5.872-5.795-5.872a.794.794 0 0 1-.8-.789.794.794 0 0 1 .8-.791c3.59 0 6.268 2.582 7.346 7.087a24.681 24.681 0 0 0 2.1 4.1.787.787 0 0 1 .028.762 7.658 7.658 0 0 1-1.827 2.277 10.016 10.016 0 0 1-4.457 2.151l.679 2.011a11.261 11.261 0 0 1 5.073 1.849c1.812 1.227 2.809 2.76 2.809 4.314a.8.8 0 0 1-.8.792.794.794 0 0 1-.801-.791zm-10.168-8.93zm.016 0z" transform="translate(7160.001 3341)" style="fill:#142668"/>
</svg>
