<svg xmlns="http://www.w3.org/2000/svg" width="994.333" height="161.548">
    <defs>
        <linearGradient id="a" x1=".045" y1=".552" x2=".98" y2=".635" gradientUnits="objectBoundingBox">
            <stop offset="0" stop-color="#fff"/>
            <stop offset="1" stop-color="#e0f9ff"/>
        </linearGradient>
    </defs>
    <path data-name="Path 21335" d="M-1379.27-2534.9c.032-.133.084-.26.124-.386a20.928 20.928 0 0 0-5.895-11.428 35.8 35.8 0 0 0-12.081-7.489c-9.408-3.776-20.509-5.144-30.934-4.48-.58.035-.612-.625-.126-.771 6.983-2.03 14.412-7.809 14.716-14.083.16-3.34-2.283-5.708-6.057-6.8a14.1 14.1 0 0 0-9.749.526c2.026.787 3.766 2.777 4.8 4 .037.04.018.077-.008.108.206.143.414.3.607.457.121.1-.034.272-.185.193a16.61 16.61 0 0 0-3.856-1.577 10.883 10.883 0 0 0-4.612.243 13.106 13.106 0 0 0-7.519 4.251.379.379 0 0 1-.3.126.084.084 0 0 0 .019.046c.039.154-.23.264-.326.111-1.534-2.294.194-5.552 3.033-6.768-4.778-2.469-10.12-3.857-15.854-2.748a15.753 15.753 0 0 0-7.327 3.487c-2.63 2.26-3.065 4.875-3.555 7.711a22.585 22.585 0 0 1 5.1 5.839c.068.107-.023.2-.135.205.14.17.292.341.43.519.095.125-.143.28-.271.16a20.14 20.14 0 0 0-14.129-5.418c-5.545-.023-11.027 2.073-14.2 5.769-.248.286-1.009.231-.938-.207a11.41 11.41 0 0 1 5.563-7.592 11.1 11.1 0 0 1 4.346-1.445 9.61 9.61 0 0 0-3.389-6.05 17.386 17.386 0 0 0-7.754-3.362 24.277 24.277 0 0 0-9.05-.045 17.957 17.957 0 0 0-3.9 1.2c-2.032.9-3.1 2.354-4.6 3.7-.192.173-.627-.01-.509-.246.072-.147.151-.282.232-.425-.4-3.378 3.666-5.8 7.9-6.866-2.048-4.112-8.128-6.051-13.179-6.816a23.59 23.59 0 0 0-5.269-.19v-.2a23.588 23.588 0 0 0-4.735.224c-5.052.766-11.132 2.7-13.179 6.815 4.235 1.067 8.3 3.489 7.9 6.867.082.144.16.278.233.425.118.236-.317.419-.509.247-1.5-1.343-2.565-2.8-4.6-3.7a17.947 17.947 0 0 0-3.9-1.2 24.271 24.271 0 0 0-9.05.046 17.377 17.377 0 0 0-7.753 3.362 9.6 9.6 0 0 0-3.389 6.05 11.087 11.087 0 0 1 4.345 1.445 11.415 11.415 0 0 1 5.564 7.592c.071.439-.691.492-.938.206-3.17-3.695-8.652-5.792-14.2-5.768a20.139 20.139 0 0 0-14.129 5.418c-.129.119-.366-.035-.271-.16.136-.178.29-.349.429-.519-.11-.008-.2-.1-.134-.205a22.569 22.569 0 0 1 5.1-5.839c-.49-2.837-.925-5.452-3.555-7.711a15.755 15.755 0 0 0-7.326-3.488c-5.735-1.109-11.076.28-15.854 2.748 2.839 1.216 4.567 4.474 3.033 6.767-.1.154-.366.043-.327-.112a.079.079 0 0 0 .019-.045.378.378 0 0 1-.3-.125 13.109 13.109 0 0 0-7.52-4.252 10.9 10.9 0 0 0-4.612-.243 16.59 16.59 0 0 0-3.855 1.577c-.151.079-.306-.095-.185-.193.192-.162.4-.313.606-.457-.027-.032-.045-.068-.008-.108 1.03-1.224 2.769-3.213 4.8-4a14.1 14.1 0 0 0-9.748-.525c-3.774 1.094-6.217 3.461-6.057 6.8.3 6.274 7.732 12.053 14.716 14.084.485.146.453.806-.127.771-10.425-.663-21.526.7-30.935 4.479a35.817 35.817 0 0 0-12.08 7.49 20.926 20.926 0 0 0-5.9 11.428c.04.127.092.254.124.387.086.275-.178.45-.444.45a.445.445 0 0 1-.43-.258 33.785 33.785 0 0 0-2.419-4.907c-6.457-10.339-19.637-17.474-33.351-20.306a62.831 62.831 0 0 0-23.6-.674c-7.962 1.432-15.078 4.506-21.837 8.074-.263.14-.485-.19-.238-.336.3-.178.6-.354.915-.531-2.488-4.3-4.217-8.915-9.279-11.809a21.857 21.857 0 0 0-9.2-2.7 27.488 27.488 0 0 0-6.4.222 26.73 26.73 0 0 0-2.617.536c-.48.125-1.25.219-1.811.4a8.339 8.339 0 0 1 .783 1.757c.453 1.416 1.734 4.6.36 5.952l.016.04c.1.368-.506.482-.68.149-.8-1.546-1.107-3.273-2.167-4.726a17.159 17.159 0 0 0-3.022-3.172 24.674 24.674 0 0 0-7.951-4.534c-4.583-1.47-11.129-2.769-15.5-.292-.174.1-.351-.114-.216-.225a5.512 5.512 0 0 1 1.06-.709 13.913 13.913 0 0 1 5.376-2.591 16.562 16.562 0 0 1 2.849-.451 5.9 5.9 0 0 0-2.106-3.82 8.7 8.7 0 0 0-4.08-2.119c-2.68-.526-5.843-.412-8.049 1.014a11.679 11.679 0 0 1 2.027 3.96c.584 2 1.131 5.246-.6 6.987-.1.1-.3.021-.3-.1.008-.032.008-.068.019-.1a.262.262 0 0 1-.177-.217 9.95 9.95 0 0 0-3.286-6.986 15.427 15.427 0 0 0-6.385-3.448 18.341 18.341 0 0 0-14.337 2.4c-.143.079-.272-.092-.169-.186a10.368 10.368 0 0 1 1.184-.948 17.983 17.983 0 0 1 5.458-4.163c.495-.211 1.02-.4 1.552-.576a31.567 31.567 0 0 0-3.647-4.731 17.114 17.114 0 0 0-5.819-3.6 26.74 26.74 0 0 0-14.071-.937c-4.7.937-9.342 3.034-11.959 6.415-2.558 3.316-2.819 7.1-1.834 10.826a11.789 11.789 0 0 1 3.928 4.529 15.476 15.476 0 0 1 1.388 5.2 14.355 14.355 0 0 1-.058 2.022 5.059 5.059 0 0 0-.147 1.08l.021.092c.008.013.011.043.027.051a.1.1 0 0 1-.03.141.307.307 0 0 1-.527-.019c-1.007-2.144-1.843-4.439-3.716-6.226a21.783 21.783 0 0 0-5.943-3.936 36.966 36.966 0 0 0-14.777-3.177 38.5 38.5 0 0 0-10.571 1.359 18.622 18.622 0 0 0-5.292 2.209 10.766 10.766 0 0 0-2.7 2.771c-.011.047-.029.1-.037.146-.005.066-.079.09-.145.09a.475.475 0 0 0-.037.051c-.071.09-.258.057-.247-.054a2.592 2.592 0 0 1 .2-.968c.575-3.517 4.162-6.619 7.54-8.616a27.309 27.309 0 0 1 10.648-3.6 8.273 8.273 0 0 0 .26-4.4 10.178 10.178 0 0 0-2.3-3.719 18.973 18.973 0 0 0-7.611-5.148c-4.091-1.435-10.4-1.67-13.931.912a10.427 10.427 0 0 1 .127 4.4 8.019 8.019 0 0 1-3.732 5.947c-.14.241-.632.144-.649-.138-.205-2.744.193-5.354-.869-8.039a16.7 16.7 0 0 0-2.894-4.662c-2.685-3.112-6.981-6.246-12.083-5.161-.146.035-.237-.144-.1-.193.243-.089.483-.159.719-.225-.029-.046-.018-.105.067-.127 3.982-1.131 8.947-1.123 12.7.612a19.844 19.844 0 0 0 .595-5.766 10.778 10.778 0 0 0-3.449-7c-7.047-6.569-20.708-6.372-28.381-.558-4.282 3.249-6.443 8.332-4.736 12.979a15.233 15.233 0 0 0 6.528 7.337c.945.588 1.847 1.213 2.833 1.757.311.173.861.517 1.444.783a9.333 9.333 0 0 0 1.471 1.02.271.271 0 0 1-.2.114c-3.249.384-6.535.043-9.582 1.318a19.37 19.37 0 0 0-6.062 3.812 11.1 11.1 0 0 0-3.352 5.789c-.4 2.225.269 4.161.923 6.294a18.907 18.907 0 0 1 7.84 5.289 17.566 17.566 0 0 1 3.308 4.793 6.135 6.135 0 0 1 .6 4.147.468.468 0 0 1 .047.12.291.291 0 0 1-.243.365c-.049.087-.1.182-.161.274-.11.159-.379.04-.35-.117.018-.106.029-.208.042-.314-.008-.016-.024-.027-.032-.043-2.308-4.566-7.884-7.438-13.593-8.762-5.416-1.258-11.056-1.161-15.718 1.6-.155.09-.316-.1-.205-.2s.242-.192.366-.293v-.011a18.354 18.354 0 0 1 6.294-4.323 21.576 21.576 0 0 1 2.954-1.071 38.037 38.037 0 0 0-.986-4.025 16.3 16.3 0 0 0-2.583-4.523 18.1 18.1 0 0 0-7.558-5.969c-6.3-2.512-13.589-1.643-19.687.883-2.923 1.207-5.874 2.828-7.7 5.085a12.384 12.384 0 0 0-2.515 5.524c-.788 4.193.659 8.916 6.647 9.436.617-.006 1.239.008 1.861.044.472.021.461.552 0 .581-5.982.377-11.735 1.167-16.737 4a24.63 24.63 0 0 0-8.808 8.3 28.2 28.2 0 0 0-2.572 5.262v-27.722a42.909 42.909 0 0 1 3.452-.845 17.861 17.861 0 0 1 3.073-7.725 31.51 31.51 0 0 1 22.878-13.331 29.415 29.415 0 0 1 19.8 5.034 7.076 7.076 0 0 1 2.814-3.01 13.38 13.38 0 0 1 4.85-1.826 5.737 5.737 0 0 1 .274-4.345 12.977 12.977 0 0 1 6.452-5.779 11.046 11.046 0 0 1-3.792-6.076c-1.632-7.9 7.423-14.468 15.1-17.921 8.475-3.812 20.422-7.227 30.107-4.51 14.182 3.987 24.185 15.491 22.19 27.741a21.6 21.6 0 0 1-1.315 4.613 25 25 0 0 1 6.544-.328c7.85.679 15.243 4.853 18.39 10.759a13.215 13.215 0 0 1 1.3 8.486 17.471 17.471 0 0 1 5.358 1.585 14.744 14.744 0 0 1-.615-1.748 18.706 18.706 0 0 1 2.411-15.924 32.751 32.751 0 0 1 27.769-13.718c11.851.474 23.152 7.205 25.936 16.611a21.1 21.1 0 0 1 10.072-2.377c8.837.336 13.053 6.166 13.844 12.709a19.647 19.647 0 0 1 .143 3.383 25.978 25.978 0 0 1 7.066-1.174c7.967-.258 16.511 1.57 21.626 6.767a30.292 30.292 0 0 1 5.175 7.051c3.951-5.757 13.436-9.627 21.168-7.759a19.459 19.459 0 0 1 11.68 7.7 16.558 16.558 0 0 1 3.584-4.452c6.871-6.1 18.461-10.819 28.723-8.045a34.574 34.574 0 0 1 21.21 16.836 34.23 34.23 0 0 1 11.688-7.208 31.307 31.307 0 0 1 7.885-1.735 6.556 6.556 0 0 1-.268-6.65c3.55-7.227 12.934-12.979 22.875-12.508a18.232 18.232 0 0 1 10.68 3.611 12.779 12.779 0 0 1 6.787-3.416c4.791-.7 9.171 1.537 10.157 5.467a11.829 11.829 0 0 1 .184 4.383 13.261 13.261 0 0 1 2.462-.111 17.781 17.781 0 0 1-.888-6.188c.419-7.955 9.522-14.692 18.369-17.19 4.4-1.237 9.44-1.586 13.726.147a13.566 13.566 0 0 1 8.177 9.519 1.354 1.354 0 0 1 .033.154 17.626 17.626 0 0 1 6.967-.33 14.056 14.056 0 0 1 2.736.718 12.36 12.36 0 0 1 4.24-8.962 18.261 18.261 0 0 1 14.352-3.292v.067a18.27 18.27 0 0 1 13.819 3.39 12.366 12.366 0 0 1 4.24 8.962 14.034 14.034 0 0 1 2.735-.718 17.625 17.625 0 0 1 6.968.33 1.391 1.391 0 0 1 .031-.154 13.575 13.575 0 0 1 8.178-9.519c4.286-1.731 9.33-1.382 13.726-.146 8.847 2.5 17.949 9.236 18.368 17.19a17.742 17.742 0 0 1-.888 6.188 13.3 13.3 0 0 1 2.462.111 11.844 11.844 0 0 1 .185-4.382c.986-3.931 5.365-6.163 10.157-5.467a12.773 12.773 0 0 1 6.786 3.415 18.232 18.232 0 0 1 10.682-3.61c9.941-.472 19.325 5.28 22.875 12.507a6.559 6.559 0 0 1-.268 6.65 31.337 31.337 0 0 1 7.884 1.735 34.24 34.24 0 0 1 11.688 7.208 34.575 34.575 0 0 1 21.21-16.836c10.262-2.775 21.852 1.946 28.723 8.044a16.591 16.591 0 0 1 3.584 4.453 19.478 19.478 0 0 1 11.68-7.7c7.732-1.866 17.217 2 21.167 7.761a30.308 30.308 0 0 1 5.176-7.051c5.115-5.2 13.659-7.024 21.626-6.766a26 26 0 0 1 7.066 1.174 19.555 19.555 0 0 1 .143-3.383c.79-6.542 5.007-12.372 13.843-12.708a21.11 21.11 0 0 1 10.073 2.377c2.783-9.406 14.083-16.137 25.935-16.611a32.752 32.752 0 0 1 27.77 13.718 18.71 18.71 0 0 1 2.411 15.924 14.867 14.867 0 0 1-.614 1.748 17.473 17.473 0 0 1 5.358-1.586 13.2 13.2 0 0 1 1.3-8.485c3.146-5.906 10.539-10.081 18.39-10.76a24.99 24.99 0 0 1 6.543.327 21.682 21.682 0 0 1-1.315-4.613c-1.994-12.25 8.009-23.753 22.191-27.741 9.685-2.717 21.632.7 30.107 4.51 7.683 3.454 16.738 10.025 15.106 17.921a11.044 11.044 0 0 1-3.792 6.076 12.972 12.972 0 0 1 6.451 5.78 5.738 5.738 0 0 1 .274 4.344 13.377 13.377 0 0 1 4.849 1.826 7.08 7.08 0 0 1 2.815 3.01 29.412 29.412 0 0 1 19.8-5.035 31.517 31.517 0 0 1 22.878 13.331 17.851 17.851 0 0 1 3.073 7.725c1.168.231 2.322.523 3.453.846v27.722a28.334 28.334 0 0 0-2.572-5.261 24.642 24.642 0 0 0-8.807-8.3c-5-2.831-10.756-3.622-16.738-4-.461-.03-.471-.56 0-.581.622-.036 1.244-.05 1.86-.044 5.988-.519 7.435-5.242 6.647-9.434a12.386 12.386 0 0 0-2.514-5.525c-1.824-2.257-4.775-3.878-7.7-5.086-6.1-2.525-13.391-3.395-19.687-.883a18.108 18.108 0 0 0-7.558 5.969 16.326 16.326 0 0 0-2.583 4.524 37.824 37.824 0 0 0-.986 4.024 21.6 21.6 0 0 1 2.954 1.071 18.349 18.349 0 0 1 6.293 4.324v.01c.124.1.246.192.367.292s-.05.29-.205.2c-4.662-2.766-10.3-2.863-15.718-1.6-5.708 1.323-11.285 4.2-13.594 8.762-.007.016-.023.027-.031.043.013.106.024.208.042.314.029.157-.239.276-.351.117-.057-.091-.11-.187-.16-.274a.29.29 0 0 1-.242-.364.409.409 0 0 1 .048-.12 6.132 6.132 0 0 1 .6-4.148 17.562 17.562 0 0 1 3.307-4.792 18.908 18.908 0 0 1 7.84-5.289c.654-2.133 1.323-4.069.922-6.294a11.109 11.109 0 0 0-3.352-5.79 19.366 19.366 0 0 0-6.062-3.81c-3.047-1.275-6.333-.934-9.583-1.319a.268.268 0 0 1-.2-.114 9.289 9.289 0 0 0 1.47-1.02c.582-.265 1.134-.608 1.444-.782.986-.543 1.888-1.169 2.833-1.756a15.241 15.241 0 0 0 6.528-7.338c1.707-4.647-.453-9.73-4.736-12.978-7.672-5.815-21.334-6.012-28.38.558a10.772 10.772 0 0 0-3.45 7 19.788 19.788 0 0 0 .6 5.766c3.755-1.736 8.721-1.743 12.7-.612.084.022.1.081.065.127.238.065.477.135.719.224.137.049.045.228-.1.193-5.1-1.086-9.4 2.049-12.084 5.161a16.693 16.693 0 0 0-2.893 4.661c-1.062 2.685-.665 5.3-.87 8.039-.015.281-.509.38-.648.138a8.017 8.017 0 0 1-3.732-5.947 10.421 10.421 0 0 1 .126-4.4c-3.534-2.582-9.841-2.347-13.931-.912a18.969 18.969 0 0 0-7.611 5.148 10.177 10.177 0 0 0-2.3 3.72 8.281 8.281 0 0 0 .261 4.4 27.317 27.317 0 0 1 10.648 3.6c3.379 2 6.965 5.1 7.539 8.616a2.591 2.591 0 0 1 .2.969c.01.111-.177.144-.249.054a.332.332 0 0 0-.037-.051c-.065 0-.139-.024-.144-.089-.008-.049-.027-.1-.037-.146a10.775 10.775 0 0 0-2.7-2.771 18.638 18.638 0 0 0-5.291-2.208 38.527 38.527 0 0 0-10.571-1.359 36.96 36.96 0 0 0-14.776 3.177 21.808 21.808 0 0 0-5.943 3.936c-1.874 1.787-2.709 4.081-3.716 6.226a.308.308 0 0 1-.527.019.1.1 0 0 1-.029-.141c.016-.008.019-.038.027-.051l.02-.092a5.043 5.043 0 0 0-.147-1.08 14.422 14.422 0 0 1-.058-2.021 15.464 15.464 0 0 1 1.388-5.206 11.788 11.788 0 0 1 3.927-4.528c.986-3.73.724-7.51-1.834-10.826-2.618-3.381-7.264-5.479-11.96-6.416a26.734 26.734 0 0 0-14.07.937 17.122 17.122 0 0 0-5.82 3.595 31.547 31.547 0 0 0-3.647 4.731c.532.173 1.057.366 1.552.575a18 18 0 0 1 5.458 4.165 10.374 10.374 0 0 1 1.183.946c.1.094-.026.266-.169.187a18.339 18.339 0 0 0-14.336-2.4 15.431 15.431 0 0 0-6.385 3.448 9.951 9.951 0 0 0-3.286 6.986.262.262 0 0 1-.177.217c.01.035.01.071.018.1.005.12-.2.195-.3.1-1.731-1.74-1.186-4.986-.6-6.987a11.7 11.7 0 0 1 2.027-3.959c-2.2-1.427-5.368-1.541-8.048-1.015a8.691 8.691 0 0 0-4.08 2.12 5.9 5.9 0 0 0-2.105 3.819 16.567 16.567 0 0 1 2.849.452 13.9 13.9 0 0 1 5.376 2.59 5.535 5.535 0 0 1 1.059.709c.134.111-.042.325-.216.225-4.375-2.477-10.921-1.178-15.5.292a24.659 24.659 0 0 0-7.951 4.534 17.147 17.147 0 0 0-3.022 3.172c-1.06 1.453-1.371 3.181-2.167 4.726-.174.333-.775.219-.68-.149l.016-.041c-1.373-1.348-.092-4.536.361-5.951a8.318 8.318 0 0 1 .782-1.756c-.56-.182-1.33-.277-1.81-.4a26.246 26.246 0 0 0-2.617-.535 27.4 27.4 0 0 0-6.4-.223 21.852 21.852 0 0 0-9.2 2.7c-5.063 2.894-6.792 7.506-9.28 11.809.311.177.612.353.914.531.248.147.027.477-.237.336-6.76-3.568-13.875-6.642-21.837-8.074a62.858 62.858 0 0 0-23.6.674c-13.715 2.832-26.894 9.966-33.351 20.307a33.754 33.754 0 0 0-2.419 4.906.442.442 0 0 1-.429.258c-.232-.003-.496-.179-.411-.451zm329.3-23.091a2.621 2.621 0 0 1-1.035-.809 1.337 1.337 0 0 1-.287-.668 1.478 1.478 0 0 1 .524-1.673 3.129 3.129 0 0 1 .638-.4 2.446 2.446 0 0 1 1.265-.214 1.84 1.84 0 0 1 .514-.079 1.58 1.58 0 0 1 1.384.728l.018.014c-.005-.022 0-.014.008.008.2.122.474.309.45.3a1.572 1.572 0 0 1-.048 2.548 3.508 3.508 0 0 1-1.285.614 2.216 2.216 0 0 1-.5.055 4.2 4.2 0 0 1-1.65-.427zm-937.866.2a3.512 3.512 0 0 1-1.287-.614 1.572 1.572 0 0 1-.046-2.548c-.024.014.247-.173.45-.295.008-.022.013-.03.008-.009l.018-.013a1.58 1.58 0 0 1 1.385-.728 1.836 1.836 0 0 1 .513.078 2.467 2.467 0 0 1 1.265.215 3.106 3.106 0 0 1 .638.4 1.478 1.478 0 0 1 .525 1.673 1.338 1.338 0 0 1-.287.668 2.612 2.612 0 0 1-1.036.809 4.191 4.191 0 0 1-1.644.421 2.191 2.191 0 0 1-.505-.06zm836.864-7.8c-.077.1-.1.139-.1.139l.061-.085c.046-.06.09-.12.044-.054 2.348-3.138 7.021.463 5.566 3.209a2.275 2.275 0 0 1-2.131 1.2c-2.268-.006-5.008-2.318-3.443-4.418zm-739.283 3.043c-1.454-2.747 3.218-6.347 5.566-3.209a.596.596 0 0 1 .042.054l.063.084-.1-.139c1.565 2.093-1.178 4.408-3.435 4.408a2.276 2.276 0 0 1-2.14-1.203zm760.017-2.988c2.087-1.673 5.624 1.088 3.481 2.81a2.376 2.376 0 0 1-1.512.532c-1.863-.006-3.607-2.029-1.973-3.346zm-778.665 2.644c-2.142-1.721 1.394-4.482 3.482-2.81 1.634 1.317-.108 3.342-1.969 3.342a2.381 2.381 0 0 1-1.517-.54zm24.319-2.727zm377.191-4.911.026-.064c1.153-2.764 5.27-1.492 5.652.912.233 1.449-1.1 2.113-2.543 2.113-1.842-.005-3.87-1.075-3.142-2.966zm-26.552.682c.382-2.4 4.5-3.676 5.653-.912l.028.07c.726 1.887-1.3 2.955-3.137 2.955-1.451-.005-2.781-.665-2.548-2.118zm306.146-.556c1.779 0 1.779 2.224 0 2.224a1.13 1.13 0 1 1-.001-2.229zm-580.062-.167a1.131 1.131 0 1 1 0 2.225c-1.783-.005-1.783-2.23-.004-2.23zm744.394-11.755c3.23 0 3.23 4.032 0 4.032s-3.233-4.036-.004-4.036zm-908.725-.166c3.231 0 3.231 4.031 0 4.031s-3.235-4.039-.008-4.039zm857.6 1.7c-1.125-1.064-2.881-4.014-.621-4.913l-.191.075.334-.133c.311-.122.624-.245-.143.058 2.471-.974 5.723-1.34 7.334.9 1.226 1.7 2.2 3.361-.495 4.442a8.693 8.693 0 0 1-3.145.651 4.357 4.357 0 0 1-3.074-1.088zm-812.7.267c-2.7-1.08-1.721-2.74-.5-4.441 1.611-2.245 4.863-1.879 7.334-.9-.768-.3-.455-.18-.143-.057l.334.132-.191-.074c2.259.9.5 3.848-.621 4.913a4.356 4.356 0 0 1-3.071 1.085 8.684 8.684 0 0 1-3.141-.666zm728.07-6.276c3.5 0 3.5 4.363 0 4.363s-3.502-4.371 0-4.371zm-637.224-.166c3.5 0 3.5 4.364 0 4.364s-3.497-4.372 0-4.372zm545.215-27.032a9.623 9.623 0 0 1-4.293-4.292 3.707 3.707 0 0 0 1.223-.032c-.38-.106-.764-.233-1.136-.353a5.481 5.481 0 0 1-1.41-.552c-.181-.07-.355-.138-.513-.208a8.628 8.628 0 0 1-1.656-.861c.184.66 1.035 1.178 1.726 1.5a5.368 5.368 0 0 0 1.067.379c-1.2 2.991-6.457 4.582-9.973 3.973a10.576 10.576 0 0 1-5.383-2.336 5.085 5.085 0 0 1-1.007-1.225 4.553 4.553 0 0 1-.973-1.338 4.508 4.508 0 0 1-.453-1.965 3.78 3.78 0 0 0-.306 1.873 8.166 8.166 0 0 1-4.324 1.876 10.5 10.5 0 0 1-4.73-.42c-2.367-.812-4.067-2.02-4.423-3.76a5.553 5.553 0 0 1-.922-1.824 2.49 2.49 0 0 0-.377 1.6c-.622.219-.972.7-1.629.971a7.452 7.452 0 0 1-2.625.583 11.783 11.783 0 0 1-6.456-1.436c-2.024-1.348-3.587-4.157-1.168-5.828 1.6-1.107 3.509-1.225 5.519-1.225a2.574 2.574 0 0 0 .722 1.036 7.172 7.172 0 0 1 1.2-5.181 1.122 1.122 0 0 1 .449-.406 11.486 11.486 0 0 1 5.935-3.213 13.445 13.445 0 0 1 1.613-.6 9.812 9.812 0 0 1 5.634.132c.23.071.5.163.772.263 0-1.765.356-3.27 2.282-4.353a15.171 15.171 0 0 1 5.756-2.022 12.068 12.068 0 0 1 6.259 1.031 8.85 8.85 0 0 1 4.072 2.409l.018.006a9.459 9.459 0 0 0-1.086-1.48.618.618 0 0 0 .242-.29c.746-2.043 1.455-3.515 4.22-4.236a16.227 16.227 0 0 1 6.87-.273c4.583.828 8.273 3.429 9.488 7.108-.793.736-1.3 1.592-.84 2.515v.007a5.674 5.674 0 0 1 2.466-2.8 12.6 12.6 0 0 1 3.22-1.646 22.392 22.392 0 0 1 6.379-.852 14.021 14.021 0 0 1 6.936 1.488 10.526 10.526 0 0 1 4.688 4.669.477.477 0 0 0 .4-.093c1.942-1.81 5.735-2.338 8.468-1.935a9.656 9.656 0 0 1 4.857 1.722 25.621 25.621 0 0 1 2.865 2.417c2.237 2.247.962 6.307-1.268 8.191a7.624 7.624 0 0 1-4 2.01 27.083 27.083 0 0 0-2.933.39 5.145 5.145 0 0 0-.627-1.7 5.661 5.661 0 0 1-1.363 4.758 4.96 4.96 0 0 1-1.425 1.143c-1.968 1.624-4.841 2.281-7.648 2.4a15.651 15.651 0 0 1-8.923-1.979 9.4 9.4 0 0 1-1.505-1.164 3.872 3.872 0 0 1-1.3 2.39 11.628 11.628 0 0 1-3.178 2.057 28.69 28.69 0 0 1-6.665 2 19.677 19.677 0 0 1-2.87.215 13.741 13.741 0 0 1-5.958-1.242zm-462.037.841a28.759 28.759 0 0 1-6.664-2 11.651 11.651 0 0 1-3.178-2.057 3.875 3.875 0 0 1-1.3-2.391 9.387 9.387 0 0 1-1.5 1.165 15.649 15.649 0 0 1-8.924 1.978c-2.806-.116-5.679-.774-7.648-2.4a4.942 4.942 0 0 1-1.426-1.142 5.665 5.665 0 0 1-1.363-4.758 5.174 5.174 0 0 0-.627 1.7 27.224 27.224 0 0 0-2.934-.39 7.611 7.611 0 0 1-4-2.011c-2.23-1.884-3.5-5.944-1.267-8.19a25.648 25.648 0 0 1 2.864-2.417 9.645 9.645 0 0 1 4.857-1.721c2.734-.4 6.526.125 8.468 1.935a.48.48 0 0 0 .4.092 10.515 10.515 0 0 1 4.688-4.669 14 14 0 0 1 6.936-1.488 22.306 22.306 0 0 1 6.377.852 12.583 12.583 0 0 1 3.22 1.645 5.674 5.674 0 0 1 2.467 2.8v-.008c.456-.923-.047-1.778-.842-2.515 1.216-3.677 4.906-6.28 9.488-7.107a16.218 16.218 0 0 1 6.871.273c2.764.72 3.473 2.192 4.219 4.236a.625.625 0 0 0 .242.289 9.361 9.361 0 0 0-1.085 1.481l.019-.006a8.844 8.844 0 0 1 4.071-2.409 12.06 12.06 0 0 1 6.259-1.032 15.152 15.152 0 0 1 5.756 2.022c1.927 1.083 2.282 2.588 2.282 4.354.272-.1.543-.193.772-.263a9.807 9.807 0 0 1 5.635-.133 13.416 13.416 0 0 1 1.613.6 11.488 11.488 0 0 1 5.935 3.213 1.127 1.127 0 0 1 .448.406 7.162 7.162 0 0 1 1.2 5.18 2.546 2.546 0 0 0 .722-1.036c2.011 0 3.919.119 5.519 1.226 2.419 1.671.857 4.48-1.167 5.828a11.792 11.792 0 0 1-6.458 1.435 7.411 7.411 0 0 1-2.625-.583c-.656-.273-1.006-.751-1.628-.971a2.5 2.5 0 0 0-.376-1.594 5.6 5.6 0 0 1-.923 1.824c-.355 1.741-2.055 2.947-4.422 3.76a10.488 10.488 0 0 1-4.73.419 8.16 8.16 0 0 1-4.325-1.876 3.767 3.767 0 0 0-.306-1.873 4.5 4.5 0 0 1-.453 1.966 4.565 4.565 0 0 1-.973 1.337 5.094 5.094 0 0 1-1.006 1.226 10.586 10.586 0 0 1-5.384 2.336c-3.516.609-8.771-.982-9.972-3.973a5.5 5.5 0 0 0 1.067-.378c.691-.323 1.542-.84 1.727-1.5a8.538 8.538 0 0 1-1.655.861c-.158.071-.332.138-.514.209a5.488 5.488 0 0 1-1.411.552c-.371.119-.756.247-1.136.352a3.689 3.689 0 0 0 1.223.033 9.622 9.622 0 0 1-4.293 4.293 13.746 13.746 0 0 1-5.959 1.223 19.654 19.654 0 0 1-2.871-.218zm370.243-50.347a9.626 9.626 0 0 1-4.285-4.29 3.852 3.852 0 0 0 1.22-.03c-.382-.108-.773-.239-1.133-.357a5.542 5.542 0 0 1-1.415-.55 9.61 9.61 0 0 1-.506-.208 8.345 8.345 0 0 1-1.655-.861c.179.663 1.028 1.178 1.716 1.5a5.484 5.484 0 0 0 1.069.382c-1.2 2.988-6.454 4.579-9.972 3.973a10.686 10.686 0 0 1-5.386-2.336 5.384 5.384 0 0 1-1-1.226 4.516 4.516 0 0 1-.972-1.343 4.533 4.533 0 0 1-.461-1.959 3.746 3.746 0 0 0-.292 1.87 8.246 8.246 0 0 1-4.325 1.879 10.587 10.587 0 0 1-4.736-.42c-2.359-.82-4.067-2.022-4.427-3.76a5.714 5.714 0 0 1-.917-1.827 2.48 2.48 0 0 0-.372 1.595c-.627.216-.981.7-1.634.972a7.336 7.336 0 0 1-2.625.58 11.794 11.794 0 0 1-6.456-1.43c-2.02-1.353-3.588-4.159-1.171-5.83 1.607-1.11 3.508-1.227 5.522-1.227a2.582 2.582 0 0 0 .719 1.037 7.172 7.172 0 0 1 1.207-5.18 1.094 1.094 0 0 1 .454-.406 11.515 11.515 0 0 1 5.926-3.216 14.868 14.868 0 0 1 1.613-.6 9.751 9.751 0 0 1 5.632.135c.23.065.506.157.778.257 0-1.765.355-3.267 2.285-4.353a15.163 15.163 0 0 1 5.753-2.02 12.085 12.085 0 0 1 6.264 1.032 8.885 8.885 0 0 1 4.069 2.412h.012a8.805 8.805 0 0 0-1.085-1.481.666.666 0 0 0 .248-.29c.733-2.038 1.447-3.515 4.222-4.236a16.262 16.262 0 0 1 6.868-.273c4.575.828 8.275 3.427 9.477 7.11-.781.737-1.286 1.593-.838 2.513v.01a5.7 5.7 0 0 1 2.471-2.809 12.37 12.37 0 0 1 3.221-1.641 22.242 22.242 0 0 1 6.372-.855 14.068 14.068 0 0 1 6.942 1.488 10.565 10.565 0 0 1 4.688 4.672.5.5 0 0 0 .4-.093c1.937-1.813 5.732-2.34 8.468-1.938a9.709 9.709 0 0 1 4.857 1.719 27.519 27.519 0 0 1 2.864 2.42c2.233 2.25.957 6.31-1.267 8.189a7.62 7.62 0 0 1-4 2.013 26.851 26.851 0 0 0-2.933.393 5.209 5.209 0 0 0-.63-1.705 5.65 5.65 0 0 1-1.36 4.764 5.015 5.015 0 0 1-1.423 1.139c-1.974 1.624-4.85 2.276-7.651 2.4a15.773 15.773 0 0 1-8.932-1.977 9.537 9.537 0 0 1-1.492-1.167 3.9 3.9 0 0 1-1.307 2.39 11.709 11.709 0 0 1-3.179 2.057 28.491 28.491 0 0 1-6.67 1.995 19.572 19.572 0 0 1-2.88.218 13.692 13.692 0 0 1-5.95-1.228zm-278.451.841a28.529 28.529 0 0 1-6.671-1.994 11.728 11.728 0 0 1-3.178-2.057 3.9 3.9 0 0 1-1.307-2.39 9.533 9.533 0 0 1-1.491 1.167 15.778 15.778 0 0 1-8.931 1.977c-2.8-.12-5.677-.772-7.651-2.4a5.023 5.023 0 0 1-1.423-1.139 5.654 5.654 0 0 1-1.36-4.763 5.255 5.255 0 0 0-.63 1.705 26.854 26.854 0 0 0-2.932-.393 7.617 7.617 0 0 1-4-2.014c-2.224-1.878-3.5-5.937-1.267-8.188a27.653 27.653 0 0 1 2.865-2.419 9.7 9.7 0 0 1 4.857-1.719c2.736-.4 6.531.125 8.468 1.938a.5.5 0 0 0 .4.092 10.564 10.564 0 0 1 4.688-4.672 14.068 14.068 0 0 1 6.942-1.488 22.152 22.152 0 0 1 6.372.855 12.374 12.374 0 0 1 3.221 1.64 5.712 5.712 0 0 1 2.472 2.809v-.01c.448-.921-.058-1.775-.839-2.512 1.2-3.684 4.9-6.283 9.477-7.11a16.248 16.248 0 0 1 6.868.273c2.776.72 3.49 2.2 4.222 4.236a.672.672 0 0 0 .248.289 8.8 8.8 0 0 0-1.085 1.481h.013a8.881 8.881 0 0 1 4.069-2.412 12.076 12.076 0 0 1 6.264-1.032 15.157 15.157 0 0 1 5.753 2.02c1.929 1.085 2.285 2.587 2.285 4.353.271-.1.548-.193.777-.258a9.756 9.756 0 0 1 5.632-.135 14.661 14.661 0 0 1 1.613.6 11.516 11.516 0 0 1 5.927 3.215 1.108 1.108 0 0 1 .453.406 7.174 7.174 0 0 1 1.208 5.181 2.6 2.6 0 0 0 .719-1.037c2.013 0 3.913.116 5.521 1.226 2.417 1.67.848 4.477-1.17 5.83a11.8 11.8 0 0 1-6.457 1.429 7.326 7.326 0 0 1-2.625-.578c-.653-.271-1.006-.756-1.634-.972a2.486 2.486 0 0 0-.372-1.594 5.734 5.734 0 0 1-.917 1.827c-.361 1.737-2.069 2.939-4.427 3.76a10.587 10.587 0 0 1-4.736.419 8.242 8.242 0 0 1-4.325-1.878 3.73 3.73 0 0 0-.292-1.87 4.538 4.538 0 0 1-.461 1.959 4.509 4.509 0 0 1-.973 1.343 5.393 5.393 0 0 1-1 1.226 10.688 10.688 0 0 1-5.387 2.335c-3.519.607-8.771-.985-9.972-3.973a5.514 5.514 0 0 0 1.071-.382c.687-.321 1.536-.836 1.716-1.5a8.283 8.283 0 0 1-1.656.861c-.152.071-.332.141-.506.209a5.559 5.559 0 0 1-1.416.549c-.361.119-.751.25-1.133.358a3.861 3.861 0 0 0 1.22.029 9.626 9.626 0 0 1-4.284 4.29 13.694 13.694 0 0 1-5.952 1.225 19.6 19.6 0 0 1-2.881-.231z" transform="translate(2015 2696)" style="fill:url(#a)"/>
</svg>
