<svg xmlns="http://www.w3.org/2000/svg" width="28" height="28" viewBox="0 0 28 28">
    <g data-name="Group 6096">
        <path data-name="Path 20687" d="M14 0A14 14 0 1 1 0 14 14 14 0 0 1 14 0z" style="fill:#1e1d20;opacity:.2"/>
        <g data-name="Group 6130">
            <path data-name="Path 20599" d="M47.016 133.212a.426.426 0 0 0-.432.017l-3.137 2.033v-.449a1.814 1.814 0 0 0-1.81-1.813h-5.813A1.828 1.828 0 0 0 34 134.814v4.313a1.828 1.828 0 0 0 1.824 1.814h5.813a1.814 1.814 0 0 0 1.81-1.814v-.449l3.133 2.033a.43.43 0 0 0 .658-.352v-6.782a.411.411 0 0 0-.222-.365z" transform="translate(-27 -123)" style="fill:#fff"/>
        </g>
    </g>
</svg>
