<svg xmlns="http://www.w3.org/2000/svg" width="21.235" height="12.737">
    <g data-name="Group 282">
        <path data-name="Path 20599" d="M54.877 133.341a.684.684 0 0 0-.692.028l-5.031 3.261v-.72A2.91 2.91 0 0 0 46.25 133h-9.324A2.933 2.933 0 0 0 34 135.909v6.918a2.933 2.933 0 0 0 2.926 2.909h9.324a2.91 2.91 0 0 0 2.9-2.909v-.72l5.026 3.261a.69.69 0 0 0 1.055-.564v-10.877a.658.658 0 0 0-.354-.586zm-7.064 9.493a1.561 1.561 0 0 1-1.563 1.566H36.9a1.561 1.561 0 0 1-1.564-1.564V135.9a1.561 1.561 0 0 1 1.564-1.56h9.35a1.561 1.561 0 0 1 1.564 1.564zm6.087.743-4.746-3.066v-2.283l4.746-3.066z" style="fill:#fff" transform="translate(-34 -133)"/>
    </g>
</svg>
