<svg xmlns="http://www.w3.org/2000/svg" width="40" height="34">
    <g data-name="Group 6091">
        <path data-name="Path 20679" d="M10 6h30v24a10 10 0 0 1-10 10H0V16A10 10 0 0 1 10 6z" transform="translate(0 -6)" style="fill:#142668"/>
        <path data-name="Path 20680" d="M16.968 29.894a.928.928 0 0 1 .928-.928h12.177L26.3 25.45a.928.928 0 1 1 1.267-1.355l5.5 5.12a.928.928 0 0 1 0 1.357l-5.5 5.122a.928.928 0 0 1-1.267-1.357l3.772-3.514H17.9a.928.928 0 0 1-.932-.929z" transform="translate(-4.969 -12.822)" style="fill:#fff"/>
    </g>
</svg>
