<svg xmlns="http://www.w3.org/2000/svg" width="33.683" height="32.755">
    <path data-name="Path 20694" d="M-4662.086-664.8a.664.664 0 0 1-.029-.083 2.55 2.55 0 0 0-1.338-.235 19.667 19.667 0 0 0-4.995.9 22.018 22.018 0 0 1-5.753.979c-2.878 0-3.588-1.193-3.737-1.558a.746.746 0 0 1 .4-.967l.456-.2a.745.745 0 0 1 .293-.06.748.748 0 0 1 .632.347c.054.053.5.44 1.995.44a20.027 20.027 0 0 0 5.179-.9 21.442 21.442 0 0 1 5.527-.969 4.35 4.35 0 0 1 2.511.6 1.884 1.884 0 0 1 .687.859 3.261 3.261 0 0 0 1.951.4 20.007 20.007 0 0 0 5.179-.9 21.4 21.4 0 0 1 5.529-.969 4.349 4.349 0 0 1 2.511.6 1.745 1.745 0 0 1 .778 1.241.745.745 0 0 1-.179.552.738.738 0 0 1-.518.257l-.5.031h-.036a.749.749 0 0 1-.695-.457.058.058 0 0 0-.015-.011 2.551 2.551 0 0 0-1.341-.236 19.663 19.663 0 0 0-4.995.9 22.037 22.037 0 0 1-5.754.979c-2.877.014-3.592-1.177-3.743-1.54zm-4.674-5.412a.755.755 0 0 1-.327-.747l.1-.559c.187-1.084 1.162-6.55 2.01-7.847l8.624-15.041a3.549 3.549 0 0 1 2.97-1.592 3.556 3.556 0 0 1 1.964.591 3.545 3.545 0 0 1 1.525 2.261 3.545 3.545 0 0 1-.517 2.671l-8.622 15.042c-.792 1.2-4.763 3.837-6.435 4.917l-.476.306a.76.76 0 0 1-.4.12.753.753 0 0 1-.416-.125zm2.163-3.271c1.359-.932 2.48-1.76 3.178-2.345l-2.263-1.5c-.332 1.081-.68 2.681-.918 3.842zm9.9-19.83-8.08 14.2 2.626 1.74 8.08-14.2a1.573 1.573 0 0 0 .227-1.183 1.557 1.557 0 0 0-.674-1 1.559 1.559 0 0 0-.868-.263 1.573 1.573 0 0 0-1.314.704z" transform="translate(4678 696)" style="fill:#1e1d20"/>
</svg>
