<svg id="Component_10_5" data-name="Component 10 – 5" xmlns="http://www.w3.org/2000/svg" width="32" height="35" viewBox="0 0 32 35">
    <defs>
        <filter id="Path_20744" x="0" y="0" width="32" height="35" filterUnits="userSpaceOnUse">
            <feOffset dy="3"/>
            <feGaussianBlur result="blur"/>
            <feFlood flood-color="#d50f0f"/>
            <feComposite operator="in" in2="blur"/>
            <feComposite in="SourceGraphic"/>
        </filter>
        <filter id="Union_6" x="16.5" y="3.652" width="13.302" height="11.848" filterUnits="userSpaceOnUse">
            <feOffset dx="-1" dy="2"/>
            <feGaussianBlur result="blur-2"/>
            <feFlood flood-opacity=".051"/>
            <feComposite operator="in" in2="blur-2"/>
            <feComposite in="SourceGraphic"/>
        </filter>
        <linearGradient id="linear-gradient" x1=".855" y1=".164" x2="-.023" y2="1" gradientUnits="objectBoundingBox">
            <stop offset="0" stop-color="#f10000"/>
            <stop offset="1" stop-color="#ff8484"/>
        </linearGradient>
        <style>
            .cls-2{fill:#fff;opacity:.3}
        </style>
    </defs>
    <g style="filter:url(#Path_20744)">
        <path id="Path_20744-2" data-name="Path 20744" d="M16 0a16 16 0 0 1 0 32 16 16 0 0 1 0-32z" style="fill:url(#linear-gradient)"/>
    </g>
    <path id="Path_20692" data-name="Path 20692" class="cls-2" d="M11.857 20.167a.4.4 0 0 1-.4-.36 4.453 4.453 0 0 0-4.097-4.092.4.4 0 0 1-.36-.4V14.5a.4.4 0 0 1 .445-.4 6.072 6.072 0 0 1 5.626 5.626.4.4 0 0 1-.4.445zm-3.291 0a.4.4 0 0 0 .4-.514 2.024 2.024 0 0 0-1.436-1.441.4.4 0 0 0-.514.4v1.55z" transform="rotate(-45 18.593 12.216)"/>
    <g style="filter:url(#Union_6)">
        <path id="Union_6-2" data-name="Union 6" d="M9.847 8.341a8.563 8.563 0 0 0-3.4-4.7 9.022 9.022 0 0 0-2.428-1.226.682.682 0 0 1-.5-.855.75.75 0 0 1 .922-.46A10.356 10.356 0 0 1 7.28 2.506a10.079 10.079 0 0 1 3.992 5.472.686.686 0 0 1-.518.846.81.81 0 0 1-.195.024.733.733 0 0 1-.712-.507zM0 1.033A1.072 1.072 0 0 1 1.108 0a1.072 1.072 0 0 1 1.107 1.033 1.072 1.072 0 0 1-1.107 1.033A1.072 1.072 0 0 1 0 1.033z" transform="translate(18 4.15)" style="stroke:#fff;stroke-linecap:round;opacity:.7;fill:#fff"/>
    </g>
    <path id="Path_21410" data-name="Path 21410" class="cls-2" d="M7 10.453a.4.4 0 0 1 .4-.4 10.119 10.119 0 0 1 9.715 9.715.4.4 0 0 1-.4.4h-.81a.4.4 0 0 1-.4-.4 8.5 8.5 0 0 0-8.1-8.1.4.4 0 0 1-.4-.4zM7 6.4a.4.4 0 0 1 .4-.4 14.167 14.167 0 0 1 13.767 13.762.4.4 0 0 1-.4.4h-.81a.4.4 0 0 1-.4-.4A12.548 12.548 0 0 0 7.4 7.619a.4.4 0 0 1-.4-.4z" transform="rotate(-45 18.593 12.216)"/>
</svg>
