<?xml version="1.0" encoding="utf-8"?>
<!-- Generator: Adobe Illustrator 24.1.1, SVG Export Plug-In . SVG Version: 6.00 Build 0)  -->
<svg version="1.1" id="Layer_1" xmlns="http://www.w3.org/2000/svg" xmlns:xlink="http://www.w3.org/1999/xlink" x="0px" y="0px"
	 viewBox="0 0 1380 1080" style="enable-background:new 0 0 1380 1080;" xml:space="preserve">
<style type="text/css">
	.st0{clip-path:url(#SVGID_2_);}
	.st1{fill:#22B5AF;}
	.st2{fill:#FFFFFF;}
	.st3{fill:url(#SVGID_3_);}
	.st4{fill:url(#SVGID_4_);}
	.st5{opacity:0.9;fill:url(#SVGID_5_);}
	.st6{opacity:0.7;fill:#FCFADB;}
	.st7{opacity:0.7;fill:#A7A9AC;}
	.st8{fill:#934307;}
	.st9{fill:#AF560C;}
	.st10{fill:#00192A;}
	.st11{fill:#CFFE01;}
	.st12{font-family:'MyriadPro-Regular';}
	.st13{font-size:22.743px;}
</style>
<g>
	<defs>
		<rect id="SVGID_1_" width="1380" height="1080"/>
	</defs>
	<clipPath id="SVGID_2_">
		<use xlink:href="#SVGID_1_"  style="overflow:visible;"/>
	</clipPath>
	<g class="st0">
		<rect x="-481.58" y="-209.91" class="st1" width="2293.43" height="1598.24"/>
		<path class="st2" d="M1450.96-61.52c-8.27,6.82-20.22,8.66-30.57,8.43c-4.61-0.14-8.41-1.41-12.44-3.42
			c-3.09-1.58-4.76-4.44-7.72-5.71c0.29-3.07-0.25-6.21-1.77-9.38c-0.86,3.78-2.35,7.38-4.35,10.74
			c-1.69,10.23-9.78,17.33-20.95,22.14c-7.31,3.22-14.64,3.46-22.43,2.45c-9.6-1.18-13.92-5.59-20.49-11.04
			c0.29-3.56-0.11-7.22-1.41-11.02c0.06,4.14-0.95,8.4-2.17,11.56c-1.1,2.95-2.66,5.51-4.61,7.88c-1.14,2.45-2.69,4.86-4.75,7.22
			c-6.41,7.46-16.14,11.74-25.52,13.76c-16.66,3.56-41.55-5.81-47.24-23.4c1.81-0.55,3.58-1.33,5.07-2.23
			c3.25-1.89,7.28-4.96,8.15-8.85c-2.37,1.97-4.99,3.68-7.85,5.07c-0.75,0.41-1.57,0.83-2.43,1.25c-1.92,1.34-4.26,2.53-6.68,3.23
			c-1.72,0.7-3.57,1.46-5.38,2.09c1.86,0.45,3.81,0.5,5.79,0.18c-5.11,10.46-9.7,18.83-20.3,25.27
			c-12.37,7.49-27.88,8.53-41.85,5.93c-10.68-2-21.98-6.68-31.59-11.77c-5.74-3.01-10.68-7.29-15.05-12.11
			c-3.95-4.49-5.54-9.03-6.19-14.07c-2.06,2.48-4.44,4.77-7.1,6.86c-11.67,9.32-27.67,12.44-42.29,11.65
			c-13.27-0.69-26.9-4.54-36.23-14.11c-2.6-1.78-4.87-3.99-6.75-6.72c-5.53-8.13-8.05-18.39-6.43-28.02
			c-1.48,3.22-2.53,6.57-2.97,10.02c-4.58-1.36-9.21-1.55-13.9-2.3c-7.83-1.19-13.61-6.34-18.94-11.86
			c-10.54-11.07-16.58-34.97-6-48.22c4.07-5.11,8.82-9.71,13.58-14.22c6.82-6.43,13.96-8.55,23.01-10.12
			c12.96-2.39,30.91,0.71,40.11,11.38c0.46,0.56,1.17,0.66,1.9,0.56c4.46-11.38,12.35-21.28,22.21-27.51
			c9.3-6.86,21.56-8.69,32.87-8.76c10.09-0.07,20.81,1.53,30.2,5.03c4.18,1.6,10.14,5.18,15.25,9.67
			c5.42,3.67,9.48,9.87,11.69,16.52l0.02-0.06c2.14-5.42-0.26-10.46-3.98-14.78c5.73-21.68,23.22-37,44.91-41.85
			c10.79-2.41,22.15-1.76,32.54,1.6c13.11,4.24,16.49,12.93,19.99,24.96c0.26,0.77,0.7,1.32,1.16,1.68
			c-1.95,2.66-3.63,5.63-5.13,8.72c0.02-0.01,0.08-0.01,0.08-0.01c4.67-6.44,11.69-11.47,19.28-14.19
			c8.59-4.94,18.46-7.34,29.65-6.06c9.74,1.12,19.3,6.37,27.25,11.9c9.14,6.37,10.83,15.23,10.83,25.6
			c1.28-0.59,2.59-1.12,3.68-1.53c8.38-3.51,18.05-3.75,26.67-0.77c2.72,0.98,5.23,2.21,7.64,3.51
			c11.4,3.32,21.84,10.06,28.09,18.91c0.76,0.43,1.52,1.2,2.14,2.38c4.89,9.59,7.36,20.42,5.73,30.5c1.57-1.72,2.68-3.77,3.42-6.09
			c9.52,0,18.54,0.69,26.14,7.22C1467.97-86.01,1460.56-69.47,1450.96-61.52z"/>
		<path class="st2" d="M1016.16,229.94c-8.27,6.8-20.21,8.66-30.57,8.43c-4.61-0.15-8.4-1.41-12.44-3.42
			c-3.09-1.6-4.76-4.44-7.71-5.71c0.28-3.07-0.25-6.23-1.78-9.39c-0.85,3.79-2.35,7.38-4.35,10.74
			c-1.69,10.25-9.78,17.34-20.95,22.15c-7.31,3.23-14.64,3.47-22.42,2.46c-9.6-1.18-13.93-5.6-20.49-11.04
			c0.29-3.56-0.11-7.22-1.41-11.03c0.07,4.14-0.95,8.4-2.17,11.58c-1.09,2.94-2.66,5.5-4.61,7.87c-1.15,2.45-2.69,4.87-4.75,7.22
			c-6.41,7.48-16.14,11.74-25.52,13.76c-16.66,3.57-41.55-5.8-47.24-23.39c1.81-0.56,3.58-1.34,5.07-2.24
			c3.25-1.89,7.28-4.94,8.16-8.83c-2.37,1.96-5,3.68-7.85,5.07c-0.74,0.41-1.57,0.81-2.42,1.23c-1.93,1.36-4.26,2.53-6.69,3.23
			c-1.72,0.71-3.57,1.47-5.38,2.1c1.86,0.45,3.81,0.5,5.8,0.18c-5.11,10.46-9.7,18.83-20.31,25.27
			c-12.37,7.48-27.87,8.51-41.84,5.93c-10.68-2-21.99-6.69-31.59-11.77c-5.74-3.02-10.68-7.29-15.05-12.11
			c-3.95-4.49-5.54-9.03-6.19-14.07c-2.07,2.48-4.44,4.77-7.11,6.86c-11.67,9.31-27.66,12.44-42.29,11.65
			c-13.27-0.69-26.89-4.55-36.23-14.12c-2.6-1.76-4.87-3.98-6.75-6.72c-5.53-8.13-8.05-18.38-6.44-28.02
			c-1.47,3.23-2.53,6.58-2.97,10.02c-4.59-1.36-9.21-1.55-13.9-2.28c-7.84-1.19-13.62-6.35-18.94-11.86
			c-10.54-11.09-16.59-34.98-6.01-48.22c4.06-5.11,8.82-9.73,13.58-14.24c6.82-6.43,13.96-8.54,23-10.12
			c12.96-2.38,30.92,0.73,40.12,11.39c0.46,0.56,1.16,0.66,1.89,0.56c4.47-11.39,12.36-21.28,22.21-27.51
			c9.29-6.87,21.56-8.69,32.87-8.76c10.09-0.08,20.8,1.51,30.19,5.01c4.19,1.6,10.15,5.19,15.26,9.69
			c5.42,3.67,9.48,9.87,11.69,16.52l0.01-0.06c2.14-5.43-0.25-10.47-3.97-14.78c5.72-21.68,23.22-37,44.92-41.87
			c10.79-2.41,22.15-1.76,32.53,1.6c13.12,4.24,16.49,12.93,19.99,24.96c0.27,0.77,0.7,1.33,1.16,1.68
			c-1.95,2.67-3.63,5.63-5.14,8.72c0.03-0.01,0.08-0.01,0.08-0.01c4.66-6.44,11.69-11.45,19.27-14.18
			c8.6-4.96,18.46-7.34,29.66-6.08c9.74,1.12,19.3,6.38,27.24,11.9c9.14,6.37,10.83,15.24,10.83,25.62
			c1.27-0.59,2.59-1.12,3.68-1.54c8.37-3.5,18.04-3.75,26.67-0.77c2.73,0.98,5.24,2.21,7.64,3.51
			c11.41,3.32,21.85,10.06,28.09,18.93c0.76,0.43,1.51,1.2,2.13,2.38c4.9,9.57,7.36,20.42,5.72,30.5c1.57-1.72,2.69-3.78,3.42-6.09
			c9.52,0,18.55,0.69,26.15,7.22C1033.17,205.46,1025.77,221.98,1016.16,229.94z"/>
		<g>
			<radialGradient id="SVGID_3_" cx="1708.7511" cy="-30.9684" r="282.8299" gradientUnits="userSpaceOnUse">
				<stop  offset="0.3527" style="stop-color:#F89F4E"/>
				<stop  offset="0.5829" style="stop-color:#F8A14D"/>
				<stop  offset="0.6658" style="stop-color:#F7A84B"/>
				<stop  offset="0.7247" style="stop-color:#F6B348"/>
				<stop  offset="0.7672" style="stop-color:#F5C243"/>
				<stop  offset="0.8177" style="stop-color:#F5BF42"/>
				<stop  offset="0.854" style="stop-color:#F4B641"/>
				<stop  offset="0.886" style="stop-color:#F3A63E"/>
				<stop  offset="0.9154" style="stop-color:#F2903A"/>
				<stop  offset="0.9431" style="stop-color:#F17335"/>
				<stop  offset="0.9695" style="stop-color:#EF4F2E"/>
				<stop  offset="0.9944" style="stop-color:#ED2627"/>
				<stop  offset="1" style="stop-color:#EC1C25"/>
			</radialGradient>
			<path class="st3" d="M1987.68,7.93c0,0-37.57-13.33-41.04-35.65v-4.86c0.53-22.38,41.04-34.6,41.04-34.6s-44.77-0.04-50.55-21.37
				c-5.78-21.33,31.37-37.07,31.37-37.07s-43.18,2.95-51.71-18.9c-8.53-21.84,20.34-45.84,20.34-45.84s-31.53,14.39-54.45,2.26
				c-22.92-12.13,11.73-51.82,11.73-51.82s-32.52,23.44-52.24,19.18c-19.72-4.26,0-50.64,0-50.64s-21.33,27.18-46.38,27.18
				s-19.19-48.51-19.19-48.51s-11.73,24.54-34.64,32.51c-19.31,6.75-28.19-25.13-30.52-35.32c-2.31,10.19-11.19,42.08-30.52,35.32
				c-22.92-7.97-34.65-32.51-34.65-32.51s5.87,48.51-19.18,48.51c-25.06,0-46.38-27.18-46.38-27.18s19.72,46.38,0,50.64
				c-19.72,4.26-52.24-19.18-52.24-19.18s34.65,39.69,11.73,51.82c-22.92,12.13-54.45-2.26-54.45-2.26s28.87,24,20.34,45.84
				c-8.53,21.84-51.71,18.9-51.71,18.9s37.16,15.74,31.37,37.07c-5.78,21.33-50.56,21.37-50.56,21.37s40.51,12.21,41.05,34.6v4.86
				c-3.46,22.32-41.05,35.65-41.05,35.65s44.78,0.06,50.56,21.37c5.8,21.33-31.37,37.07-31.37,37.07s43.18-2.95,51.71,18.9
				c8.53,21.87-20.34,45.84-20.34,45.84s31.54-14.39,54.45-2.26c22.92,12.13-11.73,51.84-11.73,51.84s32.52-23.46,52.24-19.21
				c19.72,4.28,0,50.64,0,50.64s21.32-27.18,46.38-27.18c25.06,0,19.18,48.51,19.18,48.51s11.73-24.52,34.65-32.51
				c19.32-6.75,28.21,25.13,30.52,35.32c2.32-10.19,11.21-42.08,30.52-35.32c22.91,7.99,34.64,32.51,34.64,32.51
				s-5.86-48.51,19.19-48.51s46.38,27.18,46.38,27.18s-19.72-46.35,0-50.64c19.72-4.26,52.24,19.21,52.24,19.21
				s-34.65-39.71-11.73-51.84c22.92-12.13,54.45,2.26,54.45,2.26s-28.86-23.98-20.34-45.84c8.52-21.84,51.71-18.9,51.71-18.9
				s-37.15-15.74-31.37-37.07C1942.92,7.99,1987.68,7.93,1987.68,7.93z"/>
			<g>
				<radialGradient id="SVGID_4_" cx="1606.8424" cy="-143.7475" r="358.0179" gradientUnits="userSpaceOnUse">
					<stop  offset="0" style="stop-color:#EEEA6B"/>
					<stop  offset="0.0253" style="stop-color:#EFE168"/>
					<stop  offset="0.1435" style="stop-color:#F1BA5B"/>
					<stop  offset="0.2521" style="stop-color:#F39D52"/>
					<stop  offset="0.3467" style="stop-color:#F58C4D"/>
					<stop  offset="0.4167" style="stop-color:#F5864B"/>
					<stop  offset="0.4613" style="stop-color:#F47C47"/>
					<stop  offset="0.7096" style="stop-color:#F04835"/>
					<stop  offset="0.8968" style="stop-color:#ED2829"/>
					<stop  offset="1" style="stop-color:#EC1C25"/>
				</radialGradient>
				<path class="st4" d="M1925.26-31.16c0,118.08-95.75,213.81-213.82,213.81c-118.09,0-213.82-95.73-213.82-213.81
					c0-118.09,95.73-213.83,213.82-213.83C1829.52-244.99,1925.26-149.25,1925.26-31.16z"/>
				<radialGradient id="SVGID_5_" cx="1643.1006" cy="-89.3607" r="341.9487" gradientUnits="userSpaceOnUse">
					<stop  offset="0.2949" style="stop-color:#FBE652"/>
					<stop  offset="1" style="stop-color:#F15D4C"/>
				</radialGradient>
				<path class="st5" d="M1711.44-244.99c-118.09,0-213.82,95.75-213.82,213.83c0,118.08,95.73,213.81,213.82,213.81
					c118.07,0,213.82-95.73,213.82-213.81C1925.26-149.25,1829.52-244.99,1711.44-244.99z M1695.47,124.81
					c-97.73,0-176.95-79.24-176.95-176.96c0-97.72,79.22-176.93,176.95-176.93c97.73,0,176.94,79.21,176.94,176.93
					C1872.41,45.58,1793.21,124.81,1695.47,124.81z"/>
				<path class="st6" d="M1542.77,83.18c-30.88-44.38-33.86-86.91-35.82-117.57c-0.01-0.08-0.02-0.2-0.04-0.28
					c-1.18-9.76-1.64-19.54-1.38-29.24c-5.56,31.95-5.82,82.43,26.37,138.02c54.36,93.89,155.76,108.67,206.79,99.93
					C1738.68,174.04,1614.97,186.99,1542.77,83.18z"/>
			</g>
		</g>
		<path class="st7" d="M1330.02,78.81c0-0.15-0.09-0.28-0.12-0.43c-0.02-0.1,0.02-0.2-0.02-0.3c-0.02-0.06-0.08-0.08-0.11-0.14
			c-0.1-0.2-0.24-0.36-0.39-0.51c-0.14-0.14-0.25-0.26-0.42-0.36c-0.05-0.03-0.08-0.09-0.14-0.12c-0.14-0.06-0.3-0.03-0.43-0.06
			c-0.14-0.02-0.25-0.12-0.39-0.12H108.5c-0.14,0-0.26,0.09-0.39,0.12c-0.14,0.02-0.29-0.01-0.42,0.05
			c-0.06,0.02-0.09,0.09-0.14,0.12c-0.18,0.1-0.3,0.23-0.45,0.38c-0.13,0.14-0.26,0.26-0.34,0.44c-0.05,0.07-0.12,0.11-0.15,0.19
			c-0.05,0.13,0,0.27-0.02,0.41c-0.02,0.11-0.09,0.2-0.09,0.32v862.26c0,0.12,0.07,0.21,0.09,0.32c0.02,0.14-0.02,0.28,0.02,0.41
			c0.03,0.08,0.11,0.12,0.15,0.19c0.09,0.18,0.22,0.31,0.37,0.46c0.13,0.13,0.25,0.26,0.41,0.35c0.06,0.04,0.09,0.1,0.16,0.13
			c0.26,0.12,0.54,0.18,0.8,0.18h1219.48c0.27,0,0.56-0.06,0.82-0.18c0.06-0.03,0.09-0.09,0.15-0.13c0.15-0.09,0.26-0.2,0.38-0.32
			c0.17-0.16,0.32-0.33,0.42-0.53c0.02-0.05,0.08-0.09,0.11-0.14c0.04-0.1,0-0.2,0.02-0.3c0.03-0.15,0.12-0.27,0.12-0.43V78.81z"/>
		<g>
			<g>
				<g>
					<g>
						<path class="st8" d="M693.83,496.11l573.45-397.08c0.27-0.18,0.52-0.39,0.76-0.6l28.63-25.78c5.2-4.68,1.89-13.3-5.11-13.3
							H87.39c-7,0-10.3,8.63-5.11,13.31l28.65,25.78c0.24,0.22,0.49,0.42,0.76,0.6l573.45,397.08
							C687.76,497.92,691.22,497.92,693.83,496.11z"/>
					</g>
					<g>
						<path class="st9" d="M680.61,478.63L123.06,92.56c-0.26-0.18-0.51-0.38-0.75-0.59L92.23,64.89
							c-4.81-4.33-12.49-0.92-12.49,5.56v828.66c0,6.48,7.67,9.89,12.49,5.56l30.09-27.08c0.24-0.21,0.48-0.41,0.75-0.59
							l557.54-386.07C684.9,487.95,684.9,481.6,680.61,478.63z"/>
					</g>
					<g>
						<path class="st9" d="M1255.92,92.56L698.37,478.63c-4.3,2.98-4.3,9.33,0,12.3L1255.92,877c0.26,0.18,0.51,0.38,0.75,0.59
							l30.07,27.07c4.81,4.34,12.49,0.92,12.49-5.56V70.45c0-6.48-7.67-9.9-12.49-5.56l-30.07,27.07
							C1256.43,92.18,1256.18,92.38,1255.92,92.56z"/>
					</g>
					<g>
						<path class="st8" d="M685.14,474.45L111.7,871.53c-0.27,0.18-0.52,0.39-0.76,0.6l-28.65,25.78
							c-5.2,4.68-1.89,13.31,5.11,13.31h1204.18c6.99,0,10.3-8.62,5.11-13.3l-28.63-25.78c-0.24-0.22-0.5-0.42-0.76-0.6
							L693.83,474.45C691.22,472.64,687.76,472.64,685.14,474.45z"/>
					</g>
				</g>
				<g>
					<rect x="122.67" y="92.28" class="st2" width="1133.64" height="784.99"/>
					<path class="st10" d="M1256.31,879.32H122.67c-1.11,0-2.02-0.91-2.02-2.04V92.28c0-1.11,0.91-2.04,2.02-2.04h1133.64
						c1.11,0,2.01,0.93,2.01,2.04v784.99C1258.33,878.41,1257.43,879.32,1256.31,879.32z M124.72,875.24h1129.57V94.31H124.72
						V875.24z"/>
				</g>
				<rect x="135.16" y="110.39" class="st2" width="1108.66" height="749.61"/>
			</g>
		</g>
	</g>
</g>
<path class="st11" d="M523.68,0.39c0,0,10.28,7.58,13.76,18.52C541.49,31.64,545,36.2,548.6,36.2
	c78.72,0.07,351.28-0.54,351.28-0.54s4.16,4.08,8.66-17.36c2.44-11.6,14.79-17.91,14.79-17.91H523.68z"/>
<text transform="matrix(1 0 0 1 599.6914 24.1543)" class="st12 st13">Activity-Mapping Ability</text>
</svg>
