<?xml version="1.0" encoding="utf-8"?>
<!-- Generator: Adobe Illustrator 24.1.1, SVG Export Plug-In . SVG Version: 6.00 Build 0)  -->
<svg version="1.1" id="Layer_1" xmlns="http://www.w3.org/2000/svg" xmlns:xlink="http://www.w3.org/1999/xlink" x="0px" y="0px"
	 viewBox="0 0 123.54 138.28" style="enable-background:new 0 0 123.54 138.28;" xml:space="preserve">
<style type="text/css">
	.st0{fill:#FFDCAD;}
	.st1{fill:#FCCA92;}
</style>
<g>
	<path class="st0" d="M114.36,123.82c7-12,11.15-59.47,8.23-64.32c-2.49-4.14-4.61-5.68-7.83-5.68c-0.54,0-1.11,0.04-1.74,0.13
		c-4.14,0.57-5.4,2.07-5.42,2.09c-0.2,0.24-0.52,0.34-0.82,0.26c-0.3-0.09-0.52-0.35-0.55-0.66c0-0.03-0.34-3.24-2.64-4.99
		c-2.17-1.65-6.18-3.61-9.77-3.27c-2.47,0.23-4.04,4.01-4.44,5.45c-0.09,0.32-0.37,0.55-0.7,0.56c-0.35,0.02-0.64-0.19-0.75-0.5
		c-0.01-0.03-0.97-2.55-3.33-4.85c-1.72-1.68-6.12-3.49-10.23-3.49c-1.23,0-2.35,0.16-3.31,0.48c-3.52,1.18-5,8.84-5.28,11.69
		c-0.04,0.41-0.4,0.7-0.81,0.69c-0.41-0.02-0.73-0.37-0.72-0.78c0.01-0.39,0.75-38.68-1.63-49.37C61.65,2.85,58.69,0,55.1,0
		c-3.24,0-7.5,2.58-8.86,9.84c-2.48,13.22-0.25,74.76-0.23,75.38c0.01,0.22-0.08,0.44-0.24,0.59c-0.16,0.15-0.38,0.23-0.6,0.2
		c-0.51-0.05-12.61-1.45-22.04-12.76c-5.56-6.67-12.22-7.39-14.83-7.39c-4.63,0-8.2,2.07-8.29,4.82
		c-0.15,4.6,8.65,14.93,24.15,28.34c4,3.47,6.03,8.76,8.17,14.37c3.52,9.21,7.15,18.74,19.97,22.14c6.87,1.82,14.18,2.75,21.72,2.75
		C92.79,138.28,109.39,132.33,114.36,123.82z"/>
	<path class="st1" d="M52.52,42.5c-0.66-14.22-2.2-28.81,1.95-42.42c0.01-0.02,0.01-0.03,0.02-0.05c-3.14,0.3-6.98,2.99-8.26,9.81
		c-2.36,12.58-0.46,68.92-0.25,74.87c0.72-0.36,1.4-0.87,1.96-1.44c4.06-4.15,4.62-10.51,4.79-16.32
		C52.97,58.81,52.9,50.65,52.52,42.5z"/>
	<path class="st1" d="M66.39,137.95c-1.13-0.37-2.24-0.8-3.3-1.35c-2.09-1.08-3.95-2.56-5.86-3.93
		c-5.29-3.81-11.37-7.13-14.49-12.86c-1.57-2.88-2.25-6.15-3.35-9.24c-3.24-9.06-10.07-16.37-17.38-22.63
		c-3.84-3.28-7.9-6.39-11-10.38c-2.58-3.33-4.45-7.43-4.5-11.58C2.78,66.42,0.08,68.3,0,70.68c-0.15,4.6,8.65,14.93,24.15,28.34
		c4,3.47,6.03,8.76,8.17,14.37c3.52,9.21,7.15,18.74,19.97,22.14C56.81,136.73,61.54,137.54,66.39,137.95z"/>
	<path class="st1" d="M77.92,44.94c-1.16-0.25-2.36-0.41-3.54-0.41c-1.23,0-2.35,0.16-3.31,0.48c-3.52,1.18-5,8.84-5.28,11.69
		c-0.04,0.41-0.4,0.7-0.81,0.69c-0.15-0.01-0.27-0.07-0.39-0.15c0.12,1.58,0.42,3.14,0.93,4.64c1.56,0.24,3.08-0.84,3.9-2.19
		c0.82-1.35,1.12-2.94,1.52-4.47c0.64-2.45,1.6-4.85,3.11-6.88C75.09,46.96,76.41,45.77,77.92,44.94z"/>
	<path class="st1" d="M92.32,54.14c0.57-1.8,1.45-3.55,2.85-4.81c0.78-0.71,1.75-1.24,2.77-1.5c-1.35-0.38-2.75-0.58-4.1-0.45
		c-2.47,0.23-4.04,4.01-4.44,5.45c-0.08,0.28-0.3,0.47-0.57,0.53c-0.07,1.62,0.12,3.26,0.62,4.8C91.16,57.87,91.79,55.8,92.32,54.14
		z"/>
	<path class="st1" d="M114.77,53.81c-0.54,0-1.11,0.04-1.74,0.13c-4.14,0.57-5.4,2.07-5.42,2.09c-0.17,0.21-0.44,0.3-0.7,0.27
		c-0.27,1.67-0.06,3.42,0.69,4.95c0.16,0.32,0.36,0.65,0.69,0.77c0.56,0.22,1.15-0.25,1.54-0.72c1.52-1.82,2.43-4.09,3.98-5.89
		c0.51-0.6,1.14-1.13,1.82-1.55C115.35,53.83,115.06,53.81,114.77,53.81z"/>
</g>
</svg>
