<?xml version="1.0" encoding="utf-8"?>
<!-- Generator: Adobe Illustrator 24.1.1, SVG Export Plug-In . SVG Version: 6.00 Build 0)  -->
<svg version="1.1" id="Layer_1" xmlns="http://www.w3.org/2000/svg" xmlns:xlink="http://www.w3.org/1999/xlink" x="0px" y="0px"
	 viewBox="0 0 61.02 305.34" style="enable-background:new 0 0 61.02 305.34;" xml:space="preserve">
<style type="text/css">
	.st0{fill:#FFBA00;}
	.st1{fill:#D39B0F;}
	.st2{opacity:0.4;fill:#FBD5D0;}
	.st3{fill:#8E743A;}
	.st4{fill:#FFBA00;stroke:#231F20;stroke-miterlimit:10;}
	.st5{fill:#FFFFFF;}
	.st6{fill:#B0B2B5;}
</style>
<g>
	<path class="st0" d="M30.75,52.77l0.37,0.04c0,0,0.01-0.04,0.01-0.08l20.52-1.95l3.44-0.8L36.13,4.53c0,0-1.84-3.79-6.09-3.06
		c-0.01,0-0.01,0.01,0,0.01c-3.39,0.07-4.79,3.06-4.79,3.06L6.39,50.03l3.44,0.79l20.53,1.91c0.01,0.04,0.01,0.07,0.01,0.07
		L30.75,52.77z"/>
	<path class="st1" d="M30.38,54.18c-0.19,0-0.39-0.04-0.56-0.12L9.71,52.19l-3.62-0.82c-0.39-0.09-0.73-0.35-0.91-0.71
		c-0.19-0.36-0.2-0.78-0.05-1.16L23.98,4.01c0.1-0.21,1.79-3.71,5.84-3.9c0.07-0.01,0.14-0.02,0.22-0.02C30.26,0.04,30.7,0,31.11,0
		c4.31,0,6.19,3.77,6.26,3.93l18.99,45.52c0.16,0.37,0.14,0.8-0.04,1.16c-0.19,0.36-0.52,0.62-0.91,0.71l-3.44,0.8l-20.34,1.95
		c-0.2,0.09-0.43,0.13-0.65,0.12l-0.37-0.04l-0.09,0.04C30.48,54.18,30.43,54.18,30.38,54.18z M30.73,51.41h0.03
		c0.08-0.02,0.16-0.04,0.24-0.05l20.52-1.96l1.68-0.4L34.87,5.05c-0.01-0.02-1.39-2.7-4.45-2.26c-0.12,0.03-0.23,0.05-0.35,0.05
		C27.56,2.9,26.5,5.1,26.49,5.12L8.28,49.05l1.86,0.43l20.35,1.88C30.58,51.38,30.66,51.39,30.73,51.41z"/>
	<path class="st2" d="M18.81,49.24c-1.55,0.12-3.36,0.19-5.13,0.46c-0.19,0.63-0.35,1.13-0.44,1.45l8.94,0.84
		c0.08-0.63,0.2-1.63,0.37-2.9C21.31,49.11,20.06,49.14,18.81,49.24z"/>
	<path class="st3" d="M55.13,83.12L55.1,49.97c-0.01-2.03-10.91-3.66-24.36-3.64C17.29,46.35,6.39,48,6.39,50.03l0.04,33.15
		L55.13,83.12z"/>
	<path class="st1" d="M6.44,84.55c-0.76,0-1.37-0.61-1.37-1.37L5.02,50.03c0-4.67,19.69-5.06,25.72-5.07
		c6.18,0,25.71,0.36,25.73,5.01l0.04,33.16c0,0.76-0.62,1.37-1.37,1.37L6.44,84.55L6.44,84.55z M7.77,50.34l0.04,31.47l45.96-0.05
		l-0.03-31.47c-1.34-0.96-8.92-2.59-22.79-2.59C16.76,47.72,9.11,49.36,7.77,50.34z"/>
	<path class="st0" d="M30.38,51.67c-15.74,0.01-28.51,2.47-28.51,5.47l0.06,54.06l0.03,21.26l0.19,165.59c0,3,12.77,5.43,28.51,5.41
		c15.74-0.02,28.49-2.47,28.49-5.47L58.97,132.4v-5.64l-0.07-69.67C58.88,54.08,46.11,51.66,30.38,51.67z"/>
	<path class="st4" d="M30.46,304.84c-1.21,0-29.68-0.07-29.68-6.78L0.5,57.15c0-6.74,28.66-6.85,29.88-6.85
		c1.39,0,29.86,0.08,29.89,6.78l0.26,240.91c0,0.5-0.15,1.25-0.9,2c-3.32,3.33-16.94,4.83-28.96,4.85H30.46z M30.55,53.04
		c-16.99,0.02-26.64,2.7-27.32,4.19l0.29,240.82c0.66,1.39,10.25,4.04,26.93,4.04v1.37l0.21-1.37c16.8-0.02,26.45-2.7,27.13-4.19
		L57.52,57.09C56.86,55.7,47.26,53.04,30.55,53.04z"/>
	<path class="st5" d="M30.43,92.76c-15.75,0.02-28.51,1.67-28.51,3.71l0.03,36.44l0.03,14.33l0.12,111.66
		c-0.01,2.04,12.76,3.66,28.51,3.64c15.73-0.02,28.49-1.68,28.49-3.71l-0.13-111.65v-3.8L58.94,96.4
		C58.93,94.36,46.16,92.74,30.43,92.76z"/>
	<path class="st6" d="M30.39,263.91c-9.46,0-26.21-0.75-29.02-3.57c-0.52-0.53-0.63-1.08-0.63-1.45L0.55,96.46
		c0-4.55,20.89-5.07,29.88-5.08c9.14,0,29.86,0.49,29.88,5.01l0.18,162.43c0,4.55-20.89,5.07-29.86,5.08H30.39z M3.48,258.53
		c1.77,1.14,11.69,2.64,26.91,2.64v1.37l0.24-1.37c15.35-0.02,25.34-1.54,27.12-2.7l-0.18-161.7c-1.77-1.14-11.68-2.64-26.91-2.64
		c-15.58,0.02-25.59,1.54-27.37,2.7L3.48,258.53z"/>
	<path class="st4" d="M30.59,247.23C18.21,247.25,8.15,216.8,8.1,179.23c-0.05-37.57,9.96-68.04,22.35-68.06
		c12.37-0.01,22.45,30.43,22.49,68C52.98,216.75,42.97,247.22,30.59,247.23z"/>
	<path class="st4" d="M30.59,248.61L30.59,248.61c-13.33,0-23.82-30.47-23.87-69.38c-0.04-38.92,10.37-69.41,23.72-69.43
		c13.34,0,23.82,30.47,23.86,69.37C54.35,218.09,43.93,248.59,30.59,248.61z M30.46,112.54c-10.17,0.01-21.03,26.81-20.98,66.69
		c0.05,39.86,10.96,66.63,21.11,66.63v1.37l0.01-1.37c10.17-0.01,21.02-26.81,20.97-66.68C51.52,139.31,40.61,112.54,30.46,112.54z"
		/>
</g>
</svg>
