<?xml version="1.0" encoding="utf-8"?>
<!-- Generator: Adobe Illustrator 24.1.1, SVG Export Plug-In . SVG Version: 6.00 Build 0)  -->
<svg version="1.1" id="Layer_1" xmlns="http://www.w3.org/2000/svg" xmlns:xlink="http://www.w3.org/1999/xlink" x="0px" y="0px"
	 viewBox="0 0 61.43 299.79" style="enable-background:new 0 0 61.43 299.79;" xml:space="preserve">
<style type="text/css">
	.st0{fill:#0094CE;}
	.st1{fill:#0072AF;}
	.st2{opacity:0.4;fill:#FBD5D0;}
	.st3{opacity:0.6;fill:#BBBDBF;}
	.st4{fill:#0094CE;stroke:#231F20;stroke-miterlimit:10;}
	.st5{fill:#0072AF;stroke:#231F20;stroke-miterlimit:10;}
	.st6{fill:#FFFFFF;}
	.st7{fill:#B0B2B5;}
</style>
<g>
	<g>
		<g>
			<g>
				<g>
					<path class="st0" d="M30.39,51.83l0.37,0.04c0,0,0-0.03,0-0.08l20.15-2.01l3.37-0.79L35.47,4.45c0,0-1.83-3.72-5.99-2.98
						c-0.01,0-0.01,0.01-0.01,0.01c-3.32,0.09-4.68,3.04-4.68,3.04L6.49,49.25l3.38,0.76l20.15,1.79c0.01,0.04,0.01,0.07,0.01,0.07
						L30.39,51.83z"/>
					<path class="st1" d="M30.03,53.24c-0.19,0-0.37-0.04-0.54-0.11L9.75,51.37l-3.56-0.78c-0.39-0.09-0.73-0.35-0.92-0.71
						c-0.19-0.36-0.21-0.78-0.06-1.15L23.52,4c0.09-0.21,1.75-3.7,5.77-3.89c0.06-0.01,0.12-0.01,0.19-0.01
						C29.7,0.04,30.14,0,30.55,0c4.21,0,6.08,3.69,6.15,3.84l18.85,44.61c0.16,0.37,0.14,0.79-0.04,1.16
						c-0.18,0.36-0.51,0.62-0.91,0.71l-3.37,0.79l-19.96,2c-0.2,0.09-0.42,0.13-0.63,0.12l-0.37-0.04l-0.1,0.04
						C30.12,53.24,30.07,53.24,30.03,53.24z M30.38,50.47h0.02c0.08-0.02,0.16-0.04,0.24-0.05l20.15-2.01l1.61-0.39L34.21,4.99
						c0-0.02-1.39-2.65-4.39-2.19c-0.1,0.03-0.21,0.04-0.32,0.05c-2.39,0.06-3.43,2.16-3.47,2.25L8.38,48.27l1.79,0.4l19.98,1.76
						C30.23,50.44,30.3,50.45,30.38,50.47z"/>
				</g>
				<path class="st2" d="M14.48,46.22c2.67-0.76,5.49-1.11,8.24-0.99c1.38-10.75,4.21-31.68,5.24-39.72
					C24.94,14.8,17.55,36.77,14.48,46.22z"/>
				<path class="st2" d="M18.67,48.42c-1.53,0.12-3.31,0.19-5.04,0.47c-0.19,0.62-0.33,1.11-0.42,1.42L22,51.09
					c0.05-0.61,0.18-1.59,0.33-2.85C21.11,48.27,19.89,48.32,18.67,48.42z"/>
				<path class="st3" d="M35.47,4.45c0,0-1.48-3.02-4.84-3.07c2.81,11.65,5.81,23.25,8.68,34.88c1.18,4.77,2.37,9.55,3.56,14.32
					l8.04-0.8l3.37-0.79L35.47,4.45z"/>
				<g>
					<g>
						<path class="st0" d="M54.47,81.52l-0.19-32.53c-0.01-2-10.72-3.56-23.93-3.49c-13.19,0.07-23.88,1.75-23.87,3.75l0.18,32.54
							L54.47,81.52z"/>
						<path class="st1" d="M6.67,83.16c-0.36,0-0.71-0.14-0.96-0.39c-0.26-0.26-0.41-0.61-0.41-0.97L5.12,49.26
							c-0.01-0.38,0.11-0.96,0.66-1.52c2.73-2.76,16.73-3.56,24.58-3.61h0.88c7.33,0,24.39,0.47,24.43,4.84l0.18,32.53
							c0,0.76-0.61,1.38-1.36,1.38L6.67,83.16L6.67,83.16z M7.86,49.55l0.17,30.86l45.06-0.26l-0.17-30.84
							c-1.31-0.91-8.54-2.44-21.69-2.44h-0.86C16.69,46.94,9.2,48.6,7.86,49.55z"/>
					</g>
					<g>
						<path class="st4" d="M30.02,50.76c-15.44,0.09-27.96,2.55-27.94,5.49l0.29,53.07l0.12,20.86L3.4,292.73
							c0.01,2.95,12.55,5.28,28.01,5.19c15.45-0.09,27.96-2.54,27.95-5.49l-0.91-162.56l-0.04-5.54l-0.38-68.39
							C58.02,52.99,45.48,50.67,30.02,50.76z"/>
						<path class="st5" d="M30.55,299.29c-2.92,0-28.51-0.18-28.52-6.56L0.7,56.26c0-0.49,0.15-1.23,0.89-1.98
							c3.25-3.29,16.61-4.83,28.42-4.89l0.86,0c2.91,0,28.5,0.18,28.54,6.55l1.32,236.48c0.03,6.64-28.11,6.86-29.31,6.87
							L30.55,299.29z M30.87,52.13l-0.84,0c-16.43,0.09-25.91,2.75-26.59,4.21l1.34,236.38c0.66,1.31,9.86,3.83,25.78,3.83l0.85,0
							c16.45-0.09,25.92-2.75,26.6-4.21L56.67,55.95C56.05,54.72,47.57,52.13,30.87,52.13z"/>
					</g>
					<g>
						<path class="st6" d="M30.26,91.08C14.8,91.17,2.29,92.86,2.3,94.84l0.2,35.79l0.07,14.06l0.63,109.6
							c0.01,1.99,12.54,3.53,27.99,3.44c15.46-0.09,27.97-1.76,27.96-3.75l-0.61-109.61l-0.02-3.73l-0.26-46.11
							C58.25,92.54,45.71,91,30.26,91.08z"/>
						<path class="st7" d="M29.95,259.1c-10.5,0-28.11-0.63-28.13-4.81L0.92,94.84c-0.02-4.48,20.51-5.09,29.33-5.14l1.09,0
							c10.56,0,28.27,0.62,28.29,4.82l0.89,159.45c0.02,4.49-20.5,5.08-29.33,5.13L29.95,259.1z M4.55,253.9
							c1.73,1.07,11.08,2.46,25.4,2.46l1.22,0c15.01-0.08,24.82-1.61,26.59-2.75L56.89,94.92c-1.74-1.08-11.15-2.47-25.55-2.47
							l-1.07,0c-15.02,0.09-24.82,1.61-26.6,2.76L4.55,253.9z"/>
					</g>
				</g>
			</g>
			<g>
				<path class="st4" d="M31.11,242.72c-12.16,0.06-22.19-29.78-22.38-66.65c-0.21-36.88,9.46-66.84,21.63-66.9
					c12.14-0.06,22.17,29.77,22.38,66.65C52.95,212.7,43.25,242.65,31.11,242.72z"/>
				<path class="st5" d="M31.07,244.09c-13.09,0-23.51-29.87-23.71-68.02c-0.11-17.98,2.12-34.91,6.24-47.69
					c4.28-13.25,10.23-20.56,16.75-20.6c13.13,0,23.54,29.88,23.76,68.02c0.1,17.98-2.12,34.91-6.25,47.69
					c-4.29,13.25-10.23,20.56-16.74,20.6H31.07z M30.39,110.53c-5.19,0.03-10.36,6.84-14.19,18.7c-4.04,12.5-6.21,29.13-6.11,46.83
					c0.21,39.05,11.01,65.29,20.96,65.29v1.37l0.04-1.37c5.16-0.03,10.31-6.84,14.14-18.7c4.05-12.5,6.22-29.13,6.12-46.83
					C51.15,136.77,40.35,110.53,30.39,110.53z"/>
			</g>
		</g>
		<path class="st2" d="M19.74,51.19c-2.6,0.21-5.03,0.49-7.19,0.83l1.37,244.82c2.16,0.31,4.59,0.56,7.2,0.75L19.74,51.19z"/>
		<path class="st3" d="M44.12,51.41l1.38,245.7c8.3-0.97,13.87-2.72,13.86-4.69L58.04,55.94C58.02,53.97,52.42,52.28,44.12,51.41z"
			/>
	</g>
</g>
</svg>
