<?xml version="1.0" encoding="utf-8"?>
<!-- Generator: Adobe Illustrator 24.1.1, SVG Export Plug-In . SVG Version: 6.00 Build 0)  -->
<svg version="1.1" id="Layer_1" xmlns="http://www.w3.org/2000/svg" xmlns:xlink="http://www.w3.org/1999/xlink" x="0px" y="0px"
	 viewBox="0 0 843.28 1243.06" style="enable-background:new 0 0 843.28 1243.06;" xml:space="preserve">
<style type="text/css">
	.st0{fill:#FFFFF7;}
	.st1{fill:#DE8852;}
	.st2{fill:#DE8651;}
	.st3{opacity:0.4;fill:#A06705;}
	.st4{fill:#A06705;}
	.st5{opacity:0.6;fill:#A06705;}
	.st6{fill:#FFFFFF;stroke:#231F20;stroke-width:3;stroke-miterlimit:10;}
	.st7{fill:none;stroke:#231F20;stroke-width:3;stroke-miterlimit:10;}
	.st8{fill:#EF1111;stroke:#231F20;stroke-width:3;stroke-miterlimit:10;}
	.st9{fill:#F96F08;stroke:#231F20;stroke-width:3;stroke-miterlimit:10;}
	.st10{fill:#FFEE15;stroke:#231F20;stroke-width:3;stroke-miterlimit:10;}
	.st11{fill:#35C612;stroke:#231F20;stroke-width:3;stroke-miterlimit:10;}
	.st12{fill:#007AFF;stroke:#231F20;stroke-width:3;stroke-miterlimit:10;}
	.st13{fill:#501A8E;stroke:#231F20;stroke-width:3;stroke-miterlimit:10;}
</style>
<g>
	<g>
		<rect x="33.88" y="148.22" class="st0" width="749.9" height="806.62"/>
		<path d="M784.62,955.69H33.04V147.38h751.58V955.69z M34.72,954h748.22V149.06H34.72V954z"/>
	</g>
	<path class="st1" d="M843.21,992.02c-0.28-0.9-0.5-1.54-0.71-2.15c0.02-0.2,0.06-0.4,0.02-0.63c-3.2-20.4-2.32-41.16-5.53-61.56
		c-0.15-1-0.82-1.45-1.56-1.5c-0.31-0.22-0.67-0.37-1.14-0.37c-32.32,0-64.54,4.73-96.67,7.68c-33.74,3.1-67.4,2.7-101.23,2.37
		c-34.39-0.35-68.79-0.66-103.17,0.34c-34.3,0.99-68.54,3.94-102.82,5.55c-67.82,3.17-135.76,5.17-203.65,6.77
		c-66.12,1.56-132.4-1.36-198.37,2.27c-8.7,0.49-17.25-0.12-25.75-2.08c-0.45-0.11-0.84-0.03-1.2,0.1c-0.1,0.03-0.2,0.09-0.3,0.13
		c-0.07,0.04-0.12,0.06-0.18,0.1C0.4,949.36,0,949.89,0,950.71c-0.02,15.9,4.41,31.24,5.53,47.04c0.01,0.07,0.05,0.12,0.05,0.19
		c0.05,1.19,1.04,2.44,2.57,2.15c13.82-2.64,27.75-0.38,41.64,0.54c13.84,0.92,27.92,0.23,41.8,0.23c19.11,0,38.21,0.05,57.31,0.15
		c0.75,17.16-4.45,35.31-6.39,52.4c-2.37,20.94-5.28,41.75-9.58,62.39c-7.66,36.77-14.9,72.95-19.31,110.28
		c-1.35,0.92-1.53,3.31,0.47,3.69c14.99,2.77,30.07,2.67,45.25,2.51c14.75-0.15,29.33,1.21,44.03,1.71
		c1.52,0.05,2.15-1.26,1.94-2.42c0.01-0.05,0.05-0.08,0.06-0.14c3.92-16.86,4.04-34.87,5.78-52.06c2.15-21.24,4.06-42.49,6.1-63.74
		c2.01-20.91,4.28-41.66,7.78-62.37c2.88-17.04,5.58-34.24,4.34-51.57c46.09,0.45,92.19,0.9,138.27,1.67
		c79.26,1.32,158.6-4.18,237.9-6.54c0.01,0.03,0,0.06,0.01,0.1c11.57,40.43,17.96,82.82,25.87,124.11
		c4.22,21.98,8.29,43.98,12.83,65.89c1.7,8.22,3.48,16.41,5.63,24.53c2.06,7.74,5.48,17.03,3.92,25.1c-0.08,0.43-0.01,0.8,0.11,1.15
		c-0.32,1.22,0.28,2.67,1.89,2.52c20.52-1.89,41.44,3.31,62.13,2.79c10.91-0.27,21.79-1.19,32.7-1.26
		c5.24-0.03,11.32,0.37,16.21-1.82c1.95-0.87,0.99-3.28-0.69-3.69c-2.19-8.56-5.7-16.47-9.36-24.49
		c-5.24-11.49-9.35-23.54-13.77-35.38c-8.34-22.38-16.26-44.9-22.44-67.98c-10.14-37.91-16.47-77.83-35.91-112.46
		c16.77,0.18,33.55,0.56,50.3,1.41c13.92,3.92,29.35,0.68,43.52,0.28c10.76-0.31,21.49-1.2,32.23-1.69
		c10.35-0.47,20.78,0.46,31.02-1.39C842.85,994.37,843.52,993.02,843.21,992.02z"/>
	<path class="st2" d="M275.28,977.6c45.11-0.36,90.22-3.2,135.32-2.11c63.63,1.54,126.72-9.1,190.25-10.46
		c39.56-0.84,111.44-4.65,151.45-2.91c39.73,1.72,71.6-6.22,88.27,9.28c-1.08-14.58-1.31-29.24-3.59-43.72
		c-0.15-1-0.82-1.45-1.56-1.5c-0.31-0.22-0.67-0.37-1.14-0.37c-32.32,0-64.54,4.73-96.67,7.68c-33.74,3.1-67.4,2.7-101.23,2.37
		c-34.39-0.35-68.79-0.66-103.17,0.34c-34.3,0.99-68.54,3.94-102.82,5.55c-67.82,3.17-135.76,5.17-203.65,6.77
		c-66.12,1.56-132.4-1.36-198.37,2.27c-8.7,0.49-17.25-0.12-25.75-2.08c-0.45-0.11-0.84-0.03-1.2,0.1c-0.1,0.03-0.2,0.09-0.3,0.13
		c-0.07,0.04-0.12,0.06-0.18,0.1C0.4,949.36,0,949.89,0,950.71c-0.01,10.13,1.77,20.02,3.37,29.96c1.17-0.52,2.43-0.92,3.88-1.06
		C95.81,971.15,186.39,978.32,275.28,977.6z"/>
	<path class="st3" d="M270.53,1002.12c-0.23-0.48-0.44-0.96-0.62-1.45c-75.24,0-151.6-4.59-226.84-0.55
		c2.25,0.2,4.48,0.38,6.72,0.53c13.84,0.92,27.92,0.23,41.8,0.23c19.11,0,38.21,0.05,57.31,0.15c0.75,17.16-4.45,35.31-6.39,52.4
		c-2.37,20.94-5.28,41.75-9.58,62.39c-5.11,24.52-10.02,48.8-14.04,73.32c10.55-31.86,20.56-63.94,32.12-95.37
		c5.2-14.12,59.96-17.49,57.2,4.65c-3.37,26.98-0.96,32.43,0.15,58.1c0.52,11.93,1,23.81,1.71,35.69c0.31-4.3,0.65-8.59,1.07-12.83
		c2.15-21.24,4.06-42.49,6.1-63.74c2.01-20.91,4.28-41.66,7.78-62.37c2.88-17.04,5.58-34.24,4.34-51.57
		C243.1,1001.82,256.81,1001.97,270.53,1002.12z"/>
	<path class="st3" d="M642.29,1127.07c-0.16-16.1-15.03-54.75,15.58-50.8c13.48,1.74,36.64-3.86,42.89,6.92
		c12.28,21.14,15.46,39.97,27.08,61.47c3.54,6.54,7.11,13.03,10.71,19.5c-6.68-18.36-12.92-36.87-17.97-55.75
		c-10.14-37.91-16.47-77.83-35.91-112.46c6.26,0.07,12.51,0.2,18.77,0.34c-40.66-1.99-81.32-2.49-122.04,1.05
		c-2.25,0.2-4.5,0.35-6.74,0.54c10.29-0.39,20.59-0.76,30.88-1.06c0.01,0.03,0,0.06,0.01,0.1c11.57,40.43,17.96,82.82,25.87,124.11
		c3.91,20.37,7.72,40.75,11.87,61.07C642.23,1163.05,642.47,1144.02,642.29,1127.07z"/>
	<path class="st4" d="M146.48,1028.54c1.66-0.26,3.33-0.46,5.01-0.59c27.33-2.04,52.16-3.23,76.89,2.63
		c1.11-9.59,1.69-19.22,1-28.89c13.72,0.14,27.43,0.28,41.15,0.43c-0.23-0.48-0.44-0.96-0.62-1.45c-75.24,0-151.6-4.59-226.84-0.55
		c2.25,0.2,4.48,0.38,6.72,0.53c13.84,0.92,27.92,0.23,41.8,0.23c19.11,0,38.21,0.05,57.31,0.15
		C149.3,1010.02,148.03,1019.29,146.48,1028.54z"/>
	<path class="st4" d="M605.55,996.92c3.06,10.7,5.75,21.55,8.21,32.47c1.4-0.65,2.84-1.25,4.3-1.8
		c25.77-9.65,51.91-10.45,78.05-7.17c-3.27-8.38-6.99-16.56-11.44-24.48c6.26,0.07,12.51,0.2,18.77,0.34
		c-40.66-1.99-81.32-2.49-122.04,1.05c-2.25,0.2-4.5,0.35-6.74,0.54c10.29-0.39,20.59-0.76,30.88-1.06
		C605.55,996.86,605.54,996.88,605.55,996.92z"/>
	<path d="M843.21,992.02c-0.28-0.9-0.5-1.54-0.71-2.15c0.02-0.2,0.06-0.4,0.02-0.63c-3.2-20.4-2.32-41.16-5.53-61.56
		c-0.15-1-0.82-1.45-1.56-1.5c-0.31-0.22-0.67-0.37-1.14-0.37c-32.32,0-64.54,4.73-96.67,7.68c-33.74,3.1-67.4,2.7-101.23,2.37
		c-34.39-0.35-68.79-0.66-103.17,0.34c-34.3,0.99-68.54,3.94-102.82,5.55c-67.82,3.17-135.76,5.17-203.65,6.77
		c-66.12,1.56-132.4-1.36-198.37,2.27c-8.7,0.49-17.25-0.12-25.75-2.08c-0.45-0.11-0.84-0.03-1.2,0.1c-0.1,0.03-0.2,0.09-0.3,0.13
		c-0.07,0.04-0.12,0.06-0.18,0.1C0.4,949.36,0,949.89,0,950.71c-0.02,15.9,4.41,31.24,5.53,47.04c0.01,0.07,0.05,0.12,0.05,0.19
		c0.05,1.19,1.04,2.44,2.57,2.15c13.82-2.64,27.75-0.38,41.64,0.54c13.84,0.92,27.92,0.23,41.8,0.23c19.11,0,38.21,0.05,57.31,0.15
		c0.75,17.16-4.45,35.31-6.39,52.4c-2.37,20.94-5.28,41.75-9.58,62.39c-7.66,36.77-14.9,72.95-19.31,110.28
		c-1.35,0.92-1.53,3.31,0.47,3.69c14.99,2.77,30.07,2.67,45.25,2.51c14.75-0.15,29.33,1.21,44.03,1.71
		c1.52,0.05,2.15-1.26,1.94-2.42c0.01-0.05,0.05-0.08,0.06-0.14c3.92-16.86,4.04-34.87,5.78-52.06c2.15-21.24,4.06-42.49,6.1-63.74
		c2.01-20.91,4.28-41.66,7.78-62.37c2.88-17.04,5.58-34.24,4.34-51.57c46.09,0.45,92.19,0.9,138.27,1.67
		c79.26,1.32,158.6-4.18,237.9-6.54c0.01,0.03,0,0.06,0.01,0.1c11.57,40.43,17.96,82.82,25.87,124.11
		c4.22,21.98,8.29,43.98,12.83,65.89c1.7,8.22,3.48,16.41,5.63,24.53c2.06,7.74,5.48,17.03,3.92,25.1c-0.08,0.43-0.01,0.8,0.11,1.15
		c-0.32,1.22,0.28,2.67,1.89,2.52c20.52-1.89,41.44,3.31,62.13,2.79c10.91-0.27,21.79-1.19,32.7-1.26
		c5.24-0.03,11.32,0.37,16.21-1.82c1.95-0.87,0.99-3.28-0.69-3.69c-2.19-8.56-5.7-16.47-9.36-24.49
		c-5.24-11.49-9.35-23.54-13.77-35.38c-8.34-22.38-16.26-44.9-22.44-67.98c-10.14-37.91-16.47-77.83-35.91-112.46
		c16.77,0.18,33.55,0.56,50.3,1.41c13.92,3.92,29.35,0.68,43.52,0.28c10.76-0.31,21.49-1.2,32.23-1.69
		c10.35-0.47,20.78,0.46,31.02-1.39C842.85,994.37,843.52,993.02,843.21,992.02z M220.44,1055.7c-2.91,17.25-4.83,34.52-6.55,51.93
		c-1.97,19.93-3.78,39.88-5.71,59.82c-1.97,20.41-2.14,42.3-6.68,62.31c-11.56-0.48-23.06-1.58-34.66-1.66
		c-16.44-0.11-32.79,0.71-49.07-1.93c4.52-38.28,12.12-75.45,19.98-113.14c3.83-18.39,6.21-36.97,8.45-55.61
		c1.32-10.97,2.36-21.89,4.45-32.75c1.51-7.85,2.74-15.63,2.4-23.63c9.93,0.05,19.86,0.09,29.79,0.19
		c14.13,0.14,28.25,0.28,42.38,0.41C226.52,1019.83,223.46,1037.81,220.44,1055.7z M716.58,1109.51
		c5.85,21.8,13.26,43.08,21.06,64.24c4.07,11,8.05,22.07,12.43,32.96c4.09,10.22,9.28,19.81,12.05,30.54
		c-6.14,1.53-14.18,0.32-20.06,0.53c-10.73,0.4-21.42,1.13-32.17,1.24c-17.32,0.18-34.62-4.16-51.9-3.06
		c1.49-11.42-3.86-23.81-6.41-34.68c-5.41-23.05-9.52-46.44-13.92-69.69c-8.51-44.83-15.37-90.96-27.86-134.89
		c23.48-0.66,46.95-0.98,70.41-0.81c0,0.32,0.06,0.66,0.26,1.01C700.22,1031.46,706.41,1071.54,716.58,1109.51z M810.73,991.8
		c-10.75,0.4-21.47,1.27-32.23,1.69c-13.29,0.52-28.18,3.45-41.36,0.16c-0.3-0.21-0.65-0.38-1.1-0.4c-0.12-0.01-0.26-0.01-0.39-0.02
		c-0.73-0.21-1.46-0.35-2.16-0.6c-0.82-0.29-1.47-0.04-1.91,0.43c-121.2-5.79-242.67,8.17-363.94,6.14
		c-61.6-1.03-123.2-1.5-184.8-2.13c-30.42-0.3-60.84-0.36-91.25-0.36c-15.09,0-30.28,0.54-45.34-0.46
		c-12.36-0.83-24.48-2.39-36.76-0.53c-1.26-14.24-4.87-28.17-5.26-42.49c13.04,2.53,26.04,1.72,39.3,0.59
		c16.95-1.45,33.89-0.94,50.88-0.53c33.42,0.81,66.86,0.49,100.27-0.02c67.64-1.04,135.31-3.39,202.9-6
		c68.67-2.66,137-7.95,205.78-7.57c34.13,0.18,68.38,1.54,102.49,0.14c33.15-1.35,66.08-6.06,99.14-8.68
		c9.39-0.74,18.74-1.17,28.15-1.2c2.82,18.82,2.36,37.92,4.89,56.76c-0.53,0.6-0.77,1.46-0.34,2.37l0.67,1.78
		C829.27,992.17,819.88,991.47,810.73,991.8z"/>
	<path class="st1" d="M520.87,150.18c-0.09-0.51-0.39-1-0.99-1.33c0.28,0.14-0.89-7.69-1.08-9.17c-0.69-5.37-1.28-10.77-1.88-16.15
		c-0.93-8.42-1.16-17.45-3.35-25.67c-0.46-1.76-2.45-1.78-3.46-0.83c-17.26,0.08-34.52,0.36-51.79,0.64
		c0.04-18.35,1.19-36.71,0.98-55.05c-0.09-8.62-1.76-17.28-1.07-25.88c0.44-5.46,0.87-10.54-1.6-15.55
		c-0.72-1.44-2.3-1.24-3.18-0.33c-18.91-0.36-37.7,0.66-56.61,0.87c-13.56,0.15-29.53-4.17-42.69,0.24
		c-1.27-0.22-2.91,0.83-2.65,2.55c2.35,15.9,1.36,32.1,2.67,48.1c1.29,15.38,2.5,30.76,3.82,46.13c0.01,0.09,0.06,0.15,0.07,0.24
		c-4.34,0.11-8.7,0.2-13.04,0.32c-17.49,0.49-35.4,2.92-52.86,1.3c-1.07-1.29-3.7-0.89-3.7,1.25c0.04,17.58,0.46,35.13,3.87,52.44
		c0.24,1.2,1.2,1.59,2.13,1.44c0.01,0,0.01,0,0.01,0c13.39,3.89,29.74-0.23,43.52-0.49c21.36-0.39,42.71-0.47,64.07-0.67
		c21.92-0.21,43.84-0.38,65.76-0.46c9.91-0.04,19.82-0.3,29.7,0.48c7.66,0.6,15.05,1.1,22.53-0.94
		C521.84,153.2,521.85,151.19,520.87,150.18z"/>
	<path class="st2" d="M324.44,115.12c53.57,2.35,106.94-3.83,160.49-4.15c11.25-0.06,20.43,3.06,27.62,8.17
		c-0.52-6.06-1.14-12.15-2.47-17.95c-38.12,0.17-76.25,1.12-114.39,1.32c-18.15,0.09-36.3,0.5-54.44,1.08
		c-16.11,0.52-32.53,2.64-48.62,1.22c0.03,6.76,0.17,13.51,0.52,20.25C300.76,118.49,311.17,114.54,324.44,115.12z"/>
	<path d="M520.87,150.18c-0.09-0.51-0.39-1-0.99-1.33c0.28,0.14-0.89-7.69-1.08-9.17c-0.69-5.37-1.28-10.77-1.88-16.15
		c-0.93-8.42-1.16-17.45-3.35-25.67c-0.46-1.76-2.45-1.78-3.46-0.83c-17.26,0.08-34.52,0.36-51.79,0.64
		c0.04-18.35,1.19-36.71,0.98-55.05c-0.09-8.62-1.76-17.28-1.07-25.88c0.44-5.46,0.87-10.54-1.6-15.55
		c-0.72-1.44-2.3-1.24-3.18-0.33c-18.91-0.36-37.7,0.66-56.61,0.87c-13.56,0.15-29.53-4.17-42.69,0.24
		c-1.27-0.22-2.91,0.83-2.65,2.55c2.35,15.9,1.36,32.1,2.67,48.1c1.29,15.38,2.5,30.76,3.82,46.13c0.01,0.09,0.06,0.15,0.07,0.24
		c-4.34,0.11-8.7,0.2-13.04,0.32c-17.49,0.49-35.4,2.92-52.86,1.3c-1.07-1.29-3.7-0.89-3.7,1.25c0.04,17.58,0.46,35.13,3.87,52.44
		c0.24,1.2,1.2,1.59,2.13,1.44c0.01,0,0.01,0,0.01,0c13.39,3.89,29.74-0.23,43.52-0.49c21.36-0.39,42.71-0.47,64.07-0.67
		c21.92-0.21,43.84-0.38,65.76-0.46c9.91-0.04,19.82-0.3,29.7,0.48c7.66,0.6,15.05,1.1,22.53-0.94
		C521.84,153.2,521.85,151.19,520.87,150.18z M357.99,48.6c-1.18-14.28-0.39-28.62-2.21-42.84c13.47-4.2,31.36,0.25,45.12,0.1
		c17.65-0.2,35.16-1.18,52.81-0.83c1.68,5.12,0.29,11.06,0.08,16.26c-0.32,8.17,1.3,16.68,1.39,24.9
		c0.19,17.17-0.99,34.37-1.02,51.56c-18.16,0.3-36.32,0.57-54.48,0.59c-12.53,0.01-25.04,0.26-37.57,0.56
		c0-0.05,0.03-0.09,0.02-0.14C360.71,82.05,359.38,65.33,357.99,48.6z M494.35,150.22c-8.78-0.69-17.71-0.26-26.52-0.23
		c-20.55,0.06-41.11,0.24-61.66,0.42c-20.09,0.18-40.17,0.25-60.26,0.57c-8.35,0.13-16.74,0.02-25.07,0.64
		c-8.27,0.62-16.57,2.45-24.74,0.26c-2.92-15.54-3.41-31.3-3.47-47.07c16.09,1.42,32.51-0.7,48.62-1.22
		c18.14-0.58,36.28-0.99,54.44-1.08c38.14-0.2,76.27-1.16,114.39-1.32c2.28,9.94,2.49,20.75,3.63,30.79
		c0.37,3.17,0.11,13.61,2.36,18.36C508.9,151.65,501.63,150.79,494.35,150.22z"/>
	<path d="M465.22,127.47c0,4.59-3.71,8.3-8.3,8.3c-4.58,0-8.3-3.72-8.3-8.3c0-4.59,3.72-8.3,8.3-8.3
		C461.51,119.17,465.22,122.88,465.22,127.47z"/>
	<path d="M367.68,127.47c0,4.59-3.71,8.3-8.31,8.3c-4.58,0-8.3-3.72-8.3-8.3c0-4.59,3.72-8.3,8.3-8.3
		C363.97,119.17,367.68,122.88,367.68,127.47z"/>
	<path class="st5" d="M442.44,68.91c-22.73,5.09-44.08,8.42-67.2,4.15c-5.93-1.1-11.2-3.6-15.81-7.02
		c0.9,10.9,1.77,21.82,2.71,32.72c0.01,0.05-0.02,0.09-0.02,0.14c12.52-0.3,25.04-0.54,37.57-0.56c18.17-0.02,36.32-0.3,54.48-0.59
		c0.02-11.32,0.52-22.65,0.82-33.97C451.18,66.11,446.99,67.89,442.44,68.91z"/>
</g>
<rect x="633.98" y="249.7" class="st6" width="96.76" height="96.76"/>
<rect x="633.98" y="359.7" class="st6" width="96.76" height="96.76"/>
<rect x="635.53" y="469.9" class="st6" width="96.76" height="96.76"/>
<rect x="635.53" y="580.09" class="st6" width="96.76" height="96.76"/>
<rect x="635.85" y="688.08" class="st6" width="96.76" height="96.76"/>
<rect x="635.53" y="799.43" class="st6" width="96.76" height="96.76"/>
<rect x="367.81" y="189.7" class="st6" width="96.76" height="96.76"/>
<rect x="367.81" y="299.7" class="st6" width="96.76" height="96.76"/>
<rect x="369.36" y="409.9" class="st6" width="96.76" height="96.76"/>
<rect x="369.36" y="520.09" class="st6" width="96.76" height="96.76"/>
<rect x="369.68" y="628.08" class="st6" width="96.76" height="96.76"/>
<rect x="369.36" y="739.43" class="st6" width="96.76" height="96.76"/>
<line class="st7" x1="186.51" y1="296.06" x2="368.53" y2="237.07"/>
<line class="st7" x1="464.21" y1="236.54" x2="633.02" y2="298.08"/>
<line class="st7" x1="186.51" y1="402.5" x2="368.53" y2="343.51"/>
<line class="st7" x1="464.21" y1="342.97" x2="633.02" y2="404.51"/>
<line class="st7" x1="186.51" y1="512.43" x2="368.53" y2="453.43"/>
<line class="st7" x1="466.21" y1="452.9" x2="635.02" y2="514.44"/>
<line class="st7" x1="186.51" y1="628.6" x2="368.53" y2="569.61"/>
<line class="st7" x1="466.21" y1="569.08" x2="635.02" y2="630.62"/>
<line class="st7" x1="186.51" y1="737.4" x2="368.53" y2="678.41"/>
<line class="st7" x1="466.21" y1="677.87" x2="635.02" y2="739.42"/>
<line class="st7" x1="186.51" y1="848.4" x2="368.53" y2="789.41"/>
<line class="st7" x1="466.21" y1="788.87" x2="635.02" y2="850.42"/>
<rect x="88.62" y="249.7" class="st8" width="96.76" height="96.76"/>
<rect x="89.75" y="359.88" class="st9" width="96.76" height="96.76"/>
<rect x="88.62" y="470.05" class="st10" width="96.76" height="96.76"/>
<rect x="88.62" y="579.29" class="st11" width="96.76" height="96.76"/>
<rect x="88.62" y="688.35" class="st12" width="96.76" height="96.76"/>
<rect x="88.62" y="798.96" class="st13" width="96.76" height="96.76"/>
</svg>
