<?xml version="1.0" encoding="utf-8"?>
<!-- Generator: Adobe Illustrator 24.1.1, SVG Export Plug-In . SVG Version: 6.00 Build 0)  -->
<svg version="1.1" id="Layer_1" xmlns="http://www.w3.org/2000/svg" xmlns:xlink="http://www.w3.org/1999/xlink" x="0px" y="0px"
	 viewBox="0 0 181.32 148.53" style="enable-background:new 0 0 181.32 148.53;" xml:space="preserve">
<style type="text/css">
	.st0{fill:#FFDCAD;}
	.st1{fill:#D79054;}
	.st2{fill:#FCCA92;}
	.st3{fill:#FFF9DF;}
</style>
<g>
	<path class="st0" d="M178.61,71.77c-4.74-18.04-45.86-67.02-53.23-68.86c-6.29-1.57-9.77-1.01-12.82,2.04
		c-0.51,0.51-1.01,1.09-1.53,1.77c-3.39,4.47-3.16,7.09-3.16,7.12c0.04,0.42-0.17,0.82-0.54,1.02c-0.37,0.2-0.82,0.16-1.14-0.11
		c-0.03-0.03-3.4-2.75-7.24-2.22c-3.62,0.5-9.28,2.44-12.37,6.16c-2.13,2.57-0.03,7.64,0.96,9.38c0.22,0.39,0.16,0.87-0.14,1.2
		c-0.31,0.35-0.78,0.43-1.19,0.24c-0.03-0.01-3.35-1.5-7.77-1.45c-3.22,0.04-9.12,2.5-13.03,6.4c-1.17,1.17-2.07,2.38-2.68,3.6
		c-2.23,4.46,3.64,13.13,6.09,16.1c0.35,0.43,0.28,1.04-0.11,1.42c-0.41,0.37-1.04,0.34-1.43-0.06c-0.36-0.37-35.99-37.42-48.4-45.3
		C13.77,6.99,8.27,7.1,4.86,10.5c-3.07,3.07-4.67,9.57,0.93,17.75c10.19,14.89,70.71,71.19,71.32,71.76
		c0.22,0.2,0.34,0.49,0.33,0.79c-0.01,0.3-0.15,0.58-0.38,0.76c-0.54,0.43-13.35,10.59-33.03,8.8c-11.6-1.05-18.61,4.59-21.09,7.06
		c-4.4,4.4-5.81,9.74-3.29,12.44c4.22,4.51,22.38,5.96,49.82,3.98c7.09-0.51,14.03,2.6,21.38,5.88c12.08,5.41,24.57,11,39.96,2.06
		c8.25-4.79,16.06-10.85,23.22-18C171.86,105.96,181.97,84.56,178.61,71.77z"/>
	<path class="st1" d="M111.1,3.5c-0.58,0.58-1.14,1.23-1.71,1.98c-2.21,2.92-3.08,5.19-3.4,6.67c-1.59-0.92-4.29-2.07-7.32-1.66
		C95,11,89.44,12.86,85.85,16.44c-0.3,0.3-0.59,0.62-0.86,0.94c-2.3,2.78-1.29,6.9-0.3,9.45c-1.54-0.42-3.73-0.85-6.28-0.81
		c-3.71,0.04-10.13,2.68-14.46,7c-1.33,1.33-2.36,2.72-3.07,4.14c-1.43,2.85-0.49,6.6,1.05,9.96C50.87,35.84,29.35,14.45,19.99,8.5
		C14.03,4.72,7.52,4.93,3.4,9.05c-3.63,3.63-5.63,11.14,0.68,20.37c9.75,14.25,62.76,63.85,70.71,71.25
		c-3.29,2.26-14.7,9.09-30.58,7.65c-8.78-0.8-17.07,2-22.73,7.66c-5.29,5.29-6.69,11.72-3.34,15.3c6.05,6.46,31.33,6.08,51.47,4.63
		c6.57-0.47,13.29,2.53,20.39,5.71c11.97,5.36,25.54,11.43,41.83,1.96c8.4-4.88,16.36-11.05,23.64-18.33
		c18.62-18.62,28.71-40.33,25.12-54.01c-4.92-18.74-46.58-68.3-54.72-70.33C118.85-0.84,114.71-0.11,111.1,3.5z M130.81,141.8
		c-15.38,8.93-27.88,3.34-39.96-2.06c-7.35-3.29-14.29-6.4-21.38-5.88c-27.44,1.98-45.59,0.53-49.82-3.98
		c-2.52-2.69-1.11-8.04,3.29-12.44c2.47-2.47,9.48-8.12,21.09-7.06c19.68,1.78,32.49-8.37,33.03-8.8c0.23-0.19,0.37-0.47,0.38-0.76
		c0.01-0.3-0.11-0.59-0.33-0.79C76.5,99.45,15.98,43.15,5.79,28.26c-5.6-8.19-4-14.68-0.93-17.75c3.41-3.41,8.92-3.51,14.03-0.26
		c12.4,7.88,48.04,44.93,48.4,45.3c0.38,0.4,1.01,0.42,1.43,0.06c0.39-0.38,0.46-1,0.11-1.42c-2.45-2.97-8.31-11.64-6.09-16.1
		c0.61-1.22,1.51-2.43,2.68-3.6c3.9-3.9,9.8-6.36,13.03-6.4c4.42-0.05,7.73,1.43,7.77,1.45c0.41,0.18,0.88,0.1,1.19-0.24
		c0.3-0.33,0.36-0.81,0.14-1.2c-0.99-1.74-3.09-6.81-0.96-9.38c3.09-3.72,8.75-5.67,12.37-6.16c3.84-0.53,7.21,2.2,7.24,2.22
		c0.32,0.27,0.77,0.3,1.14,0.11c0.37-0.2,0.58-0.61,0.54-1.02c0-0.03-0.23-2.65,3.16-7.12c0.52-0.68,1.02-1.26,1.53-1.77
		c3.06-3.06,6.53-3.61,12.82-2.04c7.36,1.84,48.49,50.82,53.23,68.86c3.36,12.8-6.75,34.2-24.58,52.03
		C146.87,130.96,139.06,137.01,130.81,141.8z"/>
	<path class="st2" d="M42.75,53.29C28.63,40.42,13.32,28.04,4.34,11.17c-0.01-0.02-0.02-0.05-0.03-0.07
		c-2.7,3.27-3.79,9.46,1.47,17.15c9.7,14.17,64.98,65.84,70.82,71.29c0.35-1.03,0.51-2.15,0.5-3.22
		c-0.09-7.8-5.59-14.36-10.94-20.03C58.65,68.34,50.84,60.66,42.75,53.29z"/>
	<path class="st2" d="M146.49,130.7c-1.42,0.72-2.88,1.36-4.4,1.85c-3.01,0.96-6.17,1.32-9.29,1.82
		c-8.64,1.41-17.57,4.02-25.96,1.55c-4.22-1.25-7.97-3.71-11.95-5.59c-11.67-5.53-25.09-5.99-37.97-4.98
		c-6.76,0.53-13.56,1.43-20.29,0.58c-5.61-0.71-11.27-2.83-15.26-6.72c-3.12,3.98-3.9,8.32-1.71,10.66
		c4.22,4.51,22.38,5.96,49.82,3.98c7.09-0.51,14.03,2.6,21.38,5.88c12.08,5.41,24.57,11,39.96,2.06
		C136.25,138.64,141.5,134.92,146.49,130.7z"/>
	<path class="st2" d="M69.17,31.5c-1.34,0.86-2.62,1.86-3.75,2.98c-1.17,1.17-2.07,2.38-2.68,3.6c-2.23,4.46,3.64,13.13,6.09,16.1
		c0.35,0.43,0.28,1.04-0.11,1.42c-0.15,0.13-0.32,0.19-0.51,0.23c1.61,1.38,3.38,2.58,5.28,3.52c1.71-1.26,2.12-3.72,1.62-5.78
		c-0.5-2.06-1.73-3.85-2.81-5.69c-1.72-2.93-3.09-6.12-3.58-9.49C68.4,36.1,68.52,33.71,69.17,31.5z"/>
	<path class="st2" d="M91.57,26.56c-1.16-2.25-1.99-4.74-1.86-7.27c0.07-1.42,0.48-2.84,1.2-4.06c-1.64,0.91-3.16,2.06-4.32,3.46
		c-2.13,2.57-0.03,7.64,0.96,9.38c0.19,0.33,0.16,0.73-0.04,1.05c1.47,1.61,3.21,2.97,5.14,3.98C94.01,31.2,92.64,28.64,91.57,26.56
		z"/>
	<path class="st2" d="M112.56,4.95c-0.51,0.51-1.01,1.09-1.53,1.77c-3.39,4.47-3.16,7.09-3.16,7.12c0.04,0.36-0.12,0.7-0.4,0.92
		c1.34,1.84,3.19,3.31,5.35,4.04c0.45,0.15,0.95,0.27,1.39,0.08c0.75-0.33,0.85-1.33,0.78-2.14c-0.28-3.17-1.57-6.19-1.82-9.37
		c-0.08-1.05,0-2.15,0.25-3.2C113.13,4.41,112.84,4.67,112.56,4.95z"/>
	<path class="st2" d="M83.02,49.61c-0.62,0.14-1.07,0.54-1.26,1.27c-0.22,0.84,0.13,1.72,0.5,2.51c1.46,3.07,3.92,7.92,7.46,8.96
		c3.27,0.95,5.52-1.14,4.32-4.47c-0.4-1.12-0.82-2.24-1.45-3.24C91.7,53.25,85.75,48.97,83.02,49.61z"/>
	<path class="st2" d="M105.54,31.02c-0.47,0.04-0.85,0.29-1.07,0.81c-0.25,0.6-0.09,1.3,0.11,1.92c0.77,2.44,2.1,6.31,4.63,7.44
		c2.34,1.05,4.23-0.28,3.68-2.88c-0.19-0.87-0.38-1.75-0.75-2.56C111.63,34.64,107.64,30.83,105.54,31.02z"/>
	<path class="st2" d="M126.58,13.95c-0.4,0.04-0.72,0.24-0.9,0.69c-0.21,0.51-0.07,1.09,0.09,1.62c0.65,2.06,1.77,5.33,3.91,6.28
		c1.98,0.89,3.57-0.24,3.1-2.43c-0.16-0.74-0.32-1.48-0.63-2.16C131.72,17,128.36,13.79,126.58,13.95z"/>
	<path class="st3" d="M9.04,10.64c-0.54,0.09-0.4,0.91,0.12,0.92c4.64,0.07,8.61,1.37,11.97,4.67c1.56,1.53,3.28,3.57,5.63,2.77
		c0.35-0.12,0.43-0.57,0.1-0.77C21,14.61,16.68,9.29,9.04,10.64z"/>
	<path class="st3" d="M30.53,22.49c-0.64-0.49-1.23-1.04-1.79-1.61c-0.53-0.53-1.32,0.27-0.82,0.82c0.99,1.08,2.3,2.65,3.85,2.78
		c0.26,0.02,0.41-0.3,0.29-0.5C31.68,23.28,31.14,22.96,30.53,22.49z"/>
	<path class="st3" d="M37.43,113.76c-1.73-0.59-3.93,0.42-5.5,1.17c-1.81,0.86-3.58,2.21-4.58,3.96c-0.13,0.23,0.14,0.51,0.37,0.37
		c1.48-0.89,2.82-1.95,4.37-2.72c1.7-0.85,3.9-0.92,5.45-1.92C37.9,114.39,37.82,113.9,37.43,113.76z"/>
	<path class="st3" d="M139.05,21.19c-0.45-0.36-1.03,0.19-0.64,0.64c5.32,6.01,9.96,13.16,15.81,18.6c0.47,0.43,1.06-0.1,0.84-0.64
		C152.04,32.41,145.15,26.06,139.05,21.19z"/>
	<path class="st3" d="M159.58,45.3c-0.64-0.59-1.55,0.32-0.96,0.96c1.6,1.72,3.11,4.32,5.47,4.99c0.28,0.08,0.55-0.2,0.47-0.47
		C163.9,48.41,161.3,46.91,159.58,45.3z"/>
	<path class="st2" d="M152.28,122.07c-3.04,0.2-5.37,2.18-7.95,3.64c-4,2.26-8,4.25-12.7,4.12c-0.61-0.02-0.58,0.87,0,0.93
		c4,0.44,7.87,0.05,11.68-1.29c3.4-1.19,7.81-3.1,9.53-6.44C153.05,122.62,152.78,122.03,152.28,122.07z"/>
	<path class="st2" d="M150.69,116.22c-1.25,0.6-2.23,1.7-3.26,2.6c-1.41,1.23-3.08,2.31-4.77,3.1c-0.52,0.24-0.16,1.07,0.37,0.92
		c3.11-0.87,7.5-2.49,8.63-5.87C151.85,116.38,151.17,116,150.69,116.22z"/>
	<path class="st2" d="M75.21,77.76c-0.81-0.69-1.98,0.43-1.18,1.18c2.03,1.92,3.75,4.02,5.23,6.39c1.34,2.15,2.06,4.68,3.66,6.63
		c0.32,0.38,0.89,0.04,0.91-0.38C84.08,86.36,78.9,80.91,75.21,77.76z"/>
	<path class="st2" d="M85.66,86.89c0.44,2.05,0.91,4.61,2.1,6.36c0.21,0.31,0.77,0.24,0.75-0.2c-0.11-2.16-1.29-4.49-2.21-6.42
		C86.14,86.25,85.58,86.52,85.66,86.89z"/>
	<path class="st2" d="M95.1,54.29c0.84,2.05,1.44,4.74,3.02,6.34c0.23,0.23,0.67,0.07,0.66-0.27c-0.05-2.3-1.61-4.64-2.54-6.71
		C95.9,52.85,94.79,53.53,95.1,54.29z"/>
	<path class="st2" d="M96.42,49.81c0.25,1.13,0.73,2.55,1.86,3.07c0.28,0.13,0.63-0.09,0.54-0.42c-0.3-1.05-0.99-1.88-1.25-2.96
		C97.39,48.76,96.25,49.07,96.42,49.81z"/>
	<path class="st2" d="M115.4,36.71c0.3,0.93,0.64,1.85,0.9,2.8c0.26,0.92,0.33,2.07,0.86,2.87c0.16,0.25,0.46,0.48,0.78,0.45
		c0.07-0.01,0.14-0.01,0.21-0.02c0.5-0.04,0.89-0.46,0.76-0.98c-0.03-0.14-0.09-0.24-0.17-0.32c-1.05-1.52-1.7-3.49-2.42-5.17
		C116.09,35.82,115.22,36.18,115.4,36.71z"/>
	<path class="st2" d="M115.54,30.98c-0.03,1.51,0.3,3.14,1.8,3.85c0.38,0.18,0.84-0.12,0.73-0.56c-0.31-1.21-1.06-2.24-1.36-3.44
		C116.55,30.16,115.55,30.31,115.54,30.98z"/>
	<path class="st2" d="M129.53,25.49c-0.84-0.7-1.67-1.56-2.63-2.08c-0.54-0.29-1.12,0.3-0.83,0.83c0.52,0.97,1.38,1.79,2.08,2.63
		c0.63,0.75,1.21,1.54,2.27,1.36c0.22-0.04,0.44-0.26,0.48-0.48C131.07,26.69,130.28,26.11,129.53,25.49z"/>
</g>
</svg>
