<?xml version="1.0" encoding="utf-8"?>
<!-- Generator: Adobe Illustrator 24.1.1, SVG Export Plug-In . SVG Version: 6.00 Build 0)  -->
<svg version="1.1" id="Layer_1" xmlns="http://www.w3.org/2000/svg" xmlns:xlink="http://www.w3.org/1999/xlink" x="0px" y="0px"
	 viewBox="0 0 61.43 299.79" style="enable-background:new 0 0 61.43 299.79;" xml:space="preserve">
<style type="text/css">
	.st0{fill:#F96F08;}
	.st1{fill:#C1540A;}
	.st2{opacity:0.4;fill:#FBD5D0;}
	.st3{opacity:0.6;fill:#989A9C;}
	.st4{fill:#75C8B6;}
	.st5{fill:#A04405;}
	.st6{fill:#F96F08;stroke:#231F20;stroke-miterlimit:10;}
	.st7{opacity:0.6;fill:#989A9C;stroke:#231F20;stroke-miterlimit:10;}
	.st8{fill:#FFFFFF;}
	.st9{fill:#B0B2B5;}
	.st10{fill:#F96F08;stroke:#231F20;stroke-width:0.75;stroke-miterlimit:10;}
</style>
<g>
	<g>
		<g>
			<g>
				<g>
					<path class="st0" d="M30.19,51.83l0.36,0.04c0,0,0-0.03,0.02-0.06l20.13-2.05l3.37-0.8L35.18,4.44c0,0-1.83-3.71-6-2.97
						c-0.01,0-0.01,0.02-0.01,0.02c-3.32,0.1-4.68,3.04-4.68,3.04L6.26,49.3l3.38,0.76l20.17,1.75c0,0.04,0,0.06,0,0.06L30.19,51.83
						z"/>
					<path class="st1" d="M30.78,53.25c-0.12,0-0.23-0.01-0.35-0.02l-0.36-0.03l-0.1,0.04c-0.26,0.02-0.48-0.01-0.69-0.1L9.53,51.42
						l-3.57-0.78c-0.39-0.09-0.73-0.35-0.91-0.7c-0.19-0.36-0.21-0.78-0.06-1.15L23.22,4c0.09-0.21,1.74-3.66,5.73-3.89
						c0.07-0.01,0.14-0.02,0.22-0.02C29.4,0.04,29.84,0,30.26,0c4.21,0,6.07,3.68,6.15,3.83l18.92,44.58
						c0.16,0.37,0.15,0.8-0.03,1.16c-0.19,0.36-0.52,0.62-0.91,0.71l-3.37,0.8l-19.64,2.01C31.19,53.21,30.99,53.25,30.78,53.25z
						 M30.13,50.47l0.07,0c0.07-0.02,0.15-0.03,0.22-0.04l20.14-2.05l1.61-0.39L33.91,4.98c-0.01-0.01-1.38-2.64-4.36-2.18
						c-0.11,0.03-0.22,0.05-0.34,0.06c-2.44,0.07-3.47,2.22-3.48,2.24L8.14,48.31l1.8,0.4l19.98,1.72
						C30,50.44,30.07,50.45,30.13,50.47z"/>
				</g>
				<path class="st2" d="M14.25,46.25c2.69-0.77,5.5-1.13,8.24-1.01c1.36-10.77,4.15-31.69,5.17-39.74
					C24.66,14.81,17.28,36.8,14.25,46.25z"/>
				<path class="st2" d="M18.44,48.44c-1.5,0.12-3.31,0.19-5.03,0.48c-0.19,0.63-0.34,1.11-0.42,1.42l8.78,0.76
					c0.08-0.62,0.19-1.59,0.34-2.84C20.91,48.29,19.65,48.34,18.44,48.44z"/>
				<path class="st3" d="M35.18,4.44c0,0-1.5-3.01-4.85-3.05c2.82,11.64,5.85,23.24,8.74,34.86c1.2,4.78,2.36,9.56,3.59,14.32
					l8.04-0.82l3.37-0.8L35.18,4.44z"/>
				<g>
					<g>
						<path class="st4" d="M54.3,81.48l-0.23-32.53c-0.02-1.99-10.73-3.54-23.94-3.44c-13.2,0.1-23.89,1.8-23.87,3.79L6.5,81.83
							L54.3,81.48z"/>
						<path class="st5" d="M6.5,83.2c-0.37,0-0.71-0.14-0.97-0.4c-0.26-0.25-0.4-0.6-0.4-0.96L4.89,49.31
							C4.89,48.93,5,48.35,5.55,47.79c2.71-2.77,16.72-3.6,24.57-3.66l1.22,0c7.23,0,24.05,0.47,24.1,4.8l0.24,32.54
							c0.01,0.76-0.61,1.38-1.37,1.39L6.5,83.2L6.5,83.2z M7.63,49.6l0.22,30.85l45.06-0.33L52.7,49.28
							c-1.29-0.9-8.41-2.4-21.36-2.4l-1.2,0C16.46,46.98,8.97,48.64,7.63,49.6z"/>
					</g>
					<path class="st0" d="M54.3,81.48l-0.23-32.53c-0.02-1.99-10.73-3.54-23.94-3.44c-13.2,0.1-23.89,1.8-23.87,3.79L6.5,81.83
						L54.3,81.48z"/>
					<g>
						<path class="st6" d="M29.8,50.76c-15.44,0.11-27.95,2.59-27.93,5.55l0.39,53.06l0.15,20.86l1.2,162.55
							c0.01,2.95,12.56,5.25,28.01,5.14c15.45-0.12,27.97-2.6,27.94-5.54l-1.19-162.56l-0.04-5.53l-0.5-68.39
							C57.81,52.94,45.26,50.65,29.8,50.76z"/>
						<path class="st7" d="M30.53,299.29c-2.9,0-28.28-0.18-28.3-6.51L0.5,56.32c-0.02-2.29,2.93-3.94,9.27-5.19
							c5.36-1.06,12.47-1.68,20.02-1.74h1.1c2.89,0,28.26,0.18,28.31,6.49l1.74,236.48c0,0.49-0.14,1.23-0.88,1.98
							c-3.24,3.29-16.61,4.86-28.43,4.95L30.53,299.29z M30.89,52.13h-1.08c-16.44,0.11-25.9,2.8-26.58,4.26l1.75,236.37
							c0.61,1.21,9.01,3.78,25.56,3.78l1.07,0c16.44-0.12,25.92-2.8,26.6-4.26L56.46,55.9C55.84,54.7,47.44,52.13,30.89,52.13z"/>
					</g>
					<g>
						<path class="st8" d="M30.1,91.08C14.66,91.2,2.14,92.91,2.15,94.89l0.26,35.78l0.11,14.07l0.8,109.6
							c0.02,1.99,12.55,3.5,28.01,3.39c15.45-0.12,27.97-1.81,27.96-3.81l-0.81-109.6l-0.03-3.74l-0.34-46.11
							C58.09,92.48,45.55,90.98,30.1,91.08z"/>
						<path class="st9" d="M29.71,259.11c-10.35,0-27.72-0.61-27.77-4.75L0.78,94.9c-0.02-4.49,20.49-5.12,29.31-5.19l1.49,0
							c10.41,0,27.86,0.62,27.9,4.76l1.17,159.44c0.02,4.49-20.5,5.12-29.32,5.19L29.71,259.11z M4.69,253.95
							c1.71,1.05,10.93,2.41,25.03,2.41l1.6,0c15.03-0.11,24.82-1.66,26.59-2.8L56.75,94.87c-1.65-1.02-10.36-2.42-25.17-2.42
							l-1.47,0c-15.01,0.11-24.8,1.66-26.59,2.8L4.69,253.95z"/>
					</g>
				</g>
			</g>
			<g>
				<path class="st0" d="M31.21,242.72c-12.16,0.09-22.22-29.74-22.49-66.61c-0.26-36.88,9.36-66.85,21.52-66.94
					c12.15-0.09,22.22,29.74,22.49,66.61C53,212.66,43.36,242.62,31.21,242.72z"/>
				<path class="st10" d="M31.16,244.09c-13.07,0-23.53-29.86-23.81-67.97c-0.13-17.98,2.06-34.92,6.17-47.69
					c4.26-13.26,10.2-20.58,16.71-20.63c13.14,0,23.6,29.86,23.88,67.97c0.27,38.21-9.78,68.22-22.88,68.32
					C31.23,244.09,31.16,244.09,31.16,244.09z M30.29,110.53c-5.21,0.04-10.36,6.86-14.16,18.72c-4.02,12.51-6.17,29.14-6.04,46.84
					c0.29,39.03,11.12,65.25,21.06,65.25v1.37l0.05-1.37c9.96-0.08,20.44-26.44,20.16-65.56C51.08,136.75,40.24,110.53,30.29,110.53
					z"/>
			</g>
		</g>
		<path class="st2" d="M19.52,51.21c-2.61,0.22-5.03,0.51-7.19,0.85l1.8,244.81c2.17,0.32,4.6,0.57,7.21,0.74L19.52,51.21z"/>
		<path class="st3" d="M43.9,51.38l1.8,245.71c8.31-0.99,13.89-2.77,13.86-4.71L57.83,55.9C57.81,53.92,52.21,52.25,43.9,51.38z"/>
	</g>
</g>
</svg>
