<?xml version="1.0" encoding="utf-8"?>
<!-- Generator: Adobe Illustrator 24.1.1, SVG Export Plug-In . SVG Version: 6.00 Build 0)  -->
<svg version="1.1" id="Layer_1" xmlns="http://www.w3.org/2000/svg" xmlns:xlink="http://www.w3.org/1999/xlink" x="0px" y="0px"
	 viewBox="0 0 61.43 299.79" style="enable-background:new 0 0 61.43 299.79;" xml:space="preserve">
<style type="text/css">
	.st0{fill:#FFEE15;stroke:#231F20;stroke-width:0.75;stroke-miterlimit:10;}
	.st1{fill:#F9A245;}
	.st2{opacity:0.4;fill:#FBD5D0;}
	.st3{fill:#FFDE77;}
	.st4{fill:#FFEE15;stroke:#231F20;stroke-miterlimit:10;}
	.st5{fill:#F9A245;stroke:#231F20;stroke-miterlimit:10;}
	.st6{fill:#FFFFFF;}
	.st7{fill:#B0B2B5;}
	.st8{opacity:0.6;fill:#BBBDBF;}
</style>
<g>
	<g>
		<g>
			<g>
				<g>
					<path class="st0" d="M30.96,51.34l0.37,0.03c0,0,0.01-0.03,0.02-0.07l20.52-1.93l3.44-0.79L36.34,3.74c0,0-1.84-3.74-6.09-3.02
						c-0.01,0-0.01,0,0,0.01c-3.39,0.07-4.79,3.02-4.79,3.02L6.6,48.63l3.44,0.78l20.53,1.89c0.01,0.04,0.02,0.08,0.02,0.08
						L30.96,51.34z"/>
					<path class="st1" d="M30.59,52.73c-0.2,0-0.39-0.04-0.57-0.12L9.92,50.76l-3.62-0.81c-0.39-0.08-0.73-0.34-0.91-0.7
						c-0.18-0.35-0.21-0.77-0.05-1.13L24.19,3.24c0.09-0.21,1.78-3.66,5.84-3.85c0.07-0.01,0.14-0.02,0.22-0.02
						c0.22-0.06,0.66-0.09,1.07-0.09c4.31,0,6.18,3.71,6.26,3.87l18.99,44.91c0.16,0.36,0.14,0.78-0.04,1.13
						c-0.19,0.36-0.51,0.61-0.91,0.71l-3.44,0.79l-20.34,1.92c-0.2,0.08-0.43,0.12-0.65,0.11l-0.37-0.04l-0.09,0.04
						C30.69,52.73,30.64,52.73,30.59,52.73z M30.94,50l0.04,0c0.08-0.02,0.16-0.04,0.24-0.05l20.52-1.93l1.69-0.39L35.08,4.26
						c-0.02-0.02-1.38-2.67-4.45-2.23c-0.12,0.03-0.23,0.05-0.35,0.05c-2.51,0.05-3.57,2.22-3.58,2.24L8.49,47.67l1.86,0.42
						l20.35,1.86C30.78,49.96,30.86,49.98,30.94,50z"/>
				</g>
				<path class="st2" d="M14.77,45.64c2.72-0.77,5.59-1.11,8.39-0.98c1.45-10.8,4.42-31.82,5.51-39.9
					C25.56,14.1,17.91,36.13,14.77,45.64z"/>
				<path class="st2" d="M19.02,47.85c-1.55,0.11-3.36,0.18-5.13,0.45c-0.19,0.63-0.35,1.12-0.44,1.42l8.94,0.82
					c0.08-0.62,0.2-1.6,0.37-2.85C21.51,47.72,20.26,47.76,19.02,47.85z"/>
				<path class="st3" d="M36.34,3.74c0,0-1.51-3.04-4.94-3.1c2.82,11.72,5.83,23.38,8.71,35.1c1.18,4.81,2.35,9.6,3.57,14.41
					l8.18-0.78l3.44-0.79L36.34,3.74z"/>
				<g>
					<g>
						<path class="st3" d="M55.34,81.28l-0.03-32.7c-0.01-2-10.91-3.62-24.36-3.6C17.5,45,6.6,46.63,6.6,48.63l0.05,32.71
							L55.34,81.28z"/>
						<path class="st1" d="M6.64,82.69c-0.76,0-1.37-0.6-1.37-1.35L5.23,48.63c0-4.61,19.68-4.99,25.71-5
							c6.19,0,25.72,0.36,25.73,4.94l0.04,32.71c0,0.75-0.62,1.36-1.37,1.36L6.64,82.69L6.64,82.69z M7.97,48.93l0.04,31.05
							l45.96-0.05l-0.04-31.05c-1.34-0.95-8.92-2.55-22.79-2.55C16.96,46.35,9.32,47.98,7.97,48.93z"/>
					</g>
					<g>
						<path class="st4" d="M30.59,50.26c-15.74,0.01-28.51,2.44-28.51,5.4l0.07,53.33l0.03,20.98l0.19,163.36
							c0,2.96,12.77,5.36,28.52,5.34c15.73-0.01,28.49-2.43,28.48-5.4l-0.19-163.37v-5.56L59.1,55.6
							C59.08,52.63,46.32,50.24,30.59,50.26z"/>
						<path class="st5" d="M30.67,300.01c-1.21,0-29.68-0.08-29.68-6.69L0.71,55.65c0-6.65,28.66-6.75,29.88-6.75
							c1.39,0,29.85,0.07,29.88,6.69l0.26,237.67c0,0.49-0.15,1.23-0.9,1.97c-3.32,3.29-16.94,4.77-28.95,4.78H30.67z M30.76,51.61
							c-16.99,0.01-26.64,2.66-27.32,4.14l0.29,237.58c0.67,1.37,10.25,3.98,26.94,3.98v1.35l0.21-1.35
							c16.8-0.02,26.45-2.66,27.13-4.13L57.73,55.6C57.06,54.22,47.46,51.61,30.76,51.61z"/>
					</g>
					<g>
						<path class="st6" d="M30.64,90.79C14.89,90.8,2.13,92.44,2.13,94.44l0.04,35.95l0.03,14.14l0.12,110.16
							c-0.01,2.01,12.76,3.61,28.51,3.59c15.73-0.02,28.49-1.65,28.49-3.66l-0.13-110.15v-3.75l-0.05-46.34
							C59.13,92.37,46.37,90.77,30.64,90.79z"/>
						<path class="st7" d="M30.59,259.63c-9.45,0-26.21-0.74-29.01-3.52c-0.53-0.52-0.64-1.06-0.64-1.43L0.76,94.45
							c0-4.49,20.89-5,29.88-5.01c9.14,0,29.87,0.48,29.88,4.94l0.18,160.24c0,4.49-20.89,5-29.87,5.01H30.59z M3.69,254.33
							c1.77,1.13,11.68,2.6,26.91,2.6v1.35l0.23-1.35c15.35-0.02,25.34-1.52,27.12-2.66L57.77,94.74c-1.77-1.14-11.68-2.6-26.9-2.6
							C15.29,92.16,5.28,93.66,3.5,94.8L3.69,254.33z"/>
					</g>
				</g>
			</g>
			<g>
				<path class="st4" d="M30.8,243.19c-12.38,0.01-22.44-30.02-22.49-67.09c-0.04-37.06,9.96-67.13,22.35-67.14
					c12.36-0.01,22.44,30.03,22.48,67.09C53.18,213.11,43.18,243.17,30.8,243.19z"/>
				<path class="st5" d="M30.8,244.54L30.8,244.54c-13.33,0-23.82-30.06-23.86-68.44c-0.04-38.4,10.37-68.48,23.72-68.5
					c13.33,0,23.81,30.06,23.85,68.44C54.55,214.43,44.14,244.52,30.8,244.54z M30.67,110.3c-10.17,0.01-21.03,26.45-20.99,65.79
					c0.05,39.33,10.96,65.74,21.11,65.74v1.35l0.01-1.35c10.17-0.01,21.02-26.45,20.97-65.79C51.73,136.72,40.82,110.3,30.67,110.3z
					"/>
			</g>
		</g>
		<path class="st2" d="M20.11,50.65c-2.66,0.2-5.14,0.47-7.34,0.8l0.28,246.05c2.2,0.33,4.68,0.59,7.33,0.79L20.11,50.65z"/>
		<path class="st3" d="M59.13,91.68L59.1,55.6c-0.02-1.98-5.72-3.7-14.17-4.63l0.04,37.97C49.61,89.63,54.58,90.23,59.13,91.68z"/>
		<path class="st8" d="M59.31,253.46L59.15,94.35c-4.35-1.93-9.46-2.59-14.17-3.24l0.18,167.28
			C50.17,257.88,55.11,256.33,59.31,253.46z"/>
		<path class="st3" d="M45.16,257.83l0.05,40.09c8.46-0.94,14.15-2.68,14.14-4.66l-0.04-39.26
			C54.93,256.19,50.11,257.38,45.16,257.83z"/>
	</g>
</g>
</svg>
